ISO-10303-21;
HEADER;
FILE_DESCRIPTION(('Open CASCADE Model'),'2;1');
FILE_NAME('Open CASCADE Shape Model','2026-09-05T22:42:45',('Author'),(
    'Open CASCADE'),'Open CASCADE STEP processor 7.9','build123d',
  'Unknown');
FILE_SCHEMA(('AUTOMOTIVE_DESIGN { 1 0 10303 214 1 1 1 1 }'));
ENDSEC;
DATA;
#1 = APPLICATION_PROTOCOL_DEFINITION('international standard',
  'automotive_design',2000,#2);
#2 = APPLICATION_CONTEXT(
  'core data for automotive mechanical design processes');
#3 = SHAPE_DEFINITION_REPRESENTATION(#4,#10);
#4 = PRODUCT_DEFINITION_SHAPE('','',#5);
#5 = PRODUCT_DEFINITION('design','',#6,#9);
#6 = PRODUCT_DEFINITION_FORMATION('','',#7);
#7 = PRODUCT('=>[0:1:1:2]','=>[0:1:1:2]','',(#8));
#8 = PRODUCT_CONTEXT('',#2,'mechanical');
#9 = PRODUCT_DEFINITION_CONTEXT('part definition',#2,'design');
#10 = SHAPE_REPRESENTATION('',(#11,#15),#19);
#11 = AXIS2_PLACEMENT_3D('',#12,#13,#14);
#12 = CARTESIAN_POINT('',(0.,0.,0.));
#13 = DIRECTION('',(0.,0.,1.));
#14 = DIRECTION('',(1.,0.,-0.));
#15 = AXIS2_PLACEMENT_3D('',#16,#17,#18);
#16 = CARTESIAN_POINT('',(0.,-0.811602191686,0.));
#17 = DIRECTION('',(0.,0.,1.));
#18 = DIRECTION('',(1.,0.,-0.));
#19 = ( GEOMETRIC_REPRESENTATION_CONTEXT(3) 
GLOBAL_UNCERTAINTY_ASSIGNED_CONTEXT((#23)) GLOBAL_UNIT_ASSIGNED_CONTEXT(
(#20,#21,#22)) REPRESENTATION_CONTEXT('Context #1',
  '3D Context with UNIT and UNCERTAINTY') );
#20 = ( LENGTH_UNIT() NAMED_UNIT(*) SI_UNIT(.MILLI.,.METRE.) );
#21 = ( NAMED_UNIT(*) PLANE_ANGLE_UNIT() SI_UNIT($,.RADIAN.) );
#22 = ( NAMED_UNIT(*) SI_UNIT($,.STERADIAN.) SOLID_ANGLE_UNIT() );
#23 = UNCERTAINTY_MEASURE_WITH_UNIT(LENGTH_MEASURE(2.E-07),#20,
  'distance_accuracy_value','confusion accuracy');
#24 = PRODUCT_RELATED_PRODUCT_CATEGORY('part',$,(#7));
#25 = SHAPE_DEFINITION_REPRESENTATION(#26,#32);
#26 = PRODUCT_DEFINITION_SHAPE('','',#27);
#27 = PRODUCT_DEFINITION('design','',#28,#31);
#28 = PRODUCT_DEFINITION_FORMATION('','',#29);
#29 = PRODUCT('COMPOUND','COMPOUND','',(#30));
#30 = PRODUCT_CONTEXT('',#2,'mechanical');
#31 = PRODUCT_DEFINITION_CONTEXT('part definition',#2,'design');
#32 = ADVANCED_BREP_SHAPE_REPRESENTATION('',(#11,#33),#1704);
#33 = MANIFOLD_SOLID_BREP('',#34);
#34 = CLOSED_SHELL('',(#35,#111,#190,#428,#452,#488,#505,#577,#671,#702,
    #726,#750,#774,#798,#815,#832,#855,#867,#908,#932,#957,#974,#998,
    #1061,#1126,#1143,#1167,#1225,#1242,#1315,#1339,#1363,#1387,#1411,
    #1428,#1445,#1470,#1487,#1504,#1521,#1538,#1555,#1567,#1584,#1599,
    #1616,#1633,#1650,#1667,#1679,#1692));
#35 = ADVANCED_FACE('',(#36),#106,.T.);
#36 = FACE_BOUND('',#37,.T.);
#37 = EDGE_LOOP('',(#38,#48,#57,#65,#74,#82,#91,#99));
#38 = ORIENTED_EDGE('',*,*,#39,.F.);
#39 = EDGE_CURVE('',#40,#42,#44,.T.);
#40 = VERTEX_POINT('',#41);
#41 = CARTESIAN_POINT('',(2.073033750134,20.394914343306,0.));
#42 = VERTEX_POINT('',#43);
#43 = CARTESIAN_POINT('',(2.073033750134,20.394914343306,4.45));
#44 = LINE('',#45,#46);
#45 = CARTESIAN_POINT('',(2.073033750134,20.394914343306,0.));
#46 = VECTOR('',#47,1.);
#47 = DIRECTION('',(0.,0.,1.));
#48 = ORIENTED_EDGE('',*,*,#49,.T.);
#49 = EDGE_CURVE('',#40,#50,#52,.T.);
#50 = VERTEX_POINT('',#51);
#51 = CARTESIAN_POINT('',(-20.27929979067,3.,0.));
#52 = CIRCLE('',#53,20.5);
#53 = AXIS2_PLACEMENT_3D('',#54,#55,#56);
#54 = CARTESIAN_POINT('',(0.,0.,0.));
#55 = DIRECTION('',(0.,-0.,1.));
#56 = DIRECTION('',(0.101123597568,0.994873870405,0.));
#57 = ORIENTED_EDGE('',*,*,#58,.T.);
#58 = EDGE_CURVE('',#50,#59,#61,.T.);
#59 = VERTEX_POINT('',#60);
#60 = CARTESIAN_POINT('',(-20.27929979067,3.,2.));
#61 = LINE('',#62,#63);
#62 = CARTESIAN_POINT('',(-20.27929979067,3.,0.));
#63 = VECTOR('',#64,1.);
#64 = DIRECTION('',(0.,0.,1.));
#65 = ORIENTED_EDGE('',*,*,#66,.T.);
#66 = EDGE_CURVE('',#59,#67,#69,.T.);
#67 = VERTEX_POINT('',#68);
#68 = CARTESIAN_POINT('',(-20.27929979067,-3.,2.));
#69 = CIRCLE('',#70,20.5);
#70 = AXIS2_PLACEMENT_3D('',#71,#72,#73);
#71 = CARTESIAN_POINT('',(0.,0.,2.));
#72 = DIRECTION('',(0.,0.,1.));
#73 = DIRECTION('',(-0.98923413613,0.146341463415,0.));
#74 = ORIENTED_EDGE('',*,*,#75,.F.);
#75 = EDGE_CURVE('',#76,#67,#78,.T.);
#76 = VERTEX_POINT('',#77);
#77 = CARTESIAN_POINT('',(-20.27929979067,-3.,0.));
#78 = LINE('',#79,#80);
#79 = CARTESIAN_POINT('',(-20.27929979067,-3.,0.));
#80 = VECTOR('',#81,1.);
#81 = DIRECTION('',(0.,0.,1.));
#82 = ORIENTED_EDGE('',*,*,#83,.T.);
#83 = EDGE_CURVE('',#76,#84,#86,.T.);
#84 = VERTEX_POINT('',#85);
#85 = CARTESIAN_POINT('',(-19.72509123435,-5.583079418777,0.));
#86 = CIRCLE('',#87,20.5);
#87 = AXIS2_PLACEMENT_3D('',#88,#89,#90);
#88 = CARTESIAN_POINT('',(0.,0.,0.));
#89 = DIRECTION('',(0.,-0.,1.));
#90 = DIRECTION('',(0.101123597568,0.994873870405,0.));
#91 = ORIENTED_EDGE('',*,*,#92,.T.);
#92 = EDGE_CURVE('',#84,#93,#95,.T.);
#93 = VERTEX_POINT('',#94);
#94 = CARTESIAN_POINT('',(-19.72509123435,-5.583079418777,4.45));
#95 = LINE('',#96,#97);
#96 = CARTESIAN_POINT('',(-19.72509123435,-5.583079418777,0.));
#97 = VECTOR('',#98,1.);
#98 = DIRECTION('',(0.,0.,1.));
#99 = ORIENTED_EDGE('',*,*,#100,.T.);
#100 = EDGE_CURVE('',#93,#42,#101,.T.);
#101 = CIRCLE('',#102,20.5);
#102 = AXIS2_PLACEMENT_3D('',#103,#104,#105);
#103 = CARTESIAN_POINT('',(0.,0.,4.45));
#104 = DIRECTION('',(0.,0.,-1.));
#105 = DIRECTION('',(0.245241805325,0.969461941966,0.));
#106 = CYLINDRICAL_SURFACE('',#107,20.5);
#107 = AXIS2_PLACEMENT_3D('',#108,#109,#110);
#108 = CARTESIAN_POINT('',(0.,0.,0.));
#109 = DIRECTION('',(0.,0.,1.));
#110 = DIRECTION('',(1.,0.,-0.));
#111 = ADVANCED_FACE('',(#112),#185,.T.);
#112 = FACE_BOUND('',#113,.T.);
#113 = EDGE_LOOP('',(#114,#124,#132,#138,#139,#147,#155,#163,#171,#179)
  );
#114 = ORIENTED_EDGE('',*,*,#115,.T.);
#115 = EDGE_CURVE('',#116,#118,#120,.T.);
#116 = VERTEX_POINT('',#117);
#117 = CARTESIAN_POINT('',(2.039163968237,20.202829264998,7.24));
#118 = VERTEX_POINT('',#119);
#119 = CARTESIAN_POINT('',(2.377777914688,22.123204383371,7.24));
#120 = LINE('',#121,#122);
#121 = CARTESIAN_POINT('',(1.926292652754,19.56270422554,7.24));
#122 = VECTOR('',#123,1.);
#123 = DIRECTION('',(0.173648177667,0.984807753012,0.));
#124 = ORIENTED_EDGE('',*,*,#125,.F.);
#125 = EDGE_CURVE('',#126,#118,#128,.T.);
#126 = VERTEX_POINT('',#127);
#127 = CARTESIAN_POINT('',(2.377777914688,22.123204383371,0.));
#128 = LINE('',#129,#130);
#129 = CARTESIAN_POINT('',(2.377777914688,22.123204383371,0.));
#130 = VECTOR('',#131,1.);
#131 = DIRECTION('',(0.,0.,1.));
#132 = ORIENTED_EDGE('',*,*,#133,.F.);
#133 = EDGE_CURVE('',#40,#126,#134,.T.);
#134 = LINE('',#135,#136);
#135 = CARTESIAN_POINT('',(1.926292652754,19.56270422554,0.));
#136 = VECTOR('',#137,1.);
#137 = DIRECTION('',(0.173648177667,0.984807753012,0.));
#138 = ORIENTED_EDGE('',*,*,#39,.T.);
#139 = ORIENTED_EDGE('',*,*,#140,.T.);
#140 = EDGE_CURVE('',#42,#141,#143,.T.);
#141 = VERTEX_POINT('',#142);
#142 = CARTESIAN_POINT('',(1.926292652754,19.56270422554,4.45));
#143 = LINE('',#144,#145);
#144 = CARTESIAN_POINT('',(0.224540511618,9.91158824602,4.45));
#145 = VECTOR('',#146,1.);
#146 = DIRECTION('',(-0.173648177667,-0.984807753012,0.));
#147 = ORIENTED_EDGE('',*,*,#148,.T.);
#148 = EDGE_CURVE('',#141,#149,#151,.T.);
#149 = VERTEX_POINT('',#150);
#150 = CARTESIAN_POINT('',(1.926292652754,19.56270422554,6.05));
#151 = LINE('',#152,#153);
#152 = CARTESIAN_POINT('',(1.926292652754,19.56270422554,0.));
#153 = VECTOR('',#154,1.);
#154 = DIRECTION('',(0.,0.,1.));
#155 = ORIENTED_EDGE('',*,*,#156,.F.);
#156 = EDGE_CURVE('',#157,#149,#159,.T.);
#157 = VERTEX_POINT('',#158);
#158 = CARTESIAN_POINT('',(1.86551579057,19.218021511985,6.05));
#159 = LINE('',#160,#161);
#160 = CARTESIAN_POINT('',(1.86551579057,19.218021511985,6.05));
#161 = VECTOR('',#162,1.);
#162 = DIRECTION('',(0.173648177667,0.984807753012,0.));
#163 = ORIENTED_EDGE('',*,*,#164,.T.);
#164 = EDGE_CURVE('',#157,#165,#167,.T.);
#165 = VERTEX_POINT('',#166);
#166 = CARTESIAN_POINT('',(1.86551579057,19.218021511985,7.25));
#167 = LINE('',#168,#169);
#168 = CARTESIAN_POINT('',(1.86551579057,19.218021511985,6.05));
#169 = VECTOR('',#170,1.);
#170 = DIRECTION('',(0.,0.,1.));
#171 = ORIENTED_EDGE('',*,*,#172,.T.);
#172 = EDGE_CURVE('',#165,#173,#175,.T.);
#173 = VERTEX_POINT('',#174);
#174 = CARTESIAN_POINT('',(2.039163968237,20.202829264998,7.25));
#175 = LINE('',#176,#177);
#176 = CARTESIAN_POINT('',(1.86551579057,19.218021511985,7.25));
#177 = VECTOR('',#178,1.);
#178 = DIRECTION('',(0.173648177667,0.984807753012,0.));
#179 = ORIENTED_EDGE('',*,*,#180,.F.);
#180 = EDGE_CURVE('',#116,#173,#181,.T.);
#181 = LINE('',#182,#183);
#182 = CARTESIAN_POINT('',(2.039163968237,20.202829264998,6.05));
#183 = VECTOR('',#184,1.);
#184 = DIRECTION('',(0.,0.,1.));
#185 = PLANE('',#186);
#186 = AXIS2_PLACEMENT_3D('',#187,#188,#189);
#187 = CARTESIAN_POINT('',(1.926292652754,19.56270422554,0.));
#188 = DIRECTION('',(-0.984807753012,0.173648177667,0.));
#189 = DIRECTION('',(0.,0.,1.));
#190 = ADVANCED_FACE('',(#191,#333,#344,#412),#423,.F.);
#191 = FACE_BOUND('',#192,.F.);
#192 = EDGE_LOOP('',(#193,#194,#195,#203,#212,#218,#219,#227,#235,#243,
    #252,#260,#268,#276,#285,#293,#302,#310,#319,#327));
#193 = ORIENTED_EDGE('',*,*,#133,.F.);
#194 = ORIENTED_EDGE('',*,*,#49,.T.);
#195 = ORIENTED_EDGE('',*,*,#196,.F.);
#196 = EDGE_CURVE('',#197,#50,#199,.T.);
#197 = VERTEX_POINT('',#198);
#198 = CARTESIAN_POINT('',(-20.69722436226,3.,0.));
#199 = LINE('',#200,#201);
#200 = CARTESIAN_POINT('',(-23.,3.,0.));
#201 = VECTOR('',#202,1.);
#202 = DIRECTION('',(1.,0.,-0.));
#203 = ORIENTED_EDGE('',*,*,#204,.T.);
#204 = EDGE_CURVE('',#197,#205,#207,.T.);
#205 = VERTEX_POINT('',#206);
#206 = CARTESIAN_POINT('',(-20.69722436226,-3.,0.));
#207 = CIRCLE('',#208,3.5);
#208 = AXIS2_PLACEMENT_3D('',#209,#210,#211);
#209 = CARTESIAN_POINT('',(-22.5,0.,0.));
#210 = DIRECTION('',(0.,0.,1.));
#211 = DIRECTION('',(1.,0.,-0.));
#212 = ORIENTED_EDGE('',*,*,#213,.T.);
#213 = EDGE_CURVE('',#205,#76,#214,.T.);
#214 = LINE('',#215,#216);
#215 = CARTESIAN_POINT('',(-23.,-3.,0.));
#216 = VECTOR('',#217,1.);
#217 = DIRECTION('',(1.,0.,-0.));
#218 = ORIENTED_EDGE('',*,*,#83,.T.);
#219 = ORIENTED_EDGE('',*,*,#220,.T.);
#220 = EDGE_CURVE('',#84,#221,#223,.T.);
#221 = VERTEX_POINT('',#222);
#222 = CARTESIAN_POINT('',(-21.37420639643,-6.183308250651,0.));
#223 = LINE('',#224,#225);
#224 = CARTESIAN_POINT('',(-18.93100558239,-5.294055878004,0.));
#225 = VECTOR('',#226,1.);
#226 = DIRECTION('',(-0.939692620786,-0.342020143326,0.));
#227 = ORIENTED_EDGE('',*,*,#228,.T.);
#228 = EDGE_CURVE('',#221,#229,#231,.T.);
#229 = VERTEX_POINT('',#230);
#230 = CARTESIAN_POINT('',(-20.34814596645,-9.002386113009,0.));
#231 = LINE('',#232,#233);
#232 = CARTESIAN_POINT('',(-21.37420639643,-6.183308250651,0.));
#233 = VECTOR('',#234,1.);
#234 = DIRECTION('',(0.342020143326,-0.939692620786,0.));
#235 = ORIENTED_EDGE('',*,*,#236,.F.);
#236 = EDGE_CURVE('',#237,#229,#239,.T.);
#237 = VERTEX_POINT('',#238);
#238 = CARTESIAN_POINT('',(-18.69903080437,-8.402157281134,0.));
#239 = LINE('',#240,#241);
#240 = CARTESIAN_POINT('',(-17.90494515241,-8.113133740362,0.));
#241 = VECTOR('',#242,1.);
#242 = DIRECTION('',(-0.939692620786,-0.342020143326,0.));
#243 = ORIENTED_EDGE('',*,*,#244,.T.);
#244 = EDGE_CURVE('',#237,#245,#247,.T.);
#245 = VERTEX_POINT('',#246);
#246 = CARTESIAN_POINT('',(14.697634225184,-14.29089039152,0.));
#247 = CIRCLE('',#248,20.5);
#248 = AXIS2_PLACEMENT_3D('',#249,#250,#251);
#249 = CARTESIAN_POINT('',(0.,0.,0.));
#250 = DIRECTION('',(0.,-0.,1.));
#251 = DIRECTION('',(0.101123597568,0.994873870405,0.));
#252 = ORIENTED_EDGE('',*,*,#253,.T.);
#253 = EDGE_CURVE('',#245,#254,#256,.T.);
#254 = VERTEX_POINT('',#255);
#255 = CARTESIAN_POINT('',(16.042005222711,-15.41895159972,0.));
#256 = LINE('',#257,#258);
#257 = CARTESIAN_POINT('',(14.050289670602,-13.74770381453,0.));
#258 = VECTOR('',#259,1.);
#259 = DIRECTION('',(0.766044443119,-0.642787609687,0.));
#260 = ORIENTED_EDGE('',*,*,#261,.T.);
#261 = EDGE_CURVE('',#254,#262,#264,.T.);
#262 = VERTEX_POINT('',#263);
#263 = CARTESIAN_POINT('',(17.970368051771,-13.12081827036,0.));
#264 = LINE('',#265,#266);
#265 = CARTESIAN_POINT('',(16.042005222711,-15.41895159972,0.));
#266 = VECTOR('',#267,1.);
#267 = DIRECTION('',(0.642787609687,0.766044443119,0.));
#268 = ORIENTED_EDGE('',*,*,#269,.F.);
#269 = EDGE_CURVE('',#270,#262,#272,.T.);
#270 = VERTEX_POINT('',#271);
#271 = CARTESIAN_POINT('',(16.625997054244,-11.99275706217,0.));
#272 = LINE('',#273,#274);
#273 = CARTESIAN_POINT('',(15.978652499662,-11.44957048517,0.));
#274 = VECTOR('',#275,1.);
#275 = DIRECTION('',(0.766044443119,-0.642787609687,0.));
#276 = ORIENTED_EDGE('',*,*,#277,.T.);
#277 = EDGE_CURVE('',#270,#278,#280,.T.);
#278 = VERTEX_POINT('',#279);
#279 = CARTESIAN_POINT('',(20.279299790673,-3.,0.));
#280 = CIRCLE('',#281,20.5);
#281 = AXIS2_PLACEMENT_3D('',#282,#283,#284);
#282 = CARTESIAN_POINT('',(0.,0.,0.));
#283 = DIRECTION('',(0.,-0.,1.));
#284 = DIRECTION('',(0.101123597568,0.994873870405,0.));
#285 = ORIENTED_EDGE('',*,*,#286,.T.);
#286 = EDGE_CURVE('',#278,#287,#289,.T.);
#287 = VERTEX_POINT('',#288);
#288 = CARTESIAN_POINT('',(20.697224362268,-3.,0.));
#289 = LINE('',#290,#291);
#290 = CARTESIAN_POINT('',(18.,-3.,0.));
#291 = VECTOR('',#292,1.);
#292 = DIRECTION('',(1.,0.,-0.));
#293 = ORIENTED_EDGE('',*,*,#294,.F.);
#294 = EDGE_CURVE('',#295,#287,#297,.T.);
#295 = VERTEX_POINT('',#296);
#296 = CARTESIAN_POINT('',(20.697224362268,3.,0.));
#297 = CIRCLE('',#298,3.5);
#298 = AXIS2_PLACEMENT_3D('',#299,#300,#301);
#299 = CARTESIAN_POINT('',(22.5,0.,0.));
#300 = DIRECTION('',(0.,0.,-1.));
#301 = DIRECTION('',(-0.62380952381,0.781576405737,0.));
#302 = ORIENTED_EDGE('',*,*,#303,.F.);
#303 = EDGE_CURVE('',#304,#295,#306,.T.);
#304 = VERTEX_POINT('',#305);
#305 = CARTESIAN_POINT('',(20.279299790673,3.,0.));
#306 = LINE('',#307,#308);
#307 = CARTESIAN_POINT('',(18.,3.,0.));
#308 = VECTOR('',#309,1.);
#309 = DIRECTION('',(1.,0.,-0.));
#310 = ORIENTED_EDGE('',*,*,#311,.T.);
#311 = EDGE_CURVE('',#304,#312,#314,.T.);
#312 = VERTEX_POINT('',#313);
#313 = CARTESIAN_POINT('',(5.027457009171,19.873969810306,0.));
#314 = CIRCLE('',#315,20.5);
#315 = AXIS2_PLACEMENT_3D('',#316,#317,#318);
#316 = CARTESIAN_POINT('',(0.,0.,0.));
#317 = DIRECTION('',(0.,-0.,1.));
#318 = DIRECTION('',(0.101123597568,0.994873870405,0.));
#319 = ORIENTED_EDGE('',*,*,#320,.T.);
#320 = EDGE_CURVE('',#312,#321,#323,.T.);
#321 = VERTEX_POINT('',#322);
#322 = CARTESIAN_POINT('',(5.332201173724,21.602259850371,0.));
#323 = LINE('',#324,#325);
#324 = CARTESIAN_POINT('',(4.88071591179,19.041759692539,0.));
#325 = VECTOR('',#326,1.);
#326 = DIRECTION('',(0.173648177667,0.984807753012,0.));
#327 = ORIENTED_EDGE('',*,*,#328,.T.);
#328 = EDGE_CURVE('',#321,#126,#329,.T.);
#329 = LINE('',#330,#331);
#330 = CARTESIAN_POINT('',(5.332201173724,21.602259850371,0.));
#331 = VECTOR('',#332,1.);
#332 = DIRECTION('',(-0.984807753012,0.173648177667,0.));
#333 = FACE_BOUND('',#334,.F.);
#334 = EDGE_LOOP('',(#335));
#335 = ORIENTED_EDGE('',*,*,#336,.F.);
#336 = EDGE_CURVE('',#337,#337,#339,.T.);
#337 = VERTEX_POINT('',#338);
#338 = CARTESIAN_POINT('',(-20.8,-4.163799117101E-16,0.));
#339 = CIRCLE('',#340,1.7);
#340 = AXIS2_PLACEMENT_3D('',#341,#342,#343);
#341 = CARTESIAN_POINT('',(-22.5,0.,0.));
#342 = DIRECTION('',(0.,0.,1.));
#343 = DIRECTION('',(1.,0.,-0.));
#344 = FACE_BOUND('',#345,.F.);
#345 = EDGE_LOOP('',(#346,#357,#365,#373,#381,#390,#398,#406));
#346 = ORIENTED_EDGE('',*,*,#347,.F.);
#347 = EDGE_CURVE('',#348,#350,#352,.T.);
#348 = VERTEX_POINT('',#349);
#349 = CARTESIAN_POINT('',(18.052423659996,3.,0.));
#350 = VERTEX_POINT('',#351);
#351 = CARTESIAN_POINT('',(-18.05242365999,3.,0.));
#352 = CIRCLE('',#353,18.3);
#353 = AXIS2_PLACEMENT_3D('',#354,#355,#356);
#354 = CARTESIAN_POINT('',(0.,0.,0.));
#355 = DIRECTION('',(0.,0.,1.));
#356 = DIRECTION('',(1.,0.,-0.));
#357 = ORIENTED_EDGE('',*,*,#358,.F.);
#358 = EDGE_CURVE('',#359,#348,#361,.T.);
#359 = VERTEX_POINT('',#360);
#360 = CARTESIAN_POINT('',(18.,3.,0.));
#361 = LINE('',#362,#363);
#362 = CARTESIAN_POINT('',(18.,3.,0.));
#363 = VECTOR('',#364,1.);
#364 = DIRECTION('',(1.,0.,-0.));
#365 = ORIENTED_EDGE('',*,*,#366,.F.);
#366 = EDGE_CURVE('',#367,#359,#369,.T.);
#367 = VERTEX_POINT('',#368);
#368 = CARTESIAN_POINT('',(18.,-3.,0.));
#369 = LINE('',#370,#371);
#370 = CARTESIAN_POINT('',(18.,-3.,0.));
#371 = VECTOR('',#372,1.);
#372 = DIRECTION('',(-0.,1.,0.));
#373 = ORIENTED_EDGE('',*,*,#374,.T.);
#374 = EDGE_CURVE('',#367,#375,#377,.T.);
#375 = VERTEX_POINT('',#376);
#376 = CARTESIAN_POINT('',(18.052423659996,-3.,0.));
#377 = LINE('',#378,#379);
#378 = CARTESIAN_POINT('',(18.,-3.,0.));
#379 = VECTOR('',#380,1.);
#380 = DIRECTION('',(1.,0.,-0.));
#381 = ORIENTED_EDGE('',*,*,#382,.F.);
#382 = EDGE_CURVE('',#383,#375,#385,.T.);
#383 = VERTEX_POINT('',#384);
#384 = CARTESIAN_POINT('',(-18.05242365999,-3.,0.));
#385 = CIRCLE('',#386,18.3);
#386 = AXIS2_PLACEMENT_3D('',#387,#388,#389);
#387 = CARTESIAN_POINT('',(0.,0.,0.));
#388 = DIRECTION('',(0.,0.,1.));
#389 = DIRECTION('',(1.,0.,-0.));
#390 = ORIENTED_EDGE('',*,*,#391,.T.);
#391 = EDGE_CURVE('',#383,#392,#394,.T.);
#392 = VERTEX_POINT('',#393);
#393 = CARTESIAN_POINT('',(-18.,-3.,0.));
#394 = LINE('',#395,#396);
#395 = CARTESIAN_POINT('',(-23.,-3.,0.));
#396 = VECTOR('',#397,1.);
#397 = DIRECTION('',(1.,0.,-0.));
#398 = ORIENTED_EDGE('',*,*,#399,.T.);
#399 = EDGE_CURVE('',#392,#400,#402,.T.);
#400 = VERTEX_POINT('',#401);
#401 = CARTESIAN_POINT('',(-18.,3.,0.));
#402 = LINE('',#403,#404);
#403 = CARTESIAN_POINT('',(-18.,-3.,0.));
#404 = VECTOR('',#405,1.);
#405 = DIRECTION('',(-0.,1.,0.));
#406 = ORIENTED_EDGE('',*,*,#407,.F.);
#407 = EDGE_CURVE('',#350,#400,#408,.T.);
#408 = LINE('',#409,#410);
#409 = CARTESIAN_POINT('',(-23.,3.,0.));
#410 = VECTOR('',#411,1.);
#411 = DIRECTION('',(1.,0.,-0.));
#412 = FACE_BOUND('',#413,.F.);
#413 = EDGE_LOOP('',(#414));
#414 = ORIENTED_EDGE('',*,*,#415,.F.);
#415 = EDGE_CURVE('',#416,#416,#418,.T.);
#416 = VERTEX_POINT('',#417);
#417 = CARTESIAN_POINT('',(24.2,-4.163799117101E-16,0.));
#418 = CIRCLE('',#419,1.7);
#419 = AXIS2_PLACEMENT_3D('',#420,#421,#422);
#420 = CARTESIAN_POINT('',(22.5,0.,0.));
#421 = DIRECTION('',(0.,0.,1.));
#422 = DIRECTION('',(1.,0.,-0.));
#423 = PLANE('',#424);
#424 = AXIS2_PLACEMENT_3D('',#425,#426,#427);
#425 = CARTESIAN_POINT('',(0.,0.,0.));
#426 = DIRECTION('',(0.,0.,1.));
#427 = DIRECTION('',(1.,0.,-0.));
#428 = ADVANCED_FACE('',(#429),#447,.T.);
#429 = FACE_BOUND('',#430,.T.);
#430 = EDGE_LOOP('',(#431,#432,#440,#446));
#431 = ORIENTED_EDGE('',*,*,#196,.F.);
#432 = ORIENTED_EDGE('',*,*,#433,.T.);
#433 = EDGE_CURVE('',#197,#434,#436,.T.);
#434 = VERTEX_POINT('',#435);
#435 = CARTESIAN_POINT('',(-20.69722436226,3.,2.));
#436 = LINE('',#437,#438);
#437 = CARTESIAN_POINT('',(-20.69722436226,3.,0.));
#438 = VECTOR('',#439,1.);
#439 = DIRECTION('',(0.,0.,1.));
#440 = ORIENTED_EDGE('',*,*,#441,.T.);
#441 = EDGE_CURVE('',#434,#59,#442,.T.);
#442 = LINE('',#443,#444);
#443 = CARTESIAN_POINT('',(-23.,3.,2.));
#444 = VECTOR('',#445,1.);
#445 = DIRECTION('',(1.,0.,-0.));
#446 = ORIENTED_EDGE('',*,*,#58,.F.);
#447 = PLANE('',#448);
#448 = AXIS2_PLACEMENT_3D('',#449,#450,#451);
#449 = CARTESIAN_POINT('',(-23.,3.,0.));
#450 = DIRECTION('',(-0.,1.,0.));
#451 = DIRECTION('',(0.,0.,1.));
#452 = ADVANCED_FACE('',(#453,#472),#483,.T.);
#453 = FACE_BOUND('',#454,.T.);
#454 = EDGE_LOOP('',(#455,#456,#457,#466));
#455 = ORIENTED_EDGE('',*,*,#66,.F.);
#456 = ORIENTED_EDGE('',*,*,#441,.F.);
#457 = ORIENTED_EDGE('',*,*,#458,.T.);
#458 = EDGE_CURVE('',#434,#459,#461,.T.);
#459 = VERTEX_POINT('',#460);
#460 = CARTESIAN_POINT('',(-20.69722436226,-3.,2.));
#461 = CIRCLE('',#462,3.5);
#462 = AXIS2_PLACEMENT_3D('',#463,#464,#465);
#463 = CARTESIAN_POINT('',(-22.5,0.,2.));
#464 = DIRECTION('',(0.,0.,1.));
#465 = DIRECTION('',(1.,0.,-0.));
#466 = ORIENTED_EDGE('',*,*,#467,.T.);
#467 = EDGE_CURVE('',#459,#67,#468,.T.);
#468 = LINE('',#469,#470);
#469 = CARTESIAN_POINT('',(-23.,-3.,2.));
#470 = VECTOR('',#471,1.);
#471 = DIRECTION('',(1.,0.,-0.));
#472 = FACE_BOUND('',#473,.T.);
#473 = EDGE_LOOP('',(#474));
#474 = ORIENTED_EDGE('',*,*,#475,.F.);
#475 = EDGE_CURVE('',#476,#476,#478,.T.);
#476 = VERTEX_POINT('',#477);
#477 = CARTESIAN_POINT('',(-20.8,-4.163799117101E-16,2.));
#478 = CIRCLE('',#479,1.7);
#479 = AXIS2_PLACEMENT_3D('',#480,#481,#482);
#480 = CARTESIAN_POINT('',(-22.5,0.,2.));
#481 = DIRECTION('',(0.,0.,1.));
#482 = DIRECTION('',(1.,0.,-0.));
#483 = PLANE('',#484);
#484 = AXIS2_PLACEMENT_3D('',#485,#486,#487);
#485 = CARTESIAN_POINT('',(-23.,-3.,2.));
#486 = DIRECTION('',(0.,0.,1.));
#487 = DIRECTION('',(1.,0.,-0.));
#488 = ADVANCED_FACE('',(#489),#500,.F.);
#489 = FACE_BOUND('',#490,.F.);
#490 = EDGE_LOOP('',(#491,#492,#498,#499));
#491 = ORIENTED_EDGE('',*,*,#213,.F.);
#492 = ORIENTED_EDGE('',*,*,#493,.T.);
#493 = EDGE_CURVE('',#205,#459,#494,.T.);
#494 = LINE('',#495,#496);
#495 = CARTESIAN_POINT('',(-20.69722436226,-3.,0.));
#496 = VECTOR('',#497,1.);
#497 = DIRECTION('',(0.,0.,1.));
#498 = ORIENTED_EDGE('',*,*,#467,.T.);
#499 = ORIENTED_EDGE('',*,*,#75,.F.);
#500 = PLANE('',#501);
#501 = AXIS2_PLACEMENT_3D('',#502,#503,#504);
#502 = CARTESIAN_POINT('',(-23.,-3.,0.));
#503 = DIRECTION('',(-0.,1.,0.));
#504 = DIRECTION('',(0.,0.,1.));
#505 = ADVANCED_FACE('',(#506),#572,.F.);
#506 = FACE_BOUND('',#507,.F.);
#507 = EDGE_LOOP('',(#508,#518,#524,#525,#526,#534,#542,#550,#558,#566)
  );
#508 = ORIENTED_EDGE('',*,*,#509,.T.);
#509 = EDGE_CURVE('',#510,#512,#514,.T.);
#510 = VERTEX_POINT('',#511);
#511 = CARTESIAN_POINT('',(-19.5418057859,-5.516368971166,7.24));
#512 = VERTEX_POINT('',#513);
#513 = CARTESIAN_POINT('',(-21.37420639643,-6.183308250651,7.24));
#514 = LINE('',#515,#516);
#515 = CARTESIAN_POINT('',(-18.93100558239,-5.294055878004,7.24));
#516 = VECTOR('',#517,1.);
#517 = DIRECTION('',(-0.939692620786,-0.342020143326,0.));
#518 = ORIENTED_EDGE('',*,*,#519,.F.);
#519 = EDGE_CURVE('',#221,#512,#520,.T.);
#520 = LINE('',#521,#522);
#521 = CARTESIAN_POINT('',(-21.37420639643,-6.183308250651,0.));
#522 = VECTOR('',#523,1.);
#523 = DIRECTION('',(0.,0.,1.));
#524 = ORIENTED_EDGE('',*,*,#220,.F.);
#525 = ORIENTED_EDGE('',*,*,#92,.T.);
#526 = ORIENTED_EDGE('',*,*,#527,.T.);
#527 = EDGE_CURVE('',#93,#528,#530,.T.);
#528 = VERTEX_POINT('',#529);
#529 = CARTESIAN_POINT('',(-18.93100558239,-5.294055878004,4.45));
#530 = LINE('',#531,#532);
#531 = CARTESIAN_POINT('',(-9.72201789869,-1.942258473413,4.45));
#532 = VECTOR('',#533,1.);
#533 = DIRECTION('',(0.939692620786,0.342020143326,-0.));
#534 = ORIENTED_EDGE('',*,*,#535,.T.);
#535 = EDGE_CURVE('',#528,#536,#538,.T.);
#536 = VERTEX_POINT('',#537);
#537 = CARTESIAN_POINT('',(-18.93100558239,-5.294055878004,6.05));
#538 = LINE('',#539,#540);
#539 = CARTESIAN_POINT('',(-18.93100558239,-5.294055878004,0.));
#540 = VECTOR('',#541,1.);
#541 = DIRECTION('',(0.,0.,1.));
#542 = ORIENTED_EDGE('',*,*,#543,.F.);
#543 = EDGE_CURVE('',#544,#536,#546,.T.);
#544 = VERTEX_POINT('',#545);
#545 = CARTESIAN_POINT('',(-18.60211316511,-5.17434882784,6.05));
#546 = LINE('',#547,#548);
#547 = CARTESIAN_POINT('',(-18.60211316511,-5.17434882784,6.05));
#548 = VECTOR('',#549,1.);
#549 = DIRECTION('',(-0.939692620786,-0.342020143326,0.));
#550 = ORIENTED_EDGE('',*,*,#551,.T.);
#551 = EDGE_CURVE('',#544,#552,#554,.T.);
#552 = VERTEX_POINT('',#553);
#553 = CARTESIAN_POINT('',(-18.60211316511,-5.17434882784,7.25));
#554 = LINE('',#555,#556);
#555 = CARTESIAN_POINT('',(-18.60211316511,-5.17434882784,6.05));
#556 = VECTOR('',#557,1.);
#557 = DIRECTION('',(0.,0.,1.));
#558 = ORIENTED_EDGE('',*,*,#559,.T.);
#559 = EDGE_CURVE('',#552,#560,#562,.T.);
#560 = VERTEX_POINT('',#561);
#561 = CARTESIAN_POINT('',(-19.5418057859,-5.516368971166,7.25));
#562 = LINE('',#563,#564);
#563 = CARTESIAN_POINT('',(-18.60211316511,-5.17434882784,7.25));
#564 = VECTOR('',#565,1.);
#565 = DIRECTION('',(-0.939692620786,-0.342020143326,0.));
#566 = ORIENTED_EDGE('',*,*,#567,.F.);
#567 = EDGE_CURVE('',#510,#560,#568,.T.);
#568 = LINE('',#569,#570);
#569 = CARTESIAN_POINT('',(-19.5418057859,-5.516368971166,6.05));
#570 = VECTOR('',#571,1.);
#571 = DIRECTION('',(0.,0.,1.));
#572 = PLANE('',#573);
#573 = AXIS2_PLACEMENT_3D('',#574,#575,#576);
#574 = CARTESIAN_POINT('',(-18.93100558239,-5.294055878004,0.));
#575 = DIRECTION('',(0.342020143326,-0.939692620786,0.));
#576 = DIRECTION('',(0.,0.,1.));
#577 = ADVANCED_FACE('',(#578,#655),#666,.T.);
#578 = FACE_BOUND('',#579,.T.);
#579 = EDGE_LOOP('',(#580,#581,#582,#583,#591,#599,#608,#616,#624,#632,
    #641,#649));
#580 = ORIENTED_EDGE('',*,*,#140,.F.);
#581 = ORIENTED_EDGE('',*,*,#100,.F.);
#582 = ORIENTED_EDGE('',*,*,#527,.T.);
#583 = ORIENTED_EDGE('',*,*,#584,.T.);
#584 = EDGE_CURVE('',#528,#585,#587,.T.);
#585 = VERTEX_POINT('',#586);
#586 = CARTESIAN_POINT('',(-17.90494515241,-8.113133740362,4.45));
#587 = LINE('',#588,#589);
#588 = CARTESIAN_POINT('',(-18.67449047489,-5.998825343594,4.45));
#589 = VECTOR('',#590,1.);
#590 = DIRECTION('',(0.342020143326,-0.939692620786,0.));
#591 = ORIENTED_EDGE('',*,*,#592,.F.);
#592 = EDGE_CURVE('',#593,#585,#595,.T.);
#593 = VERTEX_POINT('',#594);
#594 = CARTESIAN_POINT('',(-18.69903080437,-8.402157281134,4.45));
#595 = LINE('',#596,#597);
#596 = CARTESIAN_POINT('',(-8.695957468713,-4.76133633577,4.45));
#597 = VECTOR('',#598,1.);
#598 = DIRECTION('',(0.939692620786,0.342020143326,-0.));
#599 = ORIENTED_EDGE('',*,*,#600,.F.);
#600 = EDGE_CURVE('',#601,#593,#603,.T.);
#601 = VERTEX_POINT('',#602);
#602 = CARTESIAN_POINT('',(14.697634225184,-14.29089039152,4.45));
#603 = CIRCLE('',#604,20.5);
#604 = AXIS2_PLACEMENT_3D('',#605,#606,#607);
#605 = CARTESIAN_POINT('',(0.,0.,4.45));
#606 = DIRECTION('',(0.,0.,-1.));
#607 = DIRECTION('',(0.245241805325,0.969461941966,0.));
#608 = ORIENTED_EDGE('',*,*,#609,.T.);
#609 = EDGE_CURVE('',#601,#610,#612,.T.);
#610 = VERTEX_POINT('',#611);
#611 = CARTESIAN_POINT('',(14.050289670602,-13.74770381453,4.45));
#612 = LINE('',#613,#614);
#613 = CARTESIAN_POINT('',(6.543054128036,-7.448385239607,4.45));
#614 = VECTOR('',#615,1.);
#615 = DIRECTION('',(-0.766044443119,0.642787609687,0.));
#616 = ORIENTED_EDGE('',*,*,#617,.T.);
#617 = EDGE_CURVE('',#610,#618,#620,.T.);
#618 = VERTEX_POINT('',#619);
#619 = CARTESIAN_POINT('',(15.978652499662,-11.44957048517,4.45));
#620 = LINE('',#621,#622);
#621 = CARTESIAN_POINT('',(14.532380377867,-13.17317048219,4.45));
#622 = VECTOR('',#623,1.);
#623 = DIRECTION('',(0.642787609687,0.766044443119,-0.));
#624 = ORIENTED_EDGE('',*,*,#625,.F.);
#625 = EDGE_CURVE('',#626,#618,#628,.T.);
#626 = VERTEX_POINT('',#627);
#627 = CARTESIAN_POINT('',(16.625997054244,-11.99275706217,4.45));
#628 = LINE('',#629,#630);
#629 = CARTESIAN_POINT('',(8.471416957096,-5.15025191025,4.45));
#630 = VECTOR('',#631,1.);
#631 = DIRECTION('',(-0.766044443119,0.642787609687,0.));
#632 = ORIENTED_EDGE('',*,*,#633,.F.);
#633 = EDGE_CURVE('',#634,#626,#636,.T.);
#634 = VERTEX_POINT('',#635);
#635 = CARTESIAN_POINT('',(5.027457009171,19.873969810306,4.45));
#636 = CIRCLE('',#637,20.5);
#637 = AXIS2_PLACEMENT_3D('',#638,#639,#640);
#638 = CARTESIAN_POINT('',(0.,0.,4.45));
#639 = DIRECTION('',(0.,0.,-1.));
#640 = DIRECTION('',(0.245241805325,0.969461941966,0.));
#641 = ORIENTED_EDGE('',*,*,#642,.T.);
#642 = EDGE_CURVE('',#634,#643,#645,.T.);
#643 = VERTEX_POINT('',#644);
#644 = CARTESIAN_POINT('',(4.88071591179,19.041759692539,4.45));
#645 = LINE('',#646,#647);
#646 = CARTESIAN_POINT('',(3.178963770654,9.390643713019,4.45));
#647 = VECTOR('',#648,1.);
#648 = DIRECTION('',(-0.173648177667,-0.984807753012,0.));
#649 = ORIENTED_EDGE('',*,*,#650,.T.);
#650 = EDGE_CURVE('',#643,#141,#651,.T.);
#651 = LINE('',#652,#653);
#652 = CARTESIAN_POINT('',(4.142110097031,19.171995825789,4.45));
#653 = VECTOR('',#654,1.);
#654 = DIRECTION('',(-0.984807753012,0.173648177667,0.));
#655 = FACE_BOUND('',#656,.T.);
#656 = EDGE_LOOP('',(#657));
#657 = ORIENTED_EDGE('',*,*,#658,.F.);
#658 = EDGE_CURVE('',#659,#659,#661,.T.);
#659 = VERTEX_POINT('',#660);
#660 = CARTESIAN_POINT('',(18.3,-4.482207284879E-15,4.45));
#661 = CIRCLE('',#662,18.3);
#662 = AXIS2_PLACEMENT_3D('',#663,#664,#665);
#663 = CARTESIAN_POINT('',(0.,0.,4.45));
#664 = DIRECTION('',(0.,0.,1.));
#665 = DIRECTION('',(1.,0.,-0.));
#666 = PLANE('',#667);
#667 = AXIS2_PLACEMENT_3D('',#668,#669,#670);
#668 = CARTESIAN_POINT('',(0.,0.,4.45));
#669 = DIRECTION('',(0.,0.,1.));
#670 = DIRECTION('',(1.,0.,-0.));
#671 = ADVANCED_FACE('',(#672),#697,.T.);
#672 = FACE_BOUND('',#673,.T.);
#673 = EDGE_LOOP('',(#674,#675,#683,#691));
#674 = ORIENTED_EDGE('',*,*,#115,.F.);
#675 = ORIENTED_EDGE('',*,*,#676,.F.);
#676 = EDGE_CURVE('',#677,#116,#679,.T.);
#677 = VERTEX_POINT('',#678);
#678 = CARTESIAN_POINT('',(4.993587227274,19.681884731997,7.24));
#679 = LINE('',#680,#681);
#680 = CARTESIAN_POINT('',(4.993587227274,19.681884731997,7.24));
#681 = VECTOR('',#682,1.);
#682 = DIRECTION('',(-0.984807753012,0.173648177667,0.));
#683 = ORIENTED_EDGE('',*,*,#684,.T.);
#684 = EDGE_CURVE('',#677,#685,#687,.T.);
#685 = VERTEX_POINT('',#686);
#686 = CARTESIAN_POINT('',(5.332201173724,21.602259850371,7.24));
#687 = LINE('',#688,#689);
#688 = CARTESIAN_POINT('',(4.88071591179,19.041759692539,7.24));
#689 = VECTOR('',#690,1.);
#690 = DIRECTION('',(0.173648177667,0.984807753012,0.));
#691 = ORIENTED_EDGE('',*,*,#692,.T.);
#692 = EDGE_CURVE('',#685,#118,#693,.T.);
#693 = LINE('',#694,#695);
#694 = CARTESIAN_POINT('',(5.332201173724,21.602259850371,7.24));
#695 = VECTOR('',#696,1.);
#696 = DIRECTION('',(-0.984807753012,0.173648177667,0.));
#697 = PLANE('',#698);
#698 = AXIS2_PLACEMENT_3D('',#699,#700,#701);
#699 = CARTESIAN_POINT('',(4.88071591179,19.041759692539,7.24));
#700 = DIRECTION('',(0.,0.,1.));
#701 = DIRECTION('',(0.173648177667,0.984807753012,0.));
#702 = ADVANCED_FACE('',(#703),#721,.T.);
#703 = FACE_BOUND('',#704,.T.);
#704 = EDGE_LOOP('',(#705,#713,#714,#715));
#705 = ORIENTED_EDGE('',*,*,#706,.F.);
#706 = EDGE_CURVE('',#677,#707,#709,.T.);
#707 = VERTEX_POINT('',#708);
#708 = CARTESIAN_POINT('',(4.993587227274,19.681884731997,7.25));
#709 = LINE('',#710,#711);
#710 = CARTESIAN_POINT('',(4.993587227274,19.681884731997,6.05));
#711 = VECTOR('',#712,1.);
#712 = DIRECTION('',(0.,0.,1.));
#713 = ORIENTED_EDGE('',*,*,#676,.T.);
#714 = ORIENTED_EDGE('',*,*,#180,.T.);
#715 = ORIENTED_EDGE('',*,*,#716,.F.);
#716 = EDGE_CURVE('',#707,#173,#717,.T.);
#717 = LINE('',#718,#719);
#718 = CARTESIAN_POINT('',(4.993587227274,19.681884731997,7.25));
#719 = VECTOR('',#720,1.);
#720 = DIRECTION('',(-0.984807753012,0.173648177667,0.));
#721 = PLANE('',#722);
#722 = AXIS2_PLACEMENT_3D('',#723,#724,#725);
#723 = CARTESIAN_POINT('',(4.993587227274,19.681884731997,6.05));
#724 = DIRECTION('',(0.173648177667,0.984807753012,0.));
#725 = DIRECTION('',(0.,0.,1.));
#726 = ADVANCED_FACE('',(#727),#745,.T.);
#727 = FACE_BOUND('',#728,.T.);
#728 = EDGE_LOOP('',(#729,#737,#743,#744));
#729 = ORIENTED_EDGE('',*,*,#730,.F.);
#730 = EDGE_CURVE('',#731,#165,#733,.T.);
#731 = VERTEX_POINT('',#732);
#732 = CARTESIAN_POINT('',(4.819939049607,18.697076978985,7.25));
#733 = LINE('',#734,#735);
#734 = CARTESIAN_POINT('',(4.819939049607,18.697076978985,7.25));
#735 = VECTOR('',#736,1.);
#736 = DIRECTION('',(-0.984807753012,0.173648177667,0.));
#737 = ORIENTED_EDGE('',*,*,#738,.T.);
#738 = EDGE_CURVE('',#731,#707,#739,.T.);
#739 = LINE('',#740,#741);
#740 = CARTESIAN_POINT('',(4.819939049607,18.697076978985,7.25));
#741 = VECTOR('',#742,1.);
#742 = DIRECTION('',(0.173648177667,0.984807753012,0.));
#743 = ORIENTED_EDGE('',*,*,#716,.T.);
#744 = ORIENTED_EDGE('',*,*,#172,.F.);
#745 = PLANE('',#746);
#746 = AXIS2_PLACEMENT_3D('',#747,#748,#749);
#747 = CARTESIAN_POINT('',(4.819939049607,18.697076978985,7.25));
#748 = DIRECTION('',(0.,0.,1.));
#749 = DIRECTION('',(0.173648177667,0.984807753012,0.));
#750 = ADVANCED_FACE('',(#751),#769,.F.);
#751 = FACE_BOUND('',#752,.F.);
#752 = EDGE_LOOP('',(#753,#761,#767,#768));
#753 = ORIENTED_EDGE('',*,*,#754,.F.);
#754 = EDGE_CURVE('',#755,#731,#757,.T.);
#755 = VERTEX_POINT('',#756);
#756 = CARTESIAN_POINT('',(4.819939049607,18.697076978985,6.05));
#757 = LINE('',#758,#759);
#758 = CARTESIAN_POINT('',(4.819939049607,18.697076978985,6.05));
#759 = VECTOR('',#760,1.);
#760 = DIRECTION('',(0.,0.,1.));
#761 = ORIENTED_EDGE('',*,*,#762,.T.);
#762 = EDGE_CURVE('',#755,#157,#763,.T.);
#763 = LINE('',#764,#765);
#764 = CARTESIAN_POINT('',(4.819939049607,18.697076978985,6.05));
#765 = VECTOR('',#766,1.);
#766 = DIRECTION('',(-0.984807753012,0.173648177667,0.));
#767 = ORIENTED_EDGE('',*,*,#164,.T.);
#768 = ORIENTED_EDGE('',*,*,#730,.F.);
#769 = PLANE('',#770);
#770 = AXIS2_PLACEMENT_3D('',#771,#772,#773);
#771 = CARTESIAN_POINT('',(4.819939049607,18.697076978985,6.05));
#772 = DIRECTION('',(0.173648177667,0.984807753012,0.));
#773 = DIRECTION('',(0.,0.,1.));
#774 = ADVANCED_FACE('',(#775),#793,.F.);
#775 = FACE_BOUND('',#776,.F.);
#776 = EDGE_LOOP('',(#777,#778,#779,#787));
#777 = ORIENTED_EDGE('',*,*,#156,.F.);
#778 = ORIENTED_EDGE('',*,*,#762,.F.);
#779 = ORIENTED_EDGE('',*,*,#780,.T.);
#780 = EDGE_CURVE('',#755,#781,#783,.T.);
#781 = VERTEX_POINT('',#782);
#782 = CARTESIAN_POINT('',(4.88071591179,19.041759692539,6.05));
#783 = LINE('',#784,#785);
#784 = CARTESIAN_POINT('',(4.819939049607,18.697076978985,6.05));
#785 = VECTOR('',#786,1.);
#786 = DIRECTION('',(0.173648177667,0.984807753012,0.));
#787 = ORIENTED_EDGE('',*,*,#788,.F.);
#788 = EDGE_CURVE('',#149,#781,#789,.T.);
#789 = LINE('',#790,#791);
#790 = CARTESIAN_POINT('',(4.88071591179,19.041759692539,6.05));
#791 = VECTOR('',#792,1.);
#792 = DIRECTION('',(0.984807753012,-0.173648177667,0.));
#793 = PLANE('',#794);
#794 = AXIS2_PLACEMENT_3D('',#795,#796,#797);
#795 = CARTESIAN_POINT('',(4.819939049607,18.697076978985,6.05));
#796 = DIRECTION('',(0.,0.,1.));
#797 = DIRECTION('',(0.173648177667,0.984807753012,0.));
#798 = ADVANCED_FACE('',(#799),#810,.F.);
#799 = FACE_BOUND('',#800,.F.);
#800 = EDGE_LOOP('',(#801,#807,#808,#809));
#801 = ORIENTED_EDGE('',*,*,#802,.F.);
#802 = EDGE_CURVE('',#643,#781,#803,.T.);
#803 = LINE('',#804,#805);
#804 = CARTESIAN_POINT('',(4.88071591179,19.041759692539,0.));
#805 = VECTOR('',#806,1.);
#806 = DIRECTION('',(0.,0.,1.));
#807 = ORIENTED_EDGE('',*,*,#650,.T.);
#808 = ORIENTED_EDGE('',*,*,#148,.T.);
#809 = ORIENTED_EDGE('',*,*,#788,.T.);
#810 = PLANE('',#811);
#811 = AXIS2_PLACEMENT_3D('',#812,#813,#814);
#812 = CARTESIAN_POINT('',(4.88071591179,19.041759692539,0.));
#813 = DIRECTION('',(0.173648177667,0.984807753012,0.));
#814 = DIRECTION('',(0.,0.,1.));
#815 = ADVANCED_FACE('',(#816),#827,.T.);
#816 = FACE_BOUND('',#817,.T.);
#817 = EDGE_LOOP('',(#818,#824,#825,#826));
#818 = ORIENTED_EDGE('',*,*,#819,.F.);
#819 = EDGE_CURVE('',#321,#685,#820,.T.);
#820 = LINE('',#821,#822);
#821 = CARTESIAN_POINT('',(5.332201173724,21.602259850371,0.));
#822 = VECTOR('',#823,1.);
#823 = DIRECTION('',(0.,0.,1.));
#824 = ORIENTED_EDGE('',*,*,#328,.T.);
#825 = ORIENTED_EDGE('',*,*,#125,.T.);
#826 = ORIENTED_EDGE('',*,*,#692,.F.);
#827 = PLANE('',#828);
#828 = AXIS2_PLACEMENT_3D('',#829,#830,#831);
#829 = CARTESIAN_POINT('',(5.332201173724,21.602259850371,0.));
#830 = DIRECTION('',(0.173648177667,0.984807753012,0.));
#831 = DIRECTION('',(0.,0.,1.));
#832 = ADVANCED_FACE('',(#833),#850,.F.);
#833 = FACE_BOUND('',#834,.F.);
#834 = EDGE_LOOP('',(#835,#836,#837,#838,#844,#845,#846,#847,#848,#849)
  );
#835 = ORIENTED_EDGE('',*,*,#684,.T.);
#836 = ORIENTED_EDGE('',*,*,#819,.F.);
#837 = ORIENTED_EDGE('',*,*,#320,.F.);
#838 = ORIENTED_EDGE('',*,*,#839,.T.);
#839 = EDGE_CURVE('',#312,#634,#840,.T.);
#840 = LINE('',#841,#842);
#841 = CARTESIAN_POINT('',(5.027457009171,19.873969810306,0.));
#842 = VECTOR('',#843,1.);
#843 = DIRECTION('',(0.,0.,1.));
#844 = ORIENTED_EDGE('',*,*,#642,.T.);
#845 = ORIENTED_EDGE('',*,*,#802,.T.);
#846 = ORIENTED_EDGE('',*,*,#780,.F.);
#847 = ORIENTED_EDGE('',*,*,#754,.T.);
#848 = ORIENTED_EDGE('',*,*,#738,.T.);
#849 = ORIENTED_EDGE('',*,*,#706,.F.);
#850 = PLANE('',#851);
#851 = AXIS2_PLACEMENT_3D('',#852,#853,#854);
#852 = CARTESIAN_POINT('',(4.88071591179,19.041759692539,0.));
#853 = DIRECTION('',(-0.984807753012,0.173648177667,0.));
#854 = DIRECTION('',(0.,0.,1.));
#855 = ADVANCED_FACE('',(#856),#862,.T.);
#856 = FACE_BOUND('',#857,.T.);
#857 = EDGE_LOOP('',(#858,#859,#860,#861));
#858 = ORIENTED_EDGE('',*,*,#458,.F.);
#859 = ORIENTED_EDGE('',*,*,#433,.F.);
#860 = ORIENTED_EDGE('',*,*,#204,.T.);
#861 = ORIENTED_EDGE('',*,*,#493,.T.);
#862 = CYLINDRICAL_SURFACE('',#863,3.5);
#863 = AXIS2_PLACEMENT_3D('',#864,#865,#866);
#864 = CARTESIAN_POINT('',(-22.5,0.,0.));
#865 = DIRECTION('',(0.,0.,1.));
#866 = DIRECTION('',(1.,0.,-0.));
#867 = ADVANCED_FACE('',(#868),#903,.T.);
#868 = FACE_BOUND('',#869,.T.);
#869 = EDGE_LOOP('',(#870,#876,#877,#885,#894,#900,#901,#902));
#870 = ORIENTED_EDGE('',*,*,#871,.F.);
#871 = EDGE_CURVE('',#270,#626,#872,.T.);
#872 = LINE('',#873,#874);
#873 = CARTESIAN_POINT('',(16.625997054244,-11.99275706217,0.));
#874 = VECTOR('',#875,1.);
#875 = DIRECTION('',(0.,0.,1.));
#876 = ORIENTED_EDGE('',*,*,#277,.T.);
#877 = ORIENTED_EDGE('',*,*,#878,.T.);
#878 = EDGE_CURVE('',#278,#879,#881,.T.);
#879 = VERTEX_POINT('',#880);
#880 = CARTESIAN_POINT('',(20.279299790673,-3.,2.));
#881 = LINE('',#882,#883);
#882 = CARTESIAN_POINT('',(20.279299790673,-3.,0.));
#883 = VECTOR('',#884,1.);
#884 = DIRECTION('',(0.,0.,1.));
#885 = ORIENTED_EDGE('',*,*,#886,.T.);
#886 = EDGE_CURVE('',#879,#887,#889,.T.);
#887 = VERTEX_POINT('',#888);
#888 = CARTESIAN_POINT('',(20.279299790673,3.,2.));
#889 = CIRCLE('',#890,20.5);
#890 = AXIS2_PLACEMENT_3D('',#891,#892,#893);
#891 = CARTESIAN_POINT('',(0.,0.,2.));
#892 = DIRECTION('',(0.,0.,1.));
#893 = DIRECTION('',(0.98923413613,-0.146341463415,0.));
#894 = ORIENTED_EDGE('',*,*,#895,.F.);
#895 = EDGE_CURVE('',#304,#887,#896,.T.);
#896 = LINE('',#897,#898);
#897 = CARTESIAN_POINT('',(20.279299790673,3.,0.));
#898 = VECTOR('',#899,1.);
#899 = DIRECTION('',(0.,0.,1.));
#900 = ORIENTED_EDGE('',*,*,#311,.T.);
#901 = ORIENTED_EDGE('',*,*,#839,.T.);
#902 = ORIENTED_EDGE('',*,*,#633,.T.);
#903 = CYLINDRICAL_SURFACE('',#904,20.5);
#904 = AXIS2_PLACEMENT_3D('',#905,#906,#907);
#905 = CARTESIAN_POINT('',(0.,0.,0.));
#906 = DIRECTION('',(0.,0.,1.));
#907 = DIRECTION('',(1.,0.,-0.));
#908 = ADVANCED_FACE('',(#909),#927,.T.);
#909 = FACE_BOUND('',#910,.T.);
#910 = EDGE_LOOP('',(#911,#912,#913,#921));
#911 = ORIENTED_EDGE('',*,*,#303,.F.);
#912 = ORIENTED_EDGE('',*,*,#895,.T.);
#913 = ORIENTED_EDGE('',*,*,#914,.T.);
#914 = EDGE_CURVE('',#887,#915,#917,.T.);
#915 = VERTEX_POINT('',#916);
#916 = CARTESIAN_POINT('',(20.697224362268,3.,2.));
#917 = LINE('',#918,#919);
#918 = CARTESIAN_POINT('',(18.,3.,2.));
#919 = VECTOR('',#920,1.);
#920 = DIRECTION('',(1.,0.,-0.));
#921 = ORIENTED_EDGE('',*,*,#922,.F.);
#922 = EDGE_CURVE('',#295,#915,#923,.T.);
#923 = LINE('',#924,#925);
#924 = CARTESIAN_POINT('',(20.697224362268,3.,0.));
#925 = VECTOR('',#926,1.);
#926 = DIRECTION('',(0.,0.,1.));
#927 = PLANE('',#928);
#928 = AXIS2_PLACEMENT_3D('',#929,#930,#931);
#929 = CARTESIAN_POINT('',(18.,3.,0.));
#930 = DIRECTION('',(-0.,1.,0.));
#931 = DIRECTION('',(0.,0.,1.));
#932 = ADVANCED_FACE('',(#933),#952,.T.);
#933 = FACE_BOUND('',#934,.T.);
#934 = EDGE_LOOP('',(#935,#936,#945,#951));
#935 = ORIENTED_EDGE('',*,*,#922,.T.);
#936 = ORIENTED_EDGE('',*,*,#937,.T.);
#937 = EDGE_CURVE('',#915,#938,#940,.T.);
#938 = VERTEX_POINT('',#939);
#939 = CARTESIAN_POINT('',(20.697224362268,-3.,2.));
#940 = CIRCLE('',#941,3.5);
#941 = AXIS2_PLACEMENT_3D('',#942,#943,#944);
#942 = CARTESIAN_POINT('',(22.5,0.,2.));
#943 = DIRECTION('',(0.,0.,-1.));
#944 = DIRECTION('',(-0.62380952381,0.781576405737,0.));
#945 = ORIENTED_EDGE('',*,*,#946,.F.);
#946 = EDGE_CURVE('',#287,#938,#947,.T.);
#947 = LINE('',#948,#949);
#948 = CARTESIAN_POINT('',(20.697224362268,-3.,0.));
#949 = VECTOR('',#950,1.);
#950 = DIRECTION('',(0.,0.,1.));
#951 = ORIENTED_EDGE('',*,*,#294,.F.);
#952 = CYLINDRICAL_SURFACE('',#953,3.5);
#953 = AXIS2_PLACEMENT_3D('',#954,#955,#956);
#954 = CARTESIAN_POINT('',(22.5,0.,0.));
#955 = DIRECTION('',(0.,0.,1.));
#956 = DIRECTION('',(1.,0.,-0.));
#957 = ADVANCED_FACE('',(#958),#969,.F.);
#958 = FACE_BOUND('',#959,.F.);
#959 = EDGE_LOOP('',(#960,#961,#962,#968));
#960 = ORIENTED_EDGE('',*,*,#286,.F.);
#961 = ORIENTED_EDGE('',*,*,#878,.T.);
#962 = ORIENTED_EDGE('',*,*,#963,.T.);
#963 = EDGE_CURVE('',#879,#938,#964,.T.);
#964 = LINE('',#965,#966);
#965 = CARTESIAN_POINT('',(18.,-3.,2.));
#966 = VECTOR('',#967,1.);
#967 = DIRECTION('',(1.,0.,-0.));
#968 = ORIENTED_EDGE('',*,*,#946,.F.);
#969 = PLANE('',#970);
#970 = AXIS2_PLACEMENT_3D('',#971,#972,#973);
#971 = CARTESIAN_POINT('',(18.,-3.,0.));
#972 = DIRECTION('',(-0.,1.,0.));
#973 = DIRECTION('',(0.,0.,1.));
#974 = ADVANCED_FACE('',(#975),#993,.T.);
#975 = FACE_BOUND('',#976,.T.);
#976 = EDGE_LOOP('',(#977,#978,#979,#987));
#977 = ORIENTED_EDGE('',*,*,#519,.F.);
#978 = ORIENTED_EDGE('',*,*,#228,.T.);
#979 = ORIENTED_EDGE('',*,*,#980,.T.);
#980 = EDGE_CURVE('',#229,#981,#983,.T.);
#981 = VERTEX_POINT('',#982);
#982 = CARTESIAN_POINT('',(-20.34814596645,-9.002386113009,7.24));
#983 = LINE('',#984,#985);
#984 = CARTESIAN_POINT('',(-20.34814596645,-9.002386113009,0.));
#985 = VECTOR('',#986,1.);
#986 = DIRECTION('',(0.,0.,1.));
#987 = ORIENTED_EDGE('',*,*,#988,.F.);
#988 = EDGE_CURVE('',#512,#981,#989,.T.);
#989 = LINE('',#990,#991);
#990 = CARTESIAN_POINT('',(-21.37420639643,-6.183308250651,7.24));
#991 = VECTOR('',#992,1.);
#992 = DIRECTION('',(0.342020143326,-0.939692620786,0.));
#993 = PLANE('',#994);
#994 = AXIS2_PLACEMENT_3D('',#995,#996,#997);
#995 = CARTESIAN_POINT('',(-21.37420639643,-6.183308250651,0.));
#996 = DIRECTION('',(-0.939692620786,-0.342020143326,0.));
#997 = DIRECTION('',(0.,0.,1.));
#998 = ADVANCED_FACE('',(#999),#1056,.T.);
#999 = FACE_BOUND('',#1000,.T.);
#1000 = EDGE_LOOP('',(#1001,#1009,#1010,#1011,#1017,#1018,#1026,#1034,
    #1042,#1050));
#1001 = ORIENTED_EDGE('',*,*,#1002,.T.);
#1002 = EDGE_CURVE('',#1003,#981,#1005,.T.);
#1003 = VERTEX_POINT('',#1004);
#1004 = CARTESIAN_POINT('',(-18.51574535592,-8.335446833524,7.24));
#1005 = LINE('',#1006,#1007);
#1006 = CARTESIAN_POINT('',(-17.90494515241,-8.113133740362,7.24));
#1007 = VECTOR('',#1008,1.);
#1008 = DIRECTION('',(-0.939692620786,-0.342020143326,0.));
#1009 = ORIENTED_EDGE('',*,*,#980,.F.);
#1010 = ORIENTED_EDGE('',*,*,#236,.F.);
#1011 = ORIENTED_EDGE('',*,*,#1012,.T.);
#1012 = EDGE_CURVE('',#237,#593,#1013,.T.);
#1013 = LINE('',#1014,#1015);
#1014 = CARTESIAN_POINT('',(-18.69903080437,-8.402157281134,0.));
#1015 = VECTOR('',#1016,1.);
#1016 = DIRECTION('',(0.,0.,1.));
#1017 = ORIENTED_EDGE('',*,*,#592,.T.);
#1018 = ORIENTED_EDGE('',*,*,#1019,.T.);
#1019 = EDGE_CURVE('',#585,#1020,#1022,.T.);
#1020 = VERTEX_POINT('',#1021);
#1021 = CARTESIAN_POINT('',(-17.90494515241,-8.113133740362,6.05));
#1022 = LINE('',#1023,#1024);
#1023 = CARTESIAN_POINT('',(-17.90494515241,-8.113133740362,0.));
#1024 = VECTOR('',#1025,1.);
#1025 = DIRECTION('',(0.,0.,1.));
#1026 = ORIENTED_EDGE('',*,*,#1027,.F.);
#1027 = EDGE_CURVE('',#1028,#1020,#1030,.T.);
#1028 = VERTEX_POINT('',#1029);
#1029 = CARTESIAN_POINT('',(-17.57605273514,-7.993426690198,6.05));
#1030 = LINE('',#1031,#1032);
#1031 = CARTESIAN_POINT('',(-17.57605273514,-7.993426690198,6.05));
#1032 = VECTOR('',#1033,1.);
#1033 = DIRECTION('',(-0.939692620786,-0.342020143326,0.));
#1034 = ORIENTED_EDGE('',*,*,#1035,.T.);
#1035 = EDGE_CURVE('',#1028,#1036,#1038,.T.);
#1036 = VERTEX_POINT('',#1037);
#1037 = CARTESIAN_POINT('',(-17.57605273514,-7.993426690198,7.25));
#1038 = LINE('',#1039,#1040);
#1039 = CARTESIAN_POINT('',(-17.57605273514,-7.993426690198,6.05));
#1040 = VECTOR('',#1041,1.);
#1041 = DIRECTION('',(0.,0.,1.));
#1042 = ORIENTED_EDGE('',*,*,#1043,.T.);
#1043 = EDGE_CURVE('',#1036,#1044,#1046,.T.);
#1044 = VERTEX_POINT('',#1045);
#1045 = CARTESIAN_POINT('',(-18.51574535592,-8.335446833524,7.25));
#1046 = LINE('',#1047,#1048);
#1047 = CARTESIAN_POINT('',(-17.57605273514,-7.993426690198,7.25));
#1048 = VECTOR('',#1049,1.);
#1049 = DIRECTION('',(-0.939692620786,-0.342020143326,0.));
#1050 = ORIENTED_EDGE('',*,*,#1051,.F.);
#1051 = EDGE_CURVE('',#1003,#1044,#1052,.T.);
#1052 = LINE('',#1053,#1054);
#1053 = CARTESIAN_POINT('',(-18.51574535592,-8.335446833524,6.05));
#1054 = VECTOR('',#1055,1.);
#1055 = DIRECTION('',(0.,0.,1.));
#1056 = PLANE('',#1057);
#1057 = AXIS2_PLACEMENT_3D('',#1058,#1059,#1060);
#1058 = CARTESIAN_POINT('',(-17.90494515241,-8.113133740362,0.));
#1059 = DIRECTION('',(0.342020143326,-0.939692620786,0.));
#1060 = DIRECTION('',(0.,0.,1.));
#1061 = ADVANCED_FACE('',(#1062),#1121,.T.);
#1062 = FACE_BOUND('',#1063,.T.);
#1063 = EDGE_LOOP('',(#1064,#1074,#1080,#1081,#1082,#1083,#1091,#1099,
    #1107,#1115));
#1064 = ORIENTED_EDGE('',*,*,#1065,.T.);
#1065 = EDGE_CURVE('',#1066,#1068,#1070,.T.);
#1066 = VERTEX_POINT('',#1067);
#1067 = CARTESIAN_POINT('',(16.476581387689,-11.86738243147,7.24));
#1068 = VERTEX_POINT('',#1069);
#1069 = CARTESIAN_POINT('',(17.970368051771,-13.12081827036,7.24));
#1070 = LINE('',#1071,#1072);
#1071 = CARTESIAN_POINT('',(15.978652499662,-11.44957048517,7.24));
#1072 = VECTOR('',#1073,1.);
#1073 = DIRECTION('',(0.766044443119,-0.642787609687,0.));
#1074 = ORIENTED_EDGE('',*,*,#1075,.F.);
#1075 = EDGE_CURVE('',#262,#1068,#1076,.T.);
#1076 = LINE('',#1077,#1078);
#1077 = CARTESIAN_POINT('',(17.970368051771,-13.12081827036,0.));
#1078 = VECTOR('',#1079,1.);
#1079 = DIRECTION('',(0.,0.,1.));
#1080 = ORIENTED_EDGE('',*,*,#269,.F.);
#1081 = ORIENTED_EDGE('',*,*,#871,.T.);
#1082 = ORIENTED_EDGE('',*,*,#625,.T.);
#1083 = ORIENTED_EDGE('',*,*,#1084,.T.);
#1084 = EDGE_CURVE('',#618,#1085,#1087,.T.);
#1085 = VERTEX_POINT('',#1086);
#1086 = CARTESIAN_POINT('',(15.978652499662,-11.44957048517,6.05));
#1087 = LINE('',#1088,#1089);
#1088 = CARTESIAN_POINT('',(15.978652499662,-11.44957048517,0.));
#1089 = VECTOR('',#1090,1.);
#1090 = DIRECTION('',(0.,0.,1.));
#1091 = ORIENTED_EDGE('',*,*,#1092,.F.);
#1092 = EDGE_CURVE('',#1093,#1085,#1095,.T.);
#1093 = VERTEX_POINT('',#1094);
#1094 = CARTESIAN_POINT('',(15.71053694457,-11.22459482178,6.05));
#1095 = LINE('',#1096,#1097);
#1096 = CARTESIAN_POINT('',(15.71053694457,-11.22459482178,6.05));
#1097 = VECTOR('',#1098,1.);
#1098 = DIRECTION('',(0.766044443119,-0.642787609687,0.));
#1099 = ORIENTED_EDGE('',*,*,#1100,.T.);
#1100 = EDGE_CURVE('',#1093,#1101,#1103,.T.);
#1101 = VERTEX_POINT('',#1102);
#1102 = CARTESIAN_POINT('',(15.71053694457,-11.22459482178,7.25));
#1103 = LINE('',#1104,#1105);
#1104 = CARTESIAN_POINT('',(15.71053694457,-11.22459482178,6.05));
#1105 = VECTOR('',#1106,1.);
#1106 = DIRECTION('',(0.,0.,1.));
#1107 = ORIENTED_EDGE('',*,*,#1108,.T.);
#1108 = EDGE_CURVE('',#1101,#1109,#1111,.T.);
#1109 = VERTEX_POINT('',#1110);
#1110 = CARTESIAN_POINT('',(16.476581387689,-11.86738243147,7.25));
#1111 = LINE('',#1112,#1113);
#1112 = CARTESIAN_POINT('',(15.71053694457,-11.22459482178,7.25));
#1113 = VECTOR('',#1114,1.);
#1114 = DIRECTION('',(0.766044443119,-0.642787609687,0.));
#1115 = ORIENTED_EDGE('',*,*,#1116,.F.);
#1116 = EDGE_CURVE('',#1066,#1109,#1117,.T.);
#1117 = LINE('',#1118,#1119);
#1118 = CARTESIAN_POINT('',(16.476581387689,-11.86738243147,6.05));
#1119 = VECTOR('',#1120,1.);
#1120 = DIRECTION('',(0.,0.,1.));
#1121 = PLANE('',#1122);
#1122 = AXIS2_PLACEMENT_3D('',#1123,#1124,#1125);
#1123 = CARTESIAN_POINT('',(15.978652499662,-11.44957048517,0.));
#1124 = DIRECTION('',(0.642787609687,0.766044443119,0.));
#1125 = DIRECTION('',(0.,0.,1.));
#1126 = ADVANCED_FACE('',(#1127),#1138,.T.);
#1127 = FACE_BOUND('',#1128,.T.);
#1128 = EDGE_LOOP('',(#1129,#1130,#1131,#1137));
#1129 = ORIENTED_EDGE('',*,*,#1012,.F.);
#1130 = ORIENTED_EDGE('',*,*,#244,.T.);
#1131 = ORIENTED_EDGE('',*,*,#1132,.T.);
#1132 = EDGE_CURVE('',#245,#601,#1133,.T.);
#1133 = LINE('',#1134,#1135);
#1134 = CARTESIAN_POINT('',(14.697634225184,-14.29089039152,0.));
#1135 = VECTOR('',#1136,1.);
#1136 = DIRECTION('',(0.,0.,1.));
#1137 = ORIENTED_EDGE('',*,*,#600,.T.);
#1138 = CYLINDRICAL_SURFACE('',#1139,20.5);
#1139 = AXIS2_PLACEMENT_3D('',#1140,#1141,#1142);
#1140 = CARTESIAN_POINT('',(0.,0.,0.));
#1141 = DIRECTION('',(0.,0.,1.));
#1142 = DIRECTION('',(1.,0.,-0.));
#1143 = ADVANCED_FACE('',(#1144),#1162,.T.);
#1144 = FACE_BOUND('',#1145,.T.);
#1145 = EDGE_LOOP('',(#1146,#1154,#1155,#1156));
#1146 = ORIENTED_EDGE('',*,*,#1147,.F.);
#1147 = EDGE_CURVE('',#254,#1148,#1150,.T.);
#1148 = VERTEX_POINT('',#1149);
#1149 = CARTESIAN_POINT('',(16.042005222711,-15.41895159972,7.24));
#1150 = LINE('',#1151,#1152);
#1151 = CARTESIAN_POINT('',(16.042005222711,-15.41895159972,0.));
#1152 = VECTOR('',#1153,1.);
#1153 = DIRECTION('',(0.,0.,1.));
#1154 = ORIENTED_EDGE('',*,*,#261,.T.);
#1155 = ORIENTED_EDGE('',*,*,#1075,.T.);
#1156 = ORIENTED_EDGE('',*,*,#1157,.F.);
#1157 = EDGE_CURVE('',#1148,#1068,#1158,.T.);
#1158 = LINE('',#1159,#1160);
#1159 = CARTESIAN_POINT('',(16.042005222711,-15.41895159972,7.24));
#1160 = VECTOR('',#1161,1.);
#1161 = DIRECTION('',(0.642787609687,0.766044443119,0.));
#1162 = PLANE('',#1163);
#1163 = AXIS2_PLACEMENT_3D('',#1164,#1165,#1166);
#1164 = CARTESIAN_POINT('',(16.042005222711,-15.41895159972,0.));
#1165 = DIRECTION('',(0.766044443119,-0.642787609687,0.));
#1166 = DIRECTION('',(0.,0.,1.));
#1167 = ADVANCED_FACE('',(#1168),#1220,.F.);
#1168 = FACE_BOUND('',#1169,.F.);
#1169 = EDGE_LOOP('',(#1170,#1178,#1179,#1180,#1181,#1182,#1190,#1198,
    #1206,#1214));
#1170 = ORIENTED_EDGE('',*,*,#1171,.T.);
#1171 = EDGE_CURVE('',#1172,#1148,#1174,.T.);
#1172 = VERTEX_POINT('',#1173);
#1173 = CARTESIAN_POINT('',(14.548218558629,-14.16551576083,7.24));
#1174 = LINE('',#1175,#1176);
#1175 = CARTESIAN_POINT('',(14.050289670602,-13.74770381453,7.24));
#1176 = VECTOR('',#1177,1.);
#1177 = DIRECTION('',(0.766044443119,-0.642787609687,0.));
#1178 = ORIENTED_EDGE('',*,*,#1147,.F.);
#1179 = ORIENTED_EDGE('',*,*,#253,.F.);
#1180 = ORIENTED_EDGE('',*,*,#1132,.T.);
#1181 = ORIENTED_EDGE('',*,*,#609,.T.);
#1182 = ORIENTED_EDGE('',*,*,#1183,.T.);
#1183 = EDGE_CURVE('',#610,#1184,#1186,.T.);
#1184 = VERTEX_POINT('',#1185);
#1185 = CARTESIAN_POINT('',(14.050289670602,-13.74770381453,6.05));
#1186 = LINE('',#1187,#1188);
#1187 = CARTESIAN_POINT('',(14.050289670602,-13.74770381453,0.));
#1188 = VECTOR('',#1189,1.);
#1189 = DIRECTION('',(0.,0.,1.));
#1190 = ORIENTED_EDGE('',*,*,#1191,.F.);
#1191 = EDGE_CURVE('',#1192,#1184,#1194,.T.);
#1192 = VERTEX_POINT('',#1193);
#1193 = CARTESIAN_POINT('',(13.782174115511,-13.52272815114,6.05));
#1194 = LINE('',#1195,#1196);
#1195 = CARTESIAN_POINT('',(13.782174115511,-13.52272815114,6.05));
#1196 = VECTOR('',#1197,1.);
#1197 = DIRECTION('',(0.766044443119,-0.642787609687,0.));
#1198 = ORIENTED_EDGE('',*,*,#1199,.T.);
#1199 = EDGE_CURVE('',#1192,#1200,#1202,.T.);
#1200 = VERTEX_POINT('',#1201);
#1201 = CARTESIAN_POINT('',(13.782174115511,-13.52272815114,7.25));
#1202 = LINE('',#1203,#1204);
#1203 = CARTESIAN_POINT('',(13.782174115511,-13.52272815114,6.05));
#1204 = VECTOR('',#1205,1.);
#1205 = DIRECTION('',(0.,0.,1.));
#1206 = ORIENTED_EDGE('',*,*,#1207,.T.);
#1207 = EDGE_CURVE('',#1200,#1208,#1210,.T.);
#1208 = VERTEX_POINT('',#1209);
#1209 = CARTESIAN_POINT('',(14.548218558629,-14.16551576083,7.25));
#1210 = LINE('',#1211,#1212);
#1211 = CARTESIAN_POINT('',(13.782174115511,-13.52272815114,7.25));
#1212 = VECTOR('',#1213,1.);
#1213 = DIRECTION('',(0.766044443119,-0.642787609687,0.));
#1214 = ORIENTED_EDGE('',*,*,#1215,.F.);
#1215 = EDGE_CURVE('',#1172,#1208,#1216,.T.);
#1216 = LINE('',#1217,#1218);
#1217 = CARTESIAN_POINT('',(14.548218558629,-14.16551576083,6.05));
#1218 = VECTOR('',#1219,1.);
#1219 = DIRECTION('',(0.,0.,1.));
#1220 = PLANE('',#1221);
#1221 = AXIS2_PLACEMENT_3D('',#1222,#1223,#1224);
#1222 = CARTESIAN_POINT('',(14.050289670602,-13.74770381453,0.));
#1223 = DIRECTION('',(0.642787609687,0.766044443119,0.));
#1224 = DIRECTION('',(0.,0.,1.));
#1225 = ADVANCED_FACE('',(#1226),#1237,.F.);
#1226 = FACE_BOUND('',#1227,.F.);
#1227 = EDGE_LOOP('',(#1228,#1229,#1235,#1236));
#1228 = ORIENTED_EDGE('',*,*,#475,.F.);
#1229 = ORIENTED_EDGE('',*,*,#1230,.F.);
#1230 = EDGE_CURVE('',#337,#476,#1231,.T.);
#1231 = LINE('',#1232,#1233);
#1232 = CARTESIAN_POINT('',(-20.8,-4.163799117101E-16,-1.));
#1233 = VECTOR('',#1234,1.);
#1234 = DIRECTION('',(0.,0.,1.));
#1235 = ORIENTED_EDGE('',*,*,#336,.T.);
#1236 = ORIENTED_EDGE('',*,*,#1230,.T.);
#1237 = CYLINDRICAL_SURFACE('',#1238,1.7);
#1238 = AXIS2_PLACEMENT_3D('',#1239,#1240,#1241);
#1239 = CARTESIAN_POINT('',(-22.5,0.,-1.));
#1240 = DIRECTION('',(0.,0.,1.));
#1241 = DIRECTION('',(1.,0.,-0.));
#1242 = ADVANCED_FACE('',(#1243),#1310,.F.);
#1243 = FACE_BOUND('',#1244,.F.);
#1244 = EDGE_LOOP('',(#1245,#1256,#1262,#1263,#1264,#1273,#1279,#1280,
    #1288,#1297,#1303,#1304));
#1245 = ORIENTED_EDGE('',*,*,#1246,.T.);
#1246 = EDGE_CURVE('',#1247,#1249,#1251,.T.);
#1247 = VERTEX_POINT('',#1248);
#1248 = CARTESIAN_POINT('',(18.052423659996,-3.,2.));
#1249 = VERTEX_POINT('',#1250);
#1250 = CARTESIAN_POINT('',(18.3,-4.482207284879E-15,2.));
#1251 = CIRCLE('',#1252,18.3);
#1252 = AXIS2_PLACEMENT_3D('',#1253,#1254,#1255);
#1253 = CARTESIAN_POINT('',(0.,0.,2.));
#1254 = DIRECTION('',(0.,0.,1.));
#1255 = DIRECTION('',(1.,0.,-0.));
#1256 = ORIENTED_EDGE('',*,*,#1257,.T.);
#1257 = EDGE_CURVE('',#1249,#659,#1258,.T.);
#1258 = LINE('',#1259,#1260);
#1259 = CARTESIAN_POINT('',(18.3,-4.482207284879E-15,-1.E-02));
#1260 = VECTOR('',#1261,1.);
#1261 = DIRECTION('',(0.,0.,1.));
#1262 = ORIENTED_EDGE('',*,*,#658,.F.);
#1263 = ORIENTED_EDGE('',*,*,#1257,.F.);
#1264 = ORIENTED_EDGE('',*,*,#1265,.T.);
#1265 = EDGE_CURVE('',#1249,#1266,#1268,.T.);
#1266 = VERTEX_POINT('',#1267);
#1267 = CARTESIAN_POINT('',(18.052423659996,3.,2.));
#1268 = CIRCLE('',#1269,18.3);
#1269 = AXIS2_PLACEMENT_3D('',#1270,#1271,#1272);
#1270 = CARTESIAN_POINT('',(0.,0.,2.));
#1271 = DIRECTION('',(0.,0.,1.));
#1272 = DIRECTION('',(1.,0.,-0.));
#1273 = ORIENTED_EDGE('',*,*,#1274,.F.);
#1274 = EDGE_CURVE('',#348,#1266,#1275,.T.);
#1275 = LINE('',#1276,#1277);
#1276 = CARTESIAN_POINT('',(18.052423659996,3.,-1.E-02));
#1277 = VECTOR('',#1278,1.);
#1278 = DIRECTION('',(0.,0.,1.));
#1279 = ORIENTED_EDGE('',*,*,#347,.T.);
#1280 = ORIENTED_EDGE('',*,*,#1281,.T.);
#1281 = EDGE_CURVE('',#350,#1282,#1284,.T.);
#1282 = VERTEX_POINT('',#1283);
#1283 = CARTESIAN_POINT('',(-18.05242365999,3.,2.));
#1284 = LINE('',#1285,#1286);
#1285 = CARTESIAN_POINT('',(-18.05242365999,3.,-1.E-02));
#1286 = VECTOR('',#1287,1.);
#1287 = DIRECTION('',(0.,0.,1.));
#1288 = ORIENTED_EDGE('',*,*,#1289,.T.);
#1289 = EDGE_CURVE('',#1282,#1290,#1292,.T.);
#1290 = VERTEX_POINT('',#1291);
#1291 = CARTESIAN_POINT('',(-18.05242365999,-3.,2.));
#1292 = CIRCLE('',#1293,18.3);
#1293 = AXIS2_PLACEMENT_3D('',#1294,#1295,#1296);
#1294 = CARTESIAN_POINT('',(0.,0.,2.));
#1295 = DIRECTION('',(0.,0.,1.));
#1296 = DIRECTION('',(1.,0.,-0.));
#1297 = ORIENTED_EDGE('',*,*,#1298,.F.);
#1298 = EDGE_CURVE('',#383,#1290,#1299,.T.);
#1299 = LINE('',#1300,#1301);
#1300 = CARTESIAN_POINT('',(-18.05242365999,-3.,-1.E-02));
#1301 = VECTOR('',#1302,1.);
#1302 = DIRECTION('',(0.,0.,1.));
#1303 = ORIENTED_EDGE('',*,*,#382,.T.);
#1304 = ORIENTED_EDGE('',*,*,#1305,.T.);
#1305 = EDGE_CURVE('',#375,#1247,#1306,.T.);
#1306 = LINE('',#1307,#1308);
#1307 = CARTESIAN_POINT('',(18.052423659996,-3.,-1.E-02));
#1308 = VECTOR('',#1309,1.);
#1309 = DIRECTION('',(0.,0.,1.));
#1310 = CYLINDRICAL_SURFACE('',#1311,18.3);
#1311 = AXIS2_PLACEMENT_3D('',#1312,#1313,#1314);
#1312 = CARTESIAN_POINT('',(0.,0.,-1.E-02));
#1313 = DIRECTION('',(0.,0.,1.));
#1314 = DIRECTION('',(1.,0.,-0.));
#1315 = ADVANCED_FACE('',(#1316),#1334,.T.);
#1316 = FACE_BOUND('',#1317,.T.);
#1317 = EDGE_LOOP('',(#1318,#1319,#1327,#1333));
#1318 = ORIENTED_EDGE('',*,*,#358,.F.);
#1319 = ORIENTED_EDGE('',*,*,#1320,.T.);
#1320 = EDGE_CURVE('',#359,#1321,#1323,.T.);
#1321 = VERTEX_POINT('',#1322);
#1322 = CARTESIAN_POINT('',(18.,3.,2.));
#1323 = LINE('',#1324,#1325);
#1324 = CARTESIAN_POINT('',(18.,3.,0.));
#1325 = VECTOR('',#1326,1.);
#1326 = DIRECTION('',(0.,0.,1.));
#1327 = ORIENTED_EDGE('',*,*,#1328,.T.);
#1328 = EDGE_CURVE('',#1321,#1266,#1329,.T.);
#1329 = LINE('',#1330,#1331);
#1330 = CARTESIAN_POINT('',(18.,3.,2.));
#1331 = VECTOR('',#1332,1.);
#1332 = DIRECTION('',(1.,0.,-0.));
#1333 = ORIENTED_EDGE('',*,*,#1274,.F.);
#1334 = PLANE('',#1335);
#1335 = AXIS2_PLACEMENT_3D('',#1336,#1337,#1338);
#1336 = CARTESIAN_POINT('',(18.,3.,0.));
#1337 = DIRECTION('',(-0.,1.,0.));
#1338 = DIRECTION('',(0.,0.,1.));
#1339 = ADVANCED_FACE('',(#1340),#1358,.T.);
#1340 = FACE_BOUND('',#1341,.T.);
#1341 = EDGE_LOOP('',(#1342,#1343,#1344,#1352));
#1342 = ORIENTED_EDGE('',*,*,#407,.F.);
#1343 = ORIENTED_EDGE('',*,*,#1281,.T.);
#1344 = ORIENTED_EDGE('',*,*,#1345,.T.);
#1345 = EDGE_CURVE('',#1282,#1346,#1348,.T.);
#1346 = VERTEX_POINT('',#1347);
#1347 = CARTESIAN_POINT('',(-18.,3.,2.));
#1348 = LINE('',#1349,#1350);
#1349 = CARTESIAN_POINT('',(-23.,3.,2.));
#1350 = VECTOR('',#1351,1.);
#1351 = DIRECTION('',(1.,0.,-0.));
#1352 = ORIENTED_EDGE('',*,*,#1353,.F.);
#1353 = EDGE_CURVE('',#400,#1346,#1354,.T.);
#1354 = LINE('',#1355,#1356);
#1355 = CARTESIAN_POINT('',(-18.,3.,0.));
#1356 = VECTOR('',#1357,1.);
#1357 = DIRECTION('',(0.,0.,1.));
#1358 = PLANE('',#1359);
#1359 = AXIS2_PLACEMENT_3D('',#1360,#1361,#1362);
#1360 = CARTESIAN_POINT('',(-23.,3.,0.));
#1361 = DIRECTION('',(-0.,1.,0.));
#1362 = DIRECTION('',(0.,0.,1.));
#1363 = ADVANCED_FACE('',(#1364),#1382,.F.);
#1364 = FACE_BOUND('',#1365,.F.);
#1365 = EDGE_LOOP('',(#1366,#1374,#1375,#1376));
#1366 = ORIENTED_EDGE('',*,*,#1367,.F.);
#1367 = EDGE_CURVE('',#367,#1368,#1370,.T.);
#1368 = VERTEX_POINT('',#1369);
#1369 = CARTESIAN_POINT('',(18.,-3.,2.));
#1370 = LINE('',#1371,#1372);
#1371 = CARTESIAN_POINT('',(18.,-3.,0.));
#1372 = VECTOR('',#1373,1.);
#1373 = DIRECTION('',(0.,0.,1.));
#1374 = ORIENTED_EDGE('',*,*,#366,.T.);
#1375 = ORIENTED_EDGE('',*,*,#1320,.T.);
#1376 = ORIENTED_EDGE('',*,*,#1377,.F.);
#1377 = EDGE_CURVE('',#1368,#1321,#1378,.T.);
#1378 = LINE('',#1379,#1380);
#1379 = CARTESIAN_POINT('',(18.,-3.,2.));
#1380 = VECTOR('',#1381,1.);
#1381 = DIRECTION('',(-0.,1.,0.));
#1382 = PLANE('',#1383);
#1383 = AXIS2_PLACEMENT_3D('',#1384,#1385,#1386);
#1384 = CARTESIAN_POINT('',(18.,-3.,0.));
#1385 = DIRECTION('',(1.,0.,-0.));
#1386 = DIRECTION('',(0.,0.,1.));
#1387 = ADVANCED_FACE('',(#1388),#1406,.T.);
#1388 = FACE_BOUND('',#1389,.T.);
#1389 = EDGE_LOOP('',(#1390,#1398,#1399,#1400));
#1390 = ORIENTED_EDGE('',*,*,#1391,.F.);
#1391 = EDGE_CURVE('',#392,#1392,#1394,.T.);
#1392 = VERTEX_POINT('',#1393);
#1393 = CARTESIAN_POINT('',(-18.,-3.,2.));
#1394 = LINE('',#1395,#1396);
#1395 = CARTESIAN_POINT('',(-18.,-3.,0.));
#1396 = VECTOR('',#1397,1.);
#1397 = DIRECTION('',(0.,0.,1.));
#1398 = ORIENTED_EDGE('',*,*,#399,.T.);
#1399 = ORIENTED_EDGE('',*,*,#1353,.T.);
#1400 = ORIENTED_EDGE('',*,*,#1401,.F.);
#1401 = EDGE_CURVE('',#1392,#1346,#1402,.T.);
#1402 = LINE('',#1403,#1404);
#1403 = CARTESIAN_POINT('',(-18.,-3.,2.));
#1404 = VECTOR('',#1405,1.);
#1405 = DIRECTION('',(-0.,1.,0.));
#1406 = PLANE('',#1407);
#1407 = AXIS2_PLACEMENT_3D('',#1408,#1409,#1410);
#1408 = CARTESIAN_POINT('',(-18.,-3.,0.));
#1409 = DIRECTION('',(1.,0.,-0.));
#1410 = DIRECTION('',(0.,0.,1.));
#1411 = ADVANCED_FACE('',(#1412),#1423,.F.);
#1412 = FACE_BOUND('',#1413,.F.);
#1413 = EDGE_LOOP('',(#1414,#1415,#1416,#1422));
#1414 = ORIENTED_EDGE('',*,*,#374,.F.);
#1415 = ORIENTED_EDGE('',*,*,#1367,.T.);
#1416 = ORIENTED_EDGE('',*,*,#1417,.T.);
#1417 = EDGE_CURVE('',#1368,#1247,#1418,.T.);
#1418 = LINE('',#1419,#1420);
#1419 = CARTESIAN_POINT('',(18.,-3.,2.));
#1420 = VECTOR('',#1421,1.);
#1421 = DIRECTION('',(1.,0.,-0.));
#1422 = ORIENTED_EDGE('',*,*,#1305,.F.);
#1423 = PLANE('',#1424);
#1424 = AXIS2_PLACEMENT_3D('',#1425,#1426,#1427);
#1425 = CARTESIAN_POINT('',(18.,-3.,0.));
#1426 = DIRECTION('',(-0.,1.,0.));
#1427 = DIRECTION('',(0.,0.,1.));
#1428 = ADVANCED_FACE('',(#1429),#1440,.F.);
#1429 = FACE_BOUND('',#1430,.F.);
#1430 = EDGE_LOOP('',(#1431,#1432,#1433,#1439));
#1431 = ORIENTED_EDGE('',*,*,#391,.F.);
#1432 = ORIENTED_EDGE('',*,*,#1298,.T.);
#1433 = ORIENTED_EDGE('',*,*,#1434,.T.);
#1434 = EDGE_CURVE('',#1290,#1392,#1435,.T.);
#1435 = LINE('',#1436,#1437);
#1436 = CARTESIAN_POINT('',(-23.,-3.,2.));
#1437 = VECTOR('',#1438,1.);
#1438 = DIRECTION('',(1.,0.,-0.));
#1439 = ORIENTED_EDGE('',*,*,#1391,.F.);
#1440 = PLANE('',#1441);
#1441 = AXIS2_PLACEMENT_3D('',#1442,#1443,#1444);
#1442 = CARTESIAN_POINT('',(-23.,-3.,0.));
#1443 = DIRECTION('',(-0.,1.,0.));
#1444 = DIRECTION('',(0.,0.,1.));
#1445 = ADVANCED_FACE('',(#1446),#1465,.F.);
#1446 = FACE_BOUND('',#1447,.F.);
#1447 = EDGE_LOOP('',(#1448,#1457,#1463,#1464));
#1448 = ORIENTED_EDGE('',*,*,#1449,.F.);
#1449 = EDGE_CURVE('',#1450,#1450,#1452,.T.);
#1450 = VERTEX_POINT('',#1451);
#1451 = CARTESIAN_POINT('',(24.2,-4.163799117101E-16,2.));
#1452 = CIRCLE('',#1453,1.7);
#1453 = AXIS2_PLACEMENT_3D('',#1454,#1455,#1456);
#1454 = CARTESIAN_POINT('',(22.5,0.,2.));
#1455 = DIRECTION('',(0.,0.,1.));
#1456 = DIRECTION('',(1.,0.,-0.));
#1457 = ORIENTED_EDGE('',*,*,#1458,.F.);
#1458 = EDGE_CURVE('',#416,#1450,#1459,.T.);
#1459 = LINE('',#1460,#1461);
#1460 = CARTESIAN_POINT('',(24.2,-4.163799117101E-16,-1.));
#1461 = VECTOR('',#1462,1.);
#1462 = DIRECTION('',(0.,0.,1.));
#1463 = ORIENTED_EDGE('',*,*,#415,.T.);
#1464 = ORIENTED_EDGE('',*,*,#1458,.T.);
#1465 = CYLINDRICAL_SURFACE('',#1466,1.7);
#1466 = AXIS2_PLACEMENT_3D('',#1467,#1468,#1469);
#1467 = CARTESIAN_POINT('',(22.5,0.,-1.));
#1468 = DIRECTION('',(0.,0.,1.));
#1469 = DIRECTION('',(1.,0.,-0.));
#1470 = ADVANCED_FACE('',(#1471),#1482,.T.);
#1471 = FACE_BOUND('',#1472,.T.);
#1472 = EDGE_LOOP('',(#1473,#1474,#1480,#1481));
#1473 = ORIENTED_EDGE('',*,*,#1002,.F.);
#1474 = ORIENTED_EDGE('',*,*,#1475,.F.);
#1475 = EDGE_CURVE('',#510,#1003,#1476,.T.);
#1476 = LINE('',#1477,#1478);
#1477 = CARTESIAN_POINT('',(-19.5418057859,-5.516368971166,7.24));
#1478 = VECTOR('',#1479,1.);
#1479 = DIRECTION('',(0.342020143326,-0.939692620786,0.));
#1480 = ORIENTED_EDGE('',*,*,#509,.T.);
#1481 = ORIENTED_EDGE('',*,*,#988,.T.);
#1482 = PLANE('',#1483);
#1483 = AXIS2_PLACEMENT_3D('',#1484,#1485,#1486);
#1484 = CARTESIAN_POINT('',(-18.93100558239,-5.294055878004,7.24));
#1485 = DIRECTION('',(0.,0.,1.));
#1486 = DIRECTION('',(-0.939692620786,-0.342020143326,0.));
#1487 = ADVANCED_FACE('',(#1488),#1499,.T.);
#1488 = FACE_BOUND('',#1489,.T.);
#1489 = EDGE_LOOP('',(#1490,#1491,#1492,#1493));
#1490 = ORIENTED_EDGE('',*,*,#567,.F.);
#1491 = ORIENTED_EDGE('',*,*,#1475,.T.);
#1492 = ORIENTED_EDGE('',*,*,#1051,.T.);
#1493 = ORIENTED_EDGE('',*,*,#1494,.F.);
#1494 = EDGE_CURVE('',#560,#1044,#1495,.T.);
#1495 = LINE('',#1496,#1497);
#1496 = CARTESIAN_POINT('',(-19.5418057859,-5.516368971166,7.25));
#1497 = VECTOR('',#1498,1.);
#1498 = DIRECTION('',(0.342020143326,-0.939692620786,0.));
#1499 = PLANE('',#1500);
#1500 = AXIS2_PLACEMENT_3D('',#1501,#1502,#1503);
#1501 = CARTESIAN_POINT('',(-19.5418057859,-5.516368971166,6.05));
#1502 = DIRECTION('',(-0.939692620786,-0.342020143326,0.));
#1503 = DIRECTION('',(0.,0.,1.));
#1504 = ADVANCED_FACE('',(#1505),#1516,.T.);
#1505 = FACE_BOUND('',#1506,.T.);
#1506 = EDGE_LOOP('',(#1507,#1513,#1514,#1515));
#1507 = ORIENTED_EDGE('',*,*,#1508,.F.);
#1508 = EDGE_CURVE('',#552,#1036,#1509,.T.);
#1509 = LINE('',#1510,#1511);
#1510 = CARTESIAN_POINT('',(-18.60211316511,-5.17434882784,7.25));
#1511 = VECTOR('',#1512,1.);
#1512 = DIRECTION('',(0.342020143326,-0.939692620786,0.));
#1513 = ORIENTED_EDGE('',*,*,#559,.T.);
#1514 = ORIENTED_EDGE('',*,*,#1494,.T.);
#1515 = ORIENTED_EDGE('',*,*,#1043,.F.);
#1516 = PLANE('',#1517);
#1517 = AXIS2_PLACEMENT_3D('',#1518,#1519,#1520);
#1518 = CARTESIAN_POINT('',(-18.60211316511,-5.17434882784,7.25));
#1519 = DIRECTION('',(0.,0.,1.));
#1520 = DIRECTION('',(-0.939692620786,-0.342020143326,0.));
#1521 = ADVANCED_FACE('',(#1522),#1533,.F.);
#1522 = FACE_BOUND('',#1523,.F.);
#1523 = EDGE_LOOP('',(#1524,#1525,#1531,#1532));
#1524 = ORIENTED_EDGE('',*,*,#551,.F.);
#1525 = ORIENTED_EDGE('',*,*,#1526,.T.);
#1526 = EDGE_CURVE('',#544,#1028,#1527,.T.);
#1527 = LINE('',#1528,#1529);
#1528 = CARTESIAN_POINT('',(-18.60211316511,-5.17434882784,6.05));
#1529 = VECTOR('',#1530,1.);
#1530 = DIRECTION('',(0.342020143326,-0.939692620786,0.));
#1531 = ORIENTED_EDGE('',*,*,#1035,.T.);
#1532 = ORIENTED_EDGE('',*,*,#1508,.F.);
#1533 = PLANE('',#1534);
#1534 = AXIS2_PLACEMENT_3D('',#1535,#1536,#1537);
#1535 = CARTESIAN_POINT('',(-18.60211316511,-5.17434882784,6.05));
#1536 = DIRECTION('',(-0.939692620786,-0.342020143326,0.));
#1537 = DIRECTION('',(0.,0.,1.));
#1538 = ADVANCED_FACE('',(#1539),#1550,.F.);
#1539 = FACE_BOUND('',#1540,.F.);
#1540 = EDGE_LOOP('',(#1541,#1542,#1543,#1544));
#1541 = ORIENTED_EDGE('',*,*,#1027,.F.);
#1542 = ORIENTED_EDGE('',*,*,#1526,.F.);
#1543 = ORIENTED_EDGE('',*,*,#543,.T.);
#1544 = ORIENTED_EDGE('',*,*,#1545,.F.);
#1545 = EDGE_CURVE('',#1020,#536,#1546,.T.);
#1546 = LINE('',#1547,#1548);
#1547 = CARTESIAN_POINT('',(-18.93100558239,-5.294055878004,6.05));
#1548 = VECTOR('',#1549,1.);
#1549 = DIRECTION('',(-0.342020143326,0.939692620786,0.));
#1550 = PLANE('',#1551);
#1551 = AXIS2_PLACEMENT_3D('',#1552,#1553,#1554);
#1552 = CARTESIAN_POINT('',(-18.60211316511,-5.17434882784,6.05));
#1553 = DIRECTION('',(0.,0.,1.));
#1554 = DIRECTION('',(-0.939692620786,-0.342020143326,0.));
#1555 = ADVANCED_FACE('',(#1556),#1562,.F.);
#1556 = FACE_BOUND('',#1557,.F.);
#1557 = EDGE_LOOP('',(#1558,#1559,#1560,#1561));
#1558 = ORIENTED_EDGE('',*,*,#535,.F.);
#1559 = ORIENTED_EDGE('',*,*,#584,.T.);
#1560 = ORIENTED_EDGE('',*,*,#1019,.T.);
#1561 = ORIENTED_EDGE('',*,*,#1545,.T.);
#1562 = PLANE('',#1563);
#1563 = AXIS2_PLACEMENT_3D('',#1564,#1565,#1566);
#1564 = CARTESIAN_POINT('',(-18.93100558239,-5.294055878004,0.));
#1565 = DIRECTION('',(-0.939692620786,-0.342020143326,0.));
#1566 = DIRECTION('',(0.,0.,1.));
#1567 = ADVANCED_FACE('',(#1568),#1579,.F.);
#1568 = FACE_BOUND('',#1569,.F.);
#1569 = EDGE_LOOP('',(#1570,#1571,#1572,#1573));
#1570 = ORIENTED_EDGE('',*,*,#1183,.F.);
#1571 = ORIENTED_EDGE('',*,*,#617,.T.);
#1572 = ORIENTED_EDGE('',*,*,#1084,.T.);
#1573 = ORIENTED_EDGE('',*,*,#1574,.T.);
#1574 = EDGE_CURVE('',#1085,#1184,#1575,.T.);
#1575 = LINE('',#1576,#1577);
#1576 = CARTESIAN_POINT('',(14.050289670602,-13.74770381453,6.05));
#1577 = VECTOR('',#1578,1.);
#1578 = DIRECTION('',(-0.642787609687,-0.766044443119,0.));
#1579 = PLANE('',#1580);
#1580 = AXIS2_PLACEMENT_3D('',#1581,#1582,#1583);
#1581 = CARTESIAN_POINT('',(14.050289670602,-13.74770381453,0.));
#1582 = DIRECTION('',(0.766044443119,-0.642787609687,0.));
#1583 = DIRECTION('',(0.,0.,1.));
#1584 = ADVANCED_FACE('',(#1585,#1591),#1594,.T.);
#1585 = FACE_BOUND('',#1586,.T.);
#1586 = EDGE_LOOP('',(#1587,#1588,#1589,#1590));
#1587 = ORIENTED_EDGE('',*,*,#914,.F.);
#1588 = ORIENTED_EDGE('',*,*,#886,.F.);
#1589 = ORIENTED_EDGE('',*,*,#963,.T.);
#1590 = ORIENTED_EDGE('',*,*,#937,.F.);
#1591 = FACE_BOUND('',#1592,.T.);
#1592 = EDGE_LOOP('',(#1593));
#1593 = ORIENTED_EDGE('',*,*,#1449,.F.);
#1594 = PLANE('',#1595);
#1595 = AXIS2_PLACEMENT_3D('',#1596,#1597,#1598);
#1596 = CARTESIAN_POINT('',(18.,-3.,2.));
#1597 = DIRECTION('',(0.,0.,1.));
#1598 = DIRECTION('',(1.,0.,-0.));
#1599 = ADVANCED_FACE('',(#1600),#1611,.T.);
#1600 = FACE_BOUND('',#1601,.T.);
#1601 = EDGE_LOOP('',(#1602,#1603,#1609,#1610));
#1602 = ORIENTED_EDGE('',*,*,#1065,.F.);
#1603 = ORIENTED_EDGE('',*,*,#1604,.F.);
#1604 = EDGE_CURVE('',#1172,#1066,#1605,.T.);
#1605 = LINE('',#1606,#1607);
#1606 = CARTESIAN_POINT('',(14.548218558629,-14.16551576083,7.24));
#1607 = VECTOR('',#1608,1.);
#1608 = DIRECTION('',(0.642787609687,0.766044443119,0.));
#1609 = ORIENTED_EDGE('',*,*,#1171,.T.);
#1610 = ORIENTED_EDGE('',*,*,#1157,.T.);
#1611 = PLANE('',#1612);
#1612 = AXIS2_PLACEMENT_3D('',#1613,#1614,#1615);
#1613 = CARTESIAN_POINT('',(14.050289670602,-13.74770381453,7.24));
#1614 = DIRECTION('',(0.,0.,1.));
#1615 = DIRECTION('',(0.766044443119,-0.642787609687,0.));
#1616 = ADVANCED_FACE('',(#1617),#1628,.T.);
#1617 = FACE_BOUND('',#1618,.T.);
#1618 = EDGE_LOOP('',(#1619,#1620,#1621,#1622));
#1619 = ORIENTED_EDGE('',*,*,#1215,.F.);
#1620 = ORIENTED_EDGE('',*,*,#1604,.T.);
#1621 = ORIENTED_EDGE('',*,*,#1116,.T.);
#1622 = ORIENTED_EDGE('',*,*,#1623,.F.);
#1623 = EDGE_CURVE('',#1208,#1109,#1624,.T.);
#1624 = LINE('',#1625,#1626);
#1625 = CARTESIAN_POINT('',(14.548218558629,-14.16551576083,7.25));
#1626 = VECTOR('',#1627,1.);
#1627 = DIRECTION('',(0.642787609687,0.766044443119,0.));
#1628 = PLANE('',#1629);
#1629 = AXIS2_PLACEMENT_3D('',#1630,#1631,#1632);
#1630 = CARTESIAN_POINT('',(14.548218558629,-14.16551576083,6.05));
#1631 = DIRECTION('',(0.766044443119,-0.642787609687,0.));
#1632 = DIRECTION('',(0.,0.,1.));
#1633 = ADVANCED_FACE('',(#1634),#1645,.T.);
#1634 = FACE_BOUND('',#1635,.T.);
#1635 = EDGE_LOOP('',(#1636,#1642,#1643,#1644));
#1636 = ORIENTED_EDGE('',*,*,#1637,.F.);
#1637 = EDGE_CURVE('',#1200,#1101,#1638,.T.);
#1638 = LINE('',#1639,#1640);
#1639 = CARTESIAN_POINT('',(13.782174115511,-13.52272815114,7.25));
#1640 = VECTOR('',#1641,1.);
#1641 = DIRECTION('',(0.642787609687,0.766044443119,0.));
#1642 = ORIENTED_EDGE('',*,*,#1207,.T.);
#1643 = ORIENTED_EDGE('',*,*,#1623,.T.);
#1644 = ORIENTED_EDGE('',*,*,#1108,.F.);
#1645 = PLANE('',#1646);
#1646 = AXIS2_PLACEMENT_3D('',#1647,#1648,#1649);
#1647 = CARTESIAN_POINT('',(13.782174115511,-13.52272815114,7.25));
#1648 = DIRECTION('',(0.,0.,1.));
#1649 = DIRECTION('',(0.766044443119,-0.642787609687,0.));
#1650 = ADVANCED_FACE('',(#1651),#1662,.F.);
#1651 = FACE_BOUND('',#1652,.F.);
#1652 = EDGE_LOOP('',(#1653,#1654,#1660,#1661));
#1653 = ORIENTED_EDGE('',*,*,#1199,.F.);
#1654 = ORIENTED_EDGE('',*,*,#1655,.T.);
#1655 = EDGE_CURVE('',#1192,#1093,#1656,.T.);
#1656 = LINE('',#1657,#1658);
#1657 = CARTESIAN_POINT('',(13.782174115511,-13.52272815114,6.05));
#1658 = VECTOR('',#1659,1.);
#1659 = DIRECTION('',(0.642787609687,0.766044443119,0.));
#1660 = ORIENTED_EDGE('',*,*,#1100,.T.);
#1661 = ORIENTED_EDGE('',*,*,#1637,.F.);
#1662 = PLANE('',#1663);
#1663 = AXIS2_PLACEMENT_3D('',#1664,#1665,#1666);
#1664 = CARTESIAN_POINT('',(13.782174115511,-13.52272815114,6.05));
#1665 = DIRECTION('',(0.766044443119,-0.642787609687,0.));
#1666 = DIRECTION('',(0.,0.,1.));
#1667 = ADVANCED_FACE('',(#1668),#1674,.F.);
#1668 = FACE_BOUND('',#1669,.F.);
#1669 = EDGE_LOOP('',(#1670,#1671,#1672,#1673));
#1670 = ORIENTED_EDGE('',*,*,#1092,.F.);
#1671 = ORIENTED_EDGE('',*,*,#1655,.F.);
#1672 = ORIENTED_EDGE('',*,*,#1191,.T.);
#1673 = ORIENTED_EDGE('',*,*,#1574,.F.);
#1674 = PLANE('',#1675);
#1675 = AXIS2_PLACEMENT_3D('',#1676,#1677,#1678);
#1676 = CARTESIAN_POINT('',(13.782174115511,-13.52272815114,6.05));
#1677 = DIRECTION('',(0.,0.,1.));
#1678 = DIRECTION('',(0.766044443119,-0.642787609687,0.));
#1679 = ADVANCED_FACE('',(#1680),#1687,.T.);
#1680 = FACE_BOUND('',#1681,.T.);
#1681 = EDGE_LOOP('',(#1682,#1683,#1684,#1685,#1686));
#1682 = ORIENTED_EDGE('',*,*,#1328,.F.);
#1683 = ORIENTED_EDGE('',*,*,#1377,.F.);
#1684 = ORIENTED_EDGE('',*,*,#1417,.T.);
#1685 = ORIENTED_EDGE('',*,*,#1246,.T.);
#1686 = ORIENTED_EDGE('',*,*,#1265,.T.);
#1687 = PLANE('',#1688);
#1688 = AXIS2_PLACEMENT_3D('',#1689,#1690,#1691);
#1689 = CARTESIAN_POINT('',(18.,-3.,2.));
#1690 = DIRECTION('',(0.,0.,1.));
#1691 = DIRECTION('',(1.,0.,-0.));
#1692 = ADVANCED_FACE('',(#1693),#1699,.T.);
#1693 = FACE_BOUND('',#1694,.T.);
#1694 = EDGE_LOOP('',(#1695,#1696,#1697,#1698));
#1695 = ORIENTED_EDGE('',*,*,#1345,.F.);
#1696 = ORIENTED_EDGE('',*,*,#1289,.T.);
#1697 = ORIENTED_EDGE('',*,*,#1434,.T.);
#1698 = ORIENTED_EDGE('',*,*,#1401,.T.);
#1699 = PLANE('',#1700);
#1700 = AXIS2_PLACEMENT_3D('',#1701,#1702,#1703);
#1701 = CARTESIAN_POINT('',(-23.,-3.,2.));
#1702 = DIRECTION('',(0.,0.,1.));
#1703 = DIRECTION('',(1.,0.,-0.));
#1704 = ( GEOMETRIC_REPRESENTATION_CONTEXT(3) 
GLOBAL_UNCERTAINTY_ASSIGNED_CONTEXT((#1708)) 
GLOBAL_UNIT_ASSIGNED_CONTEXT((#1705,#1706,#1707)) REPRESENTATION_CONTEXT
('Context #1','3D Context with UNIT and UNCERTAINTY') );
#1705 = ( LENGTH_UNIT() NAMED_UNIT(*) SI_UNIT(.MILLI.,.METRE.) );
#1706 = ( NAMED_UNIT(*) PLANE_ANGLE_UNIT() SI_UNIT($,.RADIAN.) );
#1707 = ( NAMED_UNIT(*) SI_UNIT($,.STERADIAN.) SOLID_ANGLE_UNIT() );
#1708 = UNCERTAINTY_MEASURE_WITH_UNIT(LENGTH_MEASURE(2.E-07),#1705,
  'distance_accuracy_value','confusion accuracy');
#1709 = CONTEXT_DEPENDENT_SHAPE_REPRESENTATION(#1710,#1712);
#1710 = ( REPRESENTATION_RELATIONSHIP('','',#32,#10) 
REPRESENTATION_RELATIONSHIP_WITH_TRANSFORMATION(#1711) 
SHAPE_REPRESENTATION_RELATIONSHIP() );
#1711 = ITEM_DEFINED_TRANSFORMATION('','',#11,#15);
#1712 = PRODUCT_DEFINITION_SHAPE('Placement','Placement of an item',
  #1713);
#1713 = NEXT_ASSEMBLY_USAGE_OCCURRENCE('7','=>[0:1:1:2]','',#5,#27,$);
#1714 = PRODUCT_RELATED_PRODUCT_CATEGORY('part',$,(#29));
ENDSEC;
END-ISO-10303-21;
