ISO-10303-21;
HEADER;
FILE_DESCRIPTION(('Open CASCADE Model'),'2;1');
FILE_NAME('Open CASCADE Shape Model','2026-09-07T12:04:01',('Author'),(
    'Open CASCADE'),'Open CASCADE STEP processor 7.9','build123d',
  'Unknown');
FILE_SCHEMA(('AUTOMOTIVE_DESIGN { 1 0 10303 214 1 1 1 1 }'));
ENDSEC;
DATA;
#1 = APPLICATION_PROTOCOL_DEFINITION('international standard',
  'automotive_design',2000,#2);
#2 = APPLICATION_CONTEXT(
  'core data for automotive mechanical design processes');
#3 = SHAPE_DEFINITION_REPRESENTATION(#4,#10);
#4 = PRODUCT_DEFINITION_SHAPE('','',#5);
#5 = PRODUCT_DEFINITION('design','',#6,#9);
#6 = PRODUCT_DEFINITION_FORMATION('','',#7);
#7 = PRODUCT('=>[0:1:1:2]','=>[0:1:1:2]','',(#8));
#8 = PRODUCT_CONTEXT('',#2,'mechanical');
#9 = PRODUCT_DEFINITION_CONTEXT('part definition',#2,'design');
#10 = SHAPE_REPRESENTATION('',(#11,#15),#19);
#11 = AXIS2_PLACEMENT_3D('',#12,#13,#14);
#12 = CARTESIAN_POINT('',(0.,0.,0.));
#13 = DIRECTION('',(0.,0.,1.));
#14 = DIRECTION('',(1.,0.,-0.));
#15 = AXIS2_PLACEMENT_3D('',#16,#17,#18);
#16 = CARTESIAN_POINT('',(-33.19643304991,41.489743200899,19.5));
#17 = DIRECTION('',(0.,-1.224646799147E-16,-1.));
#18 = DIRECTION('',(1.,0.,0.));
#19 = ( GEOMETRIC_REPRESENTATION_CONTEXT(3) 
GLOBAL_UNCERTAINTY_ASSIGNED_CONTEXT((#23)) GLOBAL_UNIT_ASSIGNED_CONTEXT(
(#20,#21,#22)) REPRESENTATION_CONTEXT('Context #1',
  '3D Context with UNIT and UNCERTAINTY') );
#20 = ( LENGTH_UNIT() NAMED_UNIT(*) SI_UNIT(.MILLI.,.METRE.) );
#21 = ( NAMED_UNIT(*) PLANE_ANGLE_UNIT() SI_UNIT($,.RADIAN.) );
#22 = ( NAMED_UNIT(*) SI_UNIT($,.STERADIAN.) SOLID_ANGLE_UNIT() );
#23 = UNCERTAINTY_MEASURE_WITH_UNIT(LENGTH_MEASURE(1.E-07),#20,
  'distance_accuracy_value','confusion accuracy');
#24 = PRODUCT_RELATED_PRODUCT_CATEGORY('part',$,(#7));
#25 = SHAPE_DEFINITION_REPRESENTATION(#26,#32);
#26 = PRODUCT_DEFINITION_SHAPE('','',#27);
#27 = PRODUCT_DEFINITION('design','',#28,#31);
#28 = PRODUCT_DEFINITION_FORMATION('','',#29);
#29 = PRODUCT('COMPOUND','COMPOUND','',(#30));
#30 = PRODUCT_CONTEXT('',#2,'mechanical');
#31 = PRODUCT_DEFINITION_CONTEXT('part definition',#2,'design');
#32 = ADVANCED_BREP_SHAPE_REPRESENTATION('',(#11,#33),#603);
#33 = MANIFOLD_SOLID_BREP('',#34);
#34 = CLOSED_SHELL('',(#35,#75,#106,#184,#208,#279,#296,#313,#330,#347,
    #380,#413,#430,#447,#493,#525,#549,#573,#591));
#35 = ADVANCED_FACE('',(#36),#70,.F.);
#36 = FACE_BOUND('',#37,.F.);
#37 = EDGE_LOOP('',(#38,#48,#56,#64));
#38 = ORIENTED_EDGE('',*,*,#39,.F.);
#39 = EDGE_CURVE('',#40,#42,#44,.T.);
#40 = VERTEX_POINT('',#41);
#41 = CARTESIAN_POINT('',(34.312723499649,18.537448746703,18.3));
#42 = VERTEX_POINT('',#43);
#43 = CARTESIAN_POINT('',(34.312723499649,18.537448746703,19.5));
#44 = LINE('',#45,#46);
#45 = CARTESIAN_POINT('',(34.312723499649,18.537448746703,18.3));
#46 = VECTOR('',#47,1.);
#47 = DIRECTION('',(0.,0.,1.));
#48 = ORIENTED_EDGE('',*,*,#49,.T.);
#49 = EDGE_CURVE('',#40,#50,#52,.T.);
#50 = VERTEX_POINT('',#51);
#51 = CARTESIAN_POINT('',(10.99834465594,37.417060478199,18.3));
#52 = LINE('',#53,#54);
#53 = CARTESIAN_POINT('',(34.312723499649,18.537448746703,18.3));
#54 = VECTOR('',#55,1.);
#55 = DIRECTION('',(-0.777145961457,0.62932039105,0.));
#56 = ORIENTED_EDGE('',*,*,#57,.T.);
#57 = EDGE_CURVE('',#50,#58,#60,.T.);
#58 = VERTEX_POINT('',#59);
#59 = CARTESIAN_POINT('',(10.99834465594,37.417060478199,19.5));
#60 = LINE('',#61,#62);
#61 = CARTESIAN_POINT('',(10.99834465594,37.417060478199,18.3));
#62 = VECTOR('',#63,1.);
#63 = DIRECTION('',(0.,0.,1.));
#64 = ORIENTED_EDGE('',*,*,#65,.F.);
#65 = EDGE_CURVE('',#42,#58,#66,.T.);
#66 = LINE('',#67,#68);
#67 = CARTESIAN_POINT('',(34.312723499649,18.537448746703,19.5));
#68 = VECTOR('',#69,1.);
#69 = DIRECTION('',(-0.777145961457,0.62932039105,0.));
#70 = PLANE('',#71);
#71 = AXIS2_PLACEMENT_3D('',#72,#73,#74);
#72 = CARTESIAN_POINT('',(34.312723499649,18.537448746703,18.3));
#73 = DIRECTION('',(0.62932039105,0.777145961457,0.));
#74 = DIRECTION('',(0.,0.,1.));
#75 = ADVANCED_FACE('',(#76),#101,.F.);
#76 = FACE_BOUND('',#77,.F.);
#77 = EDGE_LOOP('',(#78,#86,#87,#95));
#78 = ORIENTED_EDGE('',*,*,#79,.F.);
#79 = EDGE_CURVE('',#40,#80,#82,.T.);
#80 = VERTEX_POINT('',#81);
#81 = CARTESIAN_POINT('',(53.192335231144,41.851827590413,18.3));
#82 = LINE('',#83,#84);
#83 = CARTESIAN_POINT('',(34.312723499649,18.537448746703,18.3));
#84 = VECTOR('',#85,1.);
#85 = DIRECTION('',(0.62932039105,0.777145961457,0.));
#86 = ORIENTED_EDGE('',*,*,#39,.T.);
#87 = ORIENTED_EDGE('',*,*,#88,.T.);
#88 = EDGE_CURVE('',#42,#89,#91,.T.);
#89 = VERTEX_POINT('',#90);
#90 = CARTESIAN_POINT('',(53.192335231144,41.851827590413,19.5));
#91 = LINE('',#92,#93);
#92 = CARTESIAN_POINT('',(34.312723499649,18.537448746703,19.5));
#93 = VECTOR('',#94,1.);
#94 = DIRECTION('',(0.62932039105,0.777145961457,0.));
#95 = ORIENTED_EDGE('',*,*,#96,.F.);
#96 = EDGE_CURVE('',#80,#89,#97,.T.);
#97 = LINE('',#98,#99);
#98 = CARTESIAN_POINT('',(53.192335231144,41.851827590413,18.3));
#99 = VECTOR('',#100,1.);
#100 = DIRECTION('',(0.,0.,1.));
#101 = PLANE('',#102);
#102 = AXIS2_PLACEMENT_3D('',#103,#104,#105);
#103 = CARTESIAN_POINT('',(34.312723499649,18.537448746703,18.3));
#104 = DIRECTION('',(-0.777145961457,0.62932039105,0.));
#105 = DIRECTION('',(0.,0.,1.));
#106 = ADVANCED_FACE('',(#107,#157,#168),#179,.T.);
#107 = FACE_BOUND('',#108,.T.);
#108 = EDGE_LOOP('',(#109,#110,#111,#119,#127,#135,#143,#151));
#109 = ORIENTED_EDGE('',*,*,#65,.F.);
#110 = ORIENTED_EDGE('',*,*,#88,.T.);
#111 = ORIENTED_EDGE('',*,*,#112,.T.);
#112 = EDGE_CURVE('',#89,#113,#115,.T.);
#113 = VERTEX_POINT('',#114);
#114 = CARTESIAN_POINT('',(50.860897346773,43.739788763562,19.5));
#115 = LINE('',#116,#117);
#116 = CARTESIAN_POINT('',(53.192335231144,41.851827590413,19.5));
#117 = VECTOR('',#118,1.);
#118 = DIRECTION('',(-0.777145961457,0.62932039105,0.));
#119 = ORIENTED_EDGE('',*,*,#120,.T.);
#120 = EDGE_CURVE('',#113,#121,#123,.T.);
#121 = VERTEX_POINT('',#122);
#122 = CARTESIAN_POINT('',(55.394521443896,49.338348269898,19.5));
#123 = LINE('',#124,#125);
#124 = CARTESIAN_POINT('',(50.860897346773,43.739788763562,19.5));
#125 = VECTOR('',#126,1.);
#126 = DIRECTION('',(0.62932039105,0.777145961457,0.));
#127 = ORIENTED_EDGE('',*,*,#128,.T.);
#128 = EDGE_CURVE('',#121,#129,#131,.T.);
#129 = VERTEX_POINT('',#130);
#130 = CARTESIAN_POINT('',(36.743018368929,64.442037655094,19.5));
#131 = LINE('',#132,#133);
#132 = CARTESIAN_POINT('',(55.394521443896,49.338348269898,19.5));
#133 = VECTOR('',#134,1.);
#134 = DIRECTION('',(-0.777145961457,0.62932039105,0.));
#135 = ORIENTED_EDGE('',*,*,#136,.F.);
#136 = EDGE_CURVE('',#137,#129,#139,.T.);
#137 = VERTEX_POINT('',#138);
#138 = CARTESIAN_POINT('',(32.209394271806,58.843478148758,19.5));
#139 = LINE('',#140,#141);
#140 = CARTESIAN_POINT('',(32.209394271806,58.843478148758,19.5));
#141 = VECTOR('',#142,1.);
#142 = DIRECTION('',(0.62932039105,0.777145961457,0.));
#143 = ORIENTED_EDGE('',*,*,#144,.T.);
#144 = EDGE_CURVE('',#137,#145,#147,.T.);
#145 = VERTEX_POINT('',#146);
#146 = CARTESIAN_POINT('',(29.877956387435,60.731439321908,19.5));
#147 = LINE('',#148,#149);
#148 = CARTESIAN_POINT('',(53.192335231144,41.851827590413,19.5));
#149 = VECTOR('',#150,1.);
#150 = DIRECTION('',(-0.777145961457,0.62932039105,0.));
#151 = ORIENTED_EDGE('',*,*,#152,.F.);
#152 = EDGE_CURVE('',#58,#145,#153,.T.);
#153 = LINE('',#154,#155);
#154 = CARTESIAN_POINT('',(10.99834465594,37.417060478199,19.5));
#155 = VECTOR('',#156,1.);
#156 = DIRECTION('',(0.62932039105,0.777145961457,0.));
#157 = FACE_BOUND('',#158,.T.);
#158 = EDGE_LOOP('',(#159));
#159 = ORIENTED_EDGE('',*,*,#160,.F.);
#160 = EDGE_CURVE('',#161,#161,#163,.T.);
#161 = VERTEX_POINT('',#162);
#162 = CARTESIAN_POINT('',(34.969246788427,22.756847804224,19.5));
#163 = CIRCLE('',#164,1.1);
#164 = AXIS2_PLACEMENT_3D('',#165,#166,#167);
#165 = CARTESIAN_POINT('',(33.869246788427,22.756847804224,19.5));
#166 = DIRECTION('',(0.,0.,1.));
#167 = DIRECTION('',(1.,0.,-0.));
#168 = FACE_BOUND('',#169,.T.);
#169 = EDGE_LOOP('',(#170));
#170 = ORIENTED_EDGE('',*,*,#171,.F.);
#171 = EDGE_CURVE('',#172,#172,#174,.T.);
#172 = VERTEX_POINT('',#173);
#173 = CARTESIAN_POINT('',(31.421433098656,56.512040264387,19.5));
#174 = CIRCLE('',#175,1.1);
#175 = AXIS2_PLACEMENT_3D('',#176,#177,#178);
#176 = CARTESIAN_POINT('',(30.321433098656,56.512040264387,19.5));
#177 = DIRECTION('',(0.,0.,1.));
#178 = DIRECTION('',(1.,0.,-0.));
#179 = PLANE('',#180);
#180 = AXIS2_PLACEMENT_3D('',#181,#182,#183);
#181 = CARTESIAN_POINT('',(34.312723499649,18.537448746703,19.5));
#182 = DIRECTION('',(0.,0.,1.));
#183 = DIRECTION('',(0.62932039105,0.777145961457,0.));
#184 = ADVANCED_FACE('',(#185),#203,.T.);
#185 = FACE_BOUND('',#186,.T.);
#186 = EDGE_LOOP('',(#187,#195,#196,#197));
#187 = ORIENTED_EDGE('',*,*,#188,.F.);
#188 = EDGE_CURVE('',#50,#189,#191,.T.);
#189 = VERTEX_POINT('',#190);
#190 = CARTESIAN_POINT('',(29.877956387435,60.731439321908,18.3));
#191 = LINE('',#192,#193);
#192 = CARTESIAN_POINT('',(10.99834465594,37.417060478199,18.3));
#193 = VECTOR('',#194,1.);
#194 = DIRECTION('',(0.62932039105,0.777145961457,0.));
#195 = ORIENTED_EDGE('',*,*,#57,.T.);
#196 = ORIENTED_EDGE('',*,*,#152,.T.);
#197 = ORIENTED_EDGE('',*,*,#198,.F.);
#198 = EDGE_CURVE('',#189,#145,#199,.T.);
#199 = LINE('',#200,#201);
#200 = CARTESIAN_POINT('',(29.877956387435,60.731439321908,18.3));
#201 = VECTOR('',#202,1.);
#202 = DIRECTION('',(0.,0.,1.));
#203 = PLANE('',#204);
#204 = AXIS2_PLACEMENT_3D('',#205,#206,#207);
#205 = CARTESIAN_POINT('',(10.99834465594,37.417060478199,18.3));
#206 = DIRECTION('',(-0.777145961457,0.62932039105,0.));
#207 = DIRECTION('',(0.,0.,1.));
#208 = ADVANCED_FACE('',(#209,#252,#263),#274,.F.);
#209 = FACE_BOUND('',#210,.F.);
#210 = EDGE_LOOP('',(#211,#212,#213,#221,#229,#237,#245,#251));
#211 = ORIENTED_EDGE('',*,*,#49,.F.);
#212 = ORIENTED_EDGE('',*,*,#79,.T.);
#213 = ORIENTED_EDGE('',*,*,#214,.T.);
#214 = EDGE_CURVE('',#80,#215,#217,.T.);
#215 = VERTEX_POINT('',#216);
#216 = CARTESIAN_POINT('',(50.860897346773,43.739788763562,18.3));
#217 = LINE('',#218,#219);
#218 = CARTESIAN_POINT('',(53.192335231144,41.851827590413,18.3));
#219 = VECTOR('',#220,1.);
#220 = DIRECTION('',(-0.777145961457,0.62932039105,0.));
#221 = ORIENTED_EDGE('',*,*,#222,.T.);
#222 = EDGE_CURVE('',#215,#223,#225,.T.);
#223 = VERTEX_POINT('',#224);
#224 = CARTESIAN_POINT('',(50.923829385878,43.817503359708,18.3));
#225 = LINE('',#226,#227);
#226 = CARTESIAN_POINT('',(41.389625461473,32.043742043635,18.3));
#227 = VECTOR('',#228,1.);
#228 = DIRECTION('',(0.62932039105,0.777145961457,-0.));
#229 = ORIENTED_EDGE('',*,*,#230,.F.);
#230 = EDGE_CURVE('',#231,#223,#233,.T.);
#231 = VERTEX_POINT('',#232);
#232 = CARTESIAN_POINT('',(32.272326310911,58.921192744904,18.3));
#233 = LINE('',#234,#235);
#234 = CARTESIAN_POINT('',(32.272326310911,58.921192744904,18.3));
#235 = VECTOR('',#236,1.);
#236 = DIRECTION('',(0.777145961457,-0.62932039105,0.));
#237 = ORIENTED_EDGE('',*,*,#238,.F.);
#238 = EDGE_CURVE('',#239,#231,#241,.T.);
#239 = VERTEX_POINT('',#240);
#240 = CARTESIAN_POINT('',(32.209394271806,58.843478148758,18.3));
#241 = LINE('',#242,#243);
#242 = CARTESIAN_POINT('',(22.738122386506,47.147431428831,18.3));
#243 = VECTOR('',#244,1.);
#244 = DIRECTION('',(0.62932039105,0.777145961457,-0.));
#245 = ORIENTED_EDGE('',*,*,#246,.T.);
#246 = EDGE_CURVE('',#239,#189,#247,.T.);
#247 = LINE('',#248,#249);
#248 = CARTESIAN_POINT('',(53.192335231144,41.851827590413,18.3));
#249 = VECTOR('',#250,1.);
#250 = DIRECTION('',(-0.777145961457,0.62932039105,0.));
#251 = ORIENTED_EDGE('',*,*,#188,.F.);
#252 = FACE_BOUND('',#253,.F.);
#253 = EDGE_LOOP('',(#254));
#254 = ORIENTED_EDGE('',*,*,#255,.F.);
#255 = EDGE_CURVE('',#256,#256,#258,.T.);
#256 = VERTEX_POINT('',#257);
#257 = CARTESIAN_POINT('',(34.969246788427,22.756847804224,18.3));
#258 = CIRCLE('',#259,1.1);
#259 = AXIS2_PLACEMENT_3D('',#260,#261,#262);
#260 = CARTESIAN_POINT('',(33.869246788427,22.756847804224,18.3));
#261 = DIRECTION('',(0.,0.,1.));
#262 = DIRECTION('',(1.,0.,-0.));
#263 = FACE_BOUND('',#264,.F.);
#264 = EDGE_LOOP('',(#265));
#265 = ORIENTED_EDGE('',*,*,#266,.F.);
#266 = EDGE_CURVE('',#267,#267,#269,.T.);
#267 = VERTEX_POINT('',#268);
#268 = CARTESIAN_POINT('',(31.421433098656,56.512040264387,18.3));
#269 = CIRCLE('',#270,1.1);
#270 = AXIS2_PLACEMENT_3D('',#271,#272,#273);
#271 = CARTESIAN_POINT('',(30.321433098656,56.512040264387,18.3));
#272 = DIRECTION('',(0.,0.,1.));
#273 = DIRECTION('',(1.,0.,-0.));
#274 = PLANE('',#275);
#275 = AXIS2_PLACEMENT_3D('',#276,#277,#278);
#276 = CARTESIAN_POINT('',(34.312723499649,18.537448746703,18.3));
#277 = DIRECTION('',(0.,0.,1.));
#278 = DIRECTION('',(0.62932039105,0.777145961457,0.));
#279 = ADVANCED_FACE('',(#280),#291,.T.);
#280 = FACE_BOUND('',#281,.T.);
#281 = EDGE_LOOP('',(#282,#283,#284,#285));
#282 = ORIENTED_EDGE('',*,*,#112,.F.);
#283 = ORIENTED_EDGE('',*,*,#96,.F.);
#284 = ORIENTED_EDGE('',*,*,#214,.T.);
#285 = ORIENTED_EDGE('',*,*,#286,.T.);
#286 = EDGE_CURVE('',#215,#113,#287,.T.);
#287 = LINE('',#288,#289);
#288 = CARTESIAN_POINT('',(50.860897346773,43.739788763562,8.3));
#289 = VECTOR('',#290,1.);
#290 = DIRECTION('',(0.,0.,1.));
#291 = PLANE('',#292);
#292 = AXIS2_PLACEMENT_3D('',#293,#294,#295);
#293 = CARTESIAN_POINT('',(53.192335231144,41.851827590413,18.3));
#294 = DIRECTION('',(0.62932039105,0.777145961457,0.));
#295 = DIRECTION('',(0.,0.,1.));
#296 = ADVANCED_FACE('',(#297),#308,.T.);
#297 = FACE_BOUND('',#298,.T.);
#298 = EDGE_LOOP('',(#299,#300,#306,#307));
#299 = ORIENTED_EDGE('',*,*,#144,.F.);
#300 = ORIENTED_EDGE('',*,*,#301,.F.);
#301 = EDGE_CURVE('',#239,#137,#302,.T.);
#302 = LINE('',#303,#304);
#303 = CARTESIAN_POINT('',(32.209394271806,58.843478148758,8.3));
#304 = VECTOR('',#305,1.);
#305 = DIRECTION('',(0.,0.,1.));
#306 = ORIENTED_EDGE('',*,*,#246,.T.);
#307 = ORIENTED_EDGE('',*,*,#198,.T.);
#308 = PLANE('',#309);
#309 = AXIS2_PLACEMENT_3D('',#310,#311,#312);
#310 = CARTESIAN_POINT('',(53.192335231144,41.851827590413,18.3));
#311 = DIRECTION('',(0.62932039105,0.777145961457,0.));
#312 = DIRECTION('',(0.,0.,1.));
#313 = ADVANCED_FACE('',(#314),#325,.F.);
#314 = FACE_BOUND('',#315,.F.);
#315 = EDGE_LOOP('',(#316,#317,#323,#324));
#316 = ORIENTED_EDGE('',*,*,#160,.F.);
#317 = ORIENTED_EDGE('',*,*,#318,.F.);
#318 = EDGE_CURVE('',#256,#161,#319,.T.);
#319 = LINE('',#320,#321);
#320 = CARTESIAN_POINT('',(34.969246788427,22.756847804224,17.3));
#321 = VECTOR('',#322,1.);
#322 = DIRECTION('',(0.,0.,1.));
#323 = ORIENTED_EDGE('',*,*,#255,.T.);
#324 = ORIENTED_EDGE('',*,*,#318,.T.);
#325 = CYLINDRICAL_SURFACE('',#326,1.1);
#326 = AXIS2_PLACEMENT_3D('',#327,#328,#329);
#327 = CARTESIAN_POINT('',(33.869246788427,22.756847804224,17.3));
#328 = DIRECTION('',(0.,0.,1.));
#329 = DIRECTION('',(1.,0.,-0.));
#330 = ADVANCED_FACE('',(#331),#342,.F.);
#331 = FACE_BOUND('',#332,.F.);
#332 = EDGE_LOOP('',(#333,#334,#340,#341));
#333 = ORIENTED_EDGE('',*,*,#171,.F.);
#334 = ORIENTED_EDGE('',*,*,#335,.F.);
#335 = EDGE_CURVE('',#267,#172,#336,.T.);
#336 = LINE('',#337,#338);
#337 = CARTESIAN_POINT('',(31.421433098656,56.512040264387,17.3));
#338 = VECTOR('',#339,1.);
#339 = DIRECTION('',(0.,0.,1.));
#340 = ORIENTED_EDGE('',*,*,#266,.T.);
#341 = ORIENTED_EDGE('',*,*,#335,.T.);
#342 = CYLINDRICAL_SURFACE('',#343,1.1);
#343 = AXIS2_PLACEMENT_3D('',#344,#345,#346);
#344 = CARTESIAN_POINT('',(30.321433098656,56.512040264387,17.3));
#345 = DIRECTION('',(0.,0.,1.));
#346 = DIRECTION('',(1.,0.,-0.));
#347 = ADVANCED_FACE('',(#348),#375,.F.);
#348 = FACE_BOUND('',#349,.F.);
#349 = EDGE_LOOP('',(#350,#360,#366,#367,#368,#369));
#350 = ORIENTED_EDGE('',*,*,#351,.F.);
#351 = EDGE_CURVE('',#352,#354,#356,.T.);
#352 = VERTEX_POINT('',#353);
#353 = CARTESIAN_POINT('',(50.923829385878,43.817503359708,8.3));
#354 = VERTEX_POINT('',#355);
#355 = CARTESIAN_POINT('',(55.394521443896,49.338348269898,8.3));
#356 = LINE('',#357,#358);
#357 = CARTESIAN_POINT('',(50.860897346773,43.739788763562,8.3));
#358 = VECTOR('',#359,1.);
#359 = DIRECTION('',(0.62932039105,0.777145961457,0.));
#360 = ORIENTED_EDGE('',*,*,#361,.F.);
#361 = EDGE_CURVE('',#223,#352,#362,.T.);
#362 = LINE('',#363,#364);
#363 = CARTESIAN_POINT('',(50.923829385878,43.817503359708,8.3));
#364 = VECTOR('',#365,1.);
#365 = DIRECTION('',(0.,0.,-1.));
#366 = ORIENTED_EDGE('',*,*,#222,.F.);
#367 = ORIENTED_EDGE('',*,*,#286,.T.);
#368 = ORIENTED_EDGE('',*,*,#120,.T.);
#369 = ORIENTED_EDGE('',*,*,#370,.F.);
#370 = EDGE_CURVE('',#354,#121,#371,.T.);
#371 = LINE('',#372,#373);
#372 = CARTESIAN_POINT('',(55.394521443896,49.338348269898,8.3));
#373 = VECTOR('',#374,1.);
#374 = DIRECTION('',(0.,0.,1.));
#375 = PLANE('',#376);
#376 = AXIS2_PLACEMENT_3D('',#377,#378,#379);
#377 = CARTESIAN_POINT('',(50.860897346773,43.739788763562,8.3));
#378 = DIRECTION('',(-0.777145961457,0.62932039105,0.));
#379 = DIRECTION('',(0.,0.,1.));
#380 = ADVANCED_FACE('',(#381),#408,.T.);
#381 = FACE_BOUND('',#382,.T.);
#382 = EDGE_LOOP('',(#383,#393,#399,#400,#401,#402));
#383 = ORIENTED_EDGE('',*,*,#384,.F.);
#384 = EDGE_CURVE('',#385,#387,#389,.T.);
#385 = VERTEX_POINT('',#386);
#386 = CARTESIAN_POINT('',(32.272326310911,58.921192744904,8.3));
#387 = VERTEX_POINT('',#388);
#388 = CARTESIAN_POINT('',(36.743018368929,64.442037655094,8.3));
#389 = LINE('',#390,#391);
#390 = CARTESIAN_POINT('',(32.209394271806,58.843478148758,8.3));
#391 = VECTOR('',#392,1.);
#392 = DIRECTION('',(0.62932039105,0.777145961457,0.));
#393 = ORIENTED_EDGE('',*,*,#394,.F.);
#394 = EDGE_CURVE('',#231,#385,#395,.T.);
#395 = LINE('',#396,#397);
#396 = CARTESIAN_POINT('',(32.272326310911,58.921192744904,8.3));
#397 = VECTOR('',#398,1.);
#398 = DIRECTION('',(0.,0.,-1.));
#399 = ORIENTED_EDGE('',*,*,#238,.F.);
#400 = ORIENTED_EDGE('',*,*,#301,.T.);
#401 = ORIENTED_EDGE('',*,*,#136,.T.);
#402 = ORIENTED_EDGE('',*,*,#403,.F.);
#403 = EDGE_CURVE('',#387,#129,#404,.T.);
#404 = LINE('',#405,#406);
#405 = CARTESIAN_POINT('',(36.743018368929,64.442037655094,8.3));
#406 = VECTOR('',#407,1.);
#407 = DIRECTION('',(0.,0.,1.));
#408 = PLANE('',#409);
#409 = AXIS2_PLACEMENT_3D('',#410,#411,#412);
#410 = CARTESIAN_POINT('',(32.209394271806,58.843478148758,8.3));
#411 = DIRECTION('',(-0.777145961457,0.62932039105,0.));
#412 = DIRECTION('',(0.,0.,1.));
#413 = ADVANCED_FACE('',(#414),#425,.T.);
#414 = FACE_BOUND('',#415,.T.);
#415 = EDGE_LOOP('',(#416,#417,#423,#424));
#416 = ORIENTED_EDGE('',*,*,#370,.F.);
#417 = ORIENTED_EDGE('',*,*,#418,.T.);
#418 = EDGE_CURVE('',#354,#387,#419,.T.);
#419 = LINE('',#420,#421);
#420 = CARTESIAN_POINT('',(55.394521443896,49.338348269898,8.3));
#421 = VECTOR('',#422,1.);
#422 = DIRECTION('',(-0.777145961457,0.62932039105,0.));
#423 = ORIENTED_EDGE('',*,*,#403,.T.);
#424 = ORIENTED_EDGE('',*,*,#128,.F.);
#425 = PLANE('',#426);
#426 = AXIS2_PLACEMENT_3D('',#427,#428,#429);
#427 = CARTESIAN_POINT('',(55.394521443896,49.338348269898,8.3));
#428 = DIRECTION('',(0.62932039105,0.777145961457,0.));
#429 = DIRECTION('',(0.,0.,1.));
#430 = ADVANCED_FACE('',(#431),#442,.F.);
#431 = FACE_BOUND('',#432,.F.);
#432 = EDGE_LOOP('',(#433,#434,#435,#441));
#433 = ORIENTED_EDGE('',*,*,#230,.T.);
#434 = ORIENTED_EDGE('',*,*,#361,.T.);
#435 = ORIENTED_EDGE('',*,*,#436,.T.);
#436 = EDGE_CURVE('',#352,#385,#437,.T.);
#437 = LINE('',#438,#439);
#438 = CARTESIAN_POINT('',(53.332981866395,41.866610147453,8.3));
#439 = VECTOR('',#440,1.);
#440 = DIRECTION('',(-0.777145961457,0.62932039105,0.));
#441 = ORIENTED_EDGE('',*,*,#394,.F.);
#442 = PLANE('',#443);
#443 = AXIS2_PLACEMENT_3D('',#444,#445,#446);
#444 = CARTESIAN_POINT('',(53.332981866395,41.866610147453,8.3));
#445 = DIRECTION('',(0.62932039105,0.777145961457,0.));
#446 = DIRECTION('',(0.,0.,1.));
#447 = ADVANCED_FACE('',(#448,#454),#488,.F.);
#448 = FACE_BOUND('',#449,.F.);
#449 = EDGE_LOOP('',(#450,#451,#452,#453));
#450 = ORIENTED_EDGE('',*,*,#384,.F.);
#451 = ORIENTED_EDGE('',*,*,#436,.F.);
#452 = ORIENTED_EDGE('',*,*,#351,.T.);
#453 = ORIENTED_EDGE('',*,*,#418,.T.);
#454 = FACE_BOUND('',#455,.F.);
#455 = EDGE_LOOP('',(#456,#466,#474,#482));
#456 = ORIENTED_EDGE('',*,*,#457,.T.);
#457 = EDGE_CURVE('',#458,#460,#462,.T.);
#458 = VERTEX_POINT('',#459);
#459 = CARTESIAN_POINT('',(53.706761820888,49.160957585409,8.3));
#460 = VERTEX_POINT('',#461);
#461 = CARTESIAN_POINT('',(50.683506662284,45.42754838657,8.3));
#462 = LINE('',#463,#464);
#463 = CARTESIAN_POINT('',(50.305914427654,44.961260809696,8.3));
#464 = VECTOR('',#465,1.);
#465 = DIRECTION('',(-0.62932039105,-0.777145961457,0.));
#466 = ORIENTED_EDGE('',*,*,#467,.T.);
#467 = EDGE_CURVE('',#460,#468,#470,.T.);
#468 = VERTEX_POINT('',#469);
#469 = CARTESIAN_POINT('',(33.897153894814,59.020868833247,8.3));
#470 = LINE('',#471,#472);
#471 = CARTESIAN_POINT('',(51.149794239159,45.04995615194,8.3));
#472 = VECTOR('',#473,1.);
#473 = DIRECTION('',(-0.777145961457,0.62932039105,0.));
#474 = ORIENTED_EDGE('',*,*,#475,.F.);
#475 = EDGE_CURVE('',#476,#468,#478,.T.);
#476 = VERTEX_POINT('',#477);
#477 = CARTESIAN_POINT('',(36.920409053417,62.754278032086,8.3));
#478 = LINE('',#479,#480);
#479 = CARTESIAN_POINT('',(33.519561660184,58.554581256373,8.3));
#480 = VECTOR('',#481,1.);
#481 = DIRECTION('',(-0.62932039105,-0.777145961457,0.));
#482 = ORIENTED_EDGE('',*,*,#483,.F.);
#483 = EDGE_CURVE('',#458,#476,#484,.T.);
#484 = LINE('',#485,#486);
#485 = CARTESIAN_POINT('',(54.173049397762,48.78336535078,8.3));
#486 = VECTOR('',#487,1.);
#487 = DIRECTION('',(-0.777145961457,0.62932039105,0.));
#488 = PLANE('',#489);
#489 = AXIS2_PLACEMENT_3D('',#490,#491,#492);
#490 = CARTESIAN_POINT('',(50.860897346773,43.739788763562,8.3));
#491 = DIRECTION('',(0.,0.,1.));
#492 = DIRECTION('',(0.62932039105,0.777145961457,0.));
#493 = ADVANCED_FACE('',(#494),#520,.T.);
#494 = FACE_BOUND('',#495,.T.);
#495 = EDGE_LOOP('',(#496,#504,#505,#513));
#496 = ORIENTED_EDGE('',*,*,#497,.F.);
#497 = EDGE_CURVE('',#458,#498,#500,.T.);
#498 = VERTEX_POINT('',#499);
#499 = CARTESIAN_POINT('',(53.706761820888,49.160957585409,
    13.369010757664));
#500 = LINE('',#501,#502);
#501 = CARTESIAN_POINT('',(53.706761820888,49.160957585409,7.));
#502 = VECTOR('',#503,1.);
#503 = DIRECTION('',(0.,0.,1.));
#504 = ORIENTED_EDGE('',*,*,#457,.T.);
#505 = ORIENTED_EDGE('',*,*,#506,.T.);
#506 = EDGE_CURVE('',#460,#507,#509,.T.);
#507 = VERTEX_POINT('',#508);
#508 = CARTESIAN_POINT('',(50.683506662284,45.42754838657,
    18.198304841223));
#509 = LINE('',#510,#511);
#510 = CARTESIAN_POINT('',(50.683506662284,45.42754838657,7.));
#511 = VECTOR('',#512,1.);
#512 = DIRECTION('',(0.,0.,1.));
#513 = ORIENTED_EDGE('',*,*,#514,.F.);
#514 = EDGE_CURVE('',#498,#507,#515,.T.);
#515 = CIRCLE('',#516,6.);
#516 = AXIS2_PLACEMENT_3D('',#517,#518,#519);
#517 = CARTESIAN_POINT('',(49.99125423213,44.572687828968,12.3));
#518 = DIRECTION('',(0.777145961457,-0.62932039105,2.22044604925E-16));
#519 = DIRECTION('',(0.62932039105,0.777145961457,0.));
#520 = PLANE('',#521);
#521 = AXIS2_PLACEMENT_3D('',#522,#523,#524);
#522 = CARTESIAN_POINT('',(50.683506662284,45.42754838657,7.));
#523 = DIRECTION('',(-0.777145961457,0.62932039105,0.));
#524 = DIRECTION('',(0.,0.,1.));
#525 = ADVANCED_FACE('',(#526),#544,.F.);
#526 = FACE_BOUND('',#527,.F.);
#527 = EDGE_LOOP('',(#528,#529,#530,#538));
#528 = ORIENTED_EDGE('',*,*,#497,.F.);
#529 = ORIENTED_EDGE('',*,*,#483,.T.);
#530 = ORIENTED_EDGE('',*,*,#531,.T.);
#531 = EDGE_CURVE('',#476,#532,#534,.T.);
#532 = VERTEX_POINT('',#533);
#533 = CARTESIAN_POINT('',(36.920409053417,62.754278032086,
    13.369010757663));
#534 = LINE('',#535,#536);
#535 = CARTESIAN_POINT('',(36.920409053417,62.754278032086,7.));
#536 = VECTOR('',#537,1.);
#537 = DIRECTION('',(0.,0.,1.));
#538 = ORIENTED_EDGE('',*,*,#539,.T.);
#539 = EDGE_CURVE('',#532,#498,#540,.T.);
#540 = LINE('',#541,#542);
#541 = CARTESIAN_POINT('',(35.987833899669,63.509462501346,
    13.369010757663));
#542 = VECTOR('',#543,1.);
#543 = DIRECTION('',(0.777145961457,-0.62932039105,2.22044604925E-16));
#544 = PLANE('',#545);
#545 = AXIS2_PLACEMENT_3D('',#546,#547,#548);
#546 = CARTESIAN_POINT('',(53.706761820888,49.160957585409,7.));
#547 = DIRECTION('',(0.62932039105,0.777145961457,0.));
#548 = DIRECTION('',(0.,0.,1.));
#549 = ADVANCED_FACE('',(#550),#568,.T.);
#550 = FACE_BOUND('',#551,.T.);
#551 = EDGE_LOOP('',(#552,#553,#554,#562));
#552 = ORIENTED_EDGE('',*,*,#506,.F.);
#553 = ORIENTED_EDGE('',*,*,#467,.T.);
#554 = ORIENTED_EDGE('',*,*,#555,.T.);
#555 = EDGE_CURVE('',#468,#556,#558,.T.);
#556 = VERTEX_POINT('',#557);
#557 = CARTESIAN_POINT('',(33.897153894814,59.020868833247,
    18.198304841223));
#558 = LINE('',#559,#560);
#559 = CARTESIAN_POINT('',(33.897153894814,59.020868833247,7.));
#560 = VECTOR('',#561,1.);
#561 = DIRECTION('',(0.,0.,1.));
#562 = ORIENTED_EDGE('',*,*,#563,.T.);
#563 = EDGE_CURVE('',#556,#507,#564,.T.);
#564 = LINE('',#565,#566);
#565 = CARTESIAN_POINT('',(32.964578741065,59.776053302507,
    18.198304841223));
#566 = VECTOR('',#567,1.);
#567 = DIRECTION('',(0.777145961457,-0.62932039105,2.22044604925E-16));
#568 = PLANE('',#569);
#569 = AXIS2_PLACEMENT_3D('',#570,#571,#572);
#570 = CARTESIAN_POINT('',(50.683506662284,45.42754838657,7.));
#571 = DIRECTION('',(0.62932039105,0.777145961457,0.));
#572 = DIRECTION('',(0.,0.,1.));
#573 = ADVANCED_FACE('',(#574),#586,.F.);
#574 = FACE_BOUND('',#575,.F.);
#575 = EDGE_LOOP('',(#576,#577,#578,#579));
#576 = ORIENTED_EDGE('',*,*,#531,.F.);
#577 = ORIENTED_EDGE('',*,*,#475,.T.);
#578 = ORIENTED_EDGE('',*,*,#555,.T.);
#579 = ORIENTED_EDGE('',*,*,#580,.F.);
#580 = EDGE_CURVE('',#532,#556,#581,.T.);
#581 = CIRCLE('',#582,6.);
#582 = AXIS2_PLACEMENT_3D('',#583,#584,#585);
#583 = CARTESIAN_POINT('',(33.204901464659,58.166008275644,12.3));
#584 = DIRECTION('',(0.777145961457,-0.62932039105,2.22044604925E-16));
#585 = DIRECTION('',(0.62932039105,0.777145961457,0.));
#586 = PLANE('',#587);
#587 = AXIS2_PLACEMENT_3D('',#588,#589,#590);
#588 = CARTESIAN_POINT('',(33.897153894814,59.020868833247,7.));
#589 = DIRECTION('',(-0.777145961457,0.62932039105,0.));
#590 = DIRECTION('',(0.,0.,1.));
#591 = ADVANCED_FACE('',(#592),#598,.F.);
#592 = FACE_BOUND('',#593,.F.);
#593 = EDGE_LOOP('',(#594,#595,#596,#597));
#594 = ORIENTED_EDGE('',*,*,#539,.F.);
#595 = ORIENTED_EDGE('',*,*,#580,.T.);
#596 = ORIENTED_EDGE('',*,*,#563,.T.);
#597 = ORIENTED_EDGE('',*,*,#514,.F.);
#598 = CYLINDRICAL_SURFACE('',#599,6.);
#599 = AXIS2_PLACEMENT_3D('',#600,#601,#602);
#600 = CARTESIAN_POINT('',(32.272326310911,58.921192744904,12.3));
#601 = DIRECTION('',(0.777145961457,-0.62932039105,2.22044604925E-16));
#602 = DIRECTION('',(0.62932039105,0.777145961457,0.));
#603 = ( GEOMETRIC_REPRESENTATION_CONTEXT(3) 
GLOBAL_UNCERTAINTY_ASSIGNED_CONTEXT((#607)) GLOBAL_UNIT_ASSIGNED_CONTEXT
((#604,#605,#606)) REPRESENTATION_CONTEXT('Context #1',
  '3D Context with UNIT and UNCERTAINTY') );
#604 = ( LENGTH_UNIT() NAMED_UNIT(*) SI_UNIT(.MILLI.,.METRE.) );
#605 = ( NAMED_UNIT(*) PLANE_ANGLE_UNIT() SI_UNIT($,.RADIAN.) );
#606 = ( NAMED_UNIT(*) SI_UNIT($,.STERADIAN.) SOLID_ANGLE_UNIT() );
#607 = UNCERTAINTY_MEASURE_WITH_UNIT(LENGTH_MEASURE(1.E-07),#604,
  'distance_accuracy_value','confusion accuracy');
#608 = CONTEXT_DEPENDENT_SHAPE_REPRESENTATION(#609,#611);
#609 = ( REPRESENTATION_RELATIONSHIP('','',#32,#10) 
REPRESENTATION_RELATIONSHIP_WITH_TRANSFORMATION(#610) 
SHAPE_REPRESENTATION_RELATIONSHIP() );
#610 = ITEM_DEFINED_TRANSFORMATION('','',#11,#15);
#611 = PRODUCT_DEFINITION_SHAPE('Placement','Placement of an item',#612
  );
#612 = NEXT_ASSEMBLY_USAGE_OCCURRENCE('8','=>[0:1:1:2]','',#5,#27,$);
#613 = PRODUCT_RELATED_PRODUCT_CATEGORY('part',$,(#29));
ENDSEC;
END-ISO-10303-21;
