ISO-10303-21;
HEADER;
FILE_DESCRIPTION(('Open CASCADE Model'),'2;1');
FILE_NAME('Open CASCADE Shape Model','2026-09-07T12:04:01',('Author'),(
    'Open CASCADE'),'Open CASCADE STEP processor 7.9','build123d',
  'Unknown');
FILE_SCHEMA(('AUTOMOTIVE_DESIGN { 1 0 10303 214 1 1 1 1 }'));
ENDSEC;
DATA;
#1 = APPLICATION_PROTOCOL_DEFINITION('international standard',
  'automotive_design',2000,#2);
#2 = APPLICATION_CONTEXT(
  'core data for automotive mechanical design processes');
#3 = SHAPE_DEFINITION_REPRESENTATION(#4,#10);
#4 = PRODUCT_DEFINITION_SHAPE('','',#5);
#5 = PRODUCT_DEFINITION('design','',#6,#9);
#6 = PRODUCT_DEFINITION_FORMATION('','',#7);
#7 = PRODUCT('=>[0:1:1:2]','=>[0:1:1:2]','',(#8));
#8 = PRODUCT_CONTEXT('',#2,'mechanical');
#9 = PRODUCT_DEFINITION_CONTEXT('part definition',#2,'design');
#10 = SHAPE_REPRESENTATION('',(#11,#15),#19);
#11 = AXIS2_PLACEMENT_3D('',#12,#13,#14);
#12 = CARTESIAN_POINT('',(0.,0.,0.));
#13 = DIRECTION('',(0.,0.,1.));
#14 = DIRECTION('',(1.,0.,-0.));
#15 = AXIS2_PLACEMENT_3D('',#16,#17,#18);
#16 = CARTESIAN_POINT('',(-59.,10.50000005,29.));
#17 = DIRECTION('',(0.,-1.,2.22044604925E-16));
#18 = DIRECTION('',(1.,0.,0.));
#19 = ( GEOMETRIC_REPRESENTATION_CONTEXT(3) 
GLOBAL_UNCERTAINTY_ASSIGNED_CONTEXT((#23)) GLOBAL_UNIT_ASSIGNED_CONTEXT(
(#20,#21,#22)) REPRESENTATION_CONTEXT('Context #1',
  '3D Context with UNIT and UNCERTAINTY') );
#20 = ( LENGTH_UNIT() NAMED_UNIT(*) SI_UNIT(.MILLI.,.METRE.) );
#21 = ( NAMED_UNIT(*) PLANE_ANGLE_UNIT() SI_UNIT($,.RADIAN.) );
#22 = ( NAMED_UNIT(*) SI_UNIT($,.STERADIAN.) SOLID_ANGLE_UNIT() );
#23 = UNCERTAINTY_MEASURE_WITH_UNIT(LENGTH_MEASURE(1.E-07),#20,
  'distance_accuracy_value','confusion accuracy');
#24 = PRODUCT_RELATED_PRODUCT_CATEGORY('part',$,(#7));
#25 = SHAPE_DEFINITION_REPRESENTATION(#26,#32);
#26 = PRODUCT_DEFINITION_SHAPE('','',#27);
#27 = PRODUCT_DEFINITION('design','',#28,#31);
#28 = PRODUCT_DEFINITION_FORMATION('','',#29);
#29 = PRODUCT('COMPOUND','COMPOUND','',(#30));
#30 = PRODUCT_CONTEXT('',#2,'mechanical');
#31 = PRODUCT_DEFINITION_CONTEXT('part definition',#2,'design');
#32 = ADVANCED_BREP_SHAPE_REPRESENTATION('',(#11,#33),#1620);
#33 = MANIFOLD_SOLID_BREP('',#34);
#34 = CLOSED_SHELL('',(#35,#77,#178,#218,#349,#366,#399,#424,#449,#474,
    #514,#554,#579,#604,#622,#679,#696,#736,#748,#801,#836,#861,#990,
    #1042,#1067,#1092,#1109,#1121,#1138,#1158,#1168,#1185,#1205,#1231,
    #1257,#1333,#1352,#1370,#1388,#1400,#1420,#1479,#1504,#1520,#1532,
    #1557,#1574,#1592,#1602,#1611));
#35 = ADVANCED_FACE('',(#36),#72,.T.);
#36 = FACE_BOUND('',#37,.T.);
#37 = EDGE_LOOP('',(#38,#49,#57,#66));
#38 = ORIENTED_EDGE('',*,*,#39,.T.);
#39 = EDGE_CURVE('',#40,#42,#44,.T.);
#40 = VERTEX_POINT('',#41);
#41 = CARTESIAN_POINT('',(72.40856302952,-29.,9.5));
#42 = VERTEX_POINT('',#43);
#43 = CARTESIAN_POINT('',(75.119904153293,21.,9.5));
#44 = CIRCLE('',#45,78.);
#45 = AXIS2_PLACEMENT_3D('',#46,#47,#48);
#46 = CARTESIAN_POINT('',(0.,0.,9.5));
#47 = DIRECTION('',(0.,0.,1.));
#48 = DIRECTION('',(0.928314910635,-0.371794871795,0.));
#49 = ORIENTED_EDGE('',*,*,#50,.T.);
#50 = EDGE_CURVE('',#42,#51,#53,.T.);
#51 = VERTEX_POINT('',#52);
#52 = CARTESIAN_POINT('',(75.119904153293,21.,11.));
#53 = LINE('',#54,#55);
#54 = CARTESIAN_POINT('',(75.119904153293,21.,9.5));
#55 = VECTOR('',#56,1.);
#56 = DIRECTION('',(0.,0.,1.));
#57 = ORIENTED_EDGE('',*,*,#58,.T.);
#58 = EDGE_CURVE('',#51,#59,#61,.T.);
#59 = VERTEX_POINT('',#60);
#60 = CARTESIAN_POINT('',(72.40856302952,-29.,11.));
#61 = CIRCLE('',#62,78.);
#62 = AXIS2_PLACEMENT_3D('',#63,#64,#65);
#63 = CARTESIAN_POINT('',(0.,0.,11.));
#64 = DIRECTION('',(0.,0.,-1.));
#65 = DIRECTION('',(0.963075694273,0.269230769231,0.));
#66 = ORIENTED_EDGE('',*,*,#67,.F.);
#67 = EDGE_CURVE('',#40,#59,#68,.T.);
#68 = LINE('',#69,#70);
#69 = CARTESIAN_POINT('',(72.40856302952,-29.,9.5));
#70 = VECTOR('',#71,1.);
#71 = DIRECTION('',(0.,0.,1.));
#72 = CYLINDRICAL_SURFACE('',#73,78.);
#73 = AXIS2_PLACEMENT_3D('',#74,#75,#76);
#74 = CARTESIAN_POINT('',(0.,0.,9.5));
#75 = DIRECTION('',(0.,0.,1.));
#76 = DIRECTION('',(1.,0.,-0.));
#77 = ADVANCED_FACE('',(#78),#173,.F.);
#78 = FACE_BOUND('',#79,.F.);
#79 = EDGE_LOOP('',(#80,#88,#89,#97,#106,#115,#124,#132,#140,#149,#158,
    #167));
#80 = ORIENTED_EDGE('',*,*,#81,.F.);
#81 = EDGE_CURVE('',#40,#82,#84,.T.);
#82 = VERTEX_POINT('',#83);
#83 = CARTESIAN_POINT('',(40.,-29.,9.5));
#84 = LINE('',#85,#86);
#85 = CARTESIAN_POINT('',(20.,-29.,9.5));
#86 = VECTOR('',#87,1.);
#87 = DIRECTION('',(-1.,-0.,0.));
#88 = ORIENTED_EDGE('',*,*,#39,.T.);
#89 = ORIENTED_EDGE('',*,*,#90,.T.);
#90 = EDGE_CURVE('',#42,#91,#93,.T.);
#91 = VERTEX_POINT('',#92);
#92 = CARTESIAN_POINT('',(43.162483709814,21.,9.5));
#93 = LINE('',#94,#95);
#94 = CARTESIAN_POINT('',(20.,21.,9.5));
#95 = VECTOR('',#96,1.);
#96 = DIRECTION('',(-1.,-0.,0.));
#97 = ORIENTED_EDGE('',*,*,#98,.F.);
#98 = EDGE_CURVE('',#99,#91,#101,.T.);
#99 = VERTEX_POINT('',#100);
#100 = CARTESIAN_POINT('',(43.771592630731,19.698925822728,9.5));
#101 = CIRCLE('',#102,48.);
#102 = AXIS2_PLACEMENT_3D('',#103,#104,#105);
#103 = CARTESIAN_POINT('',(0.,0.,9.5));
#104 = DIRECTION('',(0.,0.,1.));
#105 = DIRECTION('',(1.,0.,-0.));
#106 = ORIENTED_EDGE('',*,*,#107,.F.);
#107 = EDGE_CURVE('',#108,#99,#110,.T.);
#108 = VERTEX_POINT('',#109);
#109 = CARTESIAN_POINT('',(46.062295103157,13.500554426752,9.5));
#110 = CIRCLE('',#111,3.5);
#111 = AXIS2_PLACEMENT_3D('',#112,#113,#114);
#112 = CARTESIAN_POINT('',(46.,17.,9.5));
#113 = DIRECTION('',(-0.,0.,1.));
#114 = DIRECTION('',(1.779860090193E-02,-0.999841592356,0.));
#115 = ORIENTED_EDGE('',*,*,#116,.F.);
#116 = EDGE_CURVE('',#117,#108,#119,.T.);
#117 = VERTEX_POINT('',#118);
#118 = CARTESIAN_POINT('',(46.,-13.7113092008,9.5));
#119 = CIRCLE('',#120,48.);
#120 = AXIS2_PLACEMENT_3D('',#121,#122,#123);
#121 = CARTESIAN_POINT('',(0.,0.,9.5));
#122 = DIRECTION('',(0.,0.,1.));
#123 = DIRECTION('',(1.,0.,-0.));
#124 = ORIENTED_EDGE('',*,*,#125,.F.);
#125 = EDGE_CURVE('',#126,#117,#128,.T.);
#126 = VERTEX_POINT('',#127);
#127 = CARTESIAN_POINT('',(46.,-16.,9.5));
#128 = LINE('',#129,#130);
#129 = CARTESIAN_POINT('',(46.,-8.,9.5));
#130 = VECTOR('',#131,1.);
#131 = DIRECTION('',(-0.,1.,0.));
#132 = ORIENTED_EDGE('',*,*,#133,.T.);
#133 = EDGE_CURVE('',#126,#134,#136,.T.);
#134 = VERTEX_POINT('',#135);
#135 = CARTESIAN_POINT('',(45.254833995939,-16.,9.5));
#136 = LINE('',#137,#138);
#137 = CARTESIAN_POINT('',(0.,-16.,9.5));
#138 = VECTOR('',#139,1.);
#139 = DIRECTION('',(-1.,-0.,0.));
#140 = ORIENTED_EDGE('',*,*,#141,.F.);
#141 = EDGE_CURVE('',#142,#134,#144,.T.);
#142 = VERTEX_POINT('',#143);
#143 = CARTESIAN_POINT('',(45.023857725056,-16.63887723237,9.5));
#144 = CIRCLE('',#145,48.);
#145 = AXIS2_PLACEMENT_3D('',#146,#147,#148);
#146 = CARTESIAN_POINT('',(0.,0.,9.5));
#147 = DIRECTION('',(0.,0.,1.));
#148 = DIRECTION('',(1.,0.,-0.));
#149 = ORIENTED_EDGE('',*,*,#150,.F.);
#150 = EDGE_CURVE('',#151,#142,#153,.T.);
#151 = VERTEX_POINT('',#152);
#152 = CARTESIAN_POINT('',(42.876182020572,-21.57853135268,9.5));
#153 = CIRCLE('',#154,3.5);
#154 = AXIS2_PLACEMENT_3D('',#155,#156,#157);
#155 = CARTESIAN_POINT('',(46.,-20.,9.5));
#156 = DIRECTION('',(0.,0.,1.));
#157 = DIRECTION('',(-0.892519422694,-0.45100895791,0.));
#158 = ORIENTED_EDGE('',*,*,#159,.F.);
#159 = EDGE_CURVE('',#160,#151,#162,.T.);
#160 = VERTEX_POINT('',#161);
#161 = CARTESIAN_POINT('',(40.,-26.53299832284,9.5));
#162 = CIRCLE('',#163,48.);
#163 = AXIS2_PLACEMENT_3D('',#164,#165,#166);
#164 = CARTESIAN_POINT('',(0.,0.,9.5));
#165 = DIRECTION('',(0.,0.,1.));
#166 = DIRECTION('',(1.,0.,-0.));
#167 = ORIENTED_EDGE('',*,*,#168,.F.);
#168 = EDGE_CURVE('',#82,#160,#169,.T.);
#169 = LINE('',#170,#171);
#170 = CARTESIAN_POINT('',(40.,-14.5,9.5));
#171 = VECTOR('',#172,1.);
#172 = DIRECTION('',(-0.,1.,0.));
#173 = PLANE('',#174);
#174 = AXIS2_PLACEMENT_3D('',#175,#176,#177);
#175 = CARTESIAN_POINT('',(0.,0.,9.5));
#176 = DIRECTION('',(0.,0.,1.));
#177 = DIRECTION('',(1.,0.,-0.));
#178 = ADVANCED_FACE('',(#179),#213,.T.);
#179 = FACE_BOUND('',#180,.T.);
#180 = EDGE_LOOP('',(#181,#182,#183,#191,#199,#207));
#181 = ORIENTED_EDGE('',*,*,#50,.F.);
#182 = ORIENTED_EDGE('',*,*,#90,.T.);
#183 = ORIENTED_EDGE('',*,*,#184,.F.);
#184 = EDGE_CURVE('',#185,#91,#187,.T.);
#185 = VERTEX_POINT('',#186);
#186 = CARTESIAN_POINT('',(43.162483709814,21.,8.));
#187 = LINE('',#188,#189);
#188 = CARTESIAN_POINT('',(43.162483709814,21.,8.));
#189 = VECTOR('',#190,1.);
#190 = DIRECTION('',(0.,0.,1.));
#191 = ORIENTED_EDGE('',*,*,#192,.T.);
#192 = EDGE_CURVE('',#185,#193,#195,.T.);
#193 = VERTEX_POINT('',#194);
#194 = CARTESIAN_POINT('',(40.926763859362,21.,8.));
#195 = LINE('',#196,#197);
#196 = CARTESIAN_POINT('',(20.,21.,8.));
#197 = VECTOR('',#198,1.);
#198 = DIRECTION('',(-1.,-0.,0.));
#199 = ORIENTED_EDGE('',*,*,#200,.T.);
#200 = EDGE_CURVE('',#193,#201,#203,.T.);
#201 = VERTEX_POINT('',#202);
#202 = CARTESIAN_POINT('',(40.926763859362,21.,11.));
#203 = LINE('',#204,#205);
#204 = CARTESIAN_POINT('',(40.926763859362,21.,8.));
#205 = VECTOR('',#206,1.);
#206 = DIRECTION('',(0.,0.,1.));
#207 = ORIENTED_EDGE('',*,*,#208,.F.);
#208 = EDGE_CURVE('',#51,#201,#209,.T.);
#209 = LINE('',#210,#211);
#210 = CARTESIAN_POINT('',(20.,21.,11.));
#211 = VECTOR('',#212,1.);
#212 = DIRECTION('',(-1.,-0.,0.));
#213 = PLANE('',#214);
#214 = AXIS2_PLACEMENT_3D('',#215,#216,#217);
#215 = CARTESIAN_POINT('',(40.,21.,0.));
#216 = DIRECTION('',(-0.,1.,0.));
#217 = DIRECTION('',(0.,0.,1.));
#218 = ADVANCED_FACE('',(#219,#264,#302,#313,#333),#344,.T.);
#219 = FACE_BOUND('',#220,.T.);
#220 = EDGE_LOOP('',(#221,#229,#230,#231,#240,#249,#258));
#221 = ORIENTED_EDGE('',*,*,#222,.F.);
#222 = EDGE_CURVE('',#59,#223,#225,.T.);
#223 = VERTEX_POINT('',#224);
#224 = CARTESIAN_POINT('',(40.,-29.,11.));
#225 = LINE('',#226,#227);
#226 = CARTESIAN_POINT('',(20.,-29.,11.));
#227 = VECTOR('',#228,1.);
#228 = DIRECTION('',(-1.,-0.,0.));
#229 = ORIENTED_EDGE('',*,*,#58,.F.);
#230 = ORIENTED_EDGE('',*,*,#208,.T.);
#231 = ORIENTED_EDGE('',*,*,#232,.T.);
#232 = EDGE_CURVE('',#201,#233,#235,.T.);
#233 = VERTEX_POINT('',#234);
#234 = CARTESIAN_POINT('',(42.537273528034,17.509436335909,11.));
#235 = CIRCLE('',#236,46.);
#236 = AXIS2_PLACEMENT_3D('',#237,#238,#239);
#237 = CARTESIAN_POINT('',(0.,0.,11.));
#238 = DIRECTION('',(0.,0.,-1.));
#239 = DIRECTION('',(0.889712257812,0.45652173913,0.));
#240 = ORIENTED_EDGE('',*,*,#241,.T.);
#241 = EDGE_CURVE('',#233,#242,#244,.T.);
#242 = VERTEX_POINT('',#243);
#243 = CARTESIAN_POINT('',(43.700772210012,14.361145784674,11.));
#244 = CIRCLE('',#245,3.5);
#245 = AXIS2_PLACEMENT_3D('',#246,#247,#248);
#246 = CARTESIAN_POINT('',(46.,17.,11.));
#247 = DIRECTION('',(0.,0.,1.));
#248 = DIRECTION('',(1.,0.,-0.));
#249 = ORIENTED_EDGE('',*,*,#250,.T.);
#250 = EDGE_CURVE('',#242,#251,#253,.T.);
#251 = VERTEX_POINT('',#252);
#252 = CARTESIAN_POINT('',(40.,-22.7156333832,11.));
#253 = CIRCLE('',#254,46.);
#254 = AXIS2_PLACEMENT_3D('',#255,#256,#257);
#255 = CARTESIAN_POINT('',(0.,0.,11.));
#256 = DIRECTION('',(0.,0.,-1.));
#257 = DIRECTION('',(0.889712257812,0.45652173913,0.));
#258 = ORIENTED_EDGE('',*,*,#259,.F.);
#259 = EDGE_CURVE('',#223,#251,#260,.T.);
#260 = LINE('',#261,#262);
#261 = CARTESIAN_POINT('',(40.,-14.5,11.));
#262 = VECTOR('',#263,1.);
#263 = DIRECTION('',(-0.,1.,0.));
#264 = FACE_BOUND('',#265,.T.);
#265 = EDGE_LOOP('',(#266,#277,#286,#295));
#266 = ORIENTED_EDGE('',*,*,#267,.T.);
#267 = EDGE_CURVE('',#268,#270,#272,.T.);
#268 = VERTEX_POINT('',#269);
#269 = CARTESIAN_POINT('',(48.494122933255,-21.00000575665,11.));
#270 = VERTEX_POINT('',#271);
#271 = CARTESIAN_POINT('',(51.5,-24.,11.));
#272 = CIRCLE('',#273,3.);
#273 = AXIS2_PLACEMENT_3D('',#274,#275,#276);
#274 = CARTESIAN_POINT('',(48.5,-24.,11.));
#275 = DIRECTION('',(0.,0.,-1.));
#276 = DIRECTION('',(1.,0.,0.));
#277 = ORIENTED_EDGE('',*,*,#278,.T.);
#278 = EDGE_CURVE('',#270,#279,#281,.T.);
#279 = VERTEX_POINT('',#280);
#280 = CARTESIAN_POINT('',(45.805951304895,-22.68011302438,11.));
#281 = CIRCLE('',#282,3.);
#282 = AXIS2_PLACEMENT_3D('',#283,#284,#285);
#283 = CARTESIAN_POINT('',(48.5,-24.,11.));
#284 = DIRECTION('',(0.,0.,-1.));
#285 = DIRECTION('',(1.,0.,0.));
#286 = ORIENTED_EDGE('',*,*,#287,.F.);
#287 = EDGE_CURVE('',#288,#279,#290,.T.);
#288 = VERTEX_POINT('',#289);
#289 = CARTESIAN_POINT('',(48.687128712871,-20.,11.));
#290 = CIRCLE('',#291,2.687128712871);
#291 = AXIS2_PLACEMENT_3D('',#292,#293,#294);
#292 = CARTESIAN_POINT('',(46.,-20.,11.));
#293 = DIRECTION('',(0.,0.,1.));
#294 = DIRECTION('',(1.,0.,-0.));
#295 = ORIENTED_EDGE('',*,*,#296,.F.);
#296 = EDGE_CURVE('',#268,#288,#297,.T.);
#297 = CIRCLE('',#298,2.687128712871);
#298 = AXIS2_PLACEMENT_3D('',#299,#300,#301);
#299 = CARTESIAN_POINT('',(46.,-20.,11.));
#300 = DIRECTION('',(0.,0.,1.));
#301 = DIRECTION('',(1.,0.,-0.));
#302 = FACE_BOUND('',#303,.T.);
#303 = EDGE_LOOP('',(#304));
#304 = ORIENTED_EDGE('',*,*,#305,.F.);
#305 = EDGE_CURVE('',#306,#306,#308,.T.);
#306 = VERTEX_POINT('',#307);
#307 = CARTESIAN_POINT('',(73.,-24.,11.));
#308 = CIRCLE('',#309,3.);
#309 = AXIS2_PLACEMENT_3D('',#310,#311,#312);
#310 = CARTESIAN_POINT('',(70.,-24.,11.));
#311 = DIRECTION('',(0.,0.,1.));
#312 = DIRECTION('',(1.,0.,-0.));
#313 = FACE_BOUND('',#314,.T.);
#314 = EDGE_LOOP('',(#315,#326));
#315 = ORIENTED_EDGE('',*,*,#316,.F.);
#316 = EDGE_CURVE('',#317,#319,#321,.T.);
#317 = VERTEX_POINT('',#318);
#318 = CARTESIAN_POINT('',(47.867126323583,18.932485449188,11.));
#319 = VERTEX_POINT('',#320);
#320 = CARTESIAN_POINT('',(46.019308407292,14.312940658462,11.));
#321 = CIRCLE('',#322,2.687128712871);
#322 = AXIS2_PLACEMENT_3D('',#323,#324,#325);
#323 = CARTESIAN_POINT('',(46.,17.,11.));
#324 = DIRECTION('',(0.,0.,1.));
#325 = DIRECTION('',(1.,0.,-0.));
#326 = ORIENTED_EDGE('',*,*,#327,.T.);
#327 = EDGE_CURVE('',#317,#319,#328,.T.);
#328 = CIRCLE('',#329,3.);
#329 = AXIS2_PLACEMENT_3D('',#330,#331,#332);
#330 = CARTESIAN_POINT('',(48.5,16.,11.));
#331 = DIRECTION('',(0.,0.,-1.));
#332 = DIRECTION('',(-0.648015966416,0.761626750626,0.));
#333 = FACE_BOUND('',#334,.T.);
#334 = EDGE_LOOP('',(#335));
#335 = ORIENTED_EDGE('',*,*,#336,.F.);
#336 = EDGE_CURVE('',#337,#337,#339,.T.);
#337 = VERTEX_POINT('',#338);
#338 = CARTESIAN_POINT('',(73.,16.,11.));
#339 = CIRCLE('',#340,3.);
#340 = AXIS2_PLACEMENT_3D('',#341,#342,#343);
#341 = CARTESIAN_POINT('',(70.,16.,11.));
#342 = DIRECTION('',(0.,0.,1.));
#343 = DIRECTION('',(1.,0.,-0.));
#344 = PLANE('',#345);
#345 = AXIS2_PLACEMENT_3D('',#346,#347,#348);
#346 = CARTESIAN_POINT('',(0.,0.,11.));
#347 = DIRECTION('',(0.,0.,1.));
#348 = DIRECTION('',(1.,0.,-0.));
#349 = ADVANCED_FACE('',(#350),#361,.F.);
#350 = FACE_BOUND('',#351,.F.);
#351 = EDGE_LOOP('',(#352,#353,#359,#360));
#352 = ORIENTED_EDGE('',*,*,#81,.T.);
#353 = ORIENTED_EDGE('',*,*,#354,.T.);
#354 = EDGE_CURVE('',#82,#223,#355,.T.);
#355 = LINE('',#356,#357);
#356 = CARTESIAN_POINT('',(40.,-29.,0.));
#357 = VECTOR('',#358,1.);
#358 = DIRECTION('',(0.,0.,1.));
#359 = ORIENTED_EDGE('',*,*,#222,.F.);
#360 = ORIENTED_EDGE('',*,*,#67,.F.);
#361 = PLANE('',#362);
#362 = AXIS2_PLACEMENT_3D('',#363,#364,#365);
#363 = CARTESIAN_POINT('',(40.,-29.,0.));
#364 = DIRECTION('',(-0.,1.,0.));
#365 = DIRECTION('',(0.,0.,1.));
#366 = ADVANCED_FACE('',(#367),#394,.F.);
#367 = FACE_BOUND('',#368,.F.);
#368 = EDGE_LOOP('',(#369,#370,#371,#379,#387,#393));
#369 = ORIENTED_EDGE('',*,*,#354,.F.);
#370 = ORIENTED_EDGE('',*,*,#168,.T.);
#371 = ORIENTED_EDGE('',*,*,#372,.F.);
#372 = EDGE_CURVE('',#373,#160,#375,.T.);
#373 = VERTEX_POINT('',#374);
#374 = CARTESIAN_POINT('',(40.,-26.53299832284,8.));
#375 = LINE('',#376,#377);
#376 = CARTESIAN_POINT('',(40.,-26.53299832284,8.));
#377 = VECTOR('',#378,1.);
#378 = DIRECTION('',(0.,0.,1.));
#379 = ORIENTED_EDGE('',*,*,#380,.T.);
#380 = EDGE_CURVE('',#373,#381,#383,.T.);
#381 = VERTEX_POINT('',#382);
#382 = CARTESIAN_POINT('',(40.,-22.7156333832,8.));
#383 = LINE('',#384,#385);
#384 = CARTESIAN_POINT('',(40.,-14.5,8.));
#385 = VECTOR('',#386,1.);
#386 = DIRECTION('',(-0.,1.,0.));
#387 = ORIENTED_EDGE('',*,*,#388,.F.);
#388 = EDGE_CURVE('',#251,#381,#389,.T.);
#389 = LINE('',#390,#391);
#390 = CARTESIAN_POINT('',(40.,-22.7156333832,11.));
#391 = VECTOR('',#392,1.);
#392 = DIRECTION('',(0.,0.,-1.));
#393 = ORIENTED_EDGE('',*,*,#259,.F.);
#394 = PLANE('',#395);
#395 = AXIS2_PLACEMENT_3D('',#396,#397,#398);
#396 = CARTESIAN_POINT('',(40.,-29.,0.));
#397 = DIRECTION('',(1.,0.,-0.));
#398 = DIRECTION('',(0.,0.,1.));
#399 = ADVANCED_FACE('',(#400),#419,.T.);
#400 = FACE_BOUND('',#401,.T.);
#401 = EDGE_LOOP('',(#402,#403,#412,#418));
#402 = ORIENTED_EDGE('',*,*,#372,.F.);
#403 = ORIENTED_EDGE('',*,*,#404,.T.);
#404 = EDGE_CURVE('',#373,#405,#407,.T.);
#405 = VERTEX_POINT('',#406);
#406 = CARTESIAN_POINT('',(42.876182020572,-21.57853135268,8.));
#407 = CIRCLE('',#408,48.);
#408 = AXIS2_PLACEMENT_3D('',#409,#410,#411);
#409 = CARTESIAN_POINT('',(0.,0.,8.));
#410 = DIRECTION('',(0.,0.,1.));
#411 = DIRECTION('',(0.833333333333,-0.552770798393,0.));
#412 = ORIENTED_EDGE('',*,*,#413,.T.);
#413 = EDGE_CURVE('',#405,#151,#414,.T.);
#414 = LINE('',#415,#416);
#415 = CARTESIAN_POINT('',(42.876182020572,-21.57853135268,8.));
#416 = VECTOR('',#417,1.);
#417 = DIRECTION('',(0.,0.,1.));
#418 = ORIENTED_EDGE('',*,*,#159,.F.);
#419 = CYLINDRICAL_SURFACE('',#420,48.);
#420 = AXIS2_PLACEMENT_3D('',#421,#422,#423);
#421 = CARTESIAN_POINT('',(0.,0.,8.));
#422 = DIRECTION('',(0.,0.,1.));
#423 = DIRECTION('',(1.,0.,-0.));
#424 = ADVANCED_FACE('',(#425),#444,.T.);
#425 = FACE_BOUND('',#426,.T.);
#426 = EDGE_LOOP('',(#427,#436,#442,#443));
#427 = ORIENTED_EDGE('',*,*,#428,.T.);
#428 = EDGE_CURVE('',#405,#429,#431,.T.);
#429 = VERTEX_POINT('',#430);
#430 = CARTESIAN_POINT('',(45.023857725056,-16.63887723237,8.));
#431 = CIRCLE('',#432,3.5);
#432 = AXIS2_PLACEMENT_3D('',#433,#434,#435);
#433 = CARTESIAN_POINT('',(46.,-20.,8.));
#434 = DIRECTION('',(0.,0.,1.));
#435 = DIRECTION('',(-0.892519422694,-0.45100895791,0.));
#436 = ORIENTED_EDGE('',*,*,#437,.T.);
#437 = EDGE_CURVE('',#429,#142,#438,.T.);
#438 = LINE('',#439,#440);
#439 = CARTESIAN_POINT('',(45.023857725056,-16.63887723237,8.));
#440 = VECTOR('',#441,1.);
#441 = DIRECTION('',(0.,0.,1.));
#442 = ORIENTED_EDGE('',*,*,#150,.F.);
#443 = ORIENTED_EDGE('',*,*,#413,.F.);
#444 = CYLINDRICAL_SURFACE('',#445,3.5);
#445 = AXIS2_PLACEMENT_3D('',#446,#447,#448);
#446 = CARTESIAN_POINT('',(46.,-20.,8.));
#447 = DIRECTION('',(0.,0.,1.));
#448 = DIRECTION('',(1.,0.,-0.));
#449 = ADVANCED_FACE('',(#450),#469,.T.);
#450 = FACE_BOUND('',#451,.T.);
#451 = EDGE_LOOP('',(#452,#453,#462,#468));
#452 = ORIENTED_EDGE('',*,*,#437,.F.);
#453 = ORIENTED_EDGE('',*,*,#454,.T.);
#454 = EDGE_CURVE('',#429,#455,#457,.T.);
#455 = VERTEX_POINT('',#456);
#456 = CARTESIAN_POINT('',(45.254833995939,-16.,8.));
#457 = CIRCLE('',#458,48.);
#458 = AXIS2_PLACEMENT_3D('',#459,#460,#461);
#459 = CARTESIAN_POINT('',(0.,0.,8.));
#460 = DIRECTION('',(0.,0.,1.));
#461 = DIRECTION('',(0.833333333333,-0.552770798393,0.));
#462 = ORIENTED_EDGE('',*,*,#463,.T.);
#463 = EDGE_CURVE('',#455,#134,#464,.T.);
#464 = LINE('',#465,#466);
#465 = CARTESIAN_POINT('',(45.254833995939,-16.,8.));
#466 = VECTOR('',#467,1.);
#467 = DIRECTION('',(0.,0.,1.));
#468 = ORIENTED_EDGE('',*,*,#141,.F.);
#469 = CYLINDRICAL_SURFACE('',#470,48.);
#470 = AXIS2_PLACEMENT_3D('',#471,#472,#473);
#471 = CARTESIAN_POINT('',(0.,0.,8.));
#472 = DIRECTION('',(0.,0.,1.));
#473 = DIRECTION('',(1.,0.,-0.));
#474 = ADVANCED_FACE('',(#475),#509,.T.);
#475 = FACE_BOUND('',#476,.T.);
#476 = EDGE_LOOP('',(#477,#485,#486,#487,#495,#503));
#477 = ORIENTED_EDGE('',*,*,#478,.F.);
#478 = EDGE_CURVE('',#126,#479,#481,.T.);
#479 = VERTEX_POINT('',#480);
#480 = CARTESIAN_POINT('',(46.,-16.,9.51));
#481 = LINE('',#482,#483);
#482 = CARTESIAN_POINT('',(46.,-16.,0.));
#483 = VECTOR('',#484,1.);
#484 = DIRECTION('',(0.,0.,1.));
#485 = ORIENTED_EDGE('',*,*,#133,.T.);
#486 = ORIENTED_EDGE('',*,*,#463,.F.);
#487 = ORIENTED_EDGE('',*,*,#488,.T.);
#488 = EDGE_CURVE('',#455,#489,#491,.T.);
#489 = VERTEX_POINT('',#490);
#490 = CARTESIAN_POINT('',(43.127717305696,-16.,8.));
#491 = LINE('',#492,#493);
#492 = CARTESIAN_POINT('',(0.,-16.,8.));
#493 = VECTOR('',#494,1.);
#494 = DIRECTION('',(-1.,-0.,0.));
#495 = ORIENTED_EDGE('',*,*,#496,.T.);
#496 = EDGE_CURVE('',#489,#497,#499,.T.);
#497 = VERTEX_POINT('',#498);
#498 = CARTESIAN_POINT('',(43.127717305696,-16.,9.51));
#499 = LINE('',#500,#501);
#500 = CARTESIAN_POINT('',(43.127717305696,-16.,9.49));
#501 = VECTOR('',#502,1.);
#502 = DIRECTION('',(0.,0.,1.));
#503 = ORIENTED_EDGE('',*,*,#504,.T.);
#504 = EDGE_CURVE('',#497,#479,#505,.T.);
#505 = LINE('',#506,#507);
#506 = CARTESIAN_POINT('',(0.,-16.,9.51));
#507 = VECTOR('',#508,1.);
#508 = DIRECTION('',(1.,0.,-0.));
#509 = PLANE('',#510);
#510 = AXIS2_PLACEMENT_3D('',#511,#512,#513);
#511 = CARTESIAN_POINT('',(0.,-16.,0.));
#512 = DIRECTION('',(-0.,1.,0.));
#513 = DIRECTION('',(0.,0.,1.));
#514 = ADVANCED_FACE('',(#515),#549,.F.);
#515 = FACE_BOUND('',#516,.F.);
#516 = EDGE_LOOP('',(#517,#518,#519,#527,#535,#543));
#517 = ORIENTED_EDGE('',*,*,#478,.F.);
#518 = ORIENTED_EDGE('',*,*,#125,.T.);
#519 = ORIENTED_EDGE('',*,*,#520,.F.);
#520 = EDGE_CURVE('',#521,#117,#523,.T.);
#521 = VERTEX_POINT('',#522);
#522 = CARTESIAN_POINT('',(46.,-13.7113092008,8.));
#523 = LINE('',#524,#525);
#524 = CARTESIAN_POINT('',(46.,-13.7113092008,8.));
#525 = VECTOR('',#526,1.);
#526 = DIRECTION('',(0.,0.,1.));
#527 = ORIENTED_EDGE('',*,*,#528,.T.);
#528 = EDGE_CURVE('',#521,#529,#531,.T.);
#529 = VERTEX_POINT('',#530);
#530 = CARTESIAN_POINT('',(46.,-2.,8.));
#531 = LINE('',#532,#533);
#532 = CARTESIAN_POINT('',(46.,-8.,8.));
#533 = VECTOR('',#534,1.);
#534 = DIRECTION('',(-0.,1.,0.));
#535 = ORIENTED_EDGE('',*,*,#536,.T.);
#536 = EDGE_CURVE('',#529,#537,#539,.T.);
#537 = VERTEX_POINT('',#538);
#538 = CARTESIAN_POINT('',(46.,-2.,9.51));
#539 = LINE('',#540,#541);
#540 = CARTESIAN_POINT('',(46.,-2.,0.));
#541 = VECTOR('',#542,1.);
#542 = DIRECTION('',(0.,0.,1.));
#543 = ORIENTED_EDGE('',*,*,#544,.F.);
#544 = EDGE_CURVE('',#479,#537,#545,.T.);
#545 = LINE('',#546,#547);
#546 = CARTESIAN_POINT('',(46.,-16.,9.51));
#547 = VECTOR('',#548,1.);
#548 = DIRECTION('',(-0.,1.,0.));
#549 = PLANE('',#550);
#550 = AXIS2_PLACEMENT_3D('',#551,#552,#553);
#551 = CARTESIAN_POINT('',(46.,-16.,0.));
#552 = DIRECTION('',(1.,0.,-0.));
#553 = DIRECTION('',(0.,0.,1.));
#554 = ADVANCED_FACE('',(#555),#574,.T.);
#555 = FACE_BOUND('',#556,.T.);
#556 = EDGE_LOOP('',(#557,#558,#567,#573));
#557 = ORIENTED_EDGE('',*,*,#520,.F.);
#558 = ORIENTED_EDGE('',*,*,#559,.T.);
#559 = EDGE_CURVE('',#521,#560,#562,.T.);
#560 = VERTEX_POINT('',#561);
#561 = CARTESIAN_POINT('',(46.062295103157,13.500554426752,8.));
#562 = CIRCLE('',#563,48.);
#563 = AXIS2_PLACEMENT_3D('',#564,#565,#566);
#564 = CARTESIAN_POINT('',(0.,0.,8.));
#565 = DIRECTION('',(0.,0.,1.));
#566 = DIRECTION('',(0.833333333333,-0.552770798393,0.));
#567 = ORIENTED_EDGE('',*,*,#568,.T.);
#568 = EDGE_CURVE('',#560,#108,#569,.T.);
#569 = LINE('',#570,#571);
#570 = CARTESIAN_POINT('',(46.062295103157,13.500554426752,8.));
#571 = VECTOR('',#572,1.);
#572 = DIRECTION('',(0.,0.,1.));
#573 = ORIENTED_EDGE('',*,*,#116,.F.);
#574 = CYLINDRICAL_SURFACE('',#575,48.);
#575 = AXIS2_PLACEMENT_3D('',#576,#577,#578);
#576 = CARTESIAN_POINT('',(0.,0.,8.));
#577 = DIRECTION('',(0.,0.,1.));
#578 = DIRECTION('',(1.,0.,-0.));
#579 = ADVANCED_FACE('',(#580),#599,.T.);
#580 = FACE_BOUND('',#581,.T.);
#581 = EDGE_LOOP('',(#582,#583,#592,#598));
#582 = ORIENTED_EDGE('',*,*,#568,.F.);
#583 = ORIENTED_EDGE('',*,*,#584,.T.);
#584 = EDGE_CURVE('',#560,#585,#587,.T.);
#585 = VERTEX_POINT('',#586);
#586 = CARTESIAN_POINT('',(43.771592630731,19.698925822728,8.));
#587 = CIRCLE('',#588,3.5);
#588 = AXIS2_PLACEMENT_3D('',#589,#590,#591);
#589 = CARTESIAN_POINT('',(46.,17.,8.));
#590 = DIRECTION('',(-0.,0.,1.));
#591 = DIRECTION('',(1.779860090192E-02,-0.999841592356,0.));
#592 = ORIENTED_EDGE('',*,*,#593,.T.);
#593 = EDGE_CURVE('',#585,#99,#594,.T.);
#594 = LINE('',#595,#596);
#595 = CARTESIAN_POINT('',(43.771592630731,19.698925822728,8.));
#596 = VECTOR('',#597,1.);
#597 = DIRECTION('',(0.,0.,1.));
#598 = ORIENTED_EDGE('',*,*,#107,.F.);
#599 = CYLINDRICAL_SURFACE('',#600,3.5);
#600 = AXIS2_PLACEMENT_3D('',#601,#602,#603);
#601 = CARTESIAN_POINT('',(46.,17.,8.));
#602 = DIRECTION('',(0.,0.,1.));
#603 = DIRECTION('',(1.,0.,-0.));
#604 = ADVANCED_FACE('',(#605),#617,.T.);
#605 = FACE_BOUND('',#606,.T.);
#606 = EDGE_LOOP('',(#607,#608,#615,#616));
#607 = ORIENTED_EDGE('',*,*,#593,.F.);
#608 = ORIENTED_EDGE('',*,*,#609,.T.);
#609 = EDGE_CURVE('',#585,#185,#610,.T.);
#610 = CIRCLE('',#611,48.);
#611 = AXIS2_PLACEMENT_3D('',#612,#613,#614);
#612 = CARTESIAN_POINT('',(0.,0.,8.));
#613 = DIRECTION('',(0.,0.,1.));
#614 = DIRECTION('',(0.833333333333,-0.552770798393,0.));
#615 = ORIENTED_EDGE('',*,*,#184,.T.);
#616 = ORIENTED_EDGE('',*,*,#98,.F.);
#617 = CYLINDRICAL_SURFACE('',#618,48.);
#618 = AXIS2_PLACEMENT_3D('',#619,#620,#621);
#619 = CARTESIAN_POINT('',(0.,0.,8.));
#620 = DIRECTION('',(0.,0.,1.));
#621 = DIRECTION('',(1.,0.,-0.));
#622 = ADVANCED_FACE('',(#623,#663),#674,.F.);
#623 = FACE_BOUND('',#624,.F.);
#624 = EDGE_LOOP('',(#625,#634,#643,#652,#658,#659,#660,#661,#662));
#625 = ORIENTED_EDGE('',*,*,#626,.F.);
#626 = EDGE_CURVE('',#627,#193,#629,.T.);
#627 = VERTEX_POINT('',#628);
#628 = CARTESIAN_POINT('',(42.537273528034,17.509436335909,8.));
#629 = CIRCLE('',#630,46.);
#630 = AXIS2_PLACEMENT_3D('',#631,#632,#633);
#631 = CARTESIAN_POINT('',(0.,0.,8.));
#632 = DIRECTION('',(0.,0.,1.));
#633 = DIRECTION('',(0.869565217391,-0.493818117026,0.));
#634 = ORIENTED_EDGE('',*,*,#635,.T.);
#635 = EDGE_CURVE('',#627,#636,#638,.T.);
#636 = VERTEX_POINT('',#637);
#637 = CARTESIAN_POINT('',(43.700772210012,14.361145784674,8.));
#638 = CIRCLE('',#639,3.5);
#639 = AXIS2_PLACEMENT_3D('',#640,#641,#642);
#640 = CARTESIAN_POINT('',(46.,17.,8.));
#641 = DIRECTION('',(0.,0.,1.));
#642 = DIRECTION('',(1.,0.,-0.));
#643 = ORIENTED_EDGE('',*,*,#644,.F.);
#644 = EDGE_CURVE('',#645,#636,#647,.T.);
#645 = VERTEX_POINT('',#646);
#646 = CARTESIAN_POINT('',(45.956501172304,-2.,8.));
#647 = CIRCLE('',#648,46.);
#648 = AXIS2_PLACEMENT_3D('',#649,#650,#651);
#649 = CARTESIAN_POINT('',(0.,0.,8.));
#650 = DIRECTION('',(0.,0.,1.));
#651 = DIRECTION('',(0.869565217391,-0.493818117026,0.));
#652 = ORIENTED_EDGE('',*,*,#653,.F.);
#653 = EDGE_CURVE('',#529,#645,#654,.T.);
#654 = LINE('',#655,#656);
#655 = CARTESIAN_POINT('',(0.,-2.,8.));
#656 = VECTOR('',#657,1.);
#657 = DIRECTION('',(-1.,-0.,0.));
#658 = ORIENTED_EDGE('',*,*,#528,.F.);
#659 = ORIENTED_EDGE('',*,*,#559,.T.);
#660 = ORIENTED_EDGE('',*,*,#584,.T.);
#661 = ORIENTED_EDGE('',*,*,#609,.T.);
#662 = ORIENTED_EDGE('',*,*,#192,.T.);
#663 = FACE_BOUND('',#664,.F.);
#664 = EDGE_LOOP('',(#665));
#665 = ORIENTED_EDGE('',*,*,#666,.F.);
#666 = EDGE_CURVE('',#667,#667,#669,.T.);
#667 = VERTEX_POINT('',#668);
#668 = CARTESIAN_POINT('',(47.4,17.,8.));
#669 = CIRCLE('',#670,1.4);
#670 = AXIS2_PLACEMENT_3D('',#671,#672,#673);
#671 = CARTESIAN_POINT('',(46.,17.,8.));
#672 = DIRECTION('',(0.,0.,1.));
#673 = DIRECTION('',(1.,0.,-0.));
#674 = PLANE('',#675);
#675 = AXIS2_PLACEMENT_3D('',#676,#677,#678);
#676 = CARTESIAN_POINT('',(0.,0.,8.));
#677 = DIRECTION('',(0.,0.,1.));
#678 = DIRECTION('',(1.,0.,-0.));
#679 = ADVANCED_FACE('',(#680),#691,.F.);
#680 = FACE_BOUND('',#681,.F.);
#681 = EDGE_LOOP('',(#682,#683,#689,#690));
#682 = ORIENTED_EDGE('',*,*,#232,.T.);
#683 = ORIENTED_EDGE('',*,*,#684,.F.);
#684 = EDGE_CURVE('',#627,#233,#685,.T.);
#685 = LINE('',#686,#687);
#686 = CARTESIAN_POINT('',(42.537273528034,17.509436335909,9.49));
#687 = VECTOR('',#688,1.);
#688 = DIRECTION('',(0.,0.,1.));
#689 = ORIENTED_EDGE('',*,*,#626,.T.);
#690 = ORIENTED_EDGE('',*,*,#200,.T.);
#691 = CYLINDRICAL_SURFACE('',#692,46.);
#692 = AXIS2_PLACEMENT_3D('',#693,#694,#695);
#693 = CARTESIAN_POINT('',(0.,0.,9.49));
#694 = DIRECTION('',(0.,0.,1.));
#695 = DIRECTION('',(1.,0.,-0.));
#696 = ADVANCED_FACE('',(#697),#731,.F.);
#697 = FACE_BOUND('',#698,.F.);
#698 = EDGE_LOOP('',(#699,#705,#706,#707,#714,#715,#724,#730));
#699 = ORIENTED_EDGE('',*,*,#700,.T.);
#700 = EDGE_CURVE('',#636,#242,#701,.T.);
#701 = LINE('',#702,#703);
#702 = CARTESIAN_POINT('',(43.700772210012,14.361145784673,9.49));
#703 = VECTOR('',#704,1.);
#704 = DIRECTION('',(0.,0.,1.));
#705 = ORIENTED_EDGE('',*,*,#250,.T.);
#706 = ORIENTED_EDGE('',*,*,#388,.T.);
#707 = ORIENTED_EDGE('',*,*,#708,.T.);
#708 = EDGE_CURVE('',#381,#489,#709,.T.);
#709 = CIRCLE('',#710,46.);
#710 = AXIS2_PLACEMENT_3D('',#711,#712,#713);
#711 = CARTESIAN_POINT('',(0.,0.,8.));
#712 = DIRECTION('',(0.,0.,1.));
#713 = DIRECTION('',(0.869565217391,-0.493818117026,0.));
#714 = ORIENTED_EDGE('',*,*,#496,.T.);
#715 = ORIENTED_EDGE('',*,*,#716,.T.);
#716 = EDGE_CURVE('',#497,#717,#719,.T.);
#717 = VERTEX_POINT('',#718);
#718 = CARTESIAN_POINT('',(45.956501172304,-2.,9.51));
#719 = CIRCLE('',#720,46.);
#720 = AXIS2_PLACEMENT_3D('',#721,#722,#723);
#721 = CARTESIAN_POINT('',(0.,0.,9.51));
#722 = DIRECTION('',(0.,0.,1.));
#723 = DIRECTION('',(1.,0.,-0.));
#724 = ORIENTED_EDGE('',*,*,#725,.F.);
#725 = EDGE_CURVE('',#645,#717,#726,.T.);
#726 = LINE('',#727,#728);
#727 = CARTESIAN_POINT('',(45.956501172304,-2.,9.49));
#728 = VECTOR('',#729,1.);
#729 = DIRECTION('',(0.,0.,1.));
#730 = ORIENTED_EDGE('',*,*,#644,.T.);
#731 = CYLINDRICAL_SURFACE('',#732,46.);
#732 = AXIS2_PLACEMENT_3D('',#733,#734,#735);
#733 = CARTESIAN_POINT('',(0.,0.,9.49));
#734 = DIRECTION('',(0.,0.,1.));
#735 = DIRECTION('',(1.,0.,-0.));
#736 = ADVANCED_FACE('',(#737),#743,.T.);
#737 = FACE_BOUND('',#738,.T.);
#738 = EDGE_LOOP('',(#739,#740,#741,#742));
#739 = ORIENTED_EDGE('',*,*,#241,.F.);
#740 = ORIENTED_EDGE('',*,*,#684,.F.);
#741 = ORIENTED_EDGE('',*,*,#635,.T.);
#742 = ORIENTED_EDGE('',*,*,#700,.T.);
#743 = CYLINDRICAL_SURFACE('',#744,3.5);
#744 = AXIS2_PLACEMENT_3D('',#745,#746,#747);
#745 = CARTESIAN_POINT('',(46.,17.,8.));
#746 = DIRECTION('',(0.,0.,1.));
#747 = DIRECTION('',(1.,0.,-0.));
#748 = ADVANCED_FACE('',(#749),#796,.T.);
#749 = FACE_BOUND('',#750,.T.);
#750 = EDGE_LOOP('',(#751,#759,#760,#770,#779,#787,#788,#789));
#751 = ORIENTED_EDGE('',*,*,#752,.F.);
#752 = EDGE_CURVE('',#270,#753,#755,.T.);
#753 = VERTEX_POINT('',#754);
#754 = CARTESIAN_POINT('',(51.5,-24.,13.));
#755 = LINE('',#756,#757);
#756 = CARTESIAN_POINT('',(51.5,-24.,10.99));
#757 = VECTOR('',#758,1.);
#758 = DIRECTION('',(0.,0.,1.));
#759 = ORIENTED_EDGE('',*,*,#267,.F.);
#760 = ORIENTED_EDGE('',*,*,#761,.F.);
#761 = EDGE_CURVE('',#762,#268,#764,.T.);
#762 = VERTEX_POINT('',#763);
#763 = CARTESIAN_POINT('',(48.507983005735,-21.00001062141,11.01));
#764 = B_SPLINE_CURVE_WITH_KNOTS('',4,(#765,#766,#767,#768,#769),
  .UNSPECIFIED.,.F.,.F.,(5,5),(0.,1.),.PIECEWISE_BEZIER_KNOTS.);
#765 = CARTESIAN_POINT('',(48.507983005735,-21.00001062141,11.01));
#766 = CARTESIAN_POINT('',(48.504517788415,-21.00000140043,
    11.007496602136));
#767 = CARTESIAN_POINT('',(48.501052556893,-20.99999751623,
    11.004995353258));
#768 = CARTESIAN_POINT('',(48.497587323499,-20.99999896886,
    11.002496277661));
#769 = CARTESIAN_POINT('',(48.494122100562,-21.00000575828,10.9999994));
#770 = ORIENTED_EDGE('',*,*,#771,.T.);
#771 = EDGE_CURVE('',#762,#772,#774,.T.);
#772 = VERTEX_POINT('',#773);
#773 = CARTESIAN_POINT('',(45.799882162804,-22.69257364824,11.01));
#774 = CIRCLE('',#775,3.);
#775 = AXIS2_PLACEMENT_3D('',#776,#777,#778);
#776 = CARTESIAN_POINT('',(48.5,-24.,11.01));
#777 = DIRECTION('',(0.,0.,1.));
#778 = DIRECTION('',(1.,0.,-0.));
#779 = ORIENTED_EDGE('',*,*,#780,.F.);
#780 = EDGE_CURVE('',#279,#772,#781,.T.);
#781 = B_SPLINE_CURVE_WITH_KNOTS('',4,(#782,#783,#784,#785,#786),
  .UNSPECIFIED.,.F.,.F.,(5,5),(0.,1.),.PIECEWISE_BEZIER_KNOTS.);
#782 = CARTESIAN_POINT('',(45.80595167125,-22.6801122766,10.9999994));
#783 = CARTESIAN_POINT('',(45.804427099919,-22.6832241086,
    11.002496277661));
#784 = CARTESIAN_POINT('',(45.802907321126,-22.68633828859,
    11.004995353258));
#785 = CARTESIAN_POINT('',(45.801392340297,-22.6894548055,
    11.007496602136));
#786 = CARTESIAN_POINT('',(45.799882162804,-22.69257364824,11.01));
#787 = ORIENTED_EDGE('',*,*,#278,.F.);
#788 = ORIENTED_EDGE('',*,*,#752,.T.);
#789 = ORIENTED_EDGE('',*,*,#790,.F.);
#790 = EDGE_CURVE('',#753,#753,#791,.T.);
#791 = CIRCLE('',#792,3.);
#792 = AXIS2_PLACEMENT_3D('',#793,#794,#795);
#793 = CARTESIAN_POINT('',(48.5,-24.,13.));
#794 = DIRECTION('',(0.,0.,1.));
#795 = DIRECTION('',(1.,0.,-0.));
#796 = CYLINDRICAL_SURFACE('',#797,3.);
#797 = AXIS2_PLACEMENT_3D('',#798,#799,#800);
#798 = CARTESIAN_POINT('',(48.5,-24.,10.99));
#799 = DIRECTION('',(0.,0.,1.));
#800 = DIRECTION('',(1.,0.,-0.));
#801 = ADVANCED_FACE('',(#802),#831,.F.);
#802 = FACE_BOUND('',#803,.F.);
#803 = EDGE_LOOP('',(#804,#811,#812,#813,#821,#828,#829,#830));
#804 = ORIENTED_EDGE('',*,*,#805,.F.);
#805 = EDGE_CURVE('',#772,#762,#806,.T.);
#806 = CIRCLE('',#807,2.7);
#807 = AXIS2_PLACEMENT_3D('',#808,#809,#810);
#808 = CARTESIAN_POINT('',(46.,-20.,11.01));
#809 = DIRECTION('',(0.,0.,1.));
#810 = DIRECTION('',(1.,0.,-0.));
#811 = ORIENTED_EDGE('',*,*,#780,.F.);
#812 = ORIENTED_EDGE('',*,*,#287,.F.);
#813 = ORIENTED_EDGE('',*,*,#814,.F.);
#814 = EDGE_CURVE('',#815,#288,#817,.T.);
#815 = VERTEX_POINT('',#816);
#816 = CARTESIAN_POINT('',(47.4,-20.,10.));
#817 = LINE('',#818,#819);
#818 = CARTESIAN_POINT('',(47.4,-20.,10.));
#819 = VECTOR('',#820,1.);
#820 = DIRECTION('',(0.789679191408,-1.934156188221E-16,0.613519987171)
  );
#821 = ORIENTED_EDGE('',*,*,#822,.T.);
#822 = EDGE_CURVE('',#815,#815,#823,.T.);
#823 = CIRCLE('',#824,1.4);
#824 = AXIS2_PLACEMENT_3D('',#825,#826,#827);
#825 = CARTESIAN_POINT('',(46.,-20.,10.));
#826 = DIRECTION('',(0.,0.,1.));
#827 = DIRECTION('',(1.,0.,-0.));
#828 = ORIENTED_EDGE('',*,*,#814,.T.);
#829 = ORIENTED_EDGE('',*,*,#296,.F.);
#830 = ORIENTED_EDGE('',*,*,#761,.F.);
#831 = CONICAL_SURFACE('',#832,1.4,0.910285922944);
#832 = AXIS2_PLACEMENT_3D('',#833,#834,#835);
#833 = CARTESIAN_POINT('',(46.,-20.,10.));
#834 = DIRECTION('',(0.,0.,1.));
#835 = DIRECTION('',(1.,0.,-0.));
#836 = ADVANCED_FACE('',(#837),#856,.T.);
#837 = FACE_BOUND('',#838,.T.);
#838 = EDGE_LOOP('',(#839,#847,#854,#855));
#839 = ORIENTED_EDGE('',*,*,#840,.T.);
#840 = EDGE_CURVE('',#306,#841,#843,.T.);
#841 = VERTEX_POINT('',#842);
#842 = CARTESIAN_POINT('',(73.,-24.,13.));
#843 = LINE('',#844,#845);
#844 = CARTESIAN_POINT('',(73.,-24.,10.99));
#845 = VECTOR('',#846,1.);
#846 = DIRECTION('',(0.,0.,1.));
#847 = ORIENTED_EDGE('',*,*,#848,.F.);
#848 = EDGE_CURVE('',#841,#841,#849,.T.);
#849 = CIRCLE('',#850,3.);
#850 = AXIS2_PLACEMENT_3D('',#851,#852,#853);
#851 = CARTESIAN_POINT('',(70.,-24.,13.));
#852 = DIRECTION('',(0.,0.,1.));
#853 = DIRECTION('',(1.,0.,-0.));
#854 = ORIENTED_EDGE('',*,*,#840,.F.);
#855 = ORIENTED_EDGE('',*,*,#305,.T.);
#856 = CYLINDRICAL_SURFACE('',#857,3.);
#857 = AXIS2_PLACEMENT_3D('',#858,#859,#860);
#858 = CARTESIAN_POINT('',(70.,-24.,10.99));
#859 = DIRECTION('',(0.,0.,1.));
#860 = DIRECTION('',(1.,0.,-0.));
#861 = ADVANCED_FACE('',(#862),#985,.F.);
#862 = FACE_BOUND('',#863,.F.);
#863 = EDGE_LOOP('',(#864,#875,#900,#909,#917,#924,#925,#934,#959,#968,
    #976,#977));
#864 = ORIENTED_EDGE('',*,*,#865,.F.);
#865 = EDGE_CURVE('',#866,#868,#870,.T.);
#866 = VERTEX_POINT('',#867);
#867 = CARTESIAN_POINT('',(48.633759624056,17.594399060139,11.01));
#868 = VERTEX_POINT('',#869);
#869 = CARTESIAN_POINT('',(47.882286509775,18.935716274437,11.01));
#870 = CIRCLE('',#871,2.7);
#871 = AXIS2_PLACEMENT_3D('',#872,#873,#874);
#872 = CARTESIAN_POINT('',(46.,17.,11.01));
#873 = DIRECTION('',(0.,0.,1.));
#874 = DIRECTION('',(1.,0.,-0.));
#875 = ORIENTED_EDGE('',*,*,#876,.T.);
#876 = EDGE_CURVE('',#866,#877,#879,.T.);
#877 = VERTEX_POINT('',#878);
#878 = CARTESIAN_POINT('',(48.6203199665,17.595469556482,11.));
#879 = B_SPLINE_CURVE_WITH_KNOTS('',7,(#880,#881,#882,#883,#884,#885,
    #886,#887,#888,#889,#890,#891,#892,#893,#894,#895,#896,#897,#898,
    #899),.UNSPECIFIED.,.F.,.F.,(8,6,6,8),(0.,0.252029050541,
    0.634825764687,1.),.UNSPECIFIED.);
#880 = CARTESIAN_POINT('',(48.633759624056,17.594399060139,11.01));
#881 = CARTESIAN_POINT('',(48.584764364777,17.59850944105,
    10.973571363419));
#882 = CARTESIAN_POINT('',(48.535904950893,17.600839562989,
    10.937014656694));
#883 = CARTESIAN_POINT('',(48.487227464521,17.601422217232,
    10.900344266071));
#884 = CARTESIAN_POINT('',(48.438774629824,17.600287536217,
    10.86357459861));
#885 = CARTESIAN_POINT('',(48.39058570523,17.597462509035,
    10.826720222446));
#886 = CARTESIAN_POINT('',(48.342696375647,17.592970496917,
    10.789796007042));
#887 = CARTESIAN_POINT('',(48.222905133872,17.57750533394,
    10.696651747955));
#888 = CARTESIAN_POINT('',(48.151446109667,17.564379639601,
    10.640367981298));
#889 = CARTESIAN_POINT('',(48.08086262329,17.547522033949,
    10.584010997583));
#890 = CARTESIAN_POINT('',(48.011251327161,17.526972230828,
    10.527641998663));
#891 = CARTESIAN_POINT('',(47.942702962385,17.502748990917,
    10.471338327714));
#892 = CARTESIAN_POINT('',(47.875293577661,17.474833202297,
    10.415200342502));
#893 = CARTESIAN_POINT('',(47.745892128713,17.412879139534,
    10.306100468572));
#894 = CARTESIAN_POINT('',(47.683866261805,17.37921685206,
    10.253172576034));
#895 = CARTESIAN_POINT('',(47.622944702067,17.342025636389,
    10.200633391757));
#896 = CARTESIAN_POINT('',(47.563164408148,17.301155828242,
    10.148647041484));
#897 = CARTESIAN_POINT('',(47.504611225187,17.256387237313,
    10.097525491511));
#898 = CARTESIAN_POINT('',(47.447390651933,17.207482943909,
    10.04772177076));
#899 = CARTESIAN_POINT('',(47.391524968813,17.153812422031,10.));
#900 = ORIENTED_EDGE('',*,*,#901,.F.);
#901 = EDGE_CURVE('',#902,#877,#904,.T.);
#902 = VERTEX_POINT('',#903);
#903 = CARTESIAN_POINT('',(48.687128712871,17.,11.));
#904 = CIRCLE('',#905,2.687128712871);
#905 = AXIS2_PLACEMENT_3D('',#906,#907,#908);
#906 = CARTESIAN_POINT('',(46.,17.,11.));
#907 = DIRECTION('',(0.,0.,1.));
#908 = DIRECTION('',(1.,0.,-0.));
#909 = ORIENTED_EDGE('',*,*,#910,.F.);
#910 = EDGE_CURVE('',#911,#902,#913,.T.);
#911 = VERTEX_POINT('',#912);
#912 = CARTESIAN_POINT('',(47.4,17.,10.));
#913 = LINE('',#914,#915);
#914 = CARTESIAN_POINT('',(47.4,17.,10.));
#915 = VECTOR('',#916,1.);
#916 = DIRECTION('',(0.789679191408,-1.934156188221E-16,0.613519987171)
  );
#917 = ORIENTED_EDGE('',*,*,#918,.T.);
#918 = EDGE_CURVE('',#911,#911,#919,.T.);
#919 = CIRCLE('',#920,1.4);
#920 = AXIS2_PLACEMENT_3D('',#921,#922,#923);
#921 = CARTESIAN_POINT('',(46.,17.,10.));
#922 = DIRECTION('',(0.,0.,1.));
#923 = DIRECTION('',(1.,0.,-0.));
#924 = ORIENTED_EDGE('',*,*,#910,.T.);
#925 = ORIENTED_EDGE('',*,*,#926,.F.);
#926 = EDGE_CURVE('',#927,#902,#929,.T.);
#927 = VERTEX_POINT('',#928);
#928 = CARTESIAN_POINT('',(47.486804419547,14.761680689099,11.));
#929 = CIRCLE('',#930,2.687128712871);
#930 = AXIS2_PLACEMENT_3D('',#931,#932,#933);
#931 = CARTESIAN_POINT('',(46.,17.,11.));
#932 = DIRECTION('',(0.,0.,1.));
#933 = DIRECTION('',(1.,0.,-0.));
#934 = ORIENTED_EDGE('',*,*,#935,.T.);
#935 = EDGE_CURVE('',#927,#936,#938,.T.);
#936 = VERTEX_POINT('',#937);
#937 = CARTESIAN_POINT('',(47.497274858703,14.753187146758,11.01));
#938 = B_SPLINE_CURVE_WITH_KNOTS('',7,(#939,#940,#941,#942,#943,#944,
    #945,#946,#947,#948,#949,#950,#951,#952,#953,#954,#955,#956,#957,
    #958),.UNSPECIFIED.,.F.,.F.,(8,6,6,8),(0.,0.365434240826,
    0.749341492359,1.),.UNSPECIFIED.);
#939 = CARTESIAN_POINT('',(46.901578479463,15.928946198658,10.));
#940 = CARTESIAN_POINT('',(46.905021235933,15.851498181424,
    10.047755745875));
#941 = CARTESIAN_POINT('',(46.912738247681,15.776570852438,
    10.097596341823));
#942 = CARTESIAN_POINT('',(46.924277563978,15.703721892628,
    10.148756122537));
#943 = CARTESIAN_POINT('',(46.939399051114,15.632852484138,
    10.200781345355));
#944 = CARTESIAN_POINT('',(46.957888306283,15.56386224673,
    10.253359568683));
#945 = CARTESIAN_POINT('',(46.979615192621,15.496668230388,
    10.306326523498));
#946 = CARTESIAN_POINT('',(47.030713878428,15.362332080399,
    10.415628822145));
#947 = CARTESIAN_POINT('',(47.060384991977,15.295447823153,
    10.471931296465));
#948 = CARTESIAN_POINT('',(47.093446516676,15.230462905859,
    10.52839967129));
#949 = CARTESIAN_POINT('',(47.129829770328,15.167416572431,
    10.58493291652));
#950 = CARTESIAN_POINT('',(47.169481656386,15.106385983835,
    10.641453186941));
#951 = CARTESIAN_POINT('',(47.212359296012,15.047467715091,
    10.697898878156));
#952 = CARTESIAN_POINT('',(47.288521016904,14.953771756423,
    10.791000581035));
#953 = CARTESIAN_POINT('',(47.319966791395,14.917716124896,
    10.827722134637));
#954 = CARTESIAN_POINT('',(47.352764127792,14.882651049344,
    10.864374285484));
#955 = CARTESIAN_POINT('',(47.386903456439,14.848617461285,
    10.900942413913));
#956 = CARTESIAN_POINT('',(47.422375117877,14.81566127101,
    10.937412190068));
#957 = CARTESIAN_POINT('',(47.459169113916,14.783832955571,
    10.973769438037));
#958 = CARTESIAN_POINT('',(47.497274858703,14.753187146758,11.01));
#959 = ORIENTED_EDGE('',*,*,#960,.F.);
#960 = EDGE_CURVE('',#961,#936,#963,.T.);
#961 = VERTEX_POINT('',#962);
#962 = CARTESIAN_POINT('',(46.028058317811,14.300145794529,11.01));
#963 = CIRCLE('',#964,2.7);
#964 = AXIS2_PLACEMENT_3D('',#965,#966,#967);
#965 = CARTESIAN_POINT('',(46.,17.,11.01));
#966 = DIRECTION('',(0.,0.,1.));
#967 = DIRECTION('',(1.,0.,-0.));
#968 = ORIENTED_EDGE('',*,*,#969,.F.);
#969 = EDGE_CURVE('',#319,#961,#970,.T.);
#970 = B_SPLINE_CURVE_WITH_KNOTS('',4,(#971,#972,#973,#974,#975),
  .UNSPECIFIED.,.F.,.F.,(5,5),(0.,1.),.PIECEWISE_BEZIER_KNOTS.);
#971 = CARTESIAN_POINT('',(46.019307884626,14.312941427004,10.9999994));
#972 = CARTESIAN_POINT('',(46.021487223369,14.309736874107,
    11.002501192862));
#973 = CARTESIAN_POINT('',(46.023672081626,14.306536074897,
    11.005001892663));
#974 = CARTESIAN_POINT('',(46.025862449697,14.303339043634,
    11.007501496129));
#975 = CARTESIAN_POINT('',(46.028058317811,14.300145794529,11.01));
#976 = ORIENTED_EDGE('',*,*,#316,.F.);
#977 = ORIENTED_EDGE('',*,*,#978,.F.);
#978 = EDGE_CURVE('',#868,#317,#979,.T.);
#979 = B_SPLINE_CURVE_WITH_KNOTS('',4,(#980,#981,#982,#983,#984),
  .UNSPECIFIED.,.F.,.F.,(5,5),(0.,1.),.PIECEWISE_BEZIER_KNOTS.);
#980 = CARTESIAN_POINT('',(47.882286509775,18.935716274437,11.01));
#981 = CARTESIAN_POINT('',(47.878494157619,18.93491831344,
    11.007501496129));
#982 = CARTESIAN_POINT('',(47.874703179869,18.934113820505,
    11.005001892663));
#983 = CARTESIAN_POINT('',(47.8709135934,18.933302799185,11.002501192862
    ));
#984 = CARTESIAN_POINT('',(47.867125415071,18.932485253117,10.9999994));
#985 = CONICAL_SURFACE('',#986,1.4,0.910285922944);
#986 = AXIS2_PLACEMENT_3D('',#987,#988,#989);
#987 = CARTESIAN_POINT('',(46.,17.,10.));
#988 = DIRECTION('',(0.,0.,1.));
#989 = DIRECTION('',(1.,0.,-0.));
#990 = ADVANCED_FACE('',(#991),#1037,.T.);
#991 = FACE_BOUND('',#992,.T.);
#992 = EDGE_LOOP('',(#993,#1003,#1012,#1020,#1027,#1028,#1029,#1030));
#993 = ORIENTED_EDGE('',*,*,#994,.T.);
#994 = EDGE_CURVE('',#995,#997,#999,.T.);
#995 = VERTEX_POINT('',#996);
#996 = CARTESIAN_POINT('',(46.555952100752,18.284880251879,11.01));
#997 = VERTEX_POINT('',#998);
#998 = CARTESIAN_POINT('',(46.555952100752,18.284880251879,13.));
#999 = LINE('',#1000,#1001);
#1000 = CARTESIAN_POINT('',(46.555952100752,18.284880251879,10.99));
#1001 = VECTOR('',#1002,1.);
#1002 = DIRECTION('',(0.,0.,1.));
#1003 = ORIENTED_EDGE('',*,*,#1004,.T.);
#1004 = EDGE_CURVE('',#997,#1005,#1007,.T.);
#1005 = VERTEX_POINT('',#1006);
#1006 = CARTESIAN_POINT('',(45.516461692352,15.686154230879,13.));
#1007 = CIRCLE('',#1008,3.);
#1008 = AXIS2_PLACEMENT_3D('',#1009,#1010,#1011);
#1009 = CARTESIAN_POINT('',(48.5,16.,13.));
#1010 = DIRECTION('',(0.,0.,-1.));
#1011 = DIRECTION('',(-0.648015966416,0.761626750626,0.));
#1012 = ORIENTED_EDGE('',*,*,#1013,.F.);
#1013 = EDGE_CURVE('',#1014,#1005,#1016,.T.);
#1014 = VERTEX_POINT('',#1015);
#1015 = CARTESIAN_POINT('',(45.516461692352,15.686154230879,11.01));
#1016 = LINE('',#1017,#1018);
#1017 = CARTESIAN_POINT('',(45.516461692352,15.686154230879,10.99));
#1018 = VECTOR('',#1019,1.);
#1019 = DIRECTION('',(0.,0.,1.));
#1020 = ORIENTED_EDGE('',*,*,#1021,.T.);
#1021 = EDGE_CURVE('',#1014,#961,#1022,.T.);
#1022 = CIRCLE('',#1023,3.);
#1023 = AXIS2_PLACEMENT_3D('',#1024,#1025,#1026);
#1024 = CARTESIAN_POINT('',(48.5,16.,11.01));
#1025 = DIRECTION('',(0.,0.,1.));
#1026 = DIRECTION('',(1.,0.,-0.));
#1027 = ORIENTED_EDGE('',*,*,#969,.F.);
#1028 = ORIENTED_EDGE('',*,*,#327,.F.);
#1029 = ORIENTED_EDGE('',*,*,#978,.F.);
#1030 = ORIENTED_EDGE('',*,*,#1031,.T.);
#1031 = EDGE_CURVE('',#868,#995,#1032,.T.);
#1032 = CIRCLE('',#1033,3.);
#1033 = AXIS2_PLACEMENT_3D('',#1034,#1035,#1036);
#1034 = CARTESIAN_POINT('',(48.5,16.,11.01));
#1035 = DIRECTION('',(0.,0.,1.));
#1036 = DIRECTION('',(1.,0.,-0.));
#1037 = CYLINDRICAL_SURFACE('',#1038,3.);
#1038 = AXIS2_PLACEMENT_3D('',#1039,#1040,#1041);
#1039 = CARTESIAN_POINT('',(48.5,16.,10.99));
#1040 = DIRECTION('',(0.,0.,1.));
#1041 = DIRECTION('',(1.,0.,-0.));
#1042 = ADVANCED_FACE('',(#1043),#1062,.T.);
#1043 = FACE_BOUND('',#1044,.T.);
#1044 = EDGE_LOOP('',(#1045,#1053,#1060,#1061));
#1045 = ORIENTED_EDGE('',*,*,#1046,.T.);
#1046 = EDGE_CURVE('',#337,#1047,#1049,.T.);
#1047 = VERTEX_POINT('',#1048);
#1048 = CARTESIAN_POINT('',(73.,16.,13.));
#1049 = LINE('',#1050,#1051);
#1050 = CARTESIAN_POINT('',(73.,16.,10.99));
#1051 = VECTOR('',#1052,1.);
#1052 = DIRECTION('',(0.,0.,1.));
#1053 = ORIENTED_EDGE('',*,*,#1054,.F.);
#1054 = EDGE_CURVE('',#1047,#1047,#1055,.T.);
#1055 = CIRCLE('',#1056,3.);
#1056 = AXIS2_PLACEMENT_3D('',#1057,#1058,#1059);
#1057 = CARTESIAN_POINT('',(70.,16.,13.));
#1058 = DIRECTION('',(0.,0.,1.));
#1059 = DIRECTION('',(1.,0.,-0.));
#1060 = ORIENTED_EDGE('',*,*,#1046,.F.);
#1061 = ORIENTED_EDGE('',*,*,#336,.T.);
#1062 = CYLINDRICAL_SURFACE('',#1063,3.);
#1063 = AXIS2_PLACEMENT_3D('',#1064,#1065,#1066);
#1064 = CARTESIAN_POINT('',(70.,16.,10.99));
#1065 = DIRECTION('',(0.,0.,1.));
#1066 = DIRECTION('',(1.,0.,-0.));
#1067 = ADVANCED_FACE('',(#1068,#1076),#1087,.F.);
#1068 = FACE_BOUND('',#1069,.F.);
#1069 = EDGE_LOOP('',(#1070,#1071,#1072,#1073,#1074,#1075));
#1070 = ORIENTED_EDGE('',*,*,#488,.T.);
#1071 = ORIENTED_EDGE('',*,*,#708,.F.);
#1072 = ORIENTED_EDGE('',*,*,#380,.F.);
#1073 = ORIENTED_EDGE('',*,*,#404,.T.);
#1074 = ORIENTED_EDGE('',*,*,#428,.T.);
#1075 = ORIENTED_EDGE('',*,*,#454,.T.);
#1076 = FACE_BOUND('',#1077,.F.);
#1077 = EDGE_LOOP('',(#1078));
#1078 = ORIENTED_EDGE('',*,*,#1079,.F.);
#1079 = EDGE_CURVE('',#1080,#1080,#1082,.T.);
#1080 = VERTEX_POINT('',#1081);
#1081 = CARTESIAN_POINT('',(47.4,-20.,8.));
#1082 = CIRCLE('',#1083,1.4);
#1083 = AXIS2_PLACEMENT_3D('',#1084,#1085,#1086);
#1084 = CARTESIAN_POINT('',(46.,-20.,8.));
#1085 = DIRECTION('',(0.,0.,1.));
#1086 = DIRECTION('',(1.,0.,-0.));
#1087 = PLANE('',#1088);
#1088 = AXIS2_PLACEMENT_3D('',#1089,#1090,#1091);
#1089 = CARTESIAN_POINT('',(0.,0.,8.));
#1090 = DIRECTION('',(0.,0.,1.));
#1091 = DIRECTION('',(1.,0.,-0.));
#1092 = ADVANCED_FACE('',(#1093),#1104,.F.);
#1093 = FACE_BOUND('',#1094,.F.);
#1094 = EDGE_LOOP('',(#1095,#1101,#1102,#1103));
#1095 = ORIENTED_EDGE('',*,*,#1096,.F.);
#1096 = EDGE_CURVE('',#717,#537,#1097,.T.);
#1097 = LINE('',#1098,#1099);
#1098 = CARTESIAN_POINT('',(0.,-2.,9.51));
#1099 = VECTOR('',#1100,1.);
#1100 = DIRECTION('',(1.,0.,-0.));
#1101 = ORIENTED_EDGE('',*,*,#716,.F.);
#1102 = ORIENTED_EDGE('',*,*,#504,.T.);
#1103 = ORIENTED_EDGE('',*,*,#544,.T.);
#1104 = PLANE('',#1105);
#1105 = AXIS2_PLACEMENT_3D('',#1106,#1107,#1108);
#1106 = CARTESIAN_POINT('',(0.,-16.,9.51));
#1107 = DIRECTION('',(0.,0.,1.));
#1108 = DIRECTION('',(1.,0.,-0.));
#1109 = ADVANCED_FACE('',(#1110),#1116,.F.);
#1110 = FACE_BOUND('',#1111,.F.);
#1111 = EDGE_LOOP('',(#1112,#1113,#1114,#1115));
#1112 = ORIENTED_EDGE('',*,*,#536,.F.);
#1113 = ORIENTED_EDGE('',*,*,#653,.T.);
#1114 = ORIENTED_EDGE('',*,*,#725,.T.);
#1115 = ORIENTED_EDGE('',*,*,#1096,.T.);
#1116 = PLANE('',#1117);
#1117 = AXIS2_PLACEMENT_3D('',#1118,#1119,#1120);
#1118 = CARTESIAN_POINT('',(0.,-2.,0.));
#1119 = DIRECTION('',(-0.,1.,0.));
#1120 = DIRECTION('',(0.,0.,1.));
#1121 = ADVANCED_FACE('',(#1122),#1133,.F.);
#1122 = FACE_BOUND('',#1123,.F.);
#1123 = EDGE_LOOP('',(#1124,#1125,#1131,#1132));
#1124 = ORIENTED_EDGE('',*,*,#918,.F.);
#1125 = ORIENTED_EDGE('',*,*,#1126,.F.);
#1126 = EDGE_CURVE('',#667,#911,#1127,.T.);
#1127 = LINE('',#1128,#1129);
#1128 = CARTESIAN_POINT('',(47.4,17.,7.));
#1129 = VECTOR('',#1130,1.);
#1130 = DIRECTION('',(0.,0.,1.));
#1131 = ORIENTED_EDGE('',*,*,#666,.T.);
#1132 = ORIENTED_EDGE('',*,*,#1126,.T.);
#1133 = CYLINDRICAL_SURFACE('',#1134,1.4);
#1134 = AXIS2_PLACEMENT_3D('',#1135,#1136,#1137);
#1135 = CARTESIAN_POINT('',(46.,17.,7.));
#1136 = DIRECTION('',(0.,0.,1.));
#1137 = DIRECTION('',(1.,0.,-0.));
#1138 = ADVANCED_FACE('',(#1139,#1142),#1153,.T.);
#1139 = FACE_BOUND('',#1140,.T.);
#1140 = EDGE_LOOP('',(#1141));
#1141 = ORIENTED_EDGE('',*,*,#790,.T.);
#1142 = FACE_BOUND('',#1143,.T.);
#1143 = EDGE_LOOP('',(#1144));
#1144 = ORIENTED_EDGE('',*,*,#1145,.F.);
#1145 = EDGE_CURVE('',#1146,#1146,#1148,.T.);
#1146 = VERTEX_POINT('',#1147);
#1147 = CARTESIAN_POINT('',(50.1,-24.,13.));
#1148 = CIRCLE('',#1149,1.6);
#1149 = AXIS2_PLACEMENT_3D('',#1150,#1151,#1152);
#1150 = CARTESIAN_POINT('',(48.5,-24.,13.));
#1151 = DIRECTION('',(0.,0.,1.));
#1152 = DIRECTION('',(1.,0.,-0.));
#1153 = PLANE('',#1154);
#1154 = AXIS2_PLACEMENT_3D('',#1155,#1156,#1157);
#1155 = CARTESIAN_POINT('',(48.5,-24.,13.));
#1156 = DIRECTION('',(0.,0.,1.));
#1157 = DIRECTION('',(1.,0.,-0.));
#1158 = ADVANCED_FACE('',(#1159),#1163,.F.);
#1159 = FACE_BOUND('',#1160,.F.);
#1160 = EDGE_LOOP('',(#1161,#1162));
#1161 = ORIENTED_EDGE('',*,*,#771,.T.);
#1162 = ORIENTED_EDGE('',*,*,#805,.T.);
#1163 = PLANE('',#1164);
#1164 = AXIS2_PLACEMENT_3D('',#1165,#1166,#1167);
#1165 = CARTESIAN_POINT('',(46.,-20.,11.01));
#1166 = DIRECTION('',(0.,0.,1.));
#1167 = DIRECTION('',(1.,0.,-0.));
#1168 = ADVANCED_FACE('',(#1169),#1180,.F.);
#1169 = FACE_BOUND('',#1170,.F.);
#1170 = EDGE_LOOP('',(#1171,#1172,#1178,#1179));
#1171 = ORIENTED_EDGE('',*,*,#822,.F.);
#1172 = ORIENTED_EDGE('',*,*,#1173,.F.);
#1173 = EDGE_CURVE('',#1080,#815,#1174,.T.);
#1174 = LINE('',#1175,#1176);
#1175 = CARTESIAN_POINT('',(47.4,-20.,7.));
#1176 = VECTOR('',#1177,1.);
#1177 = DIRECTION('',(0.,0.,1.));
#1178 = ORIENTED_EDGE('',*,*,#1079,.T.);
#1179 = ORIENTED_EDGE('',*,*,#1173,.T.);
#1180 = CYLINDRICAL_SURFACE('',#1181,1.4);
#1181 = AXIS2_PLACEMENT_3D('',#1182,#1183,#1184);
#1182 = CARTESIAN_POINT('',(46.,-20.,7.));
#1183 = DIRECTION('',(0.,0.,1.));
#1184 = DIRECTION('',(1.,0.,-0.));
#1185 = ADVANCED_FACE('',(#1186,#1189),#1200,.T.);
#1186 = FACE_BOUND('',#1187,.T.);
#1187 = EDGE_LOOP('',(#1188));
#1188 = ORIENTED_EDGE('',*,*,#848,.T.);
#1189 = FACE_BOUND('',#1190,.T.);
#1190 = EDGE_LOOP('',(#1191));
#1191 = ORIENTED_EDGE('',*,*,#1192,.F.);
#1192 = EDGE_CURVE('',#1193,#1193,#1195,.T.);
#1193 = VERTEX_POINT('',#1194);
#1194 = CARTESIAN_POINT('',(71.6,-24.,13.));
#1195 = CIRCLE('',#1196,1.6);
#1196 = AXIS2_PLACEMENT_3D('',#1197,#1198,#1199);
#1197 = CARTESIAN_POINT('',(70.,-24.,13.));
#1198 = DIRECTION('',(0.,0.,1.));
#1199 = DIRECTION('',(1.,0.,-0.));
#1200 = PLANE('',#1201);
#1201 = AXIS2_PLACEMENT_3D('',#1202,#1203,#1204);
#1202 = CARTESIAN_POINT('',(70.,-24.,13.));
#1203 = DIRECTION('',(0.,0.,1.));
#1204 = DIRECTION('',(1.,0.,-0.));
#1205 = ADVANCED_FACE('',(#1206),#1226,.F.);
#1206 = FACE_BOUND('',#1207,.F.);
#1207 = EDGE_LOOP('',(#1208,#1217,#1218,#1219));
#1208 = ORIENTED_EDGE('',*,*,#1209,.F.);
#1209 = EDGE_CURVE('',#866,#1210,#1212,.T.);
#1210 = VERTEX_POINT('',#1211);
#1211 = CARTESIAN_POINT('',(47.391524968813,17.153812422031,11.01));
#1212 = CIRCLE('',#1213,1.6);
#1213 = AXIS2_PLACEMENT_3D('',#1214,#1215,#1216);
#1214 = CARTESIAN_POINT('',(48.5,16.,11.01));
#1215 = DIRECTION('',(0.,0.,1.));
#1216 = DIRECTION('',(1.,0.,-0.));
#1217 = ORIENTED_EDGE('',*,*,#865,.T.);
#1218 = ORIENTED_EDGE('',*,*,#1031,.T.);
#1219 = ORIENTED_EDGE('',*,*,#1220,.F.);
#1220 = EDGE_CURVE('',#1210,#995,#1221,.T.);
#1221 = CIRCLE('',#1222,1.4);
#1222 = AXIS2_PLACEMENT_3D('',#1223,#1224,#1225);
#1223 = CARTESIAN_POINT('',(46.,17.,11.01));
#1224 = DIRECTION('',(0.,0.,1.));
#1225 = DIRECTION('',(1.,0.,-0.));
#1226 = PLANE('',#1227);
#1227 = AXIS2_PLACEMENT_3D('',#1228,#1229,#1230);
#1228 = CARTESIAN_POINT('',(46.,17.,11.01));
#1229 = DIRECTION('',(0.,0.,1.));
#1230 = DIRECTION('',(1.,0.,-0.));
#1231 = ADVANCED_FACE('',(#1232),#1252,.F.);
#1232 = FACE_BOUND('',#1233,.F.);
#1233 = EDGE_LOOP('',(#1234,#1235,#1244,#1251));
#1234 = ORIENTED_EDGE('',*,*,#960,.T.);
#1235 = ORIENTED_EDGE('',*,*,#1236,.F.);
#1236 = EDGE_CURVE('',#1237,#936,#1239,.T.);
#1237 = VERTEX_POINT('',#1238);
#1238 = CARTESIAN_POINT('',(46.901578479463,15.928946198658,11.01));
#1239 = CIRCLE('',#1240,1.6);
#1240 = AXIS2_PLACEMENT_3D('',#1241,#1242,#1243);
#1241 = CARTESIAN_POINT('',(48.5,16.,11.01));
#1242 = DIRECTION('',(0.,0.,1.));
#1243 = DIRECTION('',(1.,0.,-0.));
#1244 = ORIENTED_EDGE('',*,*,#1245,.F.);
#1245 = EDGE_CURVE('',#1014,#1237,#1246,.T.);
#1246 = CIRCLE('',#1247,1.4);
#1247 = AXIS2_PLACEMENT_3D('',#1248,#1249,#1250);
#1248 = CARTESIAN_POINT('',(46.,17.,11.01));
#1249 = DIRECTION('',(0.,0.,1.));
#1250 = DIRECTION('',(1.,0.,-0.));
#1251 = ORIENTED_EDGE('',*,*,#1021,.T.);
#1252 = PLANE('',#1253);
#1253 = AXIS2_PLACEMENT_3D('',#1254,#1255,#1256);
#1254 = CARTESIAN_POINT('',(46.,17.,11.01));
#1255 = DIRECTION('',(0.,0.,1.));
#1256 = DIRECTION('',(1.,0.,-0.));
#1257 = ADVANCED_FACE('',(#1258),#1328,.F.);
#1258 = FACE_BOUND('',#1259,.F.);
#1259 = EDGE_LOOP('',(#1260,#1271,#1279,#1286,#1287,#1288,#1296,#1305,
    #1311,#1312,#1313,#1322));
#1260 = ORIENTED_EDGE('',*,*,#1261,.F.);
#1261 = EDGE_CURVE('',#1262,#1264,#1266,.T.);
#1262 = VERTEX_POINT('',#1263);
#1263 = CARTESIAN_POINT('',(49.490590245206,17.256475613015,10.));
#1264 = VERTEX_POINT('',#1265);
#1265 = CARTESIAN_POINT('',(48.350789065139,14.406972662847,10.));
#1266 = CIRCLE('',#1267,1.6);
#1267 = AXIS2_PLACEMENT_3D('',#1268,#1269,#1270);
#1268 = CARTESIAN_POINT('',(48.5,16.,10.));
#1269 = DIRECTION('',(0.,0.,-1.));
#1270 = DIRECTION('',(0.619118903254,0.785297258135,0.));
#1271 = ORIENTED_EDGE('',*,*,#1272,.T.);
#1272 = EDGE_CURVE('',#1262,#1273,#1275,.T.);
#1273 = VERTEX_POINT('',#1274);
#1274 = CARTESIAN_POINT('',(49.490590245206,17.256475613015,11.));
#1275 = LINE('',#1276,#1277);
#1276 = CARTESIAN_POINT('',(49.490590245206,17.256475613015,10.));
#1277 = VECTOR('',#1278,1.);
#1278 = DIRECTION('',(0.,0.,1.));
#1279 = ORIENTED_EDGE('',*,*,#1280,.T.);
#1280 = EDGE_CURVE('',#1273,#877,#1281,.T.);
#1281 = CIRCLE('',#1282,1.6);
#1282 = AXIS2_PLACEMENT_3D('',#1283,#1284,#1285);
#1283 = CARTESIAN_POINT('',(48.5,16.,11.));
#1284 = DIRECTION('',(0.,0.,1.));
#1285 = DIRECTION('',(1.,0.,-0.));
#1286 = ORIENTED_EDGE('',*,*,#876,.F.);
#1287 = ORIENTED_EDGE('',*,*,#1209,.T.);
#1288 = ORIENTED_EDGE('',*,*,#1289,.T.);
#1289 = EDGE_CURVE('',#1210,#1290,#1292,.T.);
#1290 = VERTEX_POINT('',#1291);
#1291 = CARTESIAN_POINT('',(47.391524968813,17.153812422031,13.));
#1292 = LINE('',#1293,#1294);
#1293 = CARTESIAN_POINT('',(47.391524968813,17.153812422031,10.));
#1294 = VECTOR('',#1295,1.);
#1295 = DIRECTION('',(0.,0.,1.));
#1296 = ORIENTED_EDGE('',*,*,#1297,.T.);
#1297 = EDGE_CURVE('',#1290,#1298,#1300,.T.);
#1298 = VERTEX_POINT('',#1299);
#1299 = CARTESIAN_POINT('',(46.901578479463,15.928946198658,13.));
#1300 = CIRCLE('',#1301,1.6);
#1301 = AXIS2_PLACEMENT_3D('',#1302,#1303,#1304);
#1302 = CARTESIAN_POINT('',(48.5,16.,13.));
#1303 = DIRECTION('',(0.,0.,-1.));
#1304 = DIRECTION('',(-0.692796894492,0.72113276377,0.));
#1305 = ORIENTED_EDGE('',*,*,#1306,.F.);
#1306 = EDGE_CURVE('',#1237,#1298,#1307,.T.);
#1307 = LINE('',#1308,#1309);
#1308 = CARTESIAN_POINT('',(46.901578479463,15.928946198658,10.));
#1309 = VECTOR('',#1310,1.);
#1310 = DIRECTION('',(0.,0.,1.));
#1311 = ORIENTED_EDGE('',*,*,#1236,.T.);
#1312 = ORIENTED_EDGE('',*,*,#935,.F.);
#1313 = ORIENTED_EDGE('',*,*,#1314,.T.);
#1314 = EDGE_CURVE('',#927,#1315,#1317,.T.);
#1315 = VERTEX_POINT('',#1316);
#1316 = CARTESIAN_POINT('',(48.350789065139,14.406972662847,11.));
#1317 = CIRCLE('',#1318,1.6);
#1318 = AXIS2_PLACEMENT_3D('',#1319,#1320,#1321);
#1319 = CARTESIAN_POINT('',(48.5,16.,11.));
#1320 = DIRECTION('',(0.,0.,1.));
#1321 = DIRECTION('',(1.,0.,-0.));
#1322 = ORIENTED_EDGE('',*,*,#1323,.F.);
#1323 = EDGE_CURVE('',#1264,#1315,#1324,.T.);
#1324 = LINE('',#1325,#1326);
#1325 = CARTESIAN_POINT('',(48.350789065139,14.406972662847,10.));
#1326 = VECTOR('',#1327,1.);
#1327 = DIRECTION('',(0.,0.,1.));
#1328 = CYLINDRICAL_SURFACE('',#1329,1.6);
#1329 = AXIS2_PLACEMENT_3D('',#1330,#1331,#1332);
#1330 = CARTESIAN_POINT('',(48.5,16.,10.));
#1331 = DIRECTION('',(0.,0.,1.));
#1332 = DIRECTION('',(1.,0.,-0.));
#1333 = ADVANCED_FACE('',(#1334),#1347,.T.);
#1334 = FACE_BOUND('',#1335,.T.);
#1335 = EDGE_LOOP('',(#1336,#1343,#1344,#1345,#1346));
#1336 = ORIENTED_EDGE('',*,*,#1337,.F.);
#1337 = EDGE_CURVE('',#1273,#1315,#1338,.T.);
#1338 = CIRCLE('',#1339,3.5);
#1339 = AXIS2_PLACEMENT_3D('',#1340,#1341,#1342);
#1340 = CARTESIAN_POINT('',(46.,17.,11.));
#1341 = DIRECTION('',(0.,0.,-1.));
#1342 = DIRECTION('',(0.99731149863,7.327874657576E-02,0.));
#1343 = ORIENTED_EDGE('',*,*,#1280,.T.);
#1344 = ORIENTED_EDGE('',*,*,#901,.F.);
#1345 = ORIENTED_EDGE('',*,*,#926,.F.);
#1346 = ORIENTED_EDGE('',*,*,#1314,.T.);
#1347 = PLANE('',#1348);
#1348 = AXIS2_PLACEMENT_3D('',#1349,#1350,#1351);
#1349 = CARTESIAN_POINT('',(46.,17.,11.));
#1350 = DIRECTION('',(0.,0.,1.));
#1351 = DIRECTION('',(1.,0.,-0.));
#1352 = ADVANCED_FACE('',(#1353),#1365,.F.);
#1353 = FACE_BOUND('',#1354,.F.);
#1354 = EDGE_LOOP('',(#1355,#1362,#1363,#1364));
#1355 = ORIENTED_EDGE('',*,*,#1356,.F.);
#1356 = EDGE_CURVE('',#1290,#997,#1357,.T.);
#1357 = CIRCLE('',#1358,1.4);
#1358 = AXIS2_PLACEMENT_3D('',#1359,#1360,#1361);
#1359 = CARTESIAN_POINT('',(46.,17.,13.));
#1360 = DIRECTION('',(0.,0.,1.));
#1361 = DIRECTION('',(1.,0.,-0.));
#1362 = ORIENTED_EDGE('',*,*,#1289,.F.);
#1363 = ORIENTED_EDGE('',*,*,#1220,.T.);
#1364 = ORIENTED_EDGE('',*,*,#994,.T.);
#1365 = CYLINDRICAL_SURFACE('',#1366,1.4);
#1366 = AXIS2_PLACEMENT_3D('',#1367,#1368,#1369);
#1367 = CARTESIAN_POINT('',(46.,17.,7.));
#1368 = DIRECTION('',(0.,0.,1.));
#1369 = DIRECTION('',(1.,0.,-0.));
#1370 = ADVANCED_FACE('',(#1371),#1383,.F.);
#1371 = FACE_BOUND('',#1372,.F.);
#1372 = EDGE_LOOP('',(#1373,#1374,#1375,#1376));
#1373 = ORIENTED_EDGE('',*,*,#1013,.F.);
#1374 = ORIENTED_EDGE('',*,*,#1245,.T.);
#1375 = ORIENTED_EDGE('',*,*,#1306,.T.);
#1376 = ORIENTED_EDGE('',*,*,#1377,.F.);
#1377 = EDGE_CURVE('',#1005,#1298,#1378,.T.);
#1378 = CIRCLE('',#1379,1.4);
#1379 = AXIS2_PLACEMENT_3D('',#1380,#1381,#1382);
#1380 = CARTESIAN_POINT('',(46.,17.,13.));
#1381 = DIRECTION('',(0.,0.,1.));
#1382 = DIRECTION('',(1.,0.,-0.));
#1383 = CYLINDRICAL_SURFACE('',#1384,1.4);
#1384 = AXIS2_PLACEMENT_3D('',#1385,#1386,#1387);
#1385 = CARTESIAN_POINT('',(46.,17.,7.));
#1386 = DIRECTION('',(0.,0.,1.));
#1387 = DIRECTION('',(1.,0.,-0.));
#1388 = ADVANCED_FACE('',(#1389),#1395,.T.);
#1389 = FACE_BOUND('',#1390,.T.);
#1390 = EDGE_LOOP('',(#1391,#1392,#1393,#1394));
#1391 = ORIENTED_EDGE('',*,*,#1377,.F.);
#1392 = ORIENTED_EDGE('',*,*,#1004,.F.);
#1393 = ORIENTED_EDGE('',*,*,#1356,.F.);
#1394 = ORIENTED_EDGE('',*,*,#1297,.T.);
#1395 = PLANE('',#1396);
#1396 = AXIS2_PLACEMENT_3D('',#1397,#1398,#1399);
#1397 = CARTESIAN_POINT('',(48.5,16.,13.));
#1398 = DIRECTION('',(0.,0.,1.));
#1399 = DIRECTION('',(1.,0.,-0.));
#1400 = ADVANCED_FACE('',(#1401,#1404),#1415,.T.);
#1401 = FACE_BOUND('',#1402,.T.);
#1402 = EDGE_LOOP('',(#1403));
#1403 = ORIENTED_EDGE('',*,*,#1054,.T.);
#1404 = FACE_BOUND('',#1405,.T.);
#1405 = EDGE_LOOP('',(#1406));
#1406 = ORIENTED_EDGE('',*,*,#1407,.F.);
#1407 = EDGE_CURVE('',#1408,#1408,#1410,.T.);
#1408 = VERTEX_POINT('',#1409);
#1409 = CARTESIAN_POINT('',(71.6,16.,13.));
#1410 = CIRCLE('',#1411,1.6);
#1411 = AXIS2_PLACEMENT_3D('',#1412,#1413,#1414);
#1412 = CARTESIAN_POINT('',(70.,16.,13.));
#1413 = DIRECTION('',(0.,0.,1.));
#1414 = DIRECTION('',(1.,0.,-0.));
#1415 = PLANE('',#1416);
#1416 = AXIS2_PLACEMENT_3D('',#1417,#1418,#1419);
#1417 = CARTESIAN_POINT('',(70.,16.,13.));
#1418 = DIRECTION('',(0.,0.,1.));
#1419 = DIRECTION('',(1.,0.,-0.));
#1420 = ADVANCED_FACE('',(#1421),#1474,.F.);
#1421 = FACE_BOUND('',#1422,.F.);
#1422 = EDGE_LOOP('',(#1423,#1431,#1432,#1433,#1442,#1450,#1459,#1467));
#1423 = ORIENTED_EDGE('',*,*,#1424,.T.);
#1424 = EDGE_CURVE('',#1425,#1146,#1427,.T.);
#1425 = VERTEX_POINT('',#1426);
#1426 = CARTESIAN_POINT('',(50.1,-24.,10.));
#1427 = LINE('',#1428,#1429);
#1428 = CARTESIAN_POINT('',(50.1,-24.,10.));
#1429 = VECTOR('',#1430,1.);
#1430 = DIRECTION('',(0.,0.,1.));
#1431 = ORIENTED_EDGE('',*,*,#1145,.F.);
#1432 = ORIENTED_EDGE('',*,*,#1424,.F.);
#1433 = ORIENTED_EDGE('',*,*,#1434,.T.);
#1434 = EDGE_CURVE('',#1425,#1435,#1437,.T.);
#1435 = VERTEX_POINT('',#1436);
#1436 = CARTESIAN_POINT('',(48.546899960507,-22.40068752468,10.));
#1437 = CIRCLE('',#1438,1.6);
#1438 = AXIS2_PLACEMENT_3D('',#1439,#1440,#1441);
#1439 = CARTESIAN_POINT('',(48.5,-24.,10.));
#1440 = DIRECTION('',(0.,0.,1.));
#1441 = DIRECTION('',(1.,0.,-0.));
#1442 = ORIENTED_EDGE('',*,*,#1443,.T.);
#1443 = EDGE_CURVE('',#1435,#1444,#1446,.T.);
#1444 = VERTEX_POINT('',#1445);
#1445 = CARTESIAN_POINT('',(48.546899960507,-22.40068752468,11.));
#1446 = LINE('',#1447,#1448);
#1447 = CARTESIAN_POINT('',(48.546899960507,-22.40068752468,10.));
#1448 = VECTOR('',#1449,1.);
#1449 = DIRECTION('',(0.,0.,1.));
#1450 = ORIENTED_EDGE('',*,*,#1451,.T.);
#1451 = EDGE_CURVE('',#1444,#1452,#1454,.T.);
#1452 = VERTEX_POINT('',#1453);
#1453 = CARTESIAN_POINT('',(47.041864084437,-23.34133494722,11.));
#1454 = CIRCLE('',#1455,1.6);
#1455 = AXIS2_PLACEMENT_3D('',#1456,#1457,#1458);
#1456 = CARTESIAN_POINT('',(48.5,-24.,11.));
#1457 = DIRECTION('',(0.,0.,1.));
#1458 = DIRECTION('',(1.,0.,-0.));
#1459 = ORIENTED_EDGE('',*,*,#1460,.F.);
#1460 = EDGE_CURVE('',#1461,#1452,#1463,.T.);
#1461 = VERTEX_POINT('',#1462);
#1462 = CARTESIAN_POINT('',(47.041864084437,-23.34133494722,10.));
#1463 = LINE('',#1464,#1465);
#1464 = CARTESIAN_POINT('',(47.041864084437,-23.34133494722,10.));
#1465 = VECTOR('',#1466,1.);
#1466 = DIRECTION('',(0.,0.,1.));
#1467 = ORIENTED_EDGE('',*,*,#1468,.T.);
#1468 = EDGE_CURVE('',#1461,#1425,#1469,.T.);
#1469 = CIRCLE('',#1470,1.6);
#1470 = AXIS2_PLACEMENT_3D('',#1471,#1472,#1473);
#1471 = CARTESIAN_POINT('',(48.5,-24.,10.));
#1472 = DIRECTION('',(0.,0.,1.));
#1473 = DIRECTION('',(1.,0.,-0.));
#1474 = CYLINDRICAL_SURFACE('',#1475,1.6);
#1475 = AXIS2_PLACEMENT_3D('',#1476,#1477,#1478);
#1476 = CARTESIAN_POINT('',(48.5,-24.,10.));
#1477 = DIRECTION('',(0.,0.,1.));
#1478 = DIRECTION('',(1.,0.,-0.));
#1479 = ADVANCED_FACE('',(#1480),#1499,.F.);
#1480 = FACE_BOUND('',#1481,.F.);
#1481 = EDGE_LOOP('',(#1482,#1483,#1491,#1498));
#1482 = ORIENTED_EDGE('',*,*,#1192,.F.);
#1483 = ORIENTED_EDGE('',*,*,#1484,.F.);
#1484 = EDGE_CURVE('',#1485,#1193,#1487,.T.);
#1485 = VERTEX_POINT('',#1486);
#1486 = CARTESIAN_POINT('',(71.6,-24.,10.));
#1487 = LINE('',#1488,#1489);
#1488 = CARTESIAN_POINT('',(71.6,-24.,10.));
#1489 = VECTOR('',#1490,1.);
#1490 = DIRECTION('',(0.,0.,1.));
#1491 = ORIENTED_EDGE('',*,*,#1492,.T.);
#1492 = EDGE_CURVE('',#1485,#1485,#1493,.T.);
#1493 = CIRCLE('',#1494,1.6);
#1494 = AXIS2_PLACEMENT_3D('',#1495,#1496,#1497);
#1495 = CARTESIAN_POINT('',(70.,-24.,10.));
#1496 = DIRECTION('',(0.,0.,1.));
#1497 = DIRECTION('',(1.,0.,-0.));
#1498 = ORIENTED_EDGE('',*,*,#1484,.T.);
#1499 = CYLINDRICAL_SURFACE('',#1500,1.6);
#1500 = AXIS2_PLACEMENT_3D('',#1501,#1502,#1503);
#1501 = CARTESIAN_POINT('',(70.,-24.,10.));
#1502 = DIRECTION('',(0.,0.,1.));
#1503 = DIRECTION('',(1.,0.,-0.));
#1504 = ADVANCED_FACE('',(#1505),#1515,.T.);
#1505 = FACE_BOUND('',#1506,.T.);
#1506 = EDGE_LOOP('',(#1507,#1508));
#1507 = ORIENTED_EDGE('',*,*,#1261,.F.);
#1508 = ORIENTED_EDGE('',*,*,#1509,.T.);
#1509 = EDGE_CURVE('',#1262,#1264,#1510,.T.);
#1510 = CIRCLE('',#1511,3.5);
#1511 = AXIS2_PLACEMENT_3D('',#1512,#1513,#1514);
#1512 = CARTESIAN_POINT('',(46.,17.,10.));
#1513 = DIRECTION('',(0.,0.,-1.));
#1514 = DIRECTION('',(0.99731149863,7.327874657583E-02,0.));
#1515 = PLANE('',#1516);
#1516 = AXIS2_PLACEMENT_3D('',#1517,#1518,#1519);
#1517 = CARTESIAN_POINT('',(48.5,16.,10.));
#1518 = DIRECTION('',(0.,0.,1.));
#1519 = DIRECTION('',(1.,0.,-0.));
#1520 = ADVANCED_FACE('',(#1521),#1527,.T.);
#1521 = FACE_BOUND('',#1522,.T.);
#1522 = EDGE_LOOP('',(#1523,#1524,#1525,#1526));
#1523 = ORIENTED_EDGE('',*,*,#1509,.F.);
#1524 = ORIENTED_EDGE('',*,*,#1272,.T.);
#1525 = ORIENTED_EDGE('',*,*,#1337,.T.);
#1526 = ORIENTED_EDGE('',*,*,#1323,.F.);
#1527 = CYLINDRICAL_SURFACE('',#1528,3.5);
#1528 = AXIS2_PLACEMENT_3D('',#1529,#1530,#1531);
#1529 = CARTESIAN_POINT('',(46.,17.,8.));
#1530 = DIRECTION('',(0.,0.,1.));
#1531 = DIRECTION('',(1.,0.,-0.));
#1532 = ADVANCED_FACE('',(#1533),#1552,.F.);
#1533 = FACE_BOUND('',#1534,.F.);
#1534 = EDGE_LOOP('',(#1535,#1536,#1544,#1551));
#1535 = ORIENTED_EDGE('',*,*,#1407,.F.);
#1536 = ORIENTED_EDGE('',*,*,#1537,.F.);
#1537 = EDGE_CURVE('',#1538,#1408,#1540,.T.);
#1538 = VERTEX_POINT('',#1539);
#1539 = CARTESIAN_POINT('',(71.6,16.,10.));
#1540 = LINE('',#1541,#1542);
#1541 = CARTESIAN_POINT('',(71.6,16.,10.));
#1542 = VECTOR('',#1543,1.);
#1543 = DIRECTION('',(0.,0.,1.));
#1544 = ORIENTED_EDGE('',*,*,#1545,.T.);
#1545 = EDGE_CURVE('',#1538,#1538,#1546,.T.);
#1546 = CIRCLE('',#1547,1.6);
#1547 = AXIS2_PLACEMENT_3D('',#1548,#1549,#1550);
#1548 = CARTESIAN_POINT('',(70.,16.,10.));
#1549 = DIRECTION('',(0.,0.,1.));
#1550 = DIRECTION('',(1.,0.,-0.));
#1551 = ORIENTED_EDGE('',*,*,#1537,.T.);
#1552 = CYLINDRICAL_SURFACE('',#1553,1.6);
#1553 = AXIS2_PLACEMENT_3D('',#1554,#1555,#1556);
#1554 = CARTESIAN_POINT('',(70.,16.,10.));
#1555 = DIRECTION('',(0.,0.,1.));
#1556 = DIRECTION('',(1.,0.,-0.));
#1557 = ADVANCED_FACE('',(#1558),#1569,.T.);
#1558 = FACE_BOUND('',#1559,.T.);
#1559 = EDGE_LOOP('',(#1560,#1561,#1562));
#1560 = ORIENTED_EDGE('',*,*,#1468,.T.);
#1561 = ORIENTED_EDGE('',*,*,#1434,.T.);
#1562 = ORIENTED_EDGE('',*,*,#1563,.F.);
#1563 = EDGE_CURVE('',#1461,#1435,#1564,.T.);
#1564 = CIRCLE('',#1565,3.5);
#1565 = AXIS2_PLACEMENT_3D('',#1566,#1567,#1568);
#1566 = CARTESIAN_POINT('',(46.,-20.,10.));
#1567 = DIRECTION('',(0.,0.,1.));
#1568 = DIRECTION('',(1.,0.,-0.));
#1569 = PLANE('',#1570);
#1570 = AXIS2_PLACEMENT_3D('',#1571,#1572,#1573);
#1571 = CARTESIAN_POINT('',(48.5,-24.,10.));
#1572 = DIRECTION('',(0.,0.,1.));
#1573 = DIRECTION('',(1.,0.,-0.));
#1574 = ADVANCED_FACE('',(#1575),#1587,.T.);
#1575 = FACE_BOUND('',#1576,.T.);
#1576 = EDGE_LOOP('',(#1577,#1584,#1585,#1586));
#1577 = ORIENTED_EDGE('',*,*,#1578,.F.);
#1578 = EDGE_CURVE('',#1452,#1444,#1579,.T.);
#1579 = CIRCLE('',#1580,3.5);
#1580 = AXIS2_PLACEMENT_3D('',#1581,#1582,#1583);
#1581 = CARTESIAN_POINT('',(46.,-20.,11.));
#1582 = DIRECTION('',(0.,0.,1.));
#1583 = DIRECTION('',(1.,0.,-0.));
#1584 = ORIENTED_EDGE('',*,*,#1460,.F.);
#1585 = ORIENTED_EDGE('',*,*,#1563,.T.);
#1586 = ORIENTED_EDGE('',*,*,#1443,.T.);
#1587 = CYLINDRICAL_SURFACE('',#1588,3.5);
#1588 = AXIS2_PLACEMENT_3D('',#1589,#1590,#1591);
#1589 = CARTESIAN_POINT('',(46.,-20.,8.));
#1590 = DIRECTION('',(0.,0.,1.));
#1591 = DIRECTION('',(1.,0.,-0.));
#1592 = ADVANCED_FACE('',(#1593),#1597,.T.);
#1593 = FACE_BOUND('',#1594,.T.);
#1594 = EDGE_LOOP('',(#1595,#1596));
#1595 = ORIENTED_EDGE('',*,*,#1451,.T.);
#1596 = ORIENTED_EDGE('',*,*,#1578,.T.);
#1597 = PLANE('',#1598);
#1598 = AXIS2_PLACEMENT_3D('',#1599,#1600,#1601);
#1599 = CARTESIAN_POINT('',(46.,-20.,11.));
#1600 = DIRECTION('',(0.,0.,1.));
#1601 = DIRECTION('',(1.,0.,-0.));
#1602 = ADVANCED_FACE('',(#1603),#1606,.T.);
#1603 = FACE_BOUND('',#1604,.F.);
#1604 = EDGE_LOOP('',(#1605));
#1605 = ORIENTED_EDGE('',*,*,#1492,.F.);
#1606 = PLANE('',#1607);
#1607 = AXIS2_PLACEMENT_3D('',#1608,#1609,#1610);
#1608 = CARTESIAN_POINT('',(70.,-24.,10.));
#1609 = DIRECTION('',(0.,0.,1.));
#1610 = DIRECTION('',(1.,0.,-0.));
#1611 = ADVANCED_FACE('',(#1612),#1615,.T.);
#1612 = FACE_BOUND('',#1613,.F.);
#1613 = EDGE_LOOP('',(#1614));
#1614 = ORIENTED_EDGE('',*,*,#1545,.F.);
#1615 = PLANE('',#1616);
#1616 = AXIS2_PLACEMENT_3D('',#1617,#1618,#1619);
#1617 = CARTESIAN_POINT('',(70.,16.,10.));
#1618 = DIRECTION('',(0.,0.,1.));
#1619 = DIRECTION('',(1.,0.,-0.));
#1620 = ( GEOMETRIC_REPRESENTATION_CONTEXT(3) 
GLOBAL_UNCERTAINTY_ASSIGNED_CONTEXT((#1624)) 
GLOBAL_UNIT_ASSIGNED_CONTEXT((#1621,#1622,#1623)) REPRESENTATION_CONTEXT
('Context #1','3D Context with UNIT and UNCERTAINTY') );
#1621 = ( LENGTH_UNIT() NAMED_UNIT(*) SI_UNIT(.MILLI.,.METRE.) );
#1622 = ( NAMED_UNIT(*) PLANE_ANGLE_UNIT() SI_UNIT($,.RADIAN.) );
#1623 = ( NAMED_UNIT(*) SI_UNIT($,.STERADIAN.) SOLID_ANGLE_UNIT() );
#1624 = UNCERTAINTY_MEASURE_WITH_UNIT(LENGTH_MEASURE(1.E-07),#1621,
  'distance_accuracy_value','confusion accuracy');
#1625 = CONTEXT_DEPENDENT_SHAPE_REPRESENTATION(#1626,#1628);
#1626 = ( REPRESENTATION_RELATIONSHIP('','',#32,#10) 
REPRESENTATION_RELATIONSHIP_WITH_TRANSFORMATION(#1627) 
SHAPE_REPRESENTATION_RELATIONSHIP() );
#1627 = ITEM_DEFINED_TRANSFORMATION('','',#11,#15);
#1628 = PRODUCT_DEFINITION_SHAPE('Placement','Placement of an item',
  #1629);
#1629 = NEXT_ASSEMBLY_USAGE_OCCURRENCE('6','=>[0:1:1:2]','',#5,#27,$);
#1630 = PRODUCT_RELATED_PRODUCT_CATEGORY('part',$,(#29));
ENDSEC;
END-ISO-10303-21;
