ISO-10303-21;
HEADER;
FILE_DESCRIPTION(('Open CASCADE Model'),'2;1');
FILE_NAME('Open CASCADE Shape Model','2026-09-05T07:24:20',('Author'),(
    'Open CASCADE'),'Open CASCADE STEP processor 7.9','build123d',
  'Unknown');
FILE_SCHEMA(('AUTOMOTIVE_DESIGN { 1 0 10303 214 1 1 1 1 }'));
ENDSEC;
DATA;
#1 = APPLICATION_PROTOCOL_DEFINITION('international standard',
  'automotive_design',2000,#2);
#2 = APPLICATION_CONTEXT(
  'core data for automotive mechanical design processes');
#3 = SHAPE_DEFINITION_REPRESENTATION(#4,#10);
#4 = PRODUCT_DEFINITION_SHAPE('','',#5);
#5 = PRODUCT_DEFINITION('design','',#6,#9);
#6 = PRODUCT_DEFINITION_FORMATION('','',#7);
#7 = PRODUCT('COMPOUND','COMPOUND','',(#8));
#8 = PRODUCT_CONTEXT('',#2,'mechanical');
#9 = PRODUCT_DEFINITION_CONTEXT('part definition',#2,'design');
#10 = ADVANCED_BREP_SHAPE_REPRESENTATION('',(#11,#15),#1285);
#11 = AXIS2_PLACEMENT_3D('',#12,#13,#14);
#12 = CARTESIAN_POINT('',(0.,0.,0.));
#13 = DIRECTION('',(0.,0.,1.));
#14 = DIRECTION('',(1.,0.,-0.));
#15 = MANIFOLD_SOLID_BREP('',#16);
#16 = CLOSED_SHELL('',(#17,#59,#340,#364,#638,#655,#672,#689,#706,#723,
    #740,#757,#774,#791,#808,#825,#842,#859,#876,#893,#910,#927,#944,
    #961,#978,#995,#1012,#1029,#1046,#1063,#1075,#1100,#1125,#1150,#1175
    ,#1200,#1217,#1234,#1251,#1268));
#17 = ADVANCED_FACE('',(#18),#54,.T.);
#18 = FACE_BOUND('',#19,.T.);
#19 = EDGE_LOOP('',(#20,#31,#39,#48));
#20 = ORIENTED_EDGE('',*,*,#21,.F.);
#21 = EDGE_CURVE('',#22,#24,#26,.T.);
#22 = VERTEX_POINT('',#23);
#23 = CARTESIAN_POINT('',(73.268342413351,22.,8.));
#24 = VERTEX_POINT('',#25);
#25 = CARTESIAN_POINT('',(73.268342413351,-22.,8.));
#26 = CIRCLE('',#27,76.5);
#27 = AXIS2_PLACEMENT_3D('',#28,#29,#30);
#28 = CARTESIAN_POINT('',(0.,0.,8.));
#29 = DIRECTION('',(0.,0.,1.));
#30 = DIRECTION('',(1.,0.,-0.));
#31 = ORIENTED_EDGE('',*,*,#32,.F.);
#32 = EDGE_CURVE('',#33,#22,#35,.T.);
#33 = VERTEX_POINT('',#34);
#34 = CARTESIAN_POINT('',(73.268342413351,22.,0.));
#35 = LINE('',#36,#37);
#36 = CARTESIAN_POINT('',(73.268342413351,22.,0.));
#37 = VECTOR('',#38,1.);
#38 = DIRECTION('',(0.,0.,1.));
#39 = ORIENTED_EDGE('',*,*,#40,.T.);
#40 = EDGE_CURVE('',#33,#41,#43,.T.);
#41 = VERTEX_POINT('',#42);
#42 = CARTESIAN_POINT('',(73.268342413351,-22.,0.));
#43 = CIRCLE('',#44,76.5);
#44 = AXIS2_PLACEMENT_3D('',#45,#46,#47);
#45 = CARTESIAN_POINT('',(0.,0.,0.));
#46 = DIRECTION('',(0.,0.,1.));
#47 = DIRECTION('',(1.,0.,-0.));
#48 = ORIENTED_EDGE('',*,*,#49,.T.);
#49 = EDGE_CURVE('',#41,#24,#50,.T.);
#50 = LINE('',#51,#52);
#51 = CARTESIAN_POINT('',(73.268342413351,-22.,0.));
#52 = VECTOR('',#53,1.);
#53 = DIRECTION('',(0.,0.,1.));
#54 = CYLINDRICAL_SURFACE('',#55,76.5);
#55 = AXIS2_PLACEMENT_3D('',#56,#57,#58);
#56 = CARTESIAN_POINT('',(0.,0.,0.));
#57 = DIRECTION('',(0.,0.,1.));
#58 = DIRECTION('',(1.,0.,-0.));
#59 = ADVANCED_FACE('',(#60,#280,#291,#302,#313,#324),#335,.T.);
#60 = FACE_BOUND('',#61,.T.);
#61 = EDGE_LOOP('',(#62,#70,#71,#79,#87,#95,#103,#111,#119,#127,#135,
    #143,#151,#159,#167,#175,#183,#191,#199,#208,#216,#225,#233,#242,
    #250,#258,#266,#274));
#62 = ORIENTED_EDGE('',*,*,#63,.F.);
#63 = EDGE_CURVE('',#22,#64,#66,.T.);
#64 = VERTEX_POINT('',#65);
#65 = CARTESIAN_POINT('',(55.,22.,8.));
#66 = LINE('',#67,#68);
#67 = CARTESIAN_POINT('',(27.5,22.,8.));
#68 = VECTOR('',#69,1.);
#69 = DIRECTION('',(-1.,0.,0.));
#70 = ORIENTED_EDGE('',*,*,#21,.T.);
#71 = ORIENTED_EDGE('',*,*,#72,.T.);
#72 = EDGE_CURVE('',#24,#73,#75,.T.);
#73 = VERTEX_POINT('',#74);
#74 = CARTESIAN_POINT('',(55.55,-22.,8.));
#75 = LINE('',#76,#77);
#76 = CARTESIAN_POINT('',(27.5,-22.,8.));
#77 = VECTOR('',#78,1.);
#78 = DIRECTION('',(-1.,0.,0.));
#79 = ORIENTED_EDGE('',*,*,#80,.F.);
#80 = EDGE_CURVE('',#81,#73,#83,.T.);
#81 = VERTEX_POINT('',#82);
#82 = CARTESIAN_POINT('',(55.55,-25.,8.));
#83 = LINE('',#84,#85);
#84 = CARTESIAN_POINT('',(55.55,-12.5,8.));
#85 = VECTOR('',#86,1.);
#86 = DIRECTION('',(-0.,1.,0.));
#87 = ORIENTED_EDGE('',*,*,#88,.T.);
#88 = EDGE_CURVE('',#81,#89,#91,.T.);
#89 = VERTEX_POINT('',#90);
#90 = CARTESIAN_POINT('',(46.3,-25.,8.));
#91 = LINE('',#92,#93);
#92 = CARTESIAN_POINT('',(22.275,-25.,8.));
#93 = VECTOR('',#94,1.);
#94 = DIRECTION('',(-1.,-0.,0.));
#95 = ORIENTED_EDGE('',*,*,#96,.F.);
#96 = EDGE_CURVE('',#97,#89,#99,.T.);
#97 = VERTEX_POINT('',#98);
#98 = CARTESIAN_POINT('',(46.3,-28.75,8.));
#99 = LINE('',#100,#101);
#100 = CARTESIAN_POINT('',(46.3,-14.375,8.));
#101 = VECTOR('',#102,1.);
#102 = DIRECTION('',(-0.,1.,0.));
#103 = ORIENTED_EDGE('',*,*,#104,.T.);
#104 = EDGE_CURVE('',#97,#105,#107,.T.);
#105 = VERTEX_POINT('',#106);
#106 = CARTESIAN_POINT('',(-9.5,-28.75,8.));
#107 = LINE('',#108,#109);
#108 = CARTESIAN_POINT('',(-21.625,-28.75,8.));
#109 = VECTOR('',#110,1.);
#110 = DIRECTION('',(-1.,-0.,0.));
#111 = ORIENTED_EDGE('',*,*,#112,.F.);
#112 = EDGE_CURVE('',#113,#105,#115,.T.);
#113 = VERTEX_POINT('',#114);
#114 = CARTESIAN_POINT('',(-9.5,-37.,8.));
#115 = LINE('',#116,#117);
#116 = CARTESIAN_POINT('',(-9.5,-18.5,8.));
#117 = VECTOR('',#118,1.);
#118 = DIRECTION('',(-0.,1.,0.));
#119 = ORIENTED_EDGE('',*,*,#120,.T.);
#120 = EDGE_CURVE('',#113,#121,#123,.T.);
#121 = VERTEX_POINT('',#122);
#122 = CARTESIAN_POINT('',(-23.5,-37.,8.));
#123 = LINE('',#124,#125);
#124 = CARTESIAN_POINT('',(-11.75,-37.,8.));
#125 = VECTOR('',#126,1.);
#126 = DIRECTION('',(-1.,-0.,0.));
#127 = ORIENTED_EDGE('',*,*,#128,.T.);
#128 = EDGE_CURVE('',#121,#129,#131,.T.);
#129 = VERTEX_POINT('',#130);
#130 = CARTESIAN_POINT('',(-23.5,-28.75,8.));
#131 = LINE('',#132,#133);
#132 = CARTESIAN_POINT('',(-23.5,-18.5,8.));
#133 = VECTOR('',#134,1.);
#134 = DIRECTION('',(-0.,1.,0.));
#135 = ORIENTED_EDGE('',*,*,#136,.T.);
#136 = EDGE_CURVE('',#129,#137,#139,.T.);
#137 = VERTEX_POINT('',#138);
#138 = CARTESIAN_POINT('',(-26.3,-28.75,8.));
#139 = LINE('',#140,#141);
#140 = CARTESIAN_POINT('',(-21.625,-28.75,8.));
#141 = VECTOR('',#142,1.);
#142 = DIRECTION('',(-1.,-0.,0.));
#143 = ORIENTED_EDGE('',*,*,#144,.F.);
#144 = EDGE_CURVE('',#145,#137,#147,.T.);
#145 = VERTEX_POINT('',#146);
#146 = CARTESIAN_POINT('',(-26.3,-54.,8.));
#147 = LINE('',#148,#149);
#148 = CARTESIAN_POINT('',(-26.3,-27.,8.));
#149 = VECTOR('',#150,1.);
#150 = DIRECTION('',(-0.,1.,0.));
#151 = ORIENTED_EDGE('',*,*,#152,.T.);
#152 = EDGE_CURVE('',#145,#153,#155,.T.);
#153 = VERTEX_POINT('',#154);
#154 = CARTESIAN_POINT('',(-36.3,-54.,8.));
#155 = LINE('',#156,#157);
#156 = CARTESIAN_POINT('',(-18.15,-54.,8.));
#157 = VECTOR('',#158,1.);
#158 = DIRECTION('',(-1.,-0.,0.));
#159 = ORIENTED_EDGE('',*,*,#160,.T.);
#160 = EDGE_CURVE('',#153,#161,#163,.T.);
#161 = VERTEX_POINT('',#162);
#162 = CARTESIAN_POINT('',(-36.3,-28.75,8.));
#163 = LINE('',#164,#165);
#164 = CARTESIAN_POINT('',(-36.3,-27.,8.));
#165 = VECTOR('',#166,1.);
#166 = DIRECTION('',(-0.,1.,0.));
#167 = ORIENTED_EDGE('',*,*,#168,.T.);
#168 = EDGE_CURVE('',#161,#169,#171,.T.);
#169 = VERTEX_POINT('',#170);
#170 = CARTESIAN_POINT('',(-43.25,-28.75,8.));
#171 = LINE('',#172,#173);
#172 = CARTESIAN_POINT('',(-21.625,-28.75,8.));
#173 = VECTOR('',#174,1.);
#174 = DIRECTION('',(-1.,-0.,0.));
#175 = ORIENTED_EDGE('',*,*,#176,.T.);
#176 = EDGE_CURVE('',#169,#177,#179,.T.);
#177 = VERTEX_POINT('',#178);
#178 = CARTESIAN_POINT('',(-43.25,28.75,8.));
#179 = LINE('',#180,#181);
#180 = CARTESIAN_POINT('',(-43.25,-14.375,8.));
#181 = VECTOR('',#182,1.);
#182 = DIRECTION('',(-0.,1.,0.));
#183 = ORIENTED_EDGE('',*,*,#184,.F.);
#184 = EDGE_CURVE('',#185,#177,#187,.T.);
#185 = VERTEX_POINT('',#186);
#186 = CARTESIAN_POINT('',(-5.75,28.75,8.));
#187 = LINE('',#188,#189);
#188 = CARTESIAN_POINT('',(-21.625,28.75,8.));
#189 = VECTOR('',#190,1.);
#190 = DIRECTION('',(-1.,-0.,0.));
#191 = ORIENTED_EDGE('',*,*,#192,.F.);
#192 = EDGE_CURVE('',#193,#185,#195,.T.);
#193 = VERTEX_POINT('',#194);
#194 = CARTESIAN_POINT('',(-5.75,34.228826929126,8.));
#195 = LINE('',#196,#197);
#196 = CARTESIAN_POINT('',(-5.75,13.175,8.));
#197 = VECTOR('',#198,1.);
#198 = DIRECTION('',(-2.22044604925E-16,-1.,0.));
#199 = ORIENTED_EDGE('',*,*,#200,.F.);
#200 = EDGE_CURVE('',#201,#193,#203,.T.);
#201 = VERTEX_POINT('',#202);
#202 = CARTESIAN_POINT('',(-19.25,52.6,8.));
#203 = CIRCLE('',#204,19.25);
#204 = AXIS2_PLACEMENT_3D('',#205,#206,#207);
#205 = CARTESIAN_POINT('',(3.220821081758E-15,52.6,8.));
#206 = DIRECTION('',(0.,0.,1.));
#207 = DIRECTION('',(2.22044604925E-16,1.,-0.));
#208 = ORIENTED_EDGE('',*,*,#209,.F.);
#209 = EDGE_CURVE('',#210,#201,#212,.T.);
#210 = VERTEX_POINT('',#211);
#211 = CARTESIAN_POINT('',(-19.25,55.,8.));
#212 = LINE('',#213,#214);
#213 = CARTESIAN_POINT('',(-19.25,26.3,8.));
#214 = VECTOR('',#215,1.);
#215 = DIRECTION('',(-2.22044604925E-16,-1.,0.));
#216 = ORIENTED_EDGE('',*,*,#217,.F.);
#217 = EDGE_CURVE('',#218,#210,#220,.T.);
#218 = VERTEX_POINT('',#219);
#219 = CARTESIAN_POINT('',(19.25,55.,8.));
#220 = CIRCLE('',#221,19.25);
#221 = AXIS2_PLACEMENT_3D('',#222,#223,#224);
#222 = CARTESIAN_POINT('',(3.367778697655E-15,55.,8.));
#223 = DIRECTION('',(0.,0.,1.));
#224 = DIRECTION('',(2.22044604925E-16,1.,-0.));
#225 = ORIENTED_EDGE('',*,*,#226,.T.);
#226 = EDGE_CURVE('',#218,#227,#229,.T.);
#227 = VERTEX_POINT('',#228);
#228 = CARTESIAN_POINT('',(19.25,52.6,8.));
#229 = LINE('',#230,#231);
#230 = CARTESIAN_POINT('',(19.25,26.3,8.));
#231 = VECTOR('',#232,1.);
#232 = DIRECTION('',(-2.22044604925E-16,-1.,0.));
#233 = ORIENTED_EDGE('',*,*,#234,.F.);
#234 = EDGE_CURVE('',#235,#227,#237,.T.);
#235 = VERTEX_POINT('',#236);
#236 = CARTESIAN_POINT('',(5.75,34.228826929126,8.));
#237 = CIRCLE('',#238,19.25);
#238 = AXIS2_PLACEMENT_3D('',#239,#240,#241);
#239 = CARTESIAN_POINT('',(3.220821081758E-15,52.6,8.));
#240 = DIRECTION('',(0.,0.,1.));
#241 = DIRECTION('',(2.22044604925E-16,1.,-0.));
#242 = ORIENTED_EDGE('',*,*,#243,.T.);
#243 = EDGE_CURVE('',#235,#244,#246,.T.);
#244 = VERTEX_POINT('',#245);
#245 = CARTESIAN_POINT('',(5.75,28.75,8.));
#246 = LINE('',#247,#248);
#247 = CARTESIAN_POINT('',(5.75,13.175,8.));
#248 = VECTOR('',#249,1.);
#249 = DIRECTION('',(-2.22044604925E-16,-1.,0.));
#250 = ORIENTED_EDGE('',*,*,#251,.F.);
#251 = EDGE_CURVE('',#252,#244,#254,.T.);
#252 = VERTEX_POINT('',#253);
#253 = CARTESIAN_POINT('',(46.3,28.75,8.));
#254 = LINE('',#255,#256);
#255 = CARTESIAN_POINT('',(-21.625,28.75,8.));
#256 = VECTOR('',#257,1.);
#257 = DIRECTION('',(-1.,-0.,0.));
#258 = ORIENTED_EDGE('',*,*,#259,.F.);
#259 = EDGE_CURVE('',#260,#252,#262,.T.);
#260 = VERTEX_POINT('',#261);
#261 = CARTESIAN_POINT('',(46.3,-10.5,8.));
#262 = LINE('',#263,#264);
#263 = CARTESIAN_POINT('',(46.3,-14.375,8.));
#264 = VECTOR('',#265,1.);
#265 = DIRECTION('',(-0.,1.,0.));
#266 = ORIENTED_EDGE('',*,*,#267,.F.);
#267 = EDGE_CURVE('',#268,#260,#270,.T.);
#268 = VERTEX_POINT('',#269);
#269 = CARTESIAN_POINT('',(55.,-10.5,8.));
#270 = LINE('',#271,#272);
#271 = CARTESIAN_POINT('',(22.275,-10.5,8.));
#272 = VECTOR('',#273,1.);
#273 = DIRECTION('',(-1.,-0.,0.));
#274 = ORIENTED_EDGE('',*,*,#275,.T.);
#275 = EDGE_CURVE('',#268,#64,#276,.T.);
#276 = LINE('',#277,#278);
#277 = CARTESIAN_POINT('',(55.,-11.,8.));
#278 = VECTOR('',#279,1.);
#279 = DIRECTION('',(0.,1.,0.));
#280 = FACE_BOUND('',#281,.T.);
#281 = EDGE_LOOP('',(#282));
#282 = ORIENTED_EDGE('',*,*,#283,.F.);
#283 = EDGE_CURVE('',#284,#284,#286,.T.);
#284 = VERTEX_POINT('',#285);
#285 = CARTESIAN_POINT('',(-34.1,-59.06293253809,8.));
#286 = CIRCLE('',#287,1.7);
#287 = AXIS2_PLACEMENT_3D('',#288,#289,#290);
#288 = CARTESIAN_POINT('',(-33.25,-57.59068935166,8.));
#289 = DIRECTION('',(0.,0.,1.));
#290 = DIRECTION('',(-0.5,-0.866025403784,0.));
#291 = FACE_BOUND('',#292,.T.);
#292 = EDGE_LOOP('',(#293));
#293 = ORIENTED_EDGE('',*,*,#294,.F.);
#294 = EDGE_CURVE('',#295,#295,#297,.T.);
#295 = VERTEX_POINT('',#296);
#296 = CARTESIAN_POINT('',(-3.8,-46.,8.));
#297 = CIRCLE('',#298,1.7);
#298 = AXIS2_PLACEMENT_3D('',#299,#300,#301);
#299 = CARTESIAN_POINT('',(-5.5,-46.,8.));
#300 = DIRECTION('',(0.,0.,1.));
#301 = DIRECTION('',(1.,0.,-0.));
#302 = FACE_BOUND('',#303,.T.);
#303 = EDGE_LOOP('',(#304));
#304 = ORIENTED_EDGE('',*,*,#305,.F.);
#305 = EDGE_CURVE('',#306,#306,#308,.T.);
#306 = VERTEX_POINT('',#307);
#307 = CARTESIAN_POINT('',(41.2,-46.,8.));
#308 = CIRCLE('',#309,1.7);
#309 = AXIS2_PLACEMENT_3D('',#310,#311,#312);
#310 = CARTESIAN_POINT('',(39.5,-46.,8.));
#311 = DIRECTION('',(0.,0.,1.));
#312 = DIRECTION('',(1.,0.,-0.));
#313 = FACE_BOUND('',#314,.T.);
#314 = EDGE_LOOP('',(#315));
#315 = ORIENTED_EDGE('',*,*,#316,.F.);
#316 = EDGE_CURVE('',#317,#317,#319,.T.);
#317 = VERTEX_POINT('',#318);
#318 = CARTESIAN_POINT('',(52.244231020714,-43.83811498062,8.));
#319 = CIRCLE('',#320,1.7);
#320 = AXIS2_PLACEMENT_3D('',#321,#322,#323);
#321 = CARTESIAN_POINT('',(50.941955467412,-42.74537604415,8.));
#322 = DIRECTION('',(0.,0.,1.));
#323 = DIRECTION('',(0.766044443119,-0.642787609687,0.));
#324 = FACE_BOUND('',#325,.T.);
#325 = EDGE_LOOP('',(#326));
#326 = ORIENTED_EDGE('',*,*,#327,.F.);
#327 = EDGE_CURVE('',#328,#328,#330,.T.);
#328 = VERTEX_POINT('',#329);
#329 = CARTESIAN_POINT('',(-34.1,59.062932538099,8.));
#330 = CIRCLE('',#331,1.7);
#331 = AXIS2_PLACEMENT_3D('',#332,#333,#334);
#332 = CARTESIAN_POINT('',(-33.25,57.590689351665,8.));
#333 = DIRECTION('',(0.,0.,1.));
#334 = DIRECTION('',(-0.5,0.866025403784,0.));
#335 = PLANE('',#336);
#336 = AXIS2_PLACEMENT_3D('',#337,#338,#339);
#337 = CARTESIAN_POINT('',(0.,0.,8.));
#338 = DIRECTION('',(0.,0.,1.));
#339 = DIRECTION('',(1.,0.,-0.));
#340 = ADVANCED_FACE('',(#341),#359,.T.);
#341 = FACE_BOUND('',#342,.T.);
#342 = EDGE_LOOP('',(#343,#344,#352,#358));
#343 = ORIENTED_EDGE('',*,*,#49,.F.);
#344 = ORIENTED_EDGE('',*,*,#345,.T.);
#345 = EDGE_CURVE('',#41,#346,#348,.T.);
#346 = VERTEX_POINT('',#347);
#347 = CARTESIAN_POINT('',(55.55,-22.,0.));
#348 = LINE('',#349,#350);
#349 = CARTESIAN_POINT('',(27.5,-22.,0.));
#350 = VECTOR('',#351,1.);
#351 = DIRECTION('',(-1.,0.,0.));
#352 = ORIENTED_EDGE('',*,*,#353,.F.);
#353 = EDGE_CURVE('',#73,#346,#354,.T.);
#354 = LINE('',#355,#356);
#355 = CARTESIAN_POINT('',(55.55,-22.,-3.));
#356 = VECTOR('',#357,1.);
#357 = DIRECTION('',(-0.,0.,-1.));
#358 = ORIENTED_EDGE('',*,*,#72,.F.);
#359 = PLANE('',#360);
#360 = AXIS2_PLACEMENT_3D('',#361,#362,#363);
#361 = CARTESIAN_POINT('',(55.,-22.,-3.));
#362 = DIRECTION('',(0.,1.,0.));
#363 = DIRECTION('',(0.,0.,1.));
#364 = ADVANCED_FACE('',(#365,#578,#589,#600,#611,#622),#633,.F.);
#365 = FACE_BOUND('',#366,.F.);
#366 = EDGE_LOOP('',(#367,#375,#376,#377,#385,#393,#401,#409,#417,#425,
    #433,#441,#449,#457,#465,#473,#481,#489,#497,#506,#514,#523,#531,
    #540,#548,#556,#564,#572));
#367 = ORIENTED_EDGE('',*,*,#368,.F.);
#368 = EDGE_CURVE('',#33,#369,#371,.T.);
#369 = VERTEX_POINT('',#370);
#370 = CARTESIAN_POINT('',(55.,22.,0.));
#371 = LINE('',#372,#373);
#372 = CARTESIAN_POINT('',(27.5,22.,0.));
#373 = VECTOR('',#374,1.);
#374 = DIRECTION('',(-1.,0.,0.));
#375 = ORIENTED_EDGE('',*,*,#40,.T.);
#376 = ORIENTED_EDGE('',*,*,#345,.T.);
#377 = ORIENTED_EDGE('',*,*,#378,.F.);
#378 = EDGE_CURVE('',#379,#346,#381,.T.);
#379 = VERTEX_POINT('',#380);
#380 = CARTESIAN_POINT('',(55.55,-25.,0.));
#381 = LINE('',#382,#383);
#382 = CARTESIAN_POINT('',(55.55,-12.5,0.));
#383 = VECTOR('',#384,1.);
#384 = DIRECTION('',(-0.,1.,0.));
#385 = ORIENTED_EDGE('',*,*,#386,.T.);
#386 = EDGE_CURVE('',#379,#387,#389,.T.);
#387 = VERTEX_POINT('',#388);
#388 = CARTESIAN_POINT('',(46.3,-25.,0.));
#389 = LINE('',#390,#391);
#390 = CARTESIAN_POINT('',(22.275,-25.,0.));
#391 = VECTOR('',#392,1.);
#392 = DIRECTION('',(-1.,-0.,0.));
#393 = ORIENTED_EDGE('',*,*,#394,.F.);
#394 = EDGE_CURVE('',#395,#387,#397,.T.);
#395 = VERTEX_POINT('',#396);
#396 = CARTESIAN_POINT('',(46.3,-28.75,0.));
#397 = LINE('',#398,#399);
#398 = CARTESIAN_POINT('',(46.3,-14.375,0.));
#399 = VECTOR('',#400,1.);
#400 = DIRECTION('',(-0.,1.,0.));
#401 = ORIENTED_EDGE('',*,*,#402,.T.);
#402 = EDGE_CURVE('',#395,#403,#405,.T.);
#403 = VERTEX_POINT('',#404);
#404 = CARTESIAN_POINT('',(-9.5,-28.75,0.));
#405 = LINE('',#406,#407);
#406 = CARTESIAN_POINT('',(-21.625,-28.75,0.));
#407 = VECTOR('',#408,1.);
#408 = DIRECTION('',(-1.,-0.,0.));
#409 = ORIENTED_EDGE('',*,*,#410,.F.);
#410 = EDGE_CURVE('',#411,#403,#413,.T.);
#411 = VERTEX_POINT('',#412);
#412 = CARTESIAN_POINT('',(-9.5,-37.,0.));
#413 = LINE('',#414,#415);
#414 = CARTESIAN_POINT('',(-9.5,-18.5,0.));
#415 = VECTOR('',#416,1.);
#416 = DIRECTION('',(-0.,1.,0.));
#417 = ORIENTED_EDGE('',*,*,#418,.T.);
#418 = EDGE_CURVE('',#411,#419,#421,.T.);
#419 = VERTEX_POINT('',#420);
#420 = CARTESIAN_POINT('',(-23.5,-37.,0.));
#421 = LINE('',#422,#423);
#422 = CARTESIAN_POINT('',(-11.75,-37.,0.));
#423 = VECTOR('',#424,1.);
#424 = DIRECTION('',(-1.,-0.,0.));
#425 = ORIENTED_EDGE('',*,*,#426,.T.);
#426 = EDGE_CURVE('',#419,#427,#429,.T.);
#427 = VERTEX_POINT('',#428);
#428 = CARTESIAN_POINT('',(-23.5,-28.75,0.));
#429 = LINE('',#430,#431);
#430 = CARTESIAN_POINT('',(-23.5,-18.5,0.));
#431 = VECTOR('',#432,1.);
#432 = DIRECTION('',(-0.,1.,0.));
#433 = ORIENTED_EDGE('',*,*,#434,.T.);
#434 = EDGE_CURVE('',#427,#435,#437,.T.);
#435 = VERTEX_POINT('',#436);
#436 = CARTESIAN_POINT('',(-26.3,-28.75,0.));
#437 = LINE('',#438,#439);
#438 = CARTESIAN_POINT('',(-21.625,-28.75,0.));
#439 = VECTOR('',#440,1.);
#440 = DIRECTION('',(-1.,-0.,0.));
#441 = ORIENTED_EDGE('',*,*,#442,.F.);
#442 = EDGE_CURVE('',#443,#435,#445,.T.);
#443 = VERTEX_POINT('',#444);
#444 = CARTESIAN_POINT('',(-26.3,-54.,0.));
#445 = LINE('',#446,#447);
#446 = CARTESIAN_POINT('',(-26.3,-27.,0.));
#447 = VECTOR('',#448,1.);
#448 = DIRECTION('',(-0.,1.,0.));
#449 = ORIENTED_EDGE('',*,*,#450,.T.);
#450 = EDGE_CURVE('',#443,#451,#453,.T.);
#451 = VERTEX_POINT('',#452);
#452 = CARTESIAN_POINT('',(-36.3,-54.,0.));
#453 = LINE('',#454,#455);
#454 = CARTESIAN_POINT('',(-18.15,-54.,0.));
#455 = VECTOR('',#456,1.);
#456 = DIRECTION('',(-1.,-0.,0.));
#457 = ORIENTED_EDGE('',*,*,#458,.T.);
#458 = EDGE_CURVE('',#451,#459,#461,.T.);
#459 = VERTEX_POINT('',#460);
#460 = CARTESIAN_POINT('',(-36.3,-28.75,0.));
#461 = LINE('',#462,#463);
#462 = CARTESIAN_POINT('',(-36.3,-27.,0.));
#463 = VECTOR('',#464,1.);
#464 = DIRECTION('',(-0.,1.,0.));
#465 = ORIENTED_EDGE('',*,*,#466,.T.);
#466 = EDGE_CURVE('',#459,#467,#469,.T.);
#467 = VERTEX_POINT('',#468);
#468 = CARTESIAN_POINT('',(-43.25,-28.75,0.));
#469 = LINE('',#470,#471);
#470 = CARTESIAN_POINT('',(-21.625,-28.75,0.));
#471 = VECTOR('',#472,1.);
#472 = DIRECTION('',(-1.,-0.,0.));
#473 = ORIENTED_EDGE('',*,*,#474,.T.);
#474 = EDGE_CURVE('',#467,#475,#477,.T.);
#475 = VERTEX_POINT('',#476);
#476 = CARTESIAN_POINT('',(-43.25,28.75,0.));
#477 = LINE('',#478,#479);
#478 = CARTESIAN_POINT('',(-43.25,-14.375,0.));
#479 = VECTOR('',#480,1.);
#480 = DIRECTION('',(-0.,1.,0.));
#481 = ORIENTED_EDGE('',*,*,#482,.F.);
#482 = EDGE_CURVE('',#483,#475,#485,.T.);
#483 = VERTEX_POINT('',#484);
#484 = CARTESIAN_POINT('',(-5.75,28.75,0.));
#485 = LINE('',#486,#487);
#486 = CARTESIAN_POINT('',(-21.625,28.75,0.));
#487 = VECTOR('',#488,1.);
#488 = DIRECTION('',(-1.,-0.,0.));
#489 = ORIENTED_EDGE('',*,*,#490,.F.);
#490 = EDGE_CURVE('',#491,#483,#493,.T.);
#491 = VERTEX_POINT('',#492);
#492 = CARTESIAN_POINT('',(-5.75,34.228826929126,0.));
#493 = LINE('',#494,#495);
#494 = CARTESIAN_POINT('',(-5.75,13.175,0.));
#495 = VECTOR('',#496,1.);
#496 = DIRECTION('',(-2.22044604925E-16,-1.,0.));
#497 = ORIENTED_EDGE('',*,*,#498,.F.);
#498 = EDGE_CURVE('',#499,#491,#501,.T.);
#499 = VERTEX_POINT('',#500);
#500 = CARTESIAN_POINT('',(-19.25,52.6,0.));
#501 = CIRCLE('',#502,19.25);
#502 = AXIS2_PLACEMENT_3D('',#503,#504,#505);
#503 = CARTESIAN_POINT('',(3.220821081758E-15,52.6,0.));
#504 = DIRECTION('',(0.,0.,1.));
#505 = DIRECTION('',(2.22044604925E-16,1.,-0.));
#506 = ORIENTED_EDGE('',*,*,#507,.F.);
#507 = EDGE_CURVE('',#508,#499,#510,.T.);
#508 = VERTEX_POINT('',#509);
#509 = CARTESIAN_POINT('',(-19.25,55.,0.));
#510 = LINE('',#511,#512);
#511 = CARTESIAN_POINT('',(-19.25,26.3,0.));
#512 = VECTOR('',#513,1.);
#513 = DIRECTION('',(-2.22044604925E-16,-1.,0.));
#514 = ORIENTED_EDGE('',*,*,#515,.F.);
#515 = EDGE_CURVE('',#516,#508,#518,.T.);
#516 = VERTEX_POINT('',#517);
#517 = CARTESIAN_POINT('',(19.25,55.,0.));
#518 = CIRCLE('',#519,19.25);
#519 = AXIS2_PLACEMENT_3D('',#520,#521,#522);
#520 = CARTESIAN_POINT('',(3.367778697655E-15,55.,0.));
#521 = DIRECTION('',(0.,0.,1.));
#522 = DIRECTION('',(2.22044604925E-16,1.,-0.));
#523 = ORIENTED_EDGE('',*,*,#524,.T.);
#524 = EDGE_CURVE('',#516,#525,#527,.T.);
#525 = VERTEX_POINT('',#526);
#526 = CARTESIAN_POINT('',(19.25,52.6,0.));
#527 = LINE('',#528,#529);
#528 = CARTESIAN_POINT('',(19.25,26.3,0.));
#529 = VECTOR('',#530,1.);
#530 = DIRECTION('',(-2.22044604925E-16,-1.,0.));
#531 = ORIENTED_EDGE('',*,*,#532,.F.);
#532 = EDGE_CURVE('',#533,#525,#535,.T.);
#533 = VERTEX_POINT('',#534);
#534 = CARTESIAN_POINT('',(5.75,34.228826929126,0.));
#535 = CIRCLE('',#536,19.25);
#536 = AXIS2_PLACEMENT_3D('',#537,#538,#539);
#537 = CARTESIAN_POINT('',(3.220821081758E-15,52.6,0.));
#538 = DIRECTION('',(0.,0.,1.));
#539 = DIRECTION('',(2.22044604925E-16,1.,-0.));
#540 = ORIENTED_EDGE('',*,*,#541,.T.);
#541 = EDGE_CURVE('',#533,#542,#544,.T.);
#542 = VERTEX_POINT('',#543);
#543 = CARTESIAN_POINT('',(5.75,28.75,0.));
#544 = LINE('',#545,#546);
#545 = CARTESIAN_POINT('',(5.75,13.175,0.));
#546 = VECTOR('',#547,1.);
#547 = DIRECTION('',(-2.22044604925E-16,-1.,0.));
#548 = ORIENTED_EDGE('',*,*,#549,.F.);
#549 = EDGE_CURVE('',#550,#542,#552,.T.);
#550 = VERTEX_POINT('',#551);
#551 = CARTESIAN_POINT('',(46.3,28.75,0.));
#552 = LINE('',#553,#554);
#553 = CARTESIAN_POINT('',(-21.625,28.75,0.));
#554 = VECTOR('',#555,1.);
#555 = DIRECTION('',(-1.,-0.,0.));
#556 = ORIENTED_EDGE('',*,*,#557,.F.);
#557 = EDGE_CURVE('',#558,#550,#560,.T.);
#558 = VERTEX_POINT('',#559);
#559 = CARTESIAN_POINT('',(46.3,-10.5,0.));
#560 = LINE('',#561,#562);
#561 = CARTESIAN_POINT('',(46.3,-14.375,0.));
#562 = VECTOR('',#563,1.);
#563 = DIRECTION('',(-0.,1.,0.));
#564 = ORIENTED_EDGE('',*,*,#565,.F.);
#565 = EDGE_CURVE('',#566,#558,#568,.T.);
#566 = VERTEX_POINT('',#567);
#567 = CARTESIAN_POINT('',(55.,-10.5,0.));
#568 = LINE('',#569,#570);
#569 = CARTESIAN_POINT('',(22.275,-10.5,0.));
#570 = VECTOR('',#571,1.);
#571 = DIRECTION('',(-1.,-0.,0.));
#572 = ORIENTED_EDGE('',*,*,#573,.T.);
#573 = EDGE_CURVE('',#566,#369,#574,.T.);
#574 = LINE('',#575,#576);
#575 = CARTESIAN_POINT('',(55.,-11.,0.));
#576 = VECTOR('',#577,1.);
#577 = DIRECTION('',(0.,1.,0.));
#578 = FACE_BOUND('',#579,.F.);
#579 = EDGE_LOOP('',(#580));
#580 = ORIENTED_EDGE('',*,*,#581,.F.);
#581 = EDGE_CURVE('',#582,#582,#584,.T.);
#582 = VERTEX_POINT('',#583);
#583 = CARTESIAN_POINT('',(-34.87015625,-60.39688229286,0.));
#584 = CIRCLE('',#585,3.2403125);
#585 = AXIS2_PLACEMENT_3D('',#586,#587,#588);
#586 = CARTESIAN_POINT('',(-33.25,-57.59068935166,0.));
#587 = DIRECTION('',(0.,0.,1.));
#588 = DIRECTION('',(-0.5,-0.866025403784,0.));
#589 = FACE_BOUND('',#590,.F.);
#590 = EDGE_LOOP('',(#591));
#591 = ORIENTED_EDGE('',*,*,#592,.F.);
#592 = EDGE_CURVE('',#593,#593,#595,.T.);
#593 = VERTEX_POINT('',#594);
#594 = CARTESIAN_POINT('',(-2.2596875,-46.,0.));
#595 = CIRCLE('',#596,3.2403125);
#596 = AXIS2_PLACEMENT_3D('',#597,#598,#599);
#597 = CARTESIAN_POINT('',(-5.5,-46.,0.));
#598 = DIRECTION('',(0.,0.,1.));
#599 = DIRECTION('',(1.,0.,-0.));
#600 = FACE_BOUND('',#601,.F.);
#601 = EDGE_LOOP('',(#602));
#602 = ORIENTED_EDGE('',*,*,#603,.F.);
#603 = EDGE_CURVE('',#604,#604,#606,.T.);
#604 = VERTEX_POINT('',#605);
#605 = CARTESIAN_POINT('',(42.7403125,-46.,0.));
#606 = CIRCLE('',#607,3.2403125);
#607 = AXIS2_PLACEMENT_3D('',#608,#609,#610);
#608 = CARTESIAN_POINT('',(39.5,-46.,0.));
#609 = DIRECTION('',(0.,0.,1.));
#610 = DIRECTION('',(1.,0.,-0.));
#611 = FACE_BOUND('',#612,.F.);
#612 = EDGE_LOOP('',(#613));
#613 = ORIENTED_EDGE('',*,*,#614,.F.);
#614 = EDGE_CURVE('',#615,#615,#617,.T.);
#615 = VERTEX_POINT('',#616);
#616 = CARTESIAN_POINT('',(53.424178852006,-44.82820877066,0.));
#617 = CIRCLE('',#618,3.2403125);
#618 = AXIS2_PLACEMENT_3D('',#619,#620,#621);
#619 = CARTESIAN_POINT('',(50.941955467412,-42.74537604415,0.));
#620 = DIRECTION('',(0.,0.,1.));
#621 = DIRECTION('',(0.766044443119,-0.642787609687,0.));
#622 = FACE_BOUND('',#623,.F.);
#623 = EDGE_LOOP('',(#624));
#624 = ORIENTED_EDGE('',*,*,#625,.F.);
#625 = EDGE_CURVE('',#626,#626,#628,.T.);
#626 = VERTEX_POINT('',#627);
#627 = CARTESIAN_POINT('',(-34.87015625,60.396882292865,0.));
#628 = CIRCLE('',#629,3.2403125);
#629 = AXIS2_PLACEMENT_3D('',#630,#631,#632);
#630 = CARTESIAN_POINT('',(-33.25,57.590689351665,0.));
#631 = DIRECTION('',(0.,0.,1.));
#632 = DIRECTION('',(-0.5,0.866025403784,0.));
#633 = PLANE('',#634);
#634 = AXIS2_PLACEMENT_3D('',#635,#636,#637);
#635 = CARTESIAN_POINT('',(0.,0.,0.));
#636 = DIRECTION('',(0.,0.,1.));
#637 = DIRECTION('',(1.,0.,-0.));
#638 = ADVANCED_FACE('',(#639),#650,.F.);
#639 = FACE_BOUND('',#640,.F.);
#640 = EDGE_LOOP('',(#641,#642,#648,#649));
#641 = ORIENTED_EDGE('',*,*,#368,.T.);
#642 = ORIENTED_EDGE('',*,*,#643,.T.);
#643 = EDGE_CURVE('',#369,#64,#644,.T.);
#644 = LINE('',#645,#646);
#645 = CARTESIAN_POINT('',(55.,22.,-3.));
#646 = VECTOR('',#647,1.);
#647 = DIRECTION('',(0.,0.,1.));
#648 = ORIENTED_EDGE('',*,*,#63,.F.);
#649 = ORIENTED_EDGE('',*,*,#32,.F.);
#650 = PLANE('',#651);
#651 = AXIS2_PLACEMENT_3D('',#652,#653,#654);
#652 = CARTESIAN_POINT('',(55.,22.,-3.));
#653 = DIRECTION('',(0.,1.,0.));
#654 = DIRECTION('',(0.,0.,1.));
#655 = ADVANCED_FACE('',(#656),#667,.T.);
#656 = FACE_BOUND('',#657,.T.);
#657 = EDGE_LOOP('',(#658,#664,#665,#666));
#658 = ORIENTED_EDGE('',*,*,#659,.F.);
#659 = EDGE_CURVE('',#566,#268,#660,.T.);
#660 = LINE('',#661,#662);
#661 = CARTESIAN_POINT('',(55.,-10.5,-3.));
#662 = VECTOR('',#663,1.);
#663 = DIRECTION('',(0.,-0.,1.));
#664 = ORIENTED_EDGE('',*,*,#573,.T.);
#665 = ORIENTED_EDGE('',*,*,#643,.T.);
#666 = ORIENTED_EDGE('',*,*,#275,.F.);
#667 = PLANE('',#668);
#668 = AXIS2_PLACEMENT_3D('',#669,#670,#671);
#669 = CARTESIAN_POINT('',(55.,-22.,-3.));
#670 = DIRECTION('',(1.,0.,0.));
#671 = DIRECTION('',(0.,0.,1.));
#672 = ADVANCED_FACE('',(#673),#684,.F.);
#673 = FACE_BOUND('',#674,.F.);
#674 = EDGE_LOOP('',(#675,#676,#682,#683));
#675 = ORIENTED_EDGE('',*,*,#565,.T.);
#676 = ORIENTED_EDGE('',*,*,#677,.T.);
#677 = EDGE_CURVE('',#558,#260,#678,.T.);
#678 = LINE('',#679,#680);
#679 = CARTESIAN_POINT('',(46.3,-10.5,-3.));
#680 = VECTOR('',#681,1.);
#681 = DIRECTION('',(0.,0.,1.));
#682 = ORIENTED_EDGE('',*,*,#267,.F.);
#683 = ORIENTED_EDGE('',*,*,#659,.F.);
#684 = PLANE('',#685);
#685 = AXIS2_PLACEMENT_3D('',#686,#687,#688);
#686 = CARTESIAN_POINT('',(44.55,-10.5,-3.));
#687 = DIRECTION('',(-0.,1.,0.));
#688 = DIRECTION('',(0.,0.,1.));
#689 = ADVANCED_FACE('',(#690),#701,.F.);
#690 = FACE_BOUND('',#691,.F.);
#691 = EDGE_LOOP('',(#692,#698,#699,#700));
#692 = ORIENTED_EDGE('',*,*,#693,.F.);
#693 = EDGE_CURVE('',#379,#81,#694,.T.);
#694 = LINE('',#695,#696);
#695 = CARTESIAN_POINT('',(55.55,-25.,-3.));
#696 = VECTOR('',#697,1.);
#697 = DIRECTION('',(0.,0.,1.));
#698 = ORIENTED_EDGE('',*,*,#378,.T.);
#699 = ORIENTED_EDGE('',*,*,#353,.F.);
#700 = ORIENTED_EDGE('',*,*,#80,.F.);
#701 = PLANE('',#702);
#702 = AXIS2_PLACEMENT_3D('',#703,#704,#705);
#703 = CARTESIAN_POINT('',(55.55,-25.,-3.));
#704 = DIRECTION('',(1.,0.,-0.));
#705 = DIRECTION('',(0.,0.,1.));
#706 = ADVANCED_FACE('',(#707),#718,.F.);
#707 = FACE_BOUND('',#708,.F.);
#708 = EDGE_LOOP('',(#709,#710,#711,#712));
#709 = ORIENTED_EDGE('',*,*,#259,.F.);
#710 = ORIENTED_EDGE('',*,*,#677,.F.);
#711 = ORIENTED_EDGE('',*,*,#557,.T.);
#712 = ORIENTED_EDGE('',*,*,#713,.T.);
#713 = EDGE_CURVE('',#550,#252,#714,.T.);
#714 = LINE('',#715,#716);
#715 = CARTESIAN_POINT('',(46.3,28.75,-3.));
#716 = VECTOR('',#717,1.);
#717 = DIRECTION('',(0.,0.,1.));
#718 = PLANE('',#719);
#719 = AXIS2_PLACEMENT_3D('',#720,#721,#722);
#720 = CARTESIAN_POINT('',(46.3,-28.75,-3.));
#721 = DIRECTION('',(1.,0.,-0.));
#722 = DIRECTION('',(0.,0.,1.));
#723 = ADVANCED_FACE('',(#724),#735,.T.);
#724 = FACE_BOUND('',#725,.T.);
#725 = EDGE_LOOP('',(#726,#727,#733,#734));
#726 = ORIENTED_EDGE('',*,*,#386,.T.);
#727 = ORIENTED_EDGE('',*,*,#728,.T.);
#728 = EDGE_CURVE('',#387,#89,#729,.T.);
#729 = LINE('',#730,#731);
#730 = CARTESIAN_POINT('',(46.3,-25.,-3.));
#731 = VECTOR('',#732,1.);
#732 = DIRECTION('',(0.,0.,1.));
#733 = ORIENTED_EDGE('',*,*,#88,.F.);
#734 = ORIENTED_EDGE('',*,*,#693,.F.);
#735 = PLANE('',#736);
#736 = AXIS2_PLACEMENT_3D('',#737,#738,#739);
#737 = CARTESIAN_POINT('',(44.55,-25.,-3.));
#738 = DIRECTION('',(-0.,1.,0.));
#739 = DIRECTION('',(0.,0.,1.));
#740 = ADVANCED_FACE('',(#741),#752,.F.);
#741 = FACE_BOUND('',#742,.F.);
#742 = EDGE_LOOP('',(#743,#744,#745,#751));
#743 = ORIENTED_EDGE('',*,*,#713,.F.);
#744 = ORIENTED_EDGE('',*,*,#549,.T.);
#745 = ORIENTED_EDGE('',*,*,#746,.F.);
#746 = EDGE_CURVE('',#244,#542,#747,.T.);
#747 = LINE('',#748,#749);
#748 = CARTESIAN_POINT('',(5.75,28.75,-3.));
#749 = VECTOR('',#750,1.);
#750 = DIRECTION('',(0.,0.,-1.));
#751 = ORIENTED_EDGE('',*,*,#251,.F.);
#752 = PLANE('',#753);
#753 = AXIS2_PLACEMENT_3D('',#754,#755,#756);
#754 = CARTESIAN_POINT('',(-43.25,28.75,-3.));
#755 = DIRECTION('',(-0.,1.,0.));
#756 = DIRECTION('',(0.,0.,1.));
#757 = ADVANCED_FACE('',(#758),#769,.F.);
#758 = FACE_BOUND('',#759,.F.);
#759 = EDGE_LOOP('',(#760,#761,#767,#768));
#760 = ORIENTED_EDGE('',*,*,#96,.F.);
#761 = ORIENTED_EDGE('',*,*,#762,.F.);
#762 = EDGE_CURVE('',#395,#97,#763,.T.);
#763 = LINE('',#764,#765);
#764 = CARTESIAN_POINT('',(46.3,-28.75,-3.));
#765 = VECTOR('',#766,1.);
#766 = DIRECTION('',(0.,0.,1.));
#767 = ORIENTED_EDGE('',*,*,#394,.T.);
#768 = ORIENTED_EDGE('',*,*,#728,.T.);
#769 = PLANE('',#770);
#770 = AXIS2_PLACEMENT_3D('',#771,#772,#773);
#771 = CARTESIAN_POINT('',(46.3,-28.75,-3.));
#772 = DIRECTION('',(1.,0.,-0.));
#773 = DIRECTION('',(0.,0.,1.));
#774 = ADVANCED_FACE('',(#775),#786,.T.);
#775 = FACE_BOUND('',#776,.T.);
#776 = EDGE_LOOP('',(#777,#783,#784,#785));
#777 = ORIENTED_EDGE('',*,*,#778,.F.);
#778 = EDGE_CURVE('',#533,#235,#779,.T.);
#779 = LINE('',#780,#781);
#780 = CARTESIAN_POINT('',(5.75,34.228826929126,-3.));
#781 = VECTOR('',#782,1.);
#782 = DIRECTION('',(0.,0.,1.));
#783 = ORIENTED_EDGE('',*,*,#541,.T.);
#784 = ORIENTED_EDGE('',*,*,#746,.F.);
#785 = ORIENTED_EDGE('',*,*,#243,.F.);
#786 = PLANE('',#787);
#787 = AXIS2_PLACEMENT_3D('',#788,#789,#790);
#788 = CARTESIAN_POINT('',(5.75,26.35,-3.));
#789 = DIRECTION('',(-1.,2.22044604925E-16,0.));
#790 = DIRECTION('',(0.,0.,1.));
#791 = ADVANCED_FACE('',(#792),#803,.T.);
#792 = FACE_BOUND('',#793,.T.);
#793 = EDGE_LOOP('',(#794,#795,#801,#802));
#794 = ORIENTED_EDGE('',*,*,#402,.T.);
#795 = ORIENTED_EDGE('',*,*,#796,.F.);
#796 = EDGE_CURVE('',#105,#403,#797,.T.);
#797 = LINE('',#798,#799);
#798 = CARTESIAN_POINT('',(-9.5,-28.75,-3.));
#799 = VECTOR('',#800,1.);
#800 = DIRECTION('',(-0.,0.,-1.));
#801 = ORIENTED_EDGE('',*,*,#104,.F.);
#802 = ORIENTED_EDGE('',*,*,#762,.F.);
#803 = PLANE('',#804);
#804 = AXIS2_PLACEMENT_3D('',#805,#806,#807);
#805 = CARTESIAN_POINT('',(-43.25,-28.75,-3.));
#806 = DIRECTION('',(-0.,1.,0.));
#807 = DIRECTION('',(0.,0.,1.));
#808 = ADVANCED_FACE('',(#809),#820,.F.);
#809 = FACE_BOUND('',#810,.F.);
#810 = EDGE_LOOP('',(#811,#812,#813,#814));
#811 = ORIENTED_EDGE('',*,*,#234,.F.);
#812 = ORIENTED_EDGE('',*,*,#778,.F.);
#813 = ORIENTED_EDGE('',*,*,#532,.T.);
#814 = ORIENTED_EDGE('',*,*,#815,.T.);
#815 = EDGE_CURVE('',#525,#227,#816,.T.);
#816 = LINE('',#817,#818);
#817 = CARTESIAN_POINT('',(19.25,52.6,-3.));
#818 = VECTOR('',#819,1.);
#819 = DIRECTION('',(0.,0.,1.));
#820 = CYLINDRICAL_SURFACE('',#821,19.25);
#821 = AXIS2_PLACEMENT_3D('',#822,#823,#824);
#822 = CARTESIAN_POINT('',(3.220821081758E-15,52.6,-3.));
#823 = DIRECTION('',(0.,0.,1.));
#824 = DIRECTION('',(2.22044604925E-16,1.,0.));
#825 = ADVANCED_FACE('',(#826),#837,.F.);
#826 = FACE_BOUND('',#827,.F.);
#827 = EDGE_LOOP('',(#828,#829,#835,#836));
#828 = ORIENTED_EDGE('',*,*,#112,.F.);
#829 = ORIENTED_EDGE('',*,*,#830,.F.);
#830 = EDGE_CURVE('',#411,#113,#831,.T.);
#831 = LINE('',#832,#833);
#832 = CARTESIAN_POINT('',(-9.5,-37.,-3.));
#833 = VECTOR('',#834,1.);
#834 = DIRECTION('',(0.,0.,1.));
#835 = ORIENTED_EDGE('',*,*,#410,.T.);
#836 = ORIENTED_EDGE('',*,*,#796,.F.);
#837 = PLANE('',#838);
#838 = AXIS2_PLACEMENT_3D('',#839,#840,#841);
#839 = CARTESIAN_POINT('',(-9.5,-37.,-3.));
#840 = DIRECTION('',(1.,0.,-0.));
#841 = DIRECTION('',(0.,0.,1.));
#842 = ADVANCED_FACE('',(#843),#854,.T.);
#843 = FACE_BOUND('',#844,.T.);
#844 = EDGE_LOOP('',(#845,#851,#852,#853));
#845 = ORIENTED_EDGE('',*,*,#846,.F.);
#846 = EDGE_CURVE('',#516,#218,#847,.T.);
#847 = LINE('',#848,#849);
#848 = CARTESIAN_POINT('',(19.25,55.,-3.));
#849 = VECTOR('',#850,1.);
#850 = DIRECTION('',(0.,0.,1.));
#851 = ORIENTED_EDGE('',*,*,#524,.T.);
#852 = ORIENTED_EDGE('',*,*,#815,.T.);
#853 = ORIENTED_EDGE('',*,*,#226,.F.);
#854 = PLANE('',#855);
#855 = AXIS2_PLACEMENT_3D('',#856,#857,#858);
#856 = CARTESIAN_POINT('',(19.25,52.6,-3.));
#857 = DIRECTION('',(-1.,2.22044604925E-16,0.));
#858 = DIRECTION('',(0.,0.,1.));
#859 = ADVANCED_FACE('',(#860),#871,.T.);
#860 = FACE_BOUND('',#861,.T.);
#861 = EDGE_LOOP('',(#862,#863,#864,#870));
#862 = ORIENTED_EDGE('',*,*,#830,.F.);
#863 = ORIENTED_EDGE('',*,*,#418,.T.);
#864 = ORIENTED_EDGE('',*,*,#865,.T.);
#865 = EDGE_CURVE('',#419,#121,#866,.T.);
#866 = LINE('',#867,#868);
#867 = CARTESIAN_POINT('',(-23.5,-37.,-3.));
#868 = VECTOR('',#869,1.);
#869 = DIRECTION('',(0.,0.,1.));
#870 = ORIENTED_EDGE('',*,*,#120,.F.);
#871 = PLANE('',#872);
#872 = AXIS2_PLACEMENT_3D('',#873,#874,#875);
#873 = CARTESIAN_POINT('',(-23.5,-37.,-3.));
#874 = DIRECTION('',(-0.,1.,0.));
#875 = DIRECTION('',(0.,0.,1.));
#876 = ADVANCED_FACE('',(#877),#888,.F.);
#877 = FACE_BOUND('',#878,.F.);
#878 = EDGE_LOOP('',(#879,#880,#881,#887));
#879 = ORIENTED_EDGE('',*,*,#846,.F.);
#880 = ORIENTED_EDGE('',*,*,#515,.T.);
#881 = ORIENTED_EDGE('',*,*,#882,.T.);
#882 = EDGE_CURVE('',#508,#210,#883,.T.);
#883 = LINE('',#884,#885);
#884 = CARTESIAN_POINT('',(-19.25,55.,-3.));
#885 = VECTOR('',#886,1.);
#886 = DIRECTION('',(0.,0.,1.));
#887 = ORIENTED_EDGE('',*,*,#217,.F.);
#888 = CYLINDRICAL_SURFACE('',#889,19.25);
#889 = AXIS2_PLACEMENT_3D('',#890,#891,#892);
#890 = CARTESIAN_POINT('',(3.367778697655E-15,55.,-3.));
#891 = DIRECTION('',(0.,0.,1.));
#892 = DIRECTION('',(2.22044604925E-16,1.,0.));
#893 = ADVANCED_FACE('',(#894),#905,.T.);
#894 = FACE_BOUND('',#895,.T.);
#895 = EDGE_LOOP('',(#896,#897,#898,#899));
#896 = ORIENTED_EDGE('',*,*,#128,.F.);
#897 = ORIENTED_EDGE('',*,*,#865,.F.);
#898 = ORIENTED_EDGE('',*,*,#426,.T.);
#899 = ORIENTED_EDGE('',*,*,#900,.F.);
#900 = EDGE_CURVE('',#129,#427,#901,.T.);
#901 = LINE('',#902,#903);
#902 = CARTESIAN_POINT('',(-23.5,-28.75,-3.));
#903 = VECTOR('',#904,1.);
#904 = DIRECTION('',(-0.,0.,-1.));
#905 = PLANE('',#906);
#906 = AXIS2_PLACEMENT_3D('',#907,#908,#909);
#907 = CARTESIAN_POINT('',(-23.5,-37.,-3.));
#908 = DIRECTION('',(1.,0.,-0.));
#909 = DIRECTION('',(0.,0.,1.));
#910 = ADVANCED_FACE('',(#911),#922,.F.);
#911 = FACE_BOUND('',#912,.F.);
#912 = EDGE_LOOP('',(#913,#914,#915,#921));
#913 = ORIENTED_EDGE('',*,*,#882,.F.);
#914 = ORIENTED_EDGE('',*,*,#507,.T.);
#915 = ORIENTED_EDGE('',*,*,#916,.T.);
#916 = EDGE_CURVE('',#499,#201,#917,.T.);
#917 = LINE('',#918,#919);
#918 = CARTESIAN_POINT('',(-19.25,52.6,-3.));
#919 = VECTOR('',#920,1.);
#920 = DIRECTION('',(0.,0.,1.));
#921 = ORIENTED_EDGE('',*,*,#209,.F.);
#922 = PLANE('',#923);
#923 = AXIS2_PLACEMENT_3D('',#924,#925,#926);
#924 = CARTESIAN_POINT('',(-19.25,52.6,-3.));
#925 = DIRECTION('',(-1.,2.22044604925E-16,0.));
#926 = DIRECTION('',(0.,0.,1.));
#927 = ADVANCED_FACE('',(#928),#939,.T.);
#928 = FACE_BOUND('',#929,.T.);
#929 = EDGE_LOOP('',(#930,#931,#937,#938));
#930 = ORIENTED_EDGE('',*,*,#434,.T.);
#931 = ORIENTED_EDGE('',*,*,#932,.F.);
#932 = EDGE_CURVE('',#137,#435,#933,.T.);
#933 = LINE('',#934,#935);
#934 = CARTESIAN_POINT('',(-26.3,-28.75,-3.));
#935 = VECTOR('',#936,1.);
#936 = DIRECTION('',(-0.,0.,-1.));
#937 = ORIENTED_EDGE('',*,*,#136,.F.);
#938 = ORIENTED_EDGE('',*,*,#900,.T.);
#939 = PLANE('',#940);
#940 = AXIS2_PLACEMENT_3D('',#941,#942,#943);
#941 = CARTESIAN_POINT('',(-43.25,-28.75,-3.));
#942 = DIRECTION('',(-0.,1.,0.));
#943 = DIRECTION('',(0.,0.,1.));
#944 = ADVANCED_FACE('',(#945),#956,.F.);
#945 = FACE_BOUND('',#946,.F.);
#946 = EDGE_LOOP('',(#947,#948,#949,#950));
#947 = ORIENTED_EDGE('',*,*,#200,.F.);
#948 = ORIENTED_EDGE('',*,*,#916,.F.);
#949 = ORIENTED_EDGE('',*,*,#498,.T.);
#950 = ORIENTED_EDGE('',*,*,#951,.T.);
#951 = EDGE_CURVE('',#491,#193,#952,.T.);
#952 = LINE('',#953,#954);
#953 = CARTESIAN_POINT('',(-5.75,34.228826929126,-3.));
#954 = VECTOR('',#955,1.);
#955 = DIRECTION('',(0.,0.,1.));
#956 = CYLINDRICAL_SURFACE('',#957,19.25);
#957 = AXIS2_PLACEMENT_3D('',#958,#959,#960);
#958 = CARTESIAN_POINT('',(3.220821081758E-15,52.6,-3.));
#959 = DIRECTION('',(0.,0.,1.));
#960 = DIRECTION('',(2.22044604925E-16,1.,0.));
#961 = ADVANCED_FACE('',(#962),#973,.F.);
#962 = FACE_BOUND('',#963,.F.);
#963 = EDGE_LOOP('',(#964,#965,#971,#972));
#964 = ORIENTED_EDGE('',*,*,#144,.F.);
#965 = ORIENTED_EDGE('',*,*,#966,.F.);
#966 = EDGE_CURVE('',#443,#145,#967,.T.);
#967 = LINE('',#968,#969);
#968 = CARTESIAN_POINT('',(-26.3,-54.,-3.));
#969 = VECTOR('',#970,1.);
#970 = DIRECTION('',(0.,0.,1.));
#971 = ORIENTED_EDGE('',*,*,#442,.T.);
#972 = ORIENTED_EDGE('',*,*,#932,.F.);
#973 = PLANE('',#974);
#974 = AXIS2_PLACEMENT_3D('',#975,#976,#977);
#975 = CARTESIAN_POINT('',(-26.3,-54.,-3.));
#976 = DIRECTION('',(1.,0.,-0.));
#977 = DIRECTION('',(0.,0.,1.));
#978 = ADVANCED_FACE('',(#979),#990,.F.);
#979 = FACE_BOUND('',#980,.F.);
#980 = EDGE_LOOP('',(#981,#982,#983,#989));
#981 = ORIENTED_EDGE('',*,*,#951,.F.);
#982 = ORIENTED_EDGE('',*,*,#490,.T.);
#983 = ORIENTED_EDGE('',*,*,#984,.F.);
#984 = EDGE_CURVE('',#185,#483,#985,.T.);
#985 = LINE('',#986,#987);
#986 = CARTESIAN_POINT('',(-5.75,28.75,-3.));
#987 = VECTOR('',#988,1.);
#988 = DIRECTION('',(0.,0.,-1.));
#989 = ORIENTED_EDGE('',*,*,#192,.F.);
#990 = PLANE('',#991);
#991 = AXIS2_PLACEMENT_3D('',#992,#993,#994);
#992 = CARTESIAN_POINT('',(-5.75,26.35,-3.));
#993 = DIRECTION('',(-1.,2.22044604925E-16,0.));
#994 = DIRECTION('',(0.,0.,1.));
#995 = ADVANCED_FACE('',(#996),#1007,.T.);
#996 = FACE_BOUND('',#997,.T.);
#997 = EDGE_LOOP('',(#998,#999,#1000,#1006));
#998 = ORIENTED_EDGE('',*,*,#966,.F.);
#999 = ORIENTED_EDGE('',*,*,#450,.T.);
#1000 = ORIENTED_EDGE('',*,*,#1001,.T.);
#1001 = EDGE_CURVE('',#451,#153,#1002,.T.);
#1002 = LINE('',#1003,#1004);
#1003 = CARTESIAN_POINT('',(-36.3,-54.,-3.));
#1004 = VECTOR('',#1005,1.);
#1005 = DIRECTION('',(0.,0.,1.));
#1006 = ORIENTED_EDGE('',*,*,#152,.F.);
#1007 = PLANE('',#1008);
#1008 = AXIS2_PLACEMENT_3D('',#1009,#1010,#1011);
#1009 = CARTESIAN_POINT('',(-36.3,-54.,-3.));
#1010 = DIRECTION('',(-0.,1.,0.));
#1011 = DIRECTION('',(0.,0.,1.));
#1012 = ADVANCED_FACE('',(#1013),#1024,.F.);
#1013 = FACE_BOUND('',#1014,.F.);
#1014 = EDGE_LOOP('',(#1015,#1016,#1022,#1023));
#1015 = ORIENTED_EDGE('',*,*,#482,.T.);
#1016 = ORIENTED_EDGE('',*,*,#1017,.T.);
#1017 = EDGE_CURVE('',#475,#177,#1018,.T.);
#1018 = LINE('',#1019,#1020);
#1019 = CARTESIAN_POINT('',(-43.25,28.75,-3.));
#1020 = VECTOR('',#1021,1.);
#1021 = DIRECTION('',(0.,0.,1.));
#1022 = ORIENTED_EDGE('',*,*,#184,.F.);
#1023 = ORIENTED_EDGE('',*,*,#984,.T.);
#1024 = PLANE('',#1025);
#1025 = AXIS2_PLACEMENT_3D('',#1026,#1027,#1028);
#1026 = CARTESIAN_POINT('',(-43.25,28.75,-3.));
#1027 = DIRECTION('',(-0.,1.,0.));
#1028 = DIRECTION('',(0.,0.,1.));
#1029 = ADVANCED_FACE('',(#1030),#1041,.T.);
#1030 = FACE_BOUND('',#1031,.T.);
#1031 = EDGE_LOOP('',(#1032,#1033,#1034,#1035));
#1032 = ORIENTED_EDGE('',*,*,#160,.F.);
#1033 = ORIENTED_EDGE('',*,*,#1001,.F.);
#1034 = ORIENTED_EDGE('',*,*,#458,.T.);
#1035 = ORIENTED_EDGE('',*,*,#1036,.F.);
#1036 = EDGE_CURVE('',#161,#459,#1037,.T.);
#1037 = LINE('',#1038,#1039);
#1038 = CARTESIAN_POINT('',(-36.3,-28.75,-3.));
#1039 = VECTOR('',#1040,1.);
#1040 = DIRECTION('',(-0.,0.,-1.));
#1041 = PLANE('',#1042);
#1042 = AXIS2_PLACEMENT_3D('',#1043,#1044,#1045);
#1043 = CARTESIAN_POINT('',(-36.3,-54.,-3.));
#1044 = DIRECTION('',(1.,0.,-0.));
#1045 = DIRECTION('',(0.,0.,1.));
#1046 = ADVANCED_FACE('',(#1047),#1058,.T.);
#1047 = FACE_BOUND('',#1048,.T.);
#1048 = EDGE_LOOP('',(#1049,#1055,#1056,#1057));
#1049 = ORIENTED_EDGE('',*,*,#1050,.F.);
#1050 = EDGE_CURVE('',#467,#169,#1051,.T.);
#1051 = LINE('',#1052,#1053);
#1052 = CARTESIAN_POINT('',(-43.25,-28.75,-3.));
#1053 = VECTOR('',#1054,1.);
#1054 = DIRECTION('',(0.,0.,1.));
#1055 = ORIENTED_EDGE('',*,*,#474,.T.);
#1056 = ORIENTED_EDGE('',*,*,#1017,.T.);
#1057 = ORIENTED_EDGE('',*,*,#176,.F.);
#1058 = PLANE('',#1059);
#1059 = AXIS2_PLACEMENT_3D('',#1060,#1061,#1062);
#1060 = CARTESIAN_POINT('',(-43.25,-28.75,-3.));
#1061 = DIRECTION('',(1.,0.,-0.));
#1062 = DIRECTION('',(0.,0.,1.));
#1063 = ADVANCED_FACE('',(#1064),#1070,.T.);
#1064 = FACE_BOUND('',#1065,.T.);
#1065 = EDGE_LOOP('',(#1066,#1067,#1068,#1069));
#1066 = ORIENTED_EDGE('',*,*,#466,.T.);
#1067 = ORIENTED_EDGE('',*,*,#1050,.T.);
#1068 = ORIENTED_EDGE('',*,*,#168,.F.);
#1069 = ORIENTED_EDGE('',*,*,#1036,.T.);
#1070 = PLANE('',#1071);
#1071 = AXIS2_PLACEMENT_3D('',#1072,#1073,#1074);
#1072 = CARTESIAN_POINT('',(-43.25,-28.75,-3.));
#1073 = DIRECTION('',(-0.,1.,0.));
#1074 = DIRECTION('',(0.,0.,1.));
#1075 = ADVANCED_FACE('',(#1076),#1095,.F.);
#1076 = FACE_BOUND('',#1077,.F.);
#1077 = EDGE_LOOP('',(#1078,#1087,#1093,#1094));
#1078 = ORIENTED_EDGE('',*,*,#1079,.T.);
#1079 = EDGE_CURVE('',#1080,#1080,#1082,.T.);
#1080 = VERTEX_POINT('',#1081);
#1081 = CARTESIAN_POINT('',(-34.1,-59.06293253809,1.59));
#1082 = CIRCLE('',#1083,1.7);
#1083 = AXIS2_PLACEMENT_3D('',#1084,#1085,#1086);
#1084 = CARTESIAN_POINT('',(-33.25,-57.59068935166,1.59));
#1085 = DIRECTION('',(0.,0.,1.));
#1086 = DIRECTION('',(-0.5,-0.866025403784,0.));
#1087 = ORIENTED_EDGE('',*,*,#1088,.T.);
#1088 = EDGE_CURVE('',#1080,#284,#1089,.T.);
#1089 = LINE('',#1090,#1091);
#1090 = CARTESIAN_POINT('',(-34.1,-59.06293253809,-1.));
#1091 = VECTOR('',#1092,1.);
#1092 = DIRECTION('',(0.,0.,1.));
#1093 = ORIENTED_EDGE('',*,*,#283,.F.);
#1094 = ORIENTED_EDGE('',*,*,#1088,.F.);
#1095 = CYLINDRICAL_SURFACE('',#1096,1.7);
#1096 = AXIS2_PLACEMENT_3D('',#1097,#1098,#1099);
#1097 = CARTESIAN_POINT('',(-33.25,-57.59068935166,-1.));
#1098 = DIRECTION('',(0.,0.,1.));
#1099 = DIRECTION('',(-0.5,-0.866025403784,0.));
#1100 = ADVANCED_FACE('',(#1101),#1120,.F.);
#1101 = FACE_BOUND('',#1102,.F.);
#1102 = EDGE_LOOP('',(#1103,#1112,#1118,#1119));
#1103 = ORIENTED_EDGE('',*,*,#1104,.T.);
#1104 = EDGE_CURVE('',#1105,#1105,#1107,.T.);
#1105 = VERTEX_POINT('',#1106);
#1106 = CARTESIAN_POINT('',(-3.8,-46.,1.59));
#1107 = CIRCLE('',#1108,1.7);
#1108 = AXIS2_PLACEMENT_3D('',#1109,#1110,#1111);
#1109 = CARTESIAN_POINT('',(-5.5,-46.,1.59));
#1110 = DIRECTION('',(0.,0.,1.));
#1111 = DIRECTION('',(1.,0.,-0.));
#1112 = ORIENTED_EDGE('',*,*,#1113,.T.);
#1113 = EDGE_CURVE('',#1105,#295,#1114,.T.);
#1114 = LINE('',#1115,#1116);
#1115 = CARTESIAN_POINT('',(-3.8,-46.,-1.));
#1116 = VECTOR('',#1117,1.);
#1117 = DIRECTION('',(0.,0.,1.));
#1118 = ORIENTED_EDGE('',*,*,#294,.F.);
#1119 = ORIENTED_EDGE('',*,*,#1113,.F.);
#1120 = CYLINDRICAL_SURFACE('',#1121,1.7);
#1121 = AXIS2_PLACEMENT_3D('',#1122,#1123,#1124);
#1122 = CARTESIAN_POINT('',(-5.5,-46.,-1.));
#1123 = DIRECTION('',(0.,0.,1.));
#1124 = DIRECTION('',(1.,0.,-0.));
#1125 = ADVANCED_FACE('',(#1126),#1145,.F.);
#1126 = FACE_BOUND('',#1127,.F.);
#1127 = EDGE_LOOP('',(#1128,#1137,#1143,#1144));
#1128 = ORIENTED_EDGE('',*,*,#1129,.T.);
#1129 = EDGE_CURVE('',#1130,#1130,#1132,.T.);
#1130 = VERTEX_POINT('',#1131);
#1131 = CARTESIAN_POINT('',(41.2,-46.,1.59));
#1132 = CIRCLE('',#1133,1.7);
#1133 = AXIS2_PLACEMENT_3D('',#1134,#1135,#1136);
#1134 = CARTESIAN_POINT('',(39.5,-46.,1.59));
#1135 = DIRECTION('',(0.,0.,1.));
#1136 = DIRECTION('',(1.,0.,-0.));
#1137 = ORIENTED_EDGE('',*,*,#1138,.T.);
#1138 = EDGE_CURVE('',#1130,#306,#1139,.T.);
#1139 = LINE('',#1140,#1141);
#1140 = CARTESIAN_POINT('',(41.2,-46.,-1.));
#1141 = VECTOR('',#1142,1.);
#1142 = DIRECTION('',(0.,0.,1.));
#1143 = ORIENTED_EDGE('',*,*,#305,.F.);
#1144 = ORIENTED_EDGE('',*,*,#1138,.F.);
#1145 = CYLINDRICAL_SURFACE('',#1146,1.7);
#1146 = AXIS2_PLACEMENT_3D('',#1147,#1148,#1149);
#1147 = CARTESIAN_POINT('',(39.5,-46.,-1.));
#1148 = DIRECTION('',(0.,0.,1.));
#1149 = DIRECTION('',(1.,0.,-0.));
#1150 = ADVANCED_FACE('',(#1151),#1170,.F.);
#1151 = FACE_BOUND('',#1152,.F.);
#1152 = EDGE_LOOP('',(#1153,#1162,#1168,#1169));
#1153 = ORIENTED_EDGE('',*,*,#1154,.T.);
#1154 = EDGE_CURVE('',#1155,#1155,#1157,.T.);
#1155 = VERTEX_POINT('',#1156);
#1156 = CARTESIAN_POINT('',(52.244231020714,-43.83811498062,1.59));
#1157 = CIRCLE('',#1158,1.7);
#1158 = AXIS2_PLACEMENT_3D('',#1159,#1160,#1161);
#1159 = CARTESIAN_POINT('',(50.941955467412,-42.74537604415,1.59));
#1160 = DIRECTION('',(-0.,0.,1.));
#1161 = DIRECTION('',(0.766044443119,-0.642787609687,0.));
#1162 = ORIENTED_EDGE('',*,*,#1163,.T.);
#1163 = EDGE_CURVE('',#1155,#317,#1164,.T.);
#1164 = LINE('',#1165,#1166);
#1165 = CARTESIAN_POINT('',(52.244231020714,-43.83811498062,-1.));
#1166 = VECTOR('',#1167,1.);
#1167 = DIRECTION('',(0.,0.,1.));
#1168 = ORIENTED_EDGE('',*,*,#316,.F.);
#1169 = ORIENTED_EDGE('',*,*,#1163,.F.);
#1170 = CYLINDRICAL_SURFACE('',#1171,1.7);
#1171 = AXIS2_PLACEMENT_3D('',#1172,#1173,#1174);
#1172 = CARTESIAN_POINT('',(50.941955467412,-42.74537604415,-1.));
#1173 = DIRECTION('',(0.,0.,1.));
#1174 = DIRECTION('',(0.766044443119,-0.642787609687,0.));
#1175 = ADVANCED_FACE('',(#1176),#1195,.F.);
#1176 = FACE_BOUND('',#1177,.F.);
#1177 = EDGE_LOOP('',(#1178,#1187,#1193,#1194));
#1178 = ORIENTED_EDGE('',*,*,#1179,.T.);
#1179 = EDGE_CURVE('',#1180,#1180,#1182,.T.);
#1180 = VERTEX_POINT('',#1181);
#1181 = CARTESIAN_POINT('',(-34.1,59.062932538099,1.59));
#1182 = CIRCLE('',#1183,1.7);
#1183 = AXIS2_PLACEMENT_3D('',#1184,#1185,#1186);
#1184 = CARTESIAN_POINT('',(-33.25,57.590689351665,1.59));
#1185 = DIRECTION('',(0.,0.,1.));
#1186 = DIRECTION('',(-0.5,0.866025403784,0.));
#1187 = ORIENTED_EDGE('',*,*,#1188,.T.);
#1188 = EDGE_CURVE('',#1180,#328,#1189,.T.);
#1189 = LINE('',#1190,#1191);
#1190 = CARTESIAN_POINT('',(-34.1,59.062932538099,-1.));
#1191 = VECTOR('',#1192,1.);
#1192 = DIRECTION('',(0.,0.,1.));
#1193 = ORIENTED_EDGE('',*,*,#327,.F.);
#1194 = ORIENTED_EDGE('',*,*,#1188,.F.);
#1195 = CYLINDRICAL_SURFACE('',#1196,1.7);
#1196 = AXIS2_PLACEMENT_3D('',#1197,#1198,#1199);
#1197 = CARTESIAN_POINT('',(-33.25,57.590689351665,-1.));
#1198 = DIRECTION('',(0.,0.,1.));
#1199 = DIRECTION('',(-0.5,0.866025403784,0.));
#1200 = ADVANCED_FACE('',(#1201),#1212,.F.);
#1201 = FACE_BOUND('',#1202,.F.);
#1202 = EDGE_LOOP('',(#1203,#1209,#1210,#1211));
#1203 = ORIENTED_EDGE('',*,*,#1204,.T.);
#1204 = EDGE_CURVE('',#582,#1080,#1205,.T.);
#1205 = LINE('',#1206,#1207);
#1206 = CARTESIAN_POINT('',(-34.875,-60.40527191396,-1.E-02));
#1207 = VECTOR('',#1208,1.);
#1208 = DIRECTION('',(0.347897607914,0.602576332738,0.718240222789));
#1209 = ORIENTED_EDGE('',*,*,#1079,.F.);
#1210 = ORIENTED_EDGE('',*,*,#1204,.F.);
#1211 = ORIENTED_EDGE('',*,*,#581,.T.);
#1212 = CONICAL_SURFACE('',#1213,3.25,0.769526480406);
#1213 = AXIS2_PLACEMENT_3D('',#1214,#1215,#1216);
#1214 = CARTESIAN_POINT('',(-33.25,-57.59068935166,-1.E-02));
#1215 = DIRECTION('',(0.,0.,-1.));
#1216 = DIRECTION('',(-0.5,-0.866025403784,0.));
#1217 = ADVANCED_FACE('',(#1218),#1229,.F.);
#1218 = FACE_BOUND('',#1219,.F.);
#1219 = EDGE_LOOP('',(#1220,#1226,#1227,#1228));
#1220 = ORIENTED_EDGE('',*,*,#1221,.T.);
#1221 = EDGE_CURVE('',#593,#1105,#1222,.T.);
#1222 = LINE('',#1223,#1224);
#1223 = CARTESIAN_POINT('',(-2.25,-46.,-1.E-02));
#1224 = VECTOR('',#1225,1.);
#1225 = DIRECTION('',(-0.695795215827,1.704206767849E-16,0.718240222789)
  );
#1226 = ORIENTED_EDGE('',*,*,#1104,.F.);
#1227 = ORIENTED_EDGE('',*,*,#1221,.F.);
#1228 = ORIENTED_EDGE('',*,*,#592,.T.);
#1229 = CONICAL_SURFACE('',#1230,3.25,0.769526480406);
#1230 = AXIS2_PLACEMENT_3D('',#1231,#1232,#1233);
#1231 = CARTESIAN_POINT('',(-5.5,-46.,-1.E-02));
#1232 = DIRECTION('',(-0.,-0.,-1.));
#1233 = DIRECTION('',(1.,0.,-0.));
#1234 = ADVANCED_FACE('',(#1235),#1246,.F.);
#1235 = FACE_BOUND('',#1236,.F.);
#1236 = EDGE_LOOP('',(#1237,#1243,#1244,#1245));
#1237 = ORIENTED_EDGE('',*,*,#1238,.T.);
#1238 = EDGE_CURVE('',#604,#1130,#1239,.T.);
#1239 = LINE('',#1240,#1241);
#1240 = CARTESIAN_POINT('',(42.75,-46.,-1.E-02));
#1241 = VECTOR('',#1242,1.);
#1242 = DIRECTION('',(-0.695795215827,1.704206767849E-16,0.718240222789)
  );
#1243 = ORIENTED_EDGE('',*,*,#1129,.F.);
#1244 = ORIENTED_EDGE('',*,*,#1238,.F.);
#1245 = ORIENTED_EDGE('',*,*,#603,.T.);
#1246 = CONICAL_SURFACE('',#1247,3.25,0.769526480406);
#1247 = AXIS2_PLACEMENT_3D('',#1248,#1249,#1250);
#1248 = CARTESIAN_POINT('',(39.5,-46.,-1.E-02));
#1249 = DIRECTION('',(-0.,-0.,-1.));
#1250 = DIRECTION('',(1.,0.,-0.));
#1251 = ADVANCED_FACE('',(#1252),#1263,.F.);
#1252 = FACE_BOUND('',#1253,.F.);
#1253 = EDGE_LOOP('',(#1254,#1260,#1261,#1262));
#1254 = ORIENTED_EDGE('',*,*,#1255,.T.);
#1255 = EDGE_CURVE('',#615,#1155,#1256,.T.);
#1256 = LINE('',#1257,#1258);
#1257 = CARTESIAN_POINT('',(53.431599907549,-44.83443577563,-1.E-02));
#1258 = VECTOR('',#1259,1.);
#1259 = DIRECTION('',(-0.533010058633,0.447248543613,0.718240222789));
#1260 = ORIENTED_EDGE('',*,*,#1154,.F.);
#1261 = ORIENTED_EDGE('',*,*,#1255,.F.);
#1262 = ORIENTED_EDGE('',*,*,#614,.T.);
#1263 = CONICAL_SURFACE('',#1264,3.25,0.769526480406);
#1264 = AXIS2_PLACEMENT_3D('',#1265,#1266,#1267);
#1265 = CARTESIAN_POINT('',(50.941955467412,-42.74537604415,-1.E-02));
#1266 = DIRECTION('',(-0.,0.,-1.));
#1267 = DIRECTION('',(0.766044443119,-0.642787609687,0.));
#1268 = ADVANCED_FACE('',(#1269),#1280,.F.);
#1269 = FACE_BOUND('',#1270,.F.);
#1270 = EDGE_LOOP('',(#1271,#1277,#1278,#1279));
#1271 = ORIENTED_EDGE('',*,*,#1272,.T.);
#1272 = EDGE_CURVE('',#626,#1180,#1273,.T.);
#1273 = LINE('',#1274,#1275);
#1274 = CARTESIAN_POINT('',(-34.875,60.405271913965,-1.E-02));
#1275 = VECTOR('',#1276,1.);
#1276 = DIRECTION('',(0.347897607914,-0.602576332738,0.718240222789));
#1277 = ORIENTED_EDGE('',*,*,#1179,.F.);
#1278 = ORIENTED_EDGE('',*,*,#1272,.F.);
#1279 = ORIENTED_EDGE('',*,*,#625,.T.);
#1280 = CONICAL_SURFACE('',#1281,3.25,0.769526480406);
#1281 = AXIS2_PLACEMENT_3D('',#1282,#1283,#1284);
#1282 = CARTESIAN_POINT('',(-33.25,57.590689351665,-1.E-02));
#1283 = DIRECTION('',(0.,0.,-1.));
#1284 = DIRECTION('',(-0.5,0.866025403784,0.));
#1285 = ( GEOMETRIC_REPRESENTATION_CONTEXT(3) 
GLOBAL_UNCERTAINTY_ASSIGNED_CONTEXT((#1289)) 
GLOBAL_UNIT_ASSIGNED_CONTEXT((#1286,#1287,#1288)) REPRESENTATION_CONTEXT
('Context #1','3D Context with UNIT and UNCERTAINTY') );
#1286 = ( LENGTH_UNIT() NAMED_UNIT(*) SI_UNIT(.MILLI.,.METRE.) );
#1287 = ( NAMED_UNIT(*) PLANE_ANGLE_UNIT() SI_UNIT($,.RADIAN.) );
#1288 = ( NAMED_UNIT(*) SI_UNIT($,.STERADIAN.) SOLID_ANGLE_UNIT() );
#1289 = UNCERTAINTY_MEASURE_WITH_UNIT(LENGTH_MEASURE(2.E-07),#1286,
  'distance_accuracy_value','confusion accuracy');
#1290 = PRODUCT_RELATED_PRODUCT_CATEGORY('part',$,(#7));
ENDSEC;
END-ISO-10303-21;
