ISO-10303-21;
HEADER;
FILE_DESCRIPTION(('Open CASCADE Model'),'2;1');
FILE_NAME('Open CASCADE Shape Model','2026-09-05T07:24:20',('Author'),(
    'Open CASCADE'),'Open CASCADE STEP processor 7.9','build123d',
  'Unknown');
FILE_SCHEMA(('AUTOMOTIVE_DESIGN { 1 0 10303 214 1 1 1 1 }'));
ENDSEC;
DATA;
#1 = APPLICATION_PROTOCOL_DEFINITION('international standard',
  'automotive_design',2000,#2);
#2 = APPLICATION_CONTEXT(
  'core data for automotive mechanical design processes');
#3 = SHAPE_DEFINITION_REPRESENTATION(#4,#10);
#4 = PRODUCT_DEFINITION_SHAPE('','',#5);
#5 = PRODUCT_DEFINITION('design','',#6,#9);
#6 = PRODUCT_DEFINITION_FORMATION('','',#7);
#7 = PRODUCT('=>[0:1:1:2]','=>[0:1:1:2]','',(#8));
#8 = PRODUCT_CONTEXT('',#2,'mechanical');
#9 = PRODUCT_DEFINITION_CONTEXT('part definition',#2,'design');
#10 = SHAPE_REPRESENTATION('',(#11,#15),#19);
#11 = AXIS2_PLACEMENT_3D('',#12,#13,#14);
#12 = CARTESIAN_POINT('',(0.,0.,0.));
#13 = DIRECTION('',(0.,0.,1.));
#14 = DIRECTION('',(1.,0.,-0.));
#15 = AXIS2_PLACEMENT_3D('',#16,#17,#18);
#16 = CARTESIAN_POINT('',(0.,-0.811602191686,0.));
#17 = DIRECTION('',(0.,0.,1.));
#18 = DIRECTION('',(1.,0.,-0.));
#19 = ( GEOMETRIC_REPRESENTATION_CONTEXT(3) 
GLOBAL_UNCERTAINTY_ASSIGNED_CONTEXT((#23)) GLOBAL_UNIT_ASSIGNED_CONTEXT(
(#20,#21,#22)) REPRESENTATION_CONTEXT('Context #1',
  '3D Context with UNIT and UNCERTAINTY') );
#20 = ( LENGTH_UNIT() NAMED_UNIT(*) SI_UNIT(.MILLI.,.METRE.) );
#21 = ( NAMED_UNIT(*) PLANE_ANGLE_UNIT() SI_UNIT($,.RADIAN.) );
#22 = ( NAMED_UNIT(*) SI_UNIT($,.STERADIAN.) SOLID_ANGLE_UNIT() );
#23 = UNCERTAINTY_MEASURE_WITH_UNIT(LENGTH_MEASURE(2.E-07),#20,
  'distance_accuracy_value','confusion accuracy');
#24 = PRODUCT_RELATED_PRODUCT_CATEGORY('part',$,(#7));
#25 = SHAPE_DEFINITION_REPRESENTATION(#26,#32);
#26 = PRODUCT_DEFINITION_SHAPE('','',#27);
#27 = PRODUCT_DEFINITION('design','',#28,#31);
#28 = PRODUCT_DEFINITION_FORMATION('','',#29);
#29 = PRODUCT('COMPOUND','COMPOUND','',(#30));
#30 = PRODUCT_CONTEXT('',#2,'mechanical');
#31 = PRODUCT_DEFINITION_CONTEXT('part definition',#2,'design');
#32 = ADVANCED_BREP_SHAPE_REPRESENTATION('',(#11,#33),#1739);
#33 = MANIFOLD_SOLID_BREP('',#34);
#34 = CLOSED_SHELL('',(#35,#201,#232,#408,#433,#457,#474,#499,#516,#541,
    #622,#646,#670,#694,#718,#735,#752,#777,#793,#874,#946,#970,#1035,
    #1107,#1131,#1196,#1268,#1292,#1357,#1372,#1385,#1397,#1414,#1431,
    #1448,#1470,#1487,#1504,#1521,#1533,#1545,#1567,#1584,#1601,#1618,
    #1630,#1642,#1664,#1681,#1698,#1715,#1727));
#35 = ADVANCED_FACE('',(#36,#106,#117,#185),#196,.F.);
#36 = FACE_BOUND('',#37,.F.);
#37 = EDGE_LOOP('',(#38,#48,#57,#65,#74,#82,#91,#99));
#38 = ORIENTED_EDGE('',*,*,#39,.F.);
#39 = EDGE_CURVE('',#40,#42,#44,.T.);
#40 = VERTEX_POINT('',#41);
#41 = CARTESIAN_POINT('',(20.279299790673,3.,0.));
#42 = VERTEX_POINT('',#43);
#43 = CARTESIAN_POINT('',(20.697224362268,3.,0.));
#44 = LINE('',#45,#46);
#45 = CARTESIAN_POINT('',(18.,3.,0.));
#46 = VECTOR('',#47,1.);
#47 = DIRECTION('',(1.,0.,-0.));
#48 = ORIENTED_EDGE('',*,*,#49,.T.);
#49 = EDGE_CURVE('',#40,#50,#52,.T.);
#50 = VERTEX_POINT('',#51);
#51 = CARTESIAN_POINT('',(-20.27929979067,3.,0.));
#52 = CIRCLE('',#53,20.5);
#53 = AXIS2_PLACEMENT_3D('',#54,#55,#56);
#54 = CARTESIAN_POINT('',(0.,0.,0.));
#55 = DIRECTION('',(0.,0.,1.));
#56 = DIRECTION('',(1.,0.,-0.));
#57 = ORIENTED_EDGE('',*,*,#58,.F.);
#58 = EDGE_CURVE('',#59,#50,#61,.T.);
#59 = VERTEX_POINT('',#60);
#60 = CARTESIAN_POINT('',(-20.69722436226,3.,0.));
#61 = LINE('',#62,#63);
#62 = CARTESIAN_POINT('',(-23.,3.,0.));
#63 = VECTOR('',#64,1.);
#64 = DIRECTION('',(1.,0.,-0.));
#65 = ORIENTED_EDGE('',*,*,#66,.T.);
#66 = EDGE_CURVE('',#59,#67,#69,.T.);
#67 = VERTEX_POINT('',#68);
#68 = CARTESIAN_POINT('',(-20.69722436226,-3.,0.));
#69 = CIRCLE('',#70,3.5);
#70 = AXIS2_PLACEMENT_3D('',#71,#72,#73);
#71 = CARTESIAN_POINT('',(-22.5,0.,0.));
#72 = DIRECTION('',(0.,0.,1.));
#73 = DIRECTION('',(1.,0.,-0.));
#74 = ORIENTED_EDGE('',*,*,#75,.T.);
#75 = EDGE_CURVE('',#67,#76,#78,.T.);
#76 = VERTEX_POINT('',#77);
#77 = CARTESIAN_POINT('',(-20.27929979067,-3.,0.));
#78 = LINE('',#79,#80);
#79 = CARTESIAN_POINT('',(-23.,-3.,0.));
#80 = VECTOR('',#81,1.);
#81 = DIRECTION('',(1.,0.,-0.));
#82 = ORIENTED_EDGE('',*,*,#83,.T.);
#83 = EDGE_CURVE('',#76,#84,#86,.T.);
#84 = VERTEX_POINT('',#85);
#85 = CARTESIAN_POINT('',(20.279299790673,-3.,0.));
#86 = CIRCLE('',#87,20.5);
#87 = AXIS2_PLACEMENT_3D('',#88,#89,#90);
#88 = CARTESIAN_POINT('',(0.,0.,0.));
#89 = DIRECTION('',(0.,0.,1.));
#90 = DIRECTION('',(1.,0.,-0.));
#91 = ORIENTED_EDGE('',*,*,#92,.T.);
#92 = EDGE_CURVE('',#84,#93,#95,.T.);
#93 = VERTEX_POINT('',#94);
#94 = CARTESIAN_POINT('',(20.697224362268,-3.,0.));
#95 = LINE('',#96,#97);
#96 = CARTESIAN_POINT('',(18.,-3.,0.));
#97 = VECTOR('',#98,1.);
#98 = DIRECTION('',(1.,0.,-0.));
#99 = ORIENTED_EDGE('',*,*,#100,.F.);
#100 = EDGE_CURVE('',#42,#93,#101,.T.);
#101 = CIRCLE('',#102,3.5);
#102 = AXIS2_PLACEMENT_3D('',#103,#104,#105);
#103 = CARTESIAN_POINT('',(22.5,0.,0.));
#104 = DIRECTION('',(0.,0.,-1.));
#105 = DIRECTION('',(-0.62380952381,0.781576405737,0.));
#106 = FACE_BOUND('',#107,.F.);
#107 = EDGE_LOOP('',(#108));
#108 = ORIENTED_EDGE('',*,*,#109,.F.);
#109 = EDGE_CURVE('',#110,#110,#112,.T.);
#110 = VERTEX_POINT('',#111);
#111 = CARTESIAN_POINT('',(-20.8,-4.163799117101E-16,0.));
#112 = CIRCLE('',#113,1.7);
#113 = AXIS2_PLACEMENT_3D('',#114,#115,#116);
#114 = CARTESIAN_POINT('',(-22.5,0.,0.));
#115 = DIRECTION('',(0.,0.,1.));
#116 = DIRECTION('',(1.,0.,-0.));
#117 = FACE_BOUND('',#118,.F.);
#118 = EDGE_LOOP('',(#119,#130,#138,#146,#154,#163,#171,#179));
#119 = ORIENTED_EDGE('',*,*,#120,.F.);
#120 = EDGE_CURVE('',#121,#123,#125,.T.);
#121 = VERTEX_POINT('',#122);
#122 = CARTESIAN_POINT('',(18.052423659996,3.,0.));
#123 = VERTEX_POINT('',#124);
#124 = CARTESIAN_POINT('',(-18.05242365999,3.,0.));
#125 = CIRCLE('',#126,18.3);
#126 = AXIS2_PLACEMENT_3D('',#127,#128,#129);
#127 = CARTESIAN_POINT('',(0.,0.,0.));
#128 = DIRECTION('',(0.,0.,1.));
#129 = DIRECTION('',(1.,0.,-0.));
#130 = ORIENTED_EDGE('',*,*,#131,.F.);
#131 = EDGE_CURVE('',#132,#121,#134,.T.);
#132 = VERTEX_POINT('',#133);
#133 = CARTESIAN_POINT('',(18.,3.,0.));
#134 = LINE('',#135,#136);
#135 = CARTESIAN_POINT('',(18.,3.,0.));
#136 = VECTOR('',#137,1.);
#137 = DIRECTION('',(1.,0.,-0.));
#138 = ORIENTED_EDGE('',*,*,#139,.F.);
#139 = EDGE_CURVE('',#140,#132,#142,.T.);
#140 = VERTEX_POINT('',#141);
#141 = CARTESIAN_POINT('',(18.,-3.,0.));
#142 = LINE('',#143,#144);
#143 = CARTESIAN_POINT('',(18.,-3.,0.));
#144 = VECTOR('',#145,1.);
#145 = DIRECTION('',(-0.,1.,0.));
#146 = ORIENTED_EDGE('',*,*,#147,.T.);
#147 = EDGE_CURVE('',#140,#148,#150,.T.);
#148 = VERTEX_POINT('',#149);
#149 = CARTESIAN_POINT('',(18.052423659996,-3.,0.));
#150 = LINE('',#151,#152);
#151 = CARTESIAN_POINT('',(18.,-3.,0.));
#152 = VECTOR('',#153,1.);
#153 = DIRECTION('',(1.,0.,-0.));
#154 = ORIENTED_EDGE('',*,*,#155,.F.);
#155 = EDGE_CURVE('',#156,#148,#158,.T.);
#156 = VERTEX_POINT('',#157);
#157 = CARTESIAN_POINT('',(-18.05242365999,-3.,0.));
#158 = CIRCLE('',#159,18.3);
#159 = AXIS2_PLACEMENT_3D('',#160,#161,#162);
#160 = CARTESIAN_POINT('',(0.,0.,0.));
#161 = DIRECTION('',(0.,0.,1.));
#162 = DIRECTION('',(1.,0.,-0.));
#163 = ORIENTED_EDGE('',*,*,#164,.T.);
#164 = EDGE_CURVE('',#156,#165,#167,.T.);
#165 = VERTEX_POINT('',#166);
#166 = CARTESIAN_POINT('',(-18.,-3.,0.));
#167 = LINE('',#168,#169);
#168 = CARTESIAN_POINT('',(-23.,-3.,0.));
#169 = VECTOR('',#170,1.);
#170 = DIRECTION('',(1.,0.,-0.));
#171 = ORIENTED_EDGE('',*,*,#172,.T.);
#172 = EDGE_CURVE('',#165,#173,#175,.T.);
#173 = VERTEX_POINT('',#174);
#174 = CARTESIAN_POINT('',(-18.,3.,0.));
#175 = LINE('',#176,#177);
#176 = CARTESIAN_POINT('',(-18.,-3.,0.));
#177 = VECTOR('',#178,1.);
#178 = DIRECTION('',(-0.,1.,0.));
#179 = ORIENTED_EDGE('',*,*,#180,.F.);
#180 = EDGE_CURVE('',#123,#173,#181,.T.);
#181 = LINE('',#182,#183);
#182 = CARTESIAN_POINT('',(-23.,3.,0.));
#183 = VECTOR('',#184,1.);
#184 = DIRECTION('',(1.,0.,-0.));
#185 = FACE_BOUND('',#186,.F.);
#186 = EDGE_LOOP('',(#187));
#187 = ORIENTED_EDGE('',*,*,#188,.F.);
#188 = EDGE_CURVE('',#189,#189,#191,.T.);
#189 = VERTEX_POINT('',#190);
#190 = CARTESIAN_POINT('',(24.2,-4.163799117101E-16,0.));
#191 = CIRCLE('',#192,1.7);
#192 = AXIS2_PLACEMENT_3D('',#193,#194,#195);
#193 = CARTESIAN_POINT('',(22.5,0.,0.));
#194 = DIRECTION('',(0.,0.,1.));
#195 = DIRECTION('',(1.,0.,-0.));
#196 = PLANE('',#197);
#197 = AXIS2_PLACEMENT_3D('',#198,#199,#200);
#198 = CARTESIAN_POINT('',(0.,0.,0.));
#199 = DIRECTION('',(0.,0.,1.));
#200 = DIRECTION('',(1.,0.,-0.));
#201 = ADVANCED_FACE('',(#202),#227,.T.);
#202 = FACE_BOUND('',#203,.T.);
#203 = EDGE_LOOP('',(#204,#205,#213,#221));
#204 = ORIENTED_EDGE('',*,*,#39,.F.);
#205 = ORIENTED_EDGE('',*,*,#206,.T.);
#206 = EDGE_CURVE('',#40,#207,#209,.T.);
#207 = VERTEX_POINT('',#208);
#208 = CARTESIAN_POINT('',(20.279299790673,3.,2.));
#209 = LINE('',#210,#211);
#210 = CARTESIAN_POINT('',(20.279299790673,3.,0.));
#211 = VECTOR('',#212,1.);
#212 = DIRECTION('',(0.,0.,1.));
#213 = ORIENTED_EDGE('',*,*,#214,.T.);
#214 = EDGE_CURVE('',#207,#215,#217,.T.);
#215 = VERTEX_POINT('',#216);
#216 = CARTESIAN_POINT('',(20.697224362268,3.,2.));
#217 = LINE('',#218,#219);
#218 = CARTESIAN_POINT('',(18.,3.,2.));
#219 = VECTOR('',#220,1.);
#220 = DIRECTION('',(1.,0.,-0.));
#221 = ORIENTED_EDGE('',*,*,#222,.F.);
#222 = EDGE_CURVE('',#42,#215,#223,.T.);
#223 = LINE('',#224,#225);
#224 = CARTESIAN_POINT('',(20.697224362268,3.,0.));
#225 = VECTOR('',#226,1.);
#226 = DIRECTION('',(0.,0.,1.));
#227 = PLANE('',#228);
#228 = AXIS2_PLACEMENT_3D('',#229,#230,#231);
#229 = CARTESIAN_POINT('',(18.,3.,0.));
#230 = DIRECTION('',(-0.,1.,0.));
#231 = DIRECTION('',(0.,0.,1.));
#232 = ADVANCED_FACE('',(#233),#403,.T.);
#233 = FACE_BOUND('',#234,.T.);
#234 = EDGE_LOOP('',(#235,#246,#254,#263,#271,#280,#288,#297,#305,#314,
    #322,#331,#339,#348,#356,#363,#364,#371,#372,#373,#381,#390,#396,
    #397));
#235 = ORIENTED_EDGE('',*,*,#236,.T.);
#236 = EDGE_CURVE('',#237,#239,#241,.T.);
#237 = VERTEX_POINT('',#238);
#238 = CARTESIAN_POINT('',(20.279299790673,-3.,2.));
#239 = VERTEX_POINT('',#240);
#240 = CARTESIAN_POINT('',(20.5,-5.021051876504E-15,2.));
#241 = CIRCLE('',#242,20.5);
#242 = AXIS2_PLACEMENT_3D('',#243,#244,#245);
#243 = CARTESIAN_POINT('',(0.,0.,2.));
#244 = DIRECTION('',(0.,0.,1.));
#245 = DIRECTION('',(0.98923413613,-0.146341463415,0.));
#246 = ORIENTED_EDGE('',*,*,#247,.T.);
#247 = EDGE_CURVE('',#239,#248,#250,.T.);
#248 = VERTEX_POINT('',#249);
#249 = CARTESIAN_POINT('',(20.5,-5.021051876504E-15,4.45));
#250 = LINE('',#251,#252);
#251 = CARTESIAN_POINT('',(20.5,-5.021051876504E-15,0.));
#252 = VECTOR('',#253,1.);
#253 = DIRECTION('',(0.,0.,1.));
#254 = ORIENTED_EDGE('',*,*,#255,.F.);
#255 = EDGE_CURVE('',#256,#248,#258,.T.);
#256 = VERTEX_POINT('',#257);
#257 = CARTESIAN_POINT('',(16.625997054244,-11.99275706217,4.45));
#258 = CIRCLE('',#259,20.5);
#259 = AXIS2_PLACEMENT_3D('',#260,#261,#262);
#260 = CARTESIAN_POINT('',(0.,0.,4.45));
#261 = DIRECTION('',(0.,0.,1.));
#262 = DIRECTION('',(1.,0.,-0.));
#263 = ORIENTED_EDGE('',*,*,#264,.F.);
#264 = EDGE_CURVE('',#265,#256,#267,.T.);
#265 = VERTEX_POINT('',#266);
#266 = CARTESIAN_POINT('',(16.625997054244,-11.99275706217,4.44));
#267 = LINE('',#268,#269);
#268 = CARTESIAN_POINT('',(16.625997054244,-11.99275706217,0.));
#269 = VECTOR('',#270,1.);
#270 = DIRECTION('',(0.,0.,1.));
#271 = ORIENTED_EDGE('',*,*,#272,.F.);
#272 = EDGE_CURVE('',#273,#265,#275,.T.);
#273 = VERTEX_POINT('',#274);
#274 = CARTESIAN_POINT('',(14.697634225184,-14.29089039152,4.44));
#275 = CIRCLE('',#276,20.5);
#276 = AXIS2_PLACEMENT_3D('',#277,#278,#279);
#277 = CARTESIAN_POINT('',(0.,0.,4.44));
#278 = DIRECTION('',(0.,0.,1.));
#279 = DIRECTION('',(1.,0.,-0.));
#280 = ORIENTED_EDGE('',*,*,#281,.T.);
#281 = EDGE_CURVE('',#273,#282,#284,.T.);
#282 = VERTEX_POINT('',#283);
#283 = CARTESIAN_POINT('',(14.697634225184,-14.29089039152,4.45));
#284 = LINE('',#285,#286);
#285 = CARTESIAN_POINT('',(14.697634225184,-14.29089039152,0.));
#286 = VECTOR('',#287,1.);
#287 = DIRECTION('',(0.,0.,1.));
#288 = ORIENTED_EDGE('',*,*,#289,.F.);
#289 = EDGE_CURVE('',#290,#282,#292,.T.);
#290 = VERTEX_POINT('',#291);
#291 = CARTESIAN_POINT('',(-18.69903080437,-8.402157281134,4.45));
#292 = CIRCLE('',#293,20.5);
#293 = AXIS2_PLACEMENT_3D('',#294,#295,#296);
#294 = CARTESIAN_POINT('',(0.,0.,4.45));
#295 = DIRECTION('',(0.,0.,1.));
#296 = DIRECTION('',(1.,0.,-0.));
#297 = ORIENTED_EDGE('',*,*,#298,.F.);
#298 = EDGE_CURVE('',#299,#290,#301,.T.);
#299 = VERTEX_POINT('',#300);
#300 = CARTESIAN_POINT('',(-18.69903080437,-8.402157281134,4.44));
#301 = LINE('',#302,#303);
#302 = CARTESIAN_POINT('',(-18.69903080437,-8.402157281134,0.));
#303 = VECTOR('',#304,1.);
#304 = DIRECTION('',(0.,0.,1.));
#305 = ORIENTED_EDGE('',*,*,#306,.F.);
#306 = EDGE_CURVE('',#307,#299,#309,.T.);
#307 = VERTEX_POINT('',#308);
#308 = CARTESIAN_POINT('',(-19.72509123435,-5.583079418777,4.44));
#309 = CIRCLE('',#310,20.5);
#310 = AXIS2_PLACEMENT_3D('',#311,#312,#313);
#311 = CARTESIAN_POINT('',(0.,0.,4.44));
#312 = DIRECTION('',(0.,0.,1.));
#313 = DIRECTION('',(1.,0.,-0.));
#314 = ORIENTED_EDGE('',*,*,#315,.T.);
#315 = EDGE_CURVE('',#307,#316,#318,.T.);
#316 = VERTEX_POINT('',#317);
#317 = CARTESIAN_POINT('',(-19.72509123435,-5.583079418777,4.45));
#318 = LINE('',#319,#320);
#319 = CARTESIAN_POINT('',(-19.72509123435,-5.583079418777,0.));
#320 = VECTOR('',#321,1.);
#321 = DIRECTION('',(0.,0.,1.));
#322 = ORIENTED_EDGE('',*,*,#323,.F.);
#323 = EDGE_CURVE('',#324,#316,#326,.T.);
#324 = VERTEX_POINT('',#325);
#325 = CARTESIAN_POINT('',(2.073033750134,20.394914343306,4.45));
#326 = CIRCLE('',#327,20.5);
#327 = AXIS2_PLACEMENT_3D('',#328,#329,#330);
#328 = CARTESIAN_POINT('',(0.,0.,4.45));
#329 = DIRECTION('',(0.,0.,1.));
#330 = DIRECTION('',(1.,0.,-0.));
#331 = ORIENTED_EDGE('',*,*,#332,.F.);
#332 = EDGE_CURVE('',#333,#324,#335,.T.);
#333 = VERTEX_POINT('',#334);
#334 = CARTESIAN_POINT('',(2.073033750134,20.394914343306,4.44));
#335 = LINE('',#336,#337);
#336 = CARTESIAN_POINT('',(2.073033750134,20.394914343306,0.));
#337 = VECTOR('',#338,1.);
#338 = DIRECTION('',(0.,0.,1.));
#339 = ORIENTED_EDGE('',*,*,#340,.F.);
#340 = EDGE_CURVE('',#341,#333,#343,.T.);
#341 = VERTEX_POINT('',#342);
#342 = CARTESIAN_POINT('',(5.027457009171,19.873969810306,4.44));
#343 = CIRCLE('',#344,20.5);
#344 = AXIS2_PLACEMENT_3D('',#345,#346,#347);
#345 = CARTESIAN_POINT('',(0.,0.,4.44));
#346 = DIRECTION('',(0.,0.,1.));
#347 = DIRECTION('',(1.,0.,-0.));
#348 = ORIENTED_EDGE('',*,*,#349,.T.);
#349 = EDGE_CURVE('',#341,#350,#352,.T.);
#350 = VERTEX_POINT('',#351);
#351 = CARTESIAN_POINT('',(5.027457009171,19.873969810306,4.45));
#352 = LINE('',#353,#354);
#353 = CARTESIAN_POINT('',(5.027457009171,19.873969810306,0.));
#354 = VECTOR('',#355,1.);
#355 = DIRECTION('',(0.,0.,1.));
#356 = ORIENTED_EDGE('',*,*,#357,.F.);
#357 = EDGE_CURVE('',#248,#350,#358,.T.);
#358 = CIRCLE('',#359,20.5);
#359 = AXIS2_PLACEMENT_3D('',#360,#361,#362);
#360 = CARTESIAN_POINT('',(0.,0.,4.45));
#361 = DIRECTION('',(0.,0.,1.));
#362 = DIRECTION('',(1.,0.,-0.));
#363 = ORIENTED_EDGE('',*,*,#247,.F.);
#364 = ORIENTED_EDGE('',*,*,#365,.T.);
#365 = EDGE_CURVE('',#239,#207,#366,.T.);
#366 = CIRCLE('',#367,20.5);
#367 = AXIS2_PLACEMENT_3D('',#368,#369,#370);
#368 = CARTESIAN_POINT('',(0.,0.,2.));
#369 = DIRECTION('',(-0.,0.,1.));
#370 = DIRECTION('',(1.,-2.449293598295E-16,0.));
#371 = ORIENTED_EDGE('',*,*,#206,.F.);
#372 = ORIENTED_EDGE('',*,*,#49,.T.);
#373 = ORIENTED_EDGE('',*,*,#374,.T.);
#374 = EDGE_CURVE('',#50,#375,#377,.T.);
#375 = VERTEX_POINT('',#376);
#376 = CARTESIAN_POINT('',(-20.27929979067,3.,2.));
#377 = LINE('',#378,#379);
#378 = CARTESIAN_POINT('',(-20.27929979067,3.,0.));
#379 = VECTOR('',#380,1.);
#380 = DIRECTION('',(0.,0.,1.));
#381 = ORIENTED_EDGE('',*,*,#382,.T.);
#382 = EDGE_CURVE('',#375,#383,#385,.T.);
#383 = VERTEX_POINT('',#384);
#384 = CARTESIAN_POINT('',(-20.27929979067,-3.,2.));
#385 = CIRCLE('',#386,20.5);
#386 = AXIS2_PLACEMENT_3D('',#387,#388,#389);
#387 = CARTESIAN_POINT('',(0.,0.,2.));
#388 = DIRECTION('',(0.,0.,1.));
#389 = DIRECTION('',(-0.98923413613,0.146341463415,0.));
#390 = ORIENTED_EDGE('',*,*,#391,.F.);
#391 = EDGE_CURVE('',#76,#383,#392,.T.);
#392 = LINE('',#393,#394);
#393 = CARTESIAN_POINT('',(-20.27929979067,-3.,0.));
#394 = VECTOR('',#395,1.);
#395 = DIRECTION('',(0.,0.,1.));
#396 = ORIENTED_EDGE('',*,*,#83,.T.);
#397 = ORIENTED_EDGE('',*,*,#398,.T.);
#398 = EDGE_CURVE('',#84,#237,#399,.T.);
#399 = LINE('',#400,#401);
#400 = CARTESIAN_POINT('',(20.279299790673,-3.,0.));
#401 = VECTOR('',#402,1.);
#402 = DIRECTION('',(0.,0.,1.));
#403 = CYLINDRICAL_SURFACE('',#404,20.5);
#404 = AXIS2_PLACEMENT_3D('',#405,#406,#407);
#405 = CARTESIAN_POINT('',(0.,0.,0.));
#406 = DIRECTION('',(0.,0.,1.));
#407 = DIRECTION('',(1.,0.,-0.));
#408 = ADVANCED_FACE('',(#409),#428,.T.);
#409 = FACE_BOUND('',#410,.T.);
#410 = EDGE_LOOP('',(#411,#412,#413,#422));
#411 = ORIENTED_EDGE('',*,*,#100,.F.);
#412 = ORIENTED_EDGE('',*,*,#222,.T.);
#413 = ORIENTED_EDGE('',*,*,#414,.T.);
#414 = EDGE_CURVE('',#215,#415,#417,.T.);
#415 = VERTEX_POINT('',#416);
#416 = CARTESIAN_POINT('',(20.697224362268,-3.,2.));
#417 = CIRCLE('',#418,3.5);
#418 = AXIS2_PLACEMENT_3D('',#419,#420,#421);
#419 = CARTESIAN_POINT('',(22.5,0.,2.));
#420 = DIRECTION('',(0.,0.,-1.));
#421 = DIRECTION('',(-0.62380952381,0.781576405737,0.));
#422 = ORIENTED_EDGE('',*,*,#423,.F.);
#423 = EDGE_CURVE('',#93,#415,#424,.T.);
#424 = LINE('',#425,#426);
#425 = CARTESIAN_POINT('',(20.697224362268,-3.,0.));
#426 = VECTOR('',#427,1.);
#427 = DIRECTION('',(0.,0.,1.));
#428 = CYLINDRICAL_SURFACE('',#429,3.5);
#429 = AXIS2_PLACEMENT_3D('',#430,#431,#432);
#430 = CARTESIAN_POINT('',(22.5,0.,0.));
#431 = DIRECTION('',(0.,0.,1.));
#432 = DIRECTION('',(1.,0.,-0.));
#433 = ADVANCED_FACE('',(#434),#452,.T.);
#434 = FACE_BOUND('',#435,.T.);
#435 = EDGE_LOOP('',(#436,#437,#445,#451));
#436 = ORIENTED_EDGE('',*,*,#58,.F.);
#437 = ORIENTED_EDGE('',*,*,#438,.T.);
#438 = EDGE_CURVE('',#59,#439,#441,.T.);
#439 = VERTEX_POINT('',#440);
#440 = CARTESIAN_POINT('',(-20.69722436226,3.,2.));
#441 = LINE('',#442,#443);
#442 = CARTESIAN_POINT('',(-20.69722436226,3.,0.));
#443 = VECTOR('',#444,1.);
#444 = DIRECTION('',(0.,0.,1.));
#445 = ORIENTED_EDGE('',*,*,#446,.T.);
#446 = EDGE_CURVE('',#439,#375,#447,.T.);
#447 = LINE('',#448,#449);
#448 = CARTESIAN_POINT('',(-23.,3.,2.));
#449 = VECTOR('',#450,1.);
#450 = DIRECTION('',(1.,0.,-0.));
#451 = ORIENTED_EDGE('',*,*,#374,.F.);
#452 = PLANE('',#453);
#453 = AXIS2_PLACEMENT_3D('',#454,#455,#456);
#454 = CARTESIAN_POINT('',(-23.,3.,0.));
#455 = DIRECTION('',(-0.,1.,0.));
#456 = DIRECTION('',(0.,0.,1.));
#457 = ADVANCED_FACE('',(#458),#469,.F.);
#458 = FACE_BOUND('',#459,.F.);
#459 = EDGE_LOOP('',(#460,#461,#462,#468));
#460 = ORIENTED_EDGE('',*,*,#92,.F.);
#461 = ORIENTED_EDGE('',*,*,#398,.T.);
#462 = ORIENTED_EDGE('',*,*,#463,.T.);
#463 = EDGE_CURVE('',#237,#415,#464,.T.);
#464 = LINE('',#465,#466);
#465 = CARTESIAN_POINT('',(18.,-3.,2.));
#466 = VECTOR('',#467,1.);
#467 = DIRECTION('',(1.,0.,-0.));
#468 = ORIENTED_EDGE('',*,*,#423,.F.);
#469 = PLANE('',#470);
#470 = AXIS2_PLACEMENT_3D('',#471,#472,#473);
#471 = CARTESIAN_POINT('',(18.,-3.,0.));
#472 = DIRECTION('',(-0.,1.,0.));
#473 = DIRECTION('',(0.,0.,1.));
#474 = ADVANCED_FACE('',(#475),#494,.T.);
#475 = FACE_BOUND('',#476,.T.);
#476 = EDGE_LOOP('',(#477,#486,#487,#488));
#477 = ORIENTED_EDGE('',*,*,#478,.F.);
#478 = EDGE_CURVE('',#439,#479,#481,.T.);
#479 = VERTEX_POINT('',#480);
#480 = CARTESIAN_POINT('',(-20.69722436226,-3.,2.));
#481 = CIRCLE('',#482,3.5);
#482 = AXIS2_PLACEMENT_3D('',#483,#484,#485);
#483 = CARTESIAN_POINT('',(-22.5,0.,2.));
#484 = DIRECTION('',(0.,0.,1.));
#485 = DIRECTION('',(1.,0.,-0.));
#486 = ORIENTED_EDGE('',*,*,#438,.F.);
#487 = ORIENTED_EDGE('',*,*,#66,.T.);
#488 = ORIENTED_EDGE('',*,*,#489,.T.);
#489 = EDGE_CURVE('',#67,#479,#490,.T.);
#490 = LINE('',#491,#492);
#491 = CARTESIAN_POINT('',(-20.69722436226,-3.,0.));
#492 = VECTOR('',#493,1.);
#493 = DIRECTION('',(0.,0.,1.));
#494 = CYLINDRICAL_SURFACE('',#495,3.5);
#495 = AXIS2_PLACEMENT_3D('',#496,#497,#498);
#496 = CARTESIAN_POINT('',(-22.5,0.,0.));
#497 = DIRECTION('',(0.,0.,1.));
#498 = DIRECTION('',(1.,0.,-0.));
#499 = ADVANCED_FACE('',(#500),#511,.F.);
#500 = FACE_BOUND('',#501,.F.);
#501 = EDGE_LOOP('',(#502,#503,#504,#510));
#502 = ORIENTED_EDGE('',*,*,#75,.F.);
#503 = ORIENTED_EDGE('',*,*,#489,.T.);
#504 = ORIENTED_EDGE('',*,*,#505,.T.);
#505 = EDGE_CURVE('',#479,#383,#506,.T.);
#506 = LINE('',#507,#508);
#507 = CARTESIAN_POINT('',(-23.,-3.,2.));
#508 = VECTOR('',#509,1.);
#509 = DIRECTION('',(1.,0.,-0.));
#510 = ORIENTED_EDGE('',*,*,#391,.F.);
#511 = PLANE('',#512);
#512 = AXIS2_PLACEMENT_3D('',#513,#514,#515);
#513 = CARTESIAN_POINT('',(-23.,-3.,0.));
#514 = DIRECTION('',(-0.,1.,0.));
#515 = DIRECTION('',(0.,0.,1.));
#516 = ADVANCED_FACE('',(#517),#536,.F.);
#517 = FACE_BOUND('',#518,.F.);
#518 = EDGE_LOOP('',(#519,#528,#534,#535));
#519 = ORIENTED_EDGE('',*,*,#520,.F.);
#520 = EDGE_CURVE('',#521,#521,#523,.T.);
#521 = VERTEX_POINT('',#522);
#522 = CARTESIAN_POINT('',(-20.8,-4.163799117101E-16,2.));
#523 = CIRCLE('',#524,1.7);
#524 = AXIS2_PLACEMENT_3D('',#525,#526,#527);
#525 = CARTESIAN_POINT('',(-22.5,0.,2.));
#526 = DIRECTION('',(0.,0.,1.));
#527 = DIRECTION('',(1.,0.,-0.));
#528 = ORIENTED_EDGE('',*,*,#529,.F.);
#529 = EDGE_CURVE('',#110,#521,#530,.T.);
#530 = LINE('',#531,#532);
#531 = CARTESIAN_POINT('',(-20.8,-4.163799117101E-16,-1.));
#532 = VECTOR('',#533,1.);
#533 = DIRECTION('',(0.,0.,1.));
#534 = ORIENTED_EDGE('',*,*,#109,.T.);
#535 = ORIENTED_EDGE('',*,*,#529,.T.);
#536 = CYLINDRICAL_SURFACE('',#537,1.7);
#537 = AXIS2_PLACEMENT_3D('',#538,#539,#540);
#538 = CARTESIAN_POINT('',(-22.5,0.,-1.));
#539 = DIRECTION('',(0.,0.,1.));
#540 = DIRECTION('',(1.,0.,-0.));
#541 = ADVANCED_FACE('',(#542),#617,.F.);
#542 = FACE_BOUND('',#543,.F.);
#543 = EDGE_LOOP('',(#544,#555,#563,#570,#571,#580,#586,#587,#595,#604,
    #610,#611));
#544 = ORIENTED_EDGE('',*,*,#545,.T.);
#545 = EDGE_CURVE('',#546,#548,#550,.T.);
#546 = VERTEX_POINT('',#547);
#547 = CARTESIAN_POINT('',(18.052423659996,-3.,2.));
#548 = VERTEX_POINT('',#549);
#549 = CARTESIAN_POINT('',(18.3,-4.482207284879E-15,2.));
#550 = CIRCLE('',#551,18.3);
#551 = AXIS2_PLACEMENT_3D('',#552,#553,#554);
#552 = CARTESIAN_POINT('',(0.,0.,2.));
#553 = DIRECTION('',(0.,0.,1.));
#554 = DIRECTION('',(1.,0.,-0.));
#555 = ORIENTED_EDGE('',*,*,#556,.T.);
#556 = EDGE_CURVE('',#548,#557,#559,.T.);
#557 = VERTEX_POINT('',#558);
#558 = CARTESIAN_POINT('',(18.3,-4.482207284879E-15,4.45));
#559 = LINE('',#560,#561);
#560 = CARTESIAN_POINT('',(18.3,-4.482207284879E-15,-1.E-02));
#561 = VECTOR('',#562,1.);
#562 = DIRECTION('',(0.,0.,1.));
#563 = ORIENTED_EDGE('',*,*,#564,.F.);
#564 = EDGE_CURVE('',#557,#557,#565,.T.);
#565 = CIRCLE('',#566,18.3);
#566 = AXIS2_PLACEMENT_3D('',#567,#568,#569);
#567 = CARTESIAN_POINT('',(0.,0.,4.45));
#568 = DIRECTION('',(0.,0.,1.));
#569 = DIRECTION('',(1.,0.,-0.));
#570 = ORIENTED_EDGE('',*,*,#556,.F.);
#571 = ORIENTED_EDGE('',*,*,#572,.T.);
#572 = EDGE_CURVE('',#548,#573,#575,.T.);
#573 = VERTEX_POINT('',#574);
#574 = CARTESIAN_POINT('',(18.052423659996,3.,2.));
#575 = CIRCLE('',#576,18.3);
#576 = AXIS2_PLACEMENT_3D('',#577,#578,#579);
#577 = CARTESIAN_POINT('',(0.,0.,2.));
#578 = DIRECTION('',(0.,0.,1.));
#579 = DIRECTION('',(1.,0.,-0.));
#580 = ORIENTED_EDGE('',*,*,#581,.F.);
#581 = EDGE_CURVE('',#121,#573,#582,.T.);
#582 = LINE('',#583,#584);
#583 = CARTESIAN_POINT('',(18.052423659996,3.,-1.E-02));
#584 = VECTOR('',#585,1.);
#585 = DIRECTION('',(0.,0.,1.));
#586 = ORIENTED_EDGE('',*,*,#120,.T.);
#587 = ORIENTED_EDGE('',*,*,#588,.T.);
#588 = EDGE_CURVE('',#123,#589,#591,.T.);
#589 = VERTEX_POINT('',#590);
#590 = CARTESIAN_POINT('',(-18.05242365999,3.,2.));
#591 = LINE('',#592,#593);
#592 = CARTESIAN_POINT('',(-18.05242365999,3.,-1.E-02));
#593 = VECTOR('',#594,1.);
#594 = DIRECTION('',(0.,0.,1.));
#595 = ORIENTED_EDGE('',*,*,#596,.T.);
#596 = EDGE_CURVE('',#589,#597,#599,.T.);
#597 = VERTEX_POINT('',#598);
#598 = CARTESIAN_POINT('',(-18.05242365999,-3.,2.));
#599 = CIRCLE('',#600,18.3);
#600 = AXIS2_PLACEMENT_3D('',#601,#602,#603);
#601 = CARTESIAN_POINT('',(0.,0.,2.));
#602 = DIRECTION('',(0.,0.,1.));
#603 = DIRECTION('',(1.,0.,-0.));
#604 = ORIENTED_EDGE('',*,*,#605,.F.);
#605 = EDGE_CURVE('',#156,#597,#606,.T.);
#606 = LINE('',#607,#608);
#607 = CARTESIAN_POINT('',(-18.05242365999,-3.,-1.E-02));
#608 = VECTOR('',#609,1.);
#609 = DIRECTION('',(0.,0.,1.));
#610 = ORIENTED_EDGE('',*,*,#155,.T.);
#611 = ORIENTED_EDGE('',*,*,#612,.T.);
#612 = EDGE_CURVE('',#148,#546,#613,.T.);
#613 = LINE('',#614,#615);
#614 = CARTESIAN_POINT('',(18.052423659996,-3.,-1.E-02));
#615 = VECTOR('',#616,1.);
#616 = DIRECTION('',(0.,0.,1.));
#617 = CYLINDRICAL_SURFACE('',#618,18.3);
#618 = AXIS2_PLACEMENT_3D('',#619,#620,#621);
#619 = CARTESIAN_POINT('',(0.,0.,-1.E-02));
#620 = DIRECTION('',(0.,0.,1.));
#621 = DIRECTION('',(1.,0.,-0.));
#622 = ADVANCED_FACE('',(#623),#641,.T.);
#623 = FACE_BOUND('',#624,.T.);
#624 = EDGE_LOOP('',(#625,#626,#634,#640));
#625 = ORIENTED_EDGE('',*,*,#131,.F.);
#626 = ORIENTED_EDGE('',*,*,#627,.T.);
#627 = EDGE_CURVE('',#132,#628,#630,.T.);
#628 = VERTEX_POINT('',#629);
#629 = CARTESIAN_POINT('',(18.,3.,2.));
#630 = LINE('',#631,#632);
#631 = CARTESIAN_POINT('',(18.,3.,0.));
#632 = VECTOR('',#633,1.);
#633 = DIRECTION('',(0.,0.,1.));
#634 = ORIENTED_EDGE('',*,*,#635,.T.);
#635 = EDGE_CURVE('',#628,#573,#636,.T.);
#636 = LINE('',#637,#638);
#637 = CARTESIAN_POINT('',(18.,3.,2.));
#638 = VECTOR('',#639,1.);
#639 = DIRECTION('',(1.,0.,-0.));
#640 = ORIENTED_EDGE('',*,*,#581,.F.);
#641 = PLANE('',#642);
#642 = AXIS2_PLACEMENT_3D('',#643,#644,#645);
#643 = CARTESIAN_POINT('',(18.,3.,0.));
#644 = DIRECTION('',(-0.,1.,0.));
#645 = DIRECTION('',(0.,0.,1.));
#646 = ADVANCED_FACE('',(#647),#665,.T.);
#647 = FACE_BOUND('',#648,.T.);
#648 = EDGE_LOOP('',(#649,#650,#651,#659));
#649 = ORIENTED_EDGE('',*,*,#180,.F.);
#650 = ORIENTED_EDGE('',*,*,#588,.T.);
#651 = ORIENTED_EDGE('',*,*,#652,.T.);
#652 = EDGE_CURVE('',#589,#653,#655,.T.);
#653 = VERTEX_POINT('',#654);
#654 = CARTESIAN_POINT('',(-18.,3.,2.));
#655 = LINE('',#656,#657);
#656 = CARTESIAN_POINT('',(-23.,3.,2.));
#657 = VECTOR('',#658,1.);
#658 = DIRECTION('',(1.,0.,-0.));
#659 = ORIENTED_EDGE('',*,*,#660,.F.);
#660 = EDGE_CURVE('',#173,#653,#661,.T.);
#661 = LINE('',#662,#663);
#662 = CARTESIAN_POINT('',(-18.,3.,0.));
#663 = VECTOR('',#664,1.);
#664 = DIRECTION('',(0.,0.,1.));
#665 = PLANE('',#666);
#666 = AXIS2_PLACEMENT_3D('',#667,#668,#669);
#667 = CARTESIAN_POINT('',(-23.,3.,0.));
#668 = DIRECTION('',(-0.,1.,0.));
#669 = DIRECTION('',(0.,0.,1.));
#670 = ADVANCED_FACE('',(#671),#689,.F.);
#671 = FACE_BOUND('',#672,.F.);
#672 = EDGE_LOOP('',(#673,#681,#682,#683));
#673 = ORIENTED_EDGE('',*,*,#674,.F.);
#674 = EDGE_CURVE('',#140,#675,#677,.T.);
#675 = VERTEX_POINT('',#676);
#676 = CARTESIAN_POINT('',(18.,-3.,2.));
#677 = LINE('',#678,#679);
#678 = CARTESIAN_POINT('',(18.,-3.,0.));
#679 = VECTOR('',#680,1.);
#680 = DIRECTION('',(0.,0.,1.));
#681 = ORIENTED_EDGE('',*,*,#139,.T.);
#682 = ORIENTED_EDGE('',*,*,#627,.T.);
#683 = ORIENTED_EDGE('',*,*,#684,.F.);
#684 = EDGE_CURVE('',#675,#628,#685,.T.);
#685 = LINE('',#686,#687);
#686 = CARTESIAN_POINT('',(18.,-3.,2.));
#687 = VECTOR('',#688,1.);
#688 = DIRECTION('',(-0.,1.,0.));
#689 = PLANE('',#690);
#690 = AXIS2_PLACEMENT_3D('',#691,#692,#693);
#691 = CARTESIAN_POINT('',(18.,-3.,0.));
#692 = DIRECTION('',(1.,0.,-0.));
#693 = DIRECTION('',(0.,0.,1.));
#694 = ADVANCED_FACE('',(#695),#713,.T.);
#695 = FACE_BOUND('',#696,.T.);
#696 = EDGE_LOOP('',(#697,#705,#706,#707));
#697 = ORIENTED_EDGE('',*,*,#698,.F.);
#698 = EDGE_CURVE('',#165,#699,#701,.T.);
#699 = VERTEX_POINT('',#700);
#700 = CARTESIAN_POINT('',(-18.,-3.,2.));
#701 = LINE('',#702,#703);
#702 = CARTESIAN_POINT('',(-18.,-3.,0.));
#703 = VECTOR('',#704,1.);
#704 = DIRECTION('',(0.,0.,1.));
#705 = ORIENTED_EDGE('',*,*,#172,.T.);
#706 = ORIENTED_EDGE('',*,*,#660,.T.);
#707 = ORIENTED_EDGE('',*,*,#708,.F.);
#708 = EDGE_CURVE('',#699,#653,#709,.T.);
#709 = LINE('',#710,#711);
#710 = CARTESIAN_POINT('',(-18.,-3.,2.));
#711 = VECTOR('',#712,1.);
#712 = DIRECTION('',(-0.,1.,0.));
#713 = PLANE('',#714);
#714 = AXIS2_PLACEMENT_3D('',#715,#716,#717);
#715 = CARTESIAN_POINT('',(-18.,-3.,0.));
#716 = DIRECTION('',(1.,0.,-0.));
#717 = DIRECTION('',(0.,0.,1.));
#718 = ADVANCED_FACE('',(#719),#730,.F.);
#719 = FACE_BOUND('',#720,.F.);
#720 = EDGE_LOOP('',(#721,#722,#723,#729));
#721 = ORIENTED_EDGE('',*,*,#147,.F.);
#722 = ORIENTED_EDGE('',*,*,#674,.T.);
#723 = ORIENTED_EDGE('',*,*,#724,.T.);
#724 = EDGE_CURVE('',#675,#546,#725,.T.);
#725 = LINE('',#726,#727);
#726 = CARTESIAN_POINT('',(18.,-3.,2.));
#727 = VECTOR('',#728,1.);
#728 = DIRECTION('',(1.,0.,-0.));
#729 = ORIENTED_EDGE('',*,*,#612,.F.);
#730 = PLANE('',#731);
#731 = AXIS2_PLACEMENT_3D('',#732,#733,#734);
#732 = CARTESIAN_POINT('',(18.,-3.,0.));
#733 = DIRECTION('',(-0.,1.,0.));
#734 = DIRECTION('',(0.,0.,1.));
#735 = ADVANCED_FACE('',(#736),#747,.F.);
#736 = FACE_BOUND('',#737,.F.);
#737 = EDGE_LOOP('',(#738,#739,#740,#746));
#738 = ORIENTED_EDGE('',*,*,#164,.F.);
#739 = ORIENTED_EDGE('',*,*,#605,.T.);
#740 = ORIENTED_EDGE('',*,*,#741,.T.);
#741 = EDGE_CURVE('',#597,#699,#742,.T.);
#742 = LINE('',#743,#744);
#743 = CARTESIAN_POINT('',(-23.,-3.,2.));
#744 = VECTOR('',#745,1.);
#745 = DIRECTION('',(1.,0.,-0.));
#746 = ORIENTED_EDGE('',*,*,#698,.F.);
#747 = PLANE('',#748);
#748 = AXIS2_PLACEMENT_3D('',#749,#750,#751);
#749 = CARTESIAN_POINT('',(-23.,-3.,0.));
#750 = DIRECTION('',(-0.,1.,0.));
#751 = DIRECTION('',(0.,0.,1.));
#752 = ADVANCED_FACE('',(#753),#772,.F.);
#753 = FACE_BOUND('',#754,.F.);
#754 = EDGE_LOOP('',(#755,#764,#770,#771));
#755 = ORIENTED_EDGE('',*,*,#756,.F.);
#756 = EDGE_CURVE('',#757,#757,#759,.T.);
#757 = VERTEX_POINT('',#758);
#758 = CARTESIAN_POINT('',(24.2,-4.163799117101E-16,2.));
#759 = CIRCLE('',#760,1.7);
#760 = AXIS2_PLACEMENT_3D('',#761,#762,#763);
#761 = CARTESIAN_POINT('',(22.5,0.,2.));
#762 = DIRECTION('',(0.,0.,1.));
#763 = DIRECTION('',(1.,0.,-0.));
#764 = ORIENTED_EDGE('',*,*,#765,.F.);
#765 = EDGE_CURVE('',#189,#757,#766,.T.);
#766 = LINE('',#767,#768);
#767 = CARTESIAN_POINT('',(24.2,-4.163799117101E-16,-1.));
#768 = VECTOR('',#769,1.);
#769 = DIRECTION('',(0.,0.,1.));
#770 = ORIENTED_EDGE('',*,*,#188,.T.);
#771 = ORIENTED_EDGE('',*,*,#765,.T.);
#772 = CYLINDRICAL_SURFACE('',#773,1.7);
#773 = AXIS2_PLACEMENT_3D('',#774,#775,#776);
#774 = CARTESIAN_POINT('',(22.5,0.,-1.));
#775 = DIRECTION('',(0.,0.,1.));
#776 = DIRECTION('',(1.,0.,-0.));
#777 = ADVANCED_FACE('',(#778,#785),#788,.T.);
#778 = FACE_BOUND('',#779,.T.);
#779 = EDGE_LOOP('',(#780,#781,#782,#783,#784));
#780 = ORIENTED_EDGE('',*,*,#214,.F.);
#781 = ORIENTED_EDGE('',*,*,#365,.F.);
#782 = ORIENTED_EDGE('',*,*,#236,.F.);
#783 = ORIENTED_EDGE('',*,*,#463,.T.);
#784 = ORIENTED_EDGE('',*,*,#414,.F.);
#785 = FACE_BOUND('',#786,.T.);
#786 = EDGE_LOOP('',(#787));
#787 = ORIENTED_EDGE('',*,*,#756,.F.);
#788 = PLANE('',#789);
#789 = AXIS2_PLACEMENT_3D('',#790,#791,#792);
#790 = CARTESIAN_POINT('',(18.,-3.,2.));
#791 = DIRECTION('',(0.,0.,1.));
#792 = DIRECTION('',(1.,0.,-0.));
#793 = ADVANCED_FACE('',(#794,#866),#869,.T.);
#794 = FACE_BOUND('',#795,.T.);
#795 = EDGE_LOOP('',(#796,#804,#805,#813,#821,#827,#828,#836,#844,#850,
    #851,#852,#860));
#796 = ORIENTED_EDGE('',*,*,#797,.F.);
#797 = EDGE_CURVE('',#324,#798,#800,.T.);
#798 = VERTEX_POINT('',#799);
#799 = CARTESIAN_POINT('',(1.926292652754,19.56270422554,4.45));
#800 = LINE('',#801,#802);
#801 = CARTESIAN_POINT('',(0.224540511618,9.91158824602,4.45));
#802 = VECTOR('',#803,1.);
#803 = DIRECTION('',(-0.173648177667,-0.984807753012,0.));
#804 = ORIENTED_EDGE('',*,*,#323,.T.);
#805 = ORIENTED_EDGE('',*,*,#806,.T.);
#806 = EDGE_CURVE('',#316,#807,#809,.T.);
#807 = VERTEX_POINT('',#808);
#808 = CARTESIAN_POINT('',(-18.93100558239,-5.294055878004,4.45));
#809 = LINE('',#810,#811);
#810 = CARTESIAN_POINT('',(-9.72201789869,-1.942258473413,4.45));
#811 = VECTOR('',#812,1.);
#812 = DIRECTION('',(0.939692620786,0.342020143326,-0.));
#813 = ORIENTED_EDGE('',*,*,#814,.T.);
#814 = EDGE_CURVE('',#807,#815,#817,.T.);
#815 = VERTEX_POINT('',#816);
#816 = CARTESIAN_POINT('',(-17.90494515241,-8.113133740362,4.45));
#817 = LINE('',#818,#819);
#818 = CARTESIAN_POINT('',(-18.67449047489,-5.998825343594,4.45));
#819 = VECTOR('',#820,1.);
#820 = DIRECTION('',(0.342020143326,-0.939692620786,0.));
#821 = ORIENTED_EDGE('',*,*,#822,.F.);
#822 = EDGE_CURVE('',#290,#815,#823,.T.);
#823 = LINE('',#824,#825);
#824 = CARTESIAN_POINT('',(-8.695957468713,-4.76133633577,4.45));
#825 = VECTOR('',#826,1.);
#826 = DIRECTION('',(0.939692620786,0.342020143326,-0.));
#827 = ORIENTED_EDGE('',*,*,#289,.T.);
#828 = ORIENTED_EDGE('',*,*,#829,.T.);
#829 = EDGE_CURVE('',#282,#830,#832,.T.);
#830 = VERTEX_POINT('',#831);
#831 = CARTESIAN_POINT('',(14.050289670602,-13.74770381453,4.45));
#832 = LINE('',#833,#834);
#833 = CARTESIAN_POINT('',(6.543054128036,-7.448385239607,4.45));
#834 = VECTOR('',#835,1.);
#835 = DIRECTION('',(-0.766044443119,0.642787609687,0.));
#836 = ORIENTED_EDGE('',*,*,#837,.T.);
#837 = EDGE_CURVE('',#830,#838,#840,.T.);
#838 = VERTEX_POINT('',#839);
#839 = CARTESIAN_POINT('',(15.978652499662,-11.44957048517,4.45));
#840 = LINE('',#841,#842);
#841 = CARTESIAN_POINT('',(14.532380377867,-13.17317048219,4.45));
#842 = VECTOR('',#843,1.);
#843 = DIRECTION('',(0.642787609687,0.766044443119,-0.));
#844 = ORIENTED_EDGE('',*,*,#845,.F.);
#845 = EDGE_CURVE('',#256,#838,#846,.T.);
#846 = LINE('',#847,#848);
#847 = CARTESIAN_POINT('',(8.471416957096,-5.15025191025,4.45));
#848 = VECTOR('',#849,1.);
#849 = DIRECTION('',(-0.766044443119,0.642787609687,0.));
#850 = ORIENTED_EDGE('',*,*,#255,.T.);
#851 = ORIENTED_EDGE('',*,*,#357,.T.);
#852 = ORIENTED_EDGE('',*,*,#853,.T.);
#853 = EDGE_CURVE('',#350,#854,#856,.T.);
#854 = VERTEX_POINT('',#855);
#855 = CARTESIAN_POINT('',(4.88071591179,19.041759692539,4.45));
#856 = LINE('',#857,#858);
#857 = CARTESIAN_POINT('',(3.178963770654,9.390643713019,4.45));
#858 = VECTOR('',#859,1.);
#859 = DIRECTION('',(-0.173648177667,-0.984807753012,0.));
#860 = ORIENTED_EDGE('',*,*,#861,.T.);
#861 = EDGE_CURVE('',#854,#798,#862,.T.);
#862 = LINE('',#863,#864);
#863 = CARTESIAN_POINT('',(4.142110097031,19.171995825789,4.45));
#864 = VECTOR('',#865,1.);
#865 = DIRECTION('',(-0.984807753012,0.173648177667,0.));
#866 = FACE_BOUND('',#867,.T.);
#867 = EDGE_LOOP('',(#868));
#868 = ORIENTED_EDGE('',*,*,#564,.F.);
#869 = PLANE('',#870);
#870 = AXIS2_PLACEMENT_3D('',#871,#872,#873);
#871 = CARTESIAN_POINT('',(0.,0.,4.45));
#872 = DIRECTION('',(0.,0.,1.));
#873 = DIRECTION('',(1.,0.,-0.));
#874 = ADVANCED_FACE('',(#875),#941,.T.);
#875 = FACE_BOUND('',#876,.T.);
#876 = EDGE_LOOP('',(#877,#887,#895,#901,#902,#903,#911,#919,#927,#935)
  );
#877 = ORIENTED_EDGE('',*,*,#878,.T.);
#878 = EDGE_CURVE('',#879,#881,#883,.T.);
#879 = VERTEX_POINT('',#880);
#880 = CARTESIAN_POINT('',(16.476581387689,-11.86738243147,7.24));
#881 = VERTEX_POINT('',#882);
#882 = CARTESIAN_POINT('',(17.970368051771,-13.12081827036,7.24));
#883 = LINE('',#884,#885);
#884 = CARTESIAN_POINT('',(15.978652499662,-11.44957048517,7.24));
#885 = VECTOR('',#886,1.);
#886 = DIRECTION('',(0.766044443119,-0.642787609687,0.));
#887 = ORIENTED_EDGE('',*,*,#888,.F.);
#888 = EDGE_CURVE('',#889,#881,#891,.T.);
#889 = VERTEX_POINT('',#890);
#890 = CARTESIAN_POINT('',(17.970368051771,-13.12081827036,4.44));
#891 = LINE('',#892,#893);
#892 = CARTESIAN_POINT('',(17.970368051771,-13.12081827036,4.44));
#893 = VECTOR('',#894,1.);
#894 = DIRECTION('',(0.,0.,1.));
#895 = ORIENTED_EDGE('',*,*,#896,.F.);
#896 = EDGE_CURVE('',#265,#889,#897,.T.);
#897 = LINE('',#898,#899);
#898 = CARTESIAN_POINT('',(15.978652499662,-11.44957048517,4.44));
#899 = VECTOR('',#900,1.);
#900 = DIRECTION('',(0.766044443119,-0.642787609687,0.));
#901 = ORIENTED_EDGE('',*,*,#264,.T.);
#902 = ORIENTED_EDGE('',*,*,#845,.T.);
#903 = ORIENTED_EDGE('',*,*,#904,.T.);
#904 = EDGE_CURVE('',#838,#905,#907,.T.);
#905 = VERTEX_POINT('',#906);
#906 = CARTESIAN_POINT('',(15.978652499662,-11.44957048517,6.05));
#907 = LINE('',#908,#909);
#908 = CARTESIAN_POINT('',(15.978652499662,-11.44957048517,4.44));
#909 = VECTOR('',#910,1.);
#910 = DIRECTION('',(0.,0.,1.));
#911 = ORIENTED_EDGE('',*,*,#912,.F.);
#912 = EDGE_CURVE('',#913,#905,#915,.T.);
#913 = VERTEX_POINT('',#914);
#914 = CARTESIAN_POINT('',(15.71053694457,-11.22459482178,6.05));
#915 = LINE('',#916,#917);
#916 = CARTESIAN_POINT('',(15.71053694457,-11.22459482178,6.05));
#917 = VECTOR('',#918,1.);
#918 = DIRECTION('',(0.766044443119,-0.642787609687,0.));
#919 = ORIENTED_EDGE('',*,*,#920,.T.);
#920 = EDGE_CURVE('',#913,#921,#923,.T.);
#921 = VERTEX_POINT('',#922);
#922 = CARTESIAN_POINT('',(15.71053694457,-11.22459482178,7.25));
#923 = LINE('',#924,#925);
#924 = CARTESIAN_POINT('',(15.71053694457,-11.22459482178,6.05));
#925 = VECTOR('',#926,1.);
#926 = DIRECTION('',(0.,0.,1.));
#927 = ORIENTED_EDGE('',*,*,#928,.T.);
#928 = EDGE_CURVE('',#921,#929,#931,.T.);
#929 = VERTEX_POINT('',#930);
#930 = CARTESIAN_POINT('',(16.476581387689,-11.86738243147,7.25));
#931 = LINE('',#932,#933);
#932 = CARTESIAN_POINT('',(15.71053694457,-11.22459482178,7.25));
#933 = VECTOR('',#934,1.);
#934 = DIRECTION('',(0.766044443119,-0.642787609687,0.));
#935 = ORIENTED_EDGE('',*,*,#936,.F.);
#936 = EDGE_CURVE('',#879,#929,#937,.T.);
#937 = LINE('',#938,#939);
#938 = CARTESIAN_POINT('',(16.476581387689,-11.86738243147,6.05));
#939 = VECTOR('',#940,1.);
#940 = DIRECTION('',(0.,0.,1.));
#941 = PLANE('',#942);
#942 = AXIS2_PLACEMENT_3D('',#943,#944,#945);
#943 = CARTESIAN_POINT('',(15.978652499662,-11.44957048517,4.44));
#944 = DIRECTION('',(0.642787609687,0.766044443119,0.));
#945 = DIRECTION('',(0.,0.,1.));
#946 = ADVANCED_FACE('',(#947),#965,.F.);
#947 = FACE_BOUND('',#948,.F.);
#948 = EDGE_LOOP('',(#949,#950,#951,#959));
#949 = ORIENTED_EDGE('',*,*,#896,.F.);
#950 = ORIENTED_EDGE('',*,*,#272,.F.);
#951 = ORIENTED_EDGE('',*,*,#952,.T.);
#952 = EDGE_CURVE('',#273,#953,#955,.T.);
#953 = VERTEX_POINT('',#954);
#954 = CARTESIAN_POINT('',(16.042005222711,-15.41895159972,4.44));
#955 = LINE('',#956,#957);
#956 = CARTESIAN_POINT('',(14.050289670602,-13.74770381453,4.44));
#957 = VECTOR('',#958,1.);
#958 = DIRECTION('',(0.766044443119,-0.642787609687,0.));
#959 = ORIENTED_EDGE('',*,*,#960,.T.);
#960 = EDGE_CURVE('',#953,#889,#961,.T.);
#961 = LINE('',#962,#963);
#962 = CARTESIAN_POINT('',(16.042005222711,-15.41895159972,4.44));
#963 = VECTOR('',#964,1.);
#964 = DIRECTION('',(0.642787609687,0.766044443119,0.));
#965 = PLANE('',#966);
#966 = AXIS2_PLACEMENT_3D('',#967,#968,#969);
#967 = CARTESIAN_POINT('',(14.050289670602,-13.74770381453,4.44));
#968 = DIRECTION('',(0.,0.,1.));
#969 = DIRECTION('',(0.766044443119,-0.642787609687,0.));
#970 = ADVANCED_FACE('',(#971),#1030,.F.);
#971 = FACE_BOUND('',#972,.F.);
#972 = EDGE_LOOP('',(#973,#983,#989,#990,#991,#992,#1000,#1008,#1016,
    #1024));
#973 = ORIENTED_EDGE('',*,*,#974,.T.);
#974 = EDGE_CURVE('',#975,#977,#979,.T.);
#975 = VERTEX_POINT('',#976);
#976 = CARTESIAN_POINT('',(14.548218558629,-14.16551576083,7.24));
#977 = VERTEX_POINT('',#978);
#978 = CARTESIAN_POINT('',(16.042005222711,-15.41895159972,7.24));
#979 = LINE('',#980,#981);
#980 = CARTESIAN_POINT('',(14.050289670602,-13.74770381453,7.24));
#981 = VECTOR('',#982,1.);
#982 = DIRECTION('',(0.766044443119,-0.642787609687,0.));
#983 = ORIENTED_EDGE('',*,*,#984,.F.);
#984 = EDGE_CURVE('',#953,#977,#985,.T.);
#985 = LINE('',#986,#987);
#986 = CARTESIAN_POINT('',(16.042005222711,-15.41895159972,4.44));
#987 = VECTOR('',#988,1.);
#988 = DIRECTION('',(0.,0.,1.));
#989 = ORIENTED_EDGE('',*,*,#952,.F.);
#990 = ORIENTED_EDGE('',*,*,#281,.T.);
#991 = ORIENTED_EDGE('',*,*,#829,.T.);
#992 = ORIENTED_EDGE('',*,*,#993,.T.);
#993 = EDGE_CURVE('',#830,#994,#996,.T.);
#994 = VERTEX_POINT('',#995);
#995 = CARTESIAN_POINT('',(14.050289670602,-13.74770381453,6.05));
#996 = LINE('',#997,#998);
#997 = CARTESIAN_POINT('',(14.050289670602,-13.74770381453,4.44));
#998 = VECTOR('',#999,1.);
#999 = DIRECTION('',(0.,0.,1.));
#1000 = ORIENTED_EDGE('',*,*,#1001,.F.);
#1001 = EDGE_CURVE('',#1002,#994,#1004,.T.);
#1002 = VERTEX_POINT('',#1003);
#1003 = CARTESIAN_POINT('',(13.782174115511,-13.52272815114,6.05));
#1004 = LINE('',#1005,#1006);
#1005 = CARTESIAN_POINT('',(13.782174115511,-13.52272815114,6.05));
#1006 = VECTOR('',#1007,1.);
#1007 = DIRECTION('',(0.766044443119,-0.642787609687,0.));
#1008 = ORIENTED_EDGE('',*,*,#1009,.T.);
#1009 = EDGE_CURVE('',#1002,#1010,#1012,.T.);
#1010 = VERTEX_POINT('',#1011);
#1011 = CARTESIAN_POINT('',(13.782174115511,-13.52272815114,7.25));
#1012 = LINE('',#1013,#1014);
#1013 = CARTESIAN_POINT('',(13.782174115511,-13.52272815114,6.05));
#1014 = VECTOR('',#1015,1.);
#1015 = DIRECTION('',(0.,0.,1.));
#1016 = ORIENTED_EDGE('',*,*,#1017,.T.);
#1017 = EDGE_CURVE('',#1010,#1018,#1020,.T.);
#1018 = VERTEX_POINT('',#1019);
#1019 = CARTESIAN_POINT('',(14.548218558629,-14.16551576083,7.25));
#1020 = LINE('',#1021,#1022);
#1021 = CARTESIAN_POINT('',(13.782174115511,-13.52272815114,7.25));
#1022 = VECTOR('',#1023,1.);
#1023 = DIRECTION('',(0.766044443119,-0.642787609687,0.));
#1024 = ORIENTED_EDGE('',*,*,#1025,.F.);
#1025 = EDGE_CURVE('',#975,#1018,#1026,.T.);
#1026 = LINE('',#1027,#1028);
#1027 = CARTESIAN_POINT('',(14.548218558629,-14.16551576083,6.05));
#1028 = VECTOR('',#1029,1.);
#1029 = DIRECTION('',(0.,0.,1.));
#1030 = PLANE('',#1031);
#1031 = AXIS2_PLACEMENT_3D('',#1032,#1033,#1034);
#1032 = CARTESIAN_POINT('',(14.050289670602,-13.74770381453,4.44));
#1033 = DIRECTION('',(0.642787609687,0.766044443119,0.));
#1034 = DIRECTION('',(0.,0.,1.));
#1035 = ADVANCED_FACE('',(#1036),#1102,.T.);
#1036 = FACE_BOUND('',#1037,.T.);
#1037 = EDGE_LOOP('',(#1038,#1048,#1056,#1062,#1063,#1064,#1072,#1080,
    #1088,#1096));
#1038 = ORIENTED_EDGE('',*,*,#1039,.T.);
#1039 = EDGE_CURVE('',#1040,#1042,#1044,.T.);
#1040 = VERTEX_POINT('',#1041);
#1041 = CARTESIAN_POINT('',(-18.51574535592,-8.335446833524,7.24));
#1042 = VERTEX_POINT('',#1043);
#1043 = CARTESIAN_POINT('',(-20.34814596645,-9.002386113009,7.24));
#1044 = LINE('',#1045,#1046);
#1045 = CARTESIAN_POINT('',(-17.90494515241,-8.113133740362,7.24));
#1046 = VECTOR('',#1047,1.);
#1047 = DIRECTION('',(-0.939692620786,-0.342020143326,0.));
#1048 = ORIENTED_EDGE('',*,*,#1049,.F.);
#1049 = EDGE_CURVE('',#1050,#1042,#1052,.T.);
#1050 = VERTEX_POINT('',#1051);
#1051 = CARTESIAN_POINT('',(-20.34814596645,-9.002386113009,4.44));
#1052 = LINE('',#1053,#1054);
#1053 = CARTESIAN_POINT('',(-20.34814596645,-9.002386113009,4.44));
#1054 = VECTOR('',#1055,1.);
#1055 = DIRECTION('',(0.,0.,1.));
#1056 = ORIENTED_EDGE('',*,*,#1057,.F.);
#1057 = EDGE_CURVE('',#299,#1050,#1058,.T.);
#1058 = LINE('',#1059,#1060);
#1059 = CARTESIAN_POINT('',(-17.90494515241,-8.113133740362,4.44));
#1060 = VECTOR('',#1061,1.);
#1061 = DIRECTION('',(-0.939692620786,-0.342020143326,0.));
#1062 = ORIENTED_EDGE('',*,*,#298,.T.);
#1063 = ORIENTED_EDGE('',*,*,#822,.T.);
#1064 = ORIENTED_EDGE('',*,*,#1065,.T.);
#1065 = EDGE_CURVE('',#815,#1066,#1068,.T.);
#1066 = VERTEX_POINT('',#1067);
#1067 = CARTESIAN_POINT('',(-17.90494515241,-8.113133740362,6.05));
#1068 = LINE('',#1069,#1070);
#1069 = CARTESIAN_POINT('',(-17.90494515241,-8.113133740362,4.44));
#1070 = VECTOR('',#1071,1.);
#1071 = DIRECTION('',(0.,0.,1.));
#1072 = ORIENTED_EDGE('',*,*,#1073,.F.);
#1073 = EDGE_CURVE('',#1074,#1066,#1076,.T.);
#1074 = VERTEX_POINT('',#1075);
#1075 = CARTESIAN_POINT('',(-17.57605273514,-7.993426690198,6.05));
#1076 = LINE('',#1077,#1078);
#1077 = CARTESIAN_POINT('',(-17.57605273514,-7.993426690198,6.05));
#1078 = VECTOR('',#1079,1.);
#1079 = DIRECTION('',(-0.939692620786,-0.342020143326,0.));
#1080 = ORIENTED_EDGE('',*,*,#1081,.T.);
#1081 = EDGE_CURVE('',#1074,#1082,#1084,.T.);
#1082 = VERTEX_POINT('',#1083);
#1083 = CARTESIAN_POINT('',(-17.57605273514,-7.993426690198,7.25));
#1084 = LINE('',#1085,#1086);
#1085 = CARTESIAN_POINT('',(-17.57605273514,-7.993426690198,6.05));
#1086 = VECTOR('',#1087,1.);
#1087 = DIRECTION('',(0.,0.,1.));
#1088 = ORIENTED_EDGE('',*,*,#1089,.T.);
#1089 = EDGE_CURVE('',#1082,#1090,#1092,.T.);
#1090 = VERTEX_POINT('',#1091);
#1091 = CARTESIAN_POINT('',(-18.51574535592,-8.335446833524,7.25));
#1092 = LINE('',#1093,#1094);
#1093 = CARTESIAN_POINT('',(-17.57605273514,-7.993426690198,7.25));
#1094 = VECTOR('',#1095,1.);
#1095 = DIRECTION('',(-0.939692620786,-0.342020143326,0.));
#1096 = ORIENTED_EDGE('',*,*,#1097,.F.);
#1097 = EDGE_CURVE('',#1040,#1090,#1098,.T.);
#1098 = LINE('',#1099,#1100);
#1099 = CARTESIAN_POINT('',(-18.51574535592,-8.335446833524,6.05));
#1100 = VECTOR('',#1101,1.);
#1101 = DIRECTION('',(0.,0.,1.));
#1102 = PLANE('',#1103);
#1103 = AXIS2_PLACEMENT_3D('',#1104,#1105,#1106);
#1104 = CARTESIAN_POINT('',(-17.90494515241,-8.113133740362,4.44));
#1105 = DIRECTION('',(0.342020143326,-0.939692620786,0.));
#1106 = DIRECTION('',(0.,0.,1.));
#1107 = ADVANCED_FACE('',(#1108),#1126,.F.);
#1108 = FACE_BOUND('',#1109,.F.);
#1109 = EDGE_LOOP('',(#1110,#1111,#1112,#1120));
#1110 = ORIENTED_EDGE('',*,*,#1057,.F.);
#1111 = ORIENTED_EDGE('',*,*,#306,.F.);
#1112 = ORIENTED_EDGE('',*,*,#1113,.T.);
#1113 = EDGE_CURVE('',#307,#1114,#1116,.T.);
#1114 = VERTEX_POINT('',#1115);
#1115 = CARTESIAN_POINT('',(-21.37420639643,-6.183308250651,4.44));
#1116 = LINE('',#1117,#1118);
#1117 = CARTESIAN_POINT('',(-18.93100558239,-5.294055878004,4.44));
#1118 = VECTOR('',#1119,1.);
#1119 = DIRECTION('',(-0.939692620786,-0.342020143326,0.));
#1120 = ORIENTED_EDGE('',*,*,#1121,.T.);
#1121 = EDGE_CURVE('',#1114,#1050,#1122,.T.);
#1122 = LINE('',#1123,#1124);
#1123 = CARTESIAN_POINT('',(-21.37420639643,-6.183308250651,4.44));
#1124 = VECTOR('',#1125,1.);
#1125 = DIRECTION('',(0.342020143326,-0.939692620786,0.));
#1126 = PLANE('',#1127);
#1127 = AXIS2_PLACEMENT_3D('',#1128,#1129,#1130);
#1128 = CARTESIAN_POINT('',(-18.93100558239,-5.294055878004,4.44));
#1129 = DIRECTION('',(0.,0.,1.));
#1130 = DIRECTION('',(-0.939692620786,-0.342020143326,0.));
#1131 = ADVANCED_FACE('',(#1132),#1191,.F.);
#1132 = FACE_BOUND('',#1133,.F.);
#1133 = EDGE_LOOP('',(#1134,#1144,#1150,#1151,#1152,#1153,#1161,#1169,
    #1177,#1185));
#1134 = ORIENTED_EDGE('',*,*,#1135,.T.);
#1135 = EDGE_CURVE('',#1136,#1138,#1140,.T.);
#1136 = VERTEX_POINT('',#1137);
#1137 = CARTESIAN_POINT('',(-19.5418057859,-5.516368971166,7.24));
#1138 = VERTEX_POINT('',#1139);
#1139 = CARTESIAN_POINT('',(-21.37420639643,-6.183308250651,7.24));
#1140 = LINE('',#1141,#1142);
#1141 = CARTESIAN_POINT('',(-18.93100558239,-5.294055878004,7.24));
#1142 = VECTOR('',#1143,1.);
#1143 = DIRECTION('',(-0.939692620786,-0.342020143326,0.));
#1144 = ORIENTED_EDGE('',*,*,#1145,.F.);
#1145 = EDGE_CURVE('',#1114,#1138,#1146,.T.);
#1146 = LINE('',#1147,#1148);
#1147 = CARTESIAN_POINT('',(-21.37420639643,-6.183308250651,4.44));
#1148 = VECTOR('',#1149,1.);
#1149 = DIRECTION('',(0.,0.,1.));
#1150 = ORIENTED_EDGE('',*,*,#1113,.F.);
#1151 = ORIENTED_EDGE('',*,*,#315,.T.);
#1152 = ORIENTED_EDGE('',*,*,#806,.T.);
#1153 = ORIENTED_EDGE('',*,*,#1154,.T.);
#1154 = EDGE_CURVE('',#807,#1155,#1157,.T.);
#1155 = VERTEX_POINT('',#1156);
#1156 = CARTESIAN_POINT('',(-18.93100558239,-5.294055878004,6.05));
#1157 = LINE('',#1158,#1159);
#1158 = CARTESIAN_POINT('',(-18.93100558239,-5.294055878004,4.44));
#1159 = VECTOR('',#1160,1.);
#1160 = DIRECTION('',(0.,0.,1.));
#1161 = ORIENTED_EDGE('',*,*,#1162,.F.);
#1162 = EDGE_CURVE('',#1163,#1155,#1165,.T.);
#1163 = VERTEX_POINT('',#1164);
#1164 = CARTESIAN_POINT('',(-18.60211316511,-5.17434882784,6.05));
#1165 = LINE('',#1166,#1167);
#1166 = CARTESIAN_POINT('',(-18.60211316511,-5.17434882784,6.05));
#1167 = VECTOR('',#1168,1.);
#1168 = DIRECTION('',(-0.939692620786,-0.342020143326,0.));
#1169 = ORIENTED_EDGE('',*,*,#1170,.T.);
#1170 = EDGE_CURVE('',#1163,#1171,#1173,.T.);
#1171 = VERTEX_POINT('',#1172);
#1172 = CARTESIAN_POINT('',(-18.60211316511,-5.17434882784,7.25));
#1173 = LINE('',#1174,#1175);
#1174 = CARTESIAN_POINT('',(-18.60211316511,-5.17434882784,6.05));
#1175 = VECTOR('',#1176,1.);
#1176 = DIRECTION('',(0.,0.,1.));
#1177 = ORIENTED_EDGE('',*,*,#1178,.T.);
#1178 = EDGE_CURVE('',#1171,#1179,#1181,.T.);
#1179 = VERTEX_POINT('',#1180);
#1180 = CARTESIAN_POINT('',(-19.5418057859,-5.516368971166,7.25));
#1181 = LINE('',#1182,#1183);
#1182 = CARTESIAN_POINT('',(-18.60211316511,-5.17434882784,7.25));
#1183 = VECTOR('',#1184,1.);
#1184 = DIRECTION('',(-0.939692620786,-0.342020143326,0.));
#1185 = ORIENTED_EDGE('',*,*,#1186,.F.);
#1186 = EDGE_CURVE('',#1136,#1179,#1187,.T.);
#1187 = LINE('',#1188,#1189);
#1188 = CARTESIAN_POINT('',(-19.5418057859,-5.516368971166,6.05));
#1189 = VECTOR('',#1190,1.);
#1190 = DIRECTION('',(0.,0.,1.));
#1191 = PLANE('',#1192);
#1192 = AXIS2_PLACEMENT_3D('',#1193,#1194,#1195);
#1193 = CARTESIAN_POINT('',(-18.93100558239,-5.294055878004,4.44));
#1194 = DIRECTION('',(0.342020143326,-0.939692620786,0.));
#1195 = DIRECTION('',(0.,0.,1.));
#1196 = ADVANCED_FACE('',(#1197),#1263,.T.);
#1197 = FACE_BOUND('',#1198,.T.);
#1198 = EDGE_LOOP('',(#1199,#1209,#1217,#1223,#1224,#1225,#1233,#1241,
    #1249,#1257));
#1199 = ORIENTED_EDGE('',*,*,#1200,.T.);
#1200 = EDGE_CURVE('',#1201,#1203,#1205,.T.);
#1201 = VERTEX_POINT('',#1202);
#1202 = CARTESIAN_POINT('',(2.039163968237,20.202829264998,7.24));
#1203 = VERTEX_POINT('',#1204);
#1204 = CARTESIAN_POINT('',(2.377777914688,22.123204383371,7.24));
#1205 = LINE('',#1206,#1207);
#1206 = CARTESIAN_POINT('',(1.926292652754,19.56270422554,7.24));
#1207 = VECTOR('',#1208,1.);
#1208 = DIRECTION('',(0.173648177667,0.984807753012,0.));
#1209 = ORIENTED_EDGE('',*,*,#1210,.F.);
#1210 = EDGE_CURVE('',#1211,#1203,#1213,.T.);
#1211 = VERTEX_POINT('',#1212);
#1212 = CARTESIAN_POINT('',(2.377777914688,22.123204383371,4.44));
#1213 = LINE('',#1214,#1215);
#1214 = CARTESIAN_POINT('',(2.377777914688,22.123204383371,4.44));
#1215 = VECTOR('',#1216,1.);
#1216 = DIRECTION('',(0.,0.,1.));
#1217 = ORIENTED_EDGE('',*,*,#1218,.F.);
#1218 = EDGE_CURVE('',#333,#1211,#1219,.T.);
#1219 = LINE('',#1220,#1221);
#1220 = CARTESIAN_POINT('',(1.926292652754,19.56270422554,4.44));
#1221 = VECTOR('',#1222,1.);
#1222 = DIRECTION('',(0.173648177667,0.984807753012,0.));
#1223 = ORIENTED_EDGE('',*,*,#332,.T.);
#1224 = ORIENTED_EDGE('',*,*,#797,.T.);
#1225 = ORIENTED_EDGE('',*,*,#1226,.T.);
#1226 = EDGE_CURVE('',#798,#1227,#1229,.T.);
#1227 = VERTEX_POINT('',#1228);
#1228 = CARTESIAN_POINT('',(1.926292652754,19.56270422554,6.05));
#1229 = LINE('',#1230,#1231);
#1230 = CARTESIAN_POINT('',(1.926292652754,19.56270422554,4.44));
#1231 = VECTOR('',#1232,1.);
#1232 = DIRECTION('',(0.,0.,1.));
#1233 = ORIENTED_EDGE('',*,*,#1234,.F.);
#1234 = EDGE_CURVE('',#1235,#1227,#1237,.T.);
#1235 = VERTEX_POINT('',#1236);
#1236 = CARTESIAN_POINT('',(1.86551579057,19.218021511985,6.05));
#1237 = LINE('',#1238,#1239);
#1238 = CARTESIAN_POINT('',(1.86551579057,19.218021511985,6.05));
#1239 = VECTOR('',#1240,1.);
#1240 = DIRECTION('',(0.173648177667,0.984807753012,0.));
#1241 = ORIENTED_EDGE('',*,*,#1242,.T.);
#1242 = EDGE_CURVE('',#1235,#1243,#1245,.T.);
#1243 = VERTEX_POINT('',#1244);
#1244 = CARTESIAN_POINT('',(1.86551579057,19.218021511985,7.25));
#1245 = LINE('',#1246,#1247);
#1246 = CARTESIAN_POINT('',(1.86551579057,19.218021511985,6.05));
#1247 = VECTOR('',#1248,1.);
#1248 = DIRECTION('',(0.,0.,1.));
#1249 = ORIENTED_EDGE('',*,*,#1250,.T.);
#1250 = EDGE_CURVE('',#1243,#1251,#1253,.T.);
#1251 = VERTEX_POINT('',#1252);
#1252 = CARTESIAN_POINT('',(2.039163968237,20.202829264998,7.25));
#1253 = LINE('',#1254,#1255);
#1254 = CARTESIAN_POINT('',(1.86551579057,19.218021511985,7.25));
#1255 = VECTOR('',#1256,1.);
#1256 = DIRECTION('',(0.173648177667,0.984807753012,0.));
#1257 = ORIENTED_EDGE('',*,*,#1258,.F.);
#1258 = EDGE_CURVE('',#1201,#1251,#1259,.T.);
#1259 = LINE('',#1260,#1261);
#1260 = CARTESIAN_POINT('',(2.039163968237,20.202829264998,6.05));
#1261 = VECTOR('',#1262,1.);
#1262 = DIRECTION('',(0.,0.,1.));
#1263 = PLANE('',#1264);
#1264 = AXIS2_PLACEMENT_3D('',#1265,#1266,#1267);
#1265 = CARTESIAN_POINT('',(1.926292652754,19.56270422554,4.44));
#1266 = DIRECTION('',(-0.984807753012,0.173648177667,0.));
#1267 = DIRECTION('',(0.,0.,1.));
#1268 = ADVANCED_FACE('',(#1269),#1287,.F.);
#1269 = FACE_BOUND('',#1270,.F.);
#1270 = EDGE_LOOP('',(#1271,#1272,#1273,#1281));
#1271 = ORIENTED_EDGE('',*,*,#1218,.F.);
#1272 = ORIENTED_EDGE('',*,*,#340,.F.);
#1273 = ORIENTED_EDGE('',*,*,#1274,.T.);
#1274 = EDGE_CURVE('',#341,#1275,#1277,.T.);
#1275 = VERTEX_POINT('',#1276);
#1276 = CARTESIAN_POINT('',(5.332201173724,21.602259850371,4.44));
#1277 = LINE('',#1278,#1279);
#1278 = CARTESIAN_POINT('',(4.88071591179,19.041759692539,4.44));
#1279 = VECTOR('',#1280,1.);
#1280 = DIRECTION('',(0.173648177667,0.984807753012,0.));
#1281 = ORIENTED_EDGE('',*,*,#1282,.T.);
#1282 = EDGE_CURVE('',#1275,#1211,#1283,.T.);
#1283 = LINE('',#1284,#1285);
#1284 = CARTESIAN_POINT('',(5.332201173724,21.602259850371,4.44));
#1285 = VECTOR('',#1286,1.);
#1286 = DIRECTION('',(-0.984807753012,0.173648177667,0.));
#1287 = PLANE('',#1288);
#1288 = AXIS2_PLACEMENT_3D('',#1289,#1290,#1291);
#1289 = CARTESIAN_POINT('',(4.88071591179,19.041759692539,4.44));
#1290 = DIRECTION('',(0.,0.,1.));
#1291 = DIRECTION('',(0.173648177667,0.984807753012,0.));
#1292 = ADVANCED_FACE('',(#1293),#1352,.F.);
#1293 = FACE_BOUND('',#1294,.F.);
#1294 = EDGE_LOOP('',(#1295,#1305,#1311,#1312,#1313,#1314,#1322,#1330,
    #1338,#1346));
#1295 = ORIENTED_EDGE('',*,*,#1296,.T.);
#1296 = EDGE_CURVE('',#1297,#1299,#1301,.T.);
#1297 = VERTEX_POINT('',#1298);
#1298 = CARTESIAN_POINT('',(4.993587227274,19.681884731997,7.24));
#1299 = VERTEX_POINT('',#1300);
#1300 = CARTESIAN_POINT('',(5.332201173724,21.602259850371,7.24));
#1301 = LINE('',#1302,#1303);
#1302 = CARTESIAN_POINT('',(4.88071591179,19.041759692539,7.24));
#1303 = VECTOR('',#1304,1.);
#1304 = DIRECTION('',(0.173648177667,0.984807753012,0.));
#1305 = ORIENTED_EDGE('',*,*,#1306,.F.);
#1306 = EDGE_CURVE('',#1275,#1299,#1307,.T.);
#1307 = LINE('',#1308,#1309);
#1308 = CARTESIAN_POINT('',(5.332201173724,21.602259850371,4.44));
#1309 = VECTOR('',#1310,1.);
#1310 = DIRECTION('',(0.,0.,1.));
#1311 = ORIENTED_EDGE('',*,*,#1274,.F.);
#1312 = ORIENTED_EDGE('',*,*,#349,.T.);
#1313 = ORIENTED_EDGE('',*,*,#853,.T.);
#1314 = ORIENTED_EDGE('',*,*,#1315,.T.);
#1315 = EDGE_CURVE('',#854,#1316,#1318,.T.);
#1316 = VERTEX_POINT('',#1317);
#1317 = CARTESIAN_POINT('',(4.88071591179,19.041759692539,6.05));
#1318 = LINE('',#1319,#1320);
#1319 = CARTESIAN_POINT('',(4.88071591179,19.041759692539,4.44));
#1320 = VECTOR('',#1321,1.);
#1321 = DIRECTION('',(0.,0.,1.));
#1322 = ORIENTED_EDGE('',*,*,#1323,.F.);
#1323 = EDGE_CURVE('',#1324,#1316,#1326,.T.);
#1324 = VERTEX_POINT('',#1325);
#1325 = CARTESIAN_POINT('',(4.819939049607,18.697076978985,6.05));
#1326 = LINE('',#1327,#1328);
#1327 = CARTESIAN_POINT('',(4.819939049607,18.697076978985,6.05));
#1328 = VECTOR('',#1329,1.);
#1329 = DIRECTION('',(0.173648177667,0.984807753012,0.));
#1330 = ORIENTED_EDGE('',*,*,#1331,.T.);
#1331 = EDGE_CURVE('',#1324,#1332,#1334,.T.);
#1332 = VERTEX_POINT('',#1333);
#1333 = CARTESIAN_POINT('',(4.819939049607,18.697076978985,7.25));
#1334 = LINE('',#1335,#1336);
#1335 = CARTESIAN_POINT('',(4.819939049607,18.697076978985,6.05));
#1336 = VECTOR('',#1337,1.);
#1337 = DIRECTION('',(0.,0.,1.));
#1338 = ORIENTED_EDGE('',*,*,#1339,.T.);
#1339 = EDGE_CURVE('',#1332,#1340,#1342,.T.);
#1340 = VERTEX_POINT('',#1341);
#1341 = CARTESIAN_POINT('',(4.993587227274,19.681884731997,7.25));
#1342 = LINE('',#1343,#1344);
#1343 = CARTESIAN_POINT('',(4.819939049607,18.697076978985,7.25));
#1344 = VECTOR('',#1345,1.);
#1345 = DIRECTION('',(0.173648177667,0.984807753012,0.));
#1346 = ORIENTED_EDGE('',*,*,#1347,.F.);
#1347 = EDGE_CURVE('',#1297,#1340,#1348,.T.);
#1348 = LINE('',#1349,#1350);
#1349 = CARTESIAN_POINT('',(4.993587227274,19.681884731997,6.05));
#1350 = VECTOR('',#1351,1.);
#1351 = DIRECTION('',(0.,0.,1.));
#1352 = PLANE('',#1353);
#1353 = AXIS2_PLACEMENT_3D('',#1354,#1355,#1356);
#1354 = CARTESIAN_POINT('',(4.88071591179,19.041759692539,4.44));
#1355 = DIRECTION('',(-0.984807753012,0.173648177667,0.));
#1356 = DIRECTION('',(0.,0.,1.));
#1357 = ADVANCED_FACE('',(#1358,#1364),#1367,.T.);
#1358 = FACE_BOUND('',#1359,.T.);
#1359 = EDGE_LOOP('',(#1360,#1361,#1362,#1363));
#1360 = ORIENTED_EDGE('',*,*,#382,.F.);
#1361 = ORIENTED_EDGE('',*,*,#446,.F.);
#1362 = ORIENTED_EDGE('',*,*,#478,.T.);
#1363 = ORIENTED_EDGE('',*,*,#505,.T.);
#1364 = FACE_BOUND('',#1365,.T.);
#1365 = EDGE_LOOP('',(#1366));
#1366 = ORIENTED_EDGE('',*,*,#520,.F.);
#1367 = PLANE('',#1368);
#1368 = AXIS2_PLACEMENT_3D('',#1369,#1370,#1371);
#1369 = CARTESIAN_POINT('',(-23.,-3.,2.));
#1370 = DIRECTION('',(0.,0.,1.));
#1371 = DIRECTION('',(1.,0.,-0.));
#1372 = ADVANCED_FACE('',(#1373),#1380,.T.);
#1373 = FACE_BOUND('',#1374,.T.);
#1374 = EDGE_LOOP('',(#1375,#1376,#1377,#1378,#1379));
#1375 = ORIENTED_EDGE('',*,*,#635,.F.);
#1376 = ORIENTED_EDGE('',*,*,#684,.F.);
#1377 = ORIENTED_EDGE('',*,*,#724,.T.);
#1378 = ORIENTED_EDGE('',*,*,#545,.T.);
#1379 = ORIENTED_EDGE('',*,*,#572,.T.);
#1380 = PLANE('',#1381);
#1381 = AXIS2_PLACEMENT_3D('',#1382,#1383,#1384);
#1382 = CARTESIAN_POINT('',(18.,-3.,2.));
#1383 = DIRECTION('',(0.,0.,1.));
#1384 = DIRECTION('',(1.,0.,-0.));
#1385 = ADVANCED_FACE('',(#1386),#1392,.T.);
#1386 = FACE_BOUND('',#1387,.T.);
#1387 = EDGE_LOOP('',(#1388,#1389,#1390,#1391));
#1388 = ORIENTED_EDGE('',*,*,#652,.F.);
#1389 = ORIENTED_EDGE('',*,*,#596,.T.);
#1390 = ORIENTED_EDGE('',*,*,#741,.T.);
#1391 = ORIENTED_EDGE('',*,*,#708,.T.);
#1392 = PLANE('',#1393);
#1393 = AXIS2_PLACEMENT_3D('',#1394,#1395,#1396);
#1394 = CARTESIAN_POINT('',(-23.,-3.,2.));
#1395 = DIRECTION('',(0.,0.,1.));
#1396 = DIRECTION('',(1.,0.,-0.));
#1397 = ADVANCED_FACE('',(#1398),#1409,.F.);
#1398 = FACE_BOUND('',#1399,.F.);
#1399 = EDGE_LOOP('',(#1400,#1401,#1402,#1403));
#1400 = ORIENTED_EDGE('',*,*,#1315,.F.);
#1401 = ORIENTED_EDGE('',*,*,#861,.T.);
#1402 = ORIENTED_EDGE('',*,*,#1226,.T.);
#1403 = ORIENTED_EDGE('',*,*,#1404,.T.);
#1404 = EDGE_CURVE('',#1227,#1316,#1405,.T.);
#1405 = LINE('',#1406,#1407);
#1406 = CARTESIAN_POINT('',(4.88071591179,19.041759692539,6.05));
#1407 = VECTOR('',#1408,1.);
#1408 = DIRECTION('',(0.984807753012,-0.173648177667,0.));
#1409 = PLANE('',#1410);
#1410 = AXIS2_PLACEMENT_3D('',#1411,#1412,#1413);
#1411 = CARTESIAN_POINT('',(4.88071591179,19.041759692539,4.44));
#1412 = DIRECTION('',(0.173648177667,0.984807753012,0.));
#1413 = DIRECTION('',(0.,0.,1.));
#1414 = ADVANCED_FACE('',(#1415),#1426,.F.);
#1415 = FACE_BOUND('',#1416,.F.);
#1416 = EDGE_LOOP('',(#1417,#1418,#1419,#1420));
#1417 = ORIENTED_EDGE('',*,*,#993,.F.);
#1418 = ORIENTED_EDGE('',*,*,#837,.T.);
#1419 = ORIENTED_EDGE('',*,*,#904,.T.);
#1420 = ORIENTED_EDGE('',*,*,#1421,.T.);
#1421 = EDGE_CURVE('',#905,#994,#1422,.T.);
#1422 = LINE('',#1423,#1424);
#1423 = CARTESIAN_POINT('',(14.050289670602,-13.74770381453,6.05));
#1424 = VECTOR('',#1425,1.);
#1425 = DIRECTION('',(-0.642787609687,-0.766044443119,0.));
#1426 = PLANE('',#1427);
#1427 = AXIS2_PLACEMENT_3D('',#1428,#1429,#1430);
#1428 = CARTESIAN_POINT('',(14.050289670602,-13.74770381453,4.44));
#1429 = DIRECTION('',(0.766044443119,-0.642787609687,0.));
#1430 = DIRECTION('',(0.,0.,1.));
#1431 = ADVANCED_FACE('',(#1432),#1443,.F.);
#1432 = FACE_BOUND('',#1433,.F.);
#1433 = EDGE_LOOP('',(#1434,#1435,#1436,#1437));
#1434 = ORIENTED_EDGE('',*,*,#1154,.F.);
#1435 = ORIENTED_EDGE('',*,*,#814,.T.);
#1436 = ORIENTED_EDGE('',*,*,#1065,.T.);
#1437 = ORIENTED_EDGE('',*,*,#1438,.T.);
#1438 = EDGE_CURVE('',#1066,#1155,#1439,.T.);
#1439 = LINE('',#1440,#1441);
#1440 = CARTESIAN_POINT('',(-18.93100558239,-5.294055878004,6.05));
#1441 = VECTOR('',#1442,1.);
#1442 = DIRECTION('',(-0.342020143326,0.939692620786,0.));
#1443 = PLANE('',#1444);
#1444 = AXIS2_PLACEMENT_3D('',#1445,#1446,#1447);
#1445 = CARTESIAN_POINT('',(-18.93100558239,-5.294055878004,4.44));
#1446 = DIRECTION('',(-0.939692620786,-0.342020143326,0.));
#1447 = DIRECTION('',(0.,0.,1.));
#1448 = ADVANCED_FACE('',(#1449),#1465,.T.);
#1449 = FACE_BOUND('',#1450,.T.);
#1450 = EDGE_LOOP('',(#1451,#1452,#1458,#1459));
#1451 = ORIENTED_EDGE('',*,*,#878,.F.);
#1452 = ORIENTED_EDGE('',*,*,#1453,.F.);
#1453 = EDGE_CURVE('',#975,#879,#1454,.T.);
#1454 = LINE('',#1455,#1456);
#1455 = CARTESIAN_POINT('',(14.548218558629,-14.16551576083,7.24));
#1456 = VECTOR('',#1457,1.);
#1457 = DIRECTION('',(0.642787609687,0.766044443119,0.));
#1458 = ORIENTED_EDGE('',*,*,#974,.T.);
#1459 = ORIENTED_EDGE('',*,*,#1460,.T.);
#1460 = EDGE_CURVE('',#977,#881,#1461,.T.);
#1461 = LINE('',#1462,#1463);
#1462 = CARTESIAN_POINT('',(16.042005222711,-15.41895159972,7.24));
#1463 = VECTOR('',#1464,1.);
#1464 = DIRECTION('',(0.642787609687,0.766044443119,0.));
#1465 = PLANE('',#1466);
#1466 = AXIS2_PLACEMENT_3D('',#1467,#1468,#1469);
#1467 = CARTESIAN_POINT('',(14.050289670602,-13.74770381453,7.24));
#1468 = DIRECTION('',(0.,0.,1.));
#1469 = DIRECTION('',(0.766044443119,-0.642787609687,0.));
#1470 = ADVANCED_FACE('',(#1471),#1482,.T.);
#1471 = FACE_BOUND('',#1472,.T.);
#1472 = EDGE_LOOP('',(#1473,#1474,#1475,#1476));
#1473 = ORIENTED_EDGE('',*,*,#1025,.F.);
#1474 = ORIENTED_EDGE('',*,*,#1453,.T.);
#1475 = ORIENTED_EDGE('',*,*,#936,.T.);
#1476 = ORIENTED_EDGE('',*,*,#1477,.F.);
#1477 = EDGE_CURVE('',#1018,#929,#1478,.T.);
#1478 = LINE('',#1479,#1480);
#1479 = CARTESIAN_POINT('',(14.548218558629,-14.16551576083,7.25));
#1480 = VECTOR('',#1481,1.);
#1481 = DIRECTION('',(0.642787609687,0.766044443119,0.));
#1482 = PLANE('',#1483);
#1483 = AXIS2_PLACEMENT_3D('',#1484,#1485,#1486);
#1484 = CARTESIAN_POINT('',(14.548218558629,-14.16551576083,6.05));
#1485 = DIRECTION('',(0.766044443119,-0.642787609687,0.));
#1486 = DIRECTION('',(0.,0.,1.));
#1487 = ADVANCED_FACE('',(#1488),#1499,.T.);
#1488 = FACE_BOUND('',#1489,.T.);
#1489 = EDGE_LOOP('',(#1490,#1496,#1497,#1498));
#1490 = ORIENTED_EDGE('',*,*,#1491,.F.);
#1491 = EDGE_CURVE('',#1010,#921,#1492,.T.);
#1492 = LINE('',#1493,#1494);
#1493 = CARTESIAN_POINT('',(13.782174115511,-13.52272815114,7.25));
#1494 = VECTOR('',#1495,1.);
#1495 = DIRECTION('',(0.642787609687,0.766044443119,0.));
#1496 = ORIENTED_EDGE('',*,*,#1017,.T.);
#1497 = ORIENTED_EDGE('',*,*,#1477,.T.);
#1498 = ORIENTED_EDGE('',*,*,#928,.F.);
#1499 = PLANE('',#1500);
#1500 = AXIS2_PLACEMENT_3D('',#1501,#1502,#1503);
#1501 = CARTESIAN_POINT('',(13.782174115511,-13.52272815114,7.25));
#1502 = DIRECTION('',(0.,0.,1.));
#1503 = DIRECTION('',(0.766044443119,-0.642787609687,0.));
#1504 = ADVANCED_FACE('',(#1505),#1516,.F.);
#1505 = FACE_BOUND('',#1506,.F.);
#1506 = EDGE_LOOP('',(#1507,#1508,#1514,#1515));
#1507 = ORIENTED_EDGE('',*,*,#1009,.F.);
#1508 = ORIENTED_EDGE('',*,*,#1509,.T.);
#1509 = EDGE_CURVE('',#1002,#913,#1510,.T.);
#1510 = LINE('',#1511,#1512);
#1511 = CARTESIAN_POINT('',(13.782174115511,-13.52272815114,6.05));
#1512 = VECTOR('',#1513,1.);
#1513 = DIRECTION('',(0.642787609687,0.766044443119,0.));
#1514 = ORIENTED_EDGE('',*,*,#920,.T.);
#1515 = ORIENTED_EDGE('',*,*,#1491,.F.);
#1516 = PLANE('',#1517);
#1517 = AXIS2_PLACEMENT_3D('',#1518,#1519,#1520);
#1518 = CARTESIAN_POINT('',(13.782174115511,-13.52272815114,6.05));
#1519 = DIRECTION('',(0.766044443119,-0.642787609687,0.));
#1520 = DIRECTION('',(0.,0.,1.));
#1521 = ADVANCED_FACE('',(#1522),#1528,.F.);
#1522 = FACE_BOUND('',#1523,.F.);
#1523 = EDGE_LOOP('',(#1524,#1525,#1526,#1527));
#1524 = ORIENTED_EDGE('',*,*,#912,.F.);
#1525 = ORIENTED_EDGE('',*,*,#1509,.F.);
#1526 = ORIENTED_EDGE('',*,*,#1001,.T.);
#1527 = ORIENTED_EDGE('',*,*,#1421,.F.);
#1528 = PLANE('',#1529);
#1529 = AXIS2_PLACEMENT_3D('',#1530,#1531,#1532);
#1530 = CARTESIAN_POINT('',(13.782174115511,-13.52272815114,6.05));
#1531 = DIRECTION('',(0.,0.,1.));
#1532 = DIRECTION('',(0.766044443119,-0.642787609687,0.));
#1533 = ADVANCED_FACE('',(#1534),#1540,.T.);
#1534 = FACE_BOUND('',#1535,.T.);
#1535 = EDGE_LOOP('',(#1536,#1537,#1538,#1539));
#1536 = ORIENTED_EDGE('',*,*,#984,.F.);
#1537 = ORIENTED_EDGE('',*,*,#960,.T.);
#1538 = ORIENTED_EDGE('',*,*,#888,.T.);
#1539 = ORIENTED_EDGE('',*,*,#1460,.F.);
#1540 = PLANE('',#1541);
#1541 = AXIS2_PLACEMENT_3D('',#1542,#1543,#1544);
#1542 = CARTESIAN_POINT('',(16.042005222711,-15.41895159972,4.44));
#1543 = DIRECTION('',(0.766044443119,-0.642787609687,0.));
#1544 = DIRECTION('',(0.,0.,1.));
#1545 = ADVANCED_FACE('',(#1546),#1562,.T.);
#1546 = FACE_BOUND('',#1547,.T.);
#1547 = EDGE_LOOP('',(#1548,#1549,#1555,#1556));
#1548 = ORIENTED_EDGE('',*,*,#1039,.F.);
#1549 = ORIENTED_EDGE('',*,*,#1550,.F.);
#1550 = EDGE_CURVE('',#1136,#1040,#1551,.T.);
#1551 = LINE('',#1552,#1553);
#1552 = CARTESIAN_POINT('',(-19.5418057859,-5.516368971166,7.24));
#1553 = VECTOR('',#1554,1.);
#1554 = DIRECTION('',(0.342020143326,-0.939692620786,0.));
#1555 = ORIENTED_EDGE('',*,*,#1135,.T.);
#1556 = ORIENTED_EDGE('',*,*,#1557,.T.);
#1557 = EDGE_CURVE('',#1138,#1042,#1558,.T.);
#1558 = LINE('',#1559,#1560);
#1559 = CARTESIAN_POINT('',(-21.37420639643,-6.183308250651,7.24));
#1560 = VECTOR('',#1561,1.);
#1561 = DIRECTION('',(0.342020143326,-0.939692620786,0.));
#1562 = PLANE('',#1563);
#1563 = AXIS2_PLACEMENT_3D('',#1564,#1565,#1566);
#1564 = CARTESIAN_POINT('',(-18.93100558239,-5.294055878004,7.24));
#1565 = DIRECTION('',(0.,0.,1.));
#1566 = DIRECTION('',(-0.939692620786,-0.342020143326,0.));
#1567 = ADVANCED_FACE('',(#1568),#1579,.T.);
#1568 = FACE_BOUND('',#1569,.T.);
#1569 = EDGE_LOOP('',(#1570,#1571,#1572,#1573));
#1570 = ORIENTED_EDGE('',*,*,#1186,.F.);
#1571 = ORIENTED_EDGE('',*,*,#1550,.T.);
#1572 = ORIENTED_EDGE('',*,*,#1097,.T.);
#1573 = ORIENTED_EDGE('',*,*,#1574,.F.);
#1574 = EDGE_CURVE('',#1179,#1090,#1575,.T.);
#1575 = LINE('',#1576,#1577);
#1576 = CARTESIAN_POINT('',(-19.5418057859,-5.516368971166,7.25));
#1577 = VECTOR('',#1578,1.);
#1578 = DIRECTION('',(0.342020143326,-0.939692620786,0.));
#1579 = PLANE('',#1580);
#1580 = AXIS2_PLACEMENT_3D('',#1581,#1582,#1583);
#1581 = CARTESIAN_POINT('',(-19.5418057859,-5.516368971166,6.05));
#1582 = DIRECTION('',(-0.939692620786,-0.342020143326,0.));
#1583 = DIRECTION('',(0.,0.,1.));
#1584 = ADVANCED_FACE('',(#1585),#1596,.T.);
#1585 = FACE_BOUND('',#1586,.T.);
#1586 = EDGE_LOOP('',(#1587,#1593,#1594,#1595));
#1587 = ORIENTED_EDGE('',*,*,#1588,.F.);
#1588 = EDGE_CURVE('',#1171,#1082,#1589,.T.);
#1589 = LINE('',#1590,#1591);
#1590 = CARTESIAN_POINT('',(-18.60211316511,-5.17434882784,7.25));
#1591 = VECTOR('',#1592,1.);
#1592 = DIRECTION('',(0.342020143326,-0.939692620786,0.));
#1593 = ORIENTED_EDGE('',*,*,#1178,.T.);
#1594 = ORIENTED_EDGE('',*,*,#1574,.T.);
#1595 = ORIENTED_EDGE('',*,*,#1089,.F.);
#1596 = PLANE('',#1597);
#1597 = AXIS2_PLACEMENT_3D('',#1598,#1599,#1600);
#1598 = CARTESIAN_POINT('',(-18.60211316511,-5.17434882784,7.25));
#1599 = DIRECTION('',(0.,0.,1.));
#1600 = DIRECTION('',(-0.939692620786,-0.342020143326,0.));
#1601 = ADVANCED_FACE('',(#1602),#1613,.F.);
#1602 = FACE_BOUND('',#1603,.F.);
#1603 = EDGE_LOOP('',(#1604,#1605,#1611,#1612));
#1604 = ORIENTED_EDGE('',*,*,#1170,.F.);
#1605 = ORIENTED_EDGE('',*,*,#1606,.T.);
#1606 = EDGE_CURVE('',#1163,#1074,#1607,.T.);
#1607 = LINE('',#1608,#1609);
#1608 = CARTESIAN_POINT('',(-18.60211316511,-5.17434882784,6.05));
#1609 = VECTOR('',#1610,1.);
#1610 = DIRECTION('',(0.342020143326,-0.939692620786,0.));
#1611 = ORIENTED_EDGE('',*,*,#1081,.T.);
#1612 = ORIENTED_EDGE('',*,*,#1588,.F.);
#1613 = PLANE('',#1614);
#1614 = AXIS2_PLACEMENT_3D('',#1615,#1616,#1617);
#1615 = CARTESIAN_POINT('',(-18.60211316511,-5.17434882784,6.05));
#1616 = DIRECTION('',(-0.939692620786,-0.342020143326,0.));
#1617 = DIRECTION('',(0.,0.,1.));
#1618 = ADVANCED_FACE('',(#1619),#1625,.F.);
#1619 = FACE_BOUND('',#1620,.F.);
#1620 = EDGE_LOOP('',(#1621,#1622,#1623,#1624));
#1621 = ORIENTED_EDGE('',*,*,#1073,.F.);
#1622 = ORIENTED_EDGE('',*,*,#1606,.F.);
#1623 = ORIENTED_EDGE('',*,*,#1162,.T.);
#1624 = ORIENTED_EDGE('',*,*,#1438,.F.);
#1625 = PLANE('',#1626);
#1626 = AXIS2_PLACEMENT_3D('',#1627,#1628,#1629);
#1627 = CARTESIAN_POINT('',(-18.60211316511,-5.17434882784,6.05));
#1628 = DIRECTION('',(0.,0.,1.));
#1629 = DIRECTION('',(-0.939692620786,-0.342020143326,0.));
#1630 = ADVANCED_FACE('',(#1631),#1637,.T.);
#1631 = FACE_BOUND('',#1632,.T.);
#1632 = EDGE_LOOP('',(#1633,#1634,#1635,#1636));
#1633 = ORIENTED_EDGE('',*,*,#1145,.F.);
#1634 = ORIENTED_EDGE('',*,*,#1121,.T.);
#1635 = ORIENTED_EDGE('',*,*,#1049,.T.);
#1636 = ORIENTED_EDGE('',*,*,#1557,.F.);
#1637 = PLANE('',#1638);
#1638 = AXIS2_PLACEMENT_3D('',#1639,#1640,#1641);
#1639 = CARTESIAN_POINT('',(-21.37420639643,-6.183308250651,4.44));
#1640 = DIRECTION('',(-0.939692620786,-0.342020143326,0.));
#1641 = DIRECTION('',(0.,0.,1.));
#1642 = ADVANCED_FACE('',(#1643),#1659,.T.);
#1643 = FACE_BOUND('',#1644,.T.);
#1644 = EDGE_LOOP('',(#1645,#1646,#1652,#1653));
#1645 = ORIENTED_EDGE('',*,*,#1200,.F.);
#1646 = ORIENTED_EDGE('',*,*,#1647,.F.);
#1647 = EDGE_CURVE('',#1297,#1201,#1648,.T.);
#1648 = LINE('',#1649,#1650);
#1649 = CARTESIAN_POINT('',(4.993587227274,19.681884731997,7.24));
#1650 = VECTOR('',#1651,1.);
#1651 = DIRECTION('',(-0.984807753012,0.173648177667,0.));
#1652 = ORIENTED_EDGE('',*,*,#1296,.T.);
#1653 = ORIENTED_EDGE('',*,*,#1654,.T.);
#1654 = EDGE_CURVE('',#1299,#1203,#1655,.T.);
#1655 = LINE('',#1656,#1657);
#1656 = CARTESIAN_POINT('',(5.332201173724,21.602259850371,7.24));
#1657 = VECTOR('',#1658,1.);
#1658 = DIRECTION('',(-0.984807753012,0.173648177667,0.));
#1659 = PLANE('',#1660);
#1660 = AXIS2_PLACEMENT_3D('',#1661,#1662,#1663);
#1661 = CARTESIAN_POINT('',(4.88071591179,19.041759692539,7.24));
#1662 = DIRECTION('',(0.,0.,1.));
#1663 = DIRECTION('',(0.173648177667,0.984807753012,0.));
#1664 = ADVANCED_FACE('',(#1665),#1676,.T.);
#1665 = FACE_BOUND('',#1666,.T.);
#1666 = EDGE_LOOP('',(#1667,#1668,#1669,#1670));
#1667 = ORIENTED_EDGE('',*,*,#1347,.F.);
#1668 = ORIENTED_EDGE('',*,*,#1647,.T.);
#1669 = ORIENTED_EDGE('',*,*,#1258,.T.);
#1670 = ORIENTED_EDGE('',*,*,#1671,.F.);
#1671 = EDGE_CURVE('',#1340,#1251,#1672,.T.);
#1672 = LINE('',#1673,#1674);
#1673 = CARTESIAN_POINT('',(4.993587227274,19.681884731997,7.25));
#1674 = VECTOR('',#1675,1.);
#1675 = DIRECTION('',(-0.984807753012,0.173648177667,0.));
#1676 = PLANE('',#1677);
#1677 = AXIS2_PLACEMENT_3D('',#1678,#1679,#1680);
#1678 = CARTESIAN_POINT('',(4.993587227274,19.681884731997,6.05));
#1679 = DIRECTION('',(0.173648177667,0.984807753012,0.));
#1680 = DIRECTION('',(0.,0.,1.));
#1681 = ADVANCED_FACE('',(#1682),#1693,.T.);
#1682 = FACE_BOUND('',#1683,.T.);
#1683 = EDGE_LOOP('',(#1684,#1690,#1691,#1692));
#1684 = ORIENTED_EDGE('',*,*,#1685,.F.);
#1685 = EDGE_CURVE('',#1332,#1243,#1686,.T.);
#1686 = LINE('',#1687,#1688);
#1687 = CARTESIAN_POINT('',(4.819939049607,18.697076978985,7.25));
#1688 = VECTOR('',#1689,1.);
#1689 = DIRECTION('',(-0.984807753012,0.173648177667,0.));
#1690 = ORIENTED_EDGE('',*,*,#1339,.T.);
#1691 = ORIENTED_EDGE('',*,*,#1671,.T.);
#1692 = ORIENTED_EDGE('',*,*,#1250,.F.);
#1693 = PLANE('',#1694);
#1694 = AXIS2_PLACEMENT_3D('',#1695,#1696,#1697);
#1695 = CARTESIAN_POINT('',(4.819939049607,18.697076978985,7.25));
#1696 = DIRECTION('',(0.,0.,1.));
#1697 = DIRECTION('',(0.173648177667,0.984807753012,0.));
#1698 = ADVANCED_FACE('',(#1699),#1710,.F.);
#1699 = FACE_BOUND('',#1700,.F.);
#1700 = EDGE_LOOP('',(#1701,#1702,#1708,#1709));
#1701 = ORIENTED_EDGE('',*,*,#1331,.F.);
#1702 = ORIENTED_EDGE('',*,*,#1703,.T.);
#1703 = EDGE_CURVE('',#1324,#1235,#1704,.T.);
#1704 = LINE('',#1705,#1706);
#1705 = CARTESIAN_POINT('',(4.819939049607,18.697076978985,6.05));
#1706 = VECTOR('',#1707,1.);
#1707 = DIRECTION('',(-0.984807753012,0.173648177667,0.));
#1708 = ORIENTED_EDGE('',*,*,#1242,.T.);
#1709 = ORIENTED_EDGE('',*,*,#1685,.F.);
#1710 = PLANE('',#1711);
#1711 = AXIS2_PLACEMENT_3D('',#1712,#1713,#1714);
#1712 = CARTESIAN_POINT('',(4.819939049607,18.697076978985,6.05));
#1713 = DIRECTION('',(0.173648177667,0.984807753012,0.));
#1714 = DIRECTION('',(0.,0.,1.));
#1715 = ADVANCED_FACE('',(#1716),#1722,.F.);
#1716 = FACE_BOUND('',#1717,.F.);
#1717 = EDGE_LOOP('',(#1718,#1719,#1720,#1721));
#1718 = ORIENTED_EDGE('',*,*,#1234,.F.);
#1719 = ORIENTED_EDGE('',*,*,#1703,.F.);
#1720 = ORIENTED_EDGE('',*,*,#1323,.T.);
#1721 = ORIENTED_EDGE('',*,*,#1404,.F.);
#1722 = PLANE('',#1723);
#1723 = AXIS2_PLACEMENT_3D('',#1724,#1725,#1726);
#1724 = CARTESIAN_POINT('',(4.819939049607,18.697076978985,6.05));
#1725 = DIRECTION('',(0.,0.,1.));
#1726 = DIRECTION('',(0.173648177667,0.984807753012,0.));
#1727 = ADVANCED_FACE('',(#1728),#1734,.T.);
#1728 = FACE_BOUND('',#1729,.T.);
#1729 = EDGE_LOOP('',(#1730,#1731,#1732,#1733));
#1730 = ORIENTED_EDGE('',*,*,#1306,.F.);
#1731 = ORIENTED_EDGE('',*,*,#1282,.T.);
#1732 = ORIENTED_EDGE('',*,*,#1210,.T.);
#1733 = ORIENTED_EDGE('',*,*,#1654,.F.);
#1734 = PLANE('',#1735);
#1735 = AXIS2_PLACEMENT_3D('',#1736,#1737,#1738);
#1736 = CARTESIAN_POINT('',(5.332201173724,21.602259850371,4.44));
#1737 = DIRECTION('',(0.173648177667,0.984807753012,0.));
#1738 = DIRECTION('',(0.,0.,1.));
#1739 = ( GEOMETRIC_REPRESENTATION_CONTEXT(3) 
GLOBAL_UNCERTAINTY_ASSIGNED_CONTEXT((#1743)) 
GLOBAL_UNIT_ASSIGNED_CONTEXT((#1740,#1741,#1742)) REPRESENTATION_CONTEXT
('Context #1','3D Context with UNIT and UNCERTAINTY') );
#1740 = ( LENGTH_UNIT() NAMED_UNIT(*) SI_UNIT(.MILLI.,.METRE.) );
#1741 = ( NAMED_UNIT(*) PLANE_ANGLE_UNIT() SI_UNIT($,.RADIAN.) );
#1742 = ( NAMED_UNIT(*) SI_UNIT($,.STERADIAN.) SOLID_ANGLE_UNIT() );
#1743 = UNCERTAINTY_MEASURE_WITH_UNIT(LENGTH_MEASURE(2.E-07),#1740,
  'distance_accuracy_value','confusion accuracy');
#1744 = CONTEXT_DEPENDENT_SHAPE_REPRESENTATION(#1745,#1747);
#1745 = ( REPRESENTATION_RELATIONSHIP('','',#32,#10) 
REPRESENTATION_RELATIONSHIP_WITH_TRANSFORMATION(#1746) 
SHAPE_REPRESENTATION_RELATIONSHIP() );
#1746 = ITEM_DEFINED_TRANSFORMATION('','',#11,#15);
#1747 = PRODUCT_DEFINITION_SHAPE('Placement','Placement of an item',
  #1748);
#1748 = NEXT_ASSEMBLY_USAGE_OCCURRENCE('7','=>[0:1:1:2]','',#5,#27,$);
#1749 = PRODUCT_RELATED_PRODUCT_CATEGORY('part',$,(#29));
ENDSEC;
END-ISO-10303-21;
