ISO-10303-21;
HEADER;
FILE_DESCRIPTION(('Open CASCADE Model'),'2;1');
FILE_NAME('Open CASCADE Shape Model','2026-09-08T15:12:05',('Author'),(
    'Open CASCADE'),'Open CASCADE STEP processor 7.9','build123d',
  'Unknown');
FILE_SCHEMA(('AUTOMOTIVE_DESIGN { 1 0 10303 214 1 1 1 1 }'));
ENDSEC;
DATA;
#1 = APPLICATION_PROTOCOL_DEFINITION('international standard',
  'automotive_design',2000,#2);
#2 = APPLICATION_CONTEXT(
  'core data for automotive mechanical design processes');
#3 = SHAPE_DEFINITION_REPRESENTATION(#4,#10);
#4 = PRODUCT_DEFINITION_SHAPE('','',#5);
#5 = PRODUCT_DEFINITION('design','',#6,#9);
#6 = PRODUCT_DEFINITION_FORMATION('','',#7);
#7 = PRODUCT('=>[0:1:1:2]','=>[0:1:1:2]','',(#8));
#8 = PRODUCT_CONTEXT('',#2,'mechanical');
#9 = PRODUCT_DEFINITION_CONTEXT('part definition',#2,'design');
#10 = SHAPE_REPRESENTATION('',(#11,#15),#19);
#11 = AXIS2_PLACEMENT_3D('',#12,#13,#14);
#12 = CARTESIAN_POINT('',(0.,0.,0.));
#13 = DIRECTION('',(0.,0.,1.));
#14 = DIRECTION('',(1.,0.,-0.));
#15 = AXIS2_PLACEMENT_3D('',#16,#17,#18);
#16 = CARTESIAN_POINT('',(44.935523206609,47.517983481502,-11.));
#17 = DIRECTION('',(0.,0.,1.));
#18 = DIRECTION('',(1.,0.,-0.));
#19 = ( GEOMETRIC_REPRESENTATION_CONTEXT(3) 
GLOBAL_UNCERTAINTY_ASSIGNED_CONTEXT((#23)) GLOBAL_UNIT_ASSIGNED_CONTEXT(
(#20,#21,#22)) REPRESENTATION_CONTEXT('Context #1',
  '3D Context with UNIT and UNCERTAINTY') );
#20 = ( LENGTH_UNIT() NAMED_UNIT(*) SI_UNIT(.MILLI.,.METRE.) );
#21 = ( NAMED_UNIT(*) PLANE_ANGLE_UNIT() SI_UNIT($,.RADIAN.) );
#22 = ( NAMED_UNIT(*) SI_UNIT($,.STERADIAN.) SOLID_ANGLE_UNIT() );
#23 = UNCERTAINTY_MEASURE_WITH_UNIT(LENGTH_MEASURE(1.E-07),#20,
  'distance_accuracy_value','confusion accuracy');
#24 = PRODUCT_RELATED_PRODUCT_CATEGORY('part',$,(#7));
#25 = SHAPE_DEFINITION_REPRESENTATION(#26,#32);
#26 = PRODUCT_DEFINITION_SHAPE('','',#27);
#27 = PRODUCT_DEFINITION('design','',#28,#31);
#28 = PRODUCT_DEFINITION_FORMATION('','',#29);
#29 = PRODUCT('COMPOUND','COMPOUND','',(#30));
#30 = PRODUCT_CONTEXT('',#2,'mechanical');
#31 = PRODUCT_DEFINITION_CONTEXT('part definition',#2,'design');
#32 = ADVANCED_BREP_SHAPE_REPRESENTATION('',(#11,#33),#261);
#33 = MANIFOLD_SOLID_BREP('',#34);
#34 = CLOSED_SHELL('',(#35,#75,#106,#152,#176,#215,#227,#244));
#35 = ADVANCED_FACE('',(#36),#70,.F.);
#36 = FACE_BOUND('',#37,.F.);
#37 = EDGE_LOOP('',(#38,#48,#56,#64));
#38 = ORIENTED_EDGE('',*,*,#39,.F.);
#39 = EDGE_CURVE('',#40,#42,#44,.T.);
#40 = VERTEX_POINT('',#41);
#41 = CARTESIAN_POINT('',(-54.9355232066,-55.0179834815,11.));
#42 = VERTEX_POINT('',#43);
#43 = CARTESIAN_POINT('',(-54.9355232066,-55.0179834815,12.6));
#44 = LINE('',#45,#46);
#45 = CARTESIAN_POINT('',(-54.9355232066,-55.0179834815,11.));
#46 = VECTOR('',#47,1.);
#47 = DIRECTION('',(0.,0.,1.));
#48 = ORIENTED_EDGE('',*,*,#49,.T.);
#49 = EDGE_CURVE('',#40,#50,#52,.T.);
#50 = VERTEX_POINT('',#51);
#51 = CARTESIAN_POINT('',(-54.9355232066,-40.0179834815,11.));
#52 = LINE('',#53,#54);
#53 = CARTESIAN_POINT('',(-54.9355232066,-55.0179834815,11.));
#54 = VECTOR('',#55,1.);
#55 = DIRECTION('',(3.885780586188E-16,1.,0.));
#56 = ORIENTED_EDGE('',*,*,#57,.T.);
#57 = EDGE_CURVE('',#50,#58,#60,.T.);
#58 = VERTEX_POINT('',#59);
#59 = CARTESIAN_POINT('',(-54.9355232066,-40.0179834815,12.6));
#60 = LINE('',#61,#62);
#61 = CARTESIAN_POINT('',(-54.9355232066,-40.0179834815,11.));
#62 = VECTOR('',#63,1.);
#63 = DIRECTION('',(0.,0.,1.));
#64 = ORIENTED_EDGE('',*,*,#65,.F.);
#65 = EDGE_CURVE('',#42,#58,#66,.T.);
#66 = LINE('',#67,#68);
#67 = CARTESIAN_POINT('',(-54.9355232066,-55.0179834815,12.6));
#68 = VECTOR('',#69,1.);
#69 = DIRECTION('',(3.885780586188E-16,1.,0.));
#70 = PLANE('',#71);
#71 = AXIS2_PLACEMENT_3D('',#72,#73,#74);
#72 = CARTESIAN_POINT('',(-54.9355232066,-55.0179834815,11.));
#73 = DIRECTION('',(1.,-3.885780586188E-16,0.));
#74 = DIRECTION('',(0.,0.,1.));
#75 = ADVANCED_FACE('',(#76),#101,.F.);
#76 = FACE_BOUND('',#77,.F.);
#77 = EDGE_LOOP('',(#78,#86,#87,#95));
#78 = ORIENTED_EDGE('',*,*,#79,.F.);
#79 = EDGE_CURVE('',#40,#80,#82,.T.);
#80 = VERTEX_POINT('',#81);
#81 = CARTESIAN_POINT('',(-34.9355232066,-55.0179834815,11.));
#82 = LINE('',#83,#84);
#83 = CARTESIAN_POINT('',(-54.9355232066,-55.0179834815,11.));
#84 = VECTOR('',#85,1.);
#85 = DIRECTION('',(1.,-3.885780586188E-16,0.));
#86 = ORIENTED_EDGE('',*,*,#39,.T.);
#87 = ORIENTED_EDGE('',*,*,#88,.T.);
#88 = EDGE_CURVE('',#42,#89,#91,.T.);
#89 = VERTEX_POINT('',#90);
#90 = CARTESIAN_POINT('',(-34.9355232066,-55.0179834815,12.6));
#91 = LINE('',#92,#93);
#92 = CARTESIAN_POINT('',(-54.9355232066,-55.0179834815,12.6));
#93 = VECTOR('',#94,1.);
#94 = DIRECTION('',(1.,-3.885780586188E-16,0.));
#95 = ORIENTED_EDGE('',*,*,#96,.F.);
#96 = EDGE_CURVE('',#80,#89,#97,.T.);
#97 = LINE('',#98,#99);
#98 = CARTESIAN_POINT('',(-34.9355232066,-55.0179834815,11.));
#99 = VECTOR('',#100,1.);
#100 = DIRECTION('',(0.,0.,1.));
#101 = PLANE('',#102);
#102 = AXIS2_PLACEMENT_3D('',#103,#104,#105);
#103 = CARTESIAN_POINT('',(-54.9355232066,-55.0179834815,11.));
#104 = DIRECTION('',(3.885780586188E-16,1.,0.));
#105 = DIRECTION('',(0.,0.,1.));
#106 = ADVANCED_FACE('',(#107,#125,#136),#147,.T.);
#107 = FACE_BOUND('',#108,.T.);
#108 = EDGE_LOOP('',(#109,#110,#111,#119));
#109 = ORIENTED_EDGE('',*,*,#65,.F.);
#110 = ORIENTED_EDGE('',*,*,#88,.T.);
#111 = ORIENTED_EDGE('',*,*,#112,.T.);
#112 = EDGE_CURVE('',#89,#113,#115,.T.);
#113 = VERTEX_POINT('',#114);
#114 = CARTESIAN_POINT('',(-34.9355232066,-40.0179834815,12.6));
#115 = LINE('',#116,#117);
#116 = CARTESIAN_POINT('',(-34.9355232066,-55.0179834815,12.6));
#117 = VECTOR('',#118,1.);
#118 = DIRECTION('',(3.885780586188E-16,1.,0.));
#119 = ORIENTED_EDGE('',*,*,#120,.F.);
#120 = EDGE_CURVE('',#58,#113,#121,.T.);
#121 = LINE('',#122,#123);
#122 = CARTESIAN_POINT('',(-54.9355232066,-40.0179834815,12.6));
#123 = VECTOR('',#124,1.);
#124 = DIRECTION('',(1.,-3.885780586188E-16,0.));
#125 = FACE_BOUND('',#126,.T.);
#126 = EDGE_LOOP('',(#127));
#127 = ORIENTED_EDGE('',*,*,#128,.F.);
#128 = EDGE_CURVE('',#129,#129,#131,.T.);
#129 = VERTEX_POINT('',#130);
#130 = CARTESIAN_POINT('',(-49.8355232066,-47.5179834815,12.6));
#131 = CIRCLE('',#132,1.1);
#132 = AXIS2_PLACEMENT_3D('',#133,#134,#135);
#133 = CARTESIAN_POINT('',(-50.9355232066,-47.5179834815,12.6));
#134 = DIRECTION('',(0.,0.,1.));
#135 = DIRECTION('',(1.,0.,-0.));
#136 = FACE_BOUND('',#137,.T.);
#137 = EDGE_LOOP('',(#138));
#138 = ORIENTED_EDGE('',*,*,#139,.F.);
#139 = EDGE_CURVE('',#140,#140,#142,.T.);
#140 = VERTEX_POINT('',#141);
#141 = CARTESIAN_POINT('',(-37.8355232066,-47.5179834815,12.6));
#142 = CIRCLE('',#143,1.1);
#143 = AXIS2_PLACEMENT_3D('',#144,#145,#146);
#144 = CARTESIAN_POINT('',(-38.9355232066,-47.5179834815,12.6));
#145 = DIRECTION('',(0.,0.,1.));
#146 = DIRECTION('',(1.,0.,-0.));
#147 = PLANE('',#148);
#148 = AXIS2_PLACEMENT_3D('',#149,#150,#151);
#149 = CARTESIAN_POINT('',(-54.9355232066,-55.0179834815,12.6));
#150 = DIRECTION('',(0.,0.,1.));
#151 = DIRECTION('',(1.,-3.885780586188E-16,0.));
#152 = ADVANCED_FACE('',(#153),#171,.T.);
#153 = FACE_BOUND('',#154,.T.);
#154 = EDGE_LOOP('',(#155,#163,#164,#165));
#155 = ORIENTED_EDGE('',*,*,#156,.F.);
#156 = EDGE_CURVE('',#50,#157,#159,.T.);
#157 = VERTEX_POINT('',#158);
#158 = CARTESIAN_POINT('',(-34.9355232066,-40.0179834815,11.));
#159 = LINE('',#160,#161);
#160 = CARTESIAN_POINT('',(-54.9355232066,-40.0179834815,11.));
#161 = VECTOR('',#162,1.);
#162 = DIRECTION('',(1.,-3.885780586188E-16,0.));
#163 = ORIENTED_EDGE('',*,*,#57,.T.);
#164 = ORIENTED_EDGE('',*,*,#120,.T.);
#165 = ORIENTED_EDGE('',*,*,#166,.F.);
#166 = EDGE_CURVE('',#157,#113,#167,.T.);
#167 = LINE('',#168,#169);
#168 = CARTESIAN_POINT('',(-34.9355232066,-40.0179834815,11.));
#169 = VECTOR('',#170,1.);
#170 = DIRECTION('',(0.,0.,1.));
#171 = PLANE('',#172);
#172 = AXIS2_PLACEMENT_3D('',#173,#174,#175);
#173 = CARTESIAN_POINT('',(-54.9355232066,-40.0179834815,11.));
#174 = DIRECTION('',(3.885780586188E-16,1.,0.));
#175 = DIRECTION('',(0.,0.,1.));
#176 = ADVANCED_FACE('',(#177,#188,#199),#210,.F.);
#177 = FACE_BOUND('',#178,.F.);
#178 = EDGE_LOOP('',(#179,#180,#181,#187));
#179 = ORIENTED_EDGE('',*,*,#49,.F.);
#180 = ORIENTED_EDGE('',*,*,#79,.T.);
#181 = ORIENTED_EDGE('',*,*,#182,.T.);
#182 = EDGE_CURVE('',#80,#157,#183,.T.);
#183 = LINE('',#184,#185);
#184 = CARTESIAN_POINT('',(-34.9355232066,-55.0179834815,11.));
#185 = VECTOR('',#186,1.);
#186 = DIRECTION('',(3.885780586188E-16,1.,0.));
#187 = ORIENTED_EDGE('',*,*,#156,.F.);
#188 = FACE_BOUND('',#189,.F.);
#189 = EDGE_LOOP('',(#190));
#190 = ORIENTED_EDGE('',*,*,#191,.F.);
#191 = EDGE_CURVE('',#192,#192,#194,.T.);
#192 = VERTEX_POINT('',#193);
#193 = CARTESIAN_POINT('',(-49.8355232066,-47.5179834815,11.));
#194 = CIRCLE('',#195,1.1);
#195 = AXIS2_PLACEMENT_3D('',#196,#197,#198);
#196 = CARTESIAN_POINT('',(-50.9355232066,-47.5179834815,11.));
#197 = DIRECTION('',(0.,0.,1.));
#198 = DIRECTION('',(1.,0.,-0.));
#199 = FACE_BOUND('',#200,.F.);
#200 = EDGE_LOOP('',(#201));
#201 = ORIENTED_EDGE('',*,*,#202,.F.);
#202 = EDGE_CURVE('',#203,#203,#205,.T.);
#203 = VERTEX_POINT('',#204);
#204 = CARTESIAN_POINT('',(-37.8355232066,-47.5179834815,11.));
#205 = CIRCLE('',#206,1.1);
#206 = AXIS2_PLACEMENT_3D('',#207,#208,#209);
#207 = CARTESIAN_POINT('',(-38.9355232066,-47.5179834815,11.));
#208 = DIRECTION('',(0.,0.,1.));
#209 = DIRECTION('',(1.,0.,-0.));
#210 = PLANE('',#211);
#211 = AXIS2_PLACEMENT_3D('',#212,#213,#214);
#212 = CARTESIAN_POINT('',(-54.9355232066,-55.0179834815,11.));
#213 = DIRECTION('',(0.,0.,1.));
#214 = DIRECTION('',(1.,-3.885780586188E-16,0.));
#215 = ADVANCED_FACE('',(#216),#222,.T.);
#216 = FACE_BOUND('',#217,.T.);
#217 = EDGE_LOOP('',(#218,#219,#220,#221));
#218 = ORIENTED_EDGE('',*,*,#96,.F.);
#219 = ORIENTED_EDGE('',*,*,#182,.T.);
#220 = ORIENTED_EDGE('',*,*,#166,.T.);
#221 = ORIENTED_EDGE('',*,*,#112,.F.);
#222 = PLANE('',#223);
#223 = AXIS2_PLACEMENT_3D('',#224,#225,#226);
#224 = CARTESIAN_POINT('',(-34.9355232066,-55.0179834815,11.));
#225 = DIRECTION('',(1.,-3.885780586188E-16,0.));
#226 = DIRECTION('',(0.,0.,1.));
#227 = ADVANCED_FACE('',(#228),#239,.F.);
#228 = FACE_BOUND('',#229,.F.);
#229 = EDGE_LOOP('',(#230,#231,#237,#238));
#230 = ORIENTED_EDGE('',*,*,#128,.F.);
#231 = ORIENTED_EDGE('',*,*,#232,.F.);
#232 = EDGE_CURVE('',#192,#129,#233,.T.);
#233 = LINE('',#234,#235);
#234 = CARTESIAN_POINT('',(-49.8355232066,-47.5179834815,-15.));
#235 = VECTOR('',#236,1.);
#236 = DIRECTION('',(0.,0.,1.));
#237 = ORIENTED_EDGE('',*,*,#191,.T.);
#238 = ORIENTED_EDGE('',*,*,#232,.T.);
#239 = CYLINDRICAL_SURFACE('',#240,1.1);
#240 = AXIS2_PLACEMENT_3D('',#241,#242,#243);
#241 = CARTESIAN_POINT('',(-50.9355232066,-47.5179834815,-15.));
#242 = DIRECTION('',(0.,0.,1.));
#243 = DIRECTION('',(1.,0.,-0.));
#244 = ADVANCED_FACE('',(#245),#256,.F.);
#245 = FACE_BOUND('',#246,.F.);
#246 = EDGE_LOOP('',(#247,#248,#254,#255));
#247 = ORIENTED_EDGE('',*,*,#139,.F.);
#248 = ORIENTED_EDGE('',*,*,#249,.F.);
#249 = EDGE_CURVE('',#203,#140,#250,.T.);
#250 = LINE('',#251,#252);
#251 = CARTESIAN_POINT('',(-37.8355232066,-47.5179834815,-15.));
#252 = VECTOR('',#253,1.);
#253 = DIRECTION('',(0.,0.,1.));
#254 = ORIENTED_EDGE('',*,*,#202,.T.);
#255 = ORIENTED_EDGE('',*,*,#249,.T.);
#256 = CYLINDRICAL_SURFACE('',#257,1.1);
#257 = AXIS2_PLACEMENT_3D('',#258,#259,#260);
#258 = CARTESIAN_POINT('',(-38.9355232066,-47.5179834815,-15.));
#259 = DIRECTION('',(0.,0.,1.));
#260 = DIRECTION('',(1.,0.,-0.));
#261 = ( GEOMETRIC_REPRESENTATION_CONTEXT(3) 
GLOBAL_UNCERTAINTY_ASSIGNED_CONTEXT((#265)) GLOBAL_UNIT_ASSIGNED_CONTEXT
((#262,#263,#264)) REPRESENTATION_CONTEXT('Context #1',
  '3D Context with UNIT and UNCERTAINTY') );
#262 = ( LENGTH_UNIT() NAMED_UNIT(*) SI_UNIT(.MILLI.,.METRE.) );
#263 = ( NAMED_UNIT(*) PLANE_ANGLE_UNIT() SI_UNIT($,.RADIAN.) );
#264 = ( NAMED_UNIT(*) SI_UNIT($,.STERADIAN.) SOLID_ANGLE_UNIT() );
#265 = UNCERTAINTY_MEASURE_WITH_UNIT(LENGTH_MEASURE(1.E-07),#262,
  'distance_accuracy_value','confusion accuracy');
#266 = CONTEXT_DEPENDENT_SHAPE_REPRESENTATION(#267,#269);
#267 = ( REPRESENTATION_RELATIONSHIP('','',#32,#10) 
REPRESENTATION_RELATIONSHIP_WITH_TRANSFORMATION(#268) 
SHAPE_REPRESENTATION_RELATIONSHIP() );
#268 = ITEM_DEFINED_TRANSFORMATION('','',#11,#15);
#269 = PRODUCT_DEFINITION_SHAPE('Placement','Placement of an item',#270
  );
#270 = NEXT_ASSEMBLY_USAGE_OCCURRENCE('20','=>[0:1:1:2]','',#5,#27,$);
#271 = PRODUCT_RELATED_PRODUCT_CATEGORY('part',$,(#29));
ENDSEC;
END-ISO-10303-21;
