ISO-10303-21;
HEADER;
FILE_DESCRIPTION(('Open CASCADE Model'),'2;1');
FILE_NAME('Open CASCADE Shape Model','2026-09-04T19:53:57',('Author'),(
    'Open CASCADE'),'Open CASCADE STEP processor 7.9','build123d',
  'Unknown');
FILE_SCHEMA(('AUTOMOTIVE_DESIGN { 1 0 10303 214 1 1 1 1 }'));
ENDSEC;
DATA;
#1 = APPLICATION_PROTOCOL_DEFINITION('international standard',
  'automotive_design',2000,#2);
#2 = APPLICATION_CONTEXT(
  'core data for automotive mechanical design processes');
#3 = SHAPE_DEFINITION_REPRESENTATION(#4,#10);
#4 = PRODUCT_DEFINITION_SHAPE('','',#5);
#5 = PRODUCT_DEFINITION('design','',#6,#9);
#6 = PRODUCT_DEFINITION_FORMATION('','',#7);
#7 = PRODUCT('=>[0:1:1:2]','=>[0:1:1:2]','',(#8));
#8 = PRODUCT_CONTEXT('',#2,'mechanical');
#9 = PRODUCT_DEFINITION_CONTEXT('part definition',#2,'design');
#10 = SHAPE_REPRESENTATION('',(#11,#15),#19);
#11 = AXIS2_PLACEMENT_3D('',#12,#13,#14);
#12 = CARTESIAN_POINT('',(0.,0.,0.));
#13 = DIRECTION('',(0.,0.,1.));
#14 = DIRECTION('',(1.,0.,-0.));
#15 = AXIS2_PLACEMENT_3D('',#16,#17,#18);
#16 = CARTESIAN_POINT('',(0.,0.,0.));
#17 = DIRECTION('',(0.,0.,1.));
#18 = DIRECTION('',(1.,0.,-0.));
#19 = ( GEOMETRIC_REPRESENTATION_CONTEXT(3) 
GLOBAL_UNCERTAINTY_ASSIGNED_CONTEXT((#23)) GLOBAL_UNIT_ASSIGNED_CONTEXT(
(#20,#21,#22)) REPRESENTATION_CONTEXT('Context #1',
  '3D Context with UNIT and UNCERTAINTY') );
#20 = ( LENGTH_UNIT() NAMED_UNIT(*) SI_UNIT(.MILLI.,.METRE.) );
#21 = ( NAMED_UNIT(*) PLANE_ANGLE_UNIT() SI_UNIT($,.RADIAN.) );
#22 = ( NAMED_UNIT(*) SI_UNIT($,.STERADIAN.) SOLID_ANGLE_UNIT() );
#23 = UNCERTAINTY_MEASURE_WITH_UNIT(LENGTH_MEASURE(5.E-07),#20,
  'distance_accuracy_value','confusion accuracy');
#24 = PRODUCT_RELATED_PRODUCT_CATEGORY('part',$,(#7));
#25 = SHAPE_DEFINITION_REPRESENTATION(#26,#32);
#26 = PRODUCT_DEFINITION_SHAPE('','',#27);
#27 = PRODUCT_DEFINITION('design','',#28,#31);
#28 = PRODUCT_DEFINITION_FORMATION('','',#29);
#29 = PRODUCT('COMPOUND','COMPOUND','',(#30));
#30 = PRODUCT_CONTEXT('',#2,'mechanical');
#31 = PRODUCT_DEFINITION_CONTEXT('part definition',#2,'design');
#32 = ADVANCED_BREP_SHAPE_REPRESENTATION('',(#11,#33),#1379);
#33 = MANIFOLD_SOLID_BREP('',#34);
#34 = CLOSED_SHELL('',(#35,#256,#345,#417,#441,#506,#578,#602,#667,#739,
    #763,#828,#886,#904,#935,#953,#984,#1001,#1018,#1035,#1052,#1074,
    #1091,#1108,#1125,#1137,#1149,#1171,#1188,#1205,#1222,#1234,#1246,
    #1268,#1285,#1302,#1319,#1331,#1343,#1361));
#35 = ADVANCED_FACE('',(#36),#251,.T.);
#36 = FACE_BOUND('',#37,.T.);
#37 = EDGE_LOOP('',(#38,#49,#57,#66,#74,#83,#92,#100,#109,#117,#126,#135
    ,#143,#150,#151,#160,#168,#177,#185,#194,#202,#211,#219,#228,#236,
    #245));
#38 = ORIENTED_EDGE('',*,*,#39,.F.);
#39 = EDGE_CURVE('',#40,#42,#44,.T.);
#40 = VERTEX_POINT('',#41);
#41 = CARTESIAN_POINT('',(22.3,-5.461924724197E-15,4.45));
#42 = VERTEX_POINT('',#43);
#43 = CARTESIAN_POINT('',(1.5,22.249494376277,4.45));
#44 = CIRCLE('',#45,22.3);
#45 = AXIS2_PLACEMENT_3D('',#46,#47,#48);
#46 = CARTESIAN_POINT('',(0.,0.,4.45));
#47 = DIRECTION('',(0.,0.,1.));
#48 = DIRECTION('',(1.,0.,-0.));
#49 = ORIENTED_EDGE('',*,*,#50,.F.);
#50 = EDGE_CURVE('',#51,#40,#53,.T.);
#51 = VERTEX_POINT('',#52);
#52 = CARTESIAN_POINT('',(22.3,-5.461924724197E-15,0.));
#53 = LINE('',#54,#55);
#54 = CARTESIAN_POINT('',(22.3,-5.461924724197E-15,0.));
#55 = VECTOR('',#56,1.);
#56 = DIRECTION('',(0.,0.,1.));
#57 = ORIENTED_EDGE('',*,*,#58,.T.);
#58 = EDGE_CURVE('',#51,#59,#61,.T.);
#59 = VERTEX_POINT('',#60);
#60 = CARTESIAN_POINT('',(3.479479520614,22.026875,0.));
#61 = CIRCLE('',#62,22.3);
#62 = AXIS2_PLACEMENT_3D('',#63,#64,#65);
#63 = CARTESIAN_POINT('',(0.,0.,0.));
#64 = DIRECTION('',(0.,0.,1.));
#65 = DIRECTION('',(1.,0.,-0.));
#66 = ORIENTED_EDGE('',*,*,#67,.T.);
#67 = EDGE_CURVE('',#59,#68,#70,.T.);
#68 = VERTEX_POINT('',#69);
#69 = CARTESIAN_POINT('',(3.479479520614,22.026875,2.));
#70 = LINE('',#71,#72);
#71 = CARTESIAN_POINT('',(3.479479520614,22.026875,0.));
#72 = VECTOR('',#73,1.);
#73 = DIRECTION('',(0.,0.,1.));
#74 = ORIENTED_EDGE('',*,*,#75,.T.);
#75 = EDGE_CURVE('',#68,#76,#78,.T.);
#76 = VERTEX_POINT('',#77);
#77 = CARTESIAN_POINT('',(-4.440892098501E-16,22.3,2.));
#78 = CIRCLE('',#79,22.3);
#79 = AXIS2_PLACEMENT_3D('',#80,#81,#82);
#80 = CARTESIAN_POINT('',(0.,0.,2.));
#81 = DIRECTION('',(0.,0.,1.));
#82 = DIRECTION('',(0.156030471776,0.987752242152,-0.));
#83 = ORIENTED_EDGE('',*,*,#84,.T.);
#84 = EDGE_CURVE('',#76,#85,#87,.T.);
#85 = VERTEX_POINT('',#86);
#86 = CARTESIAN_POINT('',(-3.479479520614,22.026875,2.));
#87 = CIRCLE('',#88,22.3);
#88 = AXIS2_PLACEMENT_3D('',#89,#90,#91);
#89 = CARTESIAN_POINT('',(0.,0.,2.));
#90 = DIRECTION('',(0.,0.,1.));
#91 = DIRECTION('',(0.156030471776,0.987752242152,-0.));
#92 = ORIENTED_EDGE('',*,*,#93,.F.);
#93 = EDGE_CURVE('',#94,#85,#96,.T.);
#94 = VERTEX_POINT('',#95);
#95 = CARTESIAN_POINT('',(-3.479479520614,22.026875,0.));
#96 = LINE('',#97,#98);
#97 = CARTESIAN_POINT('',(-3.479479520614,22.026875,0.));
#98 = VECTOR('',#99,1.);
#99 = DIRECTION('',(0.,0.,1.));
#100 = ORIENTED_EDGE('',*,*,#101,.T.);
#101 = EDGE_CURVE('',#94,#102,#104,.T.);
#102 = VERTEX_POINT('',#103);
#103 = CARTESIAN_POINT('',(-3.479479520613,-22.026875,0.));
#104 = CIRCLE('',#105,22.3);
#105 = AXIS2_PLACEMENT_3D('',#106,#107,#108);
#106 = CARTESIAN_POINT('',(0.,0.,0.));
#107 = DIRECTION('',(0.,0.,1.));
#108 = DIRECTION('',(1.,0.,-0.));
#109 = ORIENTED_EDGE('',*,*,#110,.T.);
#110 = EDGE_CURVE('',#102,#111,#113,.T.);
#111 = VERTEX_POINT('',#112);
#112 = CARTESIAN_POINT('',(-3.479479520614,-22.026875,2.));
#113 = LINE('',#114,#115);
#114 = CARTESIAN_POINT('',(-3.479479520614,-22.026875,0.));
#115 = VECTOR('',#116,1.);
#116 = DIRECTION('',(0.,0.,1.));
#117 = ORIENTED_EDGE('',*,*,#118,.T.);
#118 = EDGE_CURVE('',#111,#119,#121,.T.);
#119 = VERTEX_POINT('',#120);
#120 = CARTESIAN_POINT('',(4.440892098501E-16,-22.3,2.));
#121 = CIRCLE('',#122,22.3);
#122 = AXIS2_PLACEMENT_3D('',#123,#124,#125);
#123 = CARTESIAN_POINT('',(0.,0.,2.));
#124 = DIRECTION('',(0.,0.,1.));
#125 = DIRECTION('',(-0.156030471776,-0.987752242152,0.));
#126 = ORIENTED_EDGE('',*,*,#127,.T.);
#127 = EDGE_CURVE('',#119,#128,#130,.T.);
#128 = VERTEX_POINT('',#129);
#129 = CARTESIAN_POINT('',(3.479479520614,-22.026875,2.));
#130 = CIRCLE('',#131,22.3);
#131 = AXIS2_PLACEMENT_3D('',#132,#133,#134);
#132 = CARTESIAN_POINT('',(0.,0.,2.));
#133 = DIRECTION('',(0.,0.,1.));
#134 = DIRECTION('',(-0.156030471776,-0.987752242152,0.));
#135 = ORIENTED_EDGE('',*,*,#136,.F.);
#136 = EDGE_CURVE('',#137,#128,#139,.T.);
#137 = VERTEX_POINT('',#138);
#138 = CARTESIAN_POINT('',(3.479479520613,-22.026875,0.));
#139 = LINE('',#140,#141);
#140 = CARTESIAN_POINT('',(3.479479520614,-22.026875,0.));
#141 = VECTOR('',#142,1.);
#142 = DIRECTION('',(0.,0.,1.));
#143 = ORIENTED_EDGE('',*,*,#144,.T.);
#144 = EDGE_CURVE('',#137,#51,#145,.T.);
#145 = CIRCLE('',#146,22.3);
#146 = AXIS2_PLACEMENT_3D('',#147,#148,#149);
#147 = CARTESIAN_POINT('',(0.,0.,0.));
#148 = DIRECTION('',(0.,0.,1.));
#149 = DIRECTION('',(1.,0.,-0.));
#150 = ORIENTED_EDGE('',*,*,#50,.T.);
#151 = ORIENTED_EDGE('',*,*,#152,.F.);
#152 = EDGE_CURVE('',#153,#40,#155,.T.);
#153 = VERTEX_POINT('',#154);
#154 = CARTESIAN_POINT('',(20.018627351215,-9.825709082462,4.45));
#155 = CIRCLE('',#156,22.3);
#156 = AXIS2_PLACEMENT_3D('',#157,#158,#159);
#157 = CARTESIAN_POINT('',(0.,0.,4.45));
#158 = DIRECTION('',(0.,0.,1.));
#159 = DIRECTION('',(1.,0.,-0.));
#160 = ORIENTED_EDGE('',*,*,#161,.F.);
#161 = EDGE_CURVE('',#162,#153,#164,.T.);
#162 = VERTEX_POINT('',#163);
#163 = CARTESIAN_POINT('',(20.018627351215,-9.825709082462,4.44));
#164 = LINE('',#165,#166);
#165 = CARTESIAN_POINT('',(20.018627351215,-9.825709082462,0.));
#166 = VECTOR('',#167,1.);
#167 = DIRECTION('',(0.,0.,1.));
#168 = ORIENTED_EDGE('',*,*,#169,.F.);
#169 = EDGE_CURVE('',#170,#162,#172,.T.);
#170 = VERTEX_POINT('',#171);
#171 = CARTESIAN_POINT('',(18.518627351215,-12.42378529381,4.44));
#172 = CIRCLE('',#173,22.3);
#173 = AXIS2_PLACEMENT_3D('',#174,#175,#176);
#174 = CARTESIAN_POINT('',(0.,0.,4.44));
#175 = DIRECTION('',(0.,0.,1.));
#176 = DIRECTION('',(1.,0.,-0.));
#177 = ORIENTED_EDGE('',*,*,#178,.T.);
#178 = EDGE_CURVE('',#170,#179,#181,.T.);
#179 = VERTEX_POINT('',#180);
#180 = CARTESIAN_POINT('',(18.518627351215,-12.42378529381,4.45));
#181 = LINE('',#182,#183);
#182 = CARTESIAN_POINT('',(18.518627351215,-12.42378529381,0.));
#183 = VECTOR('',#184,1.);
#184 = DIRECTION('',(0.,0.,1.));
#185 = ORIENTED_EDGE('',*,*,#186,.F.);
#186 = EDGE_CURVE('',#187,#179,#189,.T.);
#187 = VERTEX_POINT('',#188);
#188 = CARTESIAN_POINT('',(-18.51862735121,-12.42378529381,4.45));
#189 = CIRCLE('',#190,22.3);
#190 = AXIS2_PLACEMENT_3D('',#191,#192,#193);
#191 = CARTESIAN_POINT('',(0.,0.,4.45));
#192 = DIRECTION('',(0.,0.,1.));
#193 = DIRECTION('',(1.,0.,-0.));
#194 = ORIENTED_EDGE('',*,*,#195,.F.);
#195 = EDGE_CURVE('',#196,#187,#198,.T.);
#196 = VERTEX_POINT('',#197);
#197 = CARTESIAN_POINT('',(-18.51862735121,-12.42378529381,4.44));
#198 = LINE('',#199,#200);
#199 = CARTESIAN_POINT('',(-18.51862735121,-12.42378529381,0.));
#200 = VECTOR('',#201,1.);
#201 = DIRECTION('',(0.,0.,1.));
#202 = ORIENTED_EDGE('',*,*,#203,.F.);
#203 = EDGE_CURVE('',#204,#196,#206,.T.);
#204 = VERTEX_POINT('',#205);
#205 = CARTESIAN_POINT('',(-20.01862735121,-9.825709082462,4.44));
#206 = CIRCLE('',#207,22.3);
#207 = AXIS2_PLACEMENT_3D('',#208,#209,#210);
#208 = CARTESIAN_POINT('',(0.,0.,4.44));
#209 = DIRECTION('',(0.,0.,1.));
#210 = DIRECTION('',(1.,0.,-0.));
#211 = ORIENTED_EDGE('',*,*,#212,.T.);
#212 = EDGE_CURVE('',#204,#213,#215,.T.);
#213 = VERTEX_POINT('',#214);
#214 = CARTESIAN_POINT('',(-20.01862735121,-9.825709082462,4.45));
#215 = LINE('',#216,#217);
#216 = CARTESIAN_POINT('',(-20.01862735121,-9.825709082462,0.));
#217 = VECTOR('',#218,1.);
#218 = DIRECTION('',(0.,0.,1.));
#219 = ORIENTED_EDGE('',*,*,#220,.F.);
#220 = EDGE_CURVE('',#221,#213,#223,.T.);
#221 = VERTEX_POINT('',#222);
#222 = CARTESIAN_POINT('',(-1.5,22.249494376277,4.45));
#223 = CIRCLE('',#224,22.3);
#224 = AXIS2_PLACEMENT_3D('',#225,#226,#227);
#225 = CARTESIAN_POINT('',(0.,0.,4.45));
#226 = DIRECTION('',(0.,0.,1.));
#227 = DIRECTION('',(1.,0.,-0.));
#228 = ORIENTED_EDGE('',*,*,#229,.F.);
#229 = EDGE_CURVE('',#230,#221,#232,.T.);
#230 = VERTEX_POINT('',#231);
#231 = CARTESIAN_POINT('',(-1.5,22.249494376277,4.44));
#232 = LINE('',#233,#234);
#233 = CARTESIAN_POINT('',(-1.5,22.249494376277,0.));
#234 = VECTOR('',#235,1.);
#235 = DIRECTION('',(0.,0.,1.));
#236 = ORIENTED_EDGE('',*,*,#237,.F.);
#237 = EDGE_CURVE('',#238,#230,#240,.T.);
#238 = VERTEX_POINT('',#239);
#239 = CARTESIAN_POINT('',(1.5,22.249494376277,4.44));
#240 = CIRCLE('',#241,22.3);
#241 = AXIS2_PLACEMENT_3D('',#242,#243,#244);
#242 = CARTESIAN_POINT('',(0.,0.,4.44));
#243 = DIRECTION('',(0.,0.,1.));
#244 = DIRECTION('',(1.,0.,-0.));
#245 = ORIENTED_EDGE('',*,*,#246,.T.);
#246 = EDGE_CURVE('',#238,#42,#247,.T.);
#247 = LINE('',#248,#249);
#248 = CARTESIAN_POINT('',(1.5,22.249494376277,0.));
#249 = VECTOR('',#250,1.);
#250 = DIRECTION('',(0.,0.,1.));
#251 = CYLINDRICAL_SURFACE('',#252,22.3);
#252 = AXIS2_PLACEMENT_3D('',#253,#254,#255);
#253 = CARTESIAN_POINT('',(0.,0.,0.));
#254 = DIRECTION('',(0.,0.,1.));
#255 = DIRECTION('',(1.,0.,-0.));
#256 = ADVANCED_FACE('',(#257,#329),#340,.T.);
#257 = FACE_BOUND('',#258,.T.);
#258 = EDGE_LOOP('',(#259,#267,#268,#276,#284,#290,#291,#299,#307,#313,
    #314,#315,#323));
#259 = ORIENTED_EDGE('',*,*,#260,.F.);
#260 = EDGE_CURVE('',#221,#261,#263,.T.);
#261 = VERTEX_POINT('',#262);
#262 = CARTESIAN_POINT('',(-1.5,19.7,4.45));
#263 = LINE('',#264,#265);
#264 = CARTESIAN_POINT('',(-1.5,9.85,4.45));
#265 = VECTOR('',#266,1.);
#266 = DIRECTION('',(-2.22044604925E-16,-1.,0.));
#267 = ORIENTED_EDGE('',*,*,#220,.T.);
#268 = ORIENTED_EDGE('',*,*,#269,.T.);
#269 = EDGE_CURVE('',#213,#270,#272,.T.);
#270 = VERTEX_POINT('',#271);
#271 = CARTESIAN_POINT('',(-17.81070045455,-8.550961894323,4.45));
#272 = LINE('',#273,#274);
#273 = CARTESIAN_POINT('',(-9.280350227277,-3.625961894323,4.45));
#274 = VECTOR('',#275,1.);
#275 = DIRECTION('',(0.866025403784,0.5,-0.));
#276 = ORIENTED_EDGE('',*,*,#277,.T.);
#277 = EDGE_CURVE('',#270,#278,#280,.T.);
#278 = VERTEX_POINT('',#279);
#279 = CARTESIAN_POINT('',(-16.31070045455,-11.14903810567,4.45));
#280 = LINE('',#281,#282);
#281 = CARTESIAN_POINT('',(-17.43570045455,-9.200480947162,4.45));
#282 = VECTOR('',#283,1.);
#283 = DIRECTION('',(0.5,-0.866025403784,0.));
#284 = ORIENTED_EDGE('',*,*,#285,.F.);
#285 = EDGE_CURVE('',#187,#278,#286,.T.);
#286 = LINE('',#287,#288);
#287 = CARTESIAN_POINT('',(-7.780350227277,-6.224038105677,4.45));
#288 = VECTOR('',#289,1.);
#289 = DIRECTION('',(0.866025403784,0.5,-0.));
#290 = ORIENTED_EDGE('',*,*,#186,.T.);
#291 = ORIENTED_EDGE('',*,*,#292,.T.);
#292 = EDGE_CURVE('',#179,#293,#295,.T.);
#293 = VERTEX_POINT('',#294);
#294 = CARTESIAN_POINT('',(16.310700454553,-11.14903810567,4.45));
#295 = LINE('',#296,#297);
#296 = CARTESIAN_POINT('',(7.780350227277,-6.224038105677,4.45));
#297 = VECTOR('',#298,1.);
#298 = DIRECTION('',(-0.866025403784,0.5,0.));
#299 = ORIENTED_EDGE('',*,*,#300,.T.);
#300 = EDGE_CURVE('',#293,#301,#303,.T.);
#301 = VERTEX_POINT('',#302);
#302 = CARTESIAN_POINT('',(17.810700454553,-8.550961894323,4.45));
#303 = LINE('',#304,#305);
#304 = CARTESIAN_POINT('',(16.685700454553,-10.49951905283,4.45));
#305 = VECTOR('',#306,1.);
#306 = DIRECTION('',(0.5,0.866025403784,-0.));
#307 = ORIENTED_EDGE('',*,*,#308,.F.);
#308 = EDGE_CURVE('',#153,#301,#309,.T.);
#309 = LINE('',#310,#311);
#310 = CARTESIAN_POINT('',(9.280350227277,-3.625961894323,4.45));
#311 = VECTOR('',#312,1.);
#312 = DIRECTION('',(-0.866025403784,0.5,0.));
#313 = ORIENTED_EDGE('',*,*,#152,.T.);
#314 = ORIENTED_EDGE('',*,*,#39,.T.);
#315 = ORIENTED_EDGE('',*,*,#316,.T.);
#316 = EDGE_CURVE('',#42,#317,#319,.T.);
#317 = VERTEX_POINT('',#318);
#318 = CARTESIAN_POINT('',(1.5,19.7,4.45));
#319 = LINE('',#320,#321);
#320 = CARTESIAN_POINT('',(1.5,9.85,4.45));
#321 = VECTOR('',#322,1.);
#322 = DIRECTION('',(-2.22044604925E-16,-1.,0.));
#323 = ORIENTED_EDGE('',*,*,#324,.T.);
#324 = EDGE_CURVE('',#317,#261,#325,.T.);
#325 = LINE('',#326,#327);
#326 = CARTESIAN_POINT('',(0.75,19.7,4.45));
#327 = VECTOR('',#328,1.);
#328 = DIRECTION('',(-1.,2.22044604925E-16,0.));
#329 = FACE_BOUND('',#330,.T.);
#330 = EDGE_LOOP('',(#331));
#331 = ORIENTED_EDGE('',*,*,#332,.F.);
#332 = EDGE_CURVE('',#333,#333,#335,.T.);
#333 = VERTEX_POINT('',#334);
#334 = CARTESIAN_POINT('',(18.3,-4.482207284879E-15,4.45));
#335 = CIRCLE('',#336,18.3);
#336 = AXIS2_PLACEMENT_3D('',#337,#338,#339);
#337 = CARTESIAN_POINT('',(0.,0.,4.45));
#338 = DIRECTION('',(0.,0.,1.));
#339 = DIRECTION('',(1.,0.,-0.));
#340 = PLANE('',#341);
#341 = AXIS2_PLACEMENT_3D('',#342,#343,#344);
#342 = CARTESIAN_POINT('',(0.,0.,4.45));
#343 = DIRECTION('',(0.,0.,1.));
#344 = DIRECTION('',(1.,0.,-0.));
#345 = ADVANCED_FACE('',(#346),#412,.F.);
#346 = FACE_BOUND('',#347,.F.);
#347 = EDGE_LOOP('',(#348,#358,#366,#372,#373,#374,#382,#390,#398,#406)
  );
#348 = ORIENTED_EDGE('',*,*,#349,.T.);
#349 = EDGE_CURVE('',#350,#352,#354,.T.);
#350 = VERTEX_POINT('',#351);
#351 = CARTESIAN_POINT('',(1.5,20.25,7.24));
#352 = VERTEX_POINT('',#353);
#353 = CARTESIAN_POINT('',(1.5,22.8,7.24));
#354 = LINE('',#355,#356);
#355 = CARTESIAN_POINT('',(1.5,19.7,7.24));
#356 = VECTOR('',#357,1.);
#357 = DIRECTION('',(2.22044604925E-16,1.,0.));
#358 = ORIENTED_EDGE('',*,*,#359,.F.);
#359 = EDGE_CURVE('',#360,#352,#362,.T.);
#360 = VERTEX_POINT('',#361);
#361 = CARTESIAN_POINT('',(1.5,22.8,4.44));
#362 = LINE('',#363,#364);
#363 = CARTESIAN_POINT('',(1.5,22.8,4.44));
#364 = VECTOR('',#365,1.);
#365 = DIRECTION('',(0.,0.,1.));
#366 = ORIENTED_EDGE('',*,*,#367,.F.);
#367 = EDGE_CURVE('',#238,#360,#368,.T.);
#368 = LINE('',#369,#370);
#369 = CARTESIAN_POINT('',(1.5,19.7,4.44));
#370 = VECTOR('',#371,1.);
#371 = DIRECTION('',(2.22044604925E-16,1.,0.));
#372 = ORIENTED_EDGE('',*,*,#246,.T.);
#373 = ORIENTED_EDGE('',*,*,#316,.T.);
#374 = ORIENTED_EDGE('',*,*,#375,.T.);
#375 = EDGE_CURVE('',#317,#376,#378,.T.);
#376 = VERTEX_POINT('',#377);
#377 = CARTESIAN_POINT('',(1.5,19.7,6.05));
#378 = LINE('',#379,#380);
#379 = CARTESIAN_POINT('',(1.5,19.7,4.44));
#380 = VECTOR('',#381,1.);
#381 = DIRECTION('',(0.,0.,1.));
#382 = ORIENTED_EDGE('',*,*,#383,.F.);
#383 = EDGE_CURVE('',#384,#376,#386,.T.);
#384 = VERTEX_POINT('',#385);
#385 = CARTESIAN_POINT('',(1.5,19.25,6.05));
#386 = LINE('',#387,#388);
#387 = CARTESIAN_POINT('',(1.5,19.25,6.05));
#388 = VECTOR('',#389,1.);
#389 = DIRECTION('',(2.22044604925E-16,1.,0.));
#390 = ORIENTED_EDGE('',*,*,#391,.T.);
#391 = EDGE_CURVE('',#384,#392,#394,.T.);
#392 = VERTEX_POINT('',#393);
#393 = CARTESIAN_POINT('',(1.5,19.25,7.25));
#394 = LINE('',#395,#396);
#395 = CARTESIAN_POINT('',(1.5,19.25,6.05));
#396 = VECTOR('',#397,1.);
#397 = DIRECTION('',(0.,0.,1.));
#398 = ORIENTED_EDGE('',*,*,#399,.T.);
#399 = EDGE_CURVE('',#392,#400,#402,.T.);
#400 = VERTEX_POINT('',#401);
#401 = CARTESIAN_POINT('',(1.5,20.25,7.25));
#402 = LINE('',#403,#404);
#403 = CARTESIAN_POINT('',(1.5,19.25,7.25));
#404 = VECTOR('',#405,1.);
#405 = DIRECTION('',(2.22044604925E-16,1.,0.));
#406 = ORIENTED_EDGE('',*,*,#407,.F.);
#407 = EDGE_CURVE('',#350,#400,#408,.T.);
#408 = LINE('',#409,#410);
#409 = CARTESIAN_POINT('',(1.5,20.25,6.05));
#410 = VECTOR('',#411,1.);
#411 = DIRECTION('',(0.,0.,1.));
#412 = PLANE('',#413);
#413 = AXIS2_PLACEMENT_3D('',#414,#415,#416);
#414 = CARTESIAN_POINT('',(1.5,19.7,4.44));
#415 = DIRECTION('',(-1.,2.22044604925E-16,0.));
#416 = DIRECTION('',(0.,0.,1.));
#417 = ADVANCED_FACE('',(#418),#436,.F.);
#418 = FACE_BOUND('',#419,.F.);
#419 = EDGE_LOOP('',(#420,#428,#429,#430));
#420 = ORIENTED_EDGE('',*,*,#421,.F.);
#421 = EDGE_CURVE('',#230,#422,#424,.T.);
#422 = VERTEX_POINT('',#423);
#423 = CARTESIAN_POINT('',(-1.5,22.8,4.44));
#424 = LINE('',#425,#426);
#425 = CARTESIAN_POINT('',(-1.5,19.7,4.44));
#426 = VECTOR('',#427,1.);
#427 = DIRECTION('',(2.22044604925E-16,1.,0.));
#428 = ORIENTED_EDGE('',*,*,#237,.F.);
#429 = ORIENTED_EDGE('',*,*,#367,.T.);
#430 = ORIENTED_EDGE('',*,*,#431,.T.);
#431 = EDGE_CURVE('',#360,#422,#432,.T.);
#432 = LINE('',#433,#434);
#433 = CARTESIAN_POINT('',(1.5,22.8,4.44));
#434 = VECTOR('',#435,1.);
#435 = DIRECTION('',(-1.,2.22044604925E-16,0.));
#436 = PLANE('',#437);
#437 = AXIS2_PLACEMENT_3D('',#438,#439,#440);
#438 = CARTESIAN_POINT('',(1.5,19.7,4.44));
#439 = DIRECTION('',(0.,0.,1.));
#440 = DIRECTION('',(2.22044604925E-16,1.,0.));
#441 = ADVANCED_FACE('',(#442),#501,.T.);
#442 = FACE_BOUND('',#443,.T.);
#443 = EDGE_LOOP('',(#444,#454,#460,#461,#462,#463,#471,#479,#487,#495)
  );
#444 = ORIENTED_EDGE('',*,*,#445,.T.);
#445 = EDGE_CURVE('',#446,#448,#450,.T.);
#446 = VERTEX_POINT('',#447);
#447 = CARTESIAN_POINT('',(-1.5,20.25,7.24));
#448 = VERTEX_POINT('',#449);
#449 = CARTESIAN_POINT('',(-1.5,22.8,7.24));
#450 = LINE('',#451,#452);
#451 = CARTESIAN_POINT('',(-1.5,19.7,7.24));
#452 = VECTOR('',#453,1.);
#453 = DIRECTION('',(2.22044604925E-16,1.,0.));
#454 = ORIENTED_EDGE('',*,*,#455,.F.);
#455 = EDGE_CURVE('',#422,#448,#456,.T.);
#456 = LINE('',#457,#458);
#457 = CARTESIAN_POINT('',(-1.5,22.8,4.44));
#458 = VECTOR('',#459,1.);
#459 = DIRECTION('',(0.,0.,1.));
#460 = ORIENTED_EDGE('',*,*,#421,.F.);
#461 = ORIENTED_EDGE('',*,*,#229,.T.);
#462 = ORIENTED_EDGE('',*,*,#260,.T.);
#463 = ORIENTED_EDGE('',*,*,#464,.T.);
#464 = EDGE_CURVE('',#261,#465,#467,.T.);
#465 = VERTEX_POINT('',#466);
#466 = CARTESIAN_POINT('',(-1.5,19.7,6.05));
#467 = LINE('',#468,#469);
#468 = CARTESIAN_POINT('',(-1.5,19.7,4.44));
#469 = VECTOR('',#470,1.);
#470 = DIRECTION('',(0.,0.,1.));
#471 = ORIENTED_EDGE('',*,*,#472,.F.);
#472 = EDGE_CURVE('',#473,#465,#475,.T.);
#473 = VERTEX_POINT('',#474);
#474 = CARTESIAN_POINT('',(-1.5,19.25,6.05));
#475 = LINE('',#476,#477);
#476 = CARTESIAN_POINT('',(-1.5,19.25,6.05));
#477 = VECTOR('',#478,1.);
#478 = DIRECTION('',(2.22044604925E-16,1.,0.));
#479 = ORIENTED_EDGE('',*,*,#480,.T.);
#480 = EDGE_CURVE('',#473,#481,#483,.T.);
#481 = VERTEX_POINT('',#482);
#482 = CARTESIAN_POINT('',(-1.5,19.25,7.25));
#483 = LINE('',#484,#485);
#484 = CARTESIAN_POINT('',(-1.5,19.25,6.05));
#485 = VECTOR('',#486,1.);
#486 = DIRECTION('',(0.,0.,1.));
#487 = ORIENTED_EDGE('',*,*,#488,.T.);
#488 = EDGE_CURVE('',#481,#489,#491,.T.);
#489 = VERTEX_POINT('',#490);
#490 = CARTESIAN_POINT('',(-1.5,20.25,7.25));
#491 = LINE('',#492,#493);
#492 = CARTESIAN_POINT('',(-1.5,19.25,7.25));
#493 = VECTOR('',#494,1.);
#494 = DIRECTION('',(2.22044604925E-16,1.,0.));
#495 = ORIENTED_EDGE('',*,*,#496,.F.);
#496 = EDGE_CURVE('',#446,#489,#497,.T.);
#497 = LINE('',#498,#499);
#498 = CARTESIAN_POINT('',(-1.5,20.25,6.05));
#499 = VECTOR('',#500,1.);
#500 = DIRECTION('',(0.,0.,1.));
#501 = PLANE('',#502);
#502 = AXIS2_PLACEMENT_3D('',#503,#504,#505);
#503 = CARTESIAN_POINT('',(-1.5,19.7,4.44));
#504 = DIRECTION('',(-1.,2.22044604925E-16,0.));
#505 = DIRECTION('',(0.,0.,1.));
#506 = ADVANCED_FACE('',(#507),#573,.F.);
#507 = FACE_BOUND('',#508,.F.);
#508 = EDGE_LOOP('',(#509,#519,#527,#533,#534,#535,#543,#551,#559,#567)
  );
#509 = ORIENTED_EDGE('',*,*,#510,.T.);
#510 = EDGE_CURVE('',#511,#513,#515,.T.);
#511 = VERTEX_POINT('',#512);
#512 = CARTESIAN_POINT('',(-18.28701442663,-8.825961894323,7.24));
#513 = VERTEX_POINT('',#514);
#514 = CARTESIAN_POINT('',(-20.49537920628,-10.10096189432,7.24));
#515 = LINE('',#516,#517);
#516 = CARTESIAN_POINT('',(-17.81070045455,-8.550961894323,7.24));
#517 = VECTOR('',#518,1.);
#518 = DIRECTION('',(-0.866025403784,-0.5,0.));
#519 = ORIENTED_EDGE('',*,*,#520,.F.);
#520 = EDGE_CURVE('',#521,#513,#523,.T.);
#521 = VERTEX_POINT('',#522);
#522 = CARTESIAN_POINT('',(-20.49537920628,-10.10096189432,4.44));
#523 = LINE('',#524,#525);
#524 = CARTESIAN_POINT('',(-20.49537920628,-10.10096189432,4.44));
#525 = VECTOR('',#526,1.);
#526 = DIRECTION('',(0.,0.,1.));
#527 = ORIENTED_EDGE('',*,*,#528,.F.);
#528 = EDGE_CURVE('',#204,#521,#529,.T.);
#529 = LINE('',#530,#531);
#530 = CARTESIAN_POINT('',(-17.81070045455,-8.550961894323,4.44));
#531 = VECTOR('',#532,1.);
#532 = DIRECTION('',(-0.866025403784,-0.5,0.));
#533 = ORIENTED_EDGE('',*,*,#212,.T.);
#534 = ORIENTED_EDGE('',*,*,#269,.T.);
#535 = ORIENTED_EDGE('',*,*,#536,.T.);
#536 = EDGE_CURVE('',#270,#537,#539,.T.);
#537 = VERTEX_POINT('',#538);
#538 = CARTESIAN_POINT('',(-17.81070045455,-8.550961894323,6.05));
#539 = LINE('',#540,#541);
#540 = CARTESIAN_POINT('',(-17.81070045455,-8.550961894323,4.44));
#541 = VECTOR('',#542,1.);
#542 = DIRECTION('',(0.,0.,1.));
#543 = ORIENTED_EDGE('',*,*,#544,.F.);
#544 = EDGE_CURVE('',#545,#537,#547,.T.);
#545 = VERTEX_POINT('',#546);
#546 = CARTESIAN_POINT('',(-17.42098902285,-8.325961894323,6.05));
#547 = LINE('',#548,#549);
#548 = CARTESIAN_POINT('',(-17.42098902285,-8.325961894323,6.05));
#549 = VECTOR('',#550,1.);
#550 = DIRECTION('',(-0.866025403784,-0.5,0.));
#551 = ORIENTED_EDGE('',*,*,#552,.T.);
#552 = EDGE_CURVE('',#545,#553,#555,.T.);
#553 = VERTEX_POINT('',#554);
#554 = CARTESIAN_POINT('',(-17.42098902285,-8.325961894323,7.25));
#555 = LINE('',#556,#557);
#556 = CARTESIAN_POINT('',(-17.42098902285,-8.325961894323,6.05));
#557 = VECTOR('',#558,1.);
#558 = DIRECTION('',(0.,0.,1.));
#559 = ORIENTED_EDGE('',*,*,#560,.T.);
#560 = EDGE_CURVE('',#553,#561,#563,.T.);
#561 = VERTEX_POINT('',#562);
#562 = CARTESIAN_POINT('',(-18.28701442663,-8.825961894323,7.25));
#563 = LINE('',#564,#565);
#564 = CARTESIAN_POINT('',(-17.42098902285,-8.325961894323,7.25));
#565 = VECTOR('',#566,1.);
#566 = DIRECTION('',(-0.866025403784,-0.5,0.));
#567 = ORIENTED_EDGE('',*,*,#568,.F.);
#568 = EDGE_CURVE('',#511,#561,#569,.T.);
#569 = LINE('',#570,#571);
#570 = CARTESIAN_POINT('',(-18.28701442663,-8.825961894323,6.05));
#571 = VECTOR('',#572,1.);
#572 = DIRECTION('',(0.,0.,1.));
#573 = PLANE('',#574);
#574 = AXIS2_PLACEMENT_3D('',#575,#576,#577);
#575 = CARTESIAN_POINT('',(-17.81070045455,-8.550961894323,4.44));
#576 = DIRECTION('',(0.5,-0.866025403784,0.));
#577 = DIRECTION('',(0.,0.,1.));
#578 = ADVANCED_FACE('',(#579),#597,.F.);
#579 = FACE_BOUND('',#580,.F.);
#580 = EDGE_LOOP('',(#581,#589,#590,#591));
#581 = ORIENTED_EDGE('',*,*,#582,.F.);
#582 = EDGE_CURVE('',#196,#583,#585,.T.);
#583 = VERTEX_POINT('',#584);
#584 = CARTESIAN_POINT('',(-18.99537920628,-12.69903810567,4.44));
#585 = LINE('',#586,#587);
#586 = CARTESIAN_POINT('',(-16.31070045455,-11.14903810567,4.44));
#587 = VECTOR('',#588,1.);
#588 = DIRECTION('',(-0.866025403784,-0.5,0.));
#589 = ORIENTED_EDGE('',*,*,#203,.F.);
#590 = ORIENTED_EDGE('',*,*,#528,.T.);
#591 = ORIENTED_EDGE('',*,*,#592,.T.);
#592 = EDGE_CURVE('',#521,#583,#593,.T.);
#593 = LINE('',#594,#595);
#594 = CARTESIAN_POINT('',(-20.49537920628,-10.10096189432,4.44));
#595 = VECTOR('',#596,1.);
#596 = DIRECTION('',(0.5,-0.866025403784,0.));
#597 = PLANE('',#598);
#598 = AXIS2_PLACEMENT_3D('',#599,#600,#601);
#599 = CARTESIAN_POINT('',(-17.81070045455,-8.550961894323,4.44));
#600 = DIRECTION('',(0.,0.,1.));
#601 = DIRECTION('',(-0.866025403784,-0.5,0.));
#602 = ADVANCED_FACE('',(#603),#662,.T.);
#603 = FACE_BOUND('',#604,.T.);
#604 = EDGE_LOOP('',(#605,#615,#621,#622,#623,#624,#632,#640,#648,#656)
  );
#605 = ORIENTED_EDGE('',*,*,#606,.T.);
#606 = EDGE_CURVE('',#607,#609,#611,.T.);
#607 = VERTEX_POINT('',#608);
#608 = CARTESIAN_POINT('',(-16.78701442663,-11.42403810567,7.24));
#609 = VERTEX_POINT('',#610);
#610 = CARTESIAN_POINT('',(-18.99537920628,-12.69903810567,7.24));
#611 = LINE('',#612,#613);
#612 = CARTESIAN_POINT('',(-16.31070045455,-11.14903810567,7.24));
#613 = VECTOR('',#614,1.);
#614 = DIRECTION('',(-0.866025403784,-0.5,0.));
#615 = ORIENTED_EDGE('',*,*,#616,.F.);
#616 = EDGE_CURVE('',#583,#609,#617,.T.);
#617 = LINE('',#618,#619);
#618 = CARTESIAN_POINT('',(-18.99537920628,-12.69903810567,4.44));
#619 = VECTOR('',#620,1.);
#620 = DIRECTION('',(0.,0.,1.));
#621 = ORIENTED_EDGE('',*,*,#582,.F.);
#622 = ORIENTED_EDGE('',*,*,#195,.T.);
#623 = ORIENTED_EDGE('',*,*,#285,.T.);
#624 = ORIENTED_EDGE('',*,*,#625,.T.);
#625 = EDGE_CURVE('',#278,#626,#628,.T.);
#626 = VERTEX_POINT('',#627);
#627 = CARTESIAN_POINT('',(-16.31070045455,-11.14903810567,6.05));
#628 = LINE('',#629,#630);
#629 = CARTESIAN_POINT('',(-16.31070045455,-11.14903810567,4.44));
#630 = VECTOR('',#631,1.);
#631 = DIRECTION('',(0.,0.,1.));
#632 = ORIENTED_EDGE('',*,*,#633,.F.);
#633 = EDGE_CURVE('',#634,#626,#636,.T.);
#634 = VERTEX_POINT('',#635);
#635 = CARTESIAN_POINT('',(-15.92098902285,-10.92403810567,6.05));
#636 = LINE('',#637,#638);
#637 = CARTESIAN_POINT('',(-15.92098902285,-10.92403810567,6.05));
#638 = VECTOR('',#639,1.);
#639 = DIRECTION('',(-0.866025403784,-0.5,0.));
#640 = ORIENTED_EDGE('',*,*,#641,.T.);
#641 = EDGE_CURVE('',#634,#642,#644,.T.);
#642 = VERTEX_POINT('',#643);
#643 = CARTESIAN_POINT('',(-15.92098902285,-10.92403810567,7.25));
#644 = LINE('',#645,#646);
#645 = CARTESIAN_POINT('',(-15.92098902285,-10.92403810567,6.05));
#646 = VECTOR('',#647,1.);
#647 = DIRECTION('',(0.,0.,1.));
#648 = ORIENTED_EDGE('',*,*,#649,.T.);
#649 = EDGE_CURVE('',#642,#650,#652,.T.);
#650 = VERTEX_POINT('',#651);
#651 = CARTESIAN_POINT('',(-16.78701442663,-11.42403810567,7.25));
#652 = LINE('',#653,#654);
#653 = CARTESIAN_POINT('',(-15.92098902285,-10.92403810567,7.25));
#654 = VECTOR('',#655,1.);
#655 = DIRECTION('',(-0.866025403784,-0.5,0.));
#656 = ORIENTED_EDGE('',*,*,#657,.F.);
#657 = EDGE_CURVE('',#607,#650,#658,.T.);
#658 = LINE('',#659,#660);
#659 = CARTESIAN_POINT('',(-16.78701442663,-11.42403810567,6.05));
#660 = VECTOR('',#661,1.);
#661 = DIRECTION('',(0.,0.,1.));
#662 = PLANE('',#663);
#663 = AXIS2_PLACEMENT_3D('',#664,#665,#666);
#664 = CARTESIAN_POINT('',(-16.31070045455,-11.14903810567,4.44));
#665 = DIRECTION('',(0.5,-0.866025403784,0.));
#666 = DIRECTION('',(0.,0.,1.));
#667 = ADVANCED_FACE('',(#668),#734,.F.);
#668 = FACE_BOUND('',#669,.F.);
#669 = EDGE_LOOP('',(#670,#680,#688,#694,#695,#696,#704,#712,#720,#728)
  );
#670 = ORIENTED_EDGE('',*,*,#671,.T.);
#671 = EDGE_CURVE('',#672,#674,#676,.T.);
#672 = VERTEX_POINT('',#673);
#673 = CARTESIAN_POINT('',(16.787014426635,-11.42403810567,7.24));
#674 = VERTEX_POINT('',#675);
#675 = CARTESIAN_POINT('',(18.995379206285,-12.69903810567,7.24));
#676 = LINE('',#677,#678);
#677 = CARTESIAN_POINT('',(16.310700454553,-11.14903810567,7.24));
#678 = VECTOR('',#679,1.);
#679 = DIRECTION('',(0.866025403784,-0.5,0.));
#680 = ORIENTED_EDGE('',*,*,#681,.F.);
#681 = EDGE_CURVE('',#682,#674,#684,.T.);
#682 = VERTEX_POINT('',#683);
#683 = CARTESIAN_POINT('',(18.995379206285,-12.69903810567,4.44));
#684 = LINE('',#685,#686);
#685 = CARTESIAN_POINT('',(18.995379206285,-12.69903810567,4.44));
#686 = VECTOR('',#687,1.);
#687 = DIRECTION('',(0.,0.,1.));
#688 = ORIENTED_EDGE('',*,*,#689,.F.);
#689 = EDGE_CURVE('',#170,#682,#690,.T.);
#690 = LINE('',#691,#692);
#691 = CARTESIAN_POINT('',(16.310700454553,-11.14903810567,4.44));
#692 = VECTOR('',#693,1.);
#693 = DIRECTION('',(0.866025403784,-0.5,0.));
#694 = ORIENTED_EDGE('',*,*,#178,.T.);
#695 = ORIENTED_EDGE('',*,*,#292,.T.);
#696 = ORIENTED_EDGE('',*,*,#697,.T.);
#697 = EDGE_CURVE('',#293,#698,#700,.T.);
#698 = VERTEX_POINT('',#699);
#699 = CARTESIAN_POINT('',(16.310700454553,-11.14903810567,6.05));
#700 = LINE('',#701,#702);
#701 = CARTESIAN_POINT('',(16.310700454553,-11.14903810567,4.44));
#702 = VECTOR('',#703,1.);
#703 = DIRECTION('',(0.,0.,1.));
#704 = ORIENTED_EDGE('',*,*,#705,.F.);
#705 = EDGE_CURVE('',#706,#698,#708,.T.);
#706 = VERTEX_POINT('',#707);
#707 = CARTESIAN_POINT('',(15.92098902285,-10.92403810567,6.05));
#708 = LINE('',#709,#710);
#709 = CARTESIAN_POINT('',(15.92098902285,-10.92403810567,6.05));
#710 = VECTOR('',#711,1.);
#711 = DIRECTION('',(0.866025403784,-0.5,0.));
#712 = ORIENTED_EDGE('',*,*,#713,.T.);
#713 = EDGE_CURVE('',#706,#714,#716,.T.);
#714 = VERTEX_POINT('',#715);
#715 = CARTESIAN_POINT('',(15.92098902285,-10.92403810567,7.25));
#716 = LINE('',#717,#718);
#717 = CARTESIAN_POINT('',(15.92098902285,-10.92403810567,6.05));
#718 = VECTOR('',#719,1.);
#719 = DIRECTION('',(0.,0.,1.));
#720 = ORIENTED_EDGE('',*,*,#721,.T.);
#721 = EDGE_CURVE('',#714,#722,#724,.T.);
#722 = VERTEX_POINT('',#723);
#723 = CARTESIAN_POINT('',(16.787014426635,-11.42403810567,7.25));
#724 = LINE('',#725,#726);
#725 = CARTESIAN_POINT('',(15.92098902285,-10.92403810567,7.25));
#726 = VECTOR('',#727,1.);
#727 = DIRECTION('',(0.866025403784,-0.5,0.));
#728 = ORIENTED_EDGE('',*,*,#729,.F.);
#729 = EDGE_CURVE('',#672,#722,#730,.T.);
#730 = LINE('',#731,#732);
#731 = CARTESIAN_POINT('',(16.787014426635,-11.42403810567,6.05));
#732 = VECTOR('',#733,1.);
#733 = DIRECTION('',(0.,0.,1.));
#734 = PLANE('',#735);
#735 = AXIS2_PLACEMENT_3D('',#736,#737,#738);
#736 = CARTESIAN_POINT('',(16.310700454553,-11.14903810567,4.44));
#737 = DIRECTION('',(0.5,0.866025403784,0.));
#738 = DIRECTION('',(0.,0.,1.));
#739 = ADVANCED_FACE('',(#740),#758,.F.);
#740 = FACE_BOUND('',#741,.F.);
#741 = EDGE_LOOP('',(#742,#750,#751,#752));
#742 = ORIENTED_EDGE('',*,*,#743,.F.);
#743 = EDGE_CURVE('',#162,#744,#746,.T.);
#744 = VERTEX_POINT('',#745);
#745 = CARTESIAN_POINT('',(20.495379206285,-10.10096189432,4.44));
#746 = LINE('',#747,#748);
#747 = CARTESIAN_POINT('',(17.810700454553,-8.550961894323,4.44));
#748 = VECTOR('',#749,1.);
#749 = DIRECTION('',(0.866025403784,-0.5,0.));
#750 = ORIENTED_EDGE('',*,*,#169,.F.);
#751 = ORIENTED_EDGE('',*,*,#689,.T.);
#752 = ORIENTED_EDGE('',*,*,#753,.T.);
#753 = EDGE_CURVE('',#682,#744,#754,.T.);
#754 = LINE('',#755,#756);
#755 = CARTESIAN_POINT('',(18.995379206285,-12.69903810567,4.44));
#756 = VECTOR('',#757,1.);
#757 = DIRECTION('',(0.5,0.866025403784,0.));
#758 = PLANE('',#759);
#759 = AXIS2_PLACEMENT_3D('',#760,#761,#762);
#760 = CARTESIAN_POINT('',(16.310700454553,-11.14903810567,4.44));
#761 = DIRECTION('',(0.,0.,1.));
#762 = DIRECTION('',(0.866025403784,-0.5,0.));
#763 = ADVANCED_FACE('',(#764),#823,.T.);
#764 = FACE_BOUND('',#765,.T.);
#765 = EDGE_LOOP('',(#766,#776,#782,#783,#784,#785,#793,#801,#809,#817)
  );
#766 = ORIENTED_EDGE('',*,*,#767,.T.);
#767 = EDGE_CURVE('',#768,#770,#772,.T.);
#768 = VERTEX_POINT('',#769);
#769 = CARTESIAN_POINT('',(18.287014426635,-8.825961894323,7.24));
#770 = VERTEX_POINT('',#771);
#771 = CARTESIAN_POINT('',(20.495379206285,-10.10096189432,7.24));
#772 = LINE('',#773,#774);
#773 = CARTESIAN_POINT('',(17.810700454553,-8.550961894323,7.24));
#774 = VECTOR('',#775,1.);
#775 = DIRECTION('',(0.866025403784,-0.5,0.));
#776 = ORIENTED_EDGE('',*,*,#777,.F.);
#777 = EDGE_CURVE('',#744,#770,#778,.T.);
#778 = LINE('',#779,#780);
#779 = CARTESIAN_POINT('',(20.495379206285,-10.10096189432,4.44));
#780 = VECTOR('',#781,1.);
#781 = DIRECTION('',(0.,0.,1.));
#782 = ORIENTED_EDGE('',*,*,#743,.F.);
#783 = ORIENTED_EDGE('',*,*,#161,.T.);
#784 = ORIENTED_EDGE('',*,*,#308,.T.);
#785 = ORIENTED_EDGE('',*,*,#786,.T.);
#786 = EDGE_CURVE('',#301,#787,#789,.T.);
#787 = VERTEX_POINT('',#788);
#788 = CARTESIAN_POINT('',(17.810700454553,-8.550961894323,6.05));
#789 = LINE('',#790,#791);
#790 = CARTESIAN_POINT('',(17.810700454553,-8.550961894323,4.44));
#791 = VECTOR('',#792,1.);
#792 = DIRECTION('',(0.,0.,1.));
#793 = ORIENTED_EDGE('',*,*,#794,.F.);
#794 = EDGE_CURVE('',#795,#787,#797,.T.);
#795 = VERTEX_POINT('',#796);
#796 = CARTESIAN_POINT('',(17.42098902285,-8.325961894323,6.05));
#797 = LINE('',#798,#799);
#798 = CARTESIAN_POINT('',(17.42098902285,-8.325961894323,6.05));
#799 = VECTOR('',#800,1.);
#800 = DIRECTION('',(0.866025403784,-0.5,0.));
#801 = ORIENTED_EDGE('',*,*,#802,.T.);
#802 = EDGE_CURVE('',#795,#803,#805,.T.);
#803 = VERTEX_POINT('',#804);
#804 = CARTESIAN_POINT('',(17.42098902285,-8.325961894323,7.25));
#805 = LINE('',#806,#807);
#806 = CARTESIAN_POINT('',(17.42098902285,-8.325961894323,6.05));
#807 = VECTOR('',#808,1.);
#808 = DIRECTION('',(0.,0.,1.));
#809 = ORIENTED_EDGE('',*,*,#810,.T.);
#810 = EDGE_CURVE('',#803,#811,#813,.T.);
#811 = VERTEX_POINT('',#812);
#812 = CARTESIAN_POINT('',(18.287014426635,-8.825961894323,7.25));
#813 = LINE('',#814,#815);
#814 = CARTESIAN_POINT('',(17.42098902285,-8.325961894323,7.25));
#815 = VECTOR('',#816,1.);
#816 = DIRECTION('',(0.866025403784,-0.5,0.));
#817 = ORIENTED_EDGE('',*,*,#818,.F.);
#818 = EDGE_CURVE('',#768,#811,#819,.T.);
#819 = LINE('',#820,#821);
#820 = CARTESIAN_POINT('',(18.287014426635,-8.825961894323,6.05));
#821 = VECTOR('',#822,1.);
#822 = DIRECTION('',(0.,0.,1.));
#823 = PLANE('',#824);
#824 = AXIS2_PLACEMENT_3D('',#825,#826,#827);
#825 = CARTESIAN_POINT('',(17.810700454553,-8.550961894323,4.44));
#826 = DIRECTION('',(0.5,0.866025403784,0.));
#827 = DIRECTION('',(0.,0.,1.));
#828 = ADVANCED_FACE('',(#829,#848,#859,#870),#881,.F.);
#829 = FACE_BOUND('',#830,.F.);
#830 = EDGE_LOOP('',(#831,#838,#839,#840,#847));
#831 = ORIENTED_EDGE('',*,*,#832,.F.);
#832 = EDGE_CURVE('',#137,#102,#833,.T.);
#833 = CIRCLE('',#834,4.);
#834 = AXIS2_PLACEMENT_3D('',#835,#836,#837);
#835 = CARTESIAN_POINT('',(0.,-24.,0.));
#836 = DIRECTION('',(0.,0.,-1.));
#837 = DIRECTION('',(0.869869880154,0.49328125,0.));
#838 = ORIENTED_EDGE('',*,*,#144,.T.);
#839 = ORIENTED_EDGE('',*,*,#58,.T.);
#840 = ORIENTED_EDGE('',*,*,#841,.F.);
#841 = EDGE_CURVE('',#94,#59,#842,.T.);
#842 = CIRCLE('',#843,4.);
#843 = AXIS2_PLACEMENT_3D('',#844,#845,#846);
#844 = CARTESIAN_POINT('',(0.,24.,0.));
#845 = DIRECTION('',(-0.,0.,-1.));
#846 = DIRECTION('',(-0.869869880154,-0.49328125,0.));
#847 = ORIENTED_EDGE('',*,*,#101,.T.);
#848 = FACE_BOUND('',#849,.F.);
#849 = EDGE_LOOP('',(#850));
#850 = ORIENTED_EDGE('',*,*,#851,.F.);
#851 = EDGE_CURVE('',#852,#852,#854,.T.);
#852 = VERTEX_POINT('',#853);
#853 = CARTESIAN_POINT('',(1.7,-24.,0.));
#854 = CIRCLE('',#855,1.7);
#855 = AXIS2_PLACEMENT_3D('',#856,#857,#858);
#856 = CARTESIAN_POINT('',(0.,-24.,0.));
#857 = DIRECTION('',(0.,0.,1.));
#858 = DIRECTION('',(1.,0.,-0.));
#859 = FACE_BOUND('',#860,.F.);
#860 = EDGE_LOOP('',(#861));
#861 = ORIENTED_EDGE('',*,*,#862,.F.);
#862 = EDGE_CURVE('',#863,#863,#865,.T.);
#863 = VERTEX_POINT('',#864);
#864 = CARTESIAN_POINT('',(18.3,-4.482207284879E-15,0.));
#865 = CIRCLE('',#866,18.3);
#866 = AXIS2_PLACEMENT_3D('',#867,#868,#869);
#867 = CARTESIAN_POINT('',(0.,0.,0.));
#868 = DIRECTION('',(0.,0.,1.));
#869 = DIRECTION('',(1.,0.,-0.));
#870 = FACE_BOUND('',#871,.F.);
#871 = EDGE_LOOP('',(#872));
#872 = ORIENTED_EDGE('',*,*,#873,.F.);
#873 = EDGE_CURVE('',#874,#874,#876,.T.);
#874 = VERTEX_POINT('',#875);
#875 = CARTESIAN_POINT('',(1.7,24.,0.));
#876 = CIRCLE('',#877,1.7);
#877 = AXIS2_PLACEMENT_3D('',#878,#879,#880);
#878 = CARTESIAN_POINT('',(0.,24.,0.));
#879 = DIRECTION('',(0.,0.,1.));
#880 = DIRECTION('',(1.,0.,-0.));
#881 = PLANE('',#882);
#882 = AXIS2_PLACEMENT_3D('',#883,#884,#885);
#883 = CARTESIAN_POINT('',(0.,0.,0.));
#884 = DIRECTION('',(0.,0.,1.));
#885 = DIRECTION('',(1.,0.,-0.));
#886 = ADVANCED_FACE('',(#887),#899,.T.);
#887 = FACE_BOUND('',#888,.T.);
#888 = EDGE_LOOP('',(#889,#896,#897,#898));
#889 = ORIENTED_EDGE('',*,*,#890,.T.);
#890 = EDGE_CURVE('',#128,#111,#891,.T.);
#891 = CIRCLE('',#892,4.);
#892 = AXIS2_PLACEMENT_3D('',#893,#894,#895);
#893 = CARTESIAN_POINT('',(0.,-24.,2.));
#894 = DIRECTION('',(0.,0.,-1.));
#895 = DIRECTION('',(0.869869880154,0.49328125,0.));
#896 = ORIENTED_EDGE('',*,*,#110,.F.);
#897 = ORIENTED_EDGE('',*,*,#832,.F.);
#898 = ORIENTED_EDGE('',*,*,#136,.T.);
#899 = CYLINDRICAL_SURFACE('',#900,4.);
#900 = AXIS2_PLACEMENT_3D('',#901,#902,#903);
#901 = CARTESIAN_POINT('',(0.,-24.,0.));
#902 = DIRECTION('',(0.,0.,1.));
#903 = DIRECTION('',(1.,0.,-0.));
#904 = ADVANCED_FACE('',(#905,#910),#930,.T.);
#905 = FACE_BOUND('',#906,.T.);
#906 = EDGE_LOOP('',(#907,#908,#909));
#907 = ORIENTED_EDGE('',*,*,#118,.F.);
#908 = ORIENTED_EDGE('',*,*,#890,.F.);
#909 = ORIENTED_EDGE('',*,*,#127,.F.);
#910 = FACE_BOUND('',#911,.T.);
#911 = EDGE_LOOP('',(#912,#923));
#912 = ORIENTED_EDGE('',*,*,#913,.F.);
#913 = EDGE_CURVE('',#914,#916,#918,.T.);
#914 = VERTEX_POINT('',#915);
#915 = CARTESIAN_POINT('',(4.440892098501E-16,-22.3,2.));
#916 = VERTEX_POINT('',#917);
#917 = CARTESIAN_POINT('',(1.7,-24.,2.));
#918 = CIRCLE('',#919,1.7);
#919 = AXIS2_PLACEMENT_3D('',#920,#921,#922);
#920 = CARTESIAN_POINT('',(0.,-24.,2.));
#921 = DIRECTION('',(0.,0.,1.));
#922 = DIRECTION('',(1.,0.,-0.));
#923 = ORIENTED_EDGE('',*,*,#924,.F.);
#924 = EDGE_CURVE('',#916,#914,#925,.T.);
#925 = CIRCLE('',#926,1.7);
#926 = AXIS2_PLACEMENT_3D('',#927,#928,#929);
#927 = CARTESIAN_POINT('',(0.,-24.,2.));
#928 = DIRECTION('',(0.,0.,1.));
#929 = DIRECTION('',(1.,0.,-0.));
#930 = PLANE('',#931);
#931 = AXIS2_PLACEMENT_3D('',#932,#933,#934);
#932 = CARTESIAN_POINT('',(0.,-24.,2.));
#933 = DIRECTION('',(0.,0.,1.));
#934 = DIRECTION('',(1.,0.,-0.));
#935 = ADVANCED_FACE('',(#936),#948,.T.);
#936 = FACE_BOUND('',#937,.T.);
#937 = EDGE_LOOP('',(#938,#945,#946,#947));
#938 = ORIENTED_EDGE('',*,*,#939,.T.);
#939 = EDGE_CURVE('',#85,#68,#940,.T.);
#940 = CIRCLE('',#941,4.);
#941 = AXIS2_PLACEMENT_3D('',#942,#943,#944);
#942 = CARTESIAN_POINT('',(0.,24.,2.));
#943 = DIRECTION('',(-0.,0.,-1.));
#944 = DIRECTION('',(-0.869869880154,-0.49328125,0.));
#945 = ORIENTED_EDGE('',*,*,#67,.F.);
#946 = ORIENTED_EDGE('',*,*,#841,.F.);
#947 = ORIENTED_EDGE('',*,*,#93,.T.);
#948 = CYLINDRICAL_SURFACE('',#949,4.);
#949 = AXIS2_PLACEMENT_3D('',#950,#951,#952);
#950 = CARTESIAN_POINT('',(0.,24.,0.));
#951 = DIRECTION('',(0.,0.,1.));
#952 = DIRECTION('',(1.,0.,-0.));
#953 = ADVANCED_FACE('',(#954,#959),#979,.T.);
#954 = FACE_BOUND('',#955,.T.);
#955 = EDGE_LOOP('',(#956,#957,#958));
#956 = ORIENTED_EDGE('',*,*,#75,.F.);
#957 = ORIENTED_EDGE('',*,*,#939,.F.);
#958 = ORIENTED_EDGE('',*,*,#84,.F.);
#959 = FACE_BOUND('',#960,.T.);
#960 = EDGE_LOOP('',(#961,#972));
#961 = ORIENTED_EDGE('',*,*,#962,.F.);
#962 = EDGE_CURVE('',#963,#965,#967,.T.);
#963 = VERTEX_POINT('',#964);
#964 = CARTESIAN_POINT('',(-4.440892098501E-16,22.3,2.));
#965 = VERTEX_POINT('',#966);
#966 = CARTESIAN_POINT('',(1.7,24.,2.));
#967 = CIRCLE('',#968,1.7);
#968 = AXIS2_PLACEMENT_3D('',#969,#970,#971);
#969 = CARTESIAN_POINT('',(0.,24.,2.));
#970 = DIRECTION('',(0.,0.,1.));
#971 = DIRECTION('',(1.,0.,-0.));
#972 = ORIENTED_EDGE('',*,*,#973,.F.);
#973 = EDGE_CURVE('',#965,#963,#974,.T.);
#974 = CIRCLE('',#975,1.7);
#975 = AXIS2_PLACEMENT_3D('',#976,#977,#978);
#976 = CARTESIAN_POINT('',(0.,24.,2.));
#977 = DIRECTION('',(0.,0.,1.));
#978 = DIRECTION('',(1.,0.,-0.));
#979 = PLANE('',#980);
#980 = AXIS2_PLACEMENT_3D('',#981,#982,#983);
#981 = CARTESIAN_POINT('',(0.,24.,2.));
#982 = DIRECTION('',(0.,0.,1.));
#983 = DIRECTION('',(1.,0.,-0.));
#984 = ADVANCED_FACE('',(#985),#996,.F.);
#985 = FACE_BOUND('',#986,.F.);
#986 = EDGE_LOOP('',(#987,#988,#989,#990));
#987 = ORIENTED_EDGE('',*,*,#375,.F.);
#988 = ORIENTED_EDGE('',*,*,#324,.T.);
#989 = ORIENTED_EDGE('',*,*,#464,.T.);
#990 = ORIENTED_EDGE('',*,*,#991,.T.);
#991 = EDGE_CURVE('',#465,#376,#992,.T.);
#992 = LINE('',#993,#994);
#993 = CARTESIAN_POINT('',(1.5,19.7,6.05));
#994 = VECTOR('',#995,1.);
#995 = DIRECTION('',(1.,-2.22044604925E-16,0.));
#996 = PLANE('',#997);
#997 = AXIS2_PLACEMENT_3D('',#998,#999,#1000);
#998 = CARTESIAN_POINT('',(1.5,19.7,4.44));
#999 = DIRECTION('',(2.22044604925E-16,1.,0.));
#1000 = DIRECTION('',(0.,0.,1.));
#1001 = ADVANCED_FACE('',(#1002),#1013,.F.);
#1002 = FACE_BOUND('',#1003,.F.);
#1003 = EDGE_LOOP('',(#1004,#1005,#1006,#1007));
#1004 = ORIENTED_EDGE('',*,*,#697,.F.);
#1005 = ORIENTED_EDGE('',*,*,#300,.T.);
#1006 = ORIENTED_EDGE('',*,*,#786,.T.);
#1007 = ORIENTED_EDGE('',*,*,#1008,.T.);
#1008 = EDGE_CURVE('',#787,#698,#1009,.T.);
#1009 = LINE('',#1010,#1011);
#1010 = CARTESIAN_POINT('',(16.310700454553,-11.14903810567,6.05));
#1011 = VECTOR('',#1012,1.);
#1012 = DIRECTION('',(-0.5,-0.866025403784,0.));
#1013 = PLANE('',#1014);
#1014 = AXIS2_PLACEMENT_3D('',#1015,#1016,#1017);
#1015 = CARTESIAN_POINT('',(16.310700454553,-11.14903810567,4.44));
#1016 = DIRECTION('',(0.866025403784,-0.5,0.));
#1017 = DIRECTION('',(0.,0.,1.));
#1018 = ADVANCED_FACE('',(#1019),#1030,.F.);
#1019 = FACE_BOUND('',#1020,.F.);
#1020 = EDGE_LOOP('',(#1021,#1022,#1023,#1024));
#1021 = ORIENTED_EDGE('',*,*,#536,.F.);
#1022 = ORIENTED_EDGE('',*,*,#277,.T.);
#1023 = ORIENTED_EDGE('',*,*,#625,.T.);
#1024 = ORIENTED_EDGE('',*,*,#1025,.T.);
#1025 = EDGE_CURVE('',#626,#537,#1026,.T.);
#1026 = LINE('',#1027,#1028);
#1027 = CARTESIAN_POINT('',(-17.81070045455,-8.550961894323,6.05));
#1028 = VECTOR('',#1029,1.);
#1029 = DIRECTION('',(-0.5,0.866025403784,0.));
#1030 = PLANE('',#1031);
#1031 = AXIS2_PLACEMENT_3D('',#1032,#1033,#1034);
#1032 = CARTESIAN_POINT('',(-17.81070045455,-8.550961894323,4.44));
#1033 = DIRECTION('',(-0.866025403784,-0.5,0.));
#1034 = DIRECTION('',(0.,0.,1.));
#1035 = ADVANCED_FACE('',(#1036),#1047,.F.);
#1036 = FACE_BOUND('',#1037,.F.);
#1037 = EDGE_LOOP('',(#1038,#1039,#1045,#1046));
#1038 = ORIENTED_EDGE('',*,*,#332,.F.);
#1039 = ORIENTED_EDGE('',*,*,#1040,.F.);
#1040 = EDGE_CURVE('',#863,#333,#1041,.T.);
#1041 = LINE('',#1042,#1043);
#1042 = CARTESIAN_POINT('',(18.3,-4.482207284879E-15,-1.E-02));
#1043 = VECTOR('',#1044,1.);
#1044 = DIRECTION('',(0.,0.,1.));
#1045 = ORIENTED_EDGE('',*,*,#862,.T.);
#1046 = ORIENTED_EDGE('',*,*,#1040,.T.);
#1047 = CYLINDRICAL_SURFACE('',#1048,18.3);
#1048 = AXIS2_PLACEMENT_3D('',#1049,#1050,#1051);
#1049 = CARTESIAN_POINT('',(0.,0.,-1.E-02));
#1050 = DIRECTION('',(0.,0.,1.));
#1051 = DIRECTION('',(1.,0.,-0.));
#1052 = ADVANCED_FACE('',(#1053),#1069,.T.);
#1053 = FACE_BOUND('',#1054,.T.);
#1054 = EDGE_LOOP('',(#1055,#1056,#1062,#1063));
#1055 = ORIENTED_EDGE('',*,*,#445,.F.);
#1056 = ORIENTED_EDGE('',*,*,#1057,.F.);
#1057 = EDGE_CURVE('',#350,#446,#1058,.T.);
#1058 = LINE('',#1059,#1060);
#1059 = CARTESIAN_POINT('',(1.5,20.25,7.24));
#1060 = VECTOR('',#1061,1.);
#1061 = DIRECTION('',(-1.,2.22044604925E-16,0.));
#1062 = ORIENTED_EDGE('',*,*,#349,.T.);
#1063 = ORIENTED_EDGE('',*,*,#1064,.T.);
#1064 = EDGE_CURVE('',#352,#448,#1065,.T.);
#1065 = LINE('',#1066,#1067);
#1066 = CARTESIAN_POINT('',(1.5,22.8,7.24));
#1067 = VECTOR('',#1068,1.);
#1068 = DIRECTION('',(-1.,2.22044604925E-16,0.));
#1069 = PLANE('',#1070);
#1070 = AXIS2_PLACEMENT_3D('',#1071,#1072,#1073);
#1071 = CARTESIAN_POINT('',(1.5,19.7,7.24));
#1072 = DIRECTION('',(0.,0.,1.));
#1073 = DIRECTION('',(2.22044604925E-16,1.,0.));
#1074 = ADVANCED_FACE('',(#1075),#1086,.T.);
#1075 = FACE_BOUND('',#1076,.T.);
#1076 = EDGE_LOOP('',(#1077,#1078,#1079,#1080));
#1077 = ORIENTED_EDGE('',*,*,#407,.F.);
#1078 = ORIENTED_EDGE('',*,*,#1057,.T.);
#1079 = ORIENTED_EDGE('',*,*,#496,.T.);
#1080 = ORIENTED_EDGE('',*,*,#1081,.F.);
#1081 = EDGE_CURVE('',#400,#489,#1082,.T.);
#1082 = LINE('',#1083,#1084);
#1083 = CARTESIAN_POINT('',(1.5,20.25,7.25));
#1084 = VECTOR('',#1085,1.);
#1085 = DIRECTION('',(-1.,2.22044604925E-16,0.));
#1086 = PLANE('',#1087);
#1087 = AXIS2_PLACEMENT_3D('',#1088,#1089,#1090);
#1088 = CARTESIAN_POINT('',(1.5,20.25,6.05));
#1089 = DIRECTION('',(2.22044604925E-16,1.,0.));
#1090 = DIRECTION('',(0.,0.,1.));
#1091 = ADVANCED_FACE('',(#1092),#1103,.T.);
#1092 = FACE_BOUND('',#1093,.T.);
#1093 = EDGE_LOOP('',(#1094,#1100,#1101,#1102));
#1094 = ORIENTED_EDGE('',*,*,#1095,.F.);
#1095 = EDGE_CURVE('',#392,#481,#1096,.T.);
#1096 = LINE('',#1097,#1098);
#1097 = CARTESIAN_POINT('',(1.5,19.25,7.25));
#1098 = VECTOR('',#1099,1.);
#1099 = DIRECTION('',(-1.,2.22044604925E-16,0.));
#1100 = ORIENTED_EDGE('',*,*,#399,.T.);
#1101 = ORIENTED_EDGE('',*,*,#1081,.T.);
#1102 = ORIENTED_EDGE('',*,*,#488,.F.);
#1103 = PLANE('',#1104);
#1104 = AXIS2_PLACEMENT_3D('',#1105,#1106,#1107);
#1105 = CARTESIAN_POINT('',(1.5,19.25,7.25));
#1106 = DIRECTION('',(0.,0.,1.));
#1107 = DIRECTION('',(2.22044604925E-16,1.,0.));
#1108 = ADVANCED_FACE('',(#1109),#1120,.F.);
#1109 = FACE_BOUND('',#1110,.F.);
#1110 = EDGE_LOOP('',(#1111,#1112,#1118,#1119));
#1111 = ORIENTED_EDGE('',*,*,#391,.F.);
#1112 = ORIENTED_EDGE('',*,*,#1113,.T.);
#1113 = EDGE_CURVE('',#384,#473,#1114,.T.);
#1114 = LINE('',#1115,#1116);
#1115 = CARTESIAN_POINT('',(1.5,19.25,6.05));
#1116 = VECTOR('',#1117,1.);
#1117 = DIRECTION('',(-1.,2.22044604925E-16,0.));
#1118 = ORIENTED_EDGE('',*,*,#480,.T.);
#1119 = ORIENTED_EDGE('',*,*,#1095,.F.);
#1120 = PLANE('',#1121);
#1121 = AXIS2_PLACEMENT_3D('',#1122,#1123,#1124);
#1122 = CARTESIAN_POINT('',(1.5,19.25,6.05));
#1123 = DIRECTION('',(2.22044604925E-16,1.,0.));
#1124 = DIRECTION('',(0.,0.,1.));
#1125 = ADVANCED_FACE('',(#1126),#1132,.F.);
#1126 = FACE_BOUND('',#1127,.F.);
#1127 = EDGE_LOOP('',(#1128,#1129,#1130,#1131));
#1128 = ORIENTED_EDGE('',*,*,#472,.F.);
#1129 = ORIENTED_EDGE('',*,*,#1113,.F.);
#1130 = ORIENTED_EDGE('',*,*,#383,.T.);
#1131 = ORIENTED_EDGE('',*,*,#991,.F.);
#1132 = PLANE('',#1133);
#1133 = AXIS2_PLACEMENT_3D('',#1134,#1135,#1136);
#1134 = CARTESIAN_POINT('',(1.5,19.25,6.05));
#1135 = DIRECTION('',(0.,0.,1.));
#1136 = DIRECTION('',(2.22044604925E-16,1.,0.));
#1137 = ADVANCED_FACE('',(#1138),#1144,.T.);
#1138 = FACE_BOUND('',#1139,.T.);
#1139 = EDGE_LOOP('',(#1140,#1141,#1142,#1143));
#1140 = ORIENTED_EDGE('',*,*,#359,.F.);
#1141 = ORIENTED_EDGE('',*,*,#431,.T.);
#1142 = ORIENTED_EDGE('',*,*,#455,.T.);
#1143 = ORIENTED_EDGE('',*,*,#1064,.F.);
#1144 = PLANE('',#1145);
#1145 = AXIS2_PLACEMENT_3D('',#1146,#1147,#1148);
#1146 = CARTESIAN_POINT('',(1.5,22.8,4.44));
#1147 = DIRECTION('',(2.22044604925E-16,1.,0.));
#1148 = DIRECTION('',(0.,0.,1.));
#1149 = ADVANCED_FACE('',(#1150),#1166,.T.);
#1150 = FACE_BOUND('',#1151,.T.);
#1151 = EDGE_LOOP('',(#1152,#1153,#1159,#1160));
#1152 = ORIENTED_EDGE('',*,*,#606,.F.);
#1153 = ORIENTED_EDGE('',*,*,#1154,.F.);
#1154 = EDGE_CURVE('',#511,#607,#1155,.T.);
#1155 = LINE('',#1156,#1157);
#1156 = CARTESIAN_POINT('',(-18.28701442663,-8.825961894323,7.24));
#1157 = VECTOR('',#1158,1.);
#1158 = DIRECTION('',(0.5,-0.866025403784,0.));
#1159 = ORIENTED_EDGE('',*,*,#510,.T.);
#1160 = ORIENTED_EDGE('',*,*,#1161,.T.);
#1161 = EDGE_CURVE('',#513,#609,#1162,.T.);
#1162 = LINE('',#1163,#1164);
#1163 = CARTESIAN_POINT('',(-20.49537920628,-10.10096189432,7.24));
#1164 = VECTOR('',#1165,1.);
#1165 = DIRECTION('',(0.5,-0.866025403784,0.));
#1166 = PLANE('',#1167);
#1167 = AXIS2_PLACEMENT_3D('',#1168,#1169,#1170);
#1168 = CARTESIAN_POINT('',(-17.81070045455,-8.550961894323,7.24));
#1169 = DIRECTION('',(0.,0.,1.));
#1170 = DIRECTION('',(-0.866025403784,-0.5,0.));
#1171 = ADVANCED_FACE('',(#1172),#1183,.T.);
#1172 = FACE_BOUND('',#1173,.T.);
#1173 = EDGE_LOOP('',(#1174,#1175,#1176,#1177));
#1174 = ORIENTED_EDGE('',*,*,#568,.F.);
#1175 = ORIENTED_EDGE('',*,*,#1154,.T.);
#1176 = ORIENTED_EDGE('',*,*,#657,.T.);
#1177 = ORIENTED_EDGE('',*,*,#1178,.F.);
#1178 = EDGE_CURVE('',#561,#650,#1179,.T.);
#1179 = LINE('',#1180,#1181);
#1180 = CARTESIAN_POINT('',(-18.28701442663,-8.825961894323,7.25));
#1181 = VECTOR('',#1182,1.);
#1182 = DIRECTION('',(0.5,-0.866025403784,0.));
#1183 = PLANE('',#1184);
#1184 = AXIS2_PLACEMENT_3D('',#1185,#1186,#1187);
#1185 = CARTESIAN_POINT('',(-18.28701442663,-8.825961894323,6.05));
#1186 = DIRECTION('',(-0.866025403784,-0.5,0.));
#1187 = DIRECTION('',(0.,0.,1.));
#1188 = ADVANCED_FACE('',(#1189),#1200,.T.);
#1189 = FACE_BOUND('',#1190,.T.);
#1190 = EDGE_LOOP('',(#1191,#1197,#1198,#1199));
#1191 = ORIENTED_EDGE('',*,*,#1192,.F.);
#1192 = EDGE_CURVE('',#553,#642,#1193,.T.);
#1193 = LINE('',#1194,#1195);
#1194 = CARTESIAN_POINT('',(-17.42098902285,-8.325961894323,7.25));
#1195 = VECTOR('',#1196,1.);
#1196 = DIRECTION('',(0.5,-0.866025403784,0.));
#1197 = ORIENTED_EDGE('',*,*,#560,.T.);
#1198 = ORIENTED_EDGE('',*,*,#1178,.T.);
#1199 = ORIENTED_EDGE('',*,*,#649,.F.);
#1200 = PLANE('',#1201);
#1201 = AXIS2_PLACEMENT_3D('',#1202,#1203,#1204);
#1202 = CARTESIAN_POINT('',(-17.42098902285,-8.325961894323,7.25));
#1203 = DIRECTION('',(0.,0.,1.));
#1204 = DIRECTION('',(-0.866025403784,-0.5,0.));
#1205 = ADVANCED_FACE('',(#1206),#1217,.F.);
#1206 = FACE_BOUND('',#1207,.F.);
#1207 = EDGE_LOOP('',(#1208,#1209,#1215,#1216));
#1208 = ORIENTED_EDGE('',*,*,#552,.F.);
#1209 = ORIENTED_EDGE('',*,*,#1210,.T.);
#1210 = EDGE_CURVE('',#545,#634,#1211,.T.);
#1211 = LINE('',#1212,#1213);
#1212 = CARTESIAN_POINT('',(-17.42098902285,-8.325961894323,6.05));
#1213 = VECTOR('',#1214,1.);
#1214 = DIRECTION('',(0.5,-0.866025403784,0.));
#1215 = ORIENTED_EDGE('',*,*,#641,.T.);
#1216 = ORIENTED_EDGE('',*,*,#1192,.F.);
#1217 = PLANE('',#1218);
#1218 = AXIS2_PLACEMENT_3D('',#1219,#1220,#1221);
#1219 = CARTESIAN_POINT('',(-17.42098902285,-8.325961894323,6.05));
#1220 = DIRECTION('',(-0.866025403784,-0.5,0.));
#1221 = DIRECTION('',(0.,0.,1.));
#1222 = ADVANCED_FACE('',(#1223),#1229,.F.);
#1223 = FACE_BOUND('',#1224,.F.);
#1224 = EDGE_LOOP('',(#1225,#1226,#1227,#1228));
#1225 = ORIENTED_EDGE('',*,*,#633,.F.);
#1226 = ORIENTED_EDGE('',*,*,#1210,.F.);
#1227 = ORIENTED_EDGE('',*,*,#544,.T.);
#1228 = ORIENTED_EDGE('',*,*,#1025,.F.);
#1229 = PLANE('',#1230);
#1230 = AXIS2_PLACEMENT_3D('',#1231,#1232,#1233);
#1231 = CARTESIAN_POINT('',(-17.42098902285,-8.325961894323,6.05));
#1232 = DIRECTION('',(0.,0.,1.));
#1233 = DIRECTION('',(-0.866025403784,-0.5,0.));
#1234 = ADVANCED_FACE('',(#1235),#1241,.T.);
#1235 = FACE_BOUND('',#1236,.T.);
#1236 = EDGE_LOOP('',(#1237,#1238,#1239,#1240));
#1237 = ORIENTED_EDGE('',*,*,#520,.F.);
#1238 = ORIENTED_EDGE('',*,*,#592,.T.);
#1239 = ORIENTED_EDGE('',*,*,#616,.T.);
#1240 = ORIENTED_EDGE('',*,*,#1161,.F.);
#1241 = PLANE('',#1242);
#1242 = AXIS2_PLACEMENT_3D('',#1243,#1244,#1245);
#1243 = CARTESIAN_POINT('',(-20.49537920628,-10.10096189432,4.44));
#1244 = DIRECTION('',(-0.866025403784,-0.5,0.));
#1245 = DIRECTION('',(0.,0.,1.));
#1246 = ADVANCED_FACE('',(#1247),#1263,.T.);
#1247 = FACE_BOUND('',#1248,.T.);
#1248 = EDGE_LOOP('',(#1249,#1250,#1256,#1257));
#1249 = ORIENTED_EDGE('',*,*,#767,.F.);
#1250 = ORIENTED_EDGE('',*,*,#1251,.F.);
#1251 = EDGE_CURVE('',#672,#768,#1252,.T.);
#1252 = LINE('',#1253,#1254);
#1253 = CARTESIAN_POINT('',(16.787014426635,-11.42403810567,7.24));
#1254 = VECTOR('',#1255,1.);
#1255 = DIRECTION('',(0.5,0.866025403784,0.));
#1256 = ORIENTED_EDGE('',*,*,#671,.T.);
#1257 = ORIENTED_EDGE('',*,*,#1258,.T.);
#1258 = EDGE_CURVE('',#674,#770,#1259,.T.);
#1259 = LINE('',#1260,#1261);
#1260 = CARTESIAN_POINT('',(18.995379206285,-12.69903810567,7.24));
#1261 = VECTOR('',#1262,1.);
#1262 = DIRECTION('',(0.5,0.866025403784,0.));
#1263 = PLANE('',#1264);
#1264 = AXIS2_PLACEMENT_3D('',#1265,#1266,#1267);
#1265 = CARTESIAN_POINT('',(16.310700454553,-11.14903810567,7.24));
#1266 = DIRECTION('',(0.,0.,1.));
#1267 = DIRECTION('',(0.866025403784,-0.5,0.));
#1268 = ADVANCED_FACE('',(#1269),#1280,.T.);
#1269 = FACE_BOUND('',#1270,.T.);
#1270 = EDGE_LOOP('',(#1271,#1272,#1273,#1274));
#1271 = ORIENTED_EDGE('',*,*,#729,.F.);
#1272 = ORIENTED_EDGE('',*,*,#1251,.T.);
#1273 = ORIENTED_EDGE('',*,*,#818,.T.);
#1274 = ORIENTED_EDGE('',*,*,#1275,.F.);
#1275 = EDGE_CURVE('',#722,#811,#1276,.T.);
#1276 = LINE('',#1277,#1278);
#1277 = CARTESIAN_POINT('',(16.787014426635,-11.42403810567,7.25));
#1278 = VECTOR('',#1279,1.);
#1279 = DIRECTION('',(0.5,0.866025403784,0.));
#1280 = PLANE('',#1281);
#1281 = AXIS2_PLACEMENT_3D('',#1282,#1283,#1284);
#1282 = CARTESIAN_POINT('',(16.787014426635,-11.42403810567,6.05));
#1283 = DIRECTION('',(0.866025403784,-0.5,0.));
#1284 = DIRECTION('',(0.,0.,1.));
#1285 = ADVANCED_FACE('',(#1286),#1297,.T.);
#1286 = FACE_BOUND('',#1287,.T.);
#1287 = EDGE_LOOP('',(#1288,#1294,#1295,#1296));
#1288 = ORIENTED_EDGE('',*,*,#1289,.F.);
#1289 = EDGE_CURVE('',#714,#803,#1290,.T.);
#1290 = LINE('',#1291,#1292);
#1291 = CARTESIAN_POINT('',(15.92098902285,-10.92403810567,7.25));
#1292 = VECTOR('',#1293,1.);
#1293 = DIRECTION('',(0.5,0.866025403784,0.));
#1294 = ORIENTED_EDGE('',*,*,#721,.T.);
#1295 = ORIENTED_EDGE('',*,*,#1275,.T.);
#1296 = ORIENTED_EDGE('',*,*,#810,.F.);
#1297 = PLANE('',#1298);
#1298 = AXIS2_PLACEMENT_3D('',#1299,#1300,#1301);
#1299 = CARTESIAN_POINT('',(15.92098902285,-10.92403810567,7.25));
#1300 = DIRECTION('',(0.,0.,1.));
#1301 = DIRECTION('',(0.866025403784,-0.5,0.));
#1302 = ADVANCED_FACE('',(#1303),#1314,.F.);
#1303 = FACE_BOUND('',#1304,.F.);
#1304 = EDGE_LOOP('',(#1305,#1306,#1312,#1313));
#1305 = ORIENTED_EDGE('',*,*,#713,.F.);
#1306 = ORIENTED_EDGE('',*,*,#1307,.T.);
#1307 = EDGE_CURVE('',#706,#795,#1308,.T.);
#1308 = LINE('',#1309,#1310);
#1309 = CARTESIAN_POINT('',(15.92098902285,-10.92403810567,6.05));
#1310 = VECTOR('',#1311,1.);
#1311 = DIRECTION('',(0.5,0.866025403784,0.));
#1312 = ORIENTED_EDGE('',*,*,#802,.T.);
#1313 = ORIENTED_EDGE('',*,*,#1289,.F.);
#1314 = PLANE('',#1315);
#1315 = AXIS2_PLACEMENT_3D('',#1316,#1317,#1318);
#1316 = CARTESIAN_POINT('',(15.92098902285,-10.92403810567,6.05));
#1317 = DIRECTION('',(0.866025403784,-0.5,0.));
#1318 = DIRECTION('',(0.,0.,1.));
#1319 = ADVANCED_FACE('',(#1320),#1326,.F.);
#1320 = FACE_BOUND('',#1321,.F.);
#1321 = EDGE_LOOP('',(#1322,#1323,#1324,#1325));
#1322 = ORIENTED_EDGE('',*,*,#794,.F.);
#1323 = ORIENTED_EDGE('',*,*,#1307,.F.);
#1324 = ORIENTED_EDGE('',*,*,#705,.T.);
#1325 = ORIENTED_EDGE('',*,*,#1008,.F.);
#1326 = PLANE('',#1327);
#1327 = AXIS2_PLACEMENT_3D('',#1328,#1329,#1330);
#1328 = CARTESIAN_POINT('',(15.92098902285,-10.92403810567,6.05));
#1329 = DIRECTION('',(0.,0.,1.));
#1330 = DIRECTION('',(0.866025403784,-0.5,0.));
#1331 = ADVANCED_FACE('',(#1332),#1338,.T.);
#1332 = FACE_BOUND('',#1333,.T.);
#1333 = EDGE_LOOP('',(#1334,#1335,#1336,#1337));
#1334 = ORIENTED_EDGE('',*,*,#681,.F.);
#1335 = ORIENTED_EDGE('',*,*,#753,.T.);
#1336 = ORIENTED_EDGE('',*,*,#777,.T.);
#1337 = ORIENTED_EDGE('',*,*,#1258,.F.);
#1338 = PLANE('',#1339);
#1339 = AXIS2_PLACEMENT_3D('',#1340,#1341,#1342);
#1340 = CARTESIAN_POINT('',(18.995379206285,-12.69903810567,4.44));
#1341 = DIRECTION('',(0.866025403784,-0.5,0.));
#1342 = DIRECTION('',(0.,0.,1.));
#1343 = ADVANCED_FACE('',(#1344),#1356,.F.);
#1344 = FACE_BOUND('',#1345,.F.);
#1345 = EDGE_LOOP('',(#1346,#1347,#1353,#1354,#1355));
#1346 = ORIENTED_EDGE('',*,*,#924,.F.);
#1347 = ORIENTED_EDGE('',*,*,#1348,.F.);
#1348 = EDGE_CURVE('',#852,#916,#1349,.T.);
#1349 = LINE('',#1350,#1351);
#1350 = CARTESIAN_POINT('',(1.7,-24.,-1.));
#1351 = VECTOR('',#1352,1.);
#1352 = DIRECTION('',(0.,0.,1.));
#1353 = ORIENTED_EDGE('',*,*,#851,.T.);
#1354 = ORIENTED_EDGE('',*,*,#1348,.T.);
#1355 = ORIENTED_EDGE('',*,*,#913,.F.);
#1356 = CYLINDRICAL_SURFACE('',#1357,1.7);
#1357 = AXIS2_PLACEMENT_3D('',#1358,#1359,#1360);
#1358 = CARTESIAN_POINT('',(0.,-24.,-1.));
#1359 = DIRECTION('',(0.,0.,1.));
#1360 = DIRECTION('',(1.,0.,-0.));
#1361 = ADVANCED_FACE('',(#1362),#1374,.F.);
#1362 = FACE_BOUND('',#1363,.F.);
#1363 = EDGE_LOOP('',(#1364,#1365,#1371,#1372,#1373));
#1364 = ORIENTED_EDGE('',*,*,#973,.F.);
#1365 = ORIENTED_EDGE('',*,*,#1366,.F.);
#1366 = EDGE_CURVE('',#874,#965,#1367,.T.);
#1367 = LINE('',#1368,#1369);
#1368 = CARTESIAN_POINT('',(1.7,24.,-1.));
#1369 = VECTOR('',#1370,1.);
#1370 = DIRECTION('',(0.,0.,1.));
#1371 = ORIENTED_EDGE('',*,*,#873,.T.);
#1372 = ORIENTED_EDGE('',*,*,#1366,.T.);
#1373 = ORIENTED_EDGE('',*,*,#962,.F.);
#1374 = CYLINDRICAL_SURFACE('',#1375,1.7);
#1375 = AXIS2_PLACEMENT_3D('',#1376,#1377,#1378);
#1376 = CARTESIAN_POINT('',(0.,24.,-1.));
#1377 = DIRECTION('',(0.,0.,1.));
#1378 = DIRECTION('',(1.,0.,-0.));
#1379 = ( GEOMETRIC_REPRESENTATION_CONTEXT(3) 
GLOBAL_UNCERTAINTY_ASSIGNED_CONTEXT((#1383)) 
GLOBAL_UNIT_ASSIGNED_CONTEXT((#1380,#1381,#1382)) REPRESENTATION_CONTEXT
('Context #1','3D Context with UNIT and UNCERTAINTY') );
#1380 = ( LENGTH_UNIT() NAMED_UNIT(*) SI_UNIT(.MILLI.,.METRE.) );
#1381 = ( NAMED_UNIT(*) PLANE_ANGLE_UNIT() SI_UNIT($,.RADIAN.) );
#1382 = ( NAMED_UNIT(*) SI_UNIT($,.STERADIAN.) SOLID_ANGLE_UNIT() );
#1383 = UNCERTAINTY_MEASURE_WITH_UNIT(LENGTH_MEASURE(5.E-07),#1380,
  'distance_accuracy_value','confusion accuracy');
#1384 = CONTEXT_DEPENDENT_SHAPE_REPRESENTATION(#1385,#1387);
#1385 = ( REPRESENTATION_RELATIONSHIP('','',#32,#10) 
REPRESENTATION_RELATIONSHIP_WITH_TRANSFORMATION(#1386) 
SHAPE_REPRESENTATION_RELATIONSHIP() );
#1386 = ITEM_DEFINED_TRANSFORMATION('','',#11,#15);
#1387 = PRODUCT_DEFINITION_SHAPE('Placement','Placement of an item',
  #1388);
#1388 = NEXT_ASSEMBLY_USAGE_OCCURRENCE('6','=>[0:1:1:2]','',#5,#27,$);
#1389 = PRODUCT_RELATED_PRODUCT_CATEGORY('part',$,(#29));
ENDSEC;
END-ISO-10303-21;
