ISO-10303-21;
HEADER;
FILE_DESCRIPTION(('Open CASCADE Model'),'2;1');
FILE_NAME('Open CASCADE Shape Model','2026-09-04T11:00:42',('Author'),(
    'Open CASCADE'),'Open CASCADE STEP processor 7.9','build123d',
  'Unknown');
FILE_SCHEMA(('AUTOMOTIVE_DESIGN { 1 0 10303 214 1 1 1 1 }'));
ENDSEC;
DATA;
#1 = APPLICATION_PROTOCOL_DEFINITION('international standard',
  'automotive_design',2000,#2);
#2 = APPLICATION_CONTEXT(
  'core data for automotive mechanical design processes');
#3 = SHAPE_DEFINITION_REPRESENTATION(#4,#10);
#4 = PRODUCT_DEFINITION_SHAPE('','',#5);
#5 = PRODUCT_DEFINITION('design','',#6,#9);
#6 = PRODUCT_DEFINITION_FORMATION('','',#7);
#7 = PRODUCT('COMPOUND','COMPOUND','',(#8));
#8 = PRODUCT_CONTEXT('',#2,'mechanical');
#9 = PRODUCT_DEFINITION_CONTEXT('part definition',#2,'design');
#10 = ADVANCED_BREP_SHAPE_REPRESENTATION('',(#11,#15),#1340);
#11 = AXIS2_PLACEMENT_3D('',#12,#13,#14);
#12 = CARTESIAN_POINT('',(0.,0.,0.));
#13 = DIRECTION('',(0.,0.,1.));
#14 = DIRECTION('',(1.,0.,-0.));
#15 = MANIFOLD_SOLID_BREP('',#16);
#16 = CLOSED_SHELL('',(#17,#59,#335,#359,#628,#645,#657,#682,#707,#732,
    #757,#782,#799,#816,#833,#858,#883,#908,#933,#958,#980,#997,#1014,
    #1031,#1048,#1065,#1082,#1094,#1119,#1136,#1153,#1170,#1187,#1204,
    #1221,#1238,#1255,#1272,#1289,#1306,#1323));
#17 = ADVANCED_FACE('',(#18),#54,.T.);
#18 = FACE_BOUND('',#19,.T.);
#19 = EDGE_LOOP('',(#20,#31,#39,#48));
#20 = ORIENTED_EDGE('',*,*,#21,.F.);
#21 = EDGE_CURVE('',#22,#24,#26,.T.);
#22 = VERTEX_POINT('',#23);
#23 = CARTESIAN_POINT('',(59.899916527488,16.,5.));
#24 = VERTEX_POINT('',#25);
#25 = CARTESIAN_POINT('',(59.899916527488,-16.,5.));
#26 = CIRCLE('',#27,62.);
#27 = AXIS2_PLACEMENT_3D('',#28,#29,#30);
#28 = CARTESIAN_POINT('',(0.,0.,5.));
#29 = DIRECTION('',(0.,0.,1.));
#30 = DIRECTION('',(1.,0.,-0.));
#31 = ORIENTED_EDGE('',*,*,#32,.F.);
#32 = EDGE_CURVE('',#33,#22,#35,.T.);
#33 = VERTEX_POINT('',#34);
#34 = CARTESIAN_POINT('',(59.899916527488,16.,0.));
#35 = LINE('',#36,#37);
#36 = CARTESIAN_POINT('',(59.899916527488,16.,0.));
#37 = VECTOR('',#38,1.);
#38 = DIRECTION('',(0.,0.,1.));
#39 = ORIENTED_EDGE('',*,*,#40,.T.);
#40 = EDGE_CURVE('',#33,#41,#43,.T.);
#41 = VERTEX_POINT('',#42);
#42 = CARTESIAN_POINT('',(59.899916527488,-16.,0.));
#43 = CIRCLE('',#44,62.);
#44 = AXIS2_PLACEMENT_3D('',#45,#46,#47);
#45 = CARTESIAN_POINT('',(0.,0.,0.));
#46 = DIRECTION('',(0.,0.,1.));
#47 = DIRECTION('',(1.,0.,-0.));
#48 = ORIENTED_EDGE('',*,*,#49,.T.);
#49 = EDGE_CURVE('',#41,#24,#50,.T.);
#50 = LINE('',#51,#52);
#51 = CARTESIAN_POINT('',(59.899916527488,-16.,0.));
#52 = VECTOR('',#53,1.);
#53 = DIRECTION('',(0.,0.,1.));
#54 = CYLINDRICAL_SURFACE('',#55,62.);
#55 = AXIS2_PLACEMENT_3D('',#56,#57,#58);
#56 = CARTESIAN_POINT('',(0.,0.,0.));
#57 = DIRECTION('',(0.,0.,1.));
#58 = DIRECTION('',(1.,0.,-0.));
#59 = ADVANCED_FACE('',(#60,#85,#96,#107,#118,#129,#140,#151,#162,#173,
    #184,#195,#206,#217,#228,#297,#308,#319),#330,.T.);
#60 = FACE_BOUND('',#61,.T.);
#61 = EDGE_LOOP('',(#62,#70,#71,#79));
#62 = ORIENTED_EDGE('',*,*,#63,.F.);
#63 = EDGE_CURVE('',#22,#64,#66,.T.);
#64 = VERTEX_POINT('',#65);
#65 = CARTESIAN_POINT('',(35.,16.,5.));
#66 = LINE('',#67,#68);
#67 = CARTESIAN_POINT('',(17.5,16.,5.));
#68 = VECTOR('',#69,1.);
#69 = DIRECTION('',(-1.,0.,0.));
#70 = ORIENTED_EDGE('',*,*,#21,.T.);
#71 = ORIENTED_EDGE('',*,*,#72,.T.);
#72 = EDGE_CURVE('',#24,#73,#75,.T.);
#73 = VERTEX_POINT('',#74);
#74 = CARTESIAN_POINT('',(35.,-16.,5.));
#75 = LINE('',#76,#77);
#76 = CARTESIAN_POINT('',(17.5,-16.,5.));
#77 = VECTOR('',#78,1.);
#78 = DIRECTION('',(-1.,0.,0.));
#79 = ORIENTED_EDGE('',*,*,#80,.T.);
#80 = EDGE_CURVE('',#73,#64,#81,.T.);
#81 = LINE('',#82,#83);
#82 = CARTESIAN_POINT('',(35.,-8.,5.));
#83 = VECTOR('',#84,1.);
#84 = DIRECTION('',(0.,1.,0.));
#85 = FACE_BOUND('',#86,.T.);
#86 = EDGE_LOOP('',(#87));
#87 = ORIENTED_EDGE('',*,*,#88,.F.);
#88 = EDGE_CURVE('',#89,#89,#91,.T.);
#89 = VERTEX_POINT('',#90);
#90 = CARTESIAN_POINT('',(-22.3,-30.,5.));
#91 = CIRCLE('',#92,1.7);
#92 = AXIS2_PLACEMENT_3D('',#93,#94,#95);
#93 = CARTESIAN_POINT('',(-24.,-30.,5.));
#94 = DIRECTION('',(0.,0.,1.));
#95 = DIRECTION('',(1.,0.,-0.));
#96 = FACE_BOUND('',#97,.T.);
#97 = EDGE_LOOP('',(#98));
#98 = ORIENTED_EDGE('',*,*,#99,.F.);
#99 = EDGE_CURVE('',#100,#100,#102,.T.);
#100 = VERTEX_POINT('',#101);
#101 = CARTESIAN_POINT('',(-23.11721891721,-49.5750359509,5.));
#102 = CIRCLE('',#103,1.7);
#103 = AXIS2_PLACEMENT_3D('',#104,#105,#106);
#104 = CARTESIAN_POINT('',(-22.39876787225,-48.03431271294,5.));
#105 = DIRECTION('',(0.,0.,1.));
#106 = DIRECTION('',(-0.422618261741,-0.906307787037,0.));
#107 = FACE_BOUND('',#108,.T.);
#108 = EDGE_LOOP('',(#109));
#109 = ORIENTED_EDGE('',*,*,#110,.F.);
#110 = EDGE_CURVE('',#111,#111,#113,.T.);
#111 = VERTEX_POINT('',#112);
#112 = CARTESIAN_POINT('',(-25.14680055561,-0.220049576739,5.));
#113 = CIRCLE('',#114,1.1);
#114 = AXIS2_PLACEMENT_3D('',#115,#116,#117);
#115 = CARTESIAN_POINT('',(-24.17555820346,-0.736468295803,5.));
#116 = DIRECTION('',(0.,0.,1.));
#117 = DIRECTION('',(-0.882947592859,0.469471562786,0.));
#118 = FACE_BOUND('',#119,.T.);
#119 = EDGE_LOOP('',(#120));
#120 = ORIENTED_EDGE('',*,*,#121,.F.);
#121 = EDGE_CURVE('',#122,#122,#124,.T.);
#122 = VERTEX_POINT('',#123);
#123 = CARTESIAN_POINT('',(25.7,-30.,5.));
#124 = CIRCLE('',#125,1.7);
#125 = AXIS2_PLACEMENT_3D('',#126,#127,#128);
#126 = CARTESIAN_POINT('',(24.,-30.,5.));
#127 = DIRECTION('',(0.,0.,1.));
#128 = DIRECTION('',(1.,0.,-0.));
#129 = FACE_BOUND('',#130,.T.);
#130 = EDGE_LOOP('',(#131));
#131 = ORIENTED_EDGE('',*,*,#132,.F.);
#132 = EDGE_CURVE('',#133,#133,#135,.T.);
#133 = VERTEX_POINT('',#134);
#134 = CARTESIAN_POINT('',(48.297233329383,-25.68009448438,5.));
#135 = CIRCLE('',#136,1.7);
#136 = AXIS2_PLACEMENT_3D('',#137,#138,#139);
#137 = CARTESIAN_POINT('',(46.796222421523,-24.88199282765,5.));
#138 = DIRECTION('',(0.,0.,1.));
#139 = DIRECTION('',(0.882947592859,-0.469471562786,0.));
#140 = FACE_BOUND('',#141,.T.);
#141 = EDGE_LOOP('',(#142));
#142 = ORIENTED_EDGE('',*,*,#143,.F.);
#143 = EDGE_CURVE('',#144,#144,#146,.T.);
#144 = VERTEX_POINT('',#145);
#145 = CARTESIAN_POINT('',(39.7,-18.5,5.));
#146 = CIRCLE('',#147,1.7);
#147 = AXIS2_PLACEMENT_3D('',#148,#149,#150);
#148 = CARTESIAN_POINT('',(38.,-18.5,5.));
#149 = DIRECTION('',(0.,0.,1.));
#150 = DIRECTION('',(1.,0.,-0.));
#151 = FACE_BOUND('',#152,.T.);
#152 = EDGE_LOOP('',(#153));
#153 = ORIENTED_EDGE('',*,*,#154,.F.);
#154 = EDGE_CURVE('',#155,#155,#157,.T.);
#155 = VERTEX_POINT('',#156);
#156 = CARTESIAN_POINT('',(42.8,-17.,5.));
#157 = CIRCLE('',#158,0.8);
#158 = AXIS2_PLACEMENT_3D('',#159,#160,#161);
#159 = CARTESIAN_POINT('',(42.,-17.,5.));
#160 = DIRECTION('',(0.,0.,1.));
#161 = DIRECTION('',(1.,0.,-0.));
#162 = FACE_BOUND('',#163,.T.);
#163 = EDGE_LOOP('',(#164));
#164 = ORIENTED_EDGE('',*,*,#165,.F.);
#165 = EDGE_CURVE('',#166,#166,#168,.T.);
#166 = VERTEX_POINT('',#167);
#167 = CARTESIAN_POINT('',(49.8,-17.,5.));
#168 = CIRCLE('',#169,0.8);
#169 = AXIS2_PLACEMENT_3D('',#170,#171,#172);
#170 = CARTESIAN_POINT('',(49.,-17.,5.));
#171 = DIRECTION('',(0.,0.,1.));
#172 = DIRECTION('',(1.,0.,-0.));
#173 = FACE_BOUND('',#174,.T.);
#174 = EDGE_LOOP('',(#175));
#175 = ORIENTED_EDGE('',*,*,#176,.F.);
#176 = EDGE_CURVE('',#177,#177,#179,.T.);
#177 = VERTEX_POINT('',#178);
#178 = CARTESIAN_POINT('',(-46.33754278422,11.047267930122,5.));
#179 = CIRCLE('',#180,1.1);
#180 = AXIS2_PLACEMENT_3D('',#181,#182,#183);
#181 = CARTESIAN_POINT('',(-45.36630043208,10.530849211058,5.));
#182 = DIRECTION('',(0.,0.,1.));
#183 = DIRECTION('',(-0.882947592859,0.469471562786,0.));
#184 = FACE_BOUND('',#185,.T.);
#185 = EDGE_LOOP('',(#186));
#186 = ORIENTED_EDGE('',*,*,#187,.F.);
#187 = EDGE_CURVE('',#188,#188,#190,.T.);
#188 = VERTEX_POINT('',#189);
#189 = CARTESIAN_POINT('',(-35.07022527736,32.238010158737,5.));
#190 = CIRCLE('',#191,1.1);
#191 = AXIS2_PLACEMENT_3D('',#192,#193,#194);
#192 = CARTESIAN_POINT('',(-34.09898292522,31.721591439672,5.));
#193 = DIRECTION('',(0.,0.,1.));
#194 = DIRECTION('',(-0.882947592859,0.469471562786,0.));
#195 = FACE_BOUND('',#196,.T.);
#196 = EDGE_LOOP('',(#197));
#197 = ORIENTED_EDGE('',*,*,#198,.F.);
#198 = EDGE_CURVE('',#199,#199,#201,.T.);
#199 = VERTEX_POINT('',#200);
#200 = CARTESIAN_POINT('',(-14.,11.4,5.));
#201 = CIRCLE('',#202,1.7);
#202 = AXIS2_PLACEMENT_3D('',#203,#204,#205);
#203 = CARTESIAN_POINT('',(-14.,9.7,5.));
#204 = DIRECTION('',(0.,0.,1.));
#205 = DIRECTION('',(2.22044604925E-16,1.,-0.));
#206 = FACE_BOUND('',#207,.T.);
#207 = EDGE_LOOP('',(#208));
#208 = ORIENTED_EDGE('',*,*,#209,.F.);
#209 = EDGE_CURVE('',#210,#210,#212,.T.);
#210 = VERTEX_POINT('',#211);
#211 = CARTESIAN_POINT('',(-13.87948304875,20.970692651875,5.));
#212 = CIRCLE('',#213,1.1);
#213 = AXIS2_PLACEMENT_3D('',#214,#215,#216);
#214 = CARTESIAN_POINT('',(-12.9082406966,20.454273932811,5.));
#215 = DIRECTION('',(0.,0.,1.));
#216 = DIRECTION('',(-0.882947592859,0.469471562786,0.));
#217 = FACE_BOUND('',#218,.T.);
#218 = EDGE_LOOP('',(#219));
#219 = ORIENTED_EDGE('',*,*,#220,.F.);
#220 = EDGE_CURVE('',#221,#221,#223,.T.);
#221 = VERTEX_POINT('',#222);
#222 = CARTESIAN_POINT('',(-31.3746310684,44.807616822608,5.));
#223 = CIRCLE('',#224,1.7);
#224 = AXIS2_PLACEMENT_3D('',#225,#226,#227);
#225 = CARTESIAN_POINT('',(-30.3995511266,43.415058347317,5.));
#226 = DIRECTION('',(0.,0.,1.));
#227 = DIRECTION('',(-0.573576436351,0.819152044289,0.));
#228 = FACE_BOUND('',#229,.T.);
#229 = EDGE_LOOP('',(#230,#241,#249,#258,#266,#274,#282,#291));
#230 = ORIENTED_EDGE('',*,*,#231,.F.);
#231 = EDGE_CURVE('',#232,#234,#236,.T.);
#232 = VERTEX_POINT('',#233);
#233 = CARTESIAN_POINT('',(19.25,40.5,5.));
#234 = VERTEX_POINT('',#235);
#235 = CARTESIAN_POINT('',(-19.25,40.5,5.));
#236 = CIRCLE('',#237,19.25);
#237 = AXIS2_PLACEMENT_3D('',#238,#239,#240);
#238 = CARTESIAN_POINT('',(2.479909768273E-15,40.5,5.));
#239 = DIRECTION('',(0.,0.,1.));
#240 = DIRECTION('',(2.22044604925E-16,1.,-0.));
#241 = ORIENTED_EDGE('',*,*,#242,.T.);
#242 = EDGE_CURVE('',#232,#243,#245,.T.);
#243 = VERTEX_POINT('',#244);
#244 = CARTESIAN_POINT('',(19.25,38.1,5.));
#245 = LINE('',#246,#247);
#246 = CARTESIAN_POINT('',(19.25,19.05,5.));
#247 = VECTOR('',#248,1.);
#248 = DIRECTION('',(-2.22044604925E-16,-1.,0.));
#249 = ORIENTED_EDGE('',*,*,#250,.F.);
#250 = EDGE_CURVE('',#251,#243,#253,.T.);
#251 = VERTEX_POINT('',#252);
#252 = CARTESIAN_POINT('',(5.,19.510688554979,5.));
#253 = CIRCLE('',#254,19.25);
#254 = AXIS2_PLACEMENT_3D('',#255,#256,#257);
#255 = CARTESIAN_POINT('',(2.332952152376E-15,38.1,5.));
#256 = DIRECTION('',(0.,0.,1.));
#257 = DIRECTION('',(2.22044604925E-16,1.,-0.));
#258 = ORIENTED_EDGE('',*,*,#259,.T.);
#259 = EDGE_CURVE('',#251,#260,#262,.T.);
#260 = VERTEX_POINT('',#261);
#261 = CARTESIAN_POINT('',(5.,14.5,5.));
#262 = LINE('',#263,#264);
#263 = CARTESIAN_POINT('',(5.,7.25,5.));
#264 = VECTOR('',#265,1.);
#265 = DIRECTION('',(-2.22044604925E-16,-1.,0.));
#266 = ORIENTED_EDGE('',*,*,#267,.T.);
#267 = EDGE_CURVE('',#260,#268,#270,.T.);
#268 = VERTEX_POINT('',#269);
#269 = CARTESIAN_POINT('',(-5.,14.5,5.));
#270 = LINE('',#271,#272);
#271 = CARTESIAN_POINT('',(2.5,14.5,5.));
#272 = VECTOR('',#273,1.);
#273 = DIRECTION('',(-1.,2.22044604925E-16,0.));
#274 = ORIENTED_EDGE('',*,*,#275,.F.);
#275 = EDGE_CURVE('',#276,#268,#278,.T.);
#276 = VERTEX_POINT('',#277);
#277 = CARTESIAN_POINT('',(-5.,19.510688554979,5.));
#278 = LINE('',#279,#280);
#279 = CARTESIAN_POINT('',(-5.,7.25,5.));
#280 = VECTOR('',#281,1.);
#281 = DIRECTION('',(-2.22044604925E-16,-1.,0.));
#282 = ORIENTED_EDGE('',*,*,#283,.F.);
#283 = EDGE_CURVE('',#284,#276,#286,.T.);
#284 = VERTEX_POINT('',#285);
#285 = CARTESIAN_POINT('',(-19.25,38.1,5.));
#286 = CIRCLE('',#287,19.25);
#287 = AXIS2_PLACEMENT_3D('',#288,#289,#290);
#288 = CARTESIAN_POINT('',(2.332952152376E-15,38.1,5.));
#289 = DIRECTION('',(0.,0.,1.));
#290 = DIRECTION('',(2.22044604925E-16,1.,-0.));
#291 = ORIENTED_EDGE('',*,*,#292,.F.);
#292 = EDGE_CURVE('',#234,#284,#293,.T.);
#293 = LINE('',#294,#295);
#294 = CARTESIAN_POINT('',(-19.25,19.05,5.));
#295 = VECTOR('',#296,1.);
#296 = DIRECTION('',(-2.22044604925E-16,-1.,0.));
#297 = FACE_BOUND('',#298,.T.);
#298 = EDGE_LOOP('',(#299));
#299 = ORIENTED_EDGE('',*,*,#300,.F.);
#300 = EDGE_CURVE('',#301,#301,#303,.T.);
#301 = VERTEX_POINT('',#302);
#302 = CARTESIAN_POINT('',(14.,11.4,5.));
#303 = CIRCLE('',#304,1.7);
#304 = AXIS2_PLACEMENT_3D('',#305,#306,#307);
#305 = CARTESIAN_POINT('',(14.,9.7,5.));
#306 = DIRECTION('',(0.,0.,1.));
#307 = DIRECTION('',(2.22044604925E-16,1.,-0.));
#308 = FACE_BOUND('',#309,.T.);
#309 = EDGE_LOOP('',(#310));
#310 = ORIENTED_EDGE('',*,*,#311,.F.);
#311 = EDGE_CURVE('',#312,#312,#314,.T.);
#312 = VERTEX_POINT('',#313);
#313 = CARTESIAN_POINT('',(42.8,17.,5.));
#314 = CIRCLE('',#315,0.8);
#315 = AXIS2_PLACEMENT_3D('',#316,#317,#318);
#316 = CARTESIAN_POINT('',(42.,17.,5.));
#317 = DIRECTION('',(0.,0.,1.));
#318 = DIRECTION('',(1.,0.,-0.));
#319 = FACE_BOUND('',#320,.T.);
#320 = EDGE_LOOP('',(#321));
#321 = ORIENTED_EDGE('',*,*,#322,.F.);
#322 = EDGE_CURVE('',#323,#323,#325,.T.);
#323 = VERTEX_POINT('',#324);
#324 = CARTESIAN_POINT('',(49.8,17.,5.));
#325 = CIRCLE('',#326,0.8);
#326 = AXIS2_PLACEMENT_3D('',#327,#328,#329);
#327 = CARTESIAN_POINT('',(49.,17.,5.));
#328 = DIRECTION('',(0.,0.,1.));
#329 = DIRECTION('',(1.,0.,-0.));
#330 = PLANE('',#331);
#331 = AXIS2_PLACEMENT_3D('',#332,#333,#334);
#332 = CARTESIAN_POINT('',(0.,0.,5.));
#333 = DIRECTION('',(0.,0.,1.));
#334 = DIRECTION('',(1.,0.,-0.));
#335 = ADVANCED_FACE('',(#336),#354,.T.);
#336 = FACE_BOUND('',#337,.T.);
#337 = EDGE_LOOP('',(#338,#346,#352,#353));
#338 = ORIENTED_EDGE('',*,*,#339,.T.);
#339 = EDGE_CURVE('',#41,#340,#342,.T.);
#340 = VERTEX_POINT('',#341);
#341 = CARTESIAN_POINT('',(35.,-16.,0.));
#342 = LINE('',#343,#344);
#343 = CARTESIAN_POINT('',(17.5,-16.,0.));
#344 = VECTOR('',#345,1.);
#345 = DIRECTION('',(-1.,0.,0.));
#346 = ORIENTED_EDGE('',*,*,#347,.T.);
#347 = EDGE_CURVE('',#340,#73,#348,.T.);
#348 = LINE('',#349,#350);
#349 = CARTESIAN_POINT('',(35.,-16.,-3.));
#350 = VECTOR('',#351,1.);
#351 = DIRECTION('',(0.,0.,1.));
#352 = ORIENTED_EDGE('',*,*,#72,.F.);
#353 = ORIENTED_EDGE('',*,*,#49,.F.);
#354 = PLANE('',#355);
#355 = AXIS2_PLACEMENT_3D('',#356,#357,#358);
#356 = CARTESIAN_POINT('',(35.,-16.,-3.));
#357 = DIRECTION('',(0.,1.,0.));
#358 = DIRECTION('',(0.,0.,1.));
#359 = ADVANCED_FACE('',(#360,#378,#389,#400,#411,#422,#433,#444,#455,
    #466,#477,#488,#499,#510,#521,#590,#601,#612),#623,.F.);
#360 = FACE_BOUND('',#361,.F.);
#361 = EDGE_LOOP('',(#362,#370,#371,#372));
#362 = ORIENTED_EDGE('',*,*,#363,.F.);
#363 = EDGE_CURVE('',#33,#364,#366,.T.);
#364 = VERTEX_POINT('',#365);
#365 = CARTESIAN_POINT('',(35.,16.,0.));
#366 = LINE('',#367,#368);
#367 = CARTESIAN_POINT('',(17.5,16.,0.));
#368 = VECTOR('',#369,1.);
#369 = DIRECTION('',(-1.,0.,0.));
#370 = ORIENTED_EDGE('',*,*,#40,.T.);
#371 = ORIENTED_EDGE('',*,*,#339,.T.);
#372 = ORIENTED_EDGE('',*,*,#373,.T.);
#373 = EDGE_CURVE('',#340,#364,#374,.T.);
#374 = LINE('',#375,#376);
#375 = CARTESIAN_POINT('',(35.,-8.,0.));
#376 = VECTOR('',#377,1.);
#377 = DIRECTION('',(0.,1.,0.));
#378 = FACE_BOUND('',#379,.F.);
#379 = EDGE_LOOP('',(#380));
#380 = ORIENTED_EDGE('',*,*,#381,.F.);
#381 = EDGE_CURVE('',#382,#382,#384,.T.);
#382 = VERTEX_POINT('',#383);
#383 = CARTESIAN_POINT('',(-20.7596875,-30.,0.));
#384 = CIRCLE('',#385,3.2403125);
#385 = AXIS2_PLACEMENT_3D('',#386,#387,#388);
#386 = CARTESIAN_POINT('',(-24.,-30.,0.));
#387 = DIRECTION('',(0.,0.,1.));
#388 = DIRECTION('',(1.,0.,-0.));
#389 = FACE_BOUND('',#390,.F.);
#390 = EDGE_LOOP('',(#391));
#391 = ORIENTED_EDGE('',*,*,#392,.F.);
#392 = EDGE_CURVE('',#393,#393,#395,.T.);
#393 = VERTEX_POINT('',#394);
#394 = CARTESIAN_POINT('',(-23.7681831085,-50.97103316412,0.));
#395 = CIRCLE('',#396,3.2403125);
#396 = AXIS2_PLACEMENT_3D('',#397,#398,#399);
#397 = CARTESIAN_POINT('',(-22.39876787225,-48.03431271294,0.));
#398 = DIRECTION('',(0.,0.,1.));
#399 = DIRECTION('',(-0.422618261741,-0.906307787037,0.));
#400 = FACE_BOUND('',#401,.F.);
#401 = EDGE_LOOP('',(#402));
#402 = ORIENTED_EDGE('',*,*,#403,.F.);
#403 = EDGE_CURVE('',#404,#404,#406,.T.);
#404 = VERTEX_POINT('',#405);
#405 = CARTESIAN_POINT('',(-26.10994922149,0.292065653,0.));
#406 = CIRCLE('',#407,2.190833333333);
#407 = AXIS2_PLACEMENT_3D('',#408,#409,#410);
#408 = CARTESIAN_POINT('',(-24.17555820346,-0.736468295803,0.));
#409 = DIRECTION('',(0.,0.,1.));
#410 = DIRECTION('',(-0.882947592859,0.469471562786,0.));
#411 = FACE_BOUND('',#412,.F.);
#412 = EDGE_LOOP('',(#413));
#413 = ORIENTED_EDGE('',*,*,#414,.F.);
#414 = EDGE_CURVE('',#415,#415,#417,.T.);
#415 = VERTEX_POINT('',#416);
#416 = CARTESIAN_POINT('',(27.2403125,-30.,0.));
#417 = CIRCLE('',#418,3.2403125);
#418 = AXIS2_PLACEMENT_3D('',#419,#420,#421);
#419 = CARTESIAN_POINT('',(24.,-30.,0.));
#420 = DIRECTION('',(0.,0.,1.));
#421 = DIRECTION('',(1.,0.,-0.));
#422 = FACE_BOUND('',#423,.F.);
#423 = EDGE_LOOP('',(#424));
#424 = ORIENTED_EDGE('',*,*,#425,.F.);
#425 = EDGE_CURVE('',#426,#426,#428,.T.);
#426 = VERTEX_POINT('',#427);
#427 = CARTESIAN_POINT('',(49.657248543509,-26.40322740094,0.));
#428 = CIRCLE('',#429,3.2403125);
#429 = AXIS2_PLACEMENT_3D('',#430,#431,#432);
#430 = CARTESIAN_POINT('',(46.796222421523,-24.88199282765,0.));
#431 = DIRECTION('',(0.,0.,1.));
#432 = DIRECTION('',(0.882947592859,-0.469471562786,0.));
#433 = FACE_BOUND('',#434,.F.);
#434 = EDGE_LOOP('',(#435));
#435 = ORIENTED_EDGE('',*,*,#436,.F.);
#436 = EDGE_CURVE('',#437,#437,#439,.T.);
#437 = VERTEX_POINT('',#438);
#438 = CARTESIAN_POINT('',(39.7,-18.5,0.));
#439 = CIRCLE('',#440,1.7);
#440 = AXIS2_PLACEMENT_3D('',#441,#442,#443);
#441 = CARTESIAN_POINT('',(38.,-18.5,0.));
#442 = DIRECTION('',(0.,0.,1.));
#443 = DIRECTION('',(1.,0.,-0.));
#444 = FACE_BOUND('',#445,.F.);
#445 = EDGE_LOOP('',(#446));
#446 = ORIENTED_EDGE('',*,*,#447,.F.);
#447 = EDGE_CURVE('',#448,#448,#450,.T.);
#448 = VERTEX_POINT('',#449);
#449 = CARTESIAN_POINT('',(42.8,-17.,0.));
#450 = CIRCLE('',#451,0.8);
#451 = AXIS2_PLACEMENT_3D('',#452,#453,#454);
#452 = CARTESIAN_POINT('',(42.,-17.,0.));
#453 = DIRECTION('',(0.,0.,1.));
#454 = DIRECTION('',(1.,0.,-0.));
#455 = FACE_BOUND('',#456,.F.);
#456 = EDGE_LOOP('',(#457));
#457 = ORIENTED_EDGE('',*,*,#458,.F.);
#458 = EDGE_CURVE('',#459,#459,#461,.T.);
#459 = VERTEX_POINT('',#460);
#460 = CARTESIAN_POINT('',(49.8,-17.,0.));
#461 = CIRCLE('',#462,0.8);
#462 = AXIS2_PLACEMENT_3D('',#463,#464,#465);
#463 = CARTESIAN_POINT('',(49.,-17.,0.));
#464 = DIRECTION('',(0.,0.,1.));
#465 = DIRECTION('',(1.,0.,-0.));
#466 = FACE_BOUND('',#467,.F.);
#467 = EDGE_LOOP('',(#468));
#468 = ORIENTED_EDGE('',*,*,#469,.F.);
#469 = EDGE_CURVE('',#470,#470,#472,.T.);
#470 = VERTEX_POINT('',#471);
#471 = CARTESIAN_POINT('',(-47.3006914501,11.559383159861,0.));
#472 = CIRCLE('',#473,2.190833333333);
#473 = AXIS2_PLACEMENT_3D('',#474,#475,#476);
#474 = CARTESIAN_POINT('',(-45.36630043208,10.530849211058,0.));
#475 = DIRECTION('',(0.,0.,1.));
#476 = DIRECTION('',(-0.882947592859,0.469471562786,0.));
#477 = FACE_BOUND('',#478,.F.);
#478 = EDGE_LOOP('',(#479));
#479 = ORIENTED_EDGE('',*,*,#480,.F.);
#480 = EDGE_CURVE('',#481,#481,#483,.T.);
#481 = VERTEX_POINT('',#482);
#482 = CARTESIAN_POINT('',(-36.03337394324,32.750125388476,0.));
#483 = CIRCLE('',#484,2.190833333333);
#484 = AXIS2_PLACEMENT_3D('',#485,#486,#487);
#485 = CARTESIAN_POINT('',(-34.09898292522,31.721591439672,0.));
#486 = DIRECTION('',(0.,0.,1.));
#487 = DIRECTION('',(-0.882947592859,0.469471562786,0.));
#488 = FACE_BOUND('',#489,.F.);
#489 = EDGE_LOOP('',(#490));
#490 = ORIENTED_EDGE('',*,*,#491,.F.);
#491 = EDGE_CURVE('',#492,#492,#494,.T.);
#492 = VERTEX_POINT('',#493);
#493 = CARTESIAN_POINT('',(-14.,12.9403125,0.));
#494 = CIRCLE('',#495,3.2403125);
#495 = AXIS2_PLACEMENT_3D('',#496,#497,#498);
#496 = CARTESIAN_POINT('',(-14.,9.7,0.));
#497 = DIRECTION('',(0.,0.,1.));
#498 = DIRECTION('',(2.22044604925E-16,1.,-0.));
#499 = FACE_BOUND('',#500,.F.);
#500 = EDGE_LOOP('',(#501));
#501 = ORIENTED_EDGE('',*,*,#502,.F.);
#502 = EDGE_CURVE('',#503,#503,#505,.T.);
#503 = VERTEX_POINT('',#504);
#504 = CARTESIAN_POINT('',(-14.84263171462,21.482807881614,0.));
#505 = CIRCLE('',#506,2.190833333333);
#506 = AXIS2_PLACEMENT_3D('',#507,#508,#509);
#507 = CARTESIAN_POINT('',(-12.9082406966,20.454273932811,0.));
#508 = DIRECTION('',(0.,0.,1.));
#509 = DIRECTION('',(-0.882947592859,0.469471562786,0.));
#510 = FACE_BOUND('',#511,.F.);
#511 = EDGE_LOOP('',(#512));
#512 = ORIENTED_EDGE('',*,*,#513,.F.);
#513 = EDGE_CURVE('',#514,#514,#516,.T.);
#514 = VERTEX_POINT('',#515);
#515 = CARTESIAN_POINT('',(-32.25811802301,46.069366955827,0.));
#516 = CIRCLE('',#517,3.2403125);
#517 = AXIS2_PLACEMENT_3D('',#518,#519,#520);
#518 = CARTESIAN_POINT('',(-30.3995511266,43.415058347317,0.));
#519 = DIRECTION('',(0.,0.,1.));
#520 = DIRECTION('',(-0.573576436351,0.819152044289,0.));
#521 = FACE_BOUND('',#522,.F.);
#522 = EDGE_LOOP('',(#523,#534,#542,#551,#559,#567,#575,#584));
#523 = ORIENTED_EDGE('',*,*,#524,.F.);
#524 = EDGE_CURVE('',#525,#527,#529,.T.);
#525 = VERTEX_POINT('',#526);
#526 = CARTESIAN_POINT('',(19.25,40.5,0.));
#527 = VERTEX_POINT('',#528);
#528 = CARTESIAN_POINT('',(-19.25,40.5,0.));
#529 = CIRCLE('',#530,19.25);
#530 = AXIS2_PLACEMENT_3D('',#531,#532,#533);
#531 = CARTESIAN_POINT('',(2.479909768273E-15,40.5,0.));
#532 = DIRECTION('',(0.,0.,1.));
#533 = DIRECTION('',(2.22044604925E-16,1.,-0.));
#534 = ORIENTED_EDGE('',*,*,#535,.T.);
#535 = EDGE_CURVE('',#525,#536,#538,.T.);
#536 = VERTEX_POINT('',#537);
#537 = CARTESIAN_POINT('',(19.25,38.1,0.));
#538 = LINE('',#539,#540);
#539 = CARTESIAN_POINT('',(19.25,19.05,0.));
#540 = VECTOR('',#541,1.);
#541 = DIRECTION('',(-2.22044604925E-16,-1.,0.));
#542 = ORIENTED_EDGE('',*,*,#543,.F.);
#543 = EDGE_CURVE('',#544,#536,#546,.T.);
#544 = VERTEX_POINT('',#545);
#545 = CARTESIAN_POINT('',(5.,19.510688554979,0.));
#546 = CIRCLE('',#547,19.25);
#547 = AXIS2_PLACEMENT_3D('',#548,#549,#550);
#548 = CARTESIAN_POINT('',(2.332952152376E-15,38.1,0.));
#549 = DIRECTION('',(0.,0.,1.));
#550 = DIRECTION('',(2.22044604925E-16,1.,-0.));
#551 = ORIENTED_EDGE('',*,*,#552,.T.);
#552 = EDGE_CURVE('',#544,#553,#555,.T.);
#553 = VERTEX_POINT('',#554);
#554 = CARTESIAN_POINT('',(5.,14.5,0.));
#555 = LINE('',#556,#557);
#556 = CARTESIAN_POINT('',(5.,7.25,0.));
#557 = VECTOR('',#558,1.);
#558 = DIRECTION('',(-2.22044604925E-16,-1.,0.));
#559 = ORIENTED_EDGE('',*,*,#560,.T.);
#560 = EDGE_CURVE('',#553,#561,#563,.T.);
#561 = VERTEX_POINT('',#562);
#562 = CARTESIAN_POINT('',(-5.,14.5,0.));
#563 = LINE('',#564,#565);
#564 = CARTESIAN_POINT('',(2.5,14.5,0.));
#565 = VECTOR('',#566,1.);
#566 = DIRECTION('',(-1.,2.22044604925E-16,0.));
#567 = ORIENTED_EDGE('',*,*,#568,.F.);
#568 = EDGE_CURVE('',#569,#561,#571,.T.);
#569 = VERTEX_POINT('',#570);
#570 = CARTESIAN_POINT('',(-5.,19.510688554979,0.));
#571 = LINE('',#572,#573);
#572 = CARTESIAN_POINT('',(-5.,7.25,0.));
#573 = VECTOR('',#574,1.);
#574 = DIRECTION('',(-2.22044604925E-16,-1.,0.));
#575 = ORIENTED_EDGE('',*,*,#576,.F.);
#576 = EDGE_CURVE('',#577,#569,#579,.T.);
#577 = VERTEX_POINT('',#578);
#578 = CARTESIAN_POINT('',(-19.25,38.1,0.));
#579 = CIRCLE('',#580,19.25);
#580 = AXIS2_PLACEMENT_3D('',#581,#582,#583);
#581 = CARTESIAN_POINT('',(2.332952152376E-15,38.1,0.));
#582 = DIRECTION('',(0.,0.,1.));
#583 = DIRECTION('',(2.22044604925E-16,1.,-0.));
#584 = ORIENTED_EDGE('',*,*,#585,.F.);
#585 = EDGE_CURVE('',#527,#577,#586,.T.);
#586 = LINE('',#587,#588);
#587 = CARTESIAN_POINT('',(-19.25,19.05,0.));
#588 = VECTOR('',#589,1.);
#589 = DIRECTION('',(-2.22044604925E-16,-1.,0.));
#590 = FACE_BOUND('',#591,.F.);
#591 = EDGE_LOOP('',(#592));
#592 = ORIENTED_EDGE('',*,*,#593,.F.);
#593 = EDGE_CURVE('',#594,#594,#596,.T.);
#594 = VERTEX_POINT('',#595);
#595 = CARTESIAN_POINT('',(14.,12.9403125,0.));
#596 = CIRCLE('',#597,3.2403125);
#597 = AXIS2_PLACEMENT_3D('',#598,#599,#600);
#598 = CARTESIAN_POINT('',(14.,9.7,0.));
#599 = DIRECTION('',(0.,0.,1.));
#600 = DIRECTION('',(2.22044604925E-16,1.,-0.));
#601 = FACE_BOUND('',#602,.F.);
#602 = EDGE_LOOP('',(#603));
#603 = ORIENTED_EDGE('',*,*,#604,.F.);
#604 = EDGE_CURVE('',#605,#605,#607,.T.);
#605 = VERTEX_POINT('',#606);
#606 = CARTESIAN_POINT('',(42.8,17.,0.));
#607 = CIRCLE('',#608,0.8);
#608 = AXIS2_PLACEMENT_3D('',#609,#610,#611);
#609 = CARTESIAN_POINT('',(42.,17.,0.));
#610 = DIRECTION('',(0.,0.,1.));
#611 = DIRECTION('',(1.,0.,-0.));
#612 = FACE_BOUND('',#613,.F.);
#613 = EDGE_LOOP('',(#614));
#614 = ORIENTED_EDGE('',*,*,#615,.F.);
#615 = EDGE_CURVE('',#616,#616,#618,.T.);
#616 = VERTEX_POINT('',#617);
#617 = CARTESIAN_POINT('',(49.8,17.,0.));
#618 = CIRCLE('',#619,0.8);
#619 = AXIS2_PLACEMENT_3D('',#620,#621,#622);
#620 = CARTESIAN_POINT('',(49.,17.,0.));
#621 = DIRECTION('',(0.,0.,1.));
#622 = DIRECTION('',(1.,0.,-0.));
#623 = PLANE('',#624);
#624 = AXIS2_PLACEMENT_3D('',#625,#626,#627);
#625 = CARTESIAN_POINT('',(0.,0.,0.));
#626 = DIRECTION('',(0.,0.,1.));
#627 = DIRECTION('',(1.,0.,-0.));
#628 = ADVANCED_FACE('',(#629),#640,.F.);
#629 = FACE_BOUND('',#630,.F.);
#630 = EDGE_LOOP('',(#631,#632,#638,#639));
#631 = ORIENTED_EDGE('',*,*,#363,.T.);
#632 = ORIENTED_EDGE('',*,*,#633,.T.);
#633 = EDGE_CURVE('',#364,#64,#634,.T.);
#634 = LINE('',#635,#636);
#635 = CARTESIAN_POINT('',(35.,16.,-3.));
#636 = VECTOR('',#637,1.);
#637 = DIRECTION('',(0.,0.,1.));
#638 = ORIENTED_EDGE('',*,*,#63,.F.);
#639 = ORIENTED_EDGE('',*,*,#32,.F.);
#640 = PLANE('',#641);
#641 = AXIS2_PLACEMENT_3D('',#642,#643,#644);
#642 = CARTESIAN_POINT('',(35.,16.,-3.));
#643 = DIRECTION('',(0.,1.,0.));
#644 = DIRECTION('',(0.,0.,1.));
#645 = ADVANCED_FACE('',(#646),#652,.T.);
#646 = FACE_BOUND('',#647,.T.);
#647 = EDGE_LOOP('',(#648,#649,#650,#651));
#648 = ORIENTED_EDGE('',*,*,#347,.F.);
#649 = ORIENTED_EDGE('',*,*,#373,.T.);
#650 = ORIENTED_EDGE('',*,*,#633,.T.);
#651 = ORIENTED_EDGE('',*,*,#80,.F.);
#652 = PLANE('',#653);
#653 = AXIS2_PLACEMENT_3D('',#654,#655,#656);
#654 = CARTESIAN_POINT('',(35.,-16.,-3.));
#655 = DIRECTION('',(1.,0.,0.));
#656 = DIRECTION('',(0.,0.,1.));
#657 = ADVANCED_FACE('',(#658),#677,.F.);
#658 = FACE_BOUND('',#659,.F.);
#659 = EDGE_LOOP('',(#660,#669,#675,#676));
#660 = ORIENTED_EDGE('',*,*,#661,.T.);
#661 = EDGE_CURVE('',#662,#662,#664,.T.);
#662 = VERTEX_POINT('',#663);
#663 = CARTESIAN_POINT('',(-22.3,-30.,1.59));
#664 = CIRCLE('',#665,1.7);
#665 = AXIS2_PLACEMENT_3D('',#666,#667,#668);
#666 = CARTESIAN_POINT('',(-24.,-30.,1.59));
#667 = DIRECTION('',(0.,0.,1.));
#668 = DIRECTION('',(1.,0.,-0.));
#669 = ORIENTED_EDGE('',*,*,#670,.T.);
#670 = EDGE_CURVE('',#662,#89,#671,.T.);
#671 = LINE('',#672,#673);
#672 = CARTESIAN_POINT('',(-22.3,-30.,-1.));
#673 = VECTOR('',#674,1.);
#674 = DIRECTION('',(0.,0.,1.));
#675 = ORIENTED_EDGE('',*,*,#88,.F.);
#676 = ORIENTED_EDGE('',*,*,#670,.F.);
#677 = CYLINDRICAL_SURFACE('',#678,1.7);
#678 = AXIS2_PLACEMENT_3D('',#679,#680,#681);
#679 = CARTESIAN_POINT('',(-24.,-30.,-1.));
#680 = DIRECTION('',(0.,0.,1.));
#681 = DIRECTION('',(1.,0.,-0.));
#682 = ADVANCED_FACE('',(#683),#702,.F.);
#683 = FACE_BOUND('',#684,.F.);
#684 = EDGE_LOOP('',(#685,#694,#700,#701));
#685 = ORIENTED_EDGE('',*,*,#686,.T.);
#686 = EDGE_CURVE('',#687,#687,#689,.T.);
#687 = VERTEX_POINT('',#688);
#688 = CARTESIAN_POINT('',(-23.11721891721,-49.5750359509,1.59));
#689 = CIRCLE('',#690,1.7);
#690 = AXIS2_PLACEMENT_3D('',#691,#692,#693);
#691 = CARTESIAN_POINT('',(-22.39876787225,-48.03431271294,1.59));
#692 = DIRECTION('',(0.,0.,1.));
#693 = DIRECTION('',(-0.422618261741,-0.906307787037,0.));
#694 = ORIENTED_EDGE('',*,*,#695,.T.);
#695 = EDGE_CURVE('',#687,#100,#696,.T.);
#696 = LINE('',#697,#698);
#697 = CARTESIAN_POINT('',(-23.11721891721,-49.5750359509,-1.));
#698 = VECTOR('',#699,1.);
#699 = DIRECTION('',(0.,0.,1.));
#700 = ORIENTED_EDGE('',*,*,#99,.F.);
#701 = ORIENTED_EDGE('',*,*,#695,.F.);
#702 = CYLINDRICAL_SURFACE('',#703,1.7);
#703 = AXIS2_PLACEMENT_3D('',#704,#705,#706);
#704 = CARTESIAN_POINT('',(-22.39876787225,-48.03431271294,-1.));
#705 = DIRECTION('',(0.,0.,1.));
#706 = DIRECTION('',(-0.422618261741,-0.906307787037,0.));
#707 = ADVANCED_FACE('',(#708),#727,.F.);
#708 = FACE_BOUND('',#709,.F.);
#709 = EDGE_LOOP('',(#710,#719,#725,#726));
#710 = ORIENTED_EDGE('',*,*,#711,.T.);
#711 = EDGE_CURVE('',#712,#712,#714,.T.);
#712 = VERTEX_POINT('',#713);
#713 = CARTESIAN_POINT('',(-25.14680055561,-0.220049576739,1.19));
#714 = CIRCLE('',#715,1.1);
#715 = AXIS2_PLACEMENT_3D('',#716,#717,#718);
#716 = CARTESIAN_POINT('',(-24.17555820346,-0.736468295803,1.19));
#717 = DIRECTION('',(0.,0.,1.));
#718 = DIRECTION('',(-0.882947592859,0.469471562786,0.));
#719 = ORIENTED_EDGE('',*,*,#720,.T.);
#720 = EDGE_CURVE('',#712,#111,#721,.T.);
#721 = LINE('',#722,#723);
#722 = CARTESIAN_POINT('',(-25.14680055561,-0.220049576739,-1.));
#723 = VECTOR('',#724,1.);
#724 = DIRECTION('',(0.,0.,1.));
#725 = ORIENTED_EDGE('',*,*,#110,.F.);
#726 = ORIENTED_EDGE('',*,*,#720,.F.);
#727 = CYLINDRICAL_SURFACE('',#728,1.1);
#728 = AXIS2_PLACEMENT_3D('',#729,#730,#731);
#729 = CARTESIAN_POINT('',(-24.17555820346,-0.736468295803,-1.));
#730 = DIRECTION('',(0.,0.,1.));
#731 = DIRECTION('',(-0.882947592859,0.469471562786,0.));
#732 = ADVANCED_FACE('',(#733),#752,.F.);
#733 = FACE_BOUND('',#734,.F.);
#734 = EDGE_LOOP('',(#735,#744,#750,#751));
#735 = ORIENTED_EDGE('',*,*,#736,.T.);
#736 = EDGE_CURVE('',#737,#737,#739,.T.);
#737 = VERTEX_POINT('',#738);
#738 = CARTESIAN_POINT('',(25.7,-30.,1.59));
#739 = CIRCLE('',#740,1.7);
#740 = AXIS2_PLACEMENT_3D('',#741,#742,#743);
#741 = CARTESIAN_POINT('',(24.,-30.,1.59));
#742 = DIRECTION('',(0.,0.,1.));
#743 = DIRECTION('',(1.,0.,-0.));
#744 = ORIENTED_EDGE('',*,*,#745,.T.);
#745 = EDGE_CURVE('',#737,#122,#746,.T.);
#746 = LINE('',#747,#748);
#747 = CARTESIAN_POINT('',(25.7,-30.,-1.));
#748 = VECTOR('',#749,1.);
#749 = DIRECTION('',(0.,0.,1.));
#750 = ORIENTED_EDGE('',*,*,#121,.F.);
#751 = ORIENTED_EDGE('',*,*,#745,.F.);
#752 = CYLINDRICAL_SURFACE('',#753,1.7);
#753 = AXIS2_PLACEMENT_3D('',#754,#755,#756);
#754 = CARTESIAN_POINT('',(24.,-30.,-1.));
#755 = DIRECTION('',(0.,0.,1.));
#756 = DIRECTION('',(1.,0.,-0.));
#757 = ADVANCED_FACE('',(#758),#777,.F.);
#758 = FACE_BOUND('',#759,.F.);
#759 = EDGE_LOOP('',(#760,#769,#775,#776));
#760 = ORIENTED_EDGE('',*,*,#761,.T.);
#761 = EDGE_CURVE('',#762,#762,#764,.T.);
#762 = VERTEX_POINT('',#763);
#763 = CARTESIAN_POINT('',(48.297233329383,-25.68009448438,1.59));
#764 = CIRCLE('',#765,1.7);
#765 = AXIS2_PLACEMENT_3D('',#766,#767,#768);
#766 = CARTESIAN_POINT('',(46.796222421523,-24.88199282765,1.59));
#767 = DIRECTION('',(-0.,0.,1.));
#768 = DIRECTION('',(0.882947592859,-0.469471562786,0.));
#769 = ORIENTED_EDGE('',*,*,#770,.T.);
#770 = EDGE_CURVE('',#762,#133,#771,.T.);
#771 = LINE('',#772,#773);
#772 = CARTESIAN_POINT('',(48.297233329383,-25.68009448438,-1.));
#773 = VECTOR('',#774,1.);
#774 = DIRECTION('',(0.,0.,1.));
#775 = ORIENTED_EDGE('',*,*,#132,.F.);
#776 = ORIENTED_EDGE('',*,*,#770,.F.);
#777 = CYLINDRICAL_SURFACE('',#778,1.7);
#778 = AXIS2_PLACEMENT_3D('',#779,#780,#781);
#779 = CARTESIAN_POINT('',(46.796222421523,-24.88199282765,-1.));
#780 = DIRECTION('',(0.,0.,1.));
#781 = DIRECTION('',(0.882947592859,-0.469471562786,0.));
#782 = ADVANCED_FACE('',(#783),#794,.F.);
#783 = FACE_BOUND('',#784,.F.);
#784 = EDGE_LOOP('',(#785,#786,#792,#793));
#785 = ORIENTED_EDGE('',*,*,#143,.F.);
#786 = ORIENTED_EDGE('',*,*,#787,.F.);
#787 = EDGE_CURVE('',#437,#144,#788,.T.);
#788 = LINE('',#789,#790);
#789 = CARTESIAN_POINT('',(39.7,-18.5,-1.));
#790 = VECTOR('',#791,1.);
#791 = DIRECTION('',(0.,0.,1.));
#792 = ORIENTED_EDGE('',*,*,#436,.T.);
#793 = ORIENTED_EDGE('',*,*,#787,.T.);
#794 = CYLINDRICAL_SURFACE('',#795,1.7);
#795 = AXIS2_PLACEMENT_3D('',#796,#797,#798);
#796 = CARTESIAN_POINT('',(38.,-18.5,-1.));
#797 = DIRECTION('',(0.,0.,1.));
#798 = DIRECTION('',(1.,0.,0.));
#799 = ADVANCED_FACE('',(#800),#811,.F.);
#800 = FACE_BOUND('',#801,.F.);
#801 = EDGE_LOOP('',(#802,#803,#809,#810));
#802 = ORIENTED_EDGE('',*,*,#154,.F.);
#803 = ORIENTED_EDGE('',*,*,#804,.F.);
#804 = EDGE_CURVE('',#448,#155,#805,.T.);
#805 = LINE('',#806,#807);
#806 = CARTESIAN_POINT('',(42.8,-17.,-1.));
#807 = VECTOR('',#808,1.);
#808 = DIRECTION('',(0.,0.,1.));
#809 = ORIENTED_EDGE('',*,*,#447,.T.);
#810 = ORIENTED_EDGE('',*,*,#804,.T.);
#811 = CYLINDRICAL_SURFACE('',#812,0.8);
#812 = AXIS2_PLACEMENT_3D('',#813,#814,#815);
#813 = CARTESIAN_POINT('',(42.,-17.,-1.));
#814 = DIRECTION('',(0.,0.,1.));
#815 = DIRECTION('',(1.,0.,0.));
#816 = ADVANCED_FACE('',(#817),#828,.F.);
#817 = FACE_BOUND('',#818,.F.);
#818 = EDGE_LOOP('',(#819,#820,#826,#827));
#819 = ORIENTED_EDGE('',*,*,#165,.F.);
#820 = ORIENTED_EDGE('',*,*,#821,.F.);
#821 = EDGE_CURVE('',#459,#166,#822,.T.);
#822 = LINE('',#823,#824);
#823 = CARTESIAN_POINT('',(49.8,-17.,-1.));
#824 = VECTOR('',#825,1.);
#825 = DIRECTION('',(0.,0.,1.));
#826 = ORIENTED_EDGE('',*,*,#458,.T.);
#827 = ORIENTED_EDGE('',*,*,#821,.T.);
#828 = CYLINDRICAL_SURFACE('',#829,0.8);
#829 = AXIS2_PLACEMENT_3D('',#830,#831,#832);
#830 = CARTESIAN_POINT('',(49.,-17.,-1.));
#831 = DIRECTION('',(0.,0.,1.));
#832 = DIRECTION('',(1.,0.,0.));
#833 = ADVANCED_FACE('',(#834),#853,.F.);
#834 = FACE_BOUND('',#835,.F.);
#835 = EDGE_LOOP('',(#836,#845,#851,#852));
#836 = ORIENTED_EDGE('',*,*,#837,.T.);
#837 = EDGE_CURVE('',#838,#838,#840,.T.);
#838 = VERTEX_POINT('',#839);
#839 = CARTESIAN_POINT('',(-46.33754278422,11.047267930122,1.19));
#840 = CIRCLE('',#841,1.1);
#841 = AXIS2_PLACEMENT_3D('',#842,#843,#844);
#842 = CARTESIAN_POINT('',(-45.36630043208,10.530849211058,1.19));
#843 = DIRECTION('',(0.,0.,1.));
#844 = DIRECTION('',(-0.882947592859,0.469471562786,0.));
#845 = ORIENTED_EDGE('',*,*,#846,.T.);
#846 = EDGE_CURVE('',#838,#177,#847,.T.);
#847 = LINE('',#848,#849);
#848 = CARTESIAN_POINT('',(-46.33754278422,11.047267930122,-1.));
#849 = VECTOR('',#850,1.);
#850 = DIRECTION('',(0.,0.,1.));
#851 = ORIENTED_EDGE('',*,*,#176,.F.);
#852 = ORIENTED_EDGE('',*,*,#846,.F.);
#853 = CYLINDRICAL_SURFACE('',#854,1.1);
#854 = AXIS2_PLACEMENT_3D('',#855,#856,#857);
#855 = CARTESIAN_POINT('',(-45.36630043208,10.530849211058,-1.));
#856 = DIRECTION('',(0.,0.,1.));
#857 = DIRECTION('',(-0.882947592859,0.469471562786,0.));
#858 = ADVANCED_FACE('',(#859),#878,.F.);
#859 = FACE_BOUND('',#860,.F.);
#860 = EDGE_LOOP('',(#861,#870,#876,#877));
#861 = ORIENTED_EDGE('',*,*,#862,.T.);
#862 = EDGE_CURVE('',#863,#863,#865,.T.);
#863 = VERTEX_POINT('',#864);
#864 = CARTESIAN_POINT('',(-35.07022527736,32.238010158737,1.19));
#865 = CIRCLE('',#866,1.1);
#866 = AXIS2_PLACEMENT_3D('',#867,#868,#869);
#867 = CARTESIAN_POINT('',(-34.09898292522,31.721591439672,1.19));
#868 = DIRECTION('',(0.,0.,1.));
#869 = DIRECTION('',(-0.882947592859,0.469471562786,0.));
#870 = ORIENTED_EDGE('',*,*,#871,.T.);
#871 = EDGE_CURVE('',#863,#188,#872,.T.);
#872 = LINE('',#873,#874);
#873 = CARTESIAN_POINT('',(-35.07022527736,32.238010158737,-1.));
#874 = VECTOR('',#875,1.);
#875 = DIRECTION('',(0.,0.,1.));
#876 = ORIENTED_EDGE('',*,*,#187,.F.);
#877 = ORIENTED_EDGE('',*,*,#871,.F.);
#878 = CYLINDRICAL_SURFACE('',#879,1.1);
#879 = AXIS2_PLACEMENT_3D('',#880,#881,#882);
#880 = CARTESIAN_POINT('',(-34.09898292522,31.721591439672,-1.));
#881 = DIRECTION('',(0.,0.,1.));
#882 = DIRECTION('',(-0.882947592859,0.469471562786,0.));
#883 = ADVANCED_FACE('',(#884),#903,.F.);
#884 = FACE_BOUND('',#885,.F.);
#885 = EDGE_LOOP('',(#886,#895,#901,#902));
#886 = ORIENTED_EDGE('',*,*,#887,.T.);
#887 = EDGE_CURVE('',#888,#888,#890,.T.);
#888 = VERTEX_POINT('',#889);
#889 = CARTESIAN_POINT('',(-14.,11.4,1.59));
#890 = CIRCLE('',#891,1.7);
#891 = AXIS2_PLACEMENT_3D('',#892,#893,#894);
#892 = CARTESIAN_POINT('',(-14.,9.7,1.59));
#893 = DIRECTION('',(0.,-0.,1.));
#894 = DIRECTION('',(2.22044604925E-16,1.,0.));
#895 = ORIENTED_EDGE('',*,*,#896,.T.);
#896 = EDGE_CURVE('',#888,#199,#897,.T.);
#897 = LINE('',#898,#899);
#898 = CARTESIAN_POINT('',(-14.,11.4,-1.));
#899 = VECTOR('',#900,1.);
#900 = DIRECTION('',(0.,0.,1.));
#901 = ORIENTED_EDGE('',*,*,#198,.F.);
#902 = ORIENTED_EDGE('',*,*,#896,.F.);
#903 = CYLINDRICAL_SURFACE('',#904,1.7);
#904 = AXIS2_PLACEMENT_3D('',#905,#906,#907);
#905 = CARTESIAN_POINT('',(-14.,9.7,-1.));
#906 = DIRECTION('',(0.,0.,1.));
#907 = DIRECTION('',(2.22044604925E-16,1.,0.));
#908 = ADVANCED_FACE('',(#909),#928,.F.);
#909 = FACE_BOUND('',#910,.F.);
#910 = EDGE_LOOP('',(#911,#920,#926,#927));
#911 = ORIENTED_EDGE('',*,*,#912,.T.);
#912 = EDGE_CURVE('',#913,#913,#915,.T.);
#913 = VERTEX_POINT('',#914);
#914 = CARTESIAN_POINT('',(-13.87948304875,20.970692651875,1.19));
#915 = CIRCLE('',#916,1.1);
#916 = AXIS2_PLACEMENT_3D('',#917,#918,#919);
#917 = CARTESIAN_POINT('',(-12.9082406966,20.454273932811,1.19));
#918 = DIRECTION('',(0.,0.,1.));
#919 = DIRECTION('',(-0.882947592859,0.469471562786,0.));
#920 = ORIENTED_EDGE('',*,*,#921,.T.);
#921 = EDGE_CURVE('',#913,#210,#922,.T.);
#922 = LINE('',#923,#924);
#923 = CARTESIAN_POINT('',(-13.87948304875,20.970692651875,-1.));
#924 = VECTOR('',#925,1.);
#925 = DIRECTION('',(0.,0.,1.));
#926 = ORIENTED_EDGE('',*,*,#209,.F.);
#927 = ORIENTED_EDGE('',*,*,#921,.F.);
#928 = CYLINDRICAL_SURFACE('',#929,1.1);
#929 = AXIS2_PLACEMENT_3D('',#930,#931,#932);
#930 = CARTESIAN_POINT('',(-12.9082406966,20.454273932811,-1.));
#931 = DIRECTION('',(0.,0.,1.));
#932 = DIRECTION('',(-0.882947592859,0.469471562786,0.));
#933 = ADVANCED_FACE('',(#934),#953,.F.);
#934 = FACE_BOUND('',#935,.F.);
#935 = EDGE_LOOP('',(#936,#945,#951,#952));
#936 = ORIENTED_EDGE('',*,*,#937,.T.);
#937 = EDGE_CURVE('',#938,#938,#940,.T.);
#938 = VERTEX_POINT('',#939);
#939 = CARTESIAN_POINT('',(-31.3746310684,44.807616822608,1.59));
#940 = CIRCLE('',#941,1.7);
#941 = AXIS2_PLACEMENT_3D('',#942,#943,#944);
#942 = CARTESIAN_POINT('',(-30.3995511266,43.415058347317,1.59));
#943 = DIRECTION('',(0.,0.,1.));
#944 = DIRECTION('',(-0.573576436351,0.819152044289,0.));
#945 = ORIENTED_EDGE('',*,*,#946,.T.);
#946 = EDGE_CURVE('',#938,#221,#947,.T.);
#947 = LINE('',#948,#949);
#948 = CARTESIAN_POINT('',(-31.3746310684,44.807616822608,-1.));
#949 = VECTOR('',#950,1.);
#950 = DIRECTION('',(0.,0.,1.));
#951 = ORIENTED_EDGE('',*,*,#220,.F.);
#952 = ORIENTED_EDGE('',*,*,#946,.F.);
#953 = CYLINDRICAL_SURFACE('',#954,1.7);
#954 = AXIS2_PLACEMENT_3D('',#955,#956,#957);
#955 = CARTESIAN_POINT('',(-30.3995511266,43.415058347317,-1.));
#956 = DIRECTION('',(0.,0.,1.));
#957 = DIRECTION('',(-0.573576436351,0.819152044289,0.));
#958 = ADVANCED_FACE('',(#959),#975,.F.);
#959 = FACE_BOUND('',#960,.F.);
#960 = EDGE_LOOP('',(#961,#967,#968,#974));
#961 = ORIENTED_EDGE('',*,*,#962,.F.);
#962 = EDGE_CURVE('',#525,#232,#963,.T.);
#963 = LINE('',#964,#965);
#964 = CARTESIAN_POINT('',(19.25,40.5,-3.));
#965 = VECTOR('',#966,1.);
#966 = DIRECTION('',(0.,0.,1.));
#967 = ORIENTED_EDGE('',*,*,#524,.T.);
#968 = ORIENTED_EDGE('',*,*,#969,.T.);
#969 = EDGE_CURVE('',#527,#234,#970,.T.);
#970 = LINE('',#971,#972);
#971 = CARTESIAN_POINT('',(-19.25,40.5,-3.));
#972 = VECTOR('',#973,1.);
#973 = DIRECTION('',(0.,0.,1.));
#974 = ORIENTED_EDGE('',*,*,#231,.F.);
#975 = CYLINDRICAL_SURFACE('',#976,19.25);
#976 = AXIS2_PLACEMENT_3D('',#977,#978,#979);
#977 = CARTESIAN_POINT('',(2.479909768273E-15,40.5,-3.));
#978 = DIRECTION('',(0.,0.,1.));
#979 = DIRECTION('',(2.22044604925E-16,1.,0.));
#980 = ADVANCED_FACE('',(#981),#992,.T.);
#981 = FACE_BOUND('',#982,.T.);
#982 = EDGE_LOOP('',(#983,#984,#985,#991));
#983 = ORIENTED_EDGE('',*,*,#962,.F.);
#984 = ORIENTED_EDGE('',*,*,#535,.T.);
#985 = ORIENTED_EDGE('',*,*,#986,.T.);
#986 = EDGE_CURVE('',#536,#243,#987,.T.);
#987 = LINE('',#988,#989);
#988 = CARTESIAN_POINT('',(19.25,38.1,-3.));
#989 = VECTOR('',#990,1.);
#990 = DIRECTION('',(0.,0.,1.));
#991 = ORIENTED_EDGE('',*,*,#242,.F.);
#992 = PLANE('',#993);
#993 = AXIS2_PLACEMENT_3D('',#994,#995,#996);
#994 = CARTESIAN_POINT('',(19.25,38.1,-3.));
#995 = DIRECTION('',(-1.,2.22044604925E-16,0.));
#996 = DIRECTION('',(0.,0.,1.));
#997 = ADVANCED_FACE('',(#998),#1009,.F.);
#998 = FACE_BOUND('',#999,.F.);
#999 = EDGE_LOOP('',(#1000,#1001,#1002,#1008));
#1000 = ORIENTED_EDGE('',*,*,#969,.F.);
#1001 = ORIENTED_EDGE('',*,*,#585,.T.);
#1002 = ORIENTED_EDGE('',*,*,#1003,.T.);
#1003 = EDGE_CURVE('',#577,#284,#1004,.T.);
#1004 = LINE('',#1005,#1006);
#1005 = CARTESIAN_POINT('',(-19.25,38.1,-3.));
#1006 = VECTOR('',#1007,1.);
#1007 = DIRECTION('',(0.,0.,1.));
#1008 = ORIENTED_EDGE('',*,*,#292,.F.);
#1009 = PLANE('',#1010);
#1010 = AXIS2_PLACEMENT_3D('',#1011,#1012,#1013);
#1011 = CARTESIAN_POINT('',(-19.25,38.1,-3.));
#1012 = DIRECTION('',(-1.,2.22044604925E-16,0.));
#1013 = DIRECTION('',(0.,0.,1.));
#1014 = ADVANCED_FACE('',(#1015),#1026,.F.);
#1015 = FACE_BOUND('',#1016,.F.);
#1016 = EDGE_LOOP('',(#1017,#1018,#1024,#1025));
#1017 = ORIENTED_EDGE('',*,*,#250,.F.);
#1018 = ORIENTED_EDGE('',*,*,#1019,.F.);
#1019 = EDGE_CURVE('',#544,#251,#1020,.T.);
#1020 = LINE('',#1021,#1022);
#1021 = CARTESIAN_POINT('',(5.,19.510688554979,-3.));
#1022 = VECTOR('',#1023,1.);
#1023 = DIRECTION('',(0.,0.,1.));
#1024 = ORIENTED_EDGE('',*,*,#543,.T.);
#1025 = ORIENTED_EDGE('',*,*,#986,.T.);
#1026 = CYLINDRICAL_SURFACE('',#1027,19.25);
#1027 = AXIS2_PLACEMENT_3D('',#1028,#1029,#1030);
#1028 = CARTESIAN_POINT('',(2.332952152376E-15,38.1,-3.));
#1029 = DIRECTION('',(0.,0.,1.));
#1030 = DIRECTION('',(2.22044604925E-16,1.,0.));
#1031 = ADVANCED_FACE('',(#1032),#1043,.F.);
#1032 = FACE_BOUND('',#1033,.F.);
#1033 = EDGE_LOOP('',(#1034,#1035,#1036,#1037));
#1034 = ORIENTED_EDGE('',*,*,#283,.F.);
#1035 = ORIENTED_EDGE('',*,*,#1003,.F.);
#1036 = ORIENTED_EDGE('',*,*,#576,.T.);
#1037 = ORIENTED_EDGE('',*,*,#1038,.T.);
#1038 = EDGE_CURVE('',#569,#276,#1039,.T.);
#1039 = LINE('',#1040,#1041);
#1040 = CARTESIAN_POINT('',(-5.,19.510688554979,-3.));
#1041 = VECTOR('',#1042,1.);
#1042 = DIRECTION('',(0.,0.,1.));
#1043 = CYLINDRICAL_SURFACE('',#1044,19.25);
#1044 = AXIS2_PLACEMENT_3D('',#1045,#1046,#1047);
#1045 = CARTESIAN_POINT('',(2.332952152376E-15,38.1,-3.));
#1046 = DIRECTION('',(0.,0.,1.));
#1047 = DIRECTION('',(2.22044604925E-16,1.,0.));
#1048 = ADVANCED_FACE('',(#1049),#1060,.T.);
#1049 = FACE_BOUND('',#1050,.T.);
#1050 = EDGE_LOOP('',(#1051,#1052,#1058,#1059));
#1051 = ORIENTED_EDGE('',*,*,#552,.T.);
#1052 = ORIENTED_EDGE('',*,*,#1053,.T.);
#1053 = EDGE_CURVE('',#553,#260,#1054,.T.);
#1054 = LINE('',#1055,#1056);
#1055 = CARTESIAN_POINT('',(5.,14.5,-3.));
#1056 = VECTOR('',#1057,1.);
#1057 = DIRECTION('',(0.,0.,1.));
#1058 = ORIENTED_EDGE('',*,*,#259,.F.);
#1059 = ORIENTED_EDGE('',*,*,#1019,.F.);
#1060 = PLANE('',#1061);
#1061 = AXIS2_PLACEMENT_3D('',#1062,#1063,#1064);
#1062 = CARTESIAN_POINT('',(5.,14.5,-3.));
#1063 = DIRECTION('',(-1.,2.22044604925E-16,0.));
#1064 = DIRECTION('',(0.,0.,1.));
#1065 = ADVANCED_FACE('',(#1066),#1077,.F.);
#1066 = FACE_BOUND('',#1067,.F.);
#1067 = EDGE_LOOP('',(#1068,#1069,#1075,#1076));
#1068 = ORIENTED_EDGE('',*,*,#568,.T.);
#1069 = ORIENTED_EDGE('',*,*,#1070,.T.);
#1070 = EDGE_CURVE('',#561,#268,#1071,.T.);
#1071 = LINE('',#1072,#1073);
#1072 = CARTESIAN_POINT('',(-5.,14.5,-3.));
#1073 = VECTOR('',#1074,1.);
#1074 = DIRECTION('',(0.,0.,1.));
#1075 = ORIENTED_EDGE('',*,*,#275,.F.);
#1076 = ORIENTED_EDGE('',*,*,#1038,.F.);
#1077 = PLANE('',#1078);
#1078 = AXIS2_PLACEMENT_3D('',#1079,#1080,#1081);
#1079 = CARTESIAN_POINT('',(-5.,14.5,-3.));
#1080 = DIRECTION('',(-1.,2.22044604925E-16,0.));
#1081 = DIRECTION('',(0.,0.,1.));
#1082 = ADVANCED_FACE('',(#1083),#1089,.T.);
#1083 = FACE_BOUND('',#1084,.T.);
#1084 = EDGE_LOOP('',(#1085,#1086,#1087,#1088));
#1085 = ORIENTED_EDGE('',*,*,#1053,.F.);
#1086 = ORIENTED_EDGE('',*,*,#560,.T.);
#1087 = ORIENTED_EDGE('',*,*,#1070,.T.);
#1088 = ORIENTED_EDGE('',*,*,#267,.F.);
#1089 = PLANE('',#1090);
#1090 = AXIS2_PLACEMENT_3D('',#1091,#1092,#1093);
#1091 = CARTESIAN_POINT('',(5.,14.5,-3.));
#1092 = DIRECTION('',(2.22044604925E-16,1.,0.));
#1093 = DIRECTION('',(0.,0.,1.));
#1094 = ADVANCED_FACE('',(#1095),#1114,.F.);
#1095 = FACE_BOUND('',#1096,.F.);
#1096 = EDGE_LOOP('',(#1097,#1106,#1112,#1113));
#1097 = ORIENTED_EDGE('',*,*,#1098,.T.);
#1098 = EDGE_CURVE('',#1099,#1099,#1101,.T.);
#1099 = VERTEX_POINT('',#1100);
#1100 = CARTESIAN_POINT('',(14.,11.4,1.59));
#1101 = CIRCLE('',#1102,1.7);
#1102 = AXIS2_PLACEMENT_3D('',#1103,#1104,#1105);
#1103 = CARTESIAN_POINT('',(14.,9.7,1.59));
#1104 = DIRECTION('',(0.,-0.,1.));
#1105 = DIRECTION('',(2.22044604925E-16,1.,0.));
#1106 = ORIENTED_EDGE('',*,*,#1107,.T.);
#1107 = EDGE_CURVE('',#1099,#301,#1108,.T.);
#1108 = LINE('',#1109,#1110);
#1109 = CARTESIAN_POINT('',(14.,11.4,-1.));
#1110 = VECTOR('',#1111,1.);
#1111 = DIRECTION('',(0.,0.,1.));
#1112 = ORIENTED_EDGE('',*,*,#300,.F.);
#1113 = ORIENTED_EDGE('',*,*,#1107,.F.);
#1114 = CYLINDRICAL_SURFACE('',#1115,1.7);
#1115 = AXIS2_PLACEMENT_3D('',#1116,#1117,#1118);
#1116 = CARTESIAN_POINT('',(14.,9.7,-1.));
#1117 = DIRECTION('',(0.,0.,1.));
#1118 = DIRECTION('',(2.22044604925E-16,1.,0.));
#1119 = ADVANCED_FACE('',(#1120),#1131,.F.);
#1120 = FACE_BOUND('',#1121,.F.);
#1121 = EDGE_LOOP('',(#1122,#1123,#1129,#1130));
#1122 = ORIENTED_EDGE('',*,*,#311,.F.);
#1123 = ORIENTED_EDGE('',*,*,#1124,.F.);
#1124 = EDGE_CURVE('',#605,#312,#1125,.T.);
#1125 = LINE('',#1126,#1127);
#1126 = CARTESIAN_POINT('',(42.8,17.,-1.));
#1127 = VECTOR('',#1128,1.);
#1128 = DIRECTION('',(0.,0.,1.));
#1129 = ORIENTED_EDGE('',*,*,#604,.T.);
#1130 = ORIENTED_EDGE('',*,*,#1124,.T.);
#1131 = CYLINDRICAL_SURFACE('',#1132,0.8);
#1132 = AXIS2_PLACEMENT_3D('',#1133,#1134,#1135);
#1133 = CARTESIAN_POINT('',(42.,17.,-1.));
#1134 = DIRECTION('',(0.,0.,1.));
#1135 = DIRECTION('',(1.,0.,0.));
#1136 = ADVANCED_FACE('',(#1137),#1148,.F.);
#1137 = FACE_BOUND('',#1138,.F.);
#1138 = EDGE_LOOP('',(#1139,#1140,#1146,#1147));
#1139 = ORIENTED_EDGE('',*,*,#322,.F.);
#1140 = ORIENTED_EDGE('',*,*,#1141,.F.);
#1141 = EDGE_CURVE('',#616,#323,#1142,.T.);
#1142 = LINE('',#1143,#1144);
#1143 = CARTESIAN_POINT('',(49.8,17.,-1.));
#1144 = VECTOR('',#1145,1.);
#1145 = DIRECTION('',(0.,0.,1.));
#1146 = ORIENTED_EDGE('',*,*,#615,.T.);
#1147 = ORIENTED_EDGE('',*,*,#1141,.T.);
#1148 = CYLINDRICAL_SURFACE('',#1149,0.8);
#1149 = AXIS2_PLACEMENT_3D('',#1150,#1151,#1152);
#1150 = CARTESIAN_POINT('',(49.,17.,-1.));
#1151 = DIRECTION('',(0.,0.,1.));
#1152 = DIRECTION('',(1.,0.,0.));
#1153 = ADVANCED_FACE('',(#1154),#1165,.F.);
#1154 = FACE_BOUND('',#1155,.F.);
#1155 = EDGE_LOOP('',(#1156,#1162,#1163,#1164));
#1156 = ORIENTED_EDGE('',*,*,#1157,.T.);
#1157 = EDGE_CURVE('',#382,#662,#1158,.T.);
#1158 = LINE('',#1159,#1160);
#1159 = CARTESIAN_POINT('',(-20.75,-30.,-1.E-02));
#1160 = VECTOR('',#1161,1.);
#1161 = DIRECTION('',(-0.695795215827,1.704206767849E-16,0.718240222789)
  );
#1162 = ORIENTED_EDGE('',*,*,#661,.F.);
#1163 = ORIENTED_EDGE('',*,*,#1157,.F.);
#1164 = ORIENTED_EDGE('',*,*,#381,.T.);
#1165 = CONICAL_SURFACE('',#1166,3.25,0.769526480406);
#1166 = AXIS2_PLACEMENT_3D('',#1167,#1168,#1169);
#1167 = CARTESIAN_POINT('',(-24.,-30.,-1.E-02));
#1168 = DIRECTION('',(-0.,-0.,-1.));
#1169 = DIRECTION('',(1.,0.,-0.));
#1170 = ADVANCED_FACE('',(#1171),#1182,.F.);
#1171 = FACE_BOUND('',#1172,.F.);
#1172 = EDGE_LOOP('',(#1173,#1179,#1180,#1181));
#1173 = ORIENTED_EDGE('',*,*,#1174,.T.);
#1174 = EDGE_CURVE('',#393,#687,#1175,.T.);
#1175 = LINE('',#1176,#1177);
#1176 = CARTESIAN_POINT('',(-23.77227722291,-50.97981302081,-1.E-02));
#1177 = VECTOR('',#1178,1.);
#1178 = DIRECTION('',(0.29405576464,0.630604622287,0.718240222789));
#1179 = ORIENTED_EDGE('',*,*,#686,.F.);
#1180 = ORIENTED_EDGE('',*,*,#1174,.F.);
#1181 = ORIENTED_EDGE('',*,*,#392,.T.);
#1182 = CONICAL_SURFACE('',#1183,3.25,0.769526480406);
#1183 = AXIS2_PLACEMENT_3D('',#1184,#1185,#1186);
#1184 = CARTESIAN_POINT('',(-22.39876787225,-48.03431271294,-1.E-02));
#1185 = DIRECTION('',(0.,0.,-1.));
#1186 = DIRECTION('',(-0.422618261741,-0.906307787037,0.));
#1187 = ADVANCED_FACE('',(#1188),#1199,.F.);
#1188 = FACE_BOUND('',#1189,.F.);
#1189 = EDGE_LOOP('',(#1190,#1196,#1197,#1198));
#1190 = ORIENTED_EDGE('',*,*,#1191,.T.);
#1191 = EDGE_CURVE('',#404,#712,#1192,.T.);
#1192 = LINE('',#1193,#1194);
#1193 = CARTESIAN_POINT('',(-26.11804290775,0.296369142326,-1.E-02));
#1194 = VECTOR('',#1195,1.);
#1195 = DIRECTION('',(0.596629434185,-0.317233497363,0.737154140201));
#1196 = ORIENTED_EDGE('',*,*,#711,.F.);
#1197 = ORIENTED_EDGE('',*,*,#1191,.F.);
#1198 = ORIENTED_EDGE('',*,*,#403,.T.);
#1199 = CONICAL_SURFACE('',#1200,2.2,0.741947268006);
#1200 = AXIS2_PLACEMENT_3D('',#1201,#1202,#1203);
#1201 = CARTESIAN_POINT('',(-24.17555820346,-0.736468295803,-1.E-02));
#1202 = DIRECTION('',(0.,0.,-1.));
#1203 = DIRECTION('',(-0.882947592859,0.469471562786,0.));
#1204 = ADVANCED_FACE('',(#1205),#1216,.F.);
#1205 = FACE_BOUND('',#1206,.F.);
#1206 = EDGE_LOOP('',(#1207,#1213,#1214,#1215));
#1207 = ORIENTED_EDGE('',*,*,#1208,.T.);
#1208 = EDGE_CURVE('',#415,#737,#1209,.T.);
#1209 = LINE('',#1210,#1211);
#1210 = CARTESIAN_POINT('',(27.25,-30.,-1.E-02));
#1211 = VECTOR('',#1212,1.);
#1212 = DIRECTION('',(-0.695795215827,1.704206767849E-16,0.718240222789)
  );
#1213 = ORIENTED_EDGE('',*,*,#736,.F.);
#1214 = ORIENTED_EDGE('',*,*,#1208,.F.);
#1215 = ORIENTED_EDGE('',*,*,#414,.T.);
#1216 = CONICAL_SURFACE('',#1217,3.25,0.769526480406);
#1217 = AXIS2_PLACEMENT_3D('',#1218,#1219,#1220);
#1218 = CARTESIAN_POINT('',(24.,-30.,-1.E-02));
#1219 = DIRECTION('',(-0.,-0.,-1.));
#1220 = DIRECTION('',(1.,0.,-0.));
#1221 = ADVANCED_FACE('',(#1222),#1233,.F.);
#1222 = FACE_BOUND('',#1223,.F.);
#1223 = EDGE_LOOP('',(#1224,#1230,#1231,#1232));
#1224 = ORIENTED_EDGE('',*,*,#1225,.T.);
#1225 = EDGE_CURVE('',#426,#762,#1226,.T.);
#1226 = LINE('',#1227,#1228);
#1227 = CARTESIAN_POINT('',(49.665802098315,-26.4077754067,-1.E-02));
#1228 = VECTOR('',#1229,1.);
#1229 = DIRECTION('',(-0.614350710937,0.326656067353,0.718240222789));
#1230 = ORIENTED_EDGE('',*,*,#761,.F.);
#1231 = ORIENTED_EDGE('',*,*,#1225,.F.);
#1232 = ORIENTED_EDGE('',*,*,#425,.T.);
#1233 = CONICAL_SURFACE('',#1234,3.25,0.769526480406);
#1234 = AXIS2_PLACEMENT_3D('',#1235,#1236,#1237);
#1235 = CARTESIAN_POINT('',(46.796222421523,-24.88199282765,-1.E-02));
#1236 = DIRECTION('',(-0.,0.,-1.));
#1237 = DIRECTION('',(0.882947592859,-0.469471562786,0.));
#1238 = ADVANCED_FACE('',(#1239),#1250,.F.);
#1239 = FACE_BOUND('',#1240,.F.);
#1240 = EDGE_LOOP('',(#1241,#1247,#1248,#1249));
#1241 = ORIENTED_EDGE('',*,*,#1242,.T.);
#1242 = EDGE_CURVE('',#470,#838,#1243,.T.);
#1243 = LINE('',#1244,#1245);
#1244 = CARTESIAN_POINT('',(-47.30878513637,11.563686649187,-1.E-02));
#1245 = VECTOR('',#1246,1.);
#1246 = DIRECTION('',(0.596629434185,-0.317233497363,0.737154140201));
#1247 = ORIENTED_EDGE('',*,*,#837,.F.);
#1248 = ORIENTED_EDGE('',*,*,#1242,.F.);
#1249 = ORIENTED_EDGE('',*,*,#469,.T.);
#1250 = CONICAL_SURFACE('',#1251,2.2,0.741947268006);
#1251 = AXIS2_PLACEMENT_3D('',#1252,#1253,#1254);
#1252 = CARTESIAN_POINT('',(-45.36630043208,10.530849211058,-1.E-02));
#1253 = DIRECTION('',(0.,0.,-1.));
#1254 = DIRECTION('',(-0.882947592859,0.469471562786,0.));
#1255 = ADVANCED_FACE('',(#1256),#1267,.F.);
#1256 = FACE_BOUND('',#1257,.F.);
#1257 = EDGE_LOOP('',(#1258,#1264,#1265,#1266));
#1258 = ORIENTED_EDGE('',*,*,#1259,.T.);
#1259 = EDGE_CURVE('',#481,#863,#1260,.T.);
#1260 = LINE('',#1261,#1262);
#1261 = CARTESIAN_POINT('',(-36.04146762951,32.754428877801,-1.E-02));
#1262 = VECTOR('',#1263,1.);
#1263 = DIRECTION('',(0.596629434185,-0.317233497363,0.737154140201));
#1264 = ORIENTED_EDGE('',*,*,#862,.F.);
#1265 = ORIENTED_EDGE('',*,*,#1259,.F.);
#1266 = ORIENTED_EDGE('',*,*,#480,.T.);
#1267 = CONICAL_SURFACE('',#1268,2.2,0.741947268006);
#1268 = AXIS2_PLACEMENT_3D('',#1269,#1270,#1271);
#1269 = CARTESIAN_POINT('',(-34.09898292522,31.721591439672,-1.E-02));
#1270 = DIRECTION('',(0.,0.,-1.));
#1271 = DIRECTION('',(-0.882947592859,0.469471562786,0.));
#1272 = ADVANCED_FACE('',(#1273),#1284,.F.);
#1273 = FACE_BOUND('',#1274,.F.);
#1274 = EDGE_LOOP('',(#1275,#1281,#1282,#1283));
#1275 = ORIENTED_EDGE('',*,*,#1276,.T.);
#1276 = EDGE_CURVE('',#492,#888,#1277,.T.);
#1277 = LINE('',#1278,#1279);
#1278 = CARTESIAN_POINT('',(-14.,12.95,-1.E-02));
#1279 = VECTOR('',#1280,1.);
#1280 = DIRECTION('',(-3.24918250592E-16,-0.695795215827,0.718240222789)
  );
#1281 = ORIENTED_EDGE('',*,*,#887,.F.);
#1282 = ORIENTED_EDGE('',*,*,#1276,.F.);
#1283 = ORIENTED_EDGE('',*,*,#491,.T.);
#1284 = CONICAL_SURFACE('',#1285,3.25,0.769526480406);
#1285 = AXIS2_PLACEMENT_3D('',#1286,#1287,#1288);
#1286 = CARTESIAN_POINT('',(-14.,9.7,-1.E-02));
#1287 = DIRECTION('',(0.,0.,-1.));
#1288 = DIRECTION('',(2.22044604925E-16,1.,0.));
#1289 = ADVANCED_FACE('',(#1290),#1301,.F.);
#1290 = FACE_BOUND('',#1291,.F.);
#1291 = EDGE_LOOP('',(#1292,#1298,#1299,#1300));
#1292 = ORIENTED_EDGE('',*,*,#1293,.T.);
#1293 = EDGE_CURVE('',#503,#913,#1294,.T.);
#1294 = LINE('',#1295,#1296);
#1295 = CARTESIAN_POINT('',(-14.85072540089,21.48711137094,-1.E-02));
#1296 = VECTOR('',#1297,1.);
#1297 = DIRECTION('',(0.596629434185,-0.317233497363,0.737154140201));
#1298 = ORIENTED_EDGE('',*,*,#912,.F.);
#1299 = ORIENTED_EDGE('',*,*,#1293,.F.);
#1300 = ORIENTED_EDGE('',*,*,#502,.T.);
#1301 = CONICAL_SURFACE('',#1302,2.2,0.741947268006);
#1302 = AXIS2_PLACEMENT_3D('',#1303,#1304,#1305);
#1303 = CARTESIAN_POINT('',(-12.9082406966,20.454273932811,-1.E-02));
#1304 = DIRECTION('',(0.,0.,-1.));
#1305 = DIRECTION('',(-0.882947592859,0.469471562786,0.));
#1306 = ADVANCED_FACE('',(#1307),#1318,.F.);
#1307 = FACE_BOUND('',#1308,.F.);
#1308 = EDGE_LOOP('',(#1309,#1315,#1316,#1317));
#1309 = ORIENTED_EDGE('',*,*,#1310,.T.);
#1310 = EDGE_CURVE('',#514,#938,#1311,.T.);
#1311 = LINE('',#1312,#1313);
#1312 = CARTESIAN_POINT('',(-32.26367454474,46.077302491256,-1.E-02));
#1313 = VECTOR('',#1314,1.);
#1314 = DIRECTION('',(0.399091740324,-0.569962073451,0.718240222789));
#1315 = ORIENTED_EDGE('',*,*,#937,.F.);
#1316 = ORIENTED_EDGE('',*,*,#1310,.F.);
#1317 = ORIENTED_EDGE('',*,*,#513,.T.);
#1318 = CONICAL_SURFACE('',#1319,3.25,0.769526480406);
#1319 = AXIS2_PLACEMENT_3D('',#1320,#1321,#1322);
#1320 = CARTESIAN_POINT('',(-30.3995511266,43.415058347317,-1.E-02));
#1321 = DIRECTION('',(0.,0.,-1.));
#1322 = DIRECTION('',(-0.573576436351,0.819152044289,0.));
#1323 = ADVANCED_FACE('',(#1324),#1335,.F.);
#1324 = FACE_BOUND('',#1325,.F.);
#1325 = EDGE_LOOP('',(#1326,#1332,#1333,#1334));
#1326 = ORIENTED_EDGE('',*,*,#1327,.T.);
#1327 = EDGE_CURVE('',#594,#1099,#1328,.T.);
#1328 = LINE('',#1329,#1330);
#1329 = CARTESIAN_POINT('',(14.,12.95,-1.E-02));
#1330 = VECTOR('',#1331,1.);
#1331 = DIRECTION('',(-3.24918250592E-16,-0.695795215827,0.718240222789)
  );
#1332 = ORIENTED_EDGE('',*,*,#1098,.F.);
#1333 = ORIENTED_EDGE('',*,*,#1327,.F.);
#1334 = ORIENTED_EDGE('',*,*,#593,.T.);
#1335 = CONICAL_SURFACE('',#1336,3.25,0.769526480406);
#1336 = AXIS2_PLACEMENT_3D('',#1337,#1338,#1339);
#1337 = CARTESIAN_POINT('',(14.,9.7,-1.E-02));
#1338 = DIRECTION('',(0.,0.,-1.));
#1339 = DIRECTION('',(2.22044604925E-16,1.,0.));
#1340 = ( GEOMETRIC_REPRESENTATION_CONTEXT(3) 
GLOBAL_UNCERTAINTY_ASSIGNED_CONTEXT((#1344)) 
GLOBAL_UNIT_ASSIGNED_CONTEXT((#1341,#1342,#1343)) REPRESENTATION_CONTEXT
('Context #1','3D Context with UNIT and UNCERTAINTY') );
#1341 = ( LENGTH_UNIT() NAMED_UNIT(*) SI_UNIT(.MILLI.,.METRE.) );
#1342 = ( NAMED_UNIT(*) PLANE_ANGLE_UNIT() SI_UNIT($,.RADIAN.) );
#1343 = ( NAMED_UNIT(*) SI_UNIT($,.STERADIAN.) SOLID_ANGLE_UNIT() );
#1344 = UNCERTAINTY_MEASURE_WITH_UNIT(LENGTH_MEASURE(1.E-07),#1341,
  'distance_accuracy_value','confusion accuracy');
#1345 = PRODUCT_RELATED_PRODUCT_CATEGORY('part',$,(#7));
ENDSEC;
END-ISO-10303-21;
