ISO-10303-21;
HEADER;
/* Generated by software containing ST-Developer
 * from STEP Tools, Inc. (www.steptools.com) 
 */

FILE_DESCRIPTION(
/* description */ (''),
/* implementation_level */ '2;1');

FILE_NAME(
/* name */ 'pad.step',
/* time_stamp */ '2026-09-04T13:07:42+01:00',
/* author */ (''),
/* organization */ (''),
/* preprocessor_version */ 'ST-DEVELOPER v20.1',
/* originating_system */ 'Autodesk Translation Framework v15.8.0.0',
/* authorisation */ '');

FILE_SCHEMA (('AUTOMOTIVE_DESIGN { 1 0 10303 214 3 1 1 }'));
ENDSEC;

DATA;
#10=MECHANICAL_DESIGN_GEOMETRIC_PRESENTATION_REPRESENTATION('',(#13),#185);
#11=SHAPE_REPRESENTATION_RELATIONSHIP('SRR','None',#192,#12);
#12=ADVANCED_BREP_SHAPE_REPRESENTATION('',(#14),#184);
#13=STYLED_ITEM('',(#201),#14);
#14=MANIFOLD_SOLID_BREP('Body1',#103);
#15=LINE('',#167,#23);
#16=LINE('',#169,#24);
#17=LINE('',#170,#25);
#18=LINE('',#173,#26);
#19=LINE('',#174,#27);
#20=LINE('',#177,#28);
#21=LINE('',#178,#29);
#22=LINE('',#180,#30);
#23=VECTOR('',#135,1.);
#24=VECTOR('',#136,1.);
#25=VECTOR('',#137,1.);
#26=VECTOR('',#140,1.);
#27=VECTOR('',#141,1.);
#28=VECTOR('',#144,1.);
#29=VECTOR('',#145,1.);
#30=VECTOR('',#148,1.);
#31=PLANE('',#120);
#32=PLANE('',#121);
#33=PLANE('',#122);
#34=PLANE('',#123);
#35=PLANE('',#124);
#36=FACE_OUTER_BOUND('',#42,.T.);
#37=FACE_OUTER_BOUND('',#43,.T.);
#38=FACE_OUTER_BOUND('',#44,.T.);
#39=FACE_OUTER_BOUND('',#45,.T.);
#40=FACE_OUTER_BOUND('',#46,.T.);
#41=FACE_OUTER_BOUND('',#47,.T.);
#42=EDGE_LOOP('',(#72,#73,#74,#75));
#43=EDGE_LOOP('',(#76,#77,#78,#79));
#44=EDGE_LOOP('',(#80,#81,#82,#83));
#45=EDGE_LOOP('',(#84,#85,#86,#87));
#46=EDGE_LOOP('',(#88,#89,#90,#91));
#47=EDGE_LOOP('',(#92,#93,#94,#95));
#48=(
BOUNDED_CURVE()
B_SPLINE_CURVE(2,(#157,#158,#159),.UNSPECIFIED.,.F.,.F.)
B_SPLINE_CURVE_WITH_KNOTS((3,3),(232.132094956996,233.21735544798),
 .UNSPECIFIED.)
CURVE()
GEOMETRIC_REPRESENTATION_ITEM()
RATIONAL_B_SPLINE_CURVE((26.1818181818196,26.2330568696964,26.2842242503276))
REPRESENTATION_ITEM('')
);
#49=(
BOUNDED_CURVE()
B_SPLINE_CURVE(2,(#162,#163,#164),.UNSPECIFIED.,.F.,.F.)
B_SPLINE_CURVE_WITH_KNOTS((3,3),(232.132094956996,233.21735544798),
 .UNSPECIFIED.)
CURVE()
GEOMETRIC_REPRESENTATION_ITEM()
RATIONAL_B_SPLINE_CURVE((26.1818181818196,26.2330568696964,26.2842242503276))
REPRESENTATION_ITEM('')
);
#50=CIRCLE('',#118,61.);
#51=CIRCLE('',#119,60.7);
#52=VERTEX_POINT('',#153);
#53=VERTEX_POINT('',#154);
#54=VERTEX_POINT('',#156);
#55=VERTEX_POINT('',#160);
#56=VERTEX_POINT('',#166);
#57=VERTEX_POINT('',#168);
#58=VERTEX_POINT('',#172);
#59=VERTEX_POINT('',#176);
#60=EDGE_CURVE('',#52,#53,#50,.T.);
#61=EDGE_CURVE('',#54,#52,#48,.F.);
#62=EDGE_CURVE('',#54,#55,#51,.T.);
#63=EDGE_CURVE('',#55,#53,#49,.F.);
#64=EDGE_CURVE('',#52,#56,#15,.T.);
#65=EDGE_CURVE('',#53,#57,#16,.T.);
#66=EDGE_CURVE('',#57,#56,#17,.T.);
#67=EDGE_CURVE('',#55,#58,#18,.T.);
#68=EDGE_CURVE('',#58,#57,#19,.T.);
#69=EDGE_CURVE('',#54,#59,#20,.T.);
#70=EDGE_CURVE('',#58,#59,#21,.T.);
#71=EDGE_CURVE('',#59,#56,#22,.T.);
#72=ORIENTED_EDGE('',*,*,#60,.F.);
#73=ORIENTED_EDGE('',*,*,#61,.F.);
#74=ORIENTED_EDGE('',*,*,#62,.T.);
#75=ORIENTED_EDGE('',*,*,#63,.T.);
#76=ORIENTED_EDGE('',*,*,#64,.F.);
#77=ORIENTED_EDGE('',*,*,#60,.T.);
#78=ORIENTED_EDGE('',*,*,#65,.T.);
#79=ORIENTED_EDGE('',*,*,#66,.T.);
#80=ORIENTED_EDGE('',*,*,#67,.T.);
#81=ORIENTED_EDGE('',*,*,#68,.T.);
#82=ORIENTED_EDGE('',*,*,#65,.F.);
#83=ORIENTED_EDGE('',*,*,#63,.F.);
#84=ORIENTED_EDGE('',*,*,#69,.T.);
#85=ORIENTED_EDGE('',*,*,#70,.F.);
#86=ORIENTED_EDGE('',*,*,#67,.F.);
#87=ORIENTED_EDGE('',*,*,#62,.F.);
#88=ORIENTED_EDGE('',*,*,#69,.F.);
#89=ORIENTED_EDGE('',*,*,#61,.T.);
#90=ORIENTED_EDGE('',*,*,#64,.T.);
#91=ORIENTED_EDGE('',*,*,#71,.F.);
#92=ORIENTED_EDGE('',*,*,#68,.F.);
#93=ORIENTED_EDGE('',*,*,#70,.T.);
#94=ORIENTED_EDGE('',*,*,#71,.T.);
#95=ORIENTED_EDGE('',*,*,#66,.F.);
#96=CONICAL_SURFACE('',#117,60.7,0.19739555985);
#97=ADVANCED_FACE('',(#36),#96,.T.);
#98=ADVANCED_FACE('',(#37),#31,.T.);
#99=ADVANCED_FACE('',(#38),#32,.T.);
#100=ADVANCED_FACE('',(#39),#33,.F.);
#101=ADVANCED_FACE('',(#40),#34,.F.);
#102=ADVANCED_FACE('',(#41),#35,.T.);
#103=CLOSED_SHELL('',(#97,#98,#99,#100,#101,#102));
#104=DERIVED_UNIT_ELEMENT(#106,1.);
#105=DERIVED_UNIT_ELEMENT(#187,-3.);
#106=(
MASS_UNIT()
NAMED_UNIT(*)
SI_UNIT(.KILO.,.GRAM.)
);
#107=DERIVED_UNIT((#104,#105));
#108=MEASURE_REPRESENTATION_ITEM('density measure',
POSITIVE_RATIO_MEASURE(3400.),#107);
#109=PROPERTY_DEFINITION_REPRESENTATION(#114,#111);
#110=PROPERTY_DEFINITION_REPRESENTATION(#115,#112);
#111=REPRESENTATION('material name',(#113),#184);
#112=REPRESENTATION('density',(#108),#184);
#113=DESCRIPTIVE_REPRESENTATION_ITEM('Porcelain','Porcelain');
#114=PROPERTY_DEFINITION('material property','material name',#194);
#115=PROPERTY_DEFINITION('material property','density of part',#194);
#116=AXIS2_PLACEMENT_3D('',#151,#125,#126);
#117=AXIS2_PLACEMENT_3D('',#152,#127,#128);
#118=AXIS2_PLACEMENT_3D('',#155,#129,#130);
#119=AXIS2_PLACEMENT_3D('',#161,#131,#132);
#120=AXIS2_PLACEMENT_3D('',#165,#133,#134);
#121=AXIS2_PLACEMENT_3D('',#171,#138,#139);
#122=AXIS2_PLACEMENT_3D('',#175,#142,#143);
#123=AXIS2_PLACEMENT_3D('',#179,#146,#147);
#124=AXIS2_PLACEMENT_3D('',#181,#149,#150);
#125=DIRECTION('axis',(0.,0.,1.));
#126=DIRECTION('refdir',(1.,0.,0.));
#127=DIRECTION('center_axis',(0.,0.,1.));
#128=DIRECTION('ref_axis',(-1.,1.22464679914735E-16,0.));
#129=DIRECTION('center_axis',(0.,0.,1.));
#130=DIRECTION('ref_axis',(1.,0.,0.));
#131=DIRECTION('center_axis',(0.,0.,1.));
#132=DIRECTION('ref_axis',(1.,0.,0.));
#133=DIRECTION('center_axis',(0.,0.,1.));
#134=DIRECTION('ref_axis',(1.,0.,0.));
#135=DIRECTION('',(-1.,0.,0.));
#136=DIRECTION('',(-1.,0.,0.));
#137=DIRECTION('',(0.,1.,0.));
#138=DIRECTION('center_axis',(0.,1.,0.));
#139=DIRECTION('ref_axis',(0.,0.,1.));
#140=DIRECTION('',(-1.,0.,0.));
#141=DIRECTION('',(0.,0.,1.));
#142=DIRECTION('center_axis',(0.,0.,1.));
#143=DIRECTION('ref_axis',(1.,0.,0.));
#144=DIRECTION('',(-1.,0.,0.));
#145=DIRECTION('',(0.,1.,0.));
#146=DIRECTION('center_axis',(0.,1.,0.));
#147=DIRECTION('ref_axis',(0.,0.,1.));
#148=DIRECTION('',(0.,0.,1.));
#149=DIRECTION('center_axis',(1.,0.,0.));
#150=DIRECTION('ref_axis',(0.,0.,1.));
#151=CARTESIAN_POINT('',(0.,0.,0.));
#152=CARTESIAN_POINT('Origin',(0.,0.,-1.5));
#153=CARTESIAN_POINT('',(58.864250611046,16.,0.));
#154=CARTESIAN_POINT('',(58.864250611046,-16.,0.));
#155=CARTESIAN_POINT('Origin',(0.,0.,0.));
#156=CARTESIAN_POINT('',(58.553309043981,16.,-1.5));
#157=CARTESIAN_POINT('Ctrl Pts',(58.864250611041,16.,-2.43337202239963E-11));
#158=CARTESIAN_POINT('Ctrl Pts',(58.7083965798909,16.,-0.751986126938927));
#159=CARTESIAN_POINT('Ctrl Pts',(58.553309043976,16.,-1.5000000000274));
#160=CARTESIAN_POINT('',(58.553309043981,-16.,-1.5));
#161=CARTESIAN_POINT('Origin',(0.,0.,-1.5));
#162=CARTESIAN_POINT('Ctrl Pts',(58.864250611041,-16.,-2.43337202239963E-11));
#163=CARTESIAN_POINT('Ctrl Pts',(58.7083965798909,-16.,-0.751986126938927));
#164=CARTESIAN_POINT('Ctrl Pts',(58.553309043976,-16.,-1.5000000000274));
#165=CARTESIAN_POINT('Origin',(0.,0.,0.));
#166=CARTESIAN_POINT('',(35.,16.,0.));
#167=CARTESIAN_POINT('',(17.5,16.,0.));
#168=CARTESIAN_POINT('',(35.,-16.,0.));
#169=CARTESIAN_POINT('',(17.5,-16.,0.));
#170=CARTESIAN_POINT('',(35.,-8.,0.));
#171=CARTESIAN_POINT('Origin',(35.,-16.,-3.));
#172=CARTESIAN_POINT('',(35.,-16.,-1.5));
#173=CARTESIAN_POINT('',(17.5,-16.,-1.5));
#174=CARTESIAN_POINT('',(35.,-16.,-3.));
#175=CARTESIAN_POINT('Origin',(0.,0.,-1.5));
#176=CARTESIAN_POINT('',(35.,16.,-1.5));
#177=CARTESIAN_POINT('',(17.5,16.,-1.5));
#178=CARTESIAN_POINT('',(35.,-8.,-1.5));
#179=CARTESIAN_POINT('Origin',(35.,16.,-3.));
#180=CARTESIAN_POINT('',(35.,16.,-3.));
#181=CARTESIAN_POINT('Origin',(35.,-16.,-3.));
#182=UNCERTAINTY_MEASURE_WITH_UNIT(LENGTH_MEASURE(0.01),#186,
'DISTANCE_ACCURACY_VALUE',
'Maximum model space distance between geometric entities at asserted c
onnectivities');
#183=UNCERTAINTY_MEASURE_WITH_UNIT(LENGTH_MEASURE(0.01),#186,
'DISTANCE_ACCURACY_VALUE',
'Maximum model space distance between geometric entities at asserted c
onnectivities');
#184=(
GEOMETRIC_REPRESENTATION_CONTEXT(3)
GLOBAL_UNCERTAINTY_ASSIGNED_CONTEXT((#182))
GLOBAL_UNIT_ASSIGNED_CONTEXT((#186,#188,#189))
REPRESENTATION_CONTEXT('','3D')
);
#185=(
GEOMETRIC_REPRESENTATION_CONTEXT(3)
GLOBAL_UNCERTAINTY_ASSIGNED_CONTEXT((#183))
GLOBAL_UNIT_ASSIGNED_CONTEXT((#186,#188,#189))
REPRESENTATION_CONTEXT('','3D')
);
#186=(
LENGTH_UNIT()
NAMED_UNIT(*)
SI_UNIT(.MILLI.,.METRE.)
);
#187=(
LENGTH_UNIT()
NAMED_UNIT(*)
SI_UNIT($,.METRE.)
);
#188=(
NAMED_UNIT(*)
PLANE_ANGLE_UNIT()
SI_UNIT($,.RADIAN.)
);
#189=(
NAMED_UNIT(*)
SI_UNIT($,.STERADIAN.)
SOLID_ANGLE_UNIT()
);
#190=SHAPE_DEFINITION_REPRESENTATION(#191,#192);
#191=PRODUCT_DEFINITION_SHAPE('',$,#194);
#192=SHAPE_REPRESENTATION('',(#116),#184);
#193=PRODUCT_DEFINITION_CONTEXT('part definition',#198,'design');
#194=PRODUCT_DEFINITION('pad','pad',#195,#193);
#195=PRODUCT_DEFINITION_FORMATION('',$,#200);
#196=PRODUCT_RELATED_PRODUCT_CATEGORY('pad','pad',(#200));
#197=APPLICATION_PROTOCOL_DEFINITION('international standard',
'automotive_design',2009,#198);
#198=APPLICATION_CONTEXT(
'Core Data for Automotive Mechanical Design Process');
#199=PRODUCT_CONTEXT('part definition',#198,'mechanical');
#200=PRODUCT('pad','pad',$,(#199));
#201=PRESENTATION_STYLE_ASSIGNMENT((#202));
#202=SURFACE_STYLE_USAGE(.BOTH.,#203);
#203=SURFACE_SIDE_STYLE('',(#204));
#204=SURFACE_STYLE_FILL_AREA(#205);
#205=FILL_AREA_STYLE('Plastic - Matte (White)',(#206));
#206=FILL_AREA_STYLE_COLOUR('Plastic - Matte (White)',#207);
#207=COLOUR_RGB('Plastic - Matte (White)',0.964705882352941,0.964705882352941,
0.952941176470588);
ENDSEC;
END-ISO-10303-21;
