ISO-10303-21;
HEADER;
FILE_DESCRIPTION(('Open CASCADE Model'),'2;1');
FILE_NAME('Open CASCADE Shape Model','2026-09-04T11:00:42',('Author'),(
    'Open CASCADE'),'Open CASCADE STEP processor 7.9','build123d',
  'Unknown');
FILE_SCHEMA(('AUTOMOTIVE_DESIGN { 1 0 10303 214 1 1 1 1 }'));
ENDSEC;
DATA;
#1 = APPLICATION_PROTOCOL_DEFINITION('international standard',
  'automotive_design',2000,#2);
#2 = APPLICATION_CONTEXT(
  'core data for automotive mechanical design processes');
#3 = SHAPE_DEFINITION_REPRESENTATION(#4,#10);
#4 = PRODUCT_DEFINITION_SHAPE('','',#5);
#5 = PRODUCT_DEFINITION('design','',#6,#9);
#6 = PRODUCT_DEFINITION_FORMATION('','',#7);
#7 = PRODUCT('=>[0:1:1:2]','=>[0:1:1:2]','',(#8));
#8 = PRODUCT_CONTEXT('',#2,'mechanical');
#9 = PRODUCT_DEFINITION_CONTEXT('part definition',#2,'design');
#10 = SHAPE_REPRESENTATION('',(#11,#15),#19);
#11 = AXIS2_PLACEMENT_3D('',#12,#13,#14);
#12 = CARTESIAN_POINT('',(0.,0.,0.));
#13 = DIRECTION('',(0.,0.,1.));
#14 = DIRECTION('',(1.,0.,-0.));
#15 = AXIS2_PLACEMENT_3D('',#16,#17,#18);
#16 = CARTESIAN_POINT('',(0.,0.,0.));
#17 = DIRECTION('',(0.,0.,1.));
#18 = DIRECTION('',(1.,0.,-0.));
#19 = ( GEOMETRIC_REPRESENTATION_CONTEXT(3) 
GLOBAL_UNCERTAINTY_ASSIGNED_CONTEXT((#23)) GLOBAL_UNIT_ASSIGNED_CONTEXT(
(#20,#21,#22)) REPRESENTATION_CONTEXT('Context #1',
  '3D Context with UNIT and UNCERTAINTY') );
#20 = ( LENGTH_UNIT() NAMED_UNIT(*) SI_UNIT(.MILLI.,.METRE.) );
#21 = ( NAMED_UNIT(*) PLANE_ANGLE_UNIT() SI_UNIT($,.RADIAN.) );
#22 = ( NAMED_UNIT(*) SI_UNIT($,.STERADIAN.) SOLID_ANGLE_UNIT() );
#23 = UNCERTAINTY_MEASURE_WITH_UNIT(LENGTH_MEASURE(2.E-07),#20,
  'distance_accuracy_value','confusion accuracy');
#24 = PRODUCT_RELATED_PRODUCT_CATEGORY('part',$,(#7));
#25 = SHAPE_DEFINITION_REPRESENTATION(#26,#32);
#26 = PRODUCT_DEFINITION_SHAPE('','',#27);
#27 = PRODUCT_DEFINITION('design','',#28,#31);
#28 = PRODUCT_DEFINITION_FORMATION('','',#29);
#29 = PRODUCT('COMPOUND','COMPOUND','',(#30));
#30 = PRODUCT_CONTEXT('',#2,'mechanical');
#31 = PRODUCT_DEFINITION_CONTEXT('part definition',#2,'design');
#32 = ADVANCED_BREP_SHAPE_REPRESENTATION('',(#11,#33),#1534);
#33 = MANIFOLD_SOLID_BREP('',#34);
#34 = CLOSED_SHELL('',(#35,#333,#357,#408,#426,#444,#479,#490,#517,#544,
    #555,#644,#716,#732,#755,#820,#892,#908,#931,#996,#1068,#1084,#1107,
    #1172,#1189,#1206,#1223,#1240,#1262,#1279,#1296,#1313,#1325,#1338,
    #1360,#1377,#1394,#1411,#1423,#1436,#1458,#1475,#1492,#1509,#1521));
#35 = ADVANCED_FACE('',(#36),#328,.T.);
#36 = FACE_BOUND('',#37,.T.);
#37 = EDGE_LOOP('',(#38,#48,#57,#65,#74,#82,#91,#99,#108,#117,#125,#134,
    #142,#151,#160,#168,#177,#185,#194,#203,#211,#218,#219,#228,#236,
    #245,#253,#262,#270,#279,#287,#296,#304,#313,#321));
#38 = ORIENTED_EDGE('',*,*,#39,.T.);
#39 = EDGE_CURVE('',#40,#42,#44,.T.);
#40 = VERTEX_POINT('',#41);
#41 = CARTESIAN_POINT('',(22.976875,-3.866938741999,0.));
#42 = VERTEX_POINT('',#43);
#43 = CARTESIAN_POINT('',(22.976875,-3.866938741999,2.));
#44 = LINE('',#45,#46);
#45 = CARTESIAN_POINT('',(22.976875,-3.866938741999,0.));
#46 = VECTOR('',#47,1.);
#47 = DIRECTION('',(0.,0.,1.));
#48 = ORIENTED_EDGE('',*,*,#49,.T.);
#49 = EDGE_CURVE('',#42,#50,#52,.T.);
#50 = VERTEX_POINT('',#51);
#51 = CARTESIAN_POINT('',(23.25,-1.525614630239,2.));
#52 = CIRCLE('',#53,23.3);
#53 = AXIS2_PLACEMENT_3D('',#54,#55,#56);
#54 = CARTESIAN_POINT('',(0.,0.,2.));
#55 = DIRECTION('',(0.,0.,1.));
#56 = DIRECTION('',(0.986131974249,-0.165963036137,0.));
#57 = ORIENTED_EDGE('',*,*,#58,.T.);
#58 = EDGE_CURVE('',#50,#59,#61,.T.);
#59 = VERTEX_POINT('',#60);
#60 = CARTESIAN_POINT('',(23.25,-1.525614630239,4.));
#61 = LINE('',#62,#63);
#62 = CARTESIAN_POINT('',(23.25,-1.525614630239,0.));
#63 = VECTOR('',#64,1.);
#64 = DIRECTION('',(0.,0.,1.));
#65 = ORIENTED_EDGE('',*,*,#66,.T.);
#66 = EDGE_CURVE('',#59,#67,#69,.T.);
#67 = VERTEX_POINT('',#68);
#68 = CARTESIAN_POINT('',(23.3,-5.706854084027E-15,4.));
#69 = CIRCLE('',#70,23.3);
#70 = AXIS2_PLACEMENT_3D('',#71,#72,#73);
#71 = CARTESIAN_POINT('',(0.,0.,4.));
#72 = DIRECTION('',(0.,0.,1.));
#73 = DIRECTION('',(1.,0.,-0.));
#74 = ORIENTED_EDGE('',*,*,#75,.T.);
#75 = EDGE_CURVE('',#67,#76,#78,.T.);
#76 = VERTEX_POINT('',#77);
#77 = CARTESIAN_POINT('',(23.3,-5.706854084027E-15,4.45));
#78 = LINE('',#79,#80);
#79 = CARTESIAN_POINT('',(23.3,-5.706854084027E-15,0.));
#80 = VECTOR('',#81,1.);
#81 = DIRECTION('',(0.,0.,1.));
#82 = ORIENTED_EDGE('',*,*,#83,.F.);
#83 = EDGE_CURVE('',#84,#76,#86,.T.);
#84 = VERTEX_POINT('',#85);
#85 = CARTESIAN_POINT('',(20.886533961931,-10.32679519779,4.45));
#86 = CIRCLE('',#87,23.3);
#87 = AXIS2_PLACEMENT_3D('',#88,#89,#90);
#88 = CARTESIAN_POINT('',(0.,0.,4.45));
#89 = DIRECTION('',(0.,0.,1.));
#90 = DIRECTION('',(1.,0.,-0.));
#91 = ORIENTED_EDGE('',*,*,#92,.F.);
#92 = EDGE_CURVE('',#93,#84,#95,.T.);
#93 = VERTEX_POINT('',#94);
#94 = CARTESIAN_POINT('',(20.886533961931,-10.32679519779,4.44));
#95 = LINE('',#96,#97);
#96 = CARTESIAN_POINT('',(20.886533961931,-10.32679519779,0.));
#97 = VECTOR('',#98,1.);
#98 = DIRECTION('',(0.,0.,1.));
#99 = ORIENTED_EDGE('',*,*,#100,.F.);
#100 = EDGE_CURVE('',#101,#93,#103,.T.);
#101 = VERTEX_POINT('',#102);
#102 = CARTESIAN_POINT('',(20.178391908177,-11.65,4.44));
#103 = CIRCLE('',#104,23.3);
#104 = AXIS2_PLACEMENT_3D('',#105,#106,#107);
#105 = CARTESIAN_POINT('',(0.,0.,4.44));
#106 = DIRECTION('',(0.,0.,1.));
#107 = DIRECTION('',(1.,0.,-0.));
#108 = ORIENTED_EDGE('',*,*,#109,.F.);
#109 = EDGE_CURVE('',#110,#101,#112,.T.);
#110 = VERTEX_POINT('',#111);
#111 = CARTESIAN_POINT('',(19.386533961931,-12.92487140914,4.44));
#112 = CIRCLE('',#113,23.3);
#113 = AXIS2_PLACEMENT_3D('',#114,#115,#116);
#114 = CARTESIAN_POINT('',(0.,0.,4.44));
#115 = DIRECTION('',(0.,0.,1.));
#116 = DIRECTION('',(1.,0.,-0.));
#117 = ORIENTED_EDGE('',*,*,#118,.T.);
#118 = EDGE_CURVE('',#110,#119,#121,.T.);
#119 = VERTEX_POINT('',#120);
#120 = CARTESIAN_POINT('',(19.386533961931,-12.92487140914,4.45));
#121 = LINE('',#122,#123);
#122 = CARTESIAN_POINT('',(19.386533961931,-12.92487140914,0.));
#123 = VECTOR('',#124,1.);
#124 = DIRECTION('',(0.,0.,1.));
#125 = ORIENTED_EDGE('',*,*,#126,.F.);
#126 = EDGE_CURVE('',#127,#119,#129,.T.);
#127 = VERTEX_POINT('',#128);
#128 = CARTESIAN_POINT('',(-19.38653396193,-12.92487140914,4.45));
#129 = CIRCLE('',#130,23.3);
#130 = AXIS2_PLACEMENT_3D('',#131,#132,#133);
#131 = CARTESIAN_POINT('',(0.,0.,4.45));
#132 = DIRECTION('',(0.,0.,1.));
#133 = DIRECTION('',(1.,0.,-0.));
#134 = ORIENTED_EDGE('',*,*,#135,.F.);
#135 = EDGE_CURVE('',#136,#127,#138,.T.);
#136 = VERTEX_POINT('',#137);
#137 = CARTESIAN_POINT('',(-19.38653396193,-12.92487140914,4.44));
#138 = LINE('',#139,#140);
#139 = CARTESIAN_POINT('',(-19.38653396193,-12.92487140914,0.));
#140 = VECTOR('',#141,1.);
#141 = DIRECTION('',(0.,0.,1.));
#142 = ORIENTED_EDGE('',*,*,#143,.F.);
#143 = EDGE_CURVE('',#144,#136,#146,.T.);
#144 = VERTEX_POINT('',#145);
#145 = CARTESIAN_POINT('',(-20.17839190817,-11.65,4.44));
#146 = CIRCLE('',#147,23.3);
#147 = AXIS2_PLACEMENT_3D('',#148,#149,#150);
#148 = CARTESIAN_POINT('',(0.,0.,4.44));
#149 = DIRECTION('',(0.,0.,1.));
#150 = DIRECTION('',(1.,0.,-0.));
#151 = ORIENTED_EDGE('',*,*,#152,.F.);
#152 = EDGE_CURVE('',#153,#144,#155,.T.);
#153 = VERTEX_POINT('',#154);
#154 = CARTESIAN_POINT('',(-20.88653396193,-10.32679519779,4.44));
#155 = CIRCLE('',#156,23.3);
#156 = AXIS2_PLACEMENT_3D('',#157,#158,#159);
#157 = CARTESIAN_POINT('',(0.,0.,4.44));
#158 = DIRECTION('',(0.,0.,1.));
#159 = DIRECTION('',(1.,0.,-0.));
#160 = ORIENTED_EDGE('',*,*,#161,.T.);
#161 = EDGE_CURVE('',#153,#162,#164,.T.);
#162 = VERTEX_POINT('',#163);
#163 = CARTESIAN_POINT('',(-20.88653396193,-10.32679519779,4.45));
#164 = LINE('',#165,#166);
#165 = CARTESIAN_POINT('',(-20.88653396193,-10.32679519779,0.));
#166 = VECTOR('',#167,1.);
#167 = DIRECTION('',(0.,0.,1.));
#168 = ORIENTED_EDGE('',*,*,#169,.F.);
#169 = EDGE_CURVE('',#170,#162,#172,.T.);
#170 = VERTEX_POINT('',#171);
#171 = CARTESIAN_POINT('',(-1.5,23.251666606934,4.45));
#172 = CIRCLE('',#173,23.3);
#173 = AXIS2_PLACEMENT_3D('',#174,#175,#176);
#174 = CARTESIAN_POINT('',(0.,0.,4.45));
#175 = DIRECTION('',(0.,0.,1.));
#176 = DIRECTION('',(1.,0.,-0.));
#177 = ORIENTED_EDGE('',*,*,#178,.F.);
#178 = EDGE_CURVE('',#179,#170,#181,.T.);
#179 = VERTEX_POINT('',#180);
#180 = CARTESIAN_POINT('',(-1.5,23.251666606934,4.44));
#181 = LINE('',#182,#183);
#182 = CARTESIAN_POINT('',(-1.5,23.251666606934,0.));
#183 = VECTOR('',#184,1.);
#184 = DIRECTION('',(0.,0.,1.));
#185 = ORIENTED_EDGE('',*,*,#186,.F.);
#186 = EDGE_CURVE('',#187,#179,#189,.T.);
#187 = VERTEX_POINT('',#188);
#188 = CARTESIAN_POINT('',(5.107025913276E-15,23.3,4.44));
#189 = CIRCLE('',#190,23.3);
#190 = AXIS2_PLACEMENT_3D('',#191,#192,#193);
#191 = CARTESIAN_POINT('',(0.,0.,4.44));
#192 = DIRECTION('',(0.,0.,1.));
#193 = DIRECTION('',(1.,0.,-0.));
#194 = ORIENTED_EDGE('',*,*,#195,.F.);
#195 = EDGE_CURVE('',#196,#187,#198,.T.);
#196 = VERTEX_POINT('',#197);
#197 = CARTESIAN_POINT('',(1.5,23.251666606934,4.44));
#198 = CIRCLE('',#199,23.3);
#199 = AXIS2_PLACEMENT_3D('',#200,#201,#202);
#200 = CARTESIAN_POINT('',(0.,0.,4.44));
#201 = DIRECTION('',(0.,0.,1.));
#202 = DIRECTION('',(1.,0.,-0.));
#203 = ORIENTED_EDGE('',*,*,#204,.T.);
#204 = EDGE_CURVE('',#196,#205,#207,.T.);
#205 = VERTEX_POINT('',#206);
#206 = CARTESIAN_POINT('',(1.5,23.251666606934,4.45));
#207 = LINE('',#208,#209);
#208 = CARTESIAN_POINT('',(1.5,23.251666606934,0.));
#209 = VECTOR('',#210,1.);
#210 = DIRECTION('',(0.,0.,1.));
#211 = ORIENTED_EDGE('',*,*,#212,.F.);
#212 = EDGE_CURVE('',#76,#205,#213,.T.);
#213 = CIRCLE('',#214,23.3);
#214 = AXIS2_PLACEMENT_3D('',#215,#216,#217);
#215 = CARTESIAN_POINT('',(0.,0.,4.45));
#216 = DIRECTION('',(0.,0.,1.));
#217 = DIRECTION('',(1.,0.,-0.));
#218 = ORIENTED_EDGE('',*,*,#75,.F.);
#219 = ORIENTED_EDGE('',*,*,#220,.T.);
#220 = EDGE_CURVE('',#67,#221,#223,.T.);
#221 = VERTEX_POINT('',#222);
#222 = CARTESIAN_POINT('',(23.25,1.525614630239,4.));
#223 = CIRCLE('',#224,23.3);
#224 = AXIS2_PLACEMENT_3D('',#225,#226,#227);
#225 = CARTESIAN_POINT('',(0.,0.,4.));
#226 = DIRECTION('',(0.,0.,1.));
#227 = DIRECTION('',(1.,0.,-0.));
#228 = ORIENTED_EDGE('',*,*,#229,.F.);
#229 = EDGE_CURVE('',#230,#221,#232,.T.);
#230 = VERTEX_POINT('',#231);
#231 = CARTESIAN_POINT('',(23.25,1.525614630239,2.));
#232 = LINE('',#233,#234);
#233 = CARTESIAN_POINT('',(23.25,1.525614630239,0.));
#234 = VECTOR('',#235,1.);
#235 = DIRECTION('',(0.,0.,1.));
#236 = ORIENTED_EDGE('',*,*,#237,.T.);
#237 = EDGE_CURVE('',#230,#238,#240,.T.);
#238 = VERTEX_POINT('',#239);
#239 = CARTESIAN_POINT('',(22.976875,3.866938741999,2.));
#240 = CIRCLE('',#241,23.3);
#241 = AXIS2_PLACEMENT_3D('',#242,#243,#244);
#242 = CARTESIAN_POINT('',(0.,0.,2.));
#243 = DIRECTION('',(-0.,0.,1.));
#244 = DIRECTION('',(1.,-2.449293598295E-16,0.));
#245 = ORIENTED_EDGE('',*,*,#246,.F.);
#246 = EDGE_CURVE('',#247,#238,#249,.T.);
#247 = VERTEX_POINT('',#248);
#248 = CARTESIAN_POINT('',(22.976875,3.866938741999,0.));
#249 = LINE('',#250,#251);
#250 = CARTESIAN_POINT('',(22.976875,3.866938741999,0.));
#251 = VECTOR('',#252,1.);
#252 = DIRECTION('',(0.,0.,1.));
#253 = ORIENTED_EDGE('',*,*,#254,.T.);
#254 = EDGE_CURVE('',#247,#255,#257,.T.);
#255 = VERTEX_POINT('',#256);
#256 = CARTESIAN_POINT('',(-22.976875,3.866938741999,0.));
#257 = CIRCLE('',#258,23.3);
#258 = AXIS2_PLACEMENT_3D('',#259,#260,#261);
#259 = CARTESIAN_POINT('',(0.,0.,0.));
#260 = DIRECTION('',(0.,0.,1.));
#261 = DIRECTION('',(1.,0.,-0.));
#262 = ORIENTED_EDGE('',*,*,#263,.T.);
#263 = EDGE_CURVE('',#255,#264,#266,.T.);
#264 = VERTEX_POINT('',#265);
#265 = CARTESIAN_POINT('',(-22.976875,3.866938741999,2.));
#266 = LINE('',#267,#268);
#267 = CARTESIAN_POINT('',(-22.976875,3.866938741999,0.));
#268 = VECTOR('',#269,1.);
#269 = DIRECTION('',(0.,0.,1.));
#270 = ORIENTED_EDGE('',*,*,#271,.T.);
#271 = EDGE_CURVE('',#264,#272,#274,.T.);
#272 = VERTEX_POINT('',#273);
#273 = CARTESIAN_POINT('',(-23.25,1.525614630239,2.));
#274 = CIRCLE('',#275,23.3);
#275 = AXIS2_PLACEMENT_3D('',#276,#277,#278);
#276 = CARTESIAN_POINT('',(0.,0.,2.));
#277 = DIRECTION('',(0.,0.,1.));
#278 = DIRECTION('',(-0.986131974249,0.165963036137,0.));
#279 = ORIENTED_EDGE('',*,*,#280,.T.);
#280 = EDGE_CURVE('',#272,#281,#283,.T.);
#281 = VERTEX_POINT('',#282);
#282 = CARTESIAN_POINT('',(-23.25,1.525614630239,4.));
#283 = LINE('',#284,#285);
#284 = CARTESIAN_POINT('',(-23.25,1.525614630239,0.));
#285 = VECTOR('',#286,1.);
#286 = DIRECTION('',(0.,0.,1.));
#287 = ORIENTED_EDGE('',*,*,#288,.T.);
#288 = EDGE_CURVE('',#281,#289,#291,.T.);
#289 = VERTEX_POINT('',#290);
#290 = CARTESIAN_POINT('',(-23.25,-1.525614630239,4.));
#291 = CIRCLE('',#292,23.3);
#292 = AXIS2_PLACEMENT_3D('',#293,#294,#295);
#293 = CARTESIAN_POINT('',(0.,0.,4.));
#294 = DIRECTION('',(0.,0.,1.));
#295 = DIRECTION('',(1.,0.,-0.));
#296 = ORIENTED_EDGE('',*,*,#297,.F.);
#297 = EDGE_CURVE('',#298,#289,#300,.T.);
#298 = VERTEX_POINT('',#299);
#299 = CARTESIAN_POINT('',(-23.25,-1.525614630239,2.));
#300 = LINE('',#301,#302);
#301 = CARTESIAN_POINT('',(-23.25,-1.525614630239,0.));
#302 = VECTOR('',#303,1.);
#303 = DIRECTION('',(0.,0.,1.));
#304 = ORIENTED_EDGE('',*,*,#305,.T.);
#305 = EDGE_CURVE('',#298,#306,#308,.T.);
#306 = VERTEX_POINT('',#307);
#307 = CARTESIAN_POINT('',(-22.976875,-3.866938741999,2.));
#308 = CIRCLE('',#309,23.3);
#309 = AXIS2_PLACEMENT_3D('',#310,#311,#312);
#310 = CARTESIAN_POINT('',(0.,0.,2.));
#311 = DIRECTION('',(0.,0.,1.));
#312 = DIRECTION('',(-0.986131974249,0.165963036137,0.));
#313 = ORIENTED_EDGE('',*,*,#314,.F.);
#314 = EDGE_CURVE('',#315,#306,#317,.T.);
#315 = VERTEX_POINT('',#316);
#316 = CARTESIAN_POINT('',(-22.976875,-3.866938741999,0.));
#317 = LINE('',#318,#319);
#318 = CARTESIAN_POINT('',(-22.976875,-3.866938741999,0.));
#319 = VECTOR('',#320,1.);
#320 = DIRECTION('',(0.,0.,1.));
#321 = ORIENTED_EDGE('',*,*,#322,.T.);
#322 = EDGE_CURVE('',#315,#40,#323,.T.);
#323 = CIRCLE('',#324,23.3);
#324 = AXIS2_PLACEMENT_3D('',#325,#326,#327);
#325 = CARTESIAN_POINT('',(0.,0.,0.));
#326 = DIRECTION('',(0.,0.,1.));
#327 = DIRECTION('',(1.,0.,-0.));
#328 = CYLINDRICAL_SURFACE('',#329,23.3);
#329 = AXIS2_PLACEMENT_3D('',#330,#331,#332);
#330 = CARTESIAN_POINT('',(0.,0.,0.));
#331 = DIRECTION('',(0.,0.,1.));
#332 = DIRECTION('',(1.,0.,-0.));
#333 = ADVANCED_FACE('',(#334),#352,.T.);
#334 = FACE_BOUND('',#335,.T.);
#335 = EDGE_LOOP('',(#336,#343,#344,#351));
#336 = ORIENTED_EDGE('',*,*,#337,.T.);
#337 = EDGE_CURVE('',#40,#247,#338,.T.);
#338 = CIRCLE('',#339,4.);
#339 = AXIS2_PLACEMENT_3D('',#340,#341,#342);
#340 = CARTESIAN_POINT('',(24.,0.,0.));
#341 = DIRECTION('',(0.,0.,1.));
#342 = DIRECTION('',(-0.25578125,-0.9667346855,0.));
#343 = ORIENTED_EDGE('',*,*,#246,.T.);
#344 = ORIENTED_EDGE('',*,*,#345,.F.);
#345 = EDGE_CURVE('',#42,#238,#346,.T.);
#346 = CIRCLE('',#347,4.);
#347 = AXIS2_PLACEMENT_3D('',#348,#349,#350);
#348 = CARTESIAN_POINT('',(24.,0.,2.));
#349 = DIRECTION('',(0.,0.,1.));
#350 = DIRECTION('',(-0.25578125,-0.9667346855,0.));
#351 = ORIENTED_EDGE('',*,*,#39,.F.);
#352 = CYLINDRICAL_SURFACE('',#353,4.);
#353 = AXIS2_PLACEMENT_3D('',#354,#355,#356);
#354 = CARTESIAN_POINT('',(24.,0.,0.));
#355 = DIRECTION('',(0.,0.,1.));
#356 = DIRECTION('',(1.,0.,-0.));
#357 = ADVANCED_FACE('',(#358,#370,#381,#392),#403,.F.);
#358 = FACE_BOUND('',#359,.F.);
#359 = EDGE_LOOP('',(#360,#367,#368,#369));
#360 = ORIENTED_EDGE('',*,*,#361,.T.);
#361 = EDGE_CURVE('',#255,#315,#362,.T.);
#362 = CIRCLE('',#363,4.);
#363 = AXIS2_PLACEMENT_3D('',#364,#365,#366);
#364 = CARTESIAN_POINT('',(-24.,0.,0.));
#365 = DIRECTION('',(0.,0.,1.));
#366 = DIRECTION('',(1.,0.,-0.));
#367 = ORIENTED_EDGE('',*,*,#322,.T.);
#368 = ORIENTED_EDGE('',*,*,#337,.T.);
#369 = ORIENTED_EDGE('',*,*,#254,.T.);
#370 = FACE_BOUND('',#371,.F.);
#371 = EDGE_LOOP('',(#372));
#372 = ORIENTED_EDGE('',*,*,#373,.F.);
#373 = EDGE_CURVE('',#374,#374,#376,.T.);
#374 = VERTEX_POINT('',#375);
#375 = CARTESIAN_POINT('',(-22.3,-4.163799117101E-16,0.));
#376 = CIRCLE('',#377,1.7);
#377 = AXIS2_PLACEMENT_3D('',#378,#379,#380);
#378 = CARTESIAN_POINT('',(-24.,0.,0.));
#379 = DIRECTION('',(0.,0.,1.));
#380 = DIRECTION('',(1.,0.,-0.));
#381 = FACE_BOUND('',#382,.F.);
#382 = EDGE_LOOP('',(#383));
#383 = ORIENTED_EDGE('',*,*,#384,.F.);
#384 = EDGE_CURVE('',#385,#385,#387,.T.);
#385 = VERTEX_POINT('',#386);
#386 = CARTESIAN_POINT('',(18.3,-4.482207284879E-15,0.));
#387 = CIRCLE('',#388,18.3);
#388 = AXIS2_PLACEMENT_3D('',#389,#390,#391);
#389 = CARTESIAN_POINT('',(0.,0.,0.));
#390 = DIRECTION('',(0.,0.,1.));
#391 = DIRECTION('',(1.,0.,-0.));
#392 = FACE_BOUND('',#393,.F.);
#393 = EDGE_LOOP('',(#394));
#394 = ORIENTED_EDGE('',*,*,#395,.F.);
#395 = EDGE_CURVE('',#396,#396,#398,.T.);
#396 = VERTEX_POINT('',#397);
#397 = CARTESIAN_POINT('',(25.7,-4.163799117101E-16,0.));
#398 = CIRCLE('',#399,1.7);
#399 = AXIS2_PLACEMENT_3D('',#400,#401,#402);
#400 = CARTESIAN_POINT('',(24.,0.,0.));
#401 = DIRECTION('',(0.,0.,1.));
#402 = DIRECTION('',(1.,0.,-0.));
#403 = PLANE('',#404);
#404 = AXIS2_PLACEMENT_3D('',#405,#406,#407);
#405 = CARTESIAN_POINT('',(0.,0.,0.));
#406 = DIRECTION('',(0.,0.,1.));
#407 = DIRECTION('',(1.,0.,-0.));
#408 = ADVANCED_FACE('',(#409),#421,.T.);
#409 = FACE_BOUND('',#410,.T.);
#410 = EDGE_LOOP('',(#411,#418,#419,#420));
#411 = ORIENTED_EDGE('',*,*,#412,.F.);
#412 = EDGE_CURVE('',#264,#306,#413,.T.);
#413 = CIRCLE('',#414,4.);
#414 = AXIS2_PLACEMENT_3D('',#415,#416,#417);
#415 = CARTESIAN_POINT('',(-24.,0.,2.));
#416 = DIRECTION('',(0.,0.,1.));
#417 = DIRECTION('',(1.,0.,-0.));
#418 = ORIENTED_EDGE('',*,*,#263,.F.);
#419 = ORIENTED_EDGE('',*,*,#361,.T.);
#420 = ORIENTED_EDGE('',*,*,#314,.T.);
#421 = CYLINDRICAL_SURFACE('',#422,4.);
#422 = AXIS2_PLACEMENT_3D('',#423,#424,#425);
#423 = CARTESIAN_POINT('',(-24.,0.,0.));
#424 = DIRECTION('',(0.,0.,1.));
#425 = DIRECTION('',(1.,0.,-0.));
#426 = ADVANCED_FACE('',(#427),#439,.T.);
#427 = FACE_BOUND('',#428,.T.);
#428 = EDGE_LOOP('',(#429,#430,#431,#432));
#429 = ORIENTED_EDGE('',*,*,#271,.F.);
#430 = ORIENTED_EDGE('',*,*,#412,.T.);
#431 = ORIENTED_EDGE('',*,*,#305,.F.);
#432 = ORIENTED_EDGE('',*,*,#433,.F.);
#433 = EDGE_CURVE('',#272,#298,#434,.T.);
#434 = CIRCLE('',#435,1.7);
#435 = AXIS2_PLACEMENT_3D('',#436,#437,#438);
#436 = CARTESIAN_POINT('',(-24.,0.,2.));
#437 = DIRECTION('',(0.,0.,1.));
#438 = DIRECTION('',(1.,0.,-0.));
#439 = PLANE('',#440);
#440 = AXIS2_PLACEMENT_3D('',#441,#442,#443);
#441 = CARTESIAN_POINT('',(-24.,0.,2.));
#442 = DIRECTION('',(0.,0.,1.));
#443 = DIRECTION('',(1.,0.,-0.));
#444 = ADVANCED_FACE('',(#445),#474,.F.);
#445 = FACE_BOUND('',#446,.F.);
#446 = EDGE_LOOP('',(#447,#455,#462,#463,#464,#465,#472,#473));
#447 = ORIENTED_EDGE('',*,*,#448,.T.);
#448 = EDGE_CURVE('',#374,#449,#451,.T.);
#449 = VERTEX_POINT('',#450);
#450 = CARTESIAN_POINT('',(-22.3,-4.163799117101E-16,4.));
#451 = LINE('',#452,#453);
#452 = CARTESIAN_POINT('',(-22.3,-4.163799117101E-16,-1.));
#453 = VECTOR('',#454,1.);
#454 = DIRECTION('',(0.,0.,1.));
#455 = ORIENTED_EDGE('',*,*,#456,.F.);
#456 = EDGE_CURVE('',#289,#449,#457,.T.);
#457 = CIRCLE('',#458,1.7);
#458 = AXIS2_PLACEMENT_3D('',#459,#460,#461);
#459 = CARTESIAN_POINT('',(-24.,0.,4.));
#460 = DIRECTION('',(0.,0.,1.));
#461 = DIRECTION('',(1.,0.,-0.));
#462 = ORIENTED_EDGE('',*,*,#297,.F.);
#463 = ORIENTED_EDGE('',*,*,#433,.F.);
#464 = ORIENTED_EDGE('',*,*,#280,.T.);
#465 = ORIENTED_EDGE('',*,*,#466,.F.);
#466 = EDGE_CURVE('',#449,#281,#467,.T.);
#467 = CIRCLE('',#468,1.7);
#468 = AXIS2_PLACEMENT_3D('',#469,#470,#471);
#469 = CARTESIAN_POINT('',(-24.,0.,4.));
#470 = DIRECTION('',(0.,0.,1.));
#471 = DIRECTION('',(1.,0.,-0.));
#472 = ORIENTED_EDGE('',*,*,#448,.F.);
#473 = ORIENTED_EDGE('',*,*,#373,.T.);
#474 = CYLINDRICAL_SURFACE('',#475,1.7);
#475 = AXIS2_PLACEMENT_3D('',#476,#477,#478);
#476 = CARTESIAN_POINT('',(-24.,0.,-1.));
#477 = DIRECTION('',(0.,0.,1.));
#478 = DIRECTION('',(1.,0.,-0.));
#479 = ADVANCED_FACE('',(#480),#485,.F.);
#480 = FACE_BOUND('',#481,.F.);
#481 = EDGE_LOOP('',(#482,#483,#484));
#482 = ORIENTED_EDGE('',*,*,#456,.T.);
#483 = ORIENTED_EDGE('',*,*,#466,.T.);
#484 = ORIENTED_EDGE('',*,*,#288,.T.);
#485 = PLANE('',#486);
#486 = AXIS2_PLACEMENT_3D('',#487,#488,#489);
#487 = CARTESIAN_POINT('',(-24.,0.,4.));
#488 = DIRECTION('',(0.,0.,1.));
#489 = DIRECTION('',(1.,0.,-0.));
#490 = ADVANCED_FACE('',(#491),#512,.T.);
#491 = FACE_BOUND('',#492,.T.);
#492 = EDGE_LOOP('',(#493,#494,#495,#496,#505));
#493 = ORIENTED_EDGE('',*,*,#49,.F.);
#494 = ORIENTED_EDGE('',*,*,#345,.T.);
#495 = ORIENTED_EDGE('',*,*,#237,.F.);
#496 = ORIENTED_EDGE('',*,*,#497,.F.);
#497 = EDGE_CURVE('',#498,#230,#500,.T.);
#498 = VERTEX_POINT('',#499);
#499 = CARTESIAN_POINT('',(25.7,-4.163799117101E-16,2.));
#500 = CIRCLE('',#501,1.7);
#501 = AXIS2_PLACEMENT_3D('',#502,#503,#504);
#502 = CARTESIAN_POINT('',(24.,0.,2.));
#503 = DIRECTION('',(0.,0.,1.));
#504 = DIRECTION('',(1.,0.,-0.));
#505 = ORIENTED_EDGE('',*,*,#506,.F.);
#506 = EDGE_CURVE('',#50,#498,#507,.T.);
#507 = CIRCLE('',#508,1.7);
#508 = AXIS2_PLACEMENT_3D('',#509,#510,#511);
#509 = CARTESIAN_POINT('',(24.,0.,2.));
#510 = DIRECTION('',(0.,0.,1.));
#511 = DIRECTION('',(1.,0.,-0.));
#512 = PLANE('',#513);
#513 = AXIS2_PLACEMENT_3D('',#514,#515,#516);
#514 = CARTESIAN_POINT('',(24.,0.,2.));
#515 = DIRECTION('',(0.,0.,1.));
#516 = DIRECTION('',(1.,0.,-0.));
#517 = ADVANCED_FACE('',(#518),#539,.F.);
#518 = FACE_BOUND('',#519,.F.);
#519 = EDGE_LOOP('',(#520,#527,#528,#529,#535,#536,#537,#538));
#520 = ORIENTED_EDGE('',*,*,#521,.F.);
#521 = EDGE_CURVE('',#221,#59,#522,.T.);
#522 = CIRCLE('',#523,1.7);
#523 = AXIS2_PLACEMENT_3D('',#524,#525,#526);
#524 = CARTESIAN_POINT('',(24.,0.,4.));
#525 = DIRECTION('',(0.,0.,1.));
#526 = DIRECTION('',(1.,0.,-0.));
#527 = ORIENTED_EDGE('',*,*,#229,.F.);
#528 = ORIENTED_EDGE('',*,*,#497,.F.);
#529 = ORIENTED_EDGE('',*,*,#530,.F.);
#530 = EDGE_CURVE('',#396,#498,#531,.T.);
#531 = LINE('',#532,#533);
#532 = CARTESIAN_POINT('',(25.7,-4.163799117101E-16,-1.));
#533 = VECTOR('',#534,1.);
#534 = DIRECTION('',(0.,0.,1.));
#535 = ORIENTED_EDGE('',*,*,#395,.T.);
#536 = ORIENTED_EDGE('',*,*,#530,.T.);
#537 = ORIENTED_EDGE('',*,*,#506,.F.);
#538 = ORIENTED_EDGE('',*,*,#58,.T.);
#539 = CYLINDRICAL_SURFACE('',#540,1.7);
#540 = AXIS2_PLACEMENT_3D('',#541,#542,#543);
#541 = CARTESIAN_POINT('',(24.,0.,-1.));
#542 = DIRECTION('',(0.,0.,1.));
#543 = DIRECTION('',(1.,0.,-0.));
#544 = ADVANCED_FACE('',(#545),#550,.F.);
#545 = FACE_BOUND('',#546,.F.);
#546 = EDGE_LOOP('',(#547,#548,#549));
#547 = ORIENTED_EDGE('',*,*,#220,.T.);
#548 = ORIENTED_EDGE('',*,*,#521,.T.);
#549 = ORIENTED_EDGE('',*,*,#66,.T.);
#550 = PLANE('',#551);
#551 = AXIS2_PLACEMENT_3D('',#552,#553,#554);
#552 = CARTESIAN_POINT('',(24.,0.,4.));
#553 = DIRECTION('',(0.,0.,1.));
#554 = DIRECTION('',(1.,0.,-0.));
#555 = ADVANCED_FACE('',(#556,#628),#639,.T.);
#556 = FACE_BOUND('',#557,.T.);
#557 = EDGE_LOOP('',(#558,#566,#567,#575,#583,#589,#590,#598,#606,#612,
    #613,#614,#622));
#558 = ORIENTED_EDGE('',*,*,#559,.F.);
#559 = EDGE_CURVE('',#170,#560,#562,.T.);
#560 = VERTEX_POINT('',#561);
#561 = CARTESIAN_POINT('',(-1.5,20.2,4.45));
#562 = LINE('',#563,#564);
#563 = CARTESIAN_POINT('',(-1.5,10.1,4.45));
#564 = VECTOR('',#565,1.);
#565 = DIRECTION('',(-2.22044604925E-16,-1.,0.));
#566 = ORIENTED_EDGE('',*,*,#169,.T.);
#567 = ORIENTED_EDGE('',*,*,#568,.T.);
#568 = EDGE_CURVE('',#162,#569,#571,.T.);
#569 = VERTEX_POINT('',#570);
#570 = CARTESIAN_POINT('',(-18.24371315644,-8.800961894323,4.45));
#571 = LINE('',#572,#573);
#572 = CARTESIAN_POINT('',(-9.496856578223,-3.750961894323,4.45));
#573 = VECTOR('',#574,1.);
#574 = DIRECTION('',(0.866025403784,0.5,-0.));
#575 = ORIENTED_EDGE('',*,*,#576,.T.);
#576 = EDGE_CURVE('',#569,#577,#579,.T.);
#577 = VERTEX_POINT('',#578);
#578 = CARTESIAN_POINT('',(-16.74371315644,-11.39903810567,4.45));
#579 = LINE('',#580,#581);
#580 = CARTESIAN_POINT('',(-17.86871315644,-9.450480947162,4.45));
#581 = VECTOR('',#582,1.);
#582 = DIRECTION('',(0.5,-0.866025403784,0.));
#583 = ORIENTED_EDGE('',*,*,#584,.F.);
#584 = EDGE_CURVE('',#127,#577,#585,.T.);
#585 = LINE('',#586,#587);
#586 = CARTESIAN_POINT('',(-7.996856578223,-6.349038105677,4.45));
#587 = VECTOR('',#588,1.);
#588 = DIRECTION('',(0.866025403784,0.5,-0.));
#589 = ORIENTED_EDGE('',*,*,#126,.T.);
#590 = ORIENTED_EDGE('',*,*,#591,.T.);
#591 = EDGE_CURVE('',#119,#592,#594,.T.);
#592 = VERTEX_POINT('',#593);
#593 = CARTESIAN_POINT('',(16.743713156446,-11.39903810567,4.45));
#594 = LINE('',#595,#596);
#595 = CARTESIAN_POINT('',(7.996856578223,-6.349038105677,4.45));
#596 = VECTOR('',#597,1.);
#597 = DIRECTION('',(-0.866025403784,0.5,0.));
#598 = ORIENTED_EDGE('',*,*,#599,.T.);
#599 = EDGE_CURVE('',#592,#600,#602,.T.);
#600 = VERTEX_POINT('',#601);
#601 = CARTESIAN_POINT('',(18.243713156446,-8.800961894323,4.45));
#602 = LINE('',#603,#604);
#603 = CARTESIAN_POINT('',(17.118713156446,-10.74951905283,4.45));
#604 = VECTOR('',#605,1.);
#605 = DIRECTION('',(0.5,0.866025403784,-0.));
#606 = ORIENTED_EDGE('',*,*,#607,.F.);
#607 = EDGE_CURVE('',#84,#600,#608,.T.);
#608 = LINE('',#609,#610);
#609 = CARTESIAN_POINT('',(9.496856578223,-3.750961894323,4.45));
#610 = VECTOR('',#611,1.);
#611 = DIRECTION('',(-0.866025403784,0.5,0.));
#612 = ORIENTED_EDGE('',*,*,#83,.T.);
#613 = ORIENTED_EDGE('',*,*,#212,.T.);
#614 = ORIENTED_EDGE('',*,*,#615,.T.);
#615 = EDGE_CURVE('',#205,#616,#618,.T.);
#616 = VERTEX_POINT('',#617);
#617 = CARTESIAN_POINT('',(1.5,20.2,4.45));
#618 = LINE('',#619,#620);
#619 = CARTESIAN_POINT('',(1.5,10.1,4.45));
#620 = VECTOR('',#621,1.);
#621 = DIRECTION('',(-2.22044604925E-16,-1.,0.));
#622 = ORIENTED_EDGE('',*,*,#623,.T.);
#623 = EDGE_CURVE('',#616,#560,#624,.T.);
#624 = LINE('',#625,#626);
#625 = CARTESIAN_POINT('',(0.75,20.2,4.45));
#626 = VECTOR('',#627,1.);
#627 = DIRECTION('',(-1.,2.22044604925E-16,0.));
#628 = FACE_BOUND('',#629,.T.);
#629 = EDGE_LOOP('',(#630));
#630 = ORIENTED_EDGE('',*,*,#631,.F.);
#631 = EDGE_CURVE('',#632,#632,#634,.T.);
#632 = VERTEX_POINT('',#633);
#633 = CARTESIAN_POINT('',(18.3,-4.482207284879E-15,4.45));
#634 = CIRCLE('',#635,18.3);
#635 = AXIS2_PLACEMENT_3D('',#636,#637,#638);
#636 = CARTESIAN_POINT('',(0.,0.,4.45));
#637 = DIRECTION('',(0.,0.,1.));
#638 = DIRECTION('',(1.,0.,-0.));
#639 = PLANE('',#640);
#640 = AXIS2_PLACEMENT_3D('',#641,#642,#643);
#641 = CARTESIAN_POINT('',(0.,0.,4.45));
#642 = DIRECTION('',(0.,0.,1.));
#643 = DIRECTION('',(1.,0.,-0.));
#644 = ADVANCED_FACE('',(#645),#711,.F.);
#645 = FACE_BOUND('',#646,.F.);
#646 = EDGE_LOOP('',(#647,#657,#665,#671,#672,#673,#681,#689,#697,#705)
  );
#647 = ORIENTED_EDGE('',*,*,#648,.T.);
#648 = EDGE_CURVE('',#649,#651,#653,.T.);
#649 = VERTEX_POINT('',#650);
#650 = CARTESIAN_POINT('',(1.5,20.25,7.24));
#651 = VERTEX_POINT('',#652);
#652 = CARTESIAN_POINT('',(1.5,23.3,7.24));
#653 = LINE('',#654,#655);
#654 = CARTESIAN_POINT('',(1.5,20.2,7.24));
#655 = VECTOR('',#656,1.);
#656 = DIRECTION('',(2.22044604925E-16,1.,0.));
#657 = ORIENTED_EDGE('',*,*,#658,.F.);
#658 = EDGE_CURVE('',#659,#651,#661,.T.);
#659 = VERTEX_POINT('',#660);
#660 = CARTESIAN_POINT('',(1.5,23.3,4.44));
#661 = LINE('',#662,#663);
#662 = CARTESIAN_POINT('',(1.5,23.3,4.44));
#663 = VECTOR('',#664,1.);
#664 = DIRECTION('',(0.,0.,1.));
#665 = ORIENTED_EDGE('',*,*,#666,.F.);
#666 = EDGE_CURVE('',#196,#659,#667,.T.);
#667 = LINE('',#668,#669);
#668 = CARTESIAN_POINT('',(1.5,20.2,4.44));
#669 = VECTOR('',#670,1.);
#670 = DIRECTION('',(2.22044604925E-16,1.,0.));
#671 = ORIENTED_EDGE('',*,*,#204,.T.);
#672 = ORIENTED_EDGE('',*,*,#615,.T.);
#673 = ORIENTED_EDGE('',*,*,#674,.T.);
#674 = EDGE_CURVE('',#616,#675,#677,.T.);
#675 = VERTEX_POINT('',#676);
#676 = CARTESIAN_POINT('',(1.5,20.2,6.05));
#677 = LINE('',#678,#679);
#678 = CARTESIAN_POINT('',(1.5,20.2,4.44));
#679 = VECTOR('',#680,1.);
#680 = DIRECTION('',(0.,0.,1.));
#681 = ORIENTED_EDGE('',*,*,#682,.F.);
#682 = EDGE_CURVE('',#683,#675,#685,.T.);
#683 = VERTEX_POINT('',#684);
#684 = CARTESIAN_POINT('',(1.5,19.25,6.05));
#685 = LINE('',#686,#687);
#686 = CARTESIAN_POINT('',(1.5,19.25,6.05));
#687 = VECTOR('',#688,1.);
#688 = DIRECTION('',(2.22044604925E-16,1.,0.));
#689 = ORIENTED_EDGE('',*,*,#690,.T.);
#690 = EDGE_CURVE('',#683,#691,#693,.T.);
#691 = VERTEX_POINT('',#692);
#692 = CARTESIAN_POINT('',(1.5,19.25,7.25));
#693 = LINE('',#694,#695);
#694 = CARTESIAN_POINT('',(1.5,19.25,6.05));
#695 = VECTOR('',#696,1.);
#696 = DIRECTION('',(0.,0.,1.));
#697 = ORIENTED_EDGE('',*,*,#698,.T.);
#698 = EDGE_CURVE('',#691,#699,#701,.T.);
#699 = VERTEX_POINT('',#700);
#700 = CARTESIAN_POINT('',(1.5,20.25,7.25));
#701 = LINE('',#702,#703);
#702 = CARTESIAN_POINT('',(1.5,19.25,7.25));
#703 = VECTOR('',#704,1.);
#704 = DIRECTION('',(2.22044604925E-16,1.,0.));
#705 = ORIENTED_EDGE('',*,*,#706,.F.);
#706 = EDGE_CURVE('',#649,#699,#707,.T.);
#707 = LINE('',#708,#709);
#708 = CARTESIAN_POINT('',(1.5,20.25,6.05));
#709 = VECTOR('',#710,1.);
#710 = DIRECTION('',(0.,0.,1.));
#711 = PLANE('',#712);
#712 = AXIS2_PLACEMENT_3D('',#713,#714,#715);
#713 = CARTESIAN_POINT('',(1.5,20.2,4.44));
#714 = DIRECTION('',(-1.,2.22044604925E-16,0.));
#715 = DIRECTION('',(0.,0.,1.));
#716 = ADVANCED_FACE('',(#717),#727,.F.);
#717 = FACE_BOUND('',#718,.F.);
#718 = EDGE_LOOP('',(#719,#720,#721));
#719 = ORIENTED_EDGE('',*,*,#195,.F.);
#720 = ORIENTED_EDGE('',*,*,#666,.T.);
#721 = ORIENTED_EDGE('',*,*,#722,.T.);
#722 = EDGE_CURVE('',#659,#187,#723,.T.);
#723 = LINE('',#724,#725);
#724 = CARTESIAN_POINT('',(1.5,23.3,4.44));
#725 = VECTOR('',#726,1.);
#726 = DIRECTION('',(-1.,2.22044604925E-16,0.));
#727 = PLANE('',#728);
#728 = AXIS2_PLACEMENT_3D('',#729,#730,#731);
#729 = CARTESIAN_POINT('',(1.5,20.2,4.44));
#730 = DIRECTION('',(0.,0.,1.));
#731 = DIRECTION('',(2.22044604925E-16,1.,0.));
#732 = ADVANCED_FACE('',(#733),#750,.F.);
#733 = FACE_BOUND('',#734,.F.);
#734 = EDGE_LOOP('',(#735,#743,#744));
#735 = ORIENTED_EDGE('',*,*,#736,.F.);
#736 = EDGE_CURVE('',#179,#737,#739,.T.);
#737 = VERTEX_POINT('',#738);
#738 = CARTESIAN_POINT('',(-1.5,23.3,4.44));
#739 = LINE('',#740,#741);
#740 = CARTESIAN_POINT('',(-1.5,20.2,4.44));
#741 = VECTOR('',#742,1.);
#742 = DIRECTION('',(2.22044604925E-16,1.,0.));
#743 = ORIENTED_EDGE('',*,*,#186,.F.);
#744 = ORIENTED_EDGE('',*,*,#745,.T.);
#745 = EDGE_CURVE('',#187,#737,#746,.T.);
#746 = LINE('',#747,#748);
#747 = CARTESIAN_POINT('',(1.5,23.3,4.44));
#748 = VECTOR('',#749,1.);
#749 = DIRECTION('',(-1.,2.22044604925E-16,0.));
#750 = PLANE('',#751);
#751 = AXIS2_PLACEMENT_3D('',#752,#753,#754);
#752 = CARTESIAN_POINT('',(1.5,20.2,4.44));
#753 = DIRECTION('',(0.,0.,1.));
#754 = DIRECTION('',(2.22044604925E-16,1.,0.));
#755 = ADVANCED_FACE('',(#756),#815,.T.);
#756 = FACE_BOUND('',#757,.T.);
#757 = EDGE_LOOP('',(#758,#768,#774,#775,#776,#777,#785,#793,#801,#809)
  );
#758 = ORIENTED_EDGE('',*,*,#759,.T.);
#759 = EDGE_CURVE('',#760,#762,#764,.T.);
#760 = VERTEX_POINT('',#761);
#761 = CARTESIAN_POINT('',(-1.5,20.25,7.24));
#762 = VERTEX_POINT('',#763);
#763 = CARTESIAN_POINT('',(-1.5,23.3,7.24));
#764 = LINE('',#765,#766);
#765 = CARTESIAN_POINT('',(-1.5,20.2,7.24));
#766 = VECTOR('',#767,1.);
#767 = DIRECTION('',(2.22044604925E-16,1.,0.));
#768 = ORIENTED_EDGE('',*,*,#769,.F.);
#769 = EDGE_CURVE('',#737,#762,#770,.T.);
#770 = LINE('',#771,#772);
#771 = CARTESIAN_POINT('',(-1.5,23.3,4.44));
#772 = VECTOR('',#773,1.);
#773 = DIRECTION('',(0.,0.,1.));
#774 = ORIENTED_EDGE('',*,*,#736,.F.);
#775 = ORIENTED_EDGE('',*,*,#178,.T.);
#776 = ORIENTED_EDGE('',*,*,#559,.T.);
#777 = ORIENTED_EDGE('',*,*,#778,.T.);
#778 = EDGE_CURVE('',#560,#779,#781,.T.);
#779 = VERTEX_POINT('',#780);
#780 = CARTESIAN_POINT('',(-1.5,20.2,6.05));
#781 = LINE('',#782,#783);
#782 = CARTESIAN_POINT('',(-1.5,20.2,4.44));
#783 = VECTOR('',#784,1.);
#784 = DIRECTION('',(0.,0.,1.));
#785 = ORIENTED_EDGE('',*,*,#786,.F.);
#786 = EDGE_CURVE('',#787,#779,#789,.T.);
#787 = VERTEX_POINT('',#788);
#788 = CARTESIAN_POINT('',(-1.5,19.25,6.05));
#789 = LINE('',#790,#791);
#790 = CARTESIAN_POINT('',(-1.5,19.25,6.05));
#791 = VECTOR('',#792,1.);
#792 = DIRECTION('',(2.22044604925E-16,1.,0.));
#793 = ORIENTED_EDGE('',*,*,#794,.T.);
#794 = EDGE_CURVE('',#787,#795,#797,.T.);
#795 = VERTEX_POINT('',#796);
#796 = CARTESIAN_POINT('',(-1.5,19.25,7.25));
#797 = LINE('',#798,#799);
#798 = CARTESIAN_POINT('',(-1.5,19.25,6.05));
#799 = VECTOR('',#800,1.);
#800 = DIRECTION('',(0.,0.,1.));
#801 = ORIENTED_EDGE('',*,*,#802,.T.);
#802 = EDGE_CURVE('',#795,#803,#805,.T.);
#803 = VERTEX_POINT('',#804);
#804 = CARTESIAN_POINT('',(-1.5,20.25,7.25));
#805 = LINE('',#806,#807);
#806 = CARTESIAN_POINT('',(-1.5,19.25,7.25));
#807 = VECTOR('',#808,1.);
#808 = DIRECTION('',(2.22044604925E-16,1.,0.));
#809 = ORIENTED_EDGE('',*,*,#810,.F.);
#810 = EDGE_CURVE('',#760,#803,#811,.T.);
#811 = LINE('',#812,#813);
#812 = CARTESIAN_POINT('',(-1.5,20.25,6.05));
#813 = VECTOR('',#814,1.);
#814 = DIRECTION('',(0.,0.,1.));
#815 = PLANE('',#816);
#816 = AXIS2_PLACEMENT_3D('',#817,#818,#819);
#817 = CARTESIAN_POINT('',(-1.5,20.2,4.44));
#818 = DIRECTION('',(-1.,2.22044604925E-16,0.));
#819 = DIRECTION('',(0.,0.,1.));
#820 = ADVANCED_FACE('',(#821),#887,.F.);
#821 = FACE_BOUND('',#822,.F.);
#822 = EDGE_LOOP('',(#823,#833,#841,#847,#848,#849,#857,#865,#873,#881)
  );
#823 = ORIENTED_EDGE('',*,*,#824,.T.);
#824 = EDGE_CURVE('',#825,#827,#829,.T.);
#825 = VERTEX_POINT('',#826);
#826 = CARTESIAN_POINT('',(-18.28701442663,-8.825961894323,7.24));
#827 = VERTEX_POINT('',#828);
#828 = CARTESIAN_POINT('',(-20.92839190817,-10.35096189432,7.24));
#829 = LINE('',#830,#831);
#830 = CARTESIAN_POINT('',(-18.24371315644,-8.800961894323,7.24));
#831 = VECTOR('',#832,1.);
#832 = DIRECTION('',(-0.866025403784,-0.5,0.));
#833 = ORIENTED_EDGE('',*,*,#834,.F.);
#834 = EDGE_CURVE('',#835,#827,#837,.T.);
#835 = VERTEX_POINT('',#836);
#836 = CARTESIAN_POINT('',(-20.92839190817,-10.35096189432,4.44));
#837 = LINE('',#838,#839);
#838 = CARTESIAN_POINT('',(-20.92839190817,-10.35096189432,4.44));
#839 = VECTOR('',#840,1.);
#840 = DIRECTION('',(0.,0.,1.));
#841 = ORIENTED_EDGE('',*,*,#842,.F.);
#842 = EDGE_CURVE('',#153,#835,#843,.T.);
#843 = LINE('',#844,#845);
#844 = CARTESIAN_POINT('',(-18.24371315644,-8.800961894323,4.44));
#845 = VECTOR('',#846,1.);
#846 = DIRECTION('',(-0.866025403784,-0.5,0.));
#847 = ORIENTED_EDGE('',*,*,#161,.T.);
#848 = ORIENTED_EDGE('',*,*,#568,.T.);
#849 = ORIENTED_EDGE('',*,*,#850,.T.);
#850 = EDGE_CURVE('',#569,#851,#853,.T.);
#851 = VERTEX_POINT('',#852);
#852 = CARTESIAN_POINT('',(-18.24371315644,-8.800961894323,6.05));
#853 = LINE('',#854,#855);
#854 = CARTESIAN_POINT('',(-18.24371315644,-8.800961894323,4.44));
#855 = VECTOR('',#856,1.);
#856 = DIRECTION('',(0.,0.,1.));
#857 = ORIENTED_EDGE('',*,*,#858,.F.);
#858 = EDGE_CURVE('',#859,#851,#861,.T.);
#859 = VERTEX_POINT('',#860);
#860 = CARTESIAN_POINT('',(-17.42098902285,-8.325961894323,6.05));
#861 = LINE('',#862,#863);
#862 = CARTESIAN_POINT('',(-17.42098902285,-8.325961894323,6.05));
#863 = VECTOR('',#864,1.);
#864 = DIRECTION('',(-0.866025403784,-0.5,0.));
#865 = ORIENTED_EDGE('',*,*,#866,.T.);
#866 = EDGE_CURVE('',#859,#867,#869,.T.);
#867 = VERTEX_POINT('',#868);
#868 = CARTESIAN_POINT('',(-17.42098902285,-8.325961894323,7.25));
#869 = LINE('',#870,#871);
#870 = CARTESIAN_POINT('',(-17.42098902285,-8.325961894323,6.05));
#871 = VECTOR('',#872,1.);
#872 = DIRECTION('',(0.,0.,1.));
#873 = ORIENTED_EDGE('',*,*,#874,.T.);
#874 = EDGE_CURVE('',#867,#875,#877,.T.);
#875 = VERTEX_POINT('',#876);
#876 = CARTESIAN_POINT('',(-18.28701442663,-8.825961894323,7.25));
#877 = LINE('',#878,#879);
#878 = CARTESIAN_POINT('',(-17.42098902285,-8.325961894323,7.25));
#879 = VECTOR('',#880,1.);
#880 = DIRECTION('',(-0.866025403784,-0.5,0.));
#881 = ORIENTED_EDGE('',*,*,#882,.F.);
#882 = EDGE_CURVE('',#825,#875,#883,.T.);
#883 = LINE('',#884,#885);
#884 = CARTESIAN_POINT('',(-18.28701442663,-8.825961894323,6.05));
#885 = VECTOR('',#886,1.);
#886 = DIRECTION('',(0.,0.,1.));
#887 = PLANE('',#888);
#888 = AXIS2_PLACEMENT_3D('',#889,#890,#891);
#889 = CARTESIAN_POINT('',(-18.24371315644,-8.800961894323,4.44));
#890 = DIRECTION('',(0.5,-0.866025403784,0.));
#891 = DIRECTION('',(0.,0.,1.));
#892 = ADVANCED_FACE('',(#893),#903,.F.);
#893 = FACE_BOUND('',#894,.F.);
#894 = EDGE_LOOP('',(#895,#896,#897));
#895 = ORIENTED_EDGE('',*,*,#152,.F.);
#896 = ORIENTED_EDGE('',*,*,#842,.T.);
#897 = ORIENTED_EDGE('',*,*,#898,.T.);
#898 = EDGE_CURVE('',#835,#144,#899,.T.);
#899 = LINE('',#900,#901);
#900 = CARTESIAN_POINT('',(-20.92839190817,-10.35096189432,4.44));
#901 = VECTOR('',#902,1.);
#902 = DIRECTION('',(0.5,-0.866025403784,0.));
#903 = PLANE('',#904);
#904 = AXIS2_PLACEMENT_3D('',#905,#906,#907);
#905 = CARTESIAN_POINT('',(-18.24371315644,-8.800961894323,4.44));
#906 = DIRECTION('',(0.,0.,1.));
#907 = DIRECTION('',(-0.866025403784,-0.5,0.));
#908 = ADVANCED_FACE('',(#909),#926,.F.);
#909 = FACE_BOUND('',#910,.F.);
#910 = EDGE_LOOP('',(#911,#919,#920));
#911 = ORIENTED_EDGE('',*,*,#912,.F.);
#912 = EDGE_CURVE('',#136,#913,#915,.T.);
#913 = VERTEX_POINT('',#914);
#914 = CARTESIAN_POINT('',(-19.42839190817,-12.94903810567,4.44));
#915 = LINE('',#916,#917);
#916 = CARTESIAN_POINT('',(-16.74371315644,-11.39903810567,4.44));
#917 = VECTOR('',#918,1.);
#918 = DIRECTION('',(-0.866025403784,-0.5,0.));
#919 = ORIENTED_EDGE('',*,*,#143,.F.);
#920 = ORIENTED_EDGE('',*,*,#921,.T.);
#921 = EDGE_CURVE('',#144,#913,#922,.T.);
#922 = LINE('',#923,#924);
#923 = CARTESIAN_POINT('',(-20.92839190817,-10.35096189432,4.44));
#924 = VECTOR('',#925,1.);
#925 = DIRECTION('',(0.5,-0.866025403784,0.));
#926 = PLANE('',#927);
#927 = AXIS2_PLACEMENT_3D('',#928,#929,#930);
#928 = CARTESIAN_POINT('',(-18.24371315644,-8.800961894323,4.44));
#929 = DIRECTION('',(0.,0.,1.));
#930 = DIRECTION('',(-0.866025403784,-0.5,0.));
#931 = ADVANCED_FACE('',(#932),#991,.T.);
#932 = FACE_BOUND('',#933,.T.);
#933 = EDGE_LOOP('',(#934,#944,#950,#951,#952,#953,#961,#969,#977,#985)
  );
#934 = ORIENTED_EDGE('',*,*,#935,.T.);
#935 = EDGE_CURVE('',#936,#938,#940,.T.);
#936 = VERTEX_POINT('',#937);
#937 = CARTESIAN_POINT('',(-16.78701442663,-11.42403810567,7.24));
#938 = VERTEX_POINT('',#939);
#939 = CARTESIAN_POINT('',(-19.42839190817,-12.94903810567,7.24));
#940 = LINE('',#941,#942);
#941 = CARTESIAN_POINT('',(-16.74371315644,-11.39903810567,7.24));
#942 = VECTOR('',#943,1.);
#943 = DIRECTION('',(-0.866025403784,-0.5,0.));
#944 = ORIENTED_EDGE('',*,*,#945,.F.);
#945 = EDGE_CURVE('',#913,#938,#946,.T.);
#946 = LINE('',#947,#948);
#947 = CARTESIAN_POINT('',(-19.42839190817,-12.94903810567,4.44));
#948 = VECTOR('',#949,1.);
#949 = DIRECTION('',(0.,0.,1.));
#950 = ORIENTED_EDGE('',*,*,#912,.F.);
#951 = ORIENTED_EDGE('',*,*,#135,.T.);
#952 = ORIENTED_EDGE('',*,*,#584,.T.);
#953 = ORIENTED_EDGE('',*,*,#954,.T.);
#954 = EDGE_CURVE('',#577,#955,#957,.T.);
#955 = VERTEX_POINT('',#956);
#956 = CARTESIAN_POINT('',(-16.74371315644,-11.39903810567,6.05));
#957 = LINE('',#958,#959);
#958 = CARTESIAN_POINT('',(-16.74371315644,-11.39903810567,4.44));
#959 = VECTOR('',#960,1.);
#960 = DIRECTION('',(0.,0.,1.));
#961 = ORIENTED_EDGE('',*,*,#962,.F.);
#962 = EDGE_CURVE('',#963,#955,#965,.T.);
#963 = VERTEX_POINT('',#964);
#964 = CARTESIAN_POINT('',(-15.92098902285,-10.92403810567,6.05));
#965 = LINE('',#966,#967);
#966 = CARTESIAN_POINT('',(-15.92098902285,-10.92403810567,6.05));
#967 = VECTOR('',#968,1.);
#968 = DIRECTION('',(-0.866025403784,-0.5,0.));
#969 = ORIENTED_EDGE('',*,*,#970,.T.);
#970 = EDGE_CURVE('',#963,#971,#973,.T.);
#971 = VERTEX_POINT('',#972);
#972 = CARTESIAN_POINT('',(-15.92098902285,-10.92403810567,7.25));
#973 = LINE('',#974,#975);
#974 = CARTESIAN_POINT('',(-15.92098902285,-10.92403810567,6.05));
#975 = VECTOR('',#976,1.);
#976 = DIRECTION('',(0.,0.,1.));
#977 = ORIENTED_EDGE('',*,*,#978,.T.);
#978 = EDGE_CURVE('',#971,#979,#981,.T.);
#979 = VERTEX_POINT('',#980);
#980 = CARTESIAN_POINT('',(-16.78701442663,-11.42403810567,7.25));
#981 = LINE('',#982,#983);
#982 = CARTESIAN_POINT('',(-15.92098902285,-10.92403810567,7.25));
#983 = VECTOR('',#984,1.);
#984 = DIRECTION('',(-0.866025403784,-0.5,0.));
#985 = ORIENTED_EDGE('',*,*,#986,.F.);
#986 = EDGE_CURVE('',#936,#979,#987,.T.);
#987 = LINE('',#988,#989);
#988 = CARTESIAN_POINT('',(-16.78701442663,-11.42403810567,6.05));
#989 = VECTOR('',#990,1.);
#990 = DIRECTION('',(0.,0.,1.));
#991 = PLANE('',#992);
#992 = AXIS2_PLACEMENT_3D('',#993,#994,#995);
#993 = CARTESIAN_POINT('',(-16.74371315644,-11.39903810567,4.44));
#994 = DIRECTION('',(0.5,-0.866025403784,0.));
#995 = DIRECTION('',(0.,0.,1.));
#996 = ADVANCED_FACE('',(#997),#1063,.F.);
#997 = FACE_BOUND('',#998,.F.);
#998 = EDGE_LOOP('',(#999,#1009,#1017,#1023,#1024,#1025,#1033,#1041,
    #1049,#1057));
#999 = ORIENTED_EDGE('',*,*,#1000,.T.);
#1000 = EDGE_CURVE('',#1001,#1003,#1005,.T.);
#1001 = VERTEX_POINT('',#1002);
#1002 = CARTESIAN_POINT('',(16.787014426635,-11.42403810567,7.24));
#1003 = VERTEX_POINT('',#1004);
#1004 = CARTESIAN_POINT('',(19.428391908177,-12.94903810567,7.24));
#1005 = LINE('',#1006,#1007);
#1006 = CARTESIAN_POINT('',(16.743713156446,-11.39903810567,7.24));
#1007 = VECTOR('',#1008,1.);
#1008 = DIRECTION('',(0.866025403784,-0.5,0.));
#1009 = ORIENTED_EDGE('',*,*,#1010,.F.);
#1010 = EDGE_CURVE('',#1011,#1003,#1013,.T.);
#1011 = VERTEX_POINT('',#1012);
#1012 = CARTESIAN_POINT('',(19.428391908177,-12.94903810567,4.44));
#1013 = LINE('',#1014,#1015);
#1014 = CARTESIAN_POINT('',(19.428391908177,-12.94903810567,4.44));
#1015 = VECTOR('',#1016,1.);
#1016 = DIRECTION('',(0.,0.,1.));
#1017 = ORIENTED_EDGE('',*,*,#1018,.F.);
#1018 = EDGE_CURVE('',#110,#1011,#1019,.T.);
#1019 = LINE('',#1020,#1021);
#1020 = CARTESIAN_POINT('',(16.743713156446,-11.39903810567,4.44));
#1021 = VECTOR('',#1022,1.);
#1022 = DIRECTION('',(0.866025403784,-0.5,0.));
#1023 = ORIENTED_EDGE('',*,*,#118,.T.);
#1024 = ORIENTED_EDGE('',*,*,#591,.T.);
#1025 = ORIENTED_EDGE('',*,*,#1026,.T.);
#1026 = EDGE_CURVE('',#592,#1027,#1029,.T.);
#1027 = VERTEX_POINT('',#1028);
#1028 = CARTESIAN_POINT('',(16.743713156446,-11.39903810567,6.05));
#1029 = LINE('',#1030,#1031);
#1030 = CARTESIAN_POINT('',(16.743713156446,-11.39903810567,4.44));
#1031 = VECTOR('',#1032,1.);
#1032 = DIRECTION('',(0.,0.,1.));
#1033 = ORIENTED_EDGE('',*,*,#1034,.F.);
#1034 = EDGE_CURVE('',#1035,#1027,#1037,.T.);
#1035 = VERTEX_POINT('',#1036);
#1036 = CARTESIAN_POINT('',(15.92098902285,-10.92403810567,6.05));
#1037 = LINE('',#1038,#1039);
#1038 = CARTESIAN_POINT('',(15.92098902285,-10.92403810567,6.05));
#1039 = VECTOR('',#1040,1.);
#1040 = DIRECTION('',(0.866025403784,-0.5,0.));
#1041 = ORIENTED_EDGE('',*,*,#1042,.T.);
#1042 = EDGE_CURVE('',#1035,#1043,#1045,.T.);
#1043 = VERTEX_POINT('',#1044);
#1044 = CARTESIAN_POINT('',(15.92098902285,-10.92403810567,7.25));
#1045 = LINE('',#1046,#1047);
#1046 = CARTESIAN_POINT('',(15.92098902285,-10.92403810567,6.05));
#1047 = VECTOR('',#1048,1.);
#1048 = DIRECTION('',(0.,0.,1.));
#1049 = ORIENTED_EDGE('',*,*,#1050,.T.);
#1050 = EDGE_CURVE('',#1043,#1051,#1053,.T.);
#1051 = VERTEX_POINT('',#1052);
#1052 = CARTESIAN_POINT('',(16.787014426635,-11.42403810567,7.25));
#1053 = LINE('',#1054,#1055);
#1054 = CARTESIAN_POINT('',(15.92098902285,-10.92403810567,7.25));
#1055 = VECTOR('',#1056,1.);
#1056 = DIRECTION('',(0.866025403784,-0.5,0.));
#1057 = ORIENTED_EDGE('',*,*,#1058,.F.);
#1058 = EDGE_CURVE('',#1001,#1051,#1059,.T.);
#1059 = LINE('',#1060,#1061);
#1060 = CARTESIAN_POINT('',(16.787014426635,-11.42403810567,6.05));
#1061 = VECTOR('',#1062,1.);
#1062 = DIRECTION('',(0.,0.,1.));
#1063 = PLANE('',#1064);
#1064 = AXIS2_PLACEMENT_3D('',#1065,#1066,#1067);
#1065 = CARTESIAN_POINT('',(16.743713156446,-11.39903810567,4.44));
#1066 = DIRECTION('',(0.5,0.866025403784,0.));
#1067 = DIRECTION('',(0.,0.,1.));
#1068 = ADVANCED_FACE('',(#1069),#1079,.F.);
#1069 = FACE_BOUND('',#1070,.F.);
#1070 = EDGE_LOOP('',(#1071,#1072,#1073));
#1071 = ORIENTED_EDGE('',*,*,#109,.F.);
#1072 = ORIENTED_EDGE('',*,*,#1018,.T.);
#1073 = ORIENTED_EDGE('',*,*,#1074,.T.);
#1074 = EDGE_CURVE('',#1011,#101,#1075,.T.);
#1075 = LINE('',#1076,#1077);
#1076 = CARTESIAN_POINT('',(19.428391908177,-12.94903810567,4.44));
#1077 = VECTOR('',#1078,1.);
#1078 = DIRECTION('',(0.5,0.866025403784,0.));
#1079 = PLANE('',#1080);
#1080 = AXIS2_PLACEMENT_3D('',#1081,#1082,#1083);
#1081 = CARTESIAN_POINT('',(16.743713156446,-11.39903810567,4.44));
#1082 = DIRECTION('',(0.,0.,1.));
#1083 = DIRECTION('',(0.866025403784,-0.5,0.));
#1084 = ADVANCED_FACE('',(#1085),#1102,.F.);
#1085 = FACE_BOUND('',#1086,.F.);
#1086 = EDGE_LOOP('',(#1087,#1095,#1096));
#1087 = ORIENTED_EDGE('',*,*,#1088,.F.);
#1088 = EDGE_CURVE('',#93,#1089,#1091,.T.);
#1089 = VERTEX_POINT('',#1090);
#1090 = CARTESIAN_POINT('',(20.928391908177,-10.35096189432,4.44));
#1091 = LINE('',#1092,#1093);
#1092 = CARTESIAN_POINT('',(18.243713156446,-8.800961894323,4.44));
#1093 = VECTOR('',#1094,1.);
#1094 = DIRECTION('',(0.866025403784,-0.5,0.));
#1095 = ORIENTED_EDGE('',*,*,#100,.F.);
#1096 = ORIENTED_EDGE('',*,*,#1097,.T.);
#1097 = EDGE_CURVE('',#101,#1089,#1098,.T.);
#1098 = LINE('',#1099,#1100);
#1099 = CARTESIAN_POINT('',(19.428391908177,-12.94903810567,4.44));
#1100 = VECTOR('',#1101,1.);
#1101 = DIRECTION('',(0.5,0.866025403784,0.));
#1102 = PLANE('',#1103);
#1103 = AXIS2_PLACEMENT_3D('',#1104,#1105,#1106);
#1104 = CARTESIAN_POINT('',(16.743713156446,-11.39903810567,4.44));
#1105 = DIRECTION('',(0.,0.,1.));
#1106 = DIRECTION('',(0.866025403784,-0.5,0.));
#1107 = ADVANCED_FACE('',(#1108),#1167,.T.);
#1108 = FACE_BOUND('',#1109,.T.);
#1109 = EDGE_LOOP('',(#1110,#1120,#1126,#1127,#1128,#1129,#1137,#1145,
    #1153,#1161));
#1110 = ORIENTED_EDGE('',*,*,#1111,.T.);
#1111 = EDGE_CURVE('',#1112,#1114,#1116,.T.);
#1112 = VERTEX_POINT('',#1113);
#1113 = CARTESIAN_POINT('',(18.287014426635,-8.825961894323,7.24));
#1114 = VERTEX_POINT('',#1115);
#1115 = CARTESIAN_POINT('',(20.928391908177,-10.35096189432,7.24));
#1116 = LINE('',#1117,#1118);
#1117 = CARTESIAN_POINT('',(18.243713156446,-8.800961894323,7.24));
#1118 = VECTOR('',#1119,1.);
#1119 = DIRECTION('',(0.866025403784,-0.5,0.));
#1120 = ORIENTED_EDGE('',*,*,#1121,.F.);
#1121 = EDGE_CURVE('',#1089,#1114,#1122,.T.);
#1122 = LINE('',#1123,#1124);
#1123 = CARTESIAN_POINT('',(20.928391908177,-10.35096189432,4.44));
#1124 = VECTOR('',#1125,1.);
#1125 = DIRECTION('',(0.,0.,1.));
#1126 = ORIENTED_EDGE('',*,*,#1088,.F.);
#1127 = ORIENTED_EDGE('',*,*,#92,.T.);
#1128 = ORIENTED_EDGE('',*,*,#607,.T.);
#1129 = ORIENTED_EDGE('',*,*,#1130,.T.);
#1130 = EDGE_CURVE('',#600,#1131,#1133,.T.);
#1131 = VERTEX_POINT('',#1132);
#1132 = CARTESIAN_POINT('',(18.243713156446,-8.800961894323,6.05));
#1133 = LINE('',#1134,#1135);
#1134 = CARTESIAN_POINT('',(18.243713156446,-8.800961894323,4.44));
#1135 = VECTOR('',#1136,1.);
#1136 = DIRECTION('',(0.,0.,1.));
#1137 = ORIENTED_EDGE('',*,*,#1138,.F.);
#1138 = EDGE_CURVE('',#1139,#1131,#1141,.T.);
#1139 = VERTEX_POINT('',#1140);
#1140 = CARTESIAN_POINT('',(17.42098902285,-8.325961894323,6.05));
#1141 = LINE('',#1142,#1143);
#1142 = CARTESIAN_POINT('',(17.42098902285,-8.325961894323,6.05));
#1143 = VECTOR('',#1144,1.);
#1144 = DIRECTION('',(0.866025403784,-0.5,0.));
#1145 = ORIENTED_EDGE('',*,*,#1146,.T.);
#1146 = EDGE_CURVE('',#1139,#1147,#1149,.T.);
#1147 = VERTEX_POINT('',#1148);
#1148 = CARTESIAN_POINT('',(17.42098902285,-8.325961894323,7.25));
#1149 = LINE('',#1150,#1151);
#1150 = CARTESIAN_POINT('',(17.42098902285,-8.325961894323,6.05));
#1151 = VECTOR('',#1152,1.);
#1152 = DIRECTION('',(0.,0.,1.));
#1153 = ORIENTED_EDGE('',*,*,#1154,.T.);
#1154 = EDGE_CURVE('',#1147,#1155,#1157,.T.);
#1155 = VERTEX_POINT('',#1156);
#1156 = CARTESIAN_POINT('',(18.287014426635,-8.825961894323,7.25));
#1157 = LINE('',#1158,#1159);
#1158 = CARTESIAN_POINT('',(17.42098902285,-8.325961894323,7.25));
#1159 = VECTOR('',#1160,1.);
#1160 = DIRECTION('',(0.866025403784,-0.5,0.));
#1161 = ORIENTED_EDGE('',*,*,#1162,.F.);
#1162 = EDGE_CURVE('',#1112,#1155,#1163,.T.);
#1163 = LINE('',#1164,#1165);
#1164 = CARTESIAN_POINT('',(18.287014426635,-8.825961894323,6.05));
#1165 = VECTOR('',#1166,1.);
#1166 = DIRECTION('',(0.,0.,1.));
#1167 = PLANE('',#1168);
#1168 = AXIS2_PLACEMENT_3D('',#1169,#1170,#1171);
#1169 = CARTESIAN_POINT('',(18.243713156446,-8.800961894323,4.44));
#1170 = DIRECTION('',(0.5,0.866025403784,0.));
#1171 = DIRECTION('',(0.,0.,1.));
#1172 = ADVANCED_FACE('',(#1173),#1184,.F.);
#1173 = FACE_BOUND('',#1174,.F.);
#1174 = EDGE_LOOP('',(#1175,#1176,#1182,#1183));
#1175 = ORIENTED_EDGE('',*,*,#631,.F.);
#1176 = ORIENTED_EDGE('',*,*,#1177,.F.);
#1177 = EDGE_CURVE('',#385,#632,#1178,.T.);
#1178 = LINE('',#1179,#1180);
#1179 = CARTESIAN_POINT('',(18.3,-4.482207284879E-15,-1.E-02));
#1180 = VECTOR('',#1181,1.);
#1181 = DIRECTION('',(0.,0.,1.));
#1182 = ORIENTED_EDGE('',*,*,#384,.T.);
#1183 = ORIENTED_EDGE('',*,*,#1177,.T.);
#1184 = CYLINDRICAL_SURFACE('',#1185,18.3);
#1185 = AXIS2_PLACEMENT_3D('',#1186,#1187,#1188);
#1186 = CARTESIAN_POINT('',(0.,0.,-1.E-02));
#1187 = DIRECTION('',(0.,0.,1.));
#1188 = DIRECTION('',(1.,0.,-0.));
#1189 = ADVANCED_FACE('',(#1190),#1201,.F.);
#1190 = FACE_BOUND('',#1191,.F.);
#1191 = EDGE_LOOP('',(#1192,#1193,#1194,#1195));
#1192 = ORIENTED_EDGE('',*,*,#674,.F.);
#1193 = ORIENTED_EDGE('',*,*,#623,.T.);
#1194 = ORIENTED_EDGE('',*,*,#778,.T.);
#1195 = ORIENTED_EDGE('',*,*,#1196,.T.);
#1196 = EDGE_CURVE('',#779,#675,#1197,.T.);
#1197 = LINE('',#1198,#1199);
#1198 = CARTESIAN_POINT('',(1.5,20.2,6.05));
#1199 = VECTOR('',#1200,1.);
#1200 = DIRECTION('',(1.,-2.22044604925E-16,0.));
#1201 = PLANE('',#1202);
#1202 = AXIS2_PLACEMENT_3D('',#1203,#1204,#1205);
#1203 = CARTESIAN_POINT('',(1.5,20.2,4.44));
#1204 = DIRECTION('',(2.22044604925E-16,1.,0.));
#1205 = DIRECTION('',(0.,0.,1.));
#1206 = ADVANCED_FACE('',(#1207),#1218,.F.);
#1207 = FACE_BOUND('',#1208,.F.);
#1208 = EDGE_LOOP('',(#1209,#1210,#1211,#1212));
#1209 = ORIENTED_EDGE('',*,*,#1026,.F.);
#1210 = ORIENTED_EDGE('',*,*,#599,.T.);
#1211 = ORIENTED_EDGE('',*,*,#1130,.T.);
#1212 = ORIENTED_EDGE('',*,*,#1213,.T.);
#1213 = EDGE_CURVE('',#1131,#1027,#1214,.T.);
#1214 = LINE('',#1215,#1216);
#1215 = CARTESIAN_POINT('',(16.743713156446,-11.39903810567,6.05));
#1216 = VECTOR('',#1217,1.);
#1217 = DIRECTION('',(-0.5,-0.866025403784,0.));
#1218 = PLANE('',#1219);
#1219 = AXIS2_PLACEMENT_3D('',#1220,#1221,#1222);
#1220 = CARTESIAN_POINT('',(16.743713156446,-11.39903810567,4.44));
#1221 = DIRECTION('',(0.866025403784,-0.5,0.));
#1222 = DIRECTION('',(0.,0.,1.));
#1223 = ADVANCED_FACE('',(#1224),#1235,.F.);
#1224 = FACE_BOUND('',#1225,.F.);
#1225 = EDGE_LOOP('',(#1226,#1227,#1228,#1229));
#1226 = ORIENTED_EDGE('',*,*,#850,.F.);
#1227 = ORIENTED_EDGE('',*,*,#576,.T.);
#1228 = ORIENTED_EDGE('',*,*,#954,.T.);
#1229 = ORIENTED_EDGE('',*,*,#1230,.T.);
#1230 = EDGE_CURVE('',#955,#851,#1231,.T.);
#1231 = LINE('',#1232,#1233);
#1232 = CARTESIAN_POINT('',(-18.24371315644,-8.800961894323,6.05));
#1233 = VECTOR('',#1234,1.);
#1234 = DIRECTION('',(-0.5,0.866025403784,0.));
#1235 = PLANE('',#1236);
#1236 = AXIS2_PLACEMENT_3D('',#1237,#1238,#1239);
#1237 = CARTESIAN_POINT('',(-18.24371315644,-8.800961894323,4.44));
#1238 = DIRECTION('',(-0.866025403784,-0.5,0.));
#1239 = DIRECTION('',(0.,0.,1.));
#1240 = ADVANCED_FACE('',(#1241),#1257,.T.);
#1241 = FACE_BOUND('',#1242,.T.);
#1242 = EDGE_LOOP('',(#1243,#1244,#1250,#1251));
#1243 = ORIENTED_EDGE('',*,*,#759,.F.);
#1244 = ORIENTED_EDGE('',*,*,#1245,.F.);
#1245 = EDGE_CURVE('',#649,#760,#1246,.T.);
#1246 = LINE('',#1247,#1248);
#1247 = CARTESIAN_POINT('',(1.5,20.25,7.24));
#1248 = VECTOR('',#1249,1.);
#1249 = DIRECTION('',(-1.,2.22044604925E-16,0.));
#1250 = ORIENTED_EDGE('',*,*,#648,.T.);
#1251 = ORIENTED_EDGE('',*,*,#1252,.T.);
#1252 = EDGE_CURVE('',#651,#762,#1253,.T.);
#1253 = LINE('',#1254,#1255);
#1254 = CARTESIAN_POINT('',(1.5,23.3,7.24));
#1255 = VECTOR('',#1256,1.);
#1256 = DIRECTION('',(-1.,2.22044604925E-16,0.));
#1257 = PLANE('',#1258);
#1258 = AXIS2_PLACEMENT_3D('',#1259,#1260,#1261);
#1259 = CARTESIAN_POINT('',(1.5,20.2,7.24));
#1260 = DIRECTION('',(0.,0.,1.));
#1261 = DIRECTION('',(2.22044604925E-16,1.,0.));
#1262 = ADVANCED_FACE('',(#1263),#1274,.T.);
#1263 = FACE_BOUND('',#1264,.T.);
#1264 = EDGE_LOOP('',(#1265,#1266,#1267,#1268));
#1265 = ORIENTED_EDGE('',*,*,#706,.F.);
#1266 = ORIENTED_EDGE('',*,*,#1245,.T.);
#1267 = ORIENTED_EDGE('',*,*,#810,.T.);
#1268 = ORIENTED_EDGE('',*,*,#1269,.F.);
#1269 = EDGE_CURVE('',#699,#803,#1270,.T.);
#1270 = LINE('',#1271,#1272);
#1271 = CARTESIAN_POINT('',(1.5,20.25,7.25));
#1272 = VECTOR('',#1273,1.);
#1273 = DIRECTION('',(-1.,2.22044604925E-16,0.));
#1274 = PLANE('',#1275);
#1275 = AXIS2_PLACEMENT_3D('',#1276,#1277,#1278);
#1276 = CARTESIAN_POINT('',(1.5,20.25,6.05));
#1277 = DIRECTION('',(2.22044604925E-16,1.,0.));
#1278 = DIRECTION('',(0.,0.,1.));
#1279 = ADVANCED_FACE('',(#1280),#1291,.T.);
#1280 = FACE_BOUND('',#1281,.T.);
#1281 = EDGE_LOOP('',(#1282,#1288,#1289,#1290));
#1282 = ORIENTED_EDGE('',*,*,#1283,.F.);
#1283 = EDGE_CURVE('',#691,#795,#1284,.T.);
#1284 = LINE('',#1285,#1286);
#1285 = CARTESIAN_POINT('',(1.5,19.25,7.25));
#1286 = VECTOR('',#1287,1.);
#1287 = DIRECTION('',(-1.,2.22044604925E-16,0.));
#1288 = ORIENTED_EDGE('',*,*,#698,.T.);
#1289 = ORIENTED_EDGE('',*,*,#1269,.T.);
#1290 = ORIENTED_EDGE('',*,*,#802,.F.);
#1291 = PLANE('',#1292);
#1292 = AXIS2_PLACEMENT_3D('',#1293,#1294,#1295);
#1293 = CARTESIAN_POINT('',(1.5,19.25,7.25));
#1294 = DIRECTION('',(0.,0.,1.));
#1295 = DIRECTION('',(2.22044604925E-16,1.,0.));
#1296 = ADVANCED_FACE('',(#1297),#1308,.F.);
#1297 = FACE_BOUND('',#1298,.F.);
#1298 = EDGE_LOOP('',(#1299,#1300,#1306,#1307));
#1299 = ORIENTED_EDGE('',*,*,#690,.F.);
#1300 = ORIENTED_EDGE('',*,*,#1301,.T.);
#1301 = EDGE_CURVE('',#683,#787,#1302,.T.);
#1302 = LINE('',#1303,#1304);
#1303 = CARTESIAN_POINT('',(1.5,19.25,6.05));
#1304 = VECTOR('',#1305,1.);
#1305 = DIRECTION('',(-1.,2.22044604925E-16,0.));
#1306 = ORIENTED_EDGE('',*,*,#794,.T.);
#1307 = ORIENTED_EDGE('',*,*,#1283,.F.);
#1308 = PLANE('',#1309);
#1309 = AXIS2_PLACEMENT_3D('',#1310,#1311,#1312);
#1310 = CARTESIAN_POINT('',(1.5,19.25,6.05));
#1311 = DIRECTION('',(2.22044604925E-16,1.,0.));
#1312 = DIRECTION('',(0.,0.,1.));
#1313 = ADVANCED_FACE('',(#1314),#1320,.F.);
#1314 = FACE_BOUND('',#1315,.F.);
#1315 = EDGE_LOOP('',(#1316,#1317,#1318,#1319));
#1316 = ORIENTED_EDGE('',*,*,#786,.F.);
#1317 = ORIENTED_EDGE('',*,*,#1301,.F.);
#1318 = ORIENTED_EDGE('',*,*,#682,.T.);
#1319 = ORIENTED_EDGE('',*,*,#1196,.F.);
#1320 = PLANE('',#1321);
#1321 = AXIS2_PLACEMENT_3D('',#1322,#1323,#1324);
#1322 = CARTESIAN_POINT('',(1.5,19.25,6.05));
#1323 = DIRECTION('',(0.,0.,1.));
#1324 = DIRECTION('',(2.22044604925E-16,1.,0.));
#1325 = ADVANCED_FACE('',(#1326),#1333,.T.);
#1326 = FACE_BOUND('',#1327,.T.);
#1327 = EDGE_LOOP('',(#1328,#1329,#1330,#1331,#1332));
#1328 = ORIENTED_EDGE('',*,*,#658,.F.);
#1329 = ORIENTED_EDGE('',*,*,#722,.T.);
#1330 = ORIENTED_EDGE('',*,*,#745,.T.);
#1331 = ORIENTED_EDGE('',*,*,#769,.T.);
#1332 = ORIENTED_EDGE('',*,*,#1252,.F.);
#1333 = PLANE('',#1334);
#1334 = AXIS2_PLACEMENT_3D('',#1335,#1336,#1337);
#1335 = CARTESIAN_POINT('',(1.5,23.3,4.44));
#1336 = DIRECTION('',(2.22044604925E-16,1.,0.));
#1337 = DIRECTION('',(0.,0.,1.));
#1338 = ADVANCED_FACE('',(#1339),#1355,.T.);
#1339 = FACE_BOUND('',#1340,.T.);
#1340 = EDGE_LOOP('',(#1341,#1342,#1348,#1349));
#1341 = ORIENTED_EDGE('',*,*,#935,.F.);
#1342 = ORIENTED_EDGE('',*,*,#1343,.F.);
#1343 = EDGE_CURVE('',#825,#936,#1344,.T.);
#1344 = LINE('',#1345,#1346);
#1345 = CARTESIAN_POINT('',(-18.28701442663,-8.825961894323,7.24));
#1346 = VECTOR('',#1347,1.);
#1347 = DIRECTION('',(0.5,-0.866025403784,0.));
#1348 = ORIENTED_EDGE('',*,*,#824,.T.);
#1349 = ORIENTED_EDGE('',*,*,#1350,.T.);
#1350 = EDGE_CURVE('',#827,#938,#1351,.T.);
#1351 = LINE('',#1352,#1353);
#1352 = CARTESIAN_POINT('',(-20.92839190817,-10.35096189432,7.24));
#1353 = VECTOR('',#1354,1.);
#1354 = DIRECTION('',(0.5,-0.866025403784,0.));
#1355 = PLANE('',#1356);
#1356 = AXIS2_PLACEMENT_3D('',#1357,#1358,#1359);
#1357 = CARTESIAN_POINT('',(-18.24371315644,-8.800961894323,7.24));
#1358 = DIRECTION('',(0.,0.,1.));
#1359 = DIRECTION('',(-0.866025403784,-0.5,0.));
#1360 = ADVANCED_FACE('',(#1361),#1372,.T.);
#1361 = FACE_BOUND('',#1362,.T.);
#1362 = EDGE_LOOP('',(#1363,#1364,#1365,#1366));
#1363 = ORIENTED_EDGE('',*,*,#882,.F.);
#1364 = ORIENTED_EDGE('',*,*,#1343,.T.);
#1365 = ORIENTED_EDGE('',*,*,#986,.T.);
#1366 = ORIENTED_EDGE('',*,*,#1367,.F.);
#1367 = EDGE_CURVE('',#875,#979,#1368,.T.);
#1368 = LINE('',#1369,#1370);
#1369 = CARTESIAN_POINT('',(-18.28701442663,-8.825961894323,7.25));
#1370 = VECTOR('',#1371,1.);
#1371 = DIRECTION('',(0.5,-0.866025403784,0.));
#1372 = PLANE('',#1373);
#1373 = AXIS2_PLACEMENT_3D('',#1374,#1375,#1376);
#1374 = CARTESIAN_POINT('',(-18.28701442663,-8.825961894323,6.05));
#1375 = DIRECTION('',(-0.866025403784,-0.5,0.));
#1376 = DIRECTION('',(0.,0.,1.));
#1377 = ADVANCED_FACE('',(#1378),#1389,.T.);
#1378 = FACE_BOUND('',#1379,.T.);
#1379 = EDGE_LOOP('',(#1380,#1386,#1387,#1388));
#1380 = ORIENTED_EDGE('',*,*,#1381,.F.);
#1381 = EDGE_CURVE('',#867,#971,#1382,.T.);
#1382 = LINE('',#1383,#1384);
#1383 = CARTESIAN_POINT('',(-17.42098902285,-8.325961894323,7.25));
#1384 = VECTOR('',#1385,1.);
#1385 = DIRECTION('',(0.5,-0.866025403784,0.));
#1386 = ORIENTED_EDGE('',*,*,#874,.T.);
#1387 = ORIENTED_EDGE('',*,*,#1367,.T.);
#1388 = ORIENTED_EDGE('',*,*,#978,.F.);
#1389 = PLANE('',#1390);
#1390 = AXIS2_PLACEMENT_3D('',#1391,#1392,#1393);
#1391 = CARTESIAN_POINT('',(-17.42098902285,-8.325961894323,7.25));
#1392 = DIRECTION('',(0.,0.,1.));
#1393 = DIRECTION('',(-0.866025403784,-0.5,0.));
#1394 = ADVANCED_FACE('',(#1395),#1406,.F.);
#1395 = FACE_BOUND('',#1396,.F.);
#1396 = EDGE_LOOP('',(#1397,#1398,#1404,#1405));
#1397 = ORIENTED_EDGE('',*,*,#866,.F.);
#1398 = ORIENTED_EDGE('',*,*,#1399,.T.);
#1399 = EDGE_CURVE('',#859,#963,#1400,.T.);
#1400 = LINE('',#1401,#1402);
#1401 = CARTESIAN_POINT('',(-17.42098902285,-8.325961894323,6.05));
#1402 = VECTOR('',#1403,1.);
#1403 = DIRECTION('',(0.5,-0.866025403784,0.));
#1404 = ORIENTED_EDGE('',*,*,#970,.T.);
#1405 = ORIENTED_EDGE('',*,*,#1381,.F.);
#1406 = PLANE('',#1407);
#1407 = AXIS2_PLACEMENT_3D('',#1408,#1409,#1410);
#1408 = CARTESIAN_POINT('',(-17.42098902285,-8.325961894323,6.05));
#1409 = DIRECTION('',(-0.866025403784,-0.5,0.));
#1410 = DIRECTION('',(0.,0.,1.));
#1411 = ADVANCED_FACE('',(#1412),#1418,.F.);
#1412 = FACE_BOUND('',#1413,.F.);
#1413 = EDGE_LOOP('',(#1414,#1415,#1416,#1417));
#1414 = ORIENTED_EDGE('',*,*,#962,.F.);
#1415 = ORIENTED_EDGE('',*,*,#1399,.F.);
#1416 = ORIENTED_EDGE('',*,*,#858,.T.);
#1417 = ORIENTED_EDGE('',*,*,#1230,.F.);
#1418 = PLANE('',#1419);
#1419 = AXIS2_PLACEMENT_3D('',#1420,#1421,#1422);
#1420 = CARTESIAN_POINT('',(-17.42098902285,-8.325961894323,6.05));
#1421 = DIRECTION('',(0.,0.,1.));
#1422 = DIRECTION('',(-0.866025403784,-0.5,0.));
#1423 = ADVANCED_FACE('',(#1424),#1431,.T.);
#1424 = FACE_BOUND('',#1425,.T.);
#1425 = EDGE_LOOP('',(#1426,#1427,#1428,#1429,#1430));
#1426 = ORIENTED_EDGE('',*,*,#834,.F.);
#1427 = ORIENTED_EDGE('',*,*,#898,.T.);
#1428 = ORIENTED_EDGE('',*,*,#921,.T.);
#1429 = ORIENTED_EDGE('',*,*,#945,.T.);
#1430 = ORIENTED_EDGE('',*,*,#1350,.F.);
#1431 = PLANE('',#1432);
#1432 = AXIS2_PLACEMENT_3D('',#1433,#1434,#1435);
#1433 = CARTESIAN_POINT('',(-20.92839190817,-10.35096189432,4.44));
#1434 = DIRECTION('',(-0.866025403784,-0.5,0.));
#1435 = DIRECTION('',(0.,0.,1.));
#1436 = ADVANCED_FACE('',(#1437),#1453,.T.);
#1437 = FACE_BOUND('',#1438,.T.);
#1438 = EDGE_LOOP('',(#1439,#1440,#1446,#1447));
#1439 = ORIENTED_EDGE('',*,*,#1111,.F.);
#1440 = ORIENTED_EDGE('',*,*,#1441,.F.);
#1441 = EDGE_CURVE('',#1001,#1112,#1442,.T.);
#1442 = LINE('',#1443,#1444);
#1443 = CARTESIAN_POINT('',(16.787014426635,-11.42403810567,7.24));
#1444 = VECTOR('',#1445,1.);
#1445 = DIRECTION('',(0.5,0.866025403784,0.));
#1446 = ORIENTED_EDGE('',*,*,#1000,.T.);
#1447 = ORIENTED_EDGE('',*,*,#1448,.T.);
#1448 = EDGE_CURVE('',#1003,#1114,#1449,.T.);
#1449 = LINE('',#1450,#1451);
#1450 = CARTESIAN_POINT('',(19.428391908177,-12.94903810567,7.24));
#1451 = VECTOR('',#1452,1.);
#1452 = DIRECTION('',(0.5,0.866025403784,0.));
#1453 = PLANE('',#1454);
#1454 = AXIS2_PLACEMENT_3D('',#1455,#1456,#1457);
#1455 = CARTESIAN_POINT('',(16.743713156446,-11.39903810567,7.24));
#1456 = DIRECTION('',(0.,0.,1.));
#1457 = DIRECTION('',(0.866025403784,-0.5,0.));
#1458 = ADVANCED_FACE('',(#1459),#1470,.T.);
#1459 = FACE_BOUND('',#1460,.T.);
#1460 = EDGE_LOOP('',(#1461,#1462,#1463,#1464));
#1461 = ORIENTED_EDGE('',*,*,#1058,.F.);
#1462 = ORIENTED_EDGE('',*,*,#1441,.T.);
#1463 = ORIENTED_EDGE('',*,*,#1162,.T.);
#1464 = ORIENTED_EDGE('',*,*,#1465,.F.);
#1465 = EDGE_CURVE('',#1051,#1155,#1466,.T.);
#1466 = LINE('',#1467,#1468);
#1467 = CARTESIAN_POINT('',(16.787014426635,-11.42403810567,7.25));
#1468 = VECTOR('',#1469,1.);
#1469 = DIRECTION('',(0.5,0.866025403784,0.));
#1470 = PLANE('',#1471);
#1471 = AXIS2_PLACEMENT_3D('',#1472,#1473,#1474);
#1472 = CARTESIAN_POINT('',(16.787014426635,-11.42403810567,6.05));
#1473 = DIRECTION('',(0.866025403784,-0.5,0.));
#1474 = DIRECTION('',(0.,0.,1.));
#1475 = ADVANCED_FACE('',(#1476),#1487,.T.);
#1476 = FACE_BOUND('',#1477,.T.);
#1477 = EDGE_LOOP('',(#1478,#1484,#1485,#1486));
#1478 = ORIENTED_EDGE('',*,*,#1479,.F.);
#1479 = EDGE_CURVE('',#1043,#1147,#1480,.T.);
#1480 = LINE('',#1481,#1482);
#1481 = CARTESIAN_POINT('',(15.92098902285,-10.92403810567,7.25));
#1482 = VECTOR('',#1483,1.);
#1483 = DIRECTION('',(0.5,0.866025403784,0.));
#1484 = ORIENTED_EDGE('',*,*,#1050,.T.);
#1485 = ORIENTED_EDGE('',*,*,#1465,.T.);
#1486 = ORIENTED_EDGE('',*,*,#1154,.F.);
#1487 = PLANE('',#1488);
#1488 = AXIS2_PLACEMENT_3D('',#1489,#1490,#1491);
#1489 = CARTESIAN_POINT('',(15.92098902285,-10.92403810567,7.25));
#1490 = DIRECTION('',(0.,0.,1.));
#1491 = DIRECTION('',(0.866025403784,-0.5,0.));
#1492 = ADVANCED_FACE('',(#1493),#1504,.F.);
#1493 = FACE_BOUND('',#1494,.F.);
#1494 = EDGE_LOOP('',(#1495,#1496,#1502,#1503));
#1495 = ORIENTED_EDGE('',*,*,#1042,.F.);
#1496 = ORIENTED_EDGE('',*,*,#1497,.T.);
#1497 = EDGE_CURVE('',#1035,#1139,#1498,.T.);
#1498 = LINE('',#1499,#1500);
#1499 = CARTESIAN_POINT('',(15.92098902285,-10.92403810567,6.05));
#1500 = VECTOR('',#1501,1.);
#1501 = DIRECTION('',(0.5,0.866025403784,0.));
#1502 = ORIENTED_EDGE('',*,*,#1146,.T.);
#1503 = ORIENTED_EDGE('',*,*,#1479,.F.);
#1504 = PLANE('',#1505);
#1505 = AXIS2_PLACEMENT_3D('',#1506,#1507,#1508);
#1506 = CARTESIAN_POINT('',(15.92098902285,-10.92403810567,6.05));
#1507 = DIRECTION('',(0.866025403784,-0.5,0.));
#1508 = DIRECTION('',(0.,0.,1.));
#1509 = ADVANCED_FACE('',(#1510),#1516,.F.);
#1510 = FACE_BOUND('',#1511,.F.);
#1511 = EDGE_LOOP('',(#1512,#1513,#1514,#1515));
#1512 = ORIENTED_EDGE('',*,*,#1138,.F.);
#1513 = ORIENTED_EDGE('',*,*,#1497,.F.);
#1514 = ORIENTED_EDGE('',*,*,#1034,.T.);
#1515 = ORIENTED_EDGE('',*,*,#1213,.F.);
#1516 = PLANE('',#1517);
#1517 = AXIS2_PLACEMENT_3D('',#1518,#1519,#1520);
#1518 = CARTESIAN_POINT('',(15.92098902285,-10.92403810567,6.05));
#1519 = DIRECTION('',(0.,0.,1.));
#1520 = DIRECTION('',(0.866025403784,-0.5,0.));
#1521 = ADVANCED_FACE('',(#1522),#1529,.T.);
#1522 = FACE_BOUND('',#1523,.T.);
#1523 = EDGE_LOOP('',(#1524,#1525,#1526,#1527,#1528));
#1524 = ORIENTED_EDGE('',*,*,#1010,.F.);
#1525 = ORIENTED_EDGE('',*,*,#1074,.T.);
#1526 = ORIENTED_EDGE('',*,*,#1097,.T.);
#1527 = ORIENTED_EDGE('',*,*,#1121,.T.);
#1528 = ORIENTED_EDGE('',*,*,#1448,.F.);
#1529 = PLANE('',#1530);
#1530 = AXIS2_PLACEMENT_3D('',#1531,#1532,#1533);
#1531 = CARTESIAN_POINT('',(19.428391908177,-12.94903810567,4.44));
#1532 = DIRECTION('',(0.866025403784,-0.5,0.));
#1533 = DIRECTION('',(0.,0.,1.));
#1534 = ( GEOMETRIC_REPRESENTATION_CONTEXT(3) 
GLOBAL_UNCERTAINTY_ASSIGNED_CONTEXT((#1538)) 
GLOBAL_UNIT_ASSIGNED_CONTEXT((#1535,#1536,#1537)) REPRESENTATION_CONTEXT
('Context #1','3D Context with UNIT and UNCERTAINTY') );
#1535 = ( LENGTH_UNIT() NAMED_UNIT(*) SI_UNIT(.MILLI.,.METRE.) );
#1536 = ( NAMED_UNIT(*) PLANE_ANGLE_UNIT() SI_UNIT($,.RADIAN.) );
#1537 = ( NAMED_UNIT(*) SI_UNIT($,.STERADIAN.) SOLID_ANGLE_UNIT() );
#1538 = UNCERTAINTY_MEASURE_WITH_UNIT(LENGTH_MEASURE(2.E-07),#1535,
  'distance_accuracy_value','confusion accuracy');
#1539 = CONTEXT_DEPENDENT_SHAPE_REPRESENTATION(#1540,#1542);
#1540 = ( REPRESENTATION_RELATIONSHIP('','',#32,#10) 
REPRESENTATION_RELATIONSHIP_WITH_TRANSFORMATION(#1541) 
SHAPE_REPRESENTATION_RELATIONSHIP() );
#1541 = ITEM_DEFINED_TRANSFORMATION('','',#11,#15);
#1542 = PRODUCT_DEFINITION_SHAPE('Placement','Placement of an item',
  #1543);
#1543 = NEXT_ASSEMBLY_USAGE_OCCURRENCE('6','=>[0:1:1:2]','',#5,#27,$);
#1544 = PRODUCT_RELATED_PRODUCT_CATEGORY('part',$,(#29));
ENDSEC;
END-ISO-10303-21;
