ISO-10303-21;
HEADER;
FILE_DESCRIPTION (( 'STEP AP203' ),
    '1' );
FILE_NAME ('DM-TFTR50-413.STEP',
    '2022-08-14T12:00:30',
    ( '' ),
    ( '' ),
    'SwSTEP 2.0',
    'SolidWorks 2018',
    '' );
FILE_SCHEMA (( 'CONFIG_CONTROL_DESIGN' ));
ENDSEC;

DATA;
#1 = VERTEX_POINT ( 'NONE', #140 ) ;
#2 = DIRECTION ( 'NONE',  ( 1.000000000000000000, 0.000000000000000000, 0.000000000000000000 ) ) ;
#3 = DIRECTION ( 'NONE',  ( -0.9504497930834820973, -0.3108780964100978372, 0.000000000000000000 ) ) ;
#4 = PERSON ( '未指定', '未指定', '未指定', ('未指定'), ('未指定'), ('未指定') ) ;
#5 = EDGE_CURVE ( 'NONE', #440, #718, #697, .T. ) ;
#6 = CARTESIAN_POINT ( 'NONE',  ( 0.000000000000000000, 0.000000000000000000, 1.979999999999999982 ) ) ;
#7 = DIRECTION ( 'NONE',  ( 0.000000000000000000, -1.000000000000000000, 0.000000000000000000 ) ) ;
#8 = LINE ( 'NONE', #544, #340 ) ;
#9 = EDGE_LOOP ( 'NONE', ( #84, #192 ) ) ;
#10 = PERSON_AND_ORGANIZATION_ROLE ( 'design_owner' ) ;
#11 = VERTEX_POINT ( 'NONE', #720 ) ;
#12 = ORIENTED_EDGE ( 'NONE', *, *, #715, .T. ) ;
#13 = CARTESIAN_POINT ( 'NONE',  ( -65.95267832289555088, 2.499999999999985789, 0.000000000000000000 ) ) ;
#14 = CARTESIAN_POINT ( 'NONE',  ( 10.00000000000000000, 66.17000000000000171, 1.979999999999999982 ) ) ;
#15 = CARTESIAN_POINT ( 'NONE',  ( 20.51796797095775204, 62.72972794701158250, 1.979999999999999982 ) ) ;
#16 = CARTESIAN_POINT ( 'NONE',  ( 0.000000000000000000, -70.35999999999999943, 0.000000000000000000 ) ) ;
#17 = LOCAL_TIME ( 20, 0, 30.00000000000000000, #158 ) ;
#18 = LINE ( 'NONE', #337, #723 ) ;
#19 = VECTOR ( 'NONE', #632, 1000.000000000000000 ) ;
#20 = ADVANCED_FACE ( 'NONE', ( #481 ), #548, .F. ) ;
#21 = CARTESIAN_POINT ( 'NONE',  ( -66.09999999999999432, 2.500000000000000000, 0.000000000000000000 ) ) ;
#22 = ORIENTED_EDGE ( 'NONE', *, *, #728, .T. ) ;
#23 = ORIENTED_EDGE ( 'NONE', *, *, #226, .F. ) ;
#24 = ADVANCED_FACE ( 'NONE', ( #435 ), #618, .T. ) ;
#25 = LINE ( 'NONE', #691, #740 ) ;
#26 = VERTEX_POINT ( 'NONE', #734 ) ;
#27 = ORIENTED_EDGE ( 'NONE', *, *, #341, .T. ) ;
#28 = CARTESIAN_POINT ( 'NONE',  ( 0.000000000000000000, 66.17000000000000171, 1.979999999999999982 ) ) ;
#29 = ADVANCED_FACE ( 'NONE', ( #676 ), #566, .F. ) ;
#30 = EDGE_CURVE ( 'NONE', #556, #78, #410, .T. ) ;
#31 = CC_DESIGN_DATE_AND_TIME_ASSIGNMENT ( #370, #534, ( #668 ) ) ;
#32 = LINE ( 'NONE', #462, #439 ) ;
#33 = VECTOR ( 'NONE', #694, 1000.000000000000000 ) ;
#34 = VERTEX_POINT ( 'NONE', #93 ) ;
#35 = ORIENTED_EDGE ( 'NONE', *, *, #453, .T. ) ;
#36 = CARTESIAN_POINT ( 'NONE',  ( -15.51999999999999957, -70.35999999999999943, 1.979999999999999982 ) ) ;
#37 = DIRECTION ( 'NONE',  ( 0.000000000000000000, 0.000000000000000000, 1.000000000000000000 ) ) ;
#38 = DIRECTION ( 'NONE',  ( 0.9504497930834817643, -0.3108780964100987254, 0.000000000000000000 ) ) ;
#39 = APPROVAL_PERSON_ORGANIZATION ( #660, #144, #171 ) ;
#40 = CIRCLE ( 'NONE', #279, 66.00004377243500642 ) ;
#41 = AXIS2_PLACEMENT_3D ( 'NONE', #385, #150, #321 ) ;
#42 = ORIENTED_EDGE ( 'NONE', *, *, #108, .T. ) ;
#43 = ORIENTED_EDGE ( 'NONE', *, *, #639, .T. ) ;
#44 = ORIENTED_EDGE ( 'NONE', *, *, #433, .T. ) ;
#45 = DIRECTION ( 'NONE',  ( -1.000000000000000000, -0.000000000000000000, -0.000000000000000000 ) ) ;
#46 = CARTESIAN_POINT ( 'NONE',  ( 15.51995762649105082, -70.35994186768016334, 1.979999999999999982 ) ) ;
#47 = PLANE ( 'NONE',  #443 ) ;
#48 = LINE ( 'NONE', #474, #379 ) ;
#49 = VECTOR ( 'NONE', #335, 1000.000000000000000 ) ;
#50 = VERTEX_POINT ( 'NONE', #198 ) ;
#51 = DIRECTION ( 'NONE',  ( 1.000000000000000000, 0.000000000000000000, -0.000000000000000000 ) ) ;
#52 = ORIENTED_EDGE ( 'NONE', *, *, #274, .T. ) ;
#53 = PLANE ( 'NONE',  #80 ) ;
#54 = CARTESIAN_POINT ( 'NONE',  ( 0.000000000000000000, 0.000000000000000000, 0.000000000000000000 ) ) ;
#55 = DIRECTION ( 'NONE',  ( -0.9504497930834820973, -0.3108780964100978372, 0.000000000000000000 ) ) ;
#56 = CARTESIAN_POINT ( 'NONE',  ( 0.000000000000000000, -70.35999999999999943, 1.979999999999999982 ) ) ;
#57 = DATE_AND_TIME ( #273, #98 ) ;
#58 = DIRECTION ( 'NONE',  ( 1.000000000000000000, 0.000000000000000000, -0.000000000000000000 ) ) ;
#59 = FACE_OUTER_BOUND ( 'NONE', #334, .T. ) ;
#60 = ORIENTED_EDGE ( 'NONE', *, *, #199, .T. ) ;
#61 = DIRECTION ( 'NONE',  ( 0.000000000000000000, 0.000000000000000000, 1.000000000000000000 ) ) ;
#62 = ORIENTED_EDGE ( 'NONE', *, *, #351, .F. ) ;
#63 = APPROVAL_ROLE ( '' ) ;
#64 = EDGE_CURVE ( 'NONE', #85, #50, #584, .T. ) ;
#65 = DATE_TIME_ROLE ( 'classification_date' ) ;
#66 = ORIENTED_EDGE ( 'NONE', *, *, #428, .F. ) ;
#67 = LINE ( 'NONE', #599, #502 ) ;
#68 = LINE ( 'NONE', #464, #684 ) ;
#69 = ORIENTED_EDGE ( 'NONE', *, *, #341, .F. ) ;
#70 = EDGE_CURVE ( 'NONE', #363, #572, #753, .T. ) ;
#71 = VERTEX_POINT ( 'NONE', #201 ) ;
#72 = CARTESIAN_POINT ( 'NONE',  ( 65.95267832289555088, -2.500000000000000000, 1.979999999999999982 ) ) ;
#73 = CARTESIAN_POINT ( 'NONE',  ( 10.00000000000000000, 66.17000000000000171, 0.000000000000000000 ) ) ;
#74 = PLANE ( 'NONE',  #438 ) ;
#75 = CALENDAR_DATE ( 2022, 14, 8 ) ;
#76 = VECTOR ( 'NONE', #482, 1000.000000000000000 ) ;
#77 = ORIENTED_EDGE ( 'NONE', *, *, #244, .F. ) ;
#78 = VERTEX_POINT ( 'NONE', #330 ) ;
#79 = ADVANCED_FACE ( 'NONE', ( #490 ), #595, .T. ) ;
#80 = AXIS2_PLACEMENT_3D ( 'NONE', #680, #281, #102 ) ;
#81 = DIRECTION ( 'NONE',  ( -0.3108780964100987809, -0.9504497930834818753, 0.000000000000000000 ) ) ;
#82 = FACE_OUTER_BOUND ( 'NONE', #104, .T. ) ;
#83 = LINE ( 'NONE', #392, #582 ) ;
#84 = ORIENTED_EDGE ( 'NONE', *, *, #613, .F. ) ;
#85 = VERTEX_POINT ( 'NONE', #736 ) ;
#86 = DIRECTION ( 'NONE',  ( -1.000000000000000000, 0.000000000000000000, 0.000000000000000000 ) ) ;
#87 = DIRECTION ( 'NONE',  ( -0.000000000000000000, -0.000000000000000000, -1.000000000000000000 ) ) ;
#88 = LINE ( 'NONE', #123, #209 ) ;
#89 = DIRECTION ( 'NONE',  ( 1.000000000000000000, 0.000000000000000000, 0.000000000000000000 ) ) ;
#90 = CIRCLE ( 'NONE', #469, 66.00004377243500642 ) ;
#91 = ORIENTED_EDGE ( 'NONE', *, *, #30, .F. ) ;
#92 = ORIENTED_EDGE ( 'NONE', *, *, #225, .T. ) ;
#93 = CARTESIAN_POINT ( 'NONE',  ( -10.00000000000000000, 66.17000000000000171, 0.000000000000000000 ) ) ;
#94 = CARTESIAN_POINT ( 'NONE',  ( -15.51999999999999957, -70.35999999999999943, 1.979999999999999982 ) ) ;
#95 = ORIENTED_EDGE ( 'NONE', *, *, #735, .F. ) ;
#96 = AXIS2_PLACEMENT_3D ( 'NONE', #375, #81, #38 ) ;
#97 = CARTESIAN_POINT ( 'NONE',  ( 0.000000000000000000, 0.000000000000000000, 0.000000000000000000 ) ) ;
#98 = LOCAL_TIME ( 20, 0, 30.00000000000000000, #463 ) ;
#99 = ORIENTED_EDGE ( 'NONE', *, *, #252, .T. ) ;
#100 = DIRECTION ( 'NONE',  ( 0.000000000000000000, 0.000000000000000000, 1.000000000000000000 ) ) ;
#101 = CYLINDRICAL_SURFACE ( 'NONE', #271, 63.50000000000000000 ) ;
#102 = DIRECTION ( 'NONE',  ( 0.000000000000000000, -0.000000000000000000, 1.000000000000000000 ) ) ;
#103 = ORIENTED_EDGE ( 'NONE', *, *, #396, .F. ) ;
#104 = EDGE_LOOP ( 'NONE', ( #346, #69, #719, #598 ) ) ;
#105 = CARTESIAN_POINT ( 'NONE',  ( -15.51999999999999957, -70.35999999999999943, 0.000000000000000000 ) ) ;
#106 = DIRECTION ( 'NONE',  ( 1.000000000000000000, 0.000000000000000000, 0.000000000000000000 ) ) ;
#107 = PRODUCT_DEFINITION_FORMATION_WITH_SPECIFIED_SOURCE ( '任何', '', #526, .NOT_KNOWN. ) ;
#108 = EDGE_CURVE ( 'NONE', #679, #547, #529, .T. ) ;
#109 = DIRECTION ( 'NONE',  ( 0.000000000000000000, 1.000000000000000000, -0.000000000000000000 ) ) ;
#110 = FACE_OUTER_BOUND ( 'NONE', #151, .T. ) ;
#111 = CARTESIAN_POINT ( 'NONE',  ( -66.09999999999999432, -2.220096664243737326E-15, 0.000000000000000000 ) ) ;
#112 = FACE_OUTER_BOUND ( 'NONE', #394, .T. ) ;
#113 = ORIENTED_EDGE ( 'NONE', *, *, #206, .T. ) ;
#114 = DIRECTION ( 'NONE',  ( -0.000000000000000000, -0.000000000000000000, -1.000000000000000000 ) ) ;
#115 = VERTEX_POINT ( 'NONE', #557 ) ;
#116 = CARTESIAN_POINT ( 'NONE',  ( 38.87661776918164946, -53.33492635030341233, 1.979999999999999982 ) ) ;
#117 = PLANE ( 'NONE',  #188 ) ;
#118 = AXIS2_PLACEMENT_3D ( 'NONE', #629, #343, #338 ) ;
#119 = APPROVAL_STATUS ( 'not_yet_approved' ) ;
#120 = VERTEX_POINT ( 'NONE', #562 ) ;
#121 = DIRECTION ( 'NONE',  ( -0.000000000000000000, -0.000000000000000000, -1.000000000000000000 ) ) ;
#122 = EDGE_CURVE ( 'NONE', #381, #374, #732, .T. ) ;
#123 = CARTESIAN_POINT ( 'NONE',  ( 38.87661776918164946, -53.33492635030341233, 1.979999999999999982 ) ) ;
#124 = FACE_OUTER_BOUND ( 'NONE', #223, .T. ) ;
#125 = FACE_OUTER_BOUND ( 'NONE', #484, .T. ) ;
#126 = DIRECTION ( 'NONE',  ( -0.000000000000000000, -0.000000000000000000, -1.000000000000000000 ) ) ;
#127 = ORIENTED_EDGE ( 'NONE', *, *, #323, .F. ) ;
#128 = ORIENTED_EDGE ( 'NONE', *, *, #64, .F. ) ;
#129 = DIRECTION ( 'NONE',  ( -0.9504497930834817643, 0.3108780964100987254, -0.000000000000000000 ) ) ;
#130 = EDGE_CURVE ( 'NONE', #374, #422, #430, .T. ) ;
#131 = ADVANCED_FACE ( 'NONE', ( #125 ), #621, .F. ) ;
#132 = DIRECTION ( 'NONE',  ( 0.8081029426952240913, -0.5890412837885978803, -0.000000000000000000 ) ) ;
#133 = CARTESIAN_POINT ( 'NONE',  ( 0.000000000000000000, -70.35999999999999943, 0.000000000000000000 ) ) ;
#134 = COORDINATED_UNIVERSAL_TIME_OFFSET ( 8, 0, .AHEAD. ) ;
#135 = VECTOR ( 'NONE', #360, 1000.000000000000000 ) ;
#136 = VECTOR ( 'NONE', #507, 1000.000000000000114 ) ;
#137 = CC_DESIGN_PERSON_AND_ORGANIZATION_ASSIGNMENT ( #436, #420, ( #107 ) ) ;
#138 = EDGE_LOOP ( 'NONE', ( #711, #127, #186, #27 ) ) ;
#139 = DIRECTION ( 'NONE',  ( 1.000000000000000000, 0.000000000000000000, 0.000000000000000000 ) ) ;
#140 = CARTESIAN_POINT ( 'NONE',  ( 0.000000000000000000, -70.35999999999999943, 1.979999999999999982 ) ) ;
#141 = FACE_OUTER_BOUND ( 'NONE', #611, .T. ) ;
#142 = EDGE_LOOP ( 'NONE', ( #307, #624, #538, #52 ) ) ;
#143 = ORIENTED_EDGE ( 'NONE', *, *, #5, .F. ) ;
#144 = APPROVAL ( #650, '未指定' ) ;
#145 = DIRECTION ( 'NONE',  ( 0.5890412837885978803, 0.8081029426952239803, -0.000000000000000000 ) ) ;
#146 = VECTOR ( 'NONE', #578, 1000.000000000000000 ) ;
#147 = CYLINDRICAL_SURFACE ( 'NONE', #450, 63.50000000000000000 ) ;
#148 = VECTOR ( 'NONE', #452, 1000.000000000000000 ) ;
#149 = ORIENTED_EDGE ( 'NONE', *, *, #376, .T. ) ;
#150 = DIRECTION ( 'NONE',  ( 0.3108780964100978372, -0.9504497930834820973, 0.000000000000000000 ) ) ;
#151 = EDGE_LOOP ( 'NONE', ( #742, #648, #687, #665 ) ) ;
#152 = ORIENTED_EDGE ( 'NONE', *, *, #5, .T. ) ;
#153 = ORIENTED_EDGE ( 'NONE', *, *, #310, .F. ) ;
#154 = CARTESIAN_POINT ( 'NONE',  ( 65.95267832289555088, 2.500000000000000000, 1.979999999999999982 ) ) ;
#155 = DIRECTION ( 'NONE',  ( -0.5890392725075508373, 0.8081044087516013885, 0.000000000000000000 ) ) ;
#156 = DIRECTION ( 'NONE',  ( 1.000000000000000000, 0.000000000000000000, 0.000000000000000000 ) ) ;
#157 = CARTESIAN_POINT ( 'NONE',  ( -65.95267832289555088, -2.500000000000000000, 1.979999999999999982 ) ) ;
#158 = COORDINATED_UNIVERSAL_TIME_OFFSET ( 8, 0, .AHEAD. ) ;
#159 = LINE ( 'NONE', #14, #570 ) ;
#160 = DIRECTION ( 'NONE',  ( 0.000000000000000000, -0.000000000000000000, -1.000000000000000000 ) ) ;
#161 = LINE ( 'NONE', #46, #708 ) ;
#162 = CARTESIAN_POINT ( 'NONE',  ( 15.51995762649105082, -70.35994186768016334, 1.979999999999999982 ) ) ;
#163 = VERTEX_POINT ( 'NONE', #329 ) ;
#164 = DIRECTION ( 'NONE',  ( -1.000000000000000000, 0.000000000000000000, 0.000000000000000000 ) ) ;
#165 = EDGE_CURVE ( 'NONE', #71, #237, #373, .T. ) ;
#166 = EDGE_CURVE ( 'NONE', #679, #1, #253, .T. ) ;
#167 = ORIENTED_EDGE ( 'NONE', *, *, #389, .F. ) ;
#168 = CARTESIAN_POINT ( 'NONE',  ( -66.09999999999999432, -2.500000000000000000, 0.000000000000000000 ) ) ;
#169 = AXIS2_PLACEMENT_3D ( 'NONE', #403, #518, #685 ) ;
#170 = DIRECTION ( 'NONE',  ( -0.000000000000000000, -0.000000000000000000, -1.000000000000000000 ) ) ;
#171 = APPROVAL_ROLE ( '' ) ;
#172 = CARTESIAN_POINT ( 'NONE',  ( 65.95267832289555088, 2.500000000000000000, 1.979999999999999982 ) ) ;
#173 = VECTOR ( 'NONE', #695, 1000.000000000000000 ) ;
#174 = FACE_OUTER_BOUND ( 'NONE', #280, .T. ) ;
#175 = APPROVAL_STATUS ( 'not_yet_approved' ) ;
#176 = AXIS2_PLACEMENT_3D ( 'NONE', #448, #506, #670 ) ;
#177 = ORIENTED_EDGE ( 'NONE', *, *, #267, .F. ) ;
#178 = ORIENTED_EDGE ( 'NONE', *, *, #552, .T. ) ;
#179 = DIRECTION ( 'NONE',  ( 1.000000000000000000, 0.000000000000000000, 0.000000000000000000 ) ) ;
#180 = DIRECTION ( 'NONE',  ( -0.000000000000000000, 0.000000000000000000, -1.000000000000000000 ) ) ;
#181 = PERSON_AND_ORGANIZATION_ROLE ( 'creator' ) ;
#182 = LINE ( 'NONE', #154, #454 ) ;
#183 = FACE_OUTER_BOUND ( 'NONE', #619, .T. ) ;
#184 = AXIS2_PLACEMENT_3D ( 'NONE', #508, #444, #86 ) ;
#185 = VERTEX_POINT ( 'NONE', #284 ) ;
#186 = ORIENTED_EDGE ( 'NONE', *, *, #614, .F. ) ;
#187 = FACE_BOUND ( 'NONE', #9, .T. ) ;
#188 = AXIS2_PLACEMENT_3D ( 'NONE', #411, #61, #58 ) ;
#189 = VERTEX_POINT ( 'NONE', #259 ) ;
#190 = ORIENTED_EDGE ( 'NONE', *, *, #108, .F. ) ;
#191 = UNCERTAINTY_MEASURE_WITH_UNIT (LENGTH_MEASURE( 1.000000000000000082E-05 ), #592, 'distance_accuracy_value', 'NONE');
#192 = ORIENTED_EDGE ( 'NONE', *, *, #639, .F. ) ;
#193 = CARTESIAN_POINT ( 'NONE',  ( 15.51995762649105082, -70.35994186768016334, 0.000000000000000000 ) ) ;
#194 = LINE ( 'NONE', #111, #517 ) ;
#195 = ADVANCED_FACE ( 'NONE', ( #174 ), #53, .F. ) ;
#196 = ORIENTED_EDGE ( 'NONE', *, *, #351, .T. ) ;
#197 = EDGE_LOOP ( 'NONE', ( #546, #317, #43, #539 ) ) ;
#198 = CARTESIAN_POINT ( 'NONE',  ( -63.50000000000000000, 7.776507174585691374E-15, 1.979999999999999982 ) ) ;
#199 = EDGE_CURVE ( 'NONE', #1, #11, #25, .T. ) ;
#200 = AXIS2_PLACEMENT_3D ( 'NONE', #488, #540, #426 ) ;
#201 = CARTESIAN_POINT ( 'NONE',  ( -65.95267832289555088, -2.500000000000000000, 0.000000000000000000 ) ) ;
#202 = PERSON_AND_ORGANIZATION ( #4, #615 ) ;
#203 = LINE ( 'NONE', #641, #371 ) ;
#204 = ORIENTED_EDGE ( 'NONE', *, *, #130, .F. ) ;
#205 = ORIENTED_EDGE ( 'NONE', *, *, #564, .F. ) ;
#206 = EDGE_CURVE ( 'NONE', #85, #355, #332, .T. ) ;
#207 = VERTEX_POINT ( 'NONE', #749 ) ;
#208 = DIRECTION ( 'NONE',  ( 1.000000000000000000, 0.000000000000000000, 0.000000000000000000 ) ) ;
#209 = VECTOR ( 'NONE', #646, 1000.000000000000000 ) ;
#210 = VECTOR ( 'NONE', #525, 1000.000000000000000 ) ;
#211 = EDGE_LOOP ( 'NONE', ( #686, #113 ) ) ;
#212 = CARTESIAN_POINT ( 'NONE',  ( 0.000000000000000000, 0.000000000000000000, 1.969999999999999973 ) ) ;
#213 = CARTESIAN_POINT ( 'NONE',  ( -65.95267832289555088, -2.500000000000000000, 0.000000000000000000 ) ) ;
#214 = PLANE ( 'NONE',  #345 ) ;
#215 = EDGE_CURVE ( 'NONE', #185, #289, #68, .T. ) ;
#216 = CARTESIAN_POINT ( 'NONE',  ( 15.51995762649105082, -70.35994186768016334, 1.979999999999999982 ) ) ;
#217 = PLANE ( 'NONE',  #483 ) ;
#218 = DIRECTION ( 'NONE',  ( 0.000000000000000000, 0.000000000000000000, 1.000000000000000000 ) ) ;
#219 = APPROVAL ( #119, '未指定' ) ;
#220 = CARTESIAN_POINT ( 'NONE',  ( 65.95267832289555088, -2.500000000000000000, 0.000000000000000000 ) ) ;
#221 = VECTOR ( 'NONE', #272, 1000.000000000000000 ) ;
#222 = CARTESIAN_POINT ( 'NONE',  ( 0.000000000000000000, 0.000000000000000000, 1.979999999999999982 ) ) ;
#223 = EDGE_LOOP ( 'NONE', ( #62, #418, #597, #308, #296, #254, #344, #671, #204, #23, #607, #669, #458, #447, #520, #500, #352 ) ) ;
#224 = CARTESIAN_POINT ( 'NONE',  ( -66.09999999999999432, -2.220096664243737326E-15, 1.979999999999999982 ) ) ;
#225 = EDGE_CURVE ( 'NONE', #11, #300, #161, .T. ) ;
#226 = EDGE_CURVE ( 'NONE', #163, #374, #266, .T. ) ;
#227 = ORIENTED_EDGE ( 'NONE', *, *, #357, .T. ) ;
#228 = PERSON_AND_ORGANIZATION_ROLE ( 'classification_officer' ) ;
#229 = DIRECTION ( 'NONE',  ( 0.000000000000000000, -0.000000000000000000, -1.000000000000000000 ) ) ;
#230 = AXIS2_PLACEMENT_3D ( 'NONE', #575, #577, #738 ) ;
#231 = APPLICATION_PROTOCOL_DEFINITION ( 'international standard', 'config_control_design', 1994, #294 ) ;
#232 = DESIGN_CONTEXT ( 'detailed design', #294, 'design' ) ;
#233 = CARTESIAN_POINT ( 'NONE',  ( 66.09999999999999432, -2.500000000000000000, 1.979999999999999982 ) ) ;
#234 = PERSON_AND_ORGANIZATION_ROLE ( 'creator' ) ;
#235 = DATE_AND_TIME ( #393, #263 ) ;
#236 = VECTOR ( 'NONE', #397, 1000.000000000000000 ) ;
#237 = VERTEX_POINT ( 'NONE', #473 ) ;
#238 = ORIENTED_EDGE ( 'NONE', *, *, #165, .T. ) ;
#239 =( NAMED_UNIT ( * ) SI_UNIT ( $, .STERADIAN. ) SOLID_ANGLE_UNIT ( ) );
#240 = ADVANCED_FACE ( 'NONE', ( #380 ), #638, .F. ) ;
#241 = ADVANCED_FACE ( 'NONE', ( #112 ), #522, .F. ) ;
#242 = DIRECTION ( 'NONE',  ( 1.000000000000000000, 0.000000000000000000, 0.000000000000000000 ) ) ;
#243 = VECTOR ( 'NONE', #651, 1000.000000000000000 ) ;
#244 = EDGE_CURVE ( 'NONE', #511, #120, #509, .T. ) ;
#245 = LINE ( 'NONE', #702, #696 ) ;
#246 = AXIS2_PLACEMENT_3D ( 'NONE', #727, #383, #89 ) ;
#247 = ORIENTED_EDGE ( 'NONE', *, *, #746, .T. ) ;
#248 = ORIENTED_EDGE ( 'NONE', *, *, #433, .F. ) ;
#249 = EDGE_CURVE ( 'NONE', #269, #556, #717, .T. ) ;
#250 = ORIENTED_EDGE ( 'NONE', *, *, #613, .T. ) ;
#251 = APPROVAL_DATE_TIME ( #673, #144 ) ;
#252 = EDGE_CURVE ( 'NONE', #359, #71, #537, .T. ) ;
#253 = LINE ( 'NONE', #265, #316 ) ;
#254 = ORIENTED_EDGE ( 'NONE', *, *, #165, .F. ) ;
#255 = DIRECTION ( 'NONE',  ( -1.000000000000000000, -0.000000000000000000, -0.000000000000000000 ) ) ;
#256 = ORIENTED_EDGE ( 'NONE', *, *, #620, .F. ) ;
#257 = EDGE_CURVE ( 'NONE', #289, #120, #429, .T. ) ;
#258 = EDGE_CURVE ( 'NONE', #11, #363, #667, .T. ) ;
#259 = CARTESIAN_POINT ( 'NONE',  ( -66.09999999999999432, 2.500000000000000000, 1.979999999999999982 ) ) ;
#260 = EDGE_CURVE ( 'NONE', #550, #163, #83, .T. ) ;
#261 = CC_DESIGN_APPROVAL ( #144, ( #107 ) ) ;
#262 = DIRECTION ( 'NONE',  ( -0.8081029426952239803, 0.5890412837885978803, 0.000000000000000000 ) ) ;
#263 = LOCAL_TIME ( 20, 0, 30.00000000000000000, #659 ) ;
#264 = LINE ( 'NONE', #596, #305 ) ;
#265 = CARTESIAN_POINT ( 'NONE',  ( 0.000000000000000000, -70.35999999999999943, 1.979999999999999982 ) ) ;
#266 = CIRCLE ( 'NONE', #315, 66.00004377243499221 ) ;
#267 = EDGE_CURVE ( 'NONE', #499, #207, #560, .T. ) ;
#268 = ORIENTED_EDGE ( 'NONE', *, *, #310, .T. ) ;
#269 = VERTEX_POINT ( 'NONE', #409 ) ;
#270 = CARTESIAN_POINT ( 'NONE',  ( 0.000000000000000000, 0.000000000000000000, 0.000000000000000000 ) ) ;
#271 = AXIS2_PLACEMENT_3D ( 'NONE', #404, #649, #179 ) ;
#272 = DIRECTION ( 'NONE',  ( 1.000000000000000000, -0.000000000000000000, -0.000000000000000000 ) ) ;
#273 = CALENDAR_DATE ( 2022, 14, 8 ) ;
#274 = EDGE_CURVE ( 'NONE', #718, #34, #554, .T. ) ;
#275 = LINE ( 'NONE', #460, #146 ) ;
#276 = ORIENTED_EDGE ( 'NONE', *, *, #728, .F. ) ;
#277 = DIRECTION ( 'NONE',  ( -0.8081044087516013885, -0.5890392725075508373, 0.000000000000000000 ) ) ;
#278 = ORIENTED_EDGE ( 'NONE', *, *, #226, .T. ) ;
#279 = AXIS2_PLACEMENT_3D ( 'NONE', #591, #533, #406 ) ;
#280 = EDGE_LOOP ( 'NONE', ( #12, #167, #637, #623 ) ) ;
#281 = DIRECTION ( 'NONE',  ( 0.000000000000000000, 1.000000000000000000, 0.000000000000000000 ) ) ;
#282 = CARTESIAN_POINT ( 'NONE',  ( 38.87661776918164946, -53.33492635030341233, 0.000000000000000000 ) ) ;
#283 = DIRECTION ( 'NONE',  ( 0.000000000000000000, 0.000000000000000000, 1.000000000000000000 ) ) ;
#284 = CARTESIAN_POINT ( 'NONE',  ( 66.09999999999999432, 2.500000000000000000, 0.000000000000000000 ) ) ;
#285 = APPROVAL_PERSON_ORGANIZATION ( #445, #712, #63 ) ;
#286 = DIRECTION ( 'NONE',  ( 0.8081029426952240913, -0.5890412837885978803, -0.000000000000000000 ) ) ;
#287 = LINE ( 'NONE', #133, #135 ) ;
#288 = EDGE_CURVE ( 'NONE', #34, #163, #203, .T. ) ;
#289 = VERTEX_POINT ( 'NONE', #456 ) ;
#290 = CARTESIAN_POINT ( 'NONE',  ( -10.00000000000000000, 66.17000000000000171, 1.979999999999999982 ) ) ;
#291 = ORIENTED_EDGE ( 'NONE', *, *, #30, .T. ) ;
#292 = CARTESIAN_POINT ( 'NONE',  ( 65.95267832289555088, 2.500000000000000000, 1.979999999999999982 ) ) ;
#293 = AXIS2_PLACEMENT_3D ( 'NONE', #270, #37, #729 ) ;
#294 = APPLICATION_CONTEXT ( 'configuration controlled 3d designs of mechanical parts and assemblies' ) ;
#295 = CIRCLE ( 'NONE', #399, 63.50000000000000000 ) ;
#296 = ORIENTED_EDGE ( 'NONE', *, *, #369, .F. ) ;
#297 = CARTESIAN_POINT ( 'NONE',  ( 10.00000000000000000, 66.17000000000000171, 1.979999999999999982 ) ) ;
#298 = VERTEX_POINT ( 'NONE', #292 ) ;
#299 = APPROVAL_ROLE ( '' ) ;
#300 = VERTEX_POINT ( 'NONE', #116 ) ;
#301 = DIRECTION ( 'NONE',  ( -0.9999999999929850558, -3.745649391923256484E-06, 0.000000000000000000 ) ) ;
#302 = DIRECTION ( 'NONE',  ( 1.000000000000000000, 0.000000000000000000, 0.000000000000000000 ) ) ;
#303 = DIRECTION ( 'NONE',  ( -0.000000000000000000, -0.000000000000000000, -1.000000000000000000 ) ) ;
#304 = AXIS2_PLACEMENT_3D ( 'NONE', #56, #583, #475 ) ;
#305 = VECTOR ( 'NONE', #590, 1000.000000000000000 ) ;
#306 = LINE ( 'NONE', #605, #498 ) ;
#307 = ORIENTED_EDGE ( 'NONE', *, *, #288, .T. ) ;
#308 = ORIENTED_EDGE ( 'NONE', *, *, #424, .F. ) ;
#309 = PLANE ( 'NONE',  #200 ) ;
#310 = EDGE_CURVE ( 'NONE', #300, #499, #90, .T. ) ;
#311 = ADVANCED_FACE ( 'NONE', ( #350 ), #588, .F. ) ;
#312 = EDGE_CURVE ( 'NONE', #1, #421, #331, .T. ) ;
#313 = ADVANCED_FACE ( 'NONE', ( #617 ), #214, .F. ) ;
#314 = LINE ( 'NONE', #220, #707 ) ;
#315 = AXIS2_PLACEMENT_3D ( 'NONE', #97, #752, #106 ) ;
#316 = VECTOR ( 'NONE', #674, 1000.000000000000000 ) ;
#317 = ORIENTED_EDGE ( 'NONE', *, *, #64, .T. ) ;
#318 = ORIENTED_EDGE ( 'NONE', *, *, #258, .T. ) ;
#319 = ADVANCED_FACE ( 'NONE', ( #187, #386 ), #117, .T. ) ;
#320 = AXIS2_PLACEMENT_3D ( 'NONE', #212, #471, #521 ) ;
#321 = DIRECTION ( 'NONE',  ( 0.9504497930834820973, 0.3108780964100978372, 0.000000000000000000 ) ) ;
#322 = PERSON_AND_ORGANIZATION ( #4, #615 ) ;
#323 = EDGE_CURVE ( 'NONE', #298, #289, #408, .T. ) ;
#324 = LINE ( 'NONE', #366, #731 ) ;
#325 = EDGE_LOOP ( 'NONE', ( #402, #256, #95, #333 ) ) ;
#326 = ORIENTED_EDGE ( 'NONE', *, *, #336, .F. ) ;
#327 = EDGE_CURVE ( 'NONE', #422, #359, #194, .T. ) ;
#328 = AXIS2_PLACEMENT_3D ( 'NONE', #701, #121, #692 ) ;
#329 = CARTESIAN_POINT ( 'NONE',  ( -20.51796797095770586, 62.72972794701160382, 0.000000000000000000 ) ) ;
#330 = CARTESIAN_POINT ( 'NONE',  ( -38.87675051381878433, -53.33482959051830363, 1.979999999999999982 ) ) ;
#331 = LINE ( 'NONE', #634, #173 ) ;
#332 = CIRCLE ( 'NONE', #118, 63.50000000000000000 ) ;
#333 = ORIENTED_EDGE ( 'NONE', *, *, #244, .T. ) ;
#334 = EDGE_LOOP ( 'NONE', ( #238, #663, #91, #377 ) ) ;
#335 = DIRECTION ( 'NONE',  ( -0.000000000000000000, -0.000000000000000000, -1.000000000000000000 ) ) ;
#336 = EDGE_CURVE ( 'NONE', #189, #422, #675, .T. ) ;
#337 = CARTESIAN_POINT ( 'NONE',  ( 65.95267832289555088, -2.500000000000000000, 1.979999999999999982 ) ) ;
#338 = DIRECTION ( 'NONE',  ( 1.000000000000000000, 0.000000000000000000, 0.000000000000000000 ) ) ;
#339 = EDGE_CURVE ( 'NONE', #561, #709, #245, .T. ) ;
#340 = VECTOR ( 'NONE', #653, 1000.000000000000114 ) ;
#341 = EDGE_CURVE ( 'NONE', #709, #185, #361, .T. ) ;
#342 = VECTOR ( 'NONE', #286, 999.9999999999998863 ) ;
#343 = DIRECTION ( 'NONE',  ( 0.000000000000000000, 0.000000000000000000, 1.000000000000000000 ) ) ;
#344 = ORIENTED_EDGE ( 'NONE', *, *, #252, .F. ) ;
#345 = AXIS2_PLACEMENT_3D ( 'NONE', #172, #7, #229 ) ;
#346 = ORIENTED_EDGE ( 'NONE', *, *, #602, .T. ) ;
#347 = MANIFOLD_SOLID_BREP ( '切除-拉伸1', #364 ) ;
#348 = DIRECTION ( 'NONE',  ( 0.000000000000000000, -1.000000000000000000, 0.000000000000000000 ) ) ;
#349 = CARTESIAN_POINT ( 'NONE',  ( 66.09999999999999432, 2.500000000000000000, 1.979999999999999982 ) ) ;
#350 = FACE_OUTER_BOUND ( 'NONE', #657, .T. ) ;
#351 = EDGE_CURVE ( 'NONE', #572, #207, #40, .T. ) ;
#352 = ORIENTED_EDGE ( 'NONE', *, *, #715, .F. ) ;
#353 = DIRECTION ( 'NONE',  ( 1.000000000000000000, 0.000000000000000000, 0.000000000000000000 ) ) ;
#354 = ORIENTED_EDGE ( 'NONE', *, *, #643, .T. ) ;
#355 = VERTEX_POINT ( 'NONE', #589 ) ;
#356 = AXIS2_PLACEMENT_3D ( 'NONE', #162, #155, #277 ) ;
#357 = EDGE_CURVE ( 'NONE', #189, #269, #751, .T. ) ;
#358 = DIRECTION ( 'NONE',  ( -0.000000000000000000, -0.000000000000000000, 1.000000000000000000 ) ) ;
#359 = VERTEX_POINT ( 'NONE', #168 ) ;
#360 = DIRECTION ( 'NONE',  ( 1.000000000000000000, -0.000000000000000000, -0.000000000000000000 ) ) ;
#361 = LINE ( 'NONE', #349, #656 ) ;
#362 = CARTESIAN_POINT ( 'NONE',  ( 0.000000000000000000, 0.000000000000000000, 1.979999999999999982 ) ) ;
#363 = VERTEX_POINT ( 'NONE', #585 ) ;
#364 = CLOSED_SHELL ( 'NONE', ( #367, #372, #195, #543, #313, #24, #20, #240, #29, #79, #609, #432, #549, #365, #131, #311, #492, #241, #319, #608, #437, #541 ) ) ;
#365 = ADVANCED_FACE ( 'NONE', ( #59 ), #661, .T. ) ;
#366 = CARTESIAN_POINT ( 'NONE',  ( -65.95267832289555088, -2.500000000000000000, 1.979999999999999982 ) ) ;
#367 = ADVANCED_FACE ( 'NONE', ( #545 ), #101, .F. ) ;
#368 = PERSON_AND_ORGANIZATION ( #4, #615 ) ;
#369 = EDGE_CURVE ( 'NONE', #237, #547, #503, .T. ) ;
#370 = DATE_AND_TIME ( #75, #17 ) ;
#371 = VECTOR ( 'NONE', #3, 1000.000000000000000 ) ;
#372 = ADVANCED_FACE ( 'NONE', ( #183 ), #647, .T. ) ;
#373 = CIRCLE ( 'NONE', #293, 66.00004377243499221 ) ;
#374 = VERTEX_POINT ( 'NONE', #13 ) ;
#375 = CARTESIAN_POINT ( 'NONE',  ( 10.00000000000000000, 66.17000000000000171, 1.979999999999999982 ) ) ;
#376 = EDGE_CURVE ( 'NONE', #298, #511, #398, .T. ) ;
#377 = ORIENTED_EDGE ( 'NONE', *, *, #428, .T. ) ;
#378 = ORIENTED_EDGE ( 'NONE', *, *, #312, .F. ) ;
#379 = VECTOR ( 'NONE', #743, 1000.000000000000000 ) ;
#380 = FACE_OUTER_BOUND ( 'NONE', #612, .T. ) ;
#381 = VERTEX_POINT ( 'NONE', #601 ) ;
#382 = ORIENTED_EDGE ( 'NONE', *, *, #122, .T. ) ;
#383 = DIRECTION ( 'NONE',  ( 0.000000000000000000, 0.000000000000000000, 1.000000000000000000 ) ) ;
#384 = CC_DESIGN_PERSON_AND_ORGANIZATION_ASSIGNMENT ( #368, #234, ( #107 ) ) ;
#385 = CARTESIAN_POINT ( 'NONE',  ( -10.00000000000000000, 66.17000000000000171, 1.979999999999999982 ) ) ;
#386 = FACE_OUTER_BOUND ( 'NONE', #699, .T. ) ;
#387 = VECTOR ( 'NONE', #451, 1000.000000000000000 ) ;
#388 = ORIENTED_EDGE ( 'NONE', *, *, #70, .T. ) ;
#389 = EDGE_CURVE ( 'NONE', #561, #26, #635, .T. ) ;
#390 = DIRECTION ( 'NONE',  ( -0.000000000000000000, -0.000000000000000000, -1.000000000000000000 ) ) ;
#391 = AXIS2_PLACEMENT_3D ( 'NONE', #362, #419, #139 ) ;
#392 = CARTESIAN_POINT ( 'NONE',  ( -20.51796797095770586, 62.72972794701160382, 1.979999999999999982 ) ) ;
#393 = CALENDAR_DATE ( 2022, 14, 8 ) ;
#394 = EDGE_LOOP ( 'NONE', ( #388, #276, #442, #318 ) ) ;
#395 = CARTESIAN_POINT ( 'NONE',  ( 0.000000000000000000, 0.000000000000000000, 1.979999999999999982 ) ) ;
#396 = EDGE_CURVE ( 'NONE', #78, #679, #306, .T. ) ;
#397 = DIRECTION ( 'NONE',  ( -0.000000000000000000, -0.000000000000000000, -1.000000000000000000 ) ) ;
#398 = CIRCLE ( 'NONE', #391, 66.00004377243499221 ) ;
#399 = AXIS2_PLACEMENT_3D ( 'NONE', #395, #573, #208 ) ;
#400 = ORIENTED_EDGE ( 'NONE', *, *, #312, .T. ) ;
#401 = DIRECTION ( 'NONE',  ( 0.000000000000000000, 1.000000000000000000, 0.000000000000000000 ) ) ;
#402 = ORIENTED_EDGE ( 'NONE', *, *, #465, .T. ) ;
#403 = CARTESIAN_POINT ( 'NONE',  ( 0.000000000000000000, 66.17000000000000171, 1.979999999999999982 ) ) ;
#404 = CARTESIAN_POINT ( 'NONE',  ( 0.000000000000000000, 0.000000000000000000, 1.969999999999999973 ) ) ;
#405 = CARTESIAN_POINT ( 'NONE',  ( -20.51796797095770586, 62.72972794701160382, 1.979999999999999982 ) ) ;
#406 = DIRECTION ( 'NONE',  ( 1.000000000000000000, 0.000000000000000000, 0.000000000000000000 ) ) ;
#407 = LINE ( 'NONE', #290, #516 ) ;
#408 = LINE ( 'NONE', #476, #76 ) ;
#409 = CARTESIAN_POINT ( 'NONE',  ( -66.09999999999999432, -2.500000000000000000, 1.979999999999999982 ) ) ;
#410 = CIRCLE ( 'NONE', #246, 66.00004377243499221 ) ;
#411 = CARTESIAN_POINT ( 'NONE',  ( 0.000000000000000000, 0.000000000000000000, 1.979999999999999982 ) ) ;
#412 = SECURITY_CLASSIFICATION ( '', '', #652 ) ;
#413 = ORIENTED_EDGE ( 'NONE', *, *, #339, .T. ) ;
#414 = DIRECTION ( 'NONE',  ( 0.000000000000000000, 0.000000000000000000, 1.000000000000000000 ) ) ;
#415 = APPLICATION_PROTOCOL_DEFINITION ( 'international standard', 'config_control_design', 1994, #417 ) ;
#416 = DIRECTION ( 'NONE',  ( 0.000000000000000000, 0.000000000000000000, 1.000000000000000000 ) ) ;
#417 = APPLICATION_CONTEXT ( 'configuration controlled 3d designs of mechanical parts and assemblies' ) ;
#418 = ORIENTED_EDGE ( 'NONE', *, *, #70, .F. ) ;
#419 = DIRECTION ( 'NONE',  ( 0.000000000000000000, 0.000000000000000000, 1.000000000000000000 ) ) ;
#420 = PERSON_AND_ORGANIZATION_ROLE ( 'design_supplier' ) ;
#421 = VERTEX_POINT ( 'NONE', #16 ) ;
#422 = VERTEX_POINT ( 'NONE', #21 ) ;
#423 = DIRECTION ( 'NONE',  ( 1.000000000000000000, 0.000000000000000000, -0.000000000000000000 ) ) ;
#424 = EDGE_CURVE ( 'NONE', #547, #421, #287, .T. ) ;
#425 = ORIENTED_EDGE ( 'NONE', *, *, #735, .T. ) ;
#426 = DIRECTION ( 'NONE',  ( 1.000000000000000000, 0.000000000000000000, -0.000000000000000000 ) ) ;
#427 = DATE_AND_TIME ( #581, #730 ) ;
#428 = EDGE_CURVE ( 'NONE', #556, #71, #324, .T. ) ;
#429 = CIRCLE ( 'NONE', #230, 66.00004377243499221 ) ;
#430 = LINE ( 'NONE', #672, #148 ) ;
#431 = EDGE_LOOP ( 'NONE', ( #35, #519, #514, #400 ) ) ;
#432 = ADVANCED_FACE ( 'NONE', ( #110 ), #704, .F. ) ;
#433 = EDGE_CURVE ( 'NONE', #381, #189, #655, .T. ) ;
#434 = CARTESIAN_POINT ( 'NONE',  ( 66.09999999999999432, -2.220096664243737326E-15, 1.979999999999999982 ) ) ;
#435 = FACE_OUTER_BOUND ( 'NONE', #491, .T. ) ;
#436 = PERSON_AND_ORGANIZATION ( #4, #615 ) ;
#437 = ADVANCED_FACE ( 'NONE', ( #141 ), #147, .F. ) ;
#438 = AXIS2_PLACEMENT_3D ( 'NONE', #714, #494, #301 ) ;
#439 = VECTOR ( 'NONE', #401, 1000.000000000000000 ) ;
#440 = VERTEX_POINT ( 'NONE', #297 ) ;
#441 = ORIENTED_EDGE ( 'NONE', *, *, #260, .T. ) ;
#442 = ORIENTED_EDGE ( 'NONE', *, *, #225, .F. ) ;
#443 = AXIS2_PLACEMENT_3D ( 'NONE', #513, #348, #160 ) ;
#444 = DIRECTION ( 'NONE',  ( -0.000000000000000000, -0.000000000000000000, -1.000000000000000000 ) ) ;
#445 = PERSON_AND_ORGANIZATION ( #4, #615 ) ;
#446 = ORIENTED_EDGE ( 'NONE', *, *, #257, .T. ) ;
#447 = ORIENTED_EDGE ( 'NONE', *, *, #257, .F. ) ;
#448 = CARTESIAN_POINT ( 'NONE',  ( 0.000000000000000000, 0.000000000000000000, 1.979999999999999982 ) ) ;
#449 = EDGE_CURVE ( 'NONE', #355, #115, #466, .T. ) ;
#450 = AXIS2_PLACEMENT_3D ( 'NONE', #713, #593, #242 ) ;
#451 = DIRECTION ( 'NONE',  ( -0.000000000000000000, -0.000000000000000000, 1.000000000000000000 ) ) ;
#452 = DIRECTION ( 'NONE',  ( -1.000000000000000000, 0.000000000000000000, 0.000000000000000000 ) ) ;
#453 = EDGE_CURVE ( 'NONE', #421, #363, #67, .T. ) ;
#454 = VECTOR ( 'NONE', #45, 1000.000000000000000 ) ;
#455 = ORIENTED_EDGE ( 'NONE', *, *, #249, .F. ) ;
#456 = CARTESIAN_POINT ( 'NONE',  ( 65.95267832289555088, 2.500000000000000000, 0.000000000000000000 ) ) ;
#457 = VERTEX_POINT ( 'NONE', #73 ) ;
#458 = ORIENTED_EDGE ( 'NONE', *, *, #465, .F. ) ;
#459 = DIRECTION ( 'NONE',  ( 0.000000000000000000, 0.000000000000000000, 1.000000000000000000 ) ) ;
#460 = CARTESIAN_POINT ( 'NONE',  ( 10.00000000000000000, 66.17000000000000171, 1.979999999999999982 ) ) ;
#461 = DIRECTION ( 'NONE',  ( 0.8081044087516013885, 0.5890392725075508373, 0.000000000000000000 ) ) ;
#462 = CARTESIAN_POINT ( 'NONE',  ( 66.09999999999999432, -2.220096664243737326E-15, 0.000000000000000000 ) ) ;
#463 = COORDINATED_UNIVERSAL_TIME_OFFSET ( 8, 0, .AHEAD. ) ;
#464 = CARTESIAN_POINT ( 'NONE',  ( 65.95267832289555088, 2.500000000000000000, 0.000000000000000000 ) ) ;
#465 = EDGE_CURVE ( 'NONE', #120, #457, #8, .T. ) ;
#466 = LINE ( 'NONE', #535, #716 ) ;
#467 = DIRECTION ( 'NONE',  ( -0.000000000000000000, 1.000000000000000000, -0.000000000000000000 ) ) ;
#468 = VECTOR ( 'NONE', #479, 1000.000000000000000 ) ;
#469 = AXIS2_PLACEMENT_3D ( 'NONE', #222, #218, #642 ) ;
#470 = VECTOR ( 'NONE', #390, 1000.000000000000000 ) ;
#471 = DIRECTION ( 'NONE',  ( 0.000000000000000000, 0.000000000000000000, 1.000000000000000000 ) ) ;
#472 = EDGE_LOOP ( 'NONE', ( #99, #66, #455, #551 ) ) ;
#473 = CARTESIAN_POINT ( 'NONE',  ( -38.87675051381878433, -53.33482959051830363, 0.000000000000000000 ) ) ;
#474 = CARTESIAN_POINT ( 'NONE',  ( -38.87675051381878433, -53.33482959051830363, 1.979999999999999982 ) ) ;
#475 = DIRECTION ( 'NONE',  ( 0.000000000000000000, 0.000000000000000000, 1.000000000000000000 ) ) ;
#476 = CARTESIAN_POINT ( 'NONE',  ( 65.95267832289555088, 2.500000000000000000, 1.979999999999999982 ) ) ;
#477 = CC_DESIGN_SECURITY_CLASSIFICATION ( #412, ( #107 ) ) ;
#478 = APPROVAL_DATE_TIME ( #235, #219 ) ;
#479 = DIRECTION ( 'NONE',  ( -0.000000000000000000, -1.000000000000000000, -0.000000000000000000 ) ) ;
#480 = VECTOR ( 'NONE', #114, 1000.000000000000000 ) ;
#481 = FACE_OUTER_BOUND ( 'NONE', #325, .T. ) ;
#482 = DIRECTION ( 'NONE',  ( -0.000000000000000000, -0.000000000000000000, -1.000000000000000000 ) ) ;
#483 = AXIS2_PLACEMENT_3D ( 'NONE', #631, #109, #524 ) ;
#484 = EDGE_LOOP ( 'NONE', ( #574, #190, #103, #354 ) ) ;
#485 = ORIENTED_EDGE ( 'NONE', *, *, #424, .T. ) ;
#486 = AXIS2_PLACEMENT_3D ( 'NONE', #698, #283, #2 ) ;
#487 = DIRECTION ( 'NONE',  ( 0.9999999999929850558, 3.745649391923256907E-06, 0.000000000000000000 ) ) ;
#488 = CARTESIAN_POINT ( 'NONE',  ( 0.000000000000000000, 0.000000000000000000, 1.969999999999999973 ) ) ;
#489 = VECTOR ( 'NONE', #303, 1000.000000000000000 ) ;
#490 = FACE_OUTER_BOUND ( 'NONE', #744, .T. ) ;
#491 = EDGE_LOOP ( 'NONE', ( #446, #77, #531, #678 ) ) ;
#492 = ADVANCED_FACE ( 'NONE', ( #622 ), #74, .F. ) ;
#493 = CARTESIAN_POINT ( 'NONE',  ( -65.95267832289555088, 2.500000000000000000, 1.979999999999999982 ) ) ;
#494 = DIRECTION ( 'NONE',  ( -3.745649391923256484E-06, 0.9999999999929850558, 0.000000000000000000 ) ) ;
#495 =( GEOMETRIC_REPRESENTATION_CONTEXT ( 3 ) GLOBAL_UNCERTAINTY_ASSIGNED_CONTEXT ( ( #191 ) ) GLOBAL_UNIT_ASSIGNED_CONTEXT ( ( #592, #530, #239 ) ) REPRESENTATION_CONTEXT ( 'NONE', 'WORKASPACE' ) );
#496 = PERSON_AND_ORGANIZATION ( #4, #615 ) ;
#497 = LOCAL_TIME ( 20, 0, 30.00000000000000000, #645 ) ;
#498 = VECTOR ( 'NONE', #132, 999.9999999999998863 ) ;
#499 = VERTEX_POINT ( 'NONE', #72 ) ;
#500 = ORIENTED_EDGE ( 'NONE', *, *, #602, .F. ) ;
#501 = PRODUCT_DEFINITION_SHAPE ( 'NONE', 'NONE',  #668 ) ;
#502 = VECTOR ( 'NONE', #487, 1000.000000000000000 ) ;
#503 = LINE ( 'NONE', #640, #342 ) ;
#504 = ORIENTED_EDGE ( 'NONE', *, *, #626, .T. ) ;
#505 = ORIENTED_EDGE ( 'NONE', *, *, #249, .T. ) ;
#506 = DIRECTION ( 'NONE',  ( -0.000000000000000000, -0.000000000000000000, -1.000000000000000000 ) ) ;
#507 = DIRECTION ( 'NONE',  ( 0.8081044087516013885, 0.5890392725075508373, 0.000000000000000000 ) ) ;
#508 = CARTESIAN_POINT ( 'NONE',  ( 0.000000000000000000, 0.000000000000000000, 1.979999999999999982 ) ) ;
#509 = LINE ( 'NONE', #579, #236 ) ;
#510 = VECTOR ( 'NONE', #87, 1000.000000000000000 ) ;
#511 = VERTEX_POINT ( 'NONE', #15 ) ;
#512 = CARTESIAN_POINT ( 'NONE',  ( 65.95267832289555088, -2.500000000000000000, 1.979999999999999982 ) ) ;
#513 = CARTESIAN_POINT ( 'NONE',  ( -65.95267832289555088, 2.500000000000000000, 1.979999999999999982 ) ) ;
#514 = ORIENTED_EDGE ( 'NONE', *, *, #199, .F. ) ;
#515 = CC_DESIGN_PERSON_AND_ORGANIZATION_ASSIGNMENT ( #603, #10, ( #526 ) ) ;
#516 = VECTOR ( 'NONE', #55, 1000.000000000000000 ) ;
#517 = VECTOR ( 'NONE', #754, 1000.000000000000000 ) ;
#518 = DIRECTION ( 'NONE',  ( 0.000000000000000000, -1.000000000000000000, 0.000000000000000000 ) ) ;
#519 = ORIENTED_EDGE ( 'NONE', *, *, #258, .F. ) ;
#520 = ORIENTED_EDGE ( 'NONE', *, *, #215, .F. ) ;
#521 = DIRECTION ( 'NONE',  ( 1.000000000000000000, 0.000000000000000000, 0.000000000000000000 ) ) ;
#522 = PLANE ( 'NONE',  #356 ) ;
#523 = CC_DESIGN_APPROVAL ( #219, ( #412 ) ) ;
#524 = DIRECTION ( 'NONE',  ( 0.000000000000000000, 0.000000000000000000, 1.000000000000000000 ) ) ;
#525 = DIRECTION ( 'NONE',  ( -0.000000000000000000, -0.000000000000000000, -1.000000000000000000 ) ) ;
#526 = PRODUCT ( 'DM-TFTR50-413', 'DM-TFTR50-413', '', ( #703 ) ) ;
#527 = DIRECTION ( 'NONE',  ( -0.000000000000000000, -0.000000000000000000, -1.000000000000000000 ) ) ;
#528 = CC_DESIGN_PERSON_AND_ORGANIZATION_ASSIGNMENT ( #322, #181, ( #668 ) ) ;
#529 = LINE ( 'NONE', #36, #470 ) ;
#530 =( NAMED_UNIT ( * ) PLANE_ANGLE_UNIT ( ) SI_UNIT ( $, .RADIAN. ) );
#531 = ORIENTED_EDGE ( 'NONE', *, *, #376, .F. ) ;
#532 = DIRECTION ( 'NONE',  ( -0.000000000000000000, -0.000000000000000000, -1.000000000000000000 ) ) ;
#533 = DIRECTION ( 'NONE',  ( 0.000000000000000000, 0.000000000000000000, 1.000000000000000000 ) ) ;
#534 = DATE_TIME_ROLE ( 'creation_date' ) ;
#535 = CARTESIAN_POINT ( 'NONE',  ( 63.50000000000000000, 0.000000000000000000, 1.969999999999999973 ) ) ;
#536 = LINE ( 'NONE', #748, #480 ) ;
#537 = LINE ( 'NONE', #213, #19 ) ;
#538 = ORIENTED_EDGE ( 'NONE', *, *, #626, .F. ) ;
#539 = ORIENTED_EDGE ( 'NONE', *, *, #449, .F. ) ;
#540 = DIRECTION ( 'NONE',  ( 0.000000000000000000, 0.000000000000000000, 1.000000000000000000 ) ) ;
#541 = ADVANCED_FACE ( 'NONE', ( #610 ), #309, .T. ) ;
#542 = AXIS2_PLACEMENT_3D ( 'NONE', #750, #459, #156 ) ;
#543 = ADVANCED_FACE ( 'NONE', ( #82 ), #658, .F. ) ;
#544 = CARTESIAN_POINT ( 'NONE',  ( 10.00000000000000000, 66.17000000000000171, 0.000000000000000000 ) ) ;
#545 = FACE_OUTER_BOUND ( 'NONE', #197, .T. ) ;
#546 = ORIENTED_EDGE ( 'NONE', *, *, #206, .F. ) ;
#547 = VERTEX_POINT ( 'NONE', #105 ) ;
#548 = PLANE ( 'NONE',  #96 ) ;
#549 = ADVANCED_FACE ( 'NONE', ( #739 ), #217, .F. ) ;
#550 = VERTEX_POINT ( 'NONE', #405 ) ;
#551 = ORIENTED_EDGE ( 'NONE', *, *, #587, .T. ) ;
#552 = EDGE_CURVE ( 'NONE', #550, #381, #594, .T. ) ;
#553 = CIRCLE ( 'NONE', #486, 63.50000000000000000 ) ;
#554 = LINE ( 'NONE', #625, #33 ) ;
#555 = ORIENTED_EDGE ( 'NONE', *, *, #166, .T. ) ;
#556 = VERTEX_POINT ( 'NONE', #688 ) ;
#557 = CARTESIAN_POINT ( 'NONE',  ( 63.50000000000000000, 0.000000000000000000, 1.979999999999999982 ) ) ;
#558 = CARTESIAN_POINT ( 'NONE',  ( -63.50000000000000000, 7.776507174585691374E-15, 1.969999999999999973 ) ) ;
#559 = APPROVAL_DATE_TIME ( #427, #712 ) ;
#560 = LINE ( 'NONE', #512, #210 ) ;
#561 = VERTEX_POINT ( 'NONE', #576 ) ;
#562 = CARTESIAN_POINT ( 'NONE',  ( 20.51796797095775204, 62.72972794701158250, 0.000000000000000000 ) ) ;
#563 = ORIENTED_EDGE ( 'NONE', *, *, #552, .F. ) ;
#564 = EDGE_CURVE ( 'NONE', #355, #85, #682, .T. ) ;
#565 = CC_DESIGN_PERSON_AND_ORGANIZATION_ASSIGNMENT ( #202, #228, ( #412 ) ) ;
#566 = PLANE ( 'NONE',  #41 ) ;
#567 = DIRECTION ( 'NONE',  ( 0.9999999999929850558, 3.745649391923256907E-06, 0.000000000000000000 ) ) ;
#568 = APPROVAL_PERSON_ORGANIZATION ( #496, #219, #299 ) ;
#569 = DIRECTION ( 'NONE',  ( -0.000000000000000000, -0.000000000000000000, -1.000000000000000000 ) ) ;
#570 = VECTOR ( 'NONE', #129, 1000.000000000000114 ) ;
#571 = VECTOR ( 'NONE', #255, 1000.000000000000000 ) ;
#572 = VERTEX_POINT ( 'NONE', #282 ) ;
#573 = DIRECTION ( 'NONE',  ( 0.000000000000000000, 0.000000000000000000, 1.000000000000000000 ) ) ;
#574 = ORIENTED_EDGE ( 'NONE', *, *, #369, .T. ) ;
#575 = CARTESIAN_POINT ( 'NONE',  ( 0.000000000000000000, 0.000000000000000000, 0.000000000000000000 ) ) ;
#576 = CARTESIAN_POINT ( 'NONE',  ( 66.09999999999999432, -2.500000000000000000, 1.979999999999999982 ) ) ;
#577 = DIRECTION ( 'NONE',  ( 0.000000000000000000, 0.000000000000000000, 1.000000000000000000 ) ) ;
#578 = DIRECTION ( 'NONE',  ( -0.000000000000000000, -0.000000000000000000, -1.000000000000000000 ) ) ;
#579 = CARTESIAN_POINT ( 'NONE',  ( 20.51796797095775204, 62.72972794701158250, 1.979999999999999982 ) ) ;
#580 = AXIS2_PLACEMENT_3D ( 'NONE', #54, #100, #51 ) ;
#581 = CALENDAR_DATE ( 2022, 14, 8 ) ;
#582 = VECTOR ( 'NONE', #569, 1000.000000000000000 ) ;
#583 = DIRECTION ( 'NONE',  ( 0.000000000000000000, 1.000000000000000000, -0.000000000000000000 ) ) ;
#584 = LINE ( 'NONE', #558, #387 ) ;
#585 = CARTESIAN_POINT ( 'NONE',  ( 15.51995762649105082, -70.35994186768016334, 0.000000000000000000 ) ) ;
#586 = ORIENTED_EDGE ( 'NONE', *, *, #396, .T. ) ;
#587 = EDGE_CURVE ( 'NONE', #269, #359, #536, .T. ) ;
#588 = PLANE ( 'NONE',  #304 ) ;
#589 = CARTESIAN_POINT ( 'NONE',  ( 63.50000000000000000, 0.000000000000000000, 1.969999999999999973 ) ) ;
#590 = DIRECTION ( 'NONE',  ( -1.000000000000000000, 0.000000000000000000, 0.000000000000000000 ) ) ;
#591 = CARTESIAN_POINT ( 'NONE',  ( 0.000000000000000000, 0.000000000000000000, 0.000000000000000000 ) ) ;
#592 =( LENGTH_UNIT ( ) NAMED_UNIT ( * ) SI_UNIT ( .MILLI., .METRE. ) );
#593 = DIRECTION ( 'NONE',  ( -0.000000000000000000, -0.000000000000000000, 1.000000000000000000 ) ) ;
#594 = CIRCLE ( 'NONE', #542, 66.00004377243499221 ) ;
#595 = CYLINDRICAL_SURFACE ( 'NONE', #184, 66.00004377243499221 ) ;
#596 = CARTESIAN_POINT ( 'NONE',  ( 0.000000000000000000, 66.17000000000000171, 0.000000000000000000 ) ) ;
#597 = ORIENTED_EDGE ( 'NONE', *, *, #453, .F. ) ;
#598 = ORIENTED_EDGE ( 'NONE', *, *, #389, .T. ) ;
#599 = CARTESIAN_POINT ( 'NONE',  ( 0.000000000000000000, -70.35999999999999943, 0.000000000000000000 ) ) ;
#600 = AXIS2_PLACEMENT_3D ( 'NONE', #94, #145, #262 ) ;
#601 = CARTESIAN_POINT ( 'NONE',  ( -65.95267832289555088, 2.499999999999985789, 1.979999999999999982 ) ) ;
#602 = EDGE_CURVE ( 'NONE', #26, #185, #32, .T. ) ;
#603 = PERSON_AND_ORGANIZATION ( #4, #615 ) ;
#604 = VECTOR ( 'NONE', #527, 1000.000000000000000 ) ;
#605 = CARTESIAN_POINT ( 'NONE',  ( -15.51999999999999957, -70.35999999999999943, 1.979999999999999982 ) ) ;
#606 = ORIENTED_EDGE ( 'NONE', *, *, #614, .T. ) ;
#607 = ORIENTED_EDGE ( 'NONE', *, *, #288, .F. ) ;
#608 = ADVANCED_FACE ( 'NONE', ( #124 ), #683, .F. ) ;
#609 = ADVANCED_FACE ( 'NONE', ( #633 ), #47, .F. ) ;
#610 = FACE_OUTER_BOUND ( 'NONE', #211, .T. ) ;
#611 = EDGE_LOOP ( 'NONE', ( #128, #205, #724, #250 ) ) ;
#612 = EDGE_LOOP ( 'NONE', ( #247, #726, #143, #636 ) ) ;
#613 = EDGE_CURVE ( 'NONE', #115, #50, #553, .T. ) ;
#614 = EDGE_CURVE ( 'NONE', #709, #298, #182, .T. ) ;
#615 = ORGANIZATION ( '未指定', '未指定', '' ) ;
#616 = CARTESIAN_POINT ( 'NONE',  ( -65.95267832289555088, 2.499999999999985789, 1.979999999999999982 ) ) ;
#617 = FACE_OUTER_BOUND ( 'NONE', #138, .T. ) ;
#618 = CYLINDRICAL_SURFACE ( 'NONE', #176, 66.00004377243499221 ) ;
#619 = EDGE_LOOP ( 'NONE', ( #196, #177, #153, #22 ) ) ;
#620 = EDGE_CURVE ( 'NONE', #440, #457, #275, .T. ) ;
#621 = PLANE ( 'NONE',  #600 ) ;
#622 = FACE_OUTER_BOUND ( 'NONE', #431, .T. ) ;
#623 = ORIENTED_EDGE ( 'NONE', *, *, #267, .T. ) ;
#624 = ORIENTED_EDGE ( 'NONE', *, *, #260, .F. ) ;
#625 = CARTESIAN_POINT ( 'NONE',  ( -10.00000000000000000, 66.17000000000000171, 1.979999999999999982 ) ) ;
#626 = EDGE_CURVE ( 'NONE', #718, #550, #407, .T. ) ;
#627 = ADVANCED_BREP_SHAPE_REPRESENTATION ( 'DM-TFTR50-413', ( #347, #630 ), #495 ) ;
#628 = CARTESIAN_POINT ( 'NONE',  ( 66.09999999999999432, 2.500000000000000000, 1.979999999999999982 ) ) ;
#629 = CARTESIAN_POINT ( 'NONE',  ( 0.000000000000000000, 0.000000000000000000, 1.969999999999999973 ) ) ;
#630 = AXIS2_PLACEMENT_3D ( 'NONE', #706, #414, #302 ) ;
#631 = CARTESIAN_POINT ( 'NONE',  ( -65.95267832289555088, -2.500000000000000000, 1.979999999999999982 ) ) ;
#632 = DIRECTION ( 'NONE',  ( 1.000000000000000000, -0.000000000000000000, -0.000000000000000000 ) ) ;
#633 = FACE_OUTER_BOUND ( 'NONE', #681, .T. ) ;
#634 = CARTESIAN_POINT ( 'NONE',  ( 0.000000000000000000, -70.35999999999999943, 1.979999999999999982 ) ) ;
#635 = LINE ( 'NONE', #233, #489 ) ;
#636 = ORIENTED_EDGE ( 'NONE', *, *, #620, .T. ) ;
#637 = ORIENTED_EDGE ( 'NONE', *, *, #741, .F. ) ;
#638 = PLANE ( 'NONE',  #169 ) ;
#639 = EDGE_CURVE ( 'NONE', #50, #115, #295, .T. ) ;
#640 = CARTESIAN_POINT ( 'NONE',  ( -15.51999999999999957, -70.35999999999999943, 0.000000000000000000 ) ) ;
#641 = CARTESIAN_POINT ( 'NONE',  ( -10.00000000000000000, 66.17000000000000171, 0.000000000000000000 ) ) ;
#642 = DIRECTION ( 'NONE',  ( 1.000000000000000000, 0.000000000000000000, 0.000000000000000000 ) ) ;
#643 = EDGE_CURVE ( 'NONE', #78, #237, #48, .T. ) ;
#644 = AXIS2_PLACEMENT_3D ( 'NONE', #654, #423, #180 ) ;
#645 = COORDINATED_UNIVERSAL_TIME_OFFSET ( 8, 0, .AHEAD. ) ;
#646 = DIRECTION ( 'NONE',  ( -0.000000000000000000, -0.000000000000000000, -1.000000000000000000 ) ) ;
#647 = CYLINDRICAL_SURFACE ( 'NONE', #328, 66.00004377243500642 ) ;
#648 = ORIENTED_EDGE ( 'NONE', *, *, #587, .F. ) ;
#649 = DIRECTION ( 'NONE',  ( -0.000000000000000000, -0.000000000000000000, 1.000000000000000000 ) ) ;
#650 = APPROVAL_STATUS ( 'not_yet_approved' ) ;
#651 = DIRECTION ( 'NONE',  ( -1.000000000000000000, 0.000000000000000000, 0.000000000000000000 ) ) ;
#652 = SECURITY_CLASSIFICATION_LEVEL ( 'unclassified' ) ;
#653 = DIRECTION ( 'NONE',  ( -0.9504497930834817643, 0.3108780964100987254, -0.000000000000000000 ) ) ;
#654 = CARTESIAN_POINT ( 'NONE',  ( -66.09999999999999432, -2.220096664243737326E-15, 1.979999999999999982 ) ) ;
#655 = LINE ( 'NONE', #493, #243 ) ;
#656 = VECTOR ( 'NONE', #532, 1000.000000000000000 ) ;
#657 = EDGE_LOOP ( 'NONE', ( #485, #378, #664, #42 ) ) ;
#658 = PLANE ( 'NONE',  #721 ) ;
#659 = COORDINATED_UNIVERSAL_TIME_OFFSET ( 8, 0, .AHEAD. ) ;
#660 = PERSON_AND_ORGANIZATION ( #4, #615 ) ;
#661 = CYLINDRICAL_SURFACE ( 'NONE', #693, 66.00004377243499221 ) ;
#662 = PRODUCT_RELATED_PRODUCT_CATEGORY ( 'detail', '', ( #526 ) ) ;
#663 = ORIENTED_EDGE ( 'NONE', *, *, #643, .F. ) ;
#664 = ORIENTED_EDGE ( 'NONE', *, *, #166, .F. ) ;
#665 = ORIENTED_EDGE ( 'NONE', *, *, #336, .T. ) ;
#666 = SHAPE_DEFINITION_REPRESENTATION ( #501, #627 ) ;
#667 = LINE ( 'NONE', #216, #49 ) ;
#668 = PRODUCT_DEFINITION ( '未知', '', #107, #232 ) ;
#669 = ORIENTED_EDGE ( 'NONE', *, *, #746, .F. ) ;
#670 = DIRECTION ( 'NONE',  ( -1.000000000000000000, 0.000000000000000000, 0.000000000000000000 ) ) ;
#671 = ORIENTED_EDGE ( 'NONE', *, *, #327, .F. ) ;
#672 = CARTESIAN_POINT ( 'NONE',  ( -65.95267832289555088, 2.500000000000000000, 0.000000000000000000 ) ) ;
#673 = DATE_AND_TIME ( #722, #497 ) ;
#674 = DIRECTION ( 'NONE',  ( 1.000000000000000000, -0.000000000000000000, -0.000000000000000000 ) ) ;
#675 = LINE ( 'NONE', #689, #604 ) ;
#676 = FACE_OUTER_BOUND ( 'NONE', #142, .T. ) ;
#677 = CC_DESIGN_APPROVAL ( #712, ( #668 ) ) ;
#678 = ORIENTED_EDGE ( 'NONE', *, *, #323, .T. ) ;
#679 = VERTEX_POINT ( 'NONE', #690 ) ;
#680 = CARTESIAN_POINT ( 'NONE',  ( 65.95267832289555088, -2.500000000000000000, 1.979999999999999982 ) ) ;
#681 = EDGE_LOOP ( 'NONE', ( #733, #326, #248, #382 ) ) ;
#682 = CIRCLE ( 'NONE', #320, 63.50000000000000000 ) ;
#683 = PLANE ( 'NONE',  #580 ) ;
#684 = VECTOR ( 'NONE', #745, 1000.000000000000000 ) ;
#685 = DIRECTION ( 'NONE',  ( 0.000000000000000000, -0.000000000000000000, -1.000000000000000000 ) ) ;
#686 = ORIENTED_EDGE ( 'NONE', *, *, #564, .T. ) ;
#687 = ORIENTED_EDGE ( 'NONE', *, *, #357, .F. ) ;
#688 = CARTESIAN_POINT ( 'NONE',  ( -65.95267832289555088, -2.500000000000000000, 1.979999999999999982 ) ) ;
#689 = CARTESIAN_POINT ( 'NONE',  ( -66.09999999999999432, 2.500000000000000000, 1.979999999999999982 ) ) ;
#690 = CARTESIAN_POINT ( 'NONE',  ( -15.51999999999999957, -70.35999999999999943, 1.979999999999999982 ) ) ;
#691 = CARTESIAN_POINT ( 'NONE',  ( 0.000000000000000000, -70.35999999999999943, 1.979999999999999982 ) ) ;
#692 = DIRECTION ( 'NONE',  ( -1.000000000000000000, 0.000000000000000000, 0.000000000000000000 ) ) ;
#693 = AXIS2_PLACEMENT_3D ( 'NONE', #6, #170, #164 ) ;
#694 = DIRECTION ( 'NONE',  ( -0.000000000000000000, -0.000000000000000000, -1.000000000000000000 ) ) ;
#695 = DIRECTION ( 'NONE',  ( -0.000000000000000000, -0.000000000000000000, -1.000000000000000000 ) ) ;
#696 = VECTOR ( 'NONE', #467, 1000.000000000000000 ) ;
#697 = LINE ( 'NONE', #28, #571 ) ;
#698 = CARTESIAN_POINT ( 'NONE',  ( 0.000000000000000000, 0.000000000000000000, 1.979999999999999982 ) ) ;
#699 = EDGE_LOOP ( 'NONE', ( #268, #725, #413, #606, #149, #425, #152, #504, #178, #44, #227, #505, #291, #586, #555, #60, #92 ) ) ;
#700 = DIRECTION ( 'NONE',  ( -1.000000000000000000, 0.000000000000000000, 0.000000000000000000 ) ) ;
#701 = CARTESIAN_POINT ( 'NONE',  ( 0.000000000000000000, 0.000000000000000000, 1.979999999999999982 ) ) ;
#702 = CARTESIAN_POINT ( 'NONE',  ( 66.09999999999999432, -2.220096664243737326E-15, 1.979999999999999982 ) ) ;
#703 = MECHANICAL_CONTEXT ( 'NONE', #417, 'mechanical' ) ;
#704 = PLANE ( 'NONE',  #644 ) ;
#705 = CC_DESIGN_DATE_AND_TIME_ASSIGNMENT ( #57, #65, ( #412 ) ) ;
#706 = CARTESIAN_POINT ( 'NONE',  ( 0.000000000000000000, 0.000000000000000000, 0.000000000000000000 ) ) ;
#707 = VECTOR ( 'NONE', #353, 1000.000000000000000 ) ;
#708 = VECTOR ( 'NONE', #461, 1000.000000000000114 ) ;
#709 = VERTEX_POINT ( 'NONE', #628 ) ;
#710 = DIRECTION ( 'NONE',  ( 1.000000000000000000, 0.000000000000000000, 0.000000000000000000 ) ) ;
#711 = ORIENTED_EDGE ( 'NONE', *, *, #215, .T. ) ;
#712 = APPROVAL ( #175, '未指定' ) ;
#713 = CARTESIAN_POINT ( 'NONE',  ( 0.000000000000000000, 0.000000000000000000, 1.969999999999999973 ) ) ;
#714 = CARTESIAN_POINT ( 'NONE',  ( 0.000000000000000000, -70.35999999999999943, 1.979999999999999982 ) ) ;
#715 = EDGE_CURVE ( 'NONE', #207, #26, #314, .T. ) ;
#716 = VECTOR ( 'NONE', #358, 1000.000000000000000 ) ;
#717 = LINE ( 'NONE', #157, #221 ) ;
#718 = VERTEX_POINT ( 'NONE', #747 ) ;
#719 = ORIENTED_EDGE ( 'NONE', *, *, #339, .F. ) ;
#720 = CARTESIAN_POINT ( 'NONE',  ( 15.51995762649105082, -70.35994186768016334, 1.979999999999999982 ) ) ;
#721 = AXIS2_PLACEMENT_3D ( 'NONE', #434, #700, #416 ) ;
#722 = CALENDAR_DATE ( 2022, 14, 8 ) ;
#723 = VECTOR ( 'NONE', #710, 1000.000000000000000 ) ;
#724 = ORIENTED_EDGE ( 'NONE', *, *, #449, .T. ) ;
#725 = ORIENTED_EDGE ( 'NONE', *, *, #741, .T. ) ;
#726 = ORIENTED_EDGE ( 'NONE', *, *, #274, .F. ) ;
#727 = CARTESIAN_POINT ( 'NONE',  ( 0.000000000000000000, 0.000000000000000000, 1.979999999999999982 ) ) ;
#728 = EDGE_CURVE ( 'NONE', #300, #572, #88, .T. ) ;
#729 = DIRECTION ( 'NONE',  ( 1.000000000000000000, 0.000000000000000000, 0.000000000000000000 ) ) ;
#730 = LOCAL_TIME ( 20, 0, 30.00000000000000000, #134 ) ;
#731 = VECTOR ( 'NONE', #126, 1000.000000000000000 ) ;
#732 = LINE ( 'NONE', #616, #510 ) ;
#733 = ORIENTED_EDGE ( 'NONE', *, *, #130, .T. ) ;
#734 = CARTESIAN_POINT ( 'NONE',  ( 66.09999999999999432, -2.500000000000000000, 0.000000000000000000 ) ) ;
#735 = EDGE_CURVE ( 'NONE', #511, #440, #159, .T. ) ;
#736 = CARTESIAN_POINT ( 'NONE',  ( -63.50000000000000000, 7.776507174585691374E-15, 1.969999999999999973 ) ) ;
#737 = ORIENTED_EDGE ( 'NONE', *, *, #122, .F. ) ;
#738 = DIRECTION ( 'NONE',  ( 1.000000000000000000, 0.000000000000000000, 0.000000000000000000 ) ) ;
#739 = FACE_OUTER_BOUND ( 'NONE', #472, .T. ) ;
#740 = VECTOR ( 'NONE', #567, 1000.000000000000000 ) ;
#741 = EDGE_CURVE ( 'NONE', #499, #561, #18, .T. ) ;
#742 = ORIENTED_EDGE ( 'NONE', *, *, #327, .T. ) ;
#743 = DIRECTION ( 'NONE',  ( -0.000000000000000000, -0.000000000000000000, -1.000000000000000000 ) ) ;
#744 = EDGE_LOOP ( 'NONE', ( #278, #737, #563, #441 ) ) ;
#745 = DIRECTION ( 'NONE',  ( -1.000000000000000000, -0.000000000000000000, -0.000000000000000000 ) ) ;
#746 = EDGE_CURVE ( 'NONE', #457, #34, #264, .T. ) ;
#747 = CARTESIAN_POINT ( 'NONE',  ( -10.00000000000000000, 66.17000000000000171, 1.979999999999999982 ) ) ;
#748 = CARTESIAN_POINT ( 'NONE',  ( -66.09999999999999432, -2.500000000000000000, 1.979999999999999982 ) ) ;
#749 = CARTESIAN_POINT ( 'NONE',  ( 65.95267832289555088, -2.500000000000000000, 0.000000000000000000 ) ) ;
#750 = CARTESIAN_POINT ( 'NONE',  ( 0.000000000000000000, 0.000000000000000000, 1.979999999999999982 ) ) ;
#751 = LINE ( 'NONE', #224, #468 ) ;
#752 = DIRECTION ( 'NONE',  ( 0.000000000000000000, 0.000000000000000000, 1.000000000000000000 ) ) ;
#753 = LINE ( 'NONE', #193, #136 ) ;
#754 = DIRECTION ( 'NONE',  ( 0.000000000000000000, -1.000000000000000000, 0.000000000000000000 ) ) ;
ENDSEC;
END-ISO-10303-21;
