ISO-10303-21;
HEADER;
FILE_DESCRIPTION(('Open CASCADE Model'),'2;1');
FILE_NAME('Open CASCADE Shape Model','2026-09-08T15:12:01',('Author'),(
    'Open CASCADE'),'Open CASCADE STEP processor 7.9','build123d',
  'Unknown');
FILE_SCHEMA(('AUTOMOTIVE_DESIGN { 1 0 10303 214 1 1 1 1 }'));
ENDSEC;
DATA;
#1 = APPLICATION_PROTOCOL_DEFINITION('international standard',
  'automotive_design',2000,#2);
#2 = APPLICATION_CONTEXT(
  'core data for automotive mechanical design processes');
#3 = SHAPE_DEFINITION_REPRESENTATION(#4,#10);
#4 = PRODUCT_DEFINITION_SHAPE('','',#5);
#5 = PRODUCT_DEFINITION('design','',#6,#9);
#6 = PRODUCT_DEFINITION_FORMATION('','',#7);
#7 = PRODUCT('=>[0:1:1:2]','=>[0:1:1:2]','',(#8));
#8 = PRODUCT_CONTEXT('',#2,'mechanical');
#9 = PRODUCT_DEFINITION_CONTEXT('part definition',#2,'design');
#10 = SHAPE_REPRESENTATION('',(#11,#15),#19);
#11 = AXIS2_PLACEMENT_3D('',#12,#13,#14);
#12 = CARTESIAN_POINT('',(0.,0.,0.));
#13 = DIRECTION('',(0.,0.,1.));
#14 = DIRECTION('',(1.,0.,-0.));
#15 = AXIS2_PLACEMENT_3D('',#16,#17,#18);
#16 = CARTESIAN_POINT('',(-60.91939362903,10.50000005,29.));
#17 = DIRECTION('',(0.,-1.,2.22044604925E-16));
#18 = DIRECTION('',(1.,0.,0.));
#19 = ( GEOMETRIC_REPRESENTATION_CONTEXT(3) 
GLOBAL_UNCERTAINTY_ASSIGNED_CONTEXT((#23)) GLOBAL_UNIT_ASSIGNED_CONTEXT(
(#20,#21,#22)) REPRESENTATION_CONTEXT('Context #1',
  '3D Context with UNIT and UNCERTAINTY') );
#20 = ( LENGTH_UNIT() NAMED_UNIT(*) SI_UNIT(.MILLI.,.METRE.) );
#21 = ( NAMED_UNIT(*) PLANE_ANGLE_UNIT() SI_UNIT($,.RADIAN.) );
#22 = ( NAMED_UNIT(*) SI_UNIT($,.STERADIAN.) SOLID_ANGLE_UNIT() );
#23 = UNCERTAINTY_MEASURE_WITH_UNIT(LENGTH_MEASURE(1.E-07),#20,
  'distance_accuracy_value','confusion accuracy');
#24 = PRODUCT_RELATED_PRODUCT_CATEGORY('part',$,(#7));
#25 = SHAPE_DEFINITION_REPRESENTATION(#26,#32);
#26 = PRODUCT_DEFINITION_SHAPE('','',#27);
#27 = PRODUCT_DEFINITION('design','',#28,#31);
#28 = PRODUCT_DEFINITION_FORMATION('','',#29);
#29 = PRODUCT('COMPOUND','COMPOUND','',(#30));
#30 = PRODUCT_CONTEXT('',#2,'mechanical');
#31 = PRODUCT_DEFINITION_CONTEXT('part definition',#2,'design');
#32 = ADVANCED_BREP_SHAPE_REPRESENTATION('',(#11,#33),#1385);
#33 = MANIFOLD_SOLID_BREP('',#34);
#34 = CLOSED_SHELL('',(#35,#77,#145,#185,#308,#341,#366,#391,#416,#441,
    #459,#521,#538,#555,#567,#620,#655,#680,#809,#861,#886,#903,#920,
    #940,#950,#970,#996,#1022,#1098,#1117,#1135,#1153,#1165,#1185,#1244,
    #1269,#1285,#1297,#1322,#1339,#1357,#1367,#1376));
#35 = ADVANCED_FACE('',(#36),#72,.T.);
#36 = FACE_BOUND('',#37,.T.);
#37 = EDGE_LOOP('',(#38,#49,#57,#66));
#38 = ORIENTED_EDGE('',*,*,#39,.T.);
#39 = EDGE_CURVE('',#40,#42,#44,.T.);
#40 = VERTEX_POINT('',#41);
#41 = CARTESIAN_POINT('',(76.272930978166,-29.,9.5));
#42 = VERTEX_POINT('',#43);
#43 = CARTESIAN_POINT('',(78.851506009714,21.,9.5));
#44 = CIRCLE('',#45,81.6);
#45 = AXIS2_PLACEMENT_3D('',#46,#47,#48);
#46 = CARTESIAN_POINT('',(0.,0.,9.5));
#47 = DIRECTION('',(0.,0.,1.));
#48 = DIRECTION('',(0.934717291399,-0.355392156863,0.));
#49 = ORIENTED_EDGE('',*,*,#50,.T.);
#50 = EDGE_CURVE('',#42,#51,#53,.T.);
#51 = VERTEX_POINT('',#52);
#52 = CARTESIAN_POINT('',(78.851506009714,21.,11.));
#53 = LINE('',#54,#55);
#54 = CARTESIAN_POINT('',(78.851506009714,21.,9.5));
#55 = VECTOR('',#56,1.);
#56 = DIRECTION('',(0.,0.,1.));
#57 = ORIENTED_EDGE('',*,*,#58,.T.);
#58 = EDGE_CURVE('',#51,#59,#61,.T.);
#59 = VERTEX_POINT('',#60);
#60 = CARTESIAN_POINT('',(76.272930978166,-29.,11.));
#61 = CIRCLE('',#62,81.6);
#62 = AXIS2_PLACEMENT_3D('',#63,#64,#65);
#63 = CARTESIAN_POINT('',(0.,0.,11.));
#64 = DIRECTION('',(0.,0.,-1.));
#65 = DIRECTION('',(0.966317475609,0.257352941176,0.));
#66 = ORIENTED_EDGE('',*,*,#67,.F.);
#67 = EDGE_CURVE('',#40,#59,#68,.T.);
#68 = LINE('',#69,#70);
#69 = CARTESIAN_POINT('',(76.272930978166,-29.,9.5));
#70 = VECTOR('',#71,1.);
#71 = DIRECTION('',(0.,0.,1.));
#72 = CYLINDRICAL_SURFACE('',#73,81.6);
#73 = AXIS2_PLACEMENT_3D('',#74,#75,#76);
#74 = CARTESIAN_POINT('',(0.,0.,9.5));
#75 = DIRECTION('',(0.,0.,1.));
#76 = DIRECTION('',(1.,0.,-0.));
#77 = ADVANCED_FACE('',(#78),#140,.F.);
#78 = FACE_BOUND('',#79,.F.);
#79 = EDGE_LOOP('',(#80,#88,#89,#97,#106,#115,#124,#133));
#80 = ORIENTED_EDGE('',*,*,#81,.F.);
#81 = EDGE_CURVE('',#40,#82,#84,.T.);
#82 = VERTEX_POINT('',#83);
#83 = CARTESIAN_POINT('',(42.679737581199,-29.,9.5));
#84 = LINE('',#85,#86);
#85 = CARTESIAN_POINT('',(20.,-29.,9.5));
#86 = VECTOR('',#87,1.);
#87 = DIRECTION('',(-1.,-0.,0.));
#88 = ORIENTED_EDGE('',*,*,#39,.T.);
#89 = ORIENTED_EDGE('',*,*,#90,.T.);
#90 = EDGE_CURVE('',#42,#91,#93,.T.);
#91 = VERTEX_POINT('',#92);
#92 = CARTESIAN_POINT('',(47.133427628383,21.,9.5));
#93 = LINE('',#94,#95);
#94 = CARTESIAN_POINT('',(20.,21.,9.5));
#95 = VECTOR('',#96,1.);
#96 = DIRECTION('',(-1.,-0.,0.));
#97 = ORIENTED_EDGE('',*,*,#98,.F.);
#98 = EDGE_CURVE('',#99,#91,#101,.T.);
#99 = VERTEX_POINT('',#100);
#100 = CARTESIAN_POINT('',(47.615418296655,19.882956028584,9.5));
#101 = CIRCLE('',#102,51.6);
#102 = AXIS2_PLACEMENT_3D('',#103,#104,#105);
#103 = CARTESIAN_POINT('',(0.,0.,9.5));
#104 = DIRECTION('',(0.,0.,1.));
#105 = DIRECTION('',(1.,0.,-0.));
#106 = ORIENTED_EDGE('',*,*,#107,.F.);
#107 = EDGE_CURVE('',#108,#99,#110,.T.);
#108 = VERTEX_POINT('',#109);
#109 = CARTESIAN_POINT('',(49.801142398248,13.505784532169,9.5));
#110 = CIRCLE('',#111,3.5);
#111 = AXIS2_PLACEMENT_3D('',#112,#113,#114);
#112 = CARTESIAN_POINT('',(49.6,17.,9.5));
#113 = DIRECTION('',(-0.,0.,1.));
#114 = DIRECTION('',(5.74692566424E-02,-0.998347276523,0.));
#115 = ORIENTED_EDGE('',*,*,#116,.F.);
#116 = EDGE_CURVE('',#117,#108,#119,.T.);
#117 = VERTEX_POINT('',#118);
#118 = CARTESIAN_POINT('',(48.864339921856,-16.57818699379,9.5));
#119 = CIRCLE('',#120,51.6);
#120 = AXIS2_PLACEMENT_3D('',#121,#122,#123);
#121 = CARTESIAN_POINT('',(0.,0.,9.5));
#122 = DIRECTION('',(0.,0.,1.));
#123 = DIRECTION('',(1.,0.,-0.));
#124 = ORIENTED_EDGE('',*,*,#125,.F.);
#125 = EDGE_CURVE('',#126,#117,#128,.T.);
#126 = VERTEX_POINT('',#127);
#127 = CARTESIAN_POINT('',(46.696507023769,-21.95441258105,9.5));
#128 = CIRCLE('',#129,3.5);
#129 = AXIS2_PLACEMENT_3D('',#130,#131,#132);
#130 = CARTESIAN_POINT('',(49.6,-20.,9.5));
#131 = DIRECTION('',(0.,0.,1.));
#132 = DIRECTION('',(-0.82956942178,-0.558403594587,0.));
#133 = ORIENTED_EDGE('',*,*,#134,.F.);
#134 = EDGE_CURVE('',#82,#126,#135,.T.);
#135 = CIRCLE('',#136,51.6);
#136 = AXIS2_PLACEMENT_3D('',#137,#138,#139);
#137 = CARTESIAN_POINT('',(0.,0.,9.5));
#138 = DIRECTION('',(0.,0.,1.));
#139 = DIRECTION('',(1.,0.,-0.));
#140 = PLANE('',#141);
#141 = AXIS2_PLACEMENT_3D('',#142,#143,#144);
#142 = CARTESIAN_POINT('',(0.,0.,9.5));
#143 = DIRECTION('',(0.,0.,1.));
#144 = DIRECTION('',(1.,0.,-0.));
#145 = ADVANCED_FACE('',(#146),#180,.T.);
#146 = FACE_BOUND('',#147,.T.);
#147 = EDGE_LOOP('',(#148,#149,#150,#158,#166,#174));
#148 = ORIENTED_EDGE('',*,*,#50,.F.);
#149 = ORIENTED_EDGE('',*,*,#90,.T.);
#150 = ORIENTED_EDGE('',*,*,#151,.F.);
#151 = EDGE_CURVE('',#152,#91,#154,.T.);
#152 = VERTEX_POINT('',#153);
#153 = CARTESIAN_POINT('',(47.133427628383,21.,8.));
#154 = LINE('',#155,#156);
#155 = CARTESIAN_POINT('',(47.133427628383,21.,8.));
#156 = VECTOR('',#157,1.);
#157 = DIRECTION('',(0.,0.,1.));
#158 = ORIENTED_EDGE('',*,*,#159,.T.);
#159 = EDGE_CURVE('',#152,#160,#162,.T.);
#160 = VERTEX_POINT('',#161);
#161 = CARTESIAN_POINT('',(44.93506425944,21.,8.));
#162 = LINE('',#163,#164);
#163 = CARTESIAN_POINT('',(20.,21.,8.));
#164 = VECTOR('',#165,1.);
#165 = DIRECTION('',(-1.,-0.,0.));
#166 = ORIENTED_EDGE('',*,*,#167,.T.);
#167 = EDGE_CURVE('',#160,#168,#170,.T.);
#168 = VERTEX_POINT('',#169);
#169 = CARTESIAN_POINT('',(44.93506425944,21.,11.));
#170 = LINE('',#171,#172);
#171 = CARTESIAN_POINT('',(44.93506425944,21.,8.));
#172 = VECTOR('',#173,1.);
#173 = DIRECTION('',(0.,0.,1.));
#174 = ORIENTED_EDGE('',*,*,#175,.F.);
#175 = EDGE_CURVE('',#51,#168,#176,.T.);
#176 = LINE('',#177,#178);
#177 = CARTESIAN_POINT('',(20.,21.,11.));
#178 = VECTOR('',#179,1.);
#179 = DIRECTION('',(-1.,-0.,0.));
#180 = PLANE('',#181);
#181 = AXIS2_PLACEMENT_3D('',#182,#183,#184);
#182 = CARTESIAN_POINT('',(40.,21.,0.));
#183 = DIRECTION('',(-0.,1.,0.));
#184 = DIRECTION('',(0.,0.,1.));
#185 = ADVANCED_FACE('',(#186,#223,#261,#272,#292),#303,.T.);
#186 = FACE_BOUND('',#187,.T.);
#187 = EDGE_LOOP('',(#188,#196,#197,#198,#207,#216));
#188 = ORIENTED_EDGE('',*,*,#189,.F.);
#189 = EDGE_CURVE('',#59,#190,#192,.T.);
#190 = VERTEX_POINT('',#191);
#191 = CARTESIAN_POINT('',(40.238787258067,-29.,11.));
#192 = LINE('',#193,#194);
#193 = CARTESIAN_POINT('',(20.,-29.,11.));
#194 = VECTOR('',#195,1.);
#195 = DIRECTION('',(-1.,-0.,0.));
#196 = ORIENTED_EDGE('',*,*,#58,.F.);
#197 = ORIENTED_EDGE('',*,*,#175,.T.);
#198 = ORIENTED_EDGE('',*,*,#199,.T.);
#199 = EDGE_CURVE('',#168,#200,#202,.T.);
#200 = VERTEX_POINT('',#201);
#201 = CARTESIAN_POINT('',(46.234204910708,17.959908025228,11.));
#202 = CIRCLE('',#203,49.6);
#203 = AXIS2_PLACEMENT_3D('',#204,#205,#206);
#204 = CARTESIAN_POINT('',(0.,0.,11.));
#205 = DIRECTION('',(0.,0.,-1.));
#206 = DIRECTION('',(0.905948876198,0.423387096774,0.));
#207 = ORIENTED_EDGE('',*,*,#208,.T.);
#208 = EDGE_CURVE('',#200,#209,#211,.T.);
#209 = VERTEX_POINT('',#210);
#210 = CARTESIAN_POINT('',(47.530680363339,14.177250234022,11.));
#211 = CIRCLE('',#212,3.5);
#212 = AXIS2_PLACEMENT_3D('',#213,#214,#215);
#213 = CARTESIAN_POINT('',(49.6,17.,11.));
#214 = DIRECTION('',(0.,0.,1.));
#215 = DIRECTION('',(1.,0.,-0.));
#216 = ORIENTED_EDGE('',*,*,#217,.T.);
#217 = EDGE_CURVE('',#209,#190,#218,.T.);
#218 = CIRCLE('',#219,49.6);
#219 = AXIS2_PLACEMENT_3D('',#220,#221,#222);
#220 = CARTESIAN_POINT('',(0.,0.,11.));
#221 = DIRECTION('',(0.,0.,-1.));
#222 = DIRECTION('',(0.905948876198,0.423387096774,0.));
#223 = FACE_BOUND('',#224,.T.);
#224 = EDGE_LOOP('',(#225,#236,#245,#254));
#225 = ORIENTED_EDGE('',*,*,#226,.T.);
#226 = EDGE_CURVE('',#227,#229,#231,.T.);
#227 = VERTEX_POINT('',#228);
#228 = CARTESIAN_POINT('',(52.094122933255,-21.00000575665,11.));
#229 = VERTEX_POINT('',#230);
#230 = CARTESIAN_POINT('',(55.1,-24.,11.));
#231 = CIRCLE('',#232,3.);
#232 = AXIS2_PLACEMENT_3D('',#233,#234,#235);
#233 = CARTESIAN_POINT('',(52.1,-24.,11.));
#234 = DIRECTION('',(0.,0.,-1.));
#235 = DIRECTION('',(1.,0.,0.));
#236 = ORIENTED_EDGE('',*,*,#237,.T.);
#237 = EDGE_CURVE('',#229,#238,#240,.T.);
#238 = VERTEX_POINT('',#239);
#239 = CARTESIAN_POINT('',(49.405951304895,-22.68011302438,11.));
#240 = CIRCLE('',#241,3.);
#241 = AXIS2_PLACEMENT_3D('',#242,#243,#244);
#242 = CARTESIAN_POINT('',(52.1,-24.,11.));
#243 = DIRECTION('',(0.,0.,-1.));
#244 = DIRECTION('',(1.,0.,0.));
#245 = ORIENTED_EDGE('',*,*,#246,.F.);
#246 = EDGE_CURVE('',#247,#238,#249,.T.);
#247 = VERTEX_POINT('',#248);
#248 = CARTESIAN_POINT('',(52.287128712871,-20.,11.));
#249 = CIRCLE('',#250,2.687128712871);
#250 = AXIS2_PLACEMENT_3D('',#251,#252,#253);
#251 = CARTESIAN_POINT('',(49.6,-20.,11.));
#252 = DIRECTION('',(0.,0.,1.));
#253 = DIRECTION('',(1.,0.,-0.));
#254 = ORIENTED_EDGE('',*,*,#255,.F.);
#255 = EDGE_CURVE('',#227,#247,#256,.T.);
#256 = CIRCLE('',#257,2.687128712871);
#257 = AXIS2_PLACEMENT_3D('',#258,#259,#260);
#258 = CARTESIAN_POINT('',(49.6,-20.,11.));
#259 = DIRECTION('',(0.,0.,1.));
#260 = DIRECTION('',(1.,0.,-0.));
#261 = FACE_BOUND('',#262,.T.);
#262 = EDGE_LOOP('',(#263));
#263 = ORIENTED_EDGE('',*,*,#264,.F.);
#264 = EDGE_CURVE('',#265,#265,#267,.T.);
#265 = VERTEX_POINT('',#266);
#266 = CARTESIAN_POINT('',(76.6,-24.,11.));
#267 = CIRCLE('',#268,3.);
#268 = AXIS2_PLACEMENT_3D('',#269,#270,#271);
#269 = CARTESIAN_POINT('',(73.6,-24.,11.));
#270 = DIRECTION('',(0.,0.,1.));
#271 = DIRECTION('',(1.,0.,-0.));
#272 = FACE_BOUND('',#273,.T.);
#273 = EDGE_LOOP('',(#274,#285));
#274 = ORIENTED_EDGE('',*,*,#275,.F.);
#275 = EDGE_CURVE('',#276,#278,#280,.T.);
#276 = VERTEX_POINT('',#277);
#277 = CARTESIAN_POINT('',(51.467126323583,18.932485449188,11.));
#278 = VERTEX_POINT('',#279);
#279 = CARTESIAN_POINT('',(49.619308407292,14.312940658462,11.));
#280 = CIRCLE('',#281,2.687128712871);
#281 = AXIS2_PLACEMENT_3D('',#282,#283,#284);
#282 = CARTESIAN_POINT('',(49.6,17.,11.));
#283 = DIRECTION('',(0.,0.,1.));
#284 = DIRECTION('',(1.,0.,-0.));
#285 = ORIENTED_EDGE('',*,*,#286,.T.);
#286 = EDGE_CURVE('',#276,#278,#287,.T.);
#287 = CIRCLE('',#288,3.);
#288 = AXIS2_PLACEMENT_3D('',#289,#290,#291);
#289 = CARTESIAN_POINT('',(52.1,16.,11.));
#290 = DIRECTION('',(0.,0.,-1.));
#291 = DIRECTION('',(-0.648015966416,0.761626750626,0.));
#292 = FACE_BOUND('',#293,.T.);
#293 = EDGE_LOOP('',(#294));
#294 = ORIENTED_EDGE('',*,*,#295,.F.);
#295 = EDGE_CURVE('',#296,#296,#298,.T.);
#296 = VERTEX_POINT('',#297);
#297 = CARTESIAN_POINT('',(76.6,16.,11.));
#298 = CIRCLE('',#299,3.);
#299 = AXIS2_PLACEMENT_3D('',#300,#301,#302);
#300 = CARTESIAN_POINT('',(73.6,16.,11.));
#301 = DIRECTION('',(0.,0.,1.));
#302 = DIRECTION('',(1.,0.,-0.));
#303 = PLANE('',#304);
#304 = AXIS2_PLACEMENT_3D('',#305,#306,#307);
#305 = CARTESIAN_POINT('',(0.,0.,11.));
#306 = DIRECTION('',(0.,0.,1.));
#307 = DIRECTION('',(1.,0.,-0.));
#308 = ADVANCED_FACE('',(#309),#336,.F.);
#309 = FACE_BOUND('',#310,.F.);
#310 = EDGE_LOOP('',(#311,#312,#313,#321,#329,#335));
#311 = ORIENTED_EDGE('',*,*,#67,.F.);
#312 = ORIENTED_EDGE('',*,*,#81,.T.);
#313 = ORIENTED_EDGE('',*,*,#314,.F.);
#314 = EDGE_CURVE('',#315,#82,#317,.T.);
#315 = VERTEX_POINT('',#316);
#316 = CARTESIAN_POINT('',(42.679737581199,-29.,8.));
#317 = LINE('',#318,#319);
#318 = CARTESIAN_POINT('',(42.679737581199,-29.,8.));
#319 = VECTOR('',#320,1.);
#320 = DIRECTION('',(0.,0.,1.));
#321 = ORIENTED_EDGE('',*,*,#322,.T.);
#322 = EDGE_CURVE('',#315,#323,#325,.T.);
#323 = VERTEX_POINT('',#324);
#324 = CARTESIAN_POINT('',(40.238787258067,-29.,8.));
#325 = LINE('',#326,#327);
#326 = CARTESIAN_POINT('',(20.,-29.,8.));
#327 = VECTOR('',#328,1.);
#328 = DIRECTION('',(-1.,-0.,0.));
#329 = ORIENTED_EDGE('',*,*,#330,.F.);
#330 = EDGE_CURVE('',#190,#323,#331,.T.);
#331 = LINE('',#332,#333);
#332 = CARTESIAN_POINT('',(40.238787258067,-29.,11.));
#333 = VECTOR('',#334,1.);
#334 = DIRECTION('',(0.,0.,-1.));
#335 = ORIENTED_EDGE('',*,*,#189,.F.);
#336 = PLANE('',#337);
#337 = AXIS2_PLACEMENT_3D('',#338,#339,#340);
#338 = CARTESIAN_POINT('',(40.,-29.,0.));
#339 = DIRECTION('',(-0.,1.,0.));
#340 = DIRECTION('',(0.,0.,1.));
#341 = ADVANCED_FACE('',(#342),#361,.T.);
#342 = FACE_BOUND('',#343,.T.);
#343 = EDGE_LOOP('',(#344,#352,#359,#360));
#344 = ORIENTED_EDGE('',*,*,#345,.F.);
#345 = EDGE_CURVE('',#346,#99,#348,.T.);
#346 = VERTEX_POINT('',#347);
#347 = CARTESIAN_POINT('',(47.615418296655,19.882956028584,8.));
#348 = LINE('',#349,#350);
#349 = CARTESIAN_POINT('',(47.615418296655,19.882956028584,8.));
#350 = VECTOR('',#351,1.);
#351 = DIRECTION('',(0.,0.,1.));
#352 = ORIENTED_EDGE('',*,*,#353,.T.);
#353 = EDGE_CURVE('',#346,#152,#354,.T.);
#354 = CIRCLE('',#355,51.6);
#355 = AXIS2_PLACEMENT_3D('',#356,#357,#358);
#356 = CARTESIAN_POINT('',(0.,0.,8.));
#357 = DIRECTION('',(0.,0.,1.));
#358 = DIRECTION('',(0.82712669731,-0.562015503876,0.));
#359 = ORIENTED_EDGE('',*,*,#151,.T.);
#360 = ORIENTED_EDGE('',*,*,#98,.F.);
#361 = CYLINDRICAL_SURFACE('',#362,51.6);
#362 = AXIS2_PLACEMENT_3D('',#363,#364,#365);
#363 = CARTESIAN_POINT('',(0.,0.,8.));
#364 = DIRECTION('',(0.,0.,1.));
#365 = DIRECTION('',(1.,0.,-0.));
#366 = ADVANCED_FACE('',(#367),#386,.T.);
#367 = FACE_BOUND('',#368,.T.);
#368 = EDGE_LOOP('',(#369,#377,#384,#385));
#369 = ORIENTED_EDGE('',*,*,#370,.F.);
#370 = EDGE_CURVE('',#371,#108,#373,.T.);
#371 = VERTEX_POINT('',#372);
#372 = CARTESIAN_POINT('',(49.801142398248,13.505784532169,8.));
#373 = LINE('',#374,#375);
#374 = CARTESIAN_POINT('',(49.801142398248,13.505784532169,8.));
#375 = VECTOR('',#376,1.);
#376 = DIRECTION('',(0.,0.,1.));
#377 = ORIENTED_EDGE('',*,*,#378,.T.);
#378 = EDGE_CURVE('',#371,#346,#379,.T.);
#379 = CIRCLE('',#380,3.5);
#380 = AXIS2_PLACEMENT_3D('',#381,#382,#383);
#381 = CARTESIAN_POINT('',(49.6,17.,8.));
#382 = DIRECTION('',(-0.,0.,1.));
#383 = DIRECTION('',(5.746925664238E-02,-0.998347276523,0.));
#384 = ORIENTED_EDGE('',*,*,#345,.T.);
#385 = ORIENTED_EDGE('',*,*,#107,.F.);
#386 = CYLINDRICAL_SURFACE('',#387,3.5);
#387 = AXIS2_PLACEMENT_3D('',#388,#389,#390);
#388 = CARTESIAN_POINT('',(49.6,17.,8.));
#389 = DIRECTION('',(0.,0.,1.));
#390 = DIRECTION('',(1.,0.,-0.));
#391 = ADVANCED_FACE('',(#392),#411,.T.);
#392 = FACE_BOUND('',#393,.T.);
#393 = EDGE_LOOP('',(#394,#402,#409,#410));
#394 = ORIENTED_EDGE('',*,*,#395,.F.);
#395 = EDGE_CURVE('',#396,#117,#398,.T.);
#396 = VERTEX_POINT('',#397);
#397 = CARTESIAN_POINT('',(48.864339921856,-16.57818699379,8.));
#398 = LINE('',#399,#400);
#399 = CARTESIAN_POINT('',(48.864339921856,-16.57818699379,8.));
#400 = VECTOR('',#401,1.);
#401 = DIRECTION('',(0.,0.,1.));
#402 = ORIENTED_EDGE('',*,*,#403,.T.);
#403 = EDGE_CURVE('',#396,#371,#404,.T.);
#404 = CIRCLE('',#405,51.6);
#405 = AXIS2_PLACEMENT_3D('',#406,#407,#408);
#406 = CARTESIAN_POINT('',(0.,0.,8.));
#407 = DIRECTION('',(0.,0.,1.));
#408 = DIRECTION('',(0.82712669731,-0.562015503876,0.));
#409 = ORIENTED_EDGE('',*,*,#370,.T.);
#410 = ORIENTED_EDGE('',*,*,#116,.F.);
#411 = CYLINDRICAL_SURFACE('',#412,51.6);
#412 = AXIS2_PLACEMENT_3D('',#413,#414,#415);
#413 = CARTESIAN_POINT('',(0.,0.,8.));
#414 = DIRECTION('',(0.,0.,1.));
#415 = DIRECTION('',(1.,0.,-0.));
#416 = ADVANCED_FACE('',(#417),#436,.T.);
#417 = FACE_BOUND('',#418,.T.);
#418 = EDGE_LOOP('',(#419,#428,#429,#430));
#419 = ORIENTED_EDGE('',*,*,#420,.T.);
#420 = EDGE_CURVE('',#421,#396,#423,.T.);
#421 = VERTEX_POINT('',#422);
#422 = CARTESIAN_POINT('',(46.696507023769,-21.95441258105,8.));
#423 = CIRCLE('',#424,3.5);
#424 = AXIS2_PLACEMENT_3D('',#425,#426,#427);
#425 = CARTESIAN_POINT('',(49.6,-20.,8.));
#426 = DIRECTION('',(0.,0.,1.));
#427 = DIRECTION('',(-0.82956942178,-0.558403594587,0.));
#428 = ORIENTED_EDGE('',*,*,#395,.T.);
#429 = ORIENTED_EDGE('',*,*,#125,.F.);
#430 = ORIENTED_EDGE('',*,*,#431,.F.);
#431 = EDGE_CURVE('',#421,#126,#432,.T.);
#432 = LINE('',#433,#434);
#433 = CARTESIAN_POINT('',(46.696507023769,-21.95441258105,8.));
#434 = VECTOR('',#435,1.);
#435 = DIRECTION('',(0.,0.,1.));
#436 = CYLINDRICAL_SURFACE('',#437,3.5);
#437 = AXIS2_PLACEMENT_3D('',#438,#439,#440);
#438 = CARTESIAN_POINT('',(49.6,-20.,8.));
#439 = DIRECTION('',(0.,0.,1.));
#440 = DIRECTION('',(1.,0.,-0.));
#441 = ADVANCED_FACE('',(#442),#454,.T.);
#442 = FACE_BOUND('',#443,.T.);
#443 = EDGE_LOOP('',(#444,#445,#452,#453));
#444 = ORIENTED_EDGE('',*,*,#314,.F.);
#445 = ORIENTED_EDGE('',*,*,#446,.T.);
#446 = EDGE_CURVE('',#315,#421,#447,.T.);
#447 = CIRCLE('',#448,51.6);
#448 = AXIS2_PLACEMENT_3D('',#449,#450,#451);
#449 = CARTESIAN_POINT('',(0.,0.,8.));
#450 = DIRECTION('',(0.,0.,1.));
#451 = DIRECTION('',(0.82712669731,-0.562015503876,0.));
#452 = ORIENTED_EDGE('',*,*,#431,.T.);
#453 = ORIENTED_EDGE('',*,*,#134,.F.);
#454 = CYLINDRICAL_SURFACE('',#455,51.6);
#455 = AXIS2_PLACEMENT_3D('',#456,#457,#458);
#456 = CARTESIAN_POINT('',(0.,0.,8.));
#457 = DIRECTION('',(0.,0.,1.));
#458 = DIRECTION('',(1.,0.,-0.));
#459 = ADVANCED_FACE('',(#460,#494,#505),#516,.F.);
#460 = FACE_BOUND('',#461,.F.);
#461 = EDGE_LOOP('',(#462,#471,#480,#487,#488,#489,#490,#491,#492,#493)
  );
#462 = ORIENTED_EDGE('',*,*,#463,.F.);
#463 = EDGE_CURVE('',#464,#160,#466,.T.);
#464 = VERTEX_POINT('',#465);
#465 = CARTESIAN_POINT('',(46.234204910708,17.959908025228,8.));
#466 = CIRCLE('',#467,49.6);
#467 = AXIS2_PLACEMENT_3D('',#468,#469,#470);
#468 = CARTESIAN_POINT('',(0.,0.,8.));
#469 = DIRECTION('',(0.,0.,1.));
#470 = DIRECTION('',(0.811265872138,-0.584677419355,0.));
#471 = ORIENTED_EDGE('',*,*,#472,.T.);
#472 = EDGE_CURVE('',#464,#473,#475,.T.);
#473 = VERTEX_POINT('',#474);
#474 = CARTESIAN_POINT('',(47.530680363339,14.177250234022,8.));
#475 = CIRCLE('',#476,3.5);
#476 = AXIS2_PLACEMENT_3D('',#477,#478,#479);
#477 = CARTESIAN_POINT('',(49.6,17.,8.));
#478 = DIRECTION('',(0.,0.,1.));
#479 = DIRECTION('',(1.,0.,-0.));
#480 = ORIENTED_EDGE('',*,*,#481,.F.);
#481 = EDGE_CURVE('',#323,#473,#482,.T.);
#482 = CIRCLE('',#483,49.6);
#483 = AXIS2_PLACEMENT_3D('',#484,#485,#486);
#484 = CARTESIAN_POINT('',(0.,0.,8.));
#485 = DIRECTION('',(0.,0.,1.));
#486 = DIRECTION('',(0.811265872138,-0.584677419355,0.));
#487 = ORIENTED_EDGE('',*,*,#322,.F.);
#488 = ORIENTED_EDGE('',*,*,#446,.T.);
#489 = ORIENTED_EDGE('',*,*,#420,.T.);
#490 = ORIENTED_EDGE('',*,*,#403,.T.);
#491 = ORIENTED_EDGE('',*,*,#378,.T.);
#492 = ORIENTED_EDGE('',*,*,#353,.T.);
#493 = ORIENTED_EDGE('',*,*,#159,.T.);
#494 = FACE_BOUND('',#495,.F.);
#495 = EDGE_LOOP('',(#496));
#496 = ORIENTED_EDGE('',*,*,#497,.F.);
#497 = EDGE_CURVE('',#498,#498,#500,.T.);
#498 = VERTEX_POINT('',#499);
#499 = CARTESIAN_POINT('',(51.,-20.,8.));
#500 = CIRCLE('',#501,1.4);
#501 = AXIS2_PLACEMENT_3D('',#502,#503,#504);
#502 = CARTESIAN_POINT('',(49.6,-20.,8.));
#503 = DIRECTION('',(0.,0.,1.));
#504 = DIRECTION('',(1.,0.,-0.));
#505 = FACE_BOUND('',#506,.F.);
#506 = EDGE_LOOP('',(#507));
#507 = ORIENTED_EDGE('',*,*,#508,.F.);
#508 = EDGE_CURVE('',#509,#509,#511,.T.);
#509 = VERTEX_POINT('',#510);
#510 = CARTESIAN_POINT('',(51.,17.,8.));
#511 = CIRCLE('',#512,1.4);
#512 = AXIS2_PLACEMENT_3D('',#513,#514,#515);
#513 = CARTESIAN_POINT('',(49.6,17.,8.));
#514 = DIRECTION('',(0.,0.,1.));
#515 = DIRECTION('',(1.,0.,-0.));
#516 = PLANE('',#517);
#517 = AXIS2_PLACEMENT_3D('',#518,#519,#520);
#518 = CARTESIAN_POINT('',(0.,0.,8.));
#519 = DIRECTION('',(0.,0.,1.));
#520 = DIRECTION('',(1.,0.,-0.));
#521 = ADVANCED_FACE('',(#522),#533,.F.);
#522 = FACE_BOUND('',#523,.F.);
#523 = EDGE_LOOP('',(#524,#525,#531,#532));
#524 = ORIENTED_EDGE('',*,*,#199,.T.);
#525 = ORIENTED_EDGE('',*,*,#526,.F.);
#526 = EDGE_CURVE('',#464,#200,#527,.T.);
#527 = LINE('',#528,#529);
#528 = CARTESIAN_POINT('',(46.234204910708,17.959908025228,9.49));
#529 = VECTOR('',#530,1.);
#530 = DIRECTION('',(0.,0.,1.));
#531 = ORIENTED_EDGE('',*,*,#463,.T.);
#532 = ORIENTED_EDGE('',*,*,#167,.T.);
#533 = CYLINDRICAL_SURFACE('',#534,49.6);
#534 = AXIS2_PLACEMENT_3D('',#535,#536,#537);
#535 = CARTESIAN_POINT('',(0.,0.,9.49));
#536 = DIRECTION('',(0.,0.,1.));
#537 = DIRECTION('',(1.,0.,-0.));
#538 = ADVANCED_FACE('',(#539),#550,.F.);
#539 = FACE_BOUND('',#540,.F.);
#540 = EDGE_LOOP('',(#541,#542,#543,#544));
#541 = ORIENTED_EDGE('',*,*,#217,.T.);
#542 = ORIENTED_EDGE('',*,*,#330,.T.);
#543 = ORIENTED_EDGE('',*,*,#481,.T.);
#544 = ORIENTED_EDGE('',*,*,#545,.T.);
#545 = EDGE_CURVE('',#473,#209,#546,.T.);
#546 = LINE('',#547,#548);
#547 = CARTESIAN_POINT('',(47.530680363339,14.177250234022,9.49));
#548 = VECTOR('',#549,1.);
#549 = DIRECTION('',(0.,0.,1.));
#550 = CYLINDRICAL_SURFACE('',#551,49.6);
#551 = AXIS2_PLACEMENT_3D('',#552,#553,#554);
#552 = CARTESIAN_POINT('',(0.,0.,9.49));
#553 = DIRECTION('',(0.,0.,1.));
#554 = DIRECTION('',(1.,0.,-0.));
#555 = ADVANCED_FACE('',(#556),#562,.T.);
#556 = FACE_BOUND('',#557,.T.);
#557 = EDGE_LOOP('',(#558,#559,#560,#561));
#558 = ORIENTED_EDGE('',*,*,#208,.F.);
#559 = ORIENTED_EDGE('',*,*,#526,.F.);
#560 = ORIENTED_EDGE('',*,*,#472,.T.);
#561 = ORIENTED_EDGE('',*,*,#545,.T.);
#562 = CYLINDRICAL_SURFACE('',#563,3.5);
#563 = AXIS2_PLACEMENT_3D('',#564,#565,#566);
#564 = CARTESIAN_POINT('',(49.6,17.,8.));
#565 = DIRECTION('',(0.,0.,1.));
#566 = DIRECTION('',(1.,0.,-0.));
#567 = ADVANCED_FACE('',(#568),#615,.T.);
#568 = FACE_BOUND('',#569,.T.);
#569 = EDGE_LOOP('',(#570,#578,#579,#589,#598,#606,#607,#608));
#570 = ORIENTED_EDGE('',*,*,#571,.F.);
#571 = EDGE_CURVE('',#229,#572,#574,.T.);
#572 = VERTEX_POINT('',#573);
#573 = CARTESIAN_POINT('',(55.1,-24.,13.));
#574 = LINE('',#575,#576);
#575 = CARTESIAN_POINT('',(55.1,-24.,10.99));
#576 = VECTOR('',#577,1.);
#577 = DIRECTION('',(0.,0.,1.));
#578 = ORIENTED_EDGE('',*,*,#226,.F.);
#579 = ORIENTED_EDGE('',*,*,#580,.F.);
#580 = EDGE_CURVE('',#581,#227,#583,.T.);
#581 = VERTEX_POINT('',#582);
#582 = CARTESIAN_POINT('',(52.107983005735,-21.00001062141,11.01));
#583 = B_SPLINE_CURVE_WITH_KNOTS('',4,(#584,#585,#586,#587,#588),
  .UNSPECIFIED.,.F.,.F.,(5,5),(0.,1.),.PIECEWISE_BEZIER_KNOTS.);
#584 = CARTESIAN_POINT('',(52.107983005735,-21.00001062141,11.01));
#585 = CARTESIAN_POINT('',(52.104517788415,-21.00000140043,
    11.007496602136));
#586 = CARTESIAN_POINT('',(52.101052556893,-20.99999751623,
    11.004995353258));
#587 = CARTESIAN_POINT('',(52.097587323499,-20.99999896886,
    11.002496277661));
#588 = CARTESIAN_POINT('',(52.094122100562,-21.00000575828,10.9999994));
#589 = ORIENTED_EDGE('',*,*,#590,.T.);
#590 = EDGE_CURVE('',#581,#591,#593,.T.);
#591 = VERTEX_POINT('',#592);
#592 = CARTESIAN_POINT('',(49.399882162804,-22.69257364824,11.01));
#593 = CIRCLE('',#594,3.);
#594 = AXIS2_PLACEMENT_3D('',#595,#596,#597);
#595 = CARTESIAN_POINT('',(52.1,-24.,11.01));
#596 = DIRECTION('',(0.,0.,1.));
#597 = DIRECTION('',(1.,0.,-0.));
#598 = ORIENTED_EDGE('',*,*,#599,.F.);
#599 = EDGE_CURVE('',#238,#591,#600,.T.);
#600 = B_SPLINE_CURVE_WITH_KNOTS('',4,(#601,#602,#603,#604,#605),
  .UNSPECIFIED.,.F.,.F.,(5,5),(0.,1.),.PIECEWISE_BEZIER_KNOTS.);
#601 = CARTESIAN_POINT('',(49.40595167125,-22.6801122766,10.9999994));
#602 = CARTESIAN_POINT('',(49.404427099919,-22.6832241086,
    11.002496277661));
#603 = CARTESIAN_POINT('',(49.402907321126,-22.68633828859,
    11.004995353258));
#604 = CARTESIAN_POINT('',(49.401392340297,-22.6894548055,
    11.007496602136));
#605 = CARTESIAN_POINT('',(49.399882162804,-22.69257364824,11.01));
#606 = ORIENTED_EDGE('',*,*,#237,.F.);
#607 = ORIENTED_EDGE('',*,*,#571,.T.);
#608 = ORIENTED_EDGE('',*,*,#609,.F.);
#609 = EDGE_CURVE('',#572,#572,#610,.T.);
#610 = CIRCLE('',#611,3.);
#611 = AXIS2_PLACEMENT_3D('',#612,#613,#614);
#612 = CARTESIAN_POINT('',(52.1,-24.,13.));
#613 = DIRECTION('',(0.,0.,1.));
#614 = DIRECTION('',(1.,0.,-0.));
#615 = CYLINDRICAL_SURFACE('',#616,3.);
#616 = AXIS2_PLACEMENT_3D('',#617,#618,#619);
#617 = CARTESIAN_POINT('',(52.1,-24.,10.99));
#618 = DIRECTION('',(0.,0.,1.));
#619 = DIRECTION('',(1.,0.,-0.));
#620 = ADVANCED_FACE('',(#621),#650,.F.);
#621 = FACE_BOUND('',#622,.F.);
#622 = EDGE_LOOP('',(#623,#630,#631,#632,#640,#647,#648,#649));
#623 = ORIENTED_EDGE('',*,*,#624,.F.);
#624 = EDGE_CURVE('',#591,#581,#625,.T.);
#625 = CIRCLE('',#626,2.7);
#626 = AXIS2_PLACEMENT_3D('',#627,#628,#629);
#627 = CARTESIAN_POINT('',(49.6,-20.,11.01));
#628 = DIRECTION('',(0.,0.,1.));
#629 = DIRECTION('',(1.,0.,-0.));
#630 = ORIENTED_EDGE('',*,*,#599,.F.);
#631 = ORIENTED_EDGE('',*,*,#246,.F.);
#632 = ORIENTED_EDGE('',*,*,#633,.F.);
#633 = EDGE_CURVE('',#634,#247,#636,.T.);
#634 = VERTEX_POINT('',#635);
#635 = CARTESIAN_POINT('',(51.,-20.,10.));
#636 = LINE('',#637,#638);
#637 = CARTESIAN_POINT('',(51.,-20.,10.));
#638 = VECTOR('',#639,1.);
#639 = DIRECTION('',(0.789679191408,-1.934156188221E-16,0.613519987171)
  );
#640 = ORIENTED_EDGE('',*,*,#641,.T.);
#641 = EDGE_CURVE('',#634,#634,#642,.T.);
#642 = CIRCLE('',#643,1.4);
#643 = AXIS2_PLACEMENT_3D('',#644,#645,#646);
#644 = CARTESIAN_POINT('',(49.6,-20.,10.));
#645 = DIRECTION('',(0.,0.,1.));
#646 = DIRECTION('',(1.,0.,-0.));
#647 = ORIENTED_EDGE('',*,*,#633,.T.);
#648 = ORIENTED_EDGE('',*,*,#255,.F.);
#649 = ORIENTED_EDGE('',*,*,#580,.F.);
#650 = CONICAL_SURFACE('',#651,1.4,0.910285922944);
#651 = AXIS2_PLACEMENT_3D('',#652,#653,#654);
#652 = CARTESIAN_POINT('',(49.6,-20.,10.));
#653 = DIRECTION('',(0.,0.,1.));
#654 = DIRECTION('',(1.,0.,-0.));
#655 = ADVANCED_FACE('',(#656),#675,.T.);
#656 = FACE_BOUND('',#657,.T.);
#657 = EDGE_LOOP('',(#658,#666,#673,#674));
#658 = ORIENTED_EDGE('',*,*,#659,.T.);
#659 = EDGE_CURVE('',#265,#660,#662,.T.);
#660 = VERTEX_POINT('',#661);
#661 = CARTESIAN_POINT('',(76.6,-24.,13.));
#662 = LINE('',#663,#664);
#663 = CARTESIAN_POINT('',(76.6,-24.,10.99));
#664 = VECTOR('',#665,1.);
#665 = DIRECTION('',(0.,0.,1.));
#666 = ORIENTED_EDGE('',*,*,#667,.F.);
#667 = EDGE_CURVE('',#660,#660,#668,.T.);
#668 = CIRCLE('',#669,3.);
#669 = AXIS2_PLACEMENT_3D('',#670,#671,#672);
#670 = CARTESIAN_POINT('',(73.6,-24.,13.));
#671 = DIRECTION('',(0.,0.,1.));
#672 = DIRECTION('',(1.,0.,-0.));
#673 = ORIENTED_EDGE('',*,*,#659,.F.);
#674 = ORIENTED_EDGE('',*,*,#264,.T.);
#675 = CYLINDRICAL_SURFACE('',#676,3.);
#676 = AXIS2_PLACEMENT_3D('',#677,#678,#679);
#677 = CARTESIAN_POINT('',(73.6,-24.,10.99));
#678 = DIRECTION('',(0.,0.,1.));
#679 = DIRECTION('',(1.,0.,-0.));
#680 = ADVANCED_FACE('',(#681),#804,.F.);
#681 = FACE_BOUND('',#682,.F.);
#682 = EDGE_LOOP('',(#683,#694,#719,#728,#736,#743,#744,#753,#778,#787,
    #795,#796));
#683 = ORIENTED_EDGE('',*,*,#684,.F.);
#684 = EDGE_CURVE('',#685,#687,#689,.T.);
#685 = VERTEX_POINT('',#686);
#686 = CARTESIAN_POINT('',(52.233759624056,17.594399060139,11.01));
#687 = VERTEX_POINT('',#688);
#688 = CARTESIAN_POINT('',(51.482286509775,18.935716274437,11.01));
#689 = CIRCLE('',#690,2.7);
#690 = AXIS2_PLACEMENT_3D('',#691,#692,#693);
#691 = CARTESIAN_POINT('',(49.6,17.,11.01));
#692 = DIRECTION('',(0.,0.,1.));
#693 = DIRECTION('',(1.,0.,-0.));
#694 = ORIENTED_EDGE('',*,*,#695,.T.);
#695 = EDGE_CURVE('',#685,#696,#698,.T.);
#696 = VERTEX_POINT('',#697);
#697 = CARTESIAN_POINT('',(52.2203199665,17.595469556482,11.));
#698 = B_SPLINE_CURVE_WITH_KNOTS('',7,(#699,#700,#701,#702,#703,#704,
    #705,#706,#707,#708,#709,#710,#711,#712,#713,#714,#715,#716,#717,
    #718),.UNSPECIFIED.,.F.,.F.,(8,6,6,8),(0.,0.252029050541,
    0.634825764687,1.),.UNSPECIFIED.);
#699 = CARTESIAN_POINT('',(52.233759624056,17.594399060139,11.01));
#700 = CARTESIAN_POINT('',(52.184764364777,17.59850944105,
    10.973571363419));
#701 = CARTESIAN_POINT('',(52.135904950893,17.600839562989,
    10.937014656694));
#702 = CARTESIAN_POINT('',(52.087227464521,17.601422217232,
    10.900344266071));
#703 = CARTESIAN_POINT('',(52.038774629824,17.600287536217,
    10.86357459861));
#704 = CARTESIAN_POINT('',(51.99058570523,17.597462509035,
    10.826720222446));
#705 = CARTESIAN_POINT('',(51.942696375647,17.592970496917,
    10.789796007042));
#706 = CARTESIAN_POINT('',(51.822905133872,17.57750533394,
    10.696651747955));
#707 = CARTESIAN_POINT('',(51.751446109667,17.564379639601,
    10.640367981298));
#708 = CARTESIAN_POINT('',(51.68086262329,17.547522033949,
    10.584010997583));
#709 = CARTESIAN_POINT('',(51.611251327161,17.526972230828,
    10.527641998663));
#710 = CARTESIAN_POINT('',(51.542702962385,17.502748990917,
    10.471338327714));
#711 = CARTESIAN_POINT('',(51.475293577661,17.474833202297,
    10.415200342502));
#712 = CARTESIAN_POINT('',(51.345892128713,17.412879139534,
    10.306100468572));
#713 = CARTESIAN_POINT('',(51.283866261805,17.379216852059,
    10.253172576034));
#714 = CARTESIAN_POINT('',(51.222944702067,17.342025636389,
    10.200633391757));
#715 = CARTESIAN_POINT('',(51.163164408149,17.301155828242,
    10.148647041484));
#716 = CARTESIAN_POINT('',(51.104611225187,17.256387237313,
    10.097525491511));
#717 = CARTESIAN_POINT('',(51.047390651933,17.207482943909,
    10.04772177076));
#718 = CARTESIAN_POINT('',(50.991524968813,17.153812422031,10.));
#719 = ORIENTED_EDGE('',*,*,#720,.F.);
#720 = EDGE_CURVE('',#721,#696,#723,.T.);
#721 = VERTEX_POINT('',#722);
#722 = CARTESIAN_POINT('',(52.287128712871,17.,11.));
#723 = CIRCLE('',#724,2.687128712871);
#724 = AXIS2_PLACEMENT_3D('',#725,#726,#727);
#725 = CARTESIAN_POINT('',(49.6,17.,11.));
#726 = DIRECTION('',(0.,0.,1.));
#727 = DIRECTION('',(1.,0.,-0.));
#728 = ORIENTED_EDGE('',*,*,#729,.F.);
#729 = EDGE_CURVE('',#730,#721,#732,.T.);
#730 = VERTEX_POINT('',#731);
#731 = CARTESIAN_POINT('',(51.,17.,10.));
#732 = LINE('',#733,#734);
#733 = CARTESIAN_POINT('',(51.,17.,10.));
#734 = VECTOR('',#735,1.);
#735 = DIRECTION('',(0.789679191408,-1.934156188221E-16,0.613519987171)
  );
#736 = ORIENTED_EDGE('',*,*,#737,.T.);
#737 = EDGE_CURVE('',#730,#730,#738,.T.);
#738 = CIRCLE('',#739,1.4);
#739 = AXIS2_PLACEMENT_3D('',#740,#741,#742);
#740 = CARTESIAN_POINT('',(49.6,17.,10.));
#741 = DIRECTION('',(0.,0.,1.));
#742 = DIRECTION('',(1.,0.,-0.));
#743 = ORIENTED_EDGE('',*,*,#729,.T.);
#744 = ORIENTED_EDGE('',*,*,#745,.F.);
#745 = EDGE_CURVE('',#746,#721,#748,.T.);
#746 = VERTEX_POINT('',#747);
#747 = CARTESIAN_POINT('',(51.086804419547,14.761680689099,11.));
#748 = CIRCLE('',#749,2.687128712871);
#749 = AXIS2_PLACEMENT_3D('',#750,#751,#752);
#750 = CARTESIAN_POINT('',(49.6,17.,11.));
#751 = DIRECTION('',(0.,0.,1.));
#752 = DIRECTION('',(1.,0.,-0.));
#753 = ORIENTED_EDGE('',*,*,#754,.T.);
#754 = EDGE_CURVE('',#746,#755,#757,.T.);
#755 = VERTEX_POINT('',#756);
#756 = CARTESIAN_POINT('',(51.097274858703,14.753187146758,11.01));
#757 = B_SPLINE_CURVE_WITH_KNOTS('',7,(#758,#759,#760,#761,#762,#763,
    #764,#765,#766,#767,#768,#769,#770,#771,#772,#773,#774,#775,#776,
    #777),.UNSPECIFIED.,.F.,.F.,(8,6,6,8),(0.,0.365434240826,
    0.749341492359,1.),.UNSPECIFIED.);
#758 = CARTESIAN_POINT('',(50.501578479463,15.928946198658,10.));
#759 = CARTESIAN_POINT('',(50.505021235933,15.851498181424,
    10.047755745875));
#760 = CARTESIAN_POINT('',(50.512738247681,15.776570852438,
    10.097596341823));
#761 = CARTESIAN_POINT('',(50.524277563978,15.703721892628,
    10.148756122538));
#762 = CARTESIAN_POINT('',(50.539399051114,15.632852484139,
    10.200781345355));
#763 = CARTESIAN_POINT('',(50.557888306283,15.56386224673,
    10.253359568683));
#764 = CARTESIAN_POINT('',(50.579615192621,15.496668230388,
    10.306326523498));
#765 = CARTESIAN_POINT('',(50.630713878428,15.362332080399,
    10.415628822145));
#766 = CARTESIAN_POINT('',(50.660384991977,15.295447823153,
    10.471931296465));
#767 = CARTESIAN_POINT('',(50.693446516676,15.230462905859,
    10.52839967129));
#768 = CARTESIAN_POINT('',(50.729829770328,15.167416572431,
    10.58493291652));
#769 = CARTESIAN_POINT('',(50.769481656386,15.106385983835,
    10.641453186941));
#770 = CARTESIAN_POINT('',(50.812359296012,15.047467715091,
    10.697898878156));
#771 = CARTESIAN_POINT('',(50.888521016904,14.953771756423,
    10.791000581035));
#772 = CARTESIAN_POINT('',(50.919966791395,14.917716124896,
    10.827722134637));
#773 = CARTESIAN_POINT('',(50.952764127792,14.882651049344,
    10.864374285484));
#774 = CARTESIAN_POINT('',(50.986903456439,14.848617461285,
    10.900942413913));
#775 = CARTESIAN_POINT('',(51.022375117877,14.81566127101,
    10.937412190068));
#776 = CARTESIAN_POINT('',(51.059169113916,14.783832955571,
    10.973769438037));
#777 = CARTESIAN_POINT('',(51.097274858703,14.753187146758,11.01));
#778 = ORIENTED_EDGE('',*,*,#779,.F.);
#779 = EDGE_CURVE('',#780,#755,#782,.T.);
#780 = VERTEX_POINT('',#781);
#781 = CARTESIAN_POINT('',(49.628058317811,14.300145794529,11.01));
#782 = CIRCLE('',#783,2.7);
#783 = AXIS2_PLACEMENT_3D('',#784,#785,#786);
#784 = CARTESIAN_POINT('',(49.6,17.,11.01));
#785 = DIRECTION('',(0.,0.,1.));
#786 = DIRECTION('',(1.,0.,-0.));
#787 = ORIENTED_EDGE('',*,*,#788,.F.);
#788 = EDGE_CURVE('',#278,#780,#789,.T.);
#789 = B_SPLINE_CURVE_WITH_KNOTS('',4,(#790,#791,#792,#793,#794),
  .UNSPECIFIED.,.F.,.F.,(5,5),(0.,1.),.PIECEWISE_BEZIER_KNOTS.);
#790 = CARTESIAN_POINT('',(49.619307884626,14.312941427004,10.9999994));
#791 = CARTESIAN_POINT('',(49.621487223369,14.309736874107,
    11.002501192862));
#792 = CARTESIAN_POINT('',(49.623672081626,14.306536074897,
    11.005001892663));
#793 = CARTESIAN_POINT('',(49.625862449697,14.303339043634,
    11.007501496129));
#794 = CARTESIAN_POINT('',(49.628058317811,14.300145794529,11.01));
#795 = ORIENTED_EDGE('',*,*,#275,.F.);
#796 = ORIENTED_EDGE('',*,*,#797,.F.);
#797 = EDGE_CURVE('',#687,#276,#798,.T.);
#798 = B_SPLINE_CURVE_WITH_KNOTS('',4,(#799,#800,#801,#802,#803),
  .UNSPECIFIED.,.F.,.F.,(5,5),(0.,1.),.PIECEWISE_BEZIER_KNOTS.);
#799 = CARTESIAN_POINT('',(51.482286509775,18.935716274437,11.01));
#800 = CARTESIAN_POINT('',(51.478494157619,18.93491831344,
    11.007501496129));
#801 = CARTESIAN_POINT('',(51.474703179869,18.934113820505,
    11.005001892663));
#802 = CARTESIAN_POINT('',(51.4709135934,18.933302799185,11.002501192862
    ));
#803 = CARTESIAN_POINT('',(51.467125415071,18.932485253117,10.9999994));
#804 = CONICAL_SURFACE('',#805,1.4,0.910285922944);
#805 = AXIS2_PLACEMENT_3D('',#806,#807,#808);
#806 = CARTESIAN_POINT('',(49.6,17.,10.));
#807 = DIRECTION('',(0.,0.,1.));
#808 = DIRECTION('',(1.,0.,-0.));
#809 = ADVANCED_FACE('',(#810),#856,.T.);
#810 = FACE_BOUND('',#811,.T.);
#811 = EDGE_LOOP('',(#812,#822,#831,#839,#846,#847,#848,#849));
#812 = ORIENTED_EDGE('',*,*,#813,.T.);
#813 = EDGE_CURVE('',#814,#816,#818,.T.);
#814 = VERTEX_POINT('',#815);
#815 = CARTESIAN_POINT('',(50.155952100752,18.284880251879,11.01));
#816 = VERTEX_POINT('',#817);
#817 = CARTESIAN_POINT('',(50.155952100752,18.284880251879,13.));
#818 = LINE('',#819,#820);
#819 = CARTESIAN_POINT('',(50.155952100752,18.284880251879,10.99));
#820 = VECTOR('',#821,1.);
#821 = DIRECTION('',(0.,0.,1.));
#822 = ORIENTED_EDGE('',*,*,#823,.T.);
#823 = EDGE_CURVE('',#816,#824,#826,.T.);
#824 = VERTEX_POINT('',#825);
#825 = CARTESIAN_POINT('',(49.116461692352,15.686154230879,13.));
#826 = CIRCLE('',#827,3.);
#827 = AXIS2_PLACEMENT_3D('',#828,#829,#830);
#828 = CARTESIAN_POINT('',(52.1,16.,13.));
#829 = DIRECTION('',(0.,0.,-1.));
#830 = DIRECTION('',(-0.648015966416,0.761626750626,0.));
#831 = ORIENTED_EDGE('',*,*,#832,.F.);
#832 = EDGE_CURVE('',#833,#824,#835,.T.);
#833 = VERTEX_POINT('',#834);
#834 = CARTESIAN_POINT('',(49.116461692352,15.686154230879,11.01));
#835 = LINE('',#836,#837);
#836 = CARTESIAN_POINT('',(49.116461692352,15.686154230879,10.99));
#837 = VECTOR('',#838,1.);
#838 = DIRECTION('',(0.,0.,1.));
#839 = ORIENTED_EDGE('',*,*,#840,.T.);
#840 = EDGE_CURVE('',#833,#780,#841,.T.);
#841 = CIRCLE('',#842,3.);
#842 = AXIS2_PLACEMENT_3D('',#843,#844,#845);
#843 = CARTESIAN_POINT('',(52.1,16.,11.01));
#844 = DIRECTION('',(0.,0.,1.));
#845 = DIRECTION('',(1.,0.,-0.));
#846 = ORIENTED_EDGE('',*,*,#788,.F.);
#847 = ORIENTED_EDGE('',*,*,#286,.F.);
#848 = ORIENTED_EDGE('',*,*,#797,.F.);
#849 = ORIENTED_EDGE('',*,*,#850,.T.);
#850 = EDGE_CURVE('',#687,#814,#851,.T.);
#851 = CIRCLE('',#852,3.);
#852 = AXIS2_PLACEMENT_3D('',#853,#854,#855);
#853 = CARTESIAN_POINT('',(52.1,16.,11.01));
#854 = DIRECTION('',(0.,0.,1.));
#855 = DIRECTION('',(1.,0.,-0.));
#856 = CYLINDRICAL_SURFACE('',#857,3.);
#857 = AXIS2_PLACEMENT_3D('',#858,#859,#860);
#858 = CARTESIAN_POINT('',(52.1,16.,10.99));
#859 = DIRECTION('',(0.,0.,1.));
#860 = DIRECTION('',(1.,0.,-0.));
#861 = ADVANCED_FACE('',(#862),#881,.T.);
#862 = FACE_BOUND('',#863,.T.);
#863 = EDGE_LOOP('',(#864,#872,#879,#880));
#864 = ORIENTED_EDGE('',*,*,#865,.T.);
#865 = EDGE_CURVE('',#296,#866,#868,.T.);
#866 = VERTEX_POINT('',#867);
#867 = CARTESIAN_POINT('',(76.6,16.,13.));
#868 = LINE('',#869,#870);
#869 = CARTESIAN_POINT('',(76.6,16.,10.99));
#870 = VECTOR('',#871,1.);
#871 = DIRECTION('',(0.,0.,1.));
#872 = ORIENTED_EDGE('',*,*,#873,.F.);
#873 = EDGE_CURVE('',#866,#866,#874,.T.);
#874 = CIRCLE('',#875,3.);
#875 = AXIS2_PLACEMENT_3D('',#876,#877,#878);
#876 = CARTESIAN_POINT('',(73.6,16.,13.));
#877 = DIRECTION('',(0.,0.,1.));
#878 = DIRECTION('',(1.,0.,-0.));
#879 = ORIENTED_EDGE('',*,*,#865,.F.);
#880 = ORIENTED_EDGE('',*,*,#295,.T.);
#881 = CYLINDRICAL_SURFACE('',#882,3.);
#882 = AXIS2_PLACEMENT_3D('',#883,#884,#885);
#883 = CARTESIAN_POINT('',(73.6,16.,10.99));
#884 = DIRECTION('',(0.,0.,1.));
#885 = DIRECTION('',(1.,0.,-0.));
#886 = ADVANCED_FACE('',(#887),#898,.F.);
#887 = FACE_BOUND('',#888,.F.);
#888 = EDGE_LOOP('',(#889,#890,#896,#897));
#889 = ORIENTED_EDGE('',*,*,#641,.F.);
#890 = ORIENTED_EDGE('',*,*,#891,.F.);
#891 = EDGE_CURVE('',#498,#634,#892,.T.);
#892 = LINE('',#893,#894);
#893 = CARTESIAN_POINT('',(51.,-20.,7.));
#894 = VECTOR('',#895,1.);
#895 = DIRECTION('',(0.,0.,1.));
#896 = ORIENTED_EDGE('',*,*,#497,.T.);
#897 = ORIENTED_EDGE('',*,*,#891,.T.);
#898 = CYLINDRICAL_SURFACE('',#899,1.4);
#899 = AXIS2_PLACEMENT_3D('',#900,#901,#902);
#900 = CARTESIAN_POINT('',(49.6,-20.,7.));
#901 = DIRECTION('',(0.,0.,1.));
#902 = DIRECTION('',(1.,0.,-0.));
#903 = ADVANCED_FACE('',(#904),#915,.F.);
#904 = FACE_BOUND('',#905,.F.);
#905 = EDGE_LOOP('',(#906,#907,#913,#914));
#906 = ORIENTED_EDGE('',*,*,#737,.F.);
#907 = ORIENTED_EDGE('',*,*,#908,.F.);
#908 = EDGE_CURVE('',#509,#730,#909,.T.);
#909 = LINE('',#910,#911);
#910 = CARTESIAN_POINT('',(51.,17.,7.));
#911 = VECTOR('',#912,1.);
#912 = DIRECTION('',(0.,0.,1.));
#913 = ORIENTED_EDGE('',*,*,#508,.T.);
#914 = ORIENTED_EDGE('',*,*,#908,.T.);
#915 = CYLINDRICAL_SURFACE('',#916,1.4);
#916 = AXIS2_PLACEMENT_3D('',#917,#918,#919);
#917 = CARTESIAN_POINT('',(49.6,17.,7.));
#918 = DIRECTION('',(0.,0.,1.));
#919 = DIRECTION('',(1.,0.,-0.));
#920 = ADVANCED_FACE('',(#921,#924),#935,.T.);
#921 = FACE_BOUND('',#922,.T.);
#922 = EDGE_LOOP('',(#923));
#923 = ORIENTED_EDGE('',*,*,#609,.T.);
#924 = FACE_BOUND('',#925,.T.);
#925 = EDGE_LOOP('',(#926));
#926 = ORIENTED_EDGE('',*,*,#927,.F.);
#927 = EDGE_CURVE('',#928,#928,#930,.T.);
#928 = VERTEX_POINT('',#929);
#929 = CARTESIAN_POINT('',(53.7,-24.,13.));
#930 = CIRCLE('',#931,1.6);
#931 = AXIS2_PLACEMENT_3D('',#932,#933,#934);
#932 = CARTESIAN_POINT('',(52.1,-24.,13.));
#933 = DIRECTION('',(0.,0.,1.));
#934 = DIRECTION('',(1.,0.,-0.));
#935 = PLANE('',#936);
#936 = AXIS2_PLACEMENT_3D('',#937,#938,#939);
#937 = CARTESIAN_POINT('',(52.1,-24.,13.));
#938 = DIRECTION('',(0.,0.,1.));
#939 = DIRECTION('',(1.,0.,-0.));
#940 = ADVANCED_FACE('',(#941),#945,.F.);
#941 = FACE_BOUND('',#942,.F.);
#942 = EDGE_LOOP('',(#943,#944));
#943 = ORIENTED_EDGE('',*,*,#590,.T.);
#944 = ORIENTED_EDGE('',*,*,#624,.T.);
#945 = PLANE('',#946);
#946 = AXIS2_PLACEMENT_3D('',#947,#948,#949);
#947 = CARTESIAN_POINT('',(49.6,-20.,11.01));
#948 = DIRECTION('',(0.,0.,1.));
#949 = DIRECTION('',(1.,0.,-0.));
#950 = ADVANCED_FACE('',(#951,#954),#965,.T.);
#951 = FACE_BOUND('',#952,.T.);
#952 = EDGE_LOOP('',(#953));
#953 = ORIENTED_EDGE('',*,*,#667,.T.);
#954 = FACE_BOUND('',#955,.T.);
#955 = EDGE_LOOP('',(#956));
#956 = ORIENTED_EDGE('',*,*,#957,.F.);
#957 = EDGE_CURVE('',#958,#958,#960,.T.);
#958 = VERTEX_POINT('',#959);
#959 = CARTESIAN_POINT('',(75.2,-24.,13.));
#960 = CIRCLE('',#961,1.6);
#961 = AXIS2_PLACEMENT_3D('',#962,#963,#964);
#962 = CARTESIAN_POINT('',(73.6,-24.,13.));
#963 = DIRECTION('',(0.,0.,1.));
#964 = DIRECTION('',(1.,0.,-0.));
#965 = PLANE('',#966);
#966 = AXIS2_PLACEMENT_3D('',#967,#968,#969);
#967 = CARTESIAN_POINT('',(73.6,-24.,13.));
#968 = DIRECTION('',(0.,0.,1.));
#969 = DIRECTION('',(1.,0.,-0.));
#970 = ADVANCED_FACE('',(#971),#991,.F.);
#971 = FACE_BOUND('',#972,.F.);
#972 = EDGE_LOOP('',(#973,#982,#983,#984));
#973 = ORIENTED_EDGE('',*,*,#974,.F.);
#974 = EDGE_CURVE('',#685,#975,#977,.T.);
#975 = VERTEX_POINT('',#976);
#976 = CARTESIAN_POINT('',(50.991524968813,17.153812422031,11.01));
#977 = CIRCLE('',#978,1.6);
#978 = AXIS2_PLACEMENT_3D('',#979,#980,#981);
#979 = CARTESIAN_POINT('',(52.1,16.,11.01));
#980 = DIRECTION('',(0.,0.,1.));
#981 = DIRECTION('',(1.,0.,-0.));
#982 = ORIENTED_EDGE('',*,*,#684,.T.);
#983 = ORIENTED_EDGE('',*,*,#850,.T.);
#984 = ORIENTED_EDGE('',*,*,#985,.F.);
#985 = EDGE_CURVE('',#975,#814,#986,.T.);
#986 = CIRCLE('',#987,1.4);
#987 = AXIS2_PLACEMENT_3D('',#988,#989,#990);
#988 = CARTESIAN_POINT('',(49.6,17.,11.01));
#989 = DIRECTION('',(0.,0.,1.));
#990 = DIRECTION('',(1.,0.,-0.));
#991 = PLANE('',#992);
#992 = AXIS2_PLACEMENT_3D('',#993,#994,#995);
#993 = CARTESIAN_POINT('',(49.6,17.,11.01));
#994 = DIRECTION('',(0.,0.,1.));
#995 = DIRECTION('',(1.,0.,-0.));
#996 = ADVANCED_FACE('',(#997),#1017,.F.);
#997 = FACE_BOUND('',#998,.F.);
#998 = EDGE_LOOP('',(#999,#1000,#1009,#1016));
#999 = ORIENTED_EDGE('',*,*,#779,.T.);
#1000 = ORIENTED_EDGE('',*,*,#1001,.F.);
#1001 = EDGE_CURVE('',#1002,#755,#1004,.T.);
#1002 = VERTEX_POINT('',#1003);
#1003 = CARTESIAN_POINT('',(50.501578479463,15.928946198658,11.01));
#1004 = CIRCLE('',#1005,1.6);
#1005 = AXIS2_PLACEMENT_3D('',#1006,#1007,#1008);
#1006 = CARTESIAN_POINT('',(52.1,16.,11.01));
#1007 = DIRECTION('',(0.,0.,1.));
#1008 = DIRECTION('',(1.,0.,-0.));
#1009 = ORIENTED_EDGE('',*,*,#1010,.F.);
#1010 = EDGE_CURVE('',#833,#1002,#1011,.T.);
#1011 = CIRCLE('',#1012,1.4);
#1012 = AXIS2_PLACEMENT_3D('',#1013,#1014,#1015);
#1013 = CARTESIAN_POINT('',(49.6,17.,11.01));
#1014 = DIRECTION('',(0.,0.,1.));
#1015 = DIRECTION('',(1.,0.,-0.));
#1016 = ORIENTED_EDGE('',*,*,#840,.T.);
#1017 = PLANE('',#1018);
#1018 = AXIS2_PLACEMENT_3D('',#1019,#1020,#1021);
#1019 = CARTESIAN_POINT('',(49.6,17.,11.01));
#1020 = DIRECTION('',(0.,0.,1.));
#1021 = DIRECTION('',(1.,0.,-0.));
#1022 = ADVANCED_FACE('',(#1023),#1093,.F.);
#1023 = FACE_BOUND('',#1024,.F.);
#1024 = EDGE_LOOP('',(#1025,#1036,#1044,#1051,#1052,#1053,#1061,#1070,
    #1076,#1077,#1078,#1087));
#1025 = ORIENTED_EDGE('',*,*,#1026,.F.);
#1026 = EDGE_CURVE('',#1027,#1029,#1031,.T.);
#1027 = VERTEX_POINT('',#1028);
#1028 = CARTESIAN_POINT('',(53.090590245206,17.256475613015,10.));
#1029 = VERTEX_POINT('',#1030);
#1030 = CARTESIAN_POINT('',(51.950789065139,14.406972662847,10.));
#1031 = CIRCLE('',#1032,1.6);
#1032 = AXIS2_PLACEMENT_3D('',#1033,#1034,#1035);
#1033 = CARTESIAN_POINT('',(52.1,16.,10.));
#1034 = DIRECTION('',(0.,0.,-1.));
#1035 = DIRECTION('',(0.619118903254,0.785297258135,0.));
#1036 = ORIENTED_EDGE('',*,*,#1037,.T.);
#1037 = EDGE_CURVE('',#1027,#1038,#1040,.T.);
#1038 = VERTEX_POINT('',#1039);
#1039 = CARTESIAN_POINT('',(53.090590245206,17.256475613015,11.));
#1040 = LINE('',#1041,#1042);
#1041 = CARTESIAN_POINT('',(53.090590245206,17.256475613015,10.));
#1042 = VECTOR('',#1043,1.);
#1043 = DIRECTION('',(0.,0.,1.));
#1044 = ORIENTED_EDGE('',*,*,#1045,.T.);
#1045 = EDGE_CURVE('',#1038,#696,#1046,.T.);
#1046 = CIRCLE('',#1047,1.6);
#1047 = AXIS2_PLACEMENT_3D('',#1048,#1049,#1050);
#1048 = CARTESIAN_POINT('',(52.1,16.,11.));
#1049 = DIRECTION('',(0.,0.,1.));
#1050 = DIRECTION('',(1.,0.,-0.));
#1051 = ORIENTED_EDGE('',*,*,#695,.F.);
#1052 = ORIENTED_EDGE('',*,*,#974,.T.);
#1053 = ORIENTED_EDGE('',*,*,#1054,.T.);
#1054 = EDGE_CURVE('',#975,#1055,#1057,.T.);
#1055 = VERTEX_POINT('',#1056);
#1056 = CARTESIAN_POINT('',(50.991524968813,17.153812422031,13.));
#1057 = LINE('',#1058,#1059);
#1058 = CARTESIAN_POINT('',(50.991524968813,17.153812422031,10.));
#1059 = VECTOR('',#1060,1.);
#1060 = DIRECTION('',(0.,0.,1.));
#1061 = ORIENTED_EDGE('',*,*,#1062,.T.);
#1062 = EDGE_CURVE('',#1055,#1063,#1065,.T.);
#1063 = VERTEX_POINT('',#1064);
#1064 = CARTESIAN_POINT('',(50.501578479463,15.928946198658,13.));
#1065 = CIRCLE('',#1066,1.6);
#1066 = AXIS2_PLACEMENT_3D('',#1067,#1068,#1069);
#1067 = CARTESIAN_POINT('',(52.1,16.,13.));
#1068 = DIRECTION('',(0.,0.,-1.));
#1069 = DIRECTION('',(-0.692796894492,0.72113276377,0.));
#1070 = ORIENTED_EDGE('',*,*,#1071,.F.);
#1071 = EDGE_CURVE('',#1002,#1063,#1072,.T.);
#1072 = LINE('',#1073,#1074);
#1073 = CARTESIAN_POINT('',(50.501578479463,15.928946198658,10.));
#1074 = VECTOR('',#1075,1.);
#1075 = DIRECTION('',(0.,0.,1.));
#1076 = ORIENTED_EDGE('',*,*,#1001,.T.);
#1077 = ORIENTED_EDGE('',*,*,#754,.F.);
#1078 = ORIENTED_EDGE('',*,*,#1079,.T.);
#1079 = EDGE_CURVE('',#746,#1080,#1082,.T.);
#1080 = VERTEX_POINT('',#1081);
#1081 = CARTESIAN_POINT('',(51.950789065139,14.406972662847,11.));
#1082 = CIRCLE('',#1083,1.6);
#1083 = AXIS2_PLACEMENT_3D('',#1084,#1085,#1086);
#1084 = CARTESIAN_POINT('',(52.1,16.,11.));
#1085 = DIRECTION('',(0.,0.,1.));
#1086 = DIRECTION('',(1.,0.,-0.));
#1087 = ORIENTED_EDGE('',*,*,#1088,.F.);
#1088 = EDGE_CURVE('',#1029,#1080,#1089,.T.);
#1089 = LINE('',#1090,#1091);
#1090 = CARTESIAN_POINT('',(51.950789065139,14.406972662847,10.));
#1091 = VECTOR('',#1092,1.);
#1092 = DIRECTION('',(0.,0.,1.));
#1093 = CYLINDRICAL_SURFACE('',#1094,1.6);
#1094 = AXIS2_PLACEMENT_3D('',#1095,#1096,#1097);
#1095 = CARTESIAN_POINT('',(52.1,16.,10.));
#1096 = DIRECTION('',(0.,0.,1.));
#1097 = DIRECTION('',(1.,0.,-0.));
#1098 = ADVANCED_FACE('',(#1099),#1112,.T.);
#1099 = FACE_BOUND('',#1100,.T.);
#1100 = EDGE_LOOP('',(#1101,#1108,#1109,#1110,#1111));
#1101 = ORIENTED_EDGE('',*,*,#1102,.F.);
#1102 = EDGE_CURVE('',#1038,#1080,#1103,.T.);
#1103 = CIRCLE('',#1104,3.5);
#1104 = AXIS2_PLACEMENT_3D('',#1105,#1106,#1107);
#1105 = CARTESIAN_POINT('',(49.6,17.,11.));
#1106 = DIRECTION('',(0.,0.,-1.));
#1107 = DIRECTION('',(0.99731149863,7.327874657576E-02,0.));
#1108 = ORIENTED_EDGE('',*,*,#1045,.T.);
#1109 = ORIENTED_EDGE('',*,*,#720,.F.);
#1110 = ORIENTED_EDGE('',*,*,#745,.F.);
#1111 = ORIENTED_EDGE('',*,*,#1079,.T.);
#1112 = PLANE('',#1113);
#1113 = AXIS2_PLACEMENT_3D('',#1114,#1115,#1116);
#1114 = CARTESIAN_POINT('',(49.6,17.,11.));
#1115 = DIRECTION('',(0.,0.,1.));
#1116 = DIRECTION('',(1.,0.,-0.));
#1117 = ADVANCED_FACE('',(#1118),#1130,.F.);
#1118 = FACE_BOUND('',#1119,.F.);
#1119 = EDGE_LOOP('',(#1120,#1127,#1128,#1129));
#1120 = ORIENTED_EDGE('',*,*,#1121,.F.);
#1121 = EDGE_CURVE('',#1055,#816,#1122,.T.);
#1122 = CIRCLE('',#1123,1.4);
#1123 = AXIS2_PLACEMENT_3D('',#1124,#1125,#1126);
#1124 = CARTESIAN_POINT('',(49.6,17.,13.));
#1125 = DIRECTION('',(0.,0.,1.));
#1126 = DIRECTION('',(1.,0.,-0.));
#1127 = ORIENTED_EDGE('',*,*,#1054,.F.);
#1128 = ORIENTED_EDGE('',*,*,#985,.T.);
#1129 = ORIENTED_EDGE('',*,*,#813,.T.);
#1130 = CYLINDRICAL_SURFACE('',#1131,1.4);
#1131 = AXIS2_PLACEMENT_3D('',#1132,#1133,#1134);
#1132 = CARTESIAN_POINT('',(49.6,17.,7.));
#1133 = DIRECTION('',(0.,0.,1.));
#1134 = DIRECTION('',(1.,0.,-0.));
#1135 = ADVANCED_FACE('',(#1136),#1148,.F.);
#1136 = FACE_BOUND('',#1137,.F.);
#1137 = EDGE_LOOP('',(#1138,#1139,#1140,#1141));
#1138 = ORIENTED_EDGE('',*,*,#832,.F.);
#1139 = ORIENTED_EDGE('',*,*,#1010,.T.);
#1140 = ORIENTED_EDGE('',*,*,#1071,.T.);
#1141 = ORIENTED_EDGE('',*,*,#1142,.F.);
#1142 = EDGE_CURVE('',#824,#1063,#1143,.T.);
#1143 = CIRCLE('',#1144,1.4);
#1144 = AXIS2_PLACEMENT_3D('',#1145,#1146,#1147);
#1145 = CARTESIAN_POINT('',(49.6,17.,13.));
#1146 = DIRECTION('',(0.,0.,1.));
#1147 = DIRECTION('',(1.,0.,-0.));
#1148 = CYLINDRICAL_SURFACE('',#1149,1.4);
#1149 = AXIS2_PLACEMENT_3D('',#1150,#1151,#1152);
#1150 = CARTESIAN_POINT('',(49.6,17.,7.));
#1151 = DIRECTION('',(0.,0.,1.));
#1152 = DIRECTION('',(1.,0.,-0.));
#1153 = ADVANCED_FACE('',(#1154),#1160,.T.);
#1154 = FACE_BOUND('',#1155,.T.);
#1155 = EDGE_LOOP('',(#1156,#1157,#1158,#1159));
#1156 = ORIENTED_EDGE('',*,*,#1142,.F.);
#1157 = ORIENTED_EDGE('',*,*,#823,.F.);
#1158 = ORIENTED_EDGE('',*,*,#1121,.F.);
#1159 = ORIENTED_EDGE('',*,*,#1062,.T.);
#1160 = PLANE('',#1161);
#1161 = AXIS2_PLACEMENT_3D('',#1162,#1163,#1164);
#1162 = CARTESIAN_POINT('',(52.1,16.,13.));
#1163 = DIRECTION('',(0.,0.,1.));
#1164 = DIRECTION('',(1.,0.,-0.));
#1165 = ADVANCED_FACE('',(#1166,#1169),#1180,.T.);
#1166 = FACE_BOUND('',#1167,.T.);
#1167 = EDGE_LOOP('',(#1168));
#1168 = ORIENTED_EDGE('',*,*,#873,.T.);
#1169 = FACE_BOUND('',#1170,.T.);
#1170 = EDGE_LOOP('',(#1171));
#1171 = ORIENTED_EDGE('',*,*,#1172,.F.);
#1172 = EDGE_CURVE('',#1173,#1173,#1175,.T.);
#1173 = VERTEX_POINT('',#1174);
#1174 = CARTESIAN_POINT('',(75.2,16.,13.));
#1175 = CIRCLE('',#1176,1.6);
#1176 = AXIS2_PLACEMENT_3D('',#1177,#1178,#1179);
#1177 = CARTESIAN_POINT('',(73.6,16.,13.));
#1178 = DIRECTION('',(0.,0.,1.));
#1179 = DIRECTION('',(1.,0.,-0.));
#1180 = PLANE('',#1181);
#1181 = AXIS2_PLACEMENT_3D('',#1182,#1183,#1184);
#1182 = CARTESIAN_POINT('',(73.6,16.,13.));
#1183 = DIRECTION('',(0.,0.,1.));
#1184 = DIRECTION('',(1.,0.,-0.));
#1185 = ADVANCED_FACE('',(#1186),#1239,.F.);
#1186 = FACE_BOUND('',#1187,.F.);
#1187 = EDGE_LOOP('',(#1188,#1196,#1197,#1198,#1207,#1215,#1224,#1232));
#1188 = ORIENTED_EDGE('',*,*,#1189,.T.);
#1189 = EDGE_CURVE('',#1190,#928,#1192,.T.);
#1190 = VERTEX_POINT('',#1191);
#1191 = CARTESIAN_POINT('',(53.7,-24.,10.));
#1192 = LINE('',#1193,#1194);
#1193 = CARTESIAN_POINT('',(53.7,-24.,10.));
#1194 = VECTOR('',#1195,1.);
#1195 = DIRECTION('',(0.,0.,1.));
#1196 = ORIENTED_EDGE('',*,*,#927,.F.);
#1197 = ORIENTED_EDGE('',*,*,#1189,.F.);
#1198 = ORIENTED_EDGE('',*,*,#1199,.T.);
#1199 = EDGE_CURVE('',#1190,#1200,#1202,.T.);
#1200 = VERTEX_POINT('',#1201);
#1201 = CARTESIAN_POINT('',(52.146899960507,-22.40068752468,10.));
#1202 = CIRCLE('',#1203,1.6);
#1203 = AXIS2_PLACEMENT_3D('',#1204,#1205,#1206);
#1204 = CARTESIAN_POINT('',(52.1,-24.,10.));
#1205 = DIRECTION('',(0.,0.,1.));
#1206 = DIRECTION('',(1.,0.,-0.));
#1207 = ORIENTED_EDGE('',*,*,#1208,.T.);
#1208 = EDGE_CURVE('',#1200,#1209,#1211,.T.);
#1209 = VERTEX_POINT('',#1210);
#1210 = CARTESIAN_POINT('',(52.146899960507,-22.40068752468,11.));
#1211 = LINE('',#1212,#1213);
#1212 = CARTESIAN_POINT('',(52.146899960507,-22.40068752468,10.));
#1213 = VECTOR('',#1214,1.);
#1214 = DIRECTION('',(0.,0.,1.));
#1215 = ORIENTED_EDGE('',*,*,#1216,.T.);
#1216 = EDGE_CURVE('',#1209,#1217,#1219,.T.);
#1217 = VERTEX_POINT('',#1218);
#1218 = CARTESIAN_POINT('',(50.641864084437,-23.34133494722,11.));
#1219 = CIRCLE('',#1220,1.6);
#1220 = AXIS2_PLACEMENT_3D('',#1221,#1222,#1223);
#1221 = CARTESIAN_POINT('',(52.1,-24.,11.));
#1222 = DIRECTION('',(0.,0.,1.));
#1223 = DIRECTION('',(1.,0.,-0.));
#1224 = ORIENTED_EDGE('',*,*,#1225,.F.);
#1225 = EDGE_CURVE('',#1226,#1217,#1228,.T.);
#1226 = VERTEX_POINT('',#1227);
#1227 = CARTESIAN_POINT('',(50.641864084437,-23.34133494722,10.));
#1228 = LINE('',#1229,#1230);
#1229 = CARTESIAN_POINT('',(50.641864084437,-23.34133494722,10.));
#1230 = VECTOR('',#1231,1.);
#1231 = DIRECTION('',(0.,0.,1.));
#1232 = ORIENTED_EDGE('',*,*,#1233,.T.);
#1233 = EDGE_CURVE('',#1226,#1190,#1234,.T.);
#1234 = CIRCLE('',#1235,1.6);
#1235 = AXIS2_PLACEMENT_3D('',#1236,#1237,#1238);
#1236 = CARTESIAN_POINT('',(52.1,-24.,10.));
#1237 = DIRECTION('',(0.,0.,1.));
#1238 = DIRECTION('',(1.,0.,-0.));
#1239 = CYLINDRICAL_SURFACE('',#1240,1.6);
#1240 = AXIS2_PLACEMENT_3D('',#1241,#1242,#1243);
#1241 = CARTESIAN_POINT('',(52.1,-24.,10.));
#1242 = DIRECTION('',(0.,0.,1.));
#1243 = DIRECTION('',(1.,0.,-0.));
#1244 = ADVANCED_FACE('',(#1245),#1264,.F.);
#1245 = FACE_BOUND('',#1246,.F.);
#1246 = EDGE_LOOP('',(#1247,#1248,#1256,#1263));
#1247 = ORIENTED_EDGE('',*,*,#957,.F.);
#1248 = ORIENTED_EDGE('',*,*,#1249,.F.);
#1249 = EDGE_CURVE('',#1250,#958,#1252,.T.);
#1250 = VERTEX_POINT('',#1251);
#1251 = CARTESIAN_POINT('',(75.2,-24.,10.));
#1252 = LINE('',#1253,#1254);
#1253 = CARTESIAN_POINT('',(75.2,-24.,10.));
#1254 = VECTOR('',#1255,1.);
#1255 = DIRECTION('',(0.,0.,1.));
#1256 = ORIENTED_EDGE('',*,*,#1257,.T.);
#1257 = EDGE_CURVE('',#1250,#1250,#1258,.T.);
#1258 = CIRCLE('',#1259,1.6);
#1259 = AXIS2_PLACEMENT_3D('',#1260,#1261,#1262);
#1260 = CARTESIAN_POINT('',(73.6,-24.,10.));
#1261 = DIRECTION('',(0.,0.,1.));
#1262 = DIRECTION('',(1.,0.,-0.));
#1263 = ORIENTED_EDGE('',*,*,#1249,.T.);
#1264 = CYLINDRICAL_SURFACE('',#1265,1.6);
#1265 = AXIS2_PLACEMENT_3D('',#1266,#1267,#1268);
#1266 = CARTESIAN_POINT('',(73.6,-24.,10.));
#1267 = DIRECTION('',(0.,0.,1.));
#1268 = DIRECTION('',(1.,0.,-0.));
#1269 = ADVANCED_FACE('',(#1270),#1280,.T.);
#1270 = FACE_BOUND('',#1271,.T.);
#1271 = EDGE_LOOP('',(#1272,#1273));
#1272 = ORIENTED_EDGE('',*,*,#1026,.F.);
#1273 = ORIENTED_EDGE('',*,*,#1274,.T.);
#1274 = EDGE_CURVE('',#1027,#1029,#1275,.T.);
#1275 = CIRCLE('',#1276,3.5);
#1276 = AXIS2_PLACEMENT_3D('',#1277,#1278,#1279);
#1277 = CARTESIAN_POINT('',(49.6,17.,10.));
#1278 = DIRECTION('',(0.,0.,-1.));
#1279 = DIRECTION('',(0.99731149863,7.327874657583E-02,0.));
#1280 = PLANE('',#1281);
#1281 = AXIS2_PLACEMENT_3D('',#1282,#1283,#1284);
#1282 = CARTESIAN_POINT('',(52.1,16.,10.));
#1283 = DIRECTION('',(0.,0.,1.));
#1284 = DIRECTION('',(1.,0.,-0.));
#1285 = ADVANCED_FACE('',(#1286),#1292,.T.);
#1286 = FACE_BOUND('',#1287,.T.);
#1287 = EDGE_LOOP('',(#1288,#1289,#1290,#1291));
#1288 = ORIENTED_EDGE('',*,*,#1274,.F.);
#1289 = ORIENTED_EDGE('',*,*,#1037,.T.);
#1290 = ORIENTED_EDGE('',*,*,#1102,.T.);
#1291 = ORIENTED_EDGE('',*,*,#1088,.F.);
#1292 = CYLINDRICAL_SURFACE('',#1293,3.5);
#1293 = AXIS2_PLACEMENT_3D('',#1294,#1295,#1296);
#1294 = CARTESIAN_POINT('',(49.6,17.,8.));
#1295 = DIRECTION('',(0.,0.,1.));
#1296 = DIRECTION('',(1.,0.,-0.));
#1297 = ADVANCED_FACE('',(#1298),#1317,.F.);
#1298 = FACE_BOUND('',#1299,.F.);
#1299 = EDGE_LOOP('',(#1300,#1301,#1309,#1316));
#1300 = ORIENTED_EDGE('',*,*,#1172,.F.);
#1301 = ORIENTED_EDGE('',*,*,#1302,.F.);
#1302 = EDGE_CURVE('',#1303,#1173,#1305,.T.);
#1303 = VERTEX_POINT('',#1304);
#1304 = CARTESIAN_POINT('',(75.2,16.,10.));
#1305 = LINE('',#1306,#1307);
#1306 = CARTESIAN_POINT('',(75.2,16.,10.));
#1307 = VECTOR('',#1308,1.);
#1308 = DIRECTION('',(0.,0.,1.));
#1309 = ORIENTED_EDGE('',*,*,#1310,.T.);
#1310 = EDGE_CURVE('',#1303,#1303,#1311,.T.);
#1311 = CIRCLE('',#1312,1.6);
#1312 = AXIS2_PLACEMENT_3D('',#1313,#1314,#1315);
#1313 = CARTESIAN_POINT('',(73.6,16.,10.));
#1314 = DIRECTION('',(0.,0.,1.));
#1315 = DIRECTION('',(1.,0.,-0.));
#1316 = ORIENTED_EDGE('',*,*,#1302,.T.);
#1317 = CYLINDRICAL_SURFACE('',#1318,1.6);
#1318 = AXIS2_PLACEMENT_3D('',#1319,#1320,#1321);
#1319 = CARTESIAN_POINT('',(73.6,16.,10.));
#1320 = DIRECTION('',(0.,0.,1.));
#1321 = DIRECTION('',(1.,0.,-0.));
#1322 = ADVANCED_FACE('',(#1323),#1334,.T.);
#1323 = FACE_BOUND('',#1324,.T.);
#1324 = EDGE_LOOP('',(#1325,#1326,#1327));
#1325 = ORIENTED_EDGE('',*,*,#1233,.T.);
#1326 = ORIENTED_EDGE('',*,*,#1199,.T.);
#1327 = ORIENTED_EDGE('',*,*,#1328,.F.);
#1328 = EDGE_CURVE('',#1226,#1200,#1329,.T.);
#1329 = CIRCLE('',#1330,3.5);
#1330 = AXIS2_PLACEMENT_3D('',#1331,#1332,#1333);
#1331 = CARTESIAN_POINT('',(49.6,-20.,10.));
#1332 = DIRECTION('',(0.,0.,1.));
#1333 = DIRECTION('',(1.,0.,-0.));
#1334 = PLANE('',#1335);
#1335 = AXIS2_PLACEMENT_3D('',#1336,#1337,#1338);
#1336 = CARTESIAN_POINT('',(52.1,-24.,10.));
#1337 = DIRECTION('',(0.,0.,1.));
#1338 = DIRECTION('',(1.,0.,-0.));
#1339 = ADVANCED_FACE('',(#1340),#1352,.T.);
#1340 = FACE_BOUND('',#1341,.T.);
#1341 = EDGE_LOOP('',(#1342,#1349,#1350,#1351));
#1342 = ORIENTED_EDGE('',*,*,#1343,.F.);
#1343 = EDGE_CURVE('',#1217,#1209,#1344,.T.);
#1344 = CIRCLE('',#1345,3.5);
#1345 = AXIS2_PLACEMENT_3D('',#1346,#1347,#1348);
#1346 = CARTESIAN_POINT('',(49.6,-20.,11.));
#1347 = DIRECTION('',(0.,0.,1.));
#1348 = DIRECTION('',(1.,0.,-0.));
#1349 = ORIENTED_EDGE('',*,*,#1225,.F.);
#1350 = ORIENTED_EDGE('',*,*,#1328,.T.);
#1351 = ORIENTED_EDGE('',*,*,#1208,.T.);
#1352 = CYLINDRICAL_SURFACE('',#1353,3.5);
#1353 = AXIS2_PLACEMENT_3D('',#1354,#1355,#1356);
#1354 = CARTESIAN_POINT('',(49.6,-20.,8.));
#1355 = DIRECTION('',(0.,0.,1.));
#1356 = DIRECTION('',(1.,0.,-0.));
#1357 = ADVANCED_FACE('',(#1358),#1362,.T.);
#1358 = FACE_BOUND('',#1359,.T.);
#1359 = EDGE_LOOP('',(#1360,#1361));
#1360 = ORIENTED_EDGE('',*,*,#1216,.T.);
#1361 = ORIENTED_EDGE('',*,*,#1343,.T.);
#1362 = PLANE('',#1363);
#1363 = AXIS2_PLACEMENT_3D('',#1364,#1365,#1366);
#1364 = CARTESIAN_POINT('',(49.6,-20.,11.));
#1365 = DIRECTION('',(0.,0.,1.));
#1366 = DIRECTION('',(1.,0.,-0.));
#1367 = ADVANCED_FACE('',(#1368),#1371,.T.);
#1368 = FACE_BOUND('',#1369,.F.);
#1369 = EDGE_LOOP('',(#1370));
#1370 = ORIENTED_EDGE('',*,*,#1257,.F.);
#1371 = PLANE('',#1372);
#1372 = AXIS2_PLACEMENT_3D('',#1373,#1374,#1375);
#1373 = CARTESIAN_POINT('',(73.6,-24.,10.));
#1374 = DIRECTION('',(0.,0.,1.));
#1375 = DIRECTION('',(1.,0.,-0.));
#1376 = ADVANCED_FACE('',(#1377),#1380,.T.);
#1377 = FACE_BOUND('',#1378,.F.);
#1378 = EDGE_LOOP('',(#1379));
#1379 = ORIENTED_EDGE('',*,*,#1310,.F.);
#1380 = PLANE('',#1381);
#1381 = AXIS2_PLACEMENT_3D('',#1382,#1383,#1384);
#1382 = CARTESIAN_POINT('',(73.6,16.,10.));
#1383 = DIRECTION('',(0.,0.,1.));
#1384 = DIRECTION('',(1.,0.,-0.));
#1385 = ( GEOMETRIC_REPRESENTATION_CONTEXT(3) 
GLOBAL_UNCERTAINTY_ASSIGNED_CONTEXT((#1389)) 
GLOBAL_UNIT_ASSIGNED_CONTEXT((#1386,#1387,#1388)) REPRESENTATION_CONTEXT
('Context #1','3D Context with UNIT and UNCERTAINTY') );
#1386 = ( LENGTH_UNIT() NAMED_UNIT(*) SI_UNIT(.MILLI.,.METRE.) );
#1387 = ( NAMED_UNIT(*) PLANE_ANGLE_UNIT() SI_UNIT($,.RADIAN.) );
#1388 = ( NAMED_UNIT(*) SI_UNIT($,.STERADIAN.) SOLID_ANGLE_UNIT() );
#1389 = UNCERTAINTY_MEASURE_WITH_UNIT(LENGTH_MEASURE(1.E-07),#1386,
  'distance_accuracy_value','confusion accuracy');
#1390 = CONTEXT_DEPENDENT_SHAPE_REPRESENTATION(#1391,#1393);
#1391 = ( REPRESENTATION_RELATIONSHIP('','',#32,#10) 
REPRESENTATION_RELATIONSHIP_WITH_TRANSFORMATION(#1392) 
SHAPE_REPRESENTATION_RELATIONSHIP() );
#1392 = ITEM_DEFINED_TRANSFORMATION('','',#11,#15);
#1393 = PRODUCT_DEFINITION_SHAPE('Placement','Placement of an item',
  #1394);
#1394 = NEXT_ASSEMBLY_USAGE_OCCURRENCE('10','=>[0:1:1:2]','',#5,#27,$);
#1395 = PRODUCT_RELATED_PRODUCT_CATEGORY('part',$,(#29));
ENDSEC;
END-ISO-10303-21;
