ISO-10303-21;
HEADER;
FILE_DESCRIPTION(('Open CASCADE Model'),'2;1');
FILE_NAME('Open CASCADE Shape Model','2026-09-08T15:12:01',('Author'),(
    'Open CASCADE'),'Open CASCADE STEP processor 7.9','build123d',
  'Unknown');
FILE_SCHEMA(('AUTOMOTIVE_DESIGN { 1 0 10303 214 1 1 1 1 }'));
ENDSEC;
DATA;
#1 = APPLICATION_PROTOCOL_DEFINITION('international standard',
  'automotive_design',2000,#2);
#2 = APPLICATION_CONTEXT(
  'core data for automotive mechanical design processes');
#3 = SHAPE_DEFINITION_REPRESENTATION(#4,#10);
#4 = PRODUCT_DEFINITION_SHAPE('','',#5);
#5 = PRODUCT_DEFINITION('design','',#6,#9);
#6 = PRODUCT_DEFINITION_FORMATION('','',#7);
#7 = PRODUCT('=>[0:1:1:2]','=>[0:1:1:2]','',(#8));
#8 = PRODUCT_CONTEXT('',#2,'mechanical');
#9 = PRODUCT_DEFINITION_CONTEXT('part definition',#2,'design');
#10 = SHAPE_REPRESENTATION('',(#11,#15),#19);
#11 = AXIS2_PLACEMENT_3D('',#12,#13,#14);
#12 = CARTESIAN_POINT('',(0.,0.,0.));
#13 = DIRECTION('',(0.,0.,1.));
#14 = DIRECTION('',(1.,0.,-0.));
#15 = AXIS2_PLACEMENT_3D('',#16,#17,#18);
#16 = CARTESIAN_POINT('',(0.,0.,-8.));
#17 = DIRECTION('',(0.,0.,1.));
#18 = DIRECTION('',(1.,0.,-0.));
#19 = ( GEOMETRIC_REPRESENTATION_CONTEXT(3) 
GLOBAL_UNCERTAINTY_ASSIGNED_CONTEXT((#23)) GLOBAL_UNIT_ASSIGNED_CONTEXT(
(#20,#21,#22)) REPRESENTATION_CONTEXT('Context #1',
  '3D Context with UNIT and UNCERTAINTY') );
#20 = ( LENGTH_UNIT() NAMED_UNIT(*) SI_UNIT(.MILLI.,.METRE.) );
#21 = ( NAMED_UNIT(*) PLANE_ANGLE_UNIT() SI_UNIT($,.RADIAN.) );
#22 = ( NAMED_UNIT(*) SI_UNIT($,.STERADIAN.) SOLID_ANGLE_UNIT() );
#23 = UNCERTAINTY_MEASURE_WITH_UNIT(LENGTH_MEASURE(2.E-07),#20,
  'distance_accuracy_value','confusion accuracy');
#24 = PRODUCT_RELATED_PRODUCT_CATEGORY('part',$,(#7));
#25 = SHAPE_DEFINITION_REPRESENTATION(#26,#32);
#26 = PRODUCT_DEFINITION_SHAPE('','',#27);
#27 = PRODUCT_DEFINITION('design','',#28,#31);
#28 = PRODUCT_DEFINITION_FORMATION('','',#29);
#29 = PRODUCT('COMPOUND','COMPOUND','',(#30));
#30 = PRODUCT_CONTEXT('',#2,'mechanical');
#31 = PRODUCT_DEFINITION_CONTEXT('part definition',#2,'design');
#32 = ADVANCED_BREP_SHAPE_REPRESENTATION('',(#11,#33),#494);
#33 = MANIFOLD_SOLID_BREP('',#34);
#34 = CLOSED_SHELL('',(#35,#68,#145,#176,#216,#249,#274,#291,#317,#341,
    #381,#414,#439,#456,#475));
#35 = ADVANCED_FACE('',(#36),#63,.T.);
#36 = FACE_BOUND('',#37,.T.);
#37 = EDGE_LOOP('',(#38,#47,#55,#62));
#38 = ORIENTED_EDGE('',*,*,#39,.F.);
#39 = EDGE_CURVE('',#40,#40,#42,.T.);
#40 = VERTEX_POINT('',#41);
#41 = CARTESIAN_POINT('',(90.504,-2.216708678201E-14,8.4));
#42 = CIRCLE('',#43,90.504);
#43 = AXIS2_PLACEMENT_3D('',#44,#45,#46);
#44 = CARTESIAN_POINT('',(0.,0.,8.4));
#45 = DIRECTION('',(0.,0.,1.));
#46 = DIRECTION('',(1.,0.,-0.));
#47 = ORIENTED_EDGE('',*,*,#48,.F.);
#48 = EDGE_CURVE('',#49,#40,#51,.T.);
#49 = VERTEX_POINT('',#50);
#50 = CARTESIAN_POINT('',(90.504,-2.216708678201E-14,8.));
#51 = LINE('',#52,#53);
#52 = CARTESIAN_POINT('',(90.504,-2.216708678201E-14,8.));
#53 = VECTOR('',#54,1.);
#54 = DIRECTION('',(0.,0.,1.));
#55 = ORIENTED_EDGE('',*,*,#56,.T.);
#56 = EDGE_CURVE('',#49,#49,#57,.T.);
#57 = CIRCLE('',#58,90.504);
#58 = AXIS2_PLACEMENT_3D('',#59,#60,#61);
#59 = CARTESIAN_POINT('',(0.,0.,8.));
#60 = DIRECTION('',(0.,0.,1.));
#61 = DIRECTION('',(1.,0.,-0.));
#62 = ORIENTED_EDGE('',*,*,#48,.T.);
#63 = CYLINDRICAL_SURFACE('',#64,90.504);
#64 = AXIS2_PLACEMENT_3D('',#65,#66,#67);
#65 = CARTESIAN_POINT('',(0.,0.,8.));
#66 = DIRECTION('',(0.,0.,1.));
#67 = DIRECTION('',(1.,0.,-0.));
#68 = ADVANCED_FACE('',(#69,#72),#140,.F.);
#69 = FACE_BOUND('',#70,.F.);
#70 = EDGE_LOOP('',(#71));
#71 = ORIENTED_EDGE('',*,*,#56,.T.);
#72 = FACE_BOUND('',#73,.F.);
#73 = EDGE_LOOP('',(#74,#84,#93,#101,#109,#117,#126,#134));
#74 = ORIENTED_EDGE('',*,*,#75,.T.);
#75 = EDGE_CURVE('',#76,#78,#80,.T.);
#76 = VERTEX_POINT('',#77);
#77 = CARTESIAN_POINT('',(-88.34095425233,-13.85066849601,8.));
#78 = VERTEX_POINT('',#79);
#79 = CARTESIAN_POINT('',(-85.4685595279,-13.34418780685,8.));
#80 = LINE('',#81,#82);
#81 = CARTESIAN_POINT('',(-42.34846257116,-5.740951302613,8.));
#82 = VECTOR('',#83,1.);
#83 = DIRECTION('',(0.984807753012,0.173648177667,-0.));
#84 = ORIENTED_EDGE('',*,*,#85,.F.);
#85 = EDGE_CURVE('',#86,#78,#88,.T.);
#86 = VERTEX_POINT('',#87);
#87 = CARTESIAN_POINT('',(72.098876634767,-47.79847282084,8.));
#88 = CIRCLE('',#89,86.504);
#89 = AXIS2_PLACEMENT_3D('',#90,#91,#92);
#90 = CARTESIAN_POINT('',(0.,0.,8.));
#91 = DIRECTION('',(0.,0.,1.));
#92 = DIRECTION('',(0.833474482507,-0.552557949006,0.));
#93 = ORIENTED_EDGE('',*,*,#94,.F.);
#94 = EDGE_CURVE('',#95,#86,#97,.T.);
#95 = VERTEX_POINT('',#96);
#96 = CARTESIAN_POINT('',(74.497337527585,-49.47789321809,8.));
#97 = LINE('',#98,#99);
#98 = CARTESIAN_POINT('',(36.241298755201,-22.69072648762,8.));
#99 = VECTOR('',#100,1.);
#100 = DIRECTION('',(-0.819152044289,0.573576436351,0.));
#101 = ORIENTED_EDGE('',*,*,#102,.F.);
#102 = EDGE_CURVE('',#103,#95,#105,.T.);
#103 = VERTEX_POINT('',#104);
#104 = CARTESIAN_POINT('',(71.973601207641,-53.08216221296,8.));
#105 = LINE('',#106,#107);
#106 = CARTESIAN_POINT('',(72.604535287627,-52.18109496424,8.));
#107 = VECTOR('',#108,1.);
#108 = DIRECTION('',(0.573576436351,0.819152044289,-0.));
#109 = ORIENTED_EDGE('',*,*,#110,.T.);
#110 = EDGE_CURVE('',#103,#111,#113,.T.);
#111 = VERTEX_POINT('',#112);
#112 = CARTESIAN_POINT('',(69.575140314822,-51.40274181571,8.));
#113 = LINE('',#114,#115);
#114 = CARTESIAN_POINT('',(33.717562435256,-26.29499548249,8.));
#115 = VECTOR('',#116,1.);
#116 = DIRECTION('',(-0.819152044289,0.573576436351,0.));
#117 = ORIENTED_EDGE('',*,*,#118,.F.);
#118 = EDGE_CURVE('',#119,#111,#121,.T.);
#119 = VERTEX_POINT('',#120);
#120 = CARTESIAN_POINT('',(-84.87815572384,-16.69253416709,8.));
#121 = CIRCLE('',#122,86.504);
#122 = AXIS2_PLACEMENT_3D('',#123,#124,#125);
#123 = CARTESIAN_POINT('',(0.,0.,8.));
#124 = DIRECTION('',(0.,0.,1.));
#125 = DIRECTION('',(1.,0.,-0.));
#126 = ORIENTED_EDGE('',*,*,#127,.F.);
#127 = EDGE_CURVE('',#128,#119,#130,.T.);
#128 = VERTEX_POINT('',#129);
#129 = CARTESIAN_POINT('',(-87.75055044827,-17.19901485625,8.));
#130 = LINE('',#131,#132);
#131 = CARTESIAN_POINT('',(-41.75805876709,-9.089297662854,8.));
#132 = VECTOR('',#133,1.);
#133 = DIRECTION('',(0.984807753012,0.173648177667,-0.));
#134 = ORIENTED_EDGE('',*,*,#135,.F.);
#135 = EDGE_CURVE('',#76,#128,#136,.T.);
#136 = LINE('',#137,#138);
#137 = CARTESIAN_POINT('',(-88.19335330132,-14.68775508607,8.));
#138 = VECTOR('',#139,1.);
#139 = DIRECTION('',(0.173648177667,-0.984807753012,0.));
#140 = PLANE('',#141);
#141 = AXIS2_PLACEMENT_3D('',#142,#143,#144);
#142 = CARTESIAN_POINT('',(0.,0.,8.));
#143 = DIRECTION('',(0.,0.,1.));
#144 = DIRECTION('',(1.,0.,-0.));
#145 = ADVANCED_FACE('',(#146),#171,.F.);
#146 = FACE_BOUND('',#147,.F.);
#147 = EDGE_LOOP('',(#148,#156,#157,#165));
#148 = ORIENTED_EDGE('',*,*,#149,.F.);
#149 = EDGE_CURVE('',#76,#150,#152,.T.);
#150 = VERTEX_POINT('',#151);
#151 = CARTESIAN_POINT('',(-88.34095425233,-13.85066849601,8.4));
#152 = LINE('',#153,#154);
#153 = CARTESIAN_POINT('',(-88.34095425233,-13.85066849601,7.));
#154 = VECTOR('',#155,1.);
#155 = DIRECTION('',(0.,0.,1.));
#156 = ORIENTED_EDGE('',*,*,#135,.T.);
#157 = ORIENTED_EDGE('',*,*,#158,.T.);
#158 = EDGE_CURVE('',#128,#159,#161,.T.);
#159 = VERTEX_POINT('',#160);
#160 = CARTESIAN_POINT('',(-87.75055044827,-17.19901485625,8.4));
#161 = LINE('',#162,#163);
#162 = CARTESIAN_POINT('',(-87.75055044827,-17.19901485625,7.));
#163 = VECTOR('',#164,1.);
#164 = DIRECTION('',(0.,0.,1.));
#165 = ORIENTED_EDGE('',*,*,#166,.F.);
#166 = EDGE_CURVE('',#150,#159,#167,.T.);
#167 = LINE('',#168,#169);
#168 = CARTESIAN_POINT('',(-88.19335330132,-14.68775508607,8.4));
#169 = VECTOR('',#170,1.);
#170 = DIRECTION('',(0.173648177667,-0.984807753012,0.));
#171 = PLANE('',#172);
#172 = AXIS2_PLACEMENT_3D('',#173,#174,#175);
#173 = CARTESIAN_POINT('',(-88.34095425233,-13.85066849601,7.));
#174 = DIRECTION('',(-0.984807753012,-0.173648177667,0.));
#175 = DIRECTION('',(0.,0.,1.));
#176 = ADVANCED_FACE('',(#177),#211,.F.);
#177 = FACE_BOUND('',#178,.F.);
#178 = EDGE_LOOP('',(#179,#180,#181,#189,#197,#205));
#179 = ORIENTED_EDGE('',*,*,#158,.F.);
#180 = ORIENTED_EDGE('',*,*,#127,.T.);
#181 = ORIENTED_EDGE('',*,*,#182,.T.);
#182 = EDGE_CURVE('',#119,#183,#185,.T.);
#183 = VERTEX_POINT('',#184);
#184 = CARTESIAN_POINT('',(-84.87815572384,-16.69253416709,11.4));
#185 = LINE('',#186,#187);
#186 = CARTESIAN_POINT('',(-84.87815572384,-16.69253416709,7.99));
#187 = VECTOR('',#188,1.);
#188 = DIRECTION('',(0.,0.,1.));
#189 = ORIENTED_EDGE('',*,*,#190,.F.);
#190 = EDGE_CURVE('',#191,#183,#193,.T.);
#191 = VERTEX_POINT('',#192);
#192 = CARTESIAN_POINT('',(-85.46915372556,-16.79674306034,11.4));
#193 = LINE('',#194,#195);
#194 = CARTESIAN_POINT('',(-41.75805876709,-9.089297662854,11.4));
#195 = VECTOR('',#196,1.);
#196 = DIRECTION('',(0.984807753012,0.173648177667,-0.));
#197 = ORIENTED_EDGE('',*,*,#198,.F.);
#198 = EDGE_CURVE('',#199,#191,#201,.T.);
#199 = VERTEX_POINT('',#200);
#200 = CARTESIAN_POINT('',(-85.46915372556,-16.79674306034,8.4));
#201 = LINE('',#202,#203);
#202 = CARTESIAN_POINT('',(-85.46915372556,-16.79674306034,8.39));
#203 = VECTOR('',#204,1.);
#204 = DIRECTION('',(0.,0.,1.));
#205 = ORIENTED_EDGE('',*,*,#206,.F.);
#206 = EDGE_CURVE('',#159,#199,#207,.T.);
#207 = LINE('',#208,#209);
#208 = CARTESIAN_POINT('',(-41.75805876709,-9.089297662854,8.4));
#209 = VECTOR('',#210,1.);
#210 = DIRECTION('',(0.984807753012,0.173648177667,-0.));
#211 = PLANE('',#212);
#212 = AXIS2_PLACEMENT_3D('',#213,#214,#215);
#213 = CARTESIAN_POINT('',(-83.81131943622,-16.50442214558,7.));
#214 = DIRECTION('',(0.173648177667,-0.984807753012,0.));
#215 = DIRECTION('',(0.,0.,1.));
#216 = ADVANCED_FACE('',(#217),#244,.T.);
#217 = FACE_BOUND('',#218,.T.);
#218 = EDGE_LOOP('',(#219,#220,#229,#237));
#219 = ORIENTED_EDGE('',*,*,#190,.F.);
#220 = ORIENTED_EDGE('',*,*,#221,.T.);
#221 = EDGE_CURVE('',#191,#222,#224,.T.);
#222 = VERTEX_POINT('',#223);
#223 = CARTESIAN_POINT('',(70.066789471942,-51.74699826168,11.4));
#224 = CIRCLE('',#225,87.104);
#225 = AXIS2_PLACEMENT_3D('',#226,#227,#228);
#226 = CARTESIAN_POINT('',(0.,0.,11.4));
#227 = DIRECTION('',(0.,0.,1.));
#228 = DIRECTION('',(1.,0.,-0.));
#229 = ORIENTED_EDGE('',*,*,#230,.T.);
#230 = EDGE_CURVE('',#222,#231,#233,.T.);
#231 = VERTEX_POINT('',#232);
#232 = CARTESIAN_POINT('',(69.575140314822,-51.40274181571,11.4));
#233 = LINE('',#234,#235);
#234 = CARTESIAN_POINT('',(33.717562435256,-26.29499548249,11.4));
#235 = VECTOR('',#236,1.);
#236 = DIRECTION('',(-0.819152044289,0.573576436351,0.));
#237 = ORIENTED_EDGE('',*,*,#238,.F.);
#238 = EDGE_CURVE('',#183,#231,#239,.T.);
#239 = CIRCLE('',#240,86.504);
#240 = AXIS2_PLACEMENT_3D('',#241,#242,#243);
#241 = CARTESIAN_POINT('',(0.,0.,11.4));
#242 = DIRECTION('',(0.,0.,1.));
#243 = DIRECTION('',(1.,0.,-0.));
#244 = PLANE('',#245);
#245 = AXIS2_PLACEMENT_3D('',#246,#247,#248);
#246 = CARTESIAN_POINT('',(0.,0.,11.4));
#247 = DIRECTION('',(0.,0.,1.));
#248 = DIRECTION('',(1.,0.,-0.));
#249 = ADVANCED_FACE('',(#250),#269,.T.);
#250 = FACE_BOUND('',#251,.T.);
#251 = EDGE_LOOP('',(#252,#253,#254,#263));
#252 = ORIENTED_EDGE('',*,*,#221,.F.);
#253 = ORIENTED_EDGE('',*,*,#198,.F.);
#254 = ORIENTED_EDGE('',*,*,#255,.T.);
#255 = EDGE_CURVE('',#199,#256,#258,.T.);
#256 = VERTEX_POINT('',#257);
#257 = CARTESIAN_POINT('',(70.066789471942,-51.74699826168,8.4));
#258 = CIRCLE('',#259,87.104);
#259 = AXIS2_PLACEMENT_3D('',#260,#261,#262);
#260 = CARTESIAN_POINT('',(0.,0.,8.4));
#261 = DIRECTION('',(0.,0.,1.));
#262 = DIRECTION('',(1.,0.,-0.));
#263 = ORIENTED_EDGE('',*,*,#264,.T.);
#264 = EDGE_CURVE('',#256,#222,#265,.T.);
#265 = LINE('',#266,#267);
#266 = CARTESIAN_POINT('',(70.066789471942,-51.74699826168,8.39));
#267 = VECTOR('',#268,1.);
#268 = DIRECTION('',(0.,0.,1.));
#269 = CYLINDRICAL_SURFACE('',#270,87.104);
#270 = AXIS2_PLACEMENT_3D('',#271,#272,#273);
#271 = CARTESIAN_POINT('',(0.,0.,8.39));
#272 = DIRECTION('',(0.,0.,1.));
#273 = DIRECTION('',(1.,0.,-0.));
#274 = ADVANCED_FACE('',(#275),#286,.F.);
#275 = FACE_BOUND('',#276,.F.);
#276 = EDGE_LOOP('',(#277,#278,#279,#280));
#277 = ORIENTED_EDGE('',*,*,#238,.F.);
#278 = ORIENTED_EDGE('',*,*,#182,.F.);
#279 = ORIENTED_EDGE('',*,*,#118,.T.);
#280 = ORIENTED_EDGE('',*,*,#281,.T.);
#281 = EDGE_CURVE('',#111,#231,#282,.T.);
#282 = LINE('',#283,#284);
#283 = CARTESIAN_POINT('',(69.575140314822,-51.40274181571,7.99));
#284 = VECTOR('',#285,1.);
#285 = DIRECTION('',(0.,0.,1.));
#286 = CYLINDRICAL_SURFACE('',#287,86.504);
#287 = AXIS2_PLACEMENT_3D('',#288,#289,#290);
#288 = CARTESIAN_POINT('',(0.,0.,7.99));
#289 = DIRECTION('',(0.,0.,1.));
#290 = DIRECTION('',(1.,0.,-0.));
#291 = ADVANCED_FACE('',(#292),#312,.T.);
#292 = FACE_BOUND('',#293,.T.);
#293 = EDGE_LOOP('',(#294,#302,#303,#304,#305,#306));
#294 = ORIENTED_EDGE('',*,*,#295,.F.);
#295 = EDGE_CURVE('',#103,#296,#298,.T.);
#296 = VERTEX_POINT('',#297);
#297 = CARTESIAN_POINT('',(71.973601207641,-53.08216221296,8.4));
#298 = LINE('',#299,#300);
#299 = CARTESIAN_POINT('',(71.973601207641,-53.08216221296,7.));
#300 = VECTOR('',#301,1.);
#301 = DIRECTION('',(0.,0.,1.));
#302 = ORIENTED_EDGE('',*,*,#110,.T.);
#303 = ORIENTED_EDGE('',*,*,#281,.T.);
#304 = ORIENTED_EDGE('',*,*,#230,.F.);
#305 = ORIENTED_EDGE('',*,*,#264,.F.);
#306 = ORIENTED_EDGE('',*,*,#307,.F.);
#307 = EDGE_CURVE('',#296,#256,#308,.T.);
#308 = LINE('',#309,#310);
#309 = CARTESIAN_POINT('',(33.717562435256,-26.29499548249,8.4));
#310 = VECTOR('',#311,1.);
#311 = DIRECTION('',(-0.819152044289,0.573576436351,0.));
#312 = PLANE('',#313);
#313 = AXIS2_PLACEMENT_3D('',#314,#315,#316);
#314 = CARTESIAN_POINT('',(68.696993030485,-50.78785646756,7.));
#315 = DIRECTION('',(0.573576436351,0.819152044289,0.));
#316 = DIRECTION('',(0.,0.,1.));
#317 = ADVANCED_FACE('',(#318),#336,.F.);
#318 = FACE_BOUND('',#319,.F.);
#319 = EDGE_LOOP('',(#320,#321,#322,#330));
#320 = ORIENTED_EDGE('',*,*,#295,.F.);
#321 = ORIENTED_EDGE('',*,*,#102,.T.);
#322 = ORIENTED_EDGE('',*,*,#323,.T.);
#323 = EDGE_CURVE('',#95,#324,#326,.T.);
#324 = VERTEX_POINT('',#325);
#325 = CARTESIAN_POINT('',(74.497337527585,-49.47789321809,8.4));
#326 = LINE('',#327,#328);
#327 = CARTESIAN_POINT('',(74.497337527585,-49.47789321809,7.));
#328 = VECTOR('',#329,1.);
#329 = DIRECTION('',(0.,0.,1.));
#330 = ORIENTED_EDGE('',*,*,#331,.F.);
#331 = EDGE_CURVE('',#296,#324,#332,.T.);
#332 = LINE('',#333,#334);
#333 = CARTESIAN_POINT('',(72.604535287627,-52.18109496424,8.4));
#334 = VECTOR('',#335,1.);
#335 = DIRECTION('',(0.573576436351,0.819152044289,-0.));
#336 = PLANE('',#337);
#337 = AXIS2_PLACEMENT_3D('',#338,#339,#340);
#338 = CARTESIAN_POINT('',(71.973601207641,-53.08216221296,7.));
#339 = DIRECTION('',(0.819152044289,-0.573576436351,0.));
#340 = DIRECTION('',(0.,0.,1.));
#341 = ADVANCED_FACE('',(#342),#376,.F.);
#342 = FACE_BOUND('',#343,.F.);
#343 = EDGE_LOOP('',(#344,#345,#346,#354,#362,#370));
#344 = ORIENTED_EDGE('',*,*,#323,.F.);
#345 = ORIENTED_EDGE('',*,*,#94,.T.);
#346 = ORIENTED_EDGE('',*,*,#347,.T.);
#347 = EDGE_CURVE('',#86,#348,#350,.T.);
#348 = VERTEX_POINT('',#349);
#349 = CARTESIAN_POINT('',(72.098876634767,-47.79847282084,11.4));
#350 = LINE('',#351,#352);
#351 = CARTESIAN_POINT('',(72.098876634767,-47.79847282084,7.99));
#352 = VECTOR('',#353,1.);
#353 = DIRECTION('',(0.,0.,1.));
#354 = ORIENTED_EDGE('',*,*,#355,.F.);
#355 = EDGE_CURVE('',#356,#348,#358,.T.);
#356 = VERTEX_POINT('',#357);
#357 = CARTESIAN_POINT('',(72.590525791887,-48.14272926681,11.4));
#358 = LINE('',#359,#360);
#359 = CARTESIAN_POINT('',(36.241298755201,-22.69072648762,11.4));
#360 = VECTOR('',#361,1.);
#361 = DIRECTION('',(-0.819152044289,0.573576436351,0.));
#362 = ORIENTED_EDGE('',*,*,#363,.F.);
#363 = EDGE_CURVE('',#364,#356,#366,.T.);
#364 = VERTEX_POINT('',#365);
#365 = CARTESIAN_POINT('',(72.590525791887,-48.14272926681,8.4));
#366 = LINE('',#367,#368);
#367 = CARTESIAN_POINT('',(72.590525791887,-48.14272926681,8.39));
#368 = VECTOR('',#369,1.);
#369 = DIRECTION('',(0.,0.,1.));
#370 = ORIENTED_EDGE('',*,*,#371,.F.);
#371 = EDGE_CURVE('',#324,#364,#372,.T.);
#372 = LINE('',#373,#374);
#373 = CARTESIAN_POINT('',(36.241298755201,-22.69072648762,8.4));
#374 = VECTOR('',#375,1.);
#375 = DIRECTION('',(-0.819152044289,0.573576436351,0.));
#376 = PLANE('',#377);
#377 = AXIS2_PLACEMENT_3D('',#378,#379,#380);
#378 = CARTESIAN_POINT('',(71.220729350429,-47.18358747268,7.));
#379 = DIRECTION('',(0.573576436351,0.819152044289,0.));
#380 = DIRECTION('',(0.,0.,1.));
#381 = ADVANCED_FACE('',(#382),#409,.T.);
#382 = FACE_BOUND('',#383,.T.);
#383 = EDGE_LOOP('',(#384,#385,#394,#402));
#384 = ORIENTED_EDGE('',*,*,#355,.F.);
#385 = ORIENTED_EDGE('',*,*,#386,.F.);
#386 = EDGE_CURVE('',#387,#356,#389,.T.);
#387 = VERTEX_POINT('',#388);
#388 = CARTESIAN_POINT('',(-86.05955752963,-13.4483967001,11.4));
#389 = CIRCLE('',#390,87.104);
#390 = AXIS2_PLACEMENT_3D('',#391,#392,#393);
#391 = CARTESIAN_POINT('',(0.,0.,11.4));
#392 = DIRECTION('',(-0.,0.,-1.));
#393 = DIRECTION('',(-0.988009247906,-0.154394708625,0.));
#394 = ORIENTED_EDGE('',*,*,#395,.T.);
#395 = EDGE_CURVE('',#387,#396,#398,.T.);
#396 = VERTEX_POINT('',#397);
#397 = CARTESIAN_POINT('',(-85.4685595279,-13.34418780685,11.4));
#398 = LINE('',#399,#400);
#399 = CARTESIAN_POINT('',(-42.34846257116,-5.740951302613,11.4));
#400 = VECTOR('',#401,1.);
#401 = DIRECTION('',(0.984807753012,0.173648177667,-0.));
#402 = ORIENTED_EDGE('',*,*,#403,.F.);
#403 = EDGE_CURVE('',#348,#396,#404,.T.);
#404 = CIRCLE('',#405,86.504);
#405 = AXIS2_PLACEMENT_3D('',#406,#407,#408);
#406 = CARTESIAN_POINT('',(0.,0.,11.4));
#407 = DIRECTION('',(0.,0.,1.));
#408 = DIRECTION('',(0.833474482507,-0.552557949006,0.));
#409 = PLANE('',#410);
#410 = AXIS2_PLACEMENT_3D('',#411,#412,#413);
#411 = CARTESIAN_POINT('',(0.,0.,11.4));
#412 = DIRECTION('',(0.,0.,1.));
#413 = DIRECTION('',(1.,0.,-0.));
#414 = ADVANCED_FACE('',(#415),#434,.T.);
#415 = FACE_BOUND('',#416,.T.);
#416 = EDGE_LOOP('',(#417,#418,#419,#428));
#417 = ORIENTED_EDGE('',*,*,#386,.T.);
#418 = ORIENTED_EDGE('',*,*,#363,.F.);
#419 = ORIENTED_EDGE('',*,*,#420,.F.);
#420 = EDGE_CURVE('',#421,#364,#423,.T.);
#421 = VERTEX_POINT('',#422);
#422 = CARTESIAN_POINT('',(-86.05955752963,-13.4483967001,8.4));
#423 = CIRCLE('',#424,87.104);
#424 = AXIS2_PLACEMENT_3D('',#425,#426,#427);
#425 = CARTESIAN_POINT('',(0.,0.,8.4));
#426 = DIRECTION('',(-0.,0.,-1.));
#427 = DIRECTION('',(-0.988009247906,-0.154394708625,0.));
#428 = ORIENTED_EDGE('',*,*,#429,.T.);
#429 = EDGE_CURVE('',#421,#387,#430,.T.);
#430 = LINE('',#431,#432);
#431 = CARTESIAN_POINT('',(-86.05955752963,-13.4483967001,8.39));
#432 = VECTOR('',#433,1.);
#433 = DIRECTION('',(0.,0.,1.));
#434 = CYLINDRICAL_SURFACE('',#435,87.104);
#435 = AXIS2_PLACEMENT_3D('',#436,#437,#438);
#436 = CARTESIAN_POINT('',(0.,0.,8.39));
#437 = DIRECTION('',(0.,0.,1.));
#438 = DIRECTION('',(1.,0.,-0.));
#439 = ADVANCED_FACE('',(#440),#451,.F.);
#440 = FACE_BOUND('',#441,.F.);
#441 = EDGE_LOOP('',(#442,#443,#444,#445));
#442 = ORIENTED_EDGE('',*,*,#403,.F.);
#443 = ORIENTED_EDGE('',*,*,#347,.F.);
#444 = ORIENTED_EDGE('',*,*,#85,.T.);
#445 = ORIENTED_EDGE('',*,*,#446,.T.);
#446 = EDGE_CURVE('',#78,#396,#447,.T.);
#447 = LINE('',#448,#449);
#448 = CARTESIAN_POINT('',(-85.4685595279,-13.34418780685,7.99));
#449 = VECTOR('',#450,1.);
#450 = DIRECTION('',(0.,0.,1.));
#451 = CYLINDRICAL_SURFACE('',#452,86.504);
#452 = AXIS2_PLACEMENT_3D('',#453,#454,#455);
#453 = CARTESIAN_POINT('',(0.,0.,7.99));
#454 = DIRECTION('',(0.,0.,1.));
#455 = DIRECTION('',(1.,0.,-0.));
#456 = ADVANCED_FACE('',(#457),#470,.T.);
#457 = FACE_BOUND('',#458,.T.);
#458 = EDGE_LOOP('',(#459,#460,#461,#462,#463,#464));
#459 = ORIENTED_EDGE('',*,*,#149,.F.);
#460 = ORIENTED_EDGE('',*,*,#75,.T.);
#461 = ORIENTED_EDGE('',*,*,#446,.T.);
#462 = ORIENTED_EDGE('',*,*,#395,.F.);
#463 = ORIENTED_EDGE('',*,*,#429,.F.);
#464 = ORIENTED_EDGE('',*,*,#465,.F.);
#465 = EDGE_CURVE('',#150,#421,#466,.T.);
#466 = LINE('',#467,#468);
#467 = CARTESIAN_POINT('',(-42.34846257116,-5.740951302613,8.4));
#468 = VECTOR('',#469,1.);
#469 = DIRECTION('',(0.984807753012,0.173648177667,-0.));
#470 = PLANE('',#471);
#471 = AXIS2_PLACEMENT_3D('',#472,#473,#474);
#472 = CARTESIAN_POINT('',(-84.40172324028,-13.15607578534,7.));
#473 = DIRECTION('',(0.173648177667,-0.984807753012,0.));
#474 = DIRECTION('',(0.,0.,1.));
#475 = ADVANCED_FACE('',(#476,#479),#489,.T.);
#476 = FACE_BOUND('',#477,.T.);
#477 = EDGE_LOOP('',(#478));
#478 = ORIENTED_EDGE('',*,*,#39,.T.);
#479 = FACE_BOUND('',#480,.T.);
#480 = EDGE_LOOP('',(#481,#482,#483,#484,#485,#486,#487,#488));
#481 = ORIENTED_EDGE('',*,*,#420,.T.);
#482 = ORIENTED_EDGE('',*,*,#371,.F.);
#483 = ORIENTED_EDGE('',*,*,#331,.F.);
#484 = ORIENTED_EDGE('',*,*,#307,.T.);
#485 = ORIENTED_EDGE('',*,*,#255,.F.);
#486 = ORIENTED_EDGE('',*,*,#206,.F.);
#487 = ORIENTED_EDGE('',*,*,#166,.F.);
#488 = ORIENTED_EDGE('',*,*,#465,.T.);
#489 = PLANE('',#490);
#490 = AXIS2_PLACEMENT_3D('',#491,#492,#493);
#491 = CARTESIAN_POINT('',(0.,0.,8.4));
#492 = DIRECTION('',(0.,0.,1.));
#493 = DIRECTION('',(1.,0.,-0.));
#494 = ( GEOMETRIC_REPRESENTATION_CONTEXT(3) 
GLOBAL_UNCERTAINTY_ASSIGNED_CONTEXT((#498)) GLOBAL_UNIT_ASSIGNED_CONTEXT
((#495,#496,#497)) REPRESENTATION_CONTEXT('Context #1',
  '3D Context with UNIT and UNCERTAINTY') );
#495 = ( LENGTH_UNIT() NAMED_UNIT(*) SI_UNIT(.MILLI.,.METRE.) );
#496 = ( NAMED_UNIT(*) PLANE_ANGLE_UNIT() SI_UNIT($,.RADIAN.) );
#497 = ( NAMED_UNIT(*) SI_UNIT($,.STERADIAN.) SOLID_ANGLE_UNIT() );
#498 = UNCERTAINTY_MEASURE_WITH_UNIT(LENGTH_MEASURE(2.E-07),#495,
  'distance_accuracy_value','confusion accuracy');
#499 = CONTEXT_DEPENDENT_SHAPE_REPRESENTATION(#500,#502);
#500 = ( REPRESENTATION_RELATIONSHIP('','',#32,#10) 
REPRESENTATION_RELATIONSHIP_WITH_TRANSFORMATION(#501) 
SHAPE_REPRESENTATION_RELATIONSHIP() );
#501 = ITEM_DEFINED_TRANSFORMATION('','',#11,#15);
#502 = PRODUCT_DEFINITION_SHAPE('Placement','Placement of an item',#503
  );
#503 = NEXT_ASSEMBLY_USAGE_OCCURRENCE('3','=>[0:1:1:2]','',#5,#27,$);
#504 = PRODUCT_RELATED_PRODUCT_CATEGORY('part',$,(#29));
ENDSEC;
END-ISO-10303-21;
