ISO-10303-21;
HEADER;
FILE_DESCRIPTION(('Open CASCADE Model'),'2;1');
FILE_NAME('Open CASCADE Shape Model','2026-09-08T15:12:01',('Author'),(
    'Open CASCADE'),'Open CASCADE STEP processor 7.9','build123d',
  'Unknown');
FILE_SCHEMA(('AUTOMOTIVE_DESIGN { 1 0 10303 214 1 1 1 1 }'));
ENDSEC;
DATA;
#1 = APPLICATION_PROTOCOL_DEFINITION('international standard',
  'automotive_design',2000,#2);
#2 = APPLICATION_CONTEXT(
  'core data for automotive mechanical design processes');
#3 = SHAPE_DEFINITION_REPRESENTATION(#4,#10);
#4 = PRODUCT_DEFINITION_SHAPE('','',#5);
#5 = PRODUCT_DEFINITION('design','',#6,#9);
#6 = PRODUCT_DEFINITION_FORMATION('','',#7);
#7 = PRODUCT('=>[0:1:1:2]','=>[0:1:1:2]','',(#8));
#8 = PRODUCT_CONTEXT('',#2,'mechanical');
#9 = PRODUCT_DEFINITION_CONTEXT('part definition',#2,'design');
#10 = SHAPE_REPRESENTATION('',(#11,#15),#19);
#11 = AXIS2_PLACEMENT_3D('',#12,#13,#14);
#12 = CARTESIAN_POINT('',(0.,0.,0.));
#13 = DIRECTION('',(0.,0.,1.));
#14 = DIRECTION('',(1.,0.,-0.));
#15 = AXIS2_PLACEMENT_3D('',#16,#17,#18);
#16 = CARTESIAN_POINT('',(-54.97878395881,-57.32231121934,-8.3));
#17 = DIRECTION('',(0.,0.,1.));
#18 = DIRECTION('',(1.,0.,-0.));
#19 = ( GEOMETRIC_REPRESENTATION_CONTEXT(3) 
GLOBAL_UNCERTAINTY_ASSIGNED_CONTEXT((#23)) GLOBAL_UNIT_ASSIGNED_CONTEXT(
(#20,#21,#22)) REPRESENTATION_CONTEXT('Context #1',
  '3D Context with UNIT and UNCERTAINTY') );
#20 = ( LENGTH_UNIT() NAMED_UNIT(*) SI_UNIT(.MILLI.,.METRE.) );
#21 = ( NAMED_UNIT(*) PLANE_ANGLE_UNIT() SI_UNIT($,.RADIAN.) );
#22 = ( NAMED_UNIT(*) SI_UNIT($,.STERADIAN.) SOLID_ANGLE_UNIT() );
#23 = UNCERTAINTY_MEASURE_WITH_UNIT(LENGTH_MEASURE(1.E-07),#20,
  'distance_accuracy_value','confusion accuracy');
#24 = PRODUCT_RELATED_PRODUCT_CATEGORY('part',$,(#7));
#25 = SHAPE_DEFINITION_REPRESENTATION(#26,#32);
#26 = PRODUCT_DEFINITION_SHAPE('','',#27);
#27 = PRODUCT_DEFINITION('design','',#28,#31);
#28 = PRODUCT_DEFINITION_FORMATION('','',#29);
#29 = PRODUCT('COMPOUND','COMPOUND','',(#30));
#30 = PRODUCT_CONTEXT('',#2,'mechanical');
#31 = PRODUCT_DEFINITION_CONTEXT('part definition',#2,'design');
#32 = ADVANCED_BREP_SHAPE_REPRESENTATION('',(#11,#33),#523);
#33 = MANIFOLD_SOLID_BREP('',#34);
#34 = CLOSED_SHELL('',(#35,#75,#108,#139,#170,#203,#234,#265,#296,#327,
    #358,#389,#420,#457,#482,#499));
#35 = ADVANCED_FACE('',(#36),#70,.F.);
#36 = FACE_BOUND('',#37,.F.);
#37 = EDGE_LOOP('',(#38,#48,#56,#64));
#38 = ORIENTED_EDGE('',*,*,#39,.F.);
#39 = EDGE_CURVE('',#40,#42,#44,.T.);
#40 = VERTEX_POINT('',#41);
#41 = CARTESIAN_POINT('',(63.203541997759,41.833511864742,8.3));
#42 = VERTEX_POINT('',#43);
#43 = CARTESIAN_POINT('',(70.466687507964,46.64088300681,8.3));
#44 = LINE('',#45,#46);
#45 = CARTESIAN_POINT('',(0.,0.,8.3));
#46 = VECTOR('',#47,1.);
#47 = DIRECTION('',(0.833885822067,0.551936985312,0.));
#48 = ORIENTED_EDGE('',*,*,#49,.T.);
#49 = EDGE_CURVE('',#40,#50,#52,.T.);
#50 = VERTEX_POINT('',#51);
#51 = CARTESIAN_POINT('',(63.203541997759,41.833511864742,10.8));
#52 = LINE('',#53,#54);
#53 = CARTESIAN_POINT('',(63.203541997759,41.833511864742,7.3));
#54 = VECTOR('',#55,1.);
#55 = DIRECTION('',(0.,0.,1.));
#56 = ORIENTED_EDGE('',*,*,#57,.T.);
#57 = EDGE_CURVE('',#50,#58,#60,.T.);
#58 = VERTEX_POINT('',#59);
#59 = CARTESIAN_POINT('',(70.466687507964,46.64088300681,10.8));
#60 = LINE('',#61,#62);
#61 = CARTESIAN_POINT('',(0.,0.,10.8));
#62 = VECTOR('',#63,1.);
#63 = DIRECTION('',(0.833885822067,0.551936985312,0.));
#64 = ORIENTED_EDGE('',*,*,#65,.F.);
#65 = EDGE_CURVE('',#42,#58,#66,.T.);
#66 = LINE('',#67,#68);
#67 = CARTESIAN_POINT('',(70.466687507964,46.64088300681,8.3));
#68 = VECTOR('',#69,1.);
#69 = DIRECTION('',(0.,0.,1.));
#70 = PLANE('',#71);
#71 = AXIS2_PLACEMENT_3D('',#72,#73,#74);
#72 = CARTESIAN_POINT('',(0.,0.,8.3));
#73 = DIRECTION('',(-0.551936985312,0.833885822067,0.));
#74 = DIRECTION('',(0.833885822067,0.551936985312,0.));
#75 = ADVANCED_FACE('',(#76),#103,.F.);
#76 = FACE_BOUND('',#77,.F.);
#77 = EDGE_LOOP('',(#78,#79,#88,#96));
#78 = ORIENTED_EDGE('',*,*,#49,.F.);
#79 = ORIENTED_EDGE('',*,*,#80,.T.);
#80 = EDGE_CURVE('',#40,#81,#83,.T.);
#81 = VERTEX_POINT('',#82);
#82 = CARTESIAN_POINT('',(56.52418703828,50.495016740878,8.3));
#83 = CIRCLE('',#84,75.794);
#84 = AXIS2_PLACEMENT_3D('',#85,#86,#87);
#85 = CARTESIAN_POINT('',(0.,0.,8.3));
#86 = DIRECTION('',(0.,0.,1.));
#87 = DIRECTION('',(1.,0.,-0.));
#88 = ORIENTED_EDGE('',*,*,#89,.T.);
#89 = EDGE_CURVE('',#81,#90,#92,.T.);
#90 = VERTEX_POINT('',#91);
#91 = CARTESIAN_POINT('',(56.52418703828,50.495016740878,10.8));
#92 = LINE('',#93,#94);
#93 = CARTESIAN_POINT('',(56.52418703828,50.495016740878,7.3));
#94 = VECTOR('',#95,1.);
#95 = DIRECTION('',(0.,0.,1.));
#96 = ORIENTED_EDGE('',*,*,#97,.F.);
#97 = EDGE_CURVE('',#50,#90,#98,.T.);
#98 = CIRCLE('',#99,75.794);
#99 = AXIS2_PLACEMENT_3D('',#100,#101,#102);
#100 = CARTESIAN_POINT('',(0.,0.,10.8));
#101 = DIRECTION('',(0.,0.,1.));
#102 = DIRECTION('',(1.,0.,-0.));
#103 = CYLINDRICAL_SURFACE('',#104,75.794);
#104 = AXIS2_PLACEMENT_3D('',#105,#106,#107);
#105 = CARTESIAN_POINT('',(0.,0.,7.3));
#106 = DIRECTION('',(0.,0.,1.));
#107 = DIRECTION('',(1.,0.,-0.));
#108 = ADVANCED_FACE('',(#109),#134,.T.);
#109 = FACE_BOUND('',#110,.T.);
#110 = EDGE_LOOP('',(#111,#121,#127,#128));
#111 = ORIENTED_EDGE('',*,*,#112,.F.);
#112 = EDGE_CURVE('',#113,#115,#117,.T.);
#113 = VERTEX_POINT('',#114);
#114 = CARTESIAN_POINT('',(57.871044804551,52.158247566704,8.3));
#115 = VERTEX_POINT('',#116);
#116 = CARTESIAN_POINT('',(57.871044804551,52.158247566704,10.8));
#117 = LINE('',#118,#119);
#118 = CARTESIAN_POINT('',(57.871044804551,52.158247566704,7.));
#119 = VECTOR('',#120,1.);
#120 = DIRECTION('',(0.,0.,1.));
#121 = ORIENTED_EDGE('',*,*,#122,.T.);
#122 = EDGE_CURVE('',#113,#81,#123,.T.);
#123 = LINE('',#124,#125);
#124 = CARTESIAN_POINT('',(45.546214819625,36.93835006354,8.3));
#125 = VECTOR('',#126,1.);
#126 = DIRECTION('',(-0.62932039105,-0.777145961457,0.));
#127 = ORIENTED_EDGE('',*,*,#89,.T.);
#128 = ORIENTED_EDGE('',*,*,#129,.F.);
#129 = EDGE_CURVE('',#115,#90,#130,.T.);
#130 = LINE('',#131,#132);
#131 = CARTESIAN_POINT('',(45.546214819625,36.93835006354,10.8));
#132 = VECTOR('',#133,1.);
#133 = DIRECTION('',(-0.62932039105,-0.777145961457,0.));
#134 = PLANE('',#135);
#135 = AXIS2_PLACEMENT_3D('',#136,#137,#138);
#136 = CARTESIAN_POINT('',(50.883071182334,43.528818810686,7.));
#137 = DIRECTION('',(-0.777145961457,0.62932039105,0.));
#138 = DIRECTION('',(0.,0.,1.));
#139 = ADVANCED_FACE('',(#140),#165,.F.);
#140 = FACE_BOUND('',#141,.F.);
#141 = EDGE_LOOP('',(#142,#143,#151,#159));
#142 = ORIENTED_EDGE('',*,*,#112,.F.);
#143 = ORIENTED_EDGE('',*,*,#144,.T.);
#144 = EDGE_CURVE('',#113,#145,#147,.T.);
#145 = VERTEX_POINT('',#146);
#146 = CARTESIAN_POINT('',(41.76585882745,65.199970022597,8.3));
#147 = LINE('',#148,#149);
#148 = CARTESIAN_POINT('',(54.644984295415,54.770659857123,8.3));
#149 = VECTOR('',#150,1.);
#150 = DIRECTION('',(-0.777145961457,0.62932039105,0.));
#151 = ORIENTED_EDGE('',*,*,#152,.T.);
#152 = EDGE_CURVE('',#145,#153,#155,.T.);
#153 = VERTEX_POINT('',#154);
#154 = CARTESIAN_POINT('',(41.76585882745,65.199970022597,10.8));
#155 = LINE('',#156,#157);
#156 = CARTESIAN_POINT('',(41.76585882745,65.199970022597,7.));
#157 = VECTOR('',#158,1.);
#158 = DIRECTION('',(0.,0.,1.));
#159 = ORIENTED_EDGE('',*,*,#160,.F.);
#160 = EDGE_CURVE('',#115,#153,#161,.T.);
#161 = LINE('',#162,#163);
#162 = CARTESIAN_POINT('',(54.644984295415,54.770659857123,10.8));
#163 = VECTOR('',#164,1.);
#164 = DIRECTION('',(-0.777145961457,0.62932039105,0.));
#165 = PLANE('',#166);
#166 = AXIS2_PLACEMENT_3D('',#167,#168,#169);
#167 = CARTESIAN_POINT('',(57.871044804551,52.158247566704,7.));
#168 = DIRECTION('',(0.62932039105,0.777145961457,0.));
#169 = DIRECTION('',(0.,0.,1.));
#170 = ADVANCED_FACE('',(#171),#198,.F.);
#171 = FACE_BOUND('',#172,.F.);
#172 = EDGE_LOOP('',(#173,#182,#190,#197));
#173 = ORIENTED_EDGE('',*,*,#174,.T.);
#174 = EDGE_CURVE('',#145,#175,#177,.T.);
#175 = VERTEX_POINT('',#176);
#176 = CARTESIAN_POINT('',(40.297840048413,66.388748190292,8.3));
#177 = CIRCLE('',#178,1.1);
#178 = AXIS2_PLACEMENT_3D('',#179,#180,#181);
#179 = CARTESIAN_POINT('',(41.386694536613,66.232556309817,8.3));
#180 = DIRECTION('',(-0.,0.,1.));
#181 = DIRECTION('',(0.344694809852,-0.938714806563,0.));
#182 = ORIENTED_EDGE('',*,*,#183,.T.);
#183 = EDGE_CURVE('',#175,#184,#186,.T.);
#184 = VERTEX_POINT('',#185);
#185 = CARTESIAN_POINT('',(40.297840048413,66.388748190292,10.8));
#186 = LINE('',#187,#188);
#187 = CARTESIAN_POINT('',(40.297840048413,66.388748190292,7.));
#188 = VECTOR('',#189,1.);
#189 = DIRECTION('',(0.,0.,1.));
#190 = ORIENTED_EDGE('',*,*,#191,.T.);
#191 = EDGE_CURVE('',#184,#153,#192,.T.);
#192 = CIRCLE('',#193,1.1);
#193 = AXIS2_PLACEMENT_3D('',#194,#195,#196);
#194 = CARTESIAN_POINT('',(41.386694536613,66.232556309817,10.8));
#195 = DIRECTION('',(0.,0.,-1.));
#196 = DIRECTION('',(-0.989867716546,0.141992618614,0.));
#197 = ORIENTED_EDGE('',*,*,#152,.F.);
#198 = CYLINDRICAL_SURFACE('',#199,1.1);
#199 = AXIS2_PLACEMENT_3D('',#200,#201,#202);
#200 = CARTESIAN_POINT('',(41.386694536613,66.232556309817,7.));
#201 = DIRECTION('',(0.,0.,1.));
#202 = DIRECTION('',(0.529919264233,0.848048096156,0.));
#203 = ADVANCED_FACE('',(#204),#229,.F.);
#204 = FACE_BOUND('',#205,.F.);
#205 = EDGE_LOOP('',(#206,#207,#215,#223));
#206 = ORIENTED_EDGE('',*,*,#183,.F.);
#207 = ORIENTED_EDGE('',*,*,#208,.T.);
#208 = EDGE_CURVE('',#175,#209,#211,.T.);
#209 = VERTEX_POINT('',#210);
#210 = CARTESIAN_POINT('',(39.490880409656,67.04221122119,8.3));
#211 = LINE('',#212,#213);
#212 = CARTESIAN_POINT('',(54.644984295415,54.770659857123,8.3));
#213 = VECTOR('',#214,1.);
#214 = DIRECTION('',(-0.777145961457,0.62932039105,0.));
#215 = ORIENTED_EDGE('',*,*,#216,.T.);
#216 = EDGE_CURVE('',#209,#217,#219,.T.);
#217 = VERTEX_POINT('',#218);
#218 = CARTESIAN_POINT('',(39.490880409656,67.04221122119,10.8));
#219 = LINE('',#220,#221);
#220 = CARTESIAN_POINT('',(39.490880409656,67.04221122119,7.65));
#221 = VECTOR('',#222,1.);
#222 = DIRECTION('',(-0.,0.,1.));
#223 = ORIENTED_EDGE('',*,*,#224,.F.);
#224 = EDGE_CURVE('',#184,#217,#225,.T.);
#225 = LINE('',#226,#227);
#226 = CARTESIAN_POINT('',(54.644984295415,54.770659857123,10.8));
#227 = VECTOR('',#228,1.);
#228 = DIRECTION('',(-0.777145961457,0.62932039105,0.));
#229 = PLANE('',#230);
#230 = AXIS2_PLACEMENT_3D('',#231,#232,#233);
#231 = CARTESIAN_POINT('',(57.871044804551,52.158247566704,7.));
#232 = DIRECTION('',(0.62932039105,0.777145961457,0.));
#233 = DIRECTION('',(0.,0.,1.));
#234 = ADVANCED_FACE('',(#235),#260,.F.);
#235 = FACE_BOUND('',#236,.F.);
#236 = EDGE_LOOP('',(#237,#245,#253,#259));
#237 = ORIENTED_EDGE('',*,*,#238,.F.);
#238 = EDGE_CURVE('',#239,#209,#241,.T.);
#239 = VERTEX_POINT('',#240);
#240 = CARTESIAN_POINT('',(42.889021823631,72.811110573951,8.3));
#241 = LINE('',#242,#243);
#242 = CARTESIAN_POINT('',(42.889021823631,72.811110573951,8.3));
#243 = VECTOR('',#244,1.);
#244 = DIRECTION('',(-0.507538362961,-0.861629160442,0.));
#245 = ORIENTED_EDGE('',*,*,#246,.T.);
#246 = EDGE_CURVE('',#239,#247,#249,.T.);
#247 = VERTEX_POINT('',#248);
#248 = CARTESIAN_POINT('',(42.889021823631,72.811110573951,10.8));
#249 = LINE('',#250,#251);
#250 = CARTESIAN_POINT('',(42.889021823631,72.811110573951,8.3));
#251 = VECTOR('',#252,1.);
#252 = DIRECTION('',(0.,0.,1.));
#253 = ORIENTED_EDGE('',*,*,#254,.T.);
#254 = EDGE_CURVE('',#247,#217,#255,.T.);
#255 = LINE('',#256,#257);
#256 = CARTESIAN_POINT('',(42.889021823631,72.811110573951,10.8));
#257 = VECTOR('',#258,1.);
#258 = DIRECTION('',(-0.507538362961,-0.861629160442,0.));
#259 = ORIENTED_EDGE('',*,*,#216,.F.);
#260 = PLANE('',#261);
#261 = AXIS2_PLACEMENT_3D('',#262,#263,#264);
#262 = CARTESIAN_POINT('',(42.889021823631,72.811110573951,8.3));
#263 = DIRECTION('',(0.861629160442,-0.507538362961,0.));
#264 = DIRECTION('',(-0.507538362961,-0.861629160442,0.));
#265 = ADVANCED_FACE('',(#266),#291,.F.);
#266 = FACE_BOUND('',#267,.F.);
#267 = EDGE_LOOP('',(#268,#278,#284,#285));
#268 = ORIENTED_EDGE('',*,*,#269,.T.);
#269 = EDGE_CURVE('',#270,#272,#274,.T.);
#270 = VERTEX_POINT('',#271);
#271 = CARTESIAN_POINT('',(48.267940853785,69.362323358834,8.3));
#272 = VERTEX_POINT('',#273);
#273 = CARTESIAN_POINT('',(48.267940853785,69.362323358834,10.8));
#274 = LINE('',#275,#276);
#275 = CARTESIAN_POINT('',(48.267940853785,69.362323358834,8.3));
#276 = VECTOR('',#277,1.);
#277 = DIRECTION('',(0.,0.,1.));
#278 = ORIENTED_EDGE('',*,*,#279,.T.);
#279 = EDGE_CURVE('',#272,#247,#280,.T.);
#280 = LINE('',#281,#282);
#281 = CARTESIAN_POINT('',(48.267940853785,69.362323358834,10.8));
#282 = VECTOR('',#283,1.);
#283 = DIRECTION('',(-0.841824938595,0.539750657952,0.));
#284 = ORIENTED_EDGE('',*,*,#246,.F.);
#285 = ORIENTED_EDGE('',*,*,#286,.F.);
#286 = EDGE_CURVE('',#270,#239,#287,.T.);
#287 = LINE('',#288,#289);
#288 = CARTESIAN_POINT('',(48.267940853785,69.362323358834,8.3));
#289 = VECTOR('',#290,1.);
#290 = DIRECTION('',(-0.841824938595,0.539750657952,0.));
#291 = PLANE('',#292);
#292 = AXIS2_PLACEMENT_3D('',#293,#294,#295);
#293 = CARTESIAN_POINT('',(48.267940853785,69.362323358834,8.3));
#294 = DIRECTION('',(-0.539750657952,-0.841824938595,0.));
#295 = DIRECTION('',(-0.841824938595,0.539750657952,0.));
#296 = ADVANCED_FACE('',(#297),#322,.F.);
#297 = FACE_BOUND('',#298,.F.);
#298 = EDGE_LOOP('',(#299,#309,#315,#316));
#299 = ORIENTED_EDGE('',*,*,#300,.T.);
#300 = EDGE_CURVE('',#301,#303,#305,.T.);
#301 = VERTEX_POINT('',#302);
#302 = CARTESIAN_POINT('',(53.370896998466,65.516970088513,8.3));
#303 = VERTEX_POINT('',#304);
#304 = CARTESIAN_POINT('',(53.370896998466,65.516970088513,10.8));
#305 = LINE('',#306,#307);
#306 = CARTESIAN_POINT('',(53.370896998466,65.516970088513,8.3));
#307 = VECTOR('',#308,1.);
#308 = DIRECTION('',(0.,0.,1.));
#309 = ORIENTED_EDGE('',*,*,#310,.T.);
#310 = EDGE_CURVE('',#303,#272,#311,.T.);
#311 = LINE('',#312,#313);
#312 = CARTESIAN_POINT('',(53.370896998466,65.516970088513,10.8));
#313 = VECTOR('',#314,1.);
#314 = DIRECTION('',(-0.798635510047,0.601815023152,0.));
#315 = ORIENTED_EDGE('',*,*,#269,.F.);
#316 = ORIENTED_EDGE('',*,*,#317,.F.);
#317 = EDGE_CURVE('',#301,#270,#318,.T.);
#318 = LINE('',#319,#320);
#319 = CARTESIAN_POINT('',(53.370896998466,65.516970088513,8.3));
#320 = VECTOR('',#321,1.);
#321 = DIRECTION('',(-0.798635510047,0.601815023152,0.));
#322 = PLANE('',#323);
#323 = AXIS2_PLACEMENT_3D('',#324,#325,#326);
#324 = CARTESIAN_POINT('',(53.370896998466,65.516970088513,8.3));
#325 = DIRECTION('',(-0.601815023152,-0.798635510047,0.));
#326 = DIRECTION('',(-0.798635510047,0.601815023152,0.));
#327 = ADVANCED_FACE('',(#328),#353,.F.);
#328 = FACE_BOUND('',#329,.F.);
#329 = EDGE_LOOP('',(#330,#340,#346,#347));
#330 = ORIENTED_EDGE('',*,*,#331,.T.);
#331 = EDGE_CURVE('',#332,#334,#336,.T.);
#332 = VERTEX_POINT('',#333);
#333 = CARTESIAN_POINT('',(58.168715064425,61.297035848022,8.3));
#334 = VERTEX_POINT('',#335);
#335 = CARTESIAN_POINT('',(58.168715064425,61.297035848022,10.8));
#336 = LINE('',#337,#338);
#337 = CARTESIAN_POINT('',(58.168715064425,61.297035848022,8.3));
#338 = VECTOR('',#339,1.);
#339 = DIRECTION('',(0.,0.,1.));
#340 = ORIENTED_EDGE('',*,*,#341,.T.);
#341 = EDGE_CURVE('',#334,#303,#342,.T.);
#342 = LINE('',#343,#344);
#343 = CARTESIAN_POINT('',(58.168715064425,61.297035848022,10.8));
#344 = VECTOR('',#345,1.);
#345 = DIRECTION('',(-0.750880032981,0.660438623999,0.));
#346 = ORIENTED_EDGE('',*,*,#300,.F.);
#347 = ORIENTED_EDGE('',*,*,#348,.F.);
#348 = EDGE_CURVE('',#332,#301,#349,.T.);
#349 = LINE('',#350,#351);
#350 = CARTESIAN_POINT('',(58.168715064425,61.297035848022,8.3));
#351 = VECTOR('',#352,1.);
#352 = DIRECTION('',(-0.750880032981,0.660438623999,0.));
#353 = PLANE('',#354);
#354 = AXIS2_PLACEMENT_3D('',#355,#356,#357);
#355 = CARTESIAN_POINT('',(58.168715064425,61.297035848022,8.3));
#356 = DIRECTION('',(-0.660438623999,-0.750880032981,0.));
#357 = DIRECTION('',(-0.750880032981,0.660438623999,0.));
#358 = ADVANCED_FACE('',(#359),#384,.F.);
#359 = FACE_BOUND('',#360,.F.);
#360 = EDGE_LOOP('',(#361,#371,#377,#378));
#361 = ORIENTED_EDGE('',*,*,#362,.T.);
#362 = EDGE_CURVE('',#363,#365,#367,.T.);
#363 = VERTEX_POINT('',#364);
#364 = CARTESIAN_POINT('',(62.633964428063,56.726647318735,8.3));
#365 = VERTEX_POINT('',#366);
#366 = CARTESIAN_POINT('',(62.633964428063,56.726647318735,10.8));
#367 = LINE('',#368,#369);
#368 = CARTESIAN_POINT('',(62.633964428063,56.726647318735,8.3));
#369 = VECTOR('',#370,1.);
#370 = DIRECTION('',(0.,0.,1.));
#371 = ORIENTED_EDGE('',*,*,#372,.T.);
#372 = EDGE_CURVE('',#365,#334,#373,.T.);
#373 = LINE('',#374,#375);
#374 = CARTESIAN_POINT('',(62.633964428063,56.726647318735,10.8));
#375 = VECTOR('',#376,1.);
#376 = DIRECTION('',(-0.698831540368,0.715286291066,0.));
#377 = ORIENTED_EDGE('',*,*,#331,.F.);
#378 = ORIENTED_EDGE('',*,*,#379,.F.);
#379 = EDGE_CURVE('',#363,#332,#380,.T.);
#380 = LINE('',#381,#382);
#381 = CARTESIAN_POINT('',(62.633964428063,56.726647318735,8.3));
#382 = VECTOR('',#383,1.);
#383 = DIRECTION('',(-0.698831540368,0.715286291066,0.));
#384 = PLANE('',#385);
#385 = AXIS2_PLACEMENT_3D('',#386,#387,#388);
#386 = CARTESIAN_POINT('',(62.633964428063,56.726647318735,8.3));
#387 = DIRECTION('',(-0.715286291066,-0.698831540368,0.));
#388 = DIRECTION('',(-0.698831540368,0.715286291066,0.));
#389 = ADVANCED_FACE('',(#390),#415,.F.);
#390 = FACE_BOUND('',#391,.F.);
#391 = EDGE_LOOP('',(#392,#402,#408,#409));
#392 = ORIENTED_EDGE('',*,*,#393,.T.);
#393 = EDGE_CURVE('',#394,#396,#398,.T.);
#394 = VERTEX_POINT('',#395);
#395 = CARTESIAN_POINT('',(66.741115864868,51.831934838594,8.3));
#396 = VERTEX_POINT('',#397);
#397 = CARTESIAN_POINT('',(66.741115864868,51.831934838594,10.8));
#398 = LINE('',#399,#400);
#399 = CARTESIAN_POINT('',(66.741115864868,51.831934838594,8.3));
#400 = VECTOR('',#401,1.);
#401 = DIRECTION('',(0.,0.,1.));
#402 = ORIENTED_EDGE('',*,*,#403,.T.);
#403 = EDGE_CURVE('',#396,#365,#404,.T.);
#404 = LINE('',#405,#406);
#405 = CARTESIAN_POINT('',(66.741115864868,51.831934838594,10.8));
#406 = VECTOR('',#407,1.);
#407 = DIRECTION('',(-0.642787609687,0.766044443119,0.));
#408 = ORIENTED_EDGE('',*,*,#362,.F.);
#409 = ORIENTED_EDGE('',*,*,#410,.F.);
#410 = EDGE_CURVE('',#394,#363,#411,.T.);
#411 = LINE('',#412,#413);
#412 = CARTESIAN_POINT('',(66.741115864868,51.831934838594,8.3));
#413 = VECTOR('',#414,1.);
#414 = DIRECTION('',(-0.642787609687,0.766044443119,0.));
#415 = PLANE('',#416);
#416 = AXIS2_PLACEMENT_3D('',#417,#418,#419);
#417 = CARTESIAN_POINT('',(66.741115864868,51.831934838594,8.3));
#418 = DIRECTION('',(-0.766044443119,-0.642787609687,0.));
#419 = DIRECTION('',(-0.642787609687,0.766044443119,0.));
#420 = ADVANCED_FACE('',(#421,#441),#452,.T.);
#421 = FACE_BOUND('',#422,.T.);
#422 = EDGE_LOOP('',(#423,#424,#425,#431,#432,#433,#434,#435,#436,#437,
    #438,#439,#440));
#423 = ORIENTED_EDGE('',*,*,#97,.F.);
#424 = ORIENTED_EDGE('',*,*,#57,.T.);
#425 = ORIENTED_EDGE('',*,*,#426,.T.);
#426 = EDGE_CURVE('',#58,#396,#427,.T.);
#427 = LINE('',#428,#429);
#428 = CARTESIAN_POINT('',(70.466687507964,46.64088300681,10.8));
#429 = VECTOR('',#430,1.);
#430 = DIRECTION('',(-0.583068661584,0.812422879958,0.));
#431 = ORIENTED_EDGE('',*,*,#403,.T.);
#432 = ORIENTED_EDGE('',*,*,#372,.T.);
#433 = ORIENTED_EDGE('',*,*,#341,.T.);
#434 = ORIENTED_EDGE('',*,*,#310,.T.);
#435 = ORIENTED_EDGE('',*,*,#279,.T.);
#436 = ORIENTED_EDGE('',*,*,#254,.T.);
#437 = ORIENTED_EDGE('',*,*,#224,.F.);
#438 = ORIENTED_EDGE('',*,*,#191,.T.);
#439 = ORIENTED_EDGE('',*,*,#160,.F.);
#440 = ORIENTED_EDGE('',*,*,#129,.T.);
#441 = FACE_BOUND('',#442,.T.);
#442 = EDGE_LOOP('',(#443));
#443 = ORIENTED_EDGE('',*,*,#444,.F.);
#444 = EDGE_CURVE('',#445,#445,#447,.T.);
#445 = VERTEX_POINT('',#446);
#446 = CARTESIAN_POINT('',(64.876841907688,45.427253759003,10.8));
#447 = CIRCLE('',#448,1.1);
#448 = AXIS2_PLACEMENT_3D('',#449,#450,#451);
#449 = CARTESIAN_POINT('',(63.97577465897,44.796319679017,10.8));
#450 = DIRECTION('',(0.,0.,1.));
#451 = DIRECTION('',(0.819152044289,0.573576436351,-0.));
#452 = PLANE('',#453);
#453 = AXIS2_PLACEMENT_3D('',#454,#455,#456);
#454 = CARTESIAN_POINT('',(33.757237438644,35.572705897233,10.8));
#455 = DIRECTION('',(0.,0.,1.));
#456 = DIRECTION('',(1.,0.,-0.));
#457 = ADVANCED_FACE('',(#458),#477,.F.);
#458 = FACE_BOUND('',#459,.F.);
#459 = EDGE_LOOP('',(#460,#461,#469,#476));
#460 = ORIENTED_EDGE('',*,*,#444,.F.);
#461 = ORIENTED_EDGE('',*,*,#462,.F.);
#462 = EDGE_CURVE('',#463,#445,#465,.T.);
#463 = VERTEX_POINT('',#464);
#464 = CARTESIAN_POINT('',(64.876841907688,45.427253759003,8.3));
#465 = LINE('',#466,#467);
#466 = CARTESIAN_POINT('',(64.876841907688,45.427253759003,7.));
#467 = VECTOR('',#468,1.);
#468 = DIRECTION('',(0.,0.,1.));
#469 = ORIENTED_EDGE('',*,*,#470,.T.);
#470 = EDGE_CURVE('',#463,#463,#471,.T.);
#471 = CIRCLE('',#472,1.1);
#472 = AXIS2_PLACEMENT_3D('',#473,#474,#475);
#473 = CARTESIAN_POINT('',(63.97577465897,44.796319679017,8.3));
#474 = DIRECTION('',(0.,0.,1.));
#475 = DIRECTION('',(0.819152044289,0.573576436351,-0.));
#476 = ORIENTED_EDGE('',*,*,#462,.T.);
#477 = CYLINDRICAL_SURFACE('',#478,1.1);
#478 = AXIS2_PLACEMENT_3D('',#479,#480,#481);
#479 = CARTESIAN_POINT('',(63.97577465897,44.796319679017,7.));
#480 = DIRECTION('',(0.,0.,1.));
#481 = DIRECTION('',(0.819152044289,0.573576436351,0.));
#482 = ADVANCED_FACE('',(#483),#494,.F.);
#483 = FACE_BOUND('',#484,.F.);
#484 = EDGE_LOOP('',(#485,#486,#487,#488));
#485 = ORIENTED_EDGE('',*,*,#65,.T.);
#486 = ORIENTED_EDGE('',*,*,#426,.T.);
#487 = ORIENTED_EDGE('',*,*,#393,.F.);
#488 = ORIENTED_EDGE('',*,*,#489,.F.);
#489 = EDGE_CURVE('',#42,#394,#490,.T.);
#490 = LINE('',#491,#492);
#491 = CARTESIAN_POINT('',(70.466687507964,46.64088300681,8.3));
#492 = VECTOR('',#493,1.);
#493 = DIRECTION('',(-0.583068661584,0.812422879958,0.));
#494 = PLANE('',#495);
#495 = AXIS2_PLACEMENT_3D('',#496,#497,#498);
#496 = CARTESIAN_POINT('',(70.466687507964,46.64088300681,8.3));
#497 = DIRECTION('',(-0.812422879958,-0.583068661584,0.));
#498 = DIRECTION('',(-0.583068661584,0.812422879958,0.));
#499 = ADVANCED_FACE('',(#500,#515),#518,.F.);
#500 = FACE_BOUND('',#501,.F.);
#501 = EDGE_LOOP('',(#502,#503,#504,#505,#506,#507,#508,#509,#510,#511,
    #512,#513,#514));
#502 = ORIENTED_EDGE('',*,*,#80,.F.);
#503 = ORIENTED_EDGE('',*,*,#39,.T.);
#504 = ORIENTED_EDGE('',*,*,#489,.T.);
#505 = ORIENTED_EDGE('',*,*,#410,.T.);
#506 = ORIENTED_EDGE('',*,*,#379,.T.);
#507 = ORIENTED_EDGE('',*,*,#348,.T.);
#508 = ORIENTED_EDGE('',*,*,#317,.T.);
#509 = ORIENTED_EDGE('',*,*,#286,.T.);
#510 = ORIENTED_EDGE('',*,*,#238,.T.);
#511 = ORIENTED_EDGE('',*,*,#208,.F.);
#512 = ORIENTED_EDGE('',*,*,#174,.F.);
#513 = ORIENTED_EDGE('',*,*,#144,.F.);
#514 = ORIENTED_EDGE('',*,*,#122,.T.);
#515 = FACE_BOUND('',#516,.F.);
#516 = EDGE_LOOP('',(#517));
#517 = ORIENTED_EDGE('',*,*,#470,.F.);
#518 = PLANE('',#519);
#519 = AXIS2_PLACEMENT_3D('',#520,#521,#522);
#520 = CARTESIAN_POINT('',(33.757237438644,35.572705897233,8.3));
#521 = DIRECTION('',(0.,0.,1.));
#522 = DIRECTION('',(1.,0.,-0.));
#523 = ( GEOMETRIC_REPRESENTATION_CONTEXT(3) 
GLOBAL_UNCERTAINTY_ASSIGNED_CONTEXT((#527)) GLOBAL_UNIT_ASSIGNED_CONTEXT
((#524,#525,#526)) REPRESENTATION_CONTEXT('Context #1',
  '3D Context with UNIT and UNCERTAINTY') );
#524 = ( LENGTH_UNIT() NAMED_UNIT(*) SI_UNIT(.MILLI.,.METRE.) );
#525 = ( NAMED_UNIT(*) PLANE_ANGLE_UNIT() SI_UNIT($,.RADIAN.) );
#526 = ( NAMED_UNIT(*) SI_UNIT($,.STERADIAN.) SOLID_ANGLE_UNIT() );
#527 = UNCERTAINTY_MEASURE_WITH_UNIT(LENGTH_MEASURE(1.E-07),#524,
  'distance_accuracy_value','confusion accuracy');
#528 = CONTEXT_DEPENDENT_SHAPE_REPRESENTATION(#529,#531);
#529 = ( REPRESENTATION_RELATIONSHIP('','',#32,#10) 
REPRESENTATION_RELATIONSHIP_WITH_TRANSFORMATION(#530) 
SHAPE_REPRESENTATION_RELATIONSHIP() );
#530 = ITEM_DEFINED_TRANSFORMATION('','',#11,#15);
#531 = PRODUCT_DEFINITION_SHAPE('Placement','Placement of an item',#532
  );
#532 = NEXT_ASSEMBLY_USAGE_OCCURRENCE('13','=>[0:1:1:2]','',#5,#27,$);
#533 = PRODUCT_RELATED_PRODUCT_CATEGORY('part',$,(#29));
ENDSEC;
END-ISO-10303-21;
