ISO-10303-21;
HEADER;
FILE_DESCRIPTION(('Open CASCADE Model'),'2;1');
FILE_NAME('Open CASCADE Shape Model','2026-09-08T15:12:01',('Author'),(
    'Open CASCADE'),'Open CASCADE STEP processor 7.9','build123d',
  'Unknown');
FILE_SCHEMA(('AUTOMOTIVE_DESIGN { 1 0 10303 214 1 1 1 1 }'));
ENDSEC;
DATA;
#1 = APPLICATION_PROTOCOL_DEFINITION('international standard',
  'automotive_design',2000,#2);
#2 = APPLICATION_CONTEXT(
  'core data for automotive mechanical design processes');
#3 = SHAPE_DEFINITION_REPRESENTATION(#4,#10);
#4 = PRODUCT_DEFINITION_SHAPE('','',#5);
#5 = PRODUCT_DEFINITION('design','',#6,#9);
#6 = PRODUCT_DEFINITION_FORMATION('','',#7);
#7 = PRODUCT('=>[0:1:1:2]','=>[0:1:1:2]','',(#8));
#8 = PRODUCT_CONTEXT('',#2,'mechanical');
#9 = PRODUCT_DEFINITION_CONTEXT('part definition',#2,'design');
#10 = SHAPE_REPRESENTATION('',(#11,#15),#19);
#11 = AXIS2_PLACEMENT_3D('',#12,#13,#14);
#12 = CARTESIAN_POINT('',(0.,0.,0.));
#13 = DIRECTION('',(0.,0.,1.));
#14 = DIRECTION('',(1.,0.,-0.));
#15 = AXIS2_PLACEMENT_3D('',#16,#17,#18);
#16 = CARTESIAN_POINT('',(-28.82839673346,56.578914285961,-16.6));
#17 = DIRECTION('',(0.,0.,1.));
#18 = DIRECTION('',(1.,0.,-0.));
#19 = ( GEOMETRIC_REPRESENTATION_CONTEXT(3) 
GLOBAL_UNCERTAINTY_ASSIGNED_CONTEXT((#23)) GLOBAL_UNIT_ASSIGNED_CONTEXT(
(#20,#21,#22)) REPRESENTATION_CONTEXT('Context #1',
  '3D Context with UNIT and UNCERTAINTY') );
#20 = ( LENGTH_UNIT() NAMED_UNIT(*) SI_UNIT(.MILLI.,.METRE.) );
#21 = ( NAMED_UNIT(*) PLANE_ANGLE_UNIT() SI_UNIT($,.RADIAN.) );
#22 = ( NAMED_UNIT(*) SI_UNIT($,.STERADIAN.) SOLID_ANGLE_UNIT() );
#23 = UNCERTAINTY_MEASURE_WITH_UNIT(LENGTH_MEASURE(1.E-07),#20,
  'distance_accuracy_value','confusion accuracy');
#24 = PRODUCT_RELATED_PRODUCT_CATEGORY('part',$,(#7));
#25 = SHAPE_DEFINITION_REPRESENTATION(#26,#32);
#26 = PRODUCT_DEFINITION_SHAPE('','',#27);
#27 = PRODUCT_DEFINITION('design','',#28,#31);
#28 = PRODUCT_DEFINITION_FORMATION('','',#29);
#29 = PRODUCT('COMPOUND','COMPOUND','',(#30));
#30 = PRODUCT_CONTEXT('',#2,'mechanical');
#31 = PRODUCT_DEFINITION_CONTEXT('part definition',#2,'design');
#32 = ADVANCED_BREP_SHAPE_REPRESENTATION('',(#11,#33),#481);
#33 = MANIFOLD_SOLID_BREP('',#34);
#34 = CLOSED_SHELL('',(#35,#75,#106,#208,#232,#293,#305,#322,#353,#377,
    #401,#418,#435,#452,#469));
#35 = ADVANCED_FACE('',(#36),#70,.F.);
#36 = FACE_BOUND('',#37,.F.);
#37 = EDGE_LOOP('',(#38,#48,#56,#64));
#38 = ORIENTED_EDGE('',*,*,#39,.F.);
#39 = EDGE_CURVE('',#40,#42,#44,.T.);
#40 = VERTEX_POINT('',#41);
#41 = CARTESIAN_POINT('',(17.364133246048,-78.13281561938,16.6));
#42 = VERTEX_POINT('',#43);
#43 = CARTESIAN_POINT('',(17.364133246048,-78.13281561938,17.8));
#44 = LINE('',#45,#46);
#45 = CARTESIAN_POINT('',(17.364133246048,-78.13281561938,16.6));
#46 = VECTOR('',#47,1.);
#47 = DIRECTION('',(0.,0.,1.));
#48 = ORIENTED_EDGE('',*,*,#49,.T.);
#49 = EDGE_CURVE('',#40,#50,#52,.T.);
#50 = VERTEX_POINT('',#51);
#51 = CARTESIAN_POINT('',(4.65239925334,-53.18463294211,16.6));
#52 = LINE('',#53,#54);
#53 = CARTESIAN_POINT('',(17.364133246048,-78.13281561938,16.6));
#54 = VECTOR('',#55,1.);
#55 = DIRECTION('',(-0.45399049974,0.891006524188,0.));
#56 = ORIENTED_EDGE('',*,*,#57,.T.);
#57 = EDGE_CURVE('',#50,#58,#60,.T.);
#58 = VERTEX_POINT('',#59);
#59 = CARTESIAN_POINT('',(4.65239925334,-53.18463294211,17.8));
#60 = LINE('',#61,#62);
#61 = CARTESIAN_POINT('',(4.65239925334,-53.18463294211,16.6));
#62 = VECTOR('',#63,1.);
#63 = DIRECTION('',(0.,0.,1.));
#64 = ORIENTED_EDGE('',*,*,#65,.F.);
#65 = EDGE_CURVE('',#42,#58,#66,.T.);
#66 = LINE('',#67,#68);
#67 = CARTESIAN_POINT('',(17.364133246048,-78.13281561938,17.8));
#68 = VECTOR('',#69,1.);
#69 = DIRECTION('',(-0.45399049974,0.891006524188,0.));
#70 = PLANE('',#71);
#71 = AXIS2_PLACEMENT_3D('',#72,#73,#74);
#72 = CARTESIAN_POINT('',(17.364133246048,-78.13281561938,16.6));
#73 = DIRECTION('',(0.891006524188,0.45399049974,0.));
#74 = DIRECTION('',(0.,0.,1.));
#75 = ADVANCED_FACE('',(#76),#101,.F.);
#76 = FACE_BOUND('',#77,.F.);
#77 = EDGE_LOOP('',(#78,#86,#87,#95));
#78 = ORIENTED_EDGE('',*,*,#79,.F.);
#79 = EDGE_CURVE('',#40,#80,#82,.T.);
#80 = VERTEX_POINT('',#81);
#81 = CARTESIAN_POINT('',(53.004394213582,-59.9731956298,16.6));
#82 = LINE('',#83,#84);
#83 = CARTESIAN_POINT('',(17.364133246048,-78.13281561938,16.6));
#84 = VECTOR('',#85,1.);
#85 = DIRECTION('',(0.891006524188,0.45399049974,0.));
#86 = ORIENTED_EDGE('',*,*,#39,.T.);
#87 = ORIENTED_EDGE('',*,*,#88,.T.);
#88 = EDGE_CURVE('',#42,#89,#91,.T.);
#89 = VERTEX_POINT('',#90);
#90 = CARTESIAN_POINT('',(53.004394213582,-59.9731956298,17.8));
#91 = LINE('',#92,#93);
#92 = CARTESIAN_POINT('',(17.364133246048,-78.13281561938,17.8));
#93 = VECTOR('',#94,1.);
#94 = DIRECTION('',(0.891006524188,0.45399049974,0.));
#95 = ORIENTED_EDGE('',*,*,#96,.F.);
#96 = EDGE_CURVE('',#80,#89,#97,.T.);
#97 = LINE('',#98,#99);
#98 = CARTESIAN_POINT('',(53.004394213582,-59.9731956298,16.6));
#99 = VECTOR('',#100,1.);
#100 = DIRECTION('',(0.,0.,1.));
#101 = PLANE('',#102);
#102 = AXIS2_PLACEMENT_3D('',#103,#104,#105);
#103 = CARTESIAN_POINT('',(17.364133246048,-78.13281561938,16.6));
#104 = DIRECTION('',(-0.45399049974,0.891006524188,0.));
#105 = DIRECTION('',(0.,0.,1.));
#106 = ADVANCED_FACE('',(#107,#125,#136,#170,#181,#192),#203,.T.);
#107 = FACE_BOUND('',#108,.T.);
#108 = EDGE_LOOP('',(#109,#110,#111,#119));
#109 = ORIENTED_EDGE('',*,*,#65,.F.);
#110 = ORIENTED_EDGE('',*,*,#88,.T.);
#111 = ORIENTED_EDGE('',*,*,#112,.T.);
#112 = EDGE_CURVE('',#89,#113,#115,.T.);
#113 = VERTEX_POINT('',#114);
#114 = CARTESIAN_POINT('',(40.292660220875,-35.02501295253,17.8));
#115 = LINE('',#116,#117);
#116 = CARTESIAN_POINT('',(53.004394213582,-59.9731956298,17.8));
#117 = VECTOR('',#118,1.);
#118 = DIRECTION('',(-0.45399049974,0.891006524188,0.));
#119 = ORIENTED_EDGE('',*,*,#120,.F.);
#120 = EDGE_CURVE('',#58,#113,#121,.T.);
#121 = LINE('',#122,#123);
#122 = CARTESIAN_POINT('',(4.65239925334,-53.18463294211,17.8));
#123 = VECTOR('',#124,1.);
#124 = DIRECTION('',(0.891006524188,0.45399049974,0.));
#125 = FACE_BOUND('',#126,.T.);
#126 = EDGE_LOOP('',(#127));
#127 = ORIENTED_EDGE('',*,*,#128,.F.);
#128 = EDGE_CURVE('',#129,#129,#131,.T.);
#129 = VERTEX_POINT('',#130);
#130 = CARTESIAN_POINT('',(21.506270941899,-66.48183290377,17.8));
#131 = CIRCLE('',#132,1.1);
#132 = AXIS2_PLACEMENT_3D('',#133,#134,#135);
#133 = CARTESIAN_POINT('',(20.406270941899,-66.48183290377,17.8));
#134 = DIRECTION('',(0.,0.,1.));
#135 = DIRECTION('',(1.,0.,-0.));
#136 = FACE_BOUND('',#137,.T.);
#137 = EDGE_LOOP('',(#138,#148,#156,#164));
#138 = ORIENTED_EDGE('',*,*,#139,.T.);
#139 = EDGE_CURVE('',#140,#142,#144,.T.);
#140 = VERTEX_POINT('',#141);
#141 = CARTESIAN_POINT('',(26.39681605762,-72.07140974075,17.8));
#142 = VERTEX_POINT('',#143);
#143 = CARTESIAN_POINT('',(14.865457364236,-49.43984402637,17.8));
#144 = LINE('',#145,#146);
#145 = CARTESIAN_POINT('',(20.926230535759,-61.33478112428,17.8));
#146 = VECTOR('',#147,1.);
#147 = DIRECTION('',(-0.45399049974,0.891006524188,0.));
#148 = ORIENTED_EDGE('',*,*,#149,.T.);
#149 = EDGE_CURVE('',#142,#150,#152,.T.);
#150 = VERTEX_POINT('',#151);
#151 = CARTESIAN_POINT('',(31.259977409302,-41.08641883116,17.8));
#152 = LINE('',#153,#154);
#153 = CARTESIAN_POINT('',(10.054022133619,-51.89139272496,17.8));
#154 = VECTOR('',#155,1.);
#155 = DIRECTION('',(0.891006524188,0.45399049974,-0.));
#156 = ORIENTED_EDGE('',*,*,#157,.F.);
#157 = EDGE_CURVE('',#158,#150,#160,.T.);
#158 = VERTEX_POINT('',#159);
#159 = CARTESIAN_POINT('',(42.791336102686,-63.71798454555,17.8));
#160 = LINE('',#161,#162);
#161 = CARTESIAN_POINT('',(37.320750580825,-52.98135592908,17.8));
#162 = VECTOR('',#163,1.);
#163 = DIRECTION('',(-0.45399049974,0.891006524188,0.));
#164 = ORIENTED_EDGE('',*,*,#165,.F.);
#165 = EDGE_CURVE('',#140,#158,#166,.T.);
#166 = LINE('',#167,#168);
#167 = CARTESIAN_POINT('',(21.585380827003,-74.52295843935,17.8));
#168 = VECTOR('',#169,1.);
#169 = DIRECTION('',(0.891006524188,0.45399049974,-0.));
#170 = FACE_BOUND('',#171,.T.);
#171 = EDGE_LOOP('',(#172));
#172 = ORIENTED_EDGE('',*,*,#173,.F.);
#173 = EDGE_CURVE('',#174,#174,#176,.T.);
#174 = VERTEX_POINT('',#175);
#175 = CARTESIAN_POINT('',(42.890427522419,-55.58606091002,17.8));
#176 = CIRCLE('',#177,1.1);
#177 = AXIS2_PLACEMENT_3D('',#178,#179,#180);
#178 = CARTESIAN_POINT('',(41.790427522419,-55.58606091002,17.8));
#179 = DIRECTION('',(0.,0.,1.));
#180 = DIRECTION('',(1.,0.,-0.));
#181 = FACE_BOUND('',#182,.T.);
#182 = EDGE_LOOP('',(#183));
#183 = ORIENTED_EDGE('',*,*,#184,.F.);
#184 = EDGE_CURVE('',#185,#185,#187,.T.);
#185 = VERTEX_POINT('',#186);
#186 = CARTESIAN_POINT('',(15.604394445284,-54.89874808932,17.8));
#187 = CIRCLE('',#188,1.1);
#188 = AXIS2_PLACEMENT_3D('',#189,#190,#191);
#189 = CARTESIAN_POINT('',(14.504394445284,-54.89874808932,17.8));
#190 = DIRECTION('',(0.,0.,1.));
#191 = DIRECTION('',(1.,0.,-0.));
#192 = FACE_BOUND('',#193,.T.);
#193 = EDGE_LOOP('',(#194));
#194 = ORIENTED_EDGE('',*,*,#195,.F.);
#195 = EDGE_CURVE('',#196,#196,#198,.T.);
#196 = VERTEX_POINT('',#197);
#197 = CARTESIAN_POINT('',(36.988551025805,-44.00297609558,17.8));
#198 = CIRCLE('',#199,1.1);
#199 = AXIS2_PLACEMENT_3D('',#200,#201,#202);
#200 = CARTESIAN_POINT('',(35.888551025805,-44.00297609558,17.8));
#201 = DIRECTION('',(0.,0.,1.));
#202 = DIRECTION('',(1.,0.,-0.));
#203 = PLANE('',#204);
#204 = AXIS2_PLACEMENT_3D('',#205,#206,#207);
#205 = CARTESIAN_POINT('',(17.364133246048,-78.13281561938,17.8));
#206 = DIRECTION('',(0.,0.,1.));
#207 = DIRECTION('',(0.891006524188,0.45399049974,0.));
#208 = ADVANCED_FACE('',(#209),#227,.T.);
#209 = FACE_BOUND('',#210,.T.);
#210 = EDGE_LOOP('',(#211,#219,#220,#221));
#211 = ORIENTED_EDGE('',*,*,#212,.F.);
#212 = EDGE_CURVE('',#50,#213,#215,.T.);
#213 = VERTEX_POINT('',#214);
#214 = CARTESIAN_POINT('',(40.292660220875,-35.02501295253,16.6));
#215 = LINE('',#216,#217);
#216 = CARTESIAN_POINT('',(4.65239925334,-53.18463294211,16.6));
#217 = VECTOR('',#218,1.);
#218 = DIRECTION('',(0.891006524188,0.45399049974,0.));
#219 = ORIENTED_EDGE('',*,*,#57,.T.);
#220 = ORIENTED_EDGE('',*,*,#120,.T.);
#221 = ORIENTED_EDGE('',*,*,#222,.F.);
#222 = EDGE_CURVE('',#213,#113,#223,.T.);
#223 = LINE('',#224,#225);
#224 = CARTESIAN_POINT('',(40.292660220875,-35.02501295253,16.6));
#225 = VECTOR('',#226,1.);
#226 = DIRECTION('',(0.,0.,1.));
#227 = PLANE('',#228);
#228 = AXIS2_PLACEMENT_3D('',#229,#230,#231);
#229 = CARTESIAN_POINT('',(4.65239925334,-53.18463294211,16.6));
#230 = DIRECTION('',(-0.45399049974,0.891006524188,0.));
#231 = DIRECTION('',(0.,0.,1.));
#232 = ADVANCED_FACE('',(#233,#244,#255,#266,#277),#288,.F.);
#233 = FACE_BOUND('',#234,.F.);
#234 = EDGE_LOOP('',(#235,#236,#237,#243));
#235 = ORIENTED_EDGE('',*,*,#49,.F.);
#236 = ORIENTED_EDGE('',*,*,#79,.T.);
#237 = ORIENTED_EDGE('',*,*,#238,.T.);
#238 = EDGE_CURVE('',#80,#213,#239,.T.);
#239 = LINE('',#240,#241);
#240 = CARTESIAN_POINT('',(53.004394213582,-59.9731956298,16.6));
#241 = VECTOR('',#242,1.);
#242 = DIRECTION('',(-0.45399049974,0.891006524188,0.));
#243 = ORIENTED_EDGE('',*,*,#212,.F.);
#244 = FACE_BOUND('',#245,.F.);
#245 = EDGE_LOOP('',(#246));
#246 = ORIENTED_EDGE('',*,*,#247,.F.);
#247 = EDGE_CURVE('',#248,#248,#250,.T.);
#248 = VERTEX_POINT('',#249);
#249 = CARTESIAN_POINT('',(21.506270941899,-66.48183290377,16.6));
#250 = CIRCLE('',#251,1.1);
#251 = AXIS2_PLACEMENT_3D('',#252,#253,#254);
#252 = CARTESIAN_POINT('',(20.406270941899,-66.48183290377,16.6));
#253 = DIRECTION('',(0.,0.,1.));
#254 = DIRECTION('',(1.,0.,-0.));
#255 = FACE_BOUND('',#256,.F.);
#256 = EDGE_LOOP('',(#257));
#257 = ORIENTED_EDGE('',*,*,#258,.F.);
#258 = EDGE_CURVE('',#259,#259,#261,.T.);
#259 = VERTEX_POINT('',#260);
#260 = CARTESIAN_POINT('',(42.890427522419,-55.58606091002,16.6));
#261 = CIRCLE('',#262,1.1);
#262 = AXIS2_PLACEMENT_3D('',#263,#264,#265);
#263 = CARTESIAN_POINT('',(41.790427522419,-55.58606091002,16.6));
#264 = DIRECTION('',(0.,0.,1.));
#265 = DIRECTION('',(1.,0.,-0.));
#266 = FACE_BOUND('',#267,.F.);
#267 = EDGE_LOOP('',(#268));
#268 = ORIENTED_EDGE('',*,*,#269,.F.);
#269 = EDGE_CURVE('',#270,#270,#272,.T.);
#270 = VERTEX_POINT('',#271);
#271 = CARTESIAN_POINT('',(15.604394445284,-54.89874808932,16.6));
#272 = CIRCLE('',#273,1.1);
#273 = AXIS2_PLACEMENT_3D('',#274,#275,#276);
#274 = CARTESIAN_POINT('',(14.504394445284,-54.89874808932,16.6));
#275 = DIRECTION('',(0.,0.,1.));
#276 = DIRECTION('',(1.,0.,-0.));
#277 = FACE_BOUND('',#278,.F.);
#278 = EDGE_LOOP('',(#279));
#279 = ORIENTED_EDGE('',*,*,#280,.F.);
#280 = EDGE_CURVE('',#281,#281,#283,.T.);
#281 = VERTEX_POINT('',#282);
#282 = CARTESIAN_POINT('',(36.988551025805,-44.00297609558,16.6));
#283 = CIRCLE('',#284,1.1);
#284 = AXIS2_PLACEMENT_3D('',#285,#286,#287);
#285 = CARTESIAN_POINT('',(35.888551025805,-44.00297609558,16.6));
#286 = DIRECTION('',(0.,0.,1.));
#287 = DIRECTION('',(1.,0.,-0.));
#288 = PLANE('',#289);
#289 = AXIS2_PLACEMENT_3D('',#290,#291,#292);
#290 = CARTESIAN_POINT('',(17.364133246048,-78.13281561938,16.6));
#291 = DIRECTION('',(0.,0.,1.));
#292 = DIRECTION('',(0.891006524188,0.45399049974,0.));
#293 = ADVANCED_FACE('',(#294),#300,.T.);
#294 = FACE_BOUND('',#295,.T.);
#295 = EDGE_LOOP('',(#296,#297,#298,#299));
#296 = ORIENTED_EDGE('',*,*,#96,.F.);
#297 = ORIENTED_EDGE('',*,*,#238,.T.);
#298 = ORIENTED_EDGE('',*,*,#222,.T.);
#299 = ORIENTED_EDGE('',*,*,#112,.F.);
#300 = PLANE('',#301);
#301 = AXIS2_PLACEMENT_3D('',#302,#303,#304);
#302 = CARTESIAN_POINT('',(53.004394213582,-59.9731956298,16.6));
#303 = DIRECTION('',(0.891006524188,0.45399049974,0.));
#304 = DIRECTION('',(0.,0.,1.));
#305 = ADVANCED_FACE('',(#306),#317,.F.);
#306 = FACE_BOUND('',#307,.F.);
#307 = EDGE_LOOP('',(#308,#309,#315,#316));
#308 = ORIENTED_EDGE('',*,*,#128,.F.);
#309 = ORIENTED_EDGE('',*,*,#310,.F.);
#310 = EDGE_CURVE('',#248,#129,#311,.T.);
#311 = LINE('',#312,#313);
#312 = CARTESIAN_POINT('',(21.506270941899,-66.48183290377,-40.));
#313 = VECTOR('',#314,1.);
#314 = DIRECTION('',(0.,0.,1.));
#315 = ORIENTED_EDGE('',*,*,#247,.T.);
#316 = ORIENTED_EDGE('',*,*,#310,.T.);
#317 = CYLINDRICAL_SURFACE('',#318,1.1);
#318 = AXIS2_PLACEMENT_3D('',#319,#320,#321);
#319 = CARTESIAN_POINT('',(20.406270941899,-66.48183290377,-40.));
#320 = DIRECTION('',(0.,0.,1.));
#321 = DIRECTION('',(1.,0.,-0.));
#322 = ADVANCED_FACE('',(#323),#348,.T.);
#323 = FACE_BOUND('',#324,.T.);
#324 = EDGE_LOOP('',(#325,#333,#341,#347));
#325 = ORIENTED_EDGE('',*,*,#326,.F.);
#326 = EDGE_CURVE('',#327,#140,#329,.T.);
#327 = VERTEX_POINT('',#328);
#328 = CARTESIAN_POINT('',(26.39681605762,-72.07140974075,17.2));
#329 = LINE('',#330,#331);
#330 = CARTESIAN_POINT('',(26.39681605762,-72.07140974075,17.2));
#331 = VECTOR('',#332,1.);
#332 = DIRECTION('',(0.,0.,1.));
#333 = ORIENTED_EDGE('',*,*,#334,.F.);
#334 = EDGE_CURVE('',#335,#327,#337,.T.);
#335 = VERTEX_POINT('',#336);
#336 = CARTESIAN_POINT('',(14.865457364236,-49.43984402637,17.2));
#337 = LINE('',#338,#339);
#338 = CARTESIAN_POINT('',(14.865457364236,-49.43984402637,17.2));
#339 = VECTOR('',#340,1.);
#340 = DIRECTION('',(0.45399049974,-0.891006524188,0.));
#341 = ORIENTED_EDGE('',*,*,#342,.T.);
#342 = EDGE_CURVE('',#335,#142,#343,.T.);
#343 = LINE('',#344,#345);
#344 = CARTESIAN_POINT('',(14.865457364236,-49.43984402637,17.2));
#345 = VECTOR('',#346,1.);
#346 = DIRECTION('',(0.,0.,1.));
#347 = ORIENTED_EDGE('',*,*,#139,.F.);
#348 = PLANE('',#349);
#349 = AXIS2_PLACEMENT_3D('',#350,#351,#352);
#350 = CARTESIAN_POINT('',(14.865457364236,-49.43984402637,17.2));
#351 = DIRECTION('',(0.891006524188,0.45399049974,0.));
#352 = DIRECTION('',(0.,0.,1.));
#353 = ADVANCED_FACE('',(#354),#372,.F.);
#354 = FACE_BOUND('',#355,.F.);
#355 = EDGE_LOOP('',(#356,#357,#365,#371));
#356 = ORIENTED_EDGE('',*,*,#326,.F.);
#357 = ORIENTED_EDGE('',*,*,#358,.T.);
#358 = EDGE_CURVE('',#327,#359,#361,.T.);
#359 = VERTEX_POINT('',#360);
#360 = CARTESIAN_POINT('',(42.791336102686,-63.71798454555,17.2));
#361 = LINE('',#362,#363);
#362 = CARTESIAN_POINT('',(26.39681605762,-72.07140974075,17.2));
#363 = VECTOR('',#364,1.);
#364 = DIRECTION('',(0.891006524188,0.45399049974,0.));
#365 = ORIENTED_EDGE('',*,*,#366,.T.);
#366 = EDGE_CURVE('',#359,#158,#367,.T.);
#367 = LINE('',#368,#369);
#368 = CARTESIAN_POINT('',(42.791336102686,-63.71798454555,17.2));
#369 = VECTOR('',#370,1.);
#370 = DIRECTION('',(0.,0.,1.));
#371 = ORIENTED_EDGE('',*,*,#165,.F.);
#372 = PLANE('',#373);
#373 = AXIS2_PLACEMENT_3D('',#374,#375,#376);
#374 = CARTESIAN_POINT('',(26.39681605762,-72.07140974075,17.2));
#375 = DIRECTION('',(0.45399049974,-0.891006524188,0.));
#376 = DIRECTION('',(0.,0.,1.));
#377 = ADVANCED_FACE('',(#378),#396,.F.);
#378 = FACE_BOUND('',#379,.F.);
#379 = EDGE_LOOP('',(#380,#381,#389,#395));
#380 = ORIENTED_EDGE('',*,*,#366,.F.);
#381 = ORIENTED_EDGE('',*,*,#382,.F.);
#382 = EDGE_CURVE('',#383,#359,#385,.T.);
#383 = VERTEX_POINT('',#384);
#384 = CARTESIAN_POINT('',(31.259977409302,-41.08641883116,17.2));
#385 = LINE('',#386,#387);
#386 = CARTESIAN_POINT('',(31.259977409302,-41.08641883116,17.2));
#387 = VECTOR('',#388,1.);
#388 = DIRECTION('',(0.45399049974,-0.891006524188,0.));
#389 = ORIENTED_EDGE('',*,*,#390,.T.);
#390 = EDGE_CURVE('',#383,#150,#391,.T.);
#391 = LINE('',#392,#393);
#392 = CARTESIAN_POINT('',(31.259977409302,-41.08641883116,17.2));
#393 = VECTOR('',#394,1.);
#394 = DIRECTION('',(0.,0.,1.));
#395 = ORIENTED_EDGE('',*,*,#157,.F.);
#396 = PLANE('',#397);
#397 = AXIS2_PLACEMENT_3D('',#398,#399,#400);
#398 = CARTESIAN_POINT('',(31.259977409302,-41.08641883116,17.2));
#399 = DIRECTION('',(0.891006524188,0.45399049974,0.));
#400 = DIRECTION('',(0.,0.,1.));
#401 = ADVANCED_FACE('',(#402),#413,.T.);
#402 = FACE_BOUND('',#403,.T.);
#403 = EDGE_LOOP('',(#404,#405,#411,#412));
#404 = ORIENTED_EDGE('',*,*,#342,.F.);
#405 = ORIENTED_EDGE('',*,*,#406,.T.);
#406 = EDGE_CURVE('',#335,#383,#407,.T.);
#407 = LINE('',#408,#409);
#408 = CARTESIAN_POINT('',(14.865457364236,-49.43984402637,17.2));
#409 = VECTOR('',#410,1.);
#410 = DIRECTION('',(0.891006524188,0.45399049974,0.));
#411 = ORIENTED_EDGE('',*,*,#390,.T.);
#412 = ORIENTED_EDGE('',*,*,#149,.F.);
#413 = PLANE('',#414);
#414 = AXIS2_PLACEMENT_3D('',#415,#416,#417);
#415 = CARTESIAN_POINT('',(14.865457364236,-49.43984402637,17.2));
#416 = DIRECTION('',(0.45399049974,-0.891006524188,0.));
#417 = DIRECTION('',(0.,0.,1.));
#418 = ADVANCED_FACE('',(#419),#430,.F.);
#419 = FACE_BOUND('',#420,.F.);
#420 = EDGE_LOOP('',(#421,#422,#428,#429));
#421 = ORIENTED_EDGE('',*,*,#173,.F.);
#422 = ORIENTED_EDGE('',*,*,#423,.F.);
#423 = EDGE_CURVE('',#259,#174,#424,.T.);
#424 = LINE('',#425,#426);
#425 = CARTESIAN_POINT('',(42.890427522419,-55.58606091002,-40.));
#426 = VECTOR('',#427,1.);
#427 = DIRECTION('',(0.,0.,1.));
#428 = ORIENTED_EDGE('',*,*,#258,.T.);
#429 = ORIENTED_EDGE('',*,*,#423,.T.);
#430 = CYLINDRICAL_SURFACE('',#431,1.1);
#431 = AXIS2_PLACEMENT_3D('',#432,#433,#434);
#432 = CARTESIAN_POINT('',(41.790427522419,-55.58606091002,-40.));
#433 = DIRECTION('',(0.,0.,1.));
#434 = DIRECTION('',(1.,0.,-0.));
#435 = ADVANCED_FACE('',(#436),#447,.F.);
#436 = FACE_BOUND('',#437,.F.);
#437 = EDGE_LOOP('',(#438,#439,#445,#446));
#438 = ORIENTED_EDGE('',*,*,#184,.F.);
#439 = ORIENTED_EDGE('',*,*,#440,.F.);
#440 = EDGE_CURVE('',#270,#185,#441,.T.);
#441 = LINE('',#442,#443);
#442 = CARTESIAN_POINT('',(15.604394445284,-54.89874808932,-40.));
#443 = VECTOR('',#444,1.);
#444 = DIRECTION('',(0.,0.,1.));
#445 = ORIENTED_EDGE('',*,*,#269,.T.);
#446 = ORIENTED_EDGE('',*,*,#440,.T.);
#447 = CYLINDRICAL_SURFACE('',#448,1.1);
#448 = AXIS2_PLACEMENT_3D('',#449,#450,#451);
#449 = CARTESIAN_POINT('',(14.504394445284,-54.89874808932,-40.));
#450 = DIRECTION('',(0.,0.,1.));
#451 = DIRECTION('',(1.,0.,-0.));
#452 = ADVANCED_FACE('',(#453),#464,.F.);
#453 = FACE_BOUND('',#454,.F.);
#454 = EDGE_LOOP('',(#455,#456,#462,#463));
#455 = ORIENTED_EDGE('',*,*,#195,.F.);
#456 = ORIENTED_EDGE('',*,*,#457,.F.);
#457 = EDGE_CURVE('',#281,#196,#458,.T.);
#458 = LINE('',#459,#460);
#459 = CARTESIAN_POINT('',(36.988551025805,-44.00297609558,-40.));
#460 = VECTOR('',#461,1.);
#461 = DIRECTION('',(0.,0.,1.));
#462 = ORIENTED_EDGE('',*,*,#280,.T.);
#463 = ORIENTED_EDGE('',*,*,#457,.T.);
#464 = CYLINDRICAL_SURFACE('',#465,1.1);
#465 = AXIS2_PLACEMENT_3D('',#466,#467,#468);
#466 = CARTESIAN_POINT('',(35.888551025805,-44.00297609558,-40.));
#467 = DIRECTION('',(0.,0.,1.));
#468 = DIRECTION('',(1.,0.,-0.));
#469 = ADVANCED_FACE('',(#470),#476,.T.);
#470 = FACE_BOUND('',#471,.T.);
#471 = EDGE_LOOP('',(#472,#473,#474,#475));
#472 = ORIENTED_EDGE('',*,*,#406,.F.);
#473 = ORIENTED_EDGE('',*,*,#334,.T.);
#474 = ORIENTED_EDGE('',*,*,#358,.T.);
#475 = ORIENTED_EDGE('',*,*,#382,.F.);
#476 = PLANE('',#477);
#477 = AXIS2_PLACEMENT_3D('',#478,#479,#480);
#478 = CARTESIAN_POINT('',(14.865457364236,-49.43984402637,17.2));
#479 = DIRECTION('',(0.,0.,1.));
#480 = DIRECTION('',(0.45399049974,-0.891006524188,0.));
#481 = ( GEOMETRIC_REPRESENTATION_CONTEXT(3) 
GLOBAL_UNCERTAINTY_ASSIGNED_CONTEXT((#485)) GLOBAL_UNIT_ASSIGNED_CONTEXT
((#482,#483,#484)) REPRESENTATION_CONTEXT('Context #1',
  '3D Context with UNIT and UNCERTAINTY') );
#482 = ( LENGTH_UNIT() NAMED_UNIT(*) SI_UNIT(.MILLI.,.METRE.) );
#483 = ( NAMED_UNIT(*) PLANE_ANGLE_UNIT() SI_UNIT($,.RADIAN.) );
#484 = ( NAMED_UNIT(*) SI_UNIT($,.STERADIAN.) SOLID_ANGLE_UNIT() );
#485 = UNCERTAINTY_MEASURE_WITH_UNIT(LENGTH_MEASURE(1.E-07),#482,
  'distance_accuracy_value','confusion accuracy');
#486 = CONTEXT_DEPENDENT_SHAPE_REPRESENTATION(#487,#489);
#487 = ( REPRESENTATION_RELATIONSHIP('','',#32,#10) 
REPRESENTATION_RELATIONSHIP_WITH_TRANSFORMATION(#488) 
SHAPE_REPRESENTATION_RELATIONSHIP() );
#488 = ITEM_DEFINED_TRANSFORMATION('','',#11,#15);
#489 = PRODUCT_DEFINITION_SHAPE('Placement','Placement of an item',#490
  );
#490 = NEXT_ASSEMBLY_USAGE_OCCURRENCE('6','=>[0:1:1:2]','',#5,#27,$);
#491 = PRODUCT_RELATED_PRODUCT_CATEGORY('part',$,(#29));
ENDSEC;
END-ISO-10303-21;
