ISO-10303-21;
HEADER;
FILE_DESCRIPTION(('Open CASCADE Model'),'2;1');
FILE_NAME('Open CASCADE Shape Model','2026-09-08T15:12:01',('Author'),(
    'Open CASCADE'),'Open CASCADE STEP processor 7.9','build123d',
  'Unknown');
FILE_SCHEMA(('AUTOMOTIVE_DESIGN { 1 0 10303 214 1 1 1 1 }'));
ENDSEC;
DATA;
#1 = APPLICATION_PROTOCOL_DEFINITION('international standard',
  'automotive_design',2000,#2);
#2 = APPLICATION_CONTEXT(
  'core data for automotive mechanical design processes');
#3 = SHAPE_DEFINITION_REPRESENTATION(#4,#10);
#4 = PRODUCT_DEFINITION_SHAPE('','',#5);
#5 = PRODUCT_DEFINITION('design','',#6,#9);
#6 = PRODUCT_DEFINITION_FORMATION('','',#7);
#7 = PRODUCT('=>[0:1:1:2]','=>[0:1:1:2]','',(#8));
#8 = PRODUCT_CONTEXT('',#2,'mechanical');
#9 = PRODUCT_DEFINITION_CONTEXT('part definition',#2,'design');
#10 = SHAPE_REPRESENTATION('',(#11,#15),#19);
#11 = AXIS2_PLACEMENT_3D('',#12,#13,#14);
#12 = CARTESIAN_POINT('',(0.,0.,0.));
#13 = DIRECTION('',(0.,0.,1.));
#14 = DIRECTION('',(1.,0.,-0.));
#15 = AXIS2_PLACEMENT_3D('',#16,#17,#18);
#16 = CARTESIAN_POINT('',(2.071541983841,1.202129181403,0.));
#17 = DIRECTION('',(0.,0.,1.));
#18 = DIRECTION('',(1.,0.,-0.));
#19 = ( GEOMETRIC_REPRESENTATION_CONTEXT(3) 
GLOBAL_UNCERTAINTY_ASSIGNED_CONTEXT((#23)) GLOBAL_UNIT_ASSIGNED_CONTEXT(
(#20,#21,#22)) REPRESENTATION_CONTEXT('Context #1',
  '3D Context with UNIT and UNCERTAINTY') );
#20 = ( LENGTH_UNIT() NAMED_UNIT(*) SI_UNIT(.MILLI.,.METRE.) );
#21 = ( NAMED_UNIT(*) PLANE_ANGLE_UNIT() SI_UNIT($,.RADIAN.) );
#22 = ( NAMED_UNIT(*) SI_UNIT($,.STERADIAN.) SOLID_ANGLE_UNIT() );
#23 = UNCERTAINTY_MEASURE_WITH_UNIT(LENGTH_MEASURE(2.E-07),#20,
  'distance_accuracy_value','confusion accuracy');
#24 = PRODUCT_RELATED_PRODUCT_CATEGORY('part',$,(#7));
#25 = SHAPE_DEFINITION_REPRESENTATION(#26,#32);
#26 = PRODUCT_DEFINITION_SHAPE('','',#27);
#27 = PRODUCT_DEFINITION('design','',#28,#31);
#28 = PRODUCT_DEFINITION_FORMATION('','',#29);
#29 = PRODUCT('COMPOUND','COMPOUND','',(#30));
#30 = PRODUCT_CONTEXT('',#2,'mechanical');
#31 = PRODUCT_DEFINITION_CONTEXT('part definition',#2,'design');
#32 = ADVANCED_BREP_SHAPE_REPRESENTATION('',(#11,#33),#1670);
#33 = MANIFOLD_SOLID_BREP('',#34);
#34 = CLOSED_SHELL('',(#35,#94,#173,#274,#346,#390,#414,#639,#670,#694,
    #718,#742,#766,#783,#800,#823,#840,#905,#929,#992,#1033,#1098,#1115,
    #1180,#1202,#1219,#1236,#1248,#1272,#1284,#1296,#1313,#1330,#1354,
    #1379,#1396,#1421,#1445,#1469,#1493,#1510,#1534,#1551,#1568,#1585,
    #1602,#1619,#1631,#1646,#1658));
#35 = ADVANCED_FACE('',(#36),#89,.T.);
#36 = FACE_BOUND('',#37,.T.);
#37 = EDGE_LOOP('',(#38,#48,#57,#65,#74,#82));
#38 = ORIENTED_EDGE('',*,*,#39,.F.);
#39 = EDGE_CURVE('',#40,#42,#44,.T.);
#40 = VERTEX_POINT('',#41);
#41 = CARTESIAN_POINT('',(-2.212608136266,20.380244484189,0.));
#42 = VERTEX_POINT('',#43);
#43 = CARTESIAN_POINT('',(-2.212608136266,20.380244484189,4.45));
#44 = LINE('',#45,#46);
#45 = CARTESIAN_POINT('',(-2.212608136266,20.380244484189,0.));
#46 = VECTOR('',#47,1.);
#47 = DIRECTION('',(0.,0.,1.));
#48 = ORIENTED_EDGE('',*,*,#49,.T.);
#49 = EDGE_CURVE('',#40,#50,#52,.T.);
#50 = VERTEX_POINT('',#51);
#51 = CARTESIAN_POINT('',(-20.08236879797,-4.116851158593,0.));
#52 = CIRCLE('',#53,20.5);
#53 = AXIS2_PLACEMENT_3D('',#54,#55,#56);
#54 = CARTESIAN_POINT('',(0.,0.,0.));
#55 = DIRECTION('',(0.,0.,1.));
#56 = DIRECTION('',(1.,0.,-0.));
#57 = ORIENTED_EDGE('',*,*,#58,.T.);
#58 = EDGE_CURVE('',#50,#59,#61,.T.);
#59 = VERTEX_POINT('',#60);
#60 = CARTESIAN_POINT('',(-20.08236879797,-4.116851158593,2.));
#61 = LINE('',#62,#63);
#62 = CARTESIAN_POINT('',(-20.08236879797,-4.116851158593,0.));
#63 = VECTOR('',#64,1.);
#64 = DIRECTION('',(0.,0.,1.));
#65 = ORIENTED_EDGE('',*,*,#66,.T.);
#66 = EDGE_CURVE('',#59,#67,#69,.T.);
#67 = VERTEX_POINT('',#68);
#68 = CARTESIAN_POINT('',(-18.13326318321,-9.562152808252,2.));
#69 = CIRCLE('',#70,20.5);
#70 = AXIS2_PLACEMENT_3D('',#71,#72,#73);
#71 = CARTESIAN_POINT('',(0.,0.,2.));
#72 = DIRECTION('',(0.,0.,1.));
#73 = DIRECTION('',(1.,0.,-0.));
#74 = ORIENTED_EDGE('',*,*,#75,.T.);
#75 = EDGE_CURVE('',#67,#76,#78,.T.);
#76 = VERTEX_POINT('',#77);
#77 = CARTESIAN_POINT('',(-18.13326318321,-9.562152808252,4.45));
#78 = LINE('',#79,#80);
#79 = CARTESIAN_POINT('',(-18.13326318321,-9.562152808252,0.));
#80 = VECTOR('',#81,1.);
#81 = DIRECTION('',(0.,0.,1.));
#82 = ORIENTED_EDGE('',*,*,#83,.F.);
#83 = EDGE_CURVE('',#42,#76,#84,.T.);
#84 = CIRCLE('',#85,20.5);
#85 = AXIS2_PLACEMENT_3D('',#86,#87,#88);
#86 = CARTESIAN_POINT('',(0.,0.,4.45));
#87 = DIRECTION('',(0.,0.,1.));
#88 = DIRECTION('',(1.,0.,-0.));
#89 = CYLINDRICAL_SURFACE('',#90,20.5);
#90 = AXIS2_PLACEMENT_3D('',#91,#92,#93);
#91 = CARTESIAN_POINT('',(0.,0.,0.));
#92 = DIRECTION('',(0.,0.,1.));
#93 = DIRECTION('',(1.,0.,-0.));
#94 = ADVANCED_FACE('',(#95),#168,.T.);
#95 = FACE_BOUND('',#96,.T.);
#96 = EDGE_LOOP('',(#97,#107,#115,#121,#122,#130,#138,#146,#154,#162));
#97 = ORIENTED_EDGE('',*,*,#98,.T.);
#98 = EDGE_CURVE('',#99,#101,#103,.T.);
#99 = VERTEX_POINT('',#100);
#100 = CARTESIAN_POINT('',(-2.205801048754,20.185315002083,7.24));
#101 = VERTEX_POINT('',#102);
#102 = CARTESIAN_POINT('',(-2.273855067324,22.13412711477,7.24));
#103 = LINE('',#104,#105);
#104 = CARTESIAN_POINT('',(-2.183116375898,19.535710964521,7.24));
#105 = VECTOR('',#106,1.);
#106 = DIRECTION('',(-3.48994967025E-02,0.999390827019,0.));
#107 = ORIENTED_EDGE('',*,*,#108,.F.);
#108 = EDGE_CURVE('',#109,#101,#111,.T.);
#109 = VERTEX_POINT('',#110);
#110 = CARTESIAN_POINT('',(-2.273855067324,22.13412711477,0.));
#111 = LINE('',#112,#113);
#112 = CARTESIAN_POINT('',(-2.273855067324,22.13412711477,0.));
#113 = VECTOR('',#114,1.);
#114 = DIRECTION('',(0.,0.,1.));
#115 = ORIENTED_EDGE('',*,*,#116,.F.);
#116 = EDGE_CURVE('',#40,#109,#117,.T.);
#117 = LINE('',#118,#119);
#118 = CARTESIAN_POINT('',(-2.183116375898,19.535710964521,0.));
#119 = VECTOR('',#120,1.);
#120 = DIRECTION('',(-3.48994967025E-02,0.999390827019,0.));
#121 = ORIENTED_EDGE('',*,*,#39,.T.);
#122 = ORIENTED_EDGE('',*,*,#123,.T.);
#123 = EDGE_CURVE('',#42,#124,#126,.T.);
#124 = VERTEX_POINT('',#125);
#125 = CARTESIAN_POINT('',(-2.183116375898,19.535710964521,4.45));
#126 = LINE('',#127,#128);
#127 = CARTESIAN_POINT('',(-1.841101308213,9.741680859733,4.45));
#128 = VECTOR('',#129,1.);
#129 = DIRECTION('',(3.48994967025E-02,-0.999390827019,0.));
#130 = ORIENTED_EDGE('',*,*,#131,.T.);
#131 = EDGE_CURVE('',#124,#132,#134,.T.);
#132 = VERTEX_POINT('',#133);
#133 = CARTESIAN_POINT('',(-2.183116375898,19.535710964521,6.05));
#134 = LINE('',#135,#136);
#135 = CARTESIAN_POINT('',(-2.183116375898,19.535710964521,0.));
#136 = VECTOR('',#137,1.);
#137 = DIRECTION('',(0.,0.,1.));
#138 = ORIENTED_EDGE('',*,*,#139,.F.);
#139 = EDGE_CURVE('',#140,#132,#142,.T.);
#140 = VERTEX_POINT('',#141);
#141 = CARTESIAN_POINT('',(-2.170901552052,19.185924175064,6.05));
#142 = LINE('',#143,#144);
#143 = CARTESIAN_POINT('',(-2.170901552052,19.185924175064,6.05));
#144 = VECTOR('',#145,1.);
#145 = DIRECTION('',(-3.48994967025E-02,0.999390827019,0.));
#146 = ORIENTED_EDGE('',*,*,#147,.T.);
#147 = EDGE_CURVE('',#140,#148,#150,.T.);
#148 = VERTEX_POINT('',#149);
#149 = CARTESIAN_POINT('',(-2.170901552052,19.185924175064,7.25));
#150 = LINE('',#151,#152);
#151 = CARTESIAN_POINT('',(-2.170901552052,19.185924175064,6.05));
#152 = VECTOR('',#153,1.);
#153 = DIRECTION('',(0.,0.,1.));
#154 = ORIENTED_EDGE('',*,*,#155,.T.);
#155 = EDGE_CURVE('',#148,#156,#158,.T.);
#156 = VERTEX_POINT('',#157);
#157 = CARTESIAN_POINT('',(-2.205801048754,20.185315002083,7.25));
#158 = LINE('',#159,#160);
#159 = CARTESIAN_POINT('',(-2.170901552052,19.185924175064,7.25));
#160 = VECTOR('',#161,1.);
#161 = DIRECTION('',(-3.48994967025E-02,0.999390827019,0.));
#162 = ORIENTED_EDGE('',*,*,#163,.F.);
#163 = EDGE_CURVE('',#99,#156,#164,.T.);
#164 = LINE('',#165,#166);
#165 = CARTESIAN_POINT('',(-2.205801048754,20.185315002083,6.05));
#166 = VECTOR('',#167,1.);
#167 = DIRECTION('',(0.,0.,1.));
#168 = PLANE('',#169);
#169 = AXIS2_PLACEMENT_3D('',#170,#171,#172);
#170 = CARTESIAN_POINT('',(-2.183116375898,19.535710964521,0.));
#171 = DIRECTION('',(-0.999390827019,-3.48994967025E-02,0.));
#172 = DIRECTION('',(0.,0.,1.));
#173 = ADVANCED_FACE('',(#174,#258),#269,.T.);
#174 = FACE_BOUND('',#175,.T.);
#175 = EDGE_LOOP('',(#176,#177,#178,#186,#194,#202,#211,#219,#227,#235,
    #244,#252));
#176 = ORIENTED_EDGE('',*,*,#123,.F.);
#177 = ORIENTED_EDGE('',*,*,#83,.T.);
#178 = ORIENTED_EDGE('',*,*,#179,.T.);
#179 = EDGE_CURVE('',#76,#180,#182,.T.);
#180 = VERTEX_POINT('',#181);
#181 = CARTESIAN_POINT('',(-17.41662158101,-9.114345434736,4.45));
#182 = LINE('',#183,#184);
#183 = CARTESIAN_POINT('',(-9.105750238683,-3.921136645251,4.45));
#184 = VECTOR('',#185,1.);
#185 = DIRECTION('',(0.848048096156,0.529919264233,-0.));
#186 = ORIENTED_EDGE('',*,*,#187,.T.);
#187 = EDGE_CURVE('',#180,#188,#190,.T.);
#188 = VERTEX_POINT('',#189);
#189 = CARTESIAN_POINT('',(-15.82686378831,-11.6584897232,4.45));
#190 = LINE('',#191,#192);
#191 = CARTESIAN_POINT('',(-17.01918213284,-9.750381506853,4.45));
#192 = VECTOR('',#193,1.);
#193 = DIRECTION('',(0.529919264233,-0.848048096156,0.));
#194 = ORIENTED_EDGE('',*,*,#195,.F.);
#195 = EDGE_CURVE('',#196,#188,#198,.T.);
#196 = VERTEX_POINT('',#197);
#197 = CARTESIAN_POINT('',(-16.54350539051,-12.10629709672,4.45));
#198 = LINE('',#199,#200);
#199 = CARTESIAN_POINT('',(-7.515992445983,-6.46528093372,4.45));
#200 = VECTOR('',#201,1.);
#201 = DIRECTION('',(0.848048096156,0.529919264233,-0.));
#202 = ORIENTED_EDGE('',*,*,#203,.T.);
#203 = EDGE_CURVE('',#196,#204,#206,.T.);
#204 = VERTEX_POINT('',#205);
#205 = CARTESIAN_POINT('',(17.347698838421,-10.92279016604,4.45));
#206 = CIRCLE('',#207,20.5);
#207 = AXIS2_PLACEMENT_3D('',#208,#209,#210);
#208 = CARTESIAN_POINT('',(0.,0.,4.45));
#209 = DIRECTION('',(0.,0.,1.));
#210 = DIRECTION('',(-0.807000262952,-0.590551077889,0.));
#211 = ORIENTED_EDGE('',*,*,#212,.T.);
#212 = EDGE_CURVE('',#204,#213,#215,.T.);
#213 = VERTEX_POINT('',#214);
#214 = CARTESIAN_POINT('',(16.601565475856,-10.52606401989,4.45));
#215 = LINE('',#216,#217);
#216 = CARTESIAN_POINT('',(7.948679065839,-5.92524270459,4.45));
#217 = VECTOR('',#218,1.);
#218 = DIRECTION('',(-0.882947592859,0.469471562786,0.));
#219 = ORIENTED_EDGE('',*,*,#220,.T.);
#220 = EDGE_CURVE('',#213,#221,#223,.T.);
#221 = VERTEX_POINT('',#222);
#222 = CARTESIAN_POINT('',(18.009980164214,-7.877221241315,4.45));
#223 = LINE('',#224,#225);
#224 = CARTESIAN_POINT('',(16.953669147946,-9.863853325248,4.45));
#225 = VECTOR('',#226,1.);
#226 = DIRECTION('',(0.469471562786,0.882947592859,-0.));
#227 = ORIENTED_EDGE('',*,*,#228,.F.);
#228 = EDGE_CURVE('',#229,#221,#231,.T.);
#229 = VERTEX_POINT('',#230);
#230 = CARTESIAN_POINT('',(18.756113526779,-8.273947387468,4.45));
#231 = LINE('',#232,#233);
#232 = CARTESIAN_POINT('',(9.357093754196,-3.276399926013,4.45));
#233 = VECTOR('',#234,1.);
#234 = DIRECTION('',(-0.882947592859,0.469471562786,0.));
#235 = ORIENTED_EDGE('',*,*,#236,.T.);
#236 = EDGE_CURVE('',#229,#237,#239,.T.);
#237 = VERTEX_POINT('',#238);
#238 = CARTESIAN_POINT('',(0.785564344791,20.484942974297,4.45));
#239 = CIRCLE('',#240,20.5);
#240 = AXIS2_PLACEMENT_3D('',#241,#242,#243);
#241 = CARTESIAN_POINT('',(0.,0.,4.45));
#242 = DIRECTION('',(0.,0.,1.));
#243 = DIRECTION('',(-0.807000262952,-0.590551077889,0.));
#244 = ORIENTED_EDGE('',*,*,#245,.T.);
#245 = EDGE_CURVE('',#237,#246,#248,.T.);
#246 = VERTEX_POINT('',#247);
#247 = CARTESIAN_POINT('',(0.81505610516,19.640409454628,4.45));
#248 = LINE('',#249,#250);
#249 = CARTESIAN_POINT('',(1.157071172844,9.846379349841,4.45));
#250 = VECTOR('',#251,1.);
#251 = DIRECTION('',(3.48994967025E-02,-0.999390827019,0.));
#252 = ORIENTED_EDGE('',*,*,#253,.T.);
#253 = EDGE_CURVE('',#246,#124,#254,.T.);
#254 = LINE('',#255,#256);
#255 = CARTESIAN_POINT('',(6.55129848953E-02,19.614234832101,4.45));
#256 = VECTOR('',#257,1.);
#257 = DIRECTION('',(-0.999390827019,-3.48994967025E-02,0.));
#258 = FACE_BOUND('',#259,.T.);
#259 = EDGE_LOOP('',(#260));
#260 = ORIENTED_EDGE('',*,*,#261,.F.);
#261 = EDGE_CURVE('',#262,#262,#264,.T.);
#262 = VERTEX_POINT('',#263);
#263 = CARTESIAN_POINT('',(18.3,-4.482207284879E-15,4.45));
#264 = CIRCLE('',#265,18.3);
#265 = AXIS2_PLACEMENT_3D('',#266,#267,#268);
#266 = CARTESIAN_POINT('',(0.,0.,4.45));
#267 = DIRECTION('',(0.,0.,1.));
#268 = DIRECTION('',(1.,0.,-0.));
#269 = PLANE('',#270);
#270 = AXIS2_PLACEMENT_3D('',#271,#272,#273);
#271 = CARTESIAN_POINT('',(0.,0.,4.45));
#272 = DIRECTION('',(0.,0.,1.));
#273 = DIRECTION('',(1.,0.,-0.));
#274 = ADVANCED_FACE('',(#275),#341,.F.);
#275 = FACE_BOUND('',#276,.F.);
#276 = EDGE_LOOP('',(#277,#287,#295,#303,#309,#310,#311,#319,#327,#335)
  );
#277 = ORIENTED_EDGE('',*,*,#278,.F.);
#278 = EDGE_CURVE('',#279,#281,#283,.T.);
#279 = VERTEX_POINT('',#280);
#280 = CARTESIAN_POINT('',(-17.96785284351,-9.458792956488,7.24));
#281 = VERTEX_POINT('',#282);
#282 = CARTESIAN_POINT('',(-17.96785284351,-9.458792956488,7.25));
#283 = LINE('',#284,#285);
#284 = CARTESIAN_POINT('',(-17.96785284351,-9.458792956488,6.05));
#285 = VECTOR('',#286,1.);
#286 = DIRECTION('',(0.,0.,1.));
#287 = ORIENTED_EDGE('',*,*,#288,.T.);
#288 = EDGE_CURVE('',#279,#289,#291,.T.);
#289 = VERTEX_POINT('',#290);
#290 = CARTESIAN_POINT('',(-19.62154663102,-10.49213552174,7.24));
#291 = LINE('',#292,#293);
#292 = CARTESIAN_POINT('',(-17.41662158101,-9.114345434736,7.24));
#293 = VECTOR('',#294,1.);
#294 = DIRECTION('',(-0.848048096156,-0.529919264233,0.));
#295 = ORIENTED_EDGE('',*,*,#296,.F.);
#296 = EDGE_CURVE('',#297,#289,#299,.T.);
#297 = VERTEX_POINT('',#298);
#298 = CARTESIAN_POINT('',(-19.62154663102,-10.49213552174,2.));
#299 = LINE('',#300,#301);
#300 = CARTESIAN_POINT('',(-19.62154663102,-10.49213552174,0.));
#301 = VECTOR('',#302,1.);
#302 = DIRECTION('',(0.,0.,1.));
#303 = ORIENTED_EDGE('',*,*,#304,.F.);
#304 = EDGE_CURVE('',#67,#297,#305,.T.);
#305 = LINE('',#306,#307);
#306 = CARTESIAN_POINT('',(-18.4378076075,-9.75245328529,2.));
#307 = VECTOR('',#308,1.);
#308 = DIRECTION('',(-0.848048096156,-0.529919264233,0.));
#309 = ORIENTED_EDGE('',*,*,#75,.T.);
#310 = ORIENTED_EDGE('',*,*,#179,.T.);
#311 = ORIENTED_EDGE('',*,*,#312,.T.);
#312 = EDGE_CURVE('',#180,#313,#315,.T.);
#313 = VERTEX_POINT('',#314);
#314 = CARTESIAN_POINT('',(-17.41662158101,-9.114345434736,6.05));
#315 = LINE('',#316,#317);
#316 = CARTESIAN_POINT('',(-17.41662158101,-9.114345434736,0.));
#317 = VECTOR('',#318,1.);
#318 = DIRECTION('',(0.,0.,1.));
#319 = ORIENTED_EDGE('',*,*,#320,.F.);
#320 = EDGE_CURVE('',#321,#313,#323,.T.);
#321 = VERTEX_POINT('',#322);
#322 = CARTESIAN_POINT('',(-17.11980474736,-8.928873692255,6.05));
#323 = LINE('',#324,#325);
#324 = CARTESIAN_POINT('',(-17.11980474736,-8.928873692255,6.05));
#325 = VECTOR('',#326,1.);
#326 = DIRECTION('',(-0.848048096156,-0.529919264233,0.));
#327 = ORIENTED_EDGE('',*,*,#328,.T.);
#328 = EDGE_CURVE('',#321,#329,#331,.T.);
#329 = VERTEX_POINT('',#330);
#330 = CARTESIAN_POINT('',(-17.11980474736,-8.928873692255,7.25));
#331 = LINE('',#332,#333);
#332 = CARTESIAN_POINT('',(-17.11980474736,-8.928873692255,6.05));
#333 = VECTOR('',#334,1.);
#334 = DIRECTION('',(0.,0.,1.));
#335 = ORIENTED_EDGE('',*,*,#336,.T.);
#336 = EDGE_CURVE('',#329,#281,#337,.T.);
#337 = LINE('',#338,#339);
#338 = CARTESIAN_POINT('',(-17.11980474736,-8.928873692255,7.25));
#339 = VECTOR('',#340,1.);
#340 = DIRECTION('',(-0.848048096156,-0.529919264233,0.));
#341 = PLANE('',#342);
#342 = AXIS2_PLACEMENT_3D('',#343,#344,#345);
#343 = CARTESIAN_POINT('',(-17.41662158101,-9.114345434736,0.));
#344 = DIRECTION('',(0.529919264233,-0.848048096156,0.));
#345 = DIRECTION('',(0.,0.,1.));
#346 = ADVANCED_FACE('',(#347,#374),#385,.T.);
#347 = FACE_BOUND('',#348,.T.);
#348 = EDGE_LOOP('',(#349,#360,#366,#367,#368));
#349 = ORIENTED_EDGE('',*,*,#350,.F.);
#350 = EDGE_CURVE('',#351,#353,#355,.T.);
#351 = VERTEX_POINT('',#352);
#352 = CARTESIAN_POINT('',(-19.45370301068,-10.76074146284,2.));
#353 = VERTEX_POINT('',#354);
#354 = CARTESIAN_POINT('',(-20.47508943395,-4.259789780469,2.));
#355 = CIRCLE('',#356,3.5);
#356 = AXIS2_PLACEMENT_3D('',#357,#358,#359);
#357 = CARTESIAN_POINT('',(-21.14308396768,-7.695453224828,2.));
#358 = DIRECTION('',(0.,-0.,-1.));
#359 = DIRECTION('',(0.777175826768,-0.629283508673,0.));
#360 = ORIENTED_EDGE('',*,*,#361,.T.);
#361 = EDGE_CURVE('',#351,#297,#362,.T.);
#362 = LINE('',#363,#364);
#363 = CARTESIAN_POINT('',(-20.46359179786,-9.144581566235,2.));
#364 = VECTOR('',#365,1.);
#365 = DIRECTION('',(-0.529919264233,0.848048096156,0.));
#366 = ORIENTED_EDGE('',*,*,#304,.F.);
#367 = ORIENTED_EDGE('',*,*,#66,.F.);
#368 = ORIENTED_EDGE('',*,*,#369,.T.);
#369 = EDGE_CURVE('',#59,#353,#370,.T.);
#370 = LINE('',#371,#372);
#371 = CARTESIAN_POINT('',(-17.94052760412,-3.337284717504,2.));
#372 = VECTOR('',#373,1.);
#373 = DIRECTION('',(-0.939692620786,-0.342020143326,0.));
#374 = FACE_BOUND('',#375,.T.);
#375 = EDGE_LOOP('',(#376));
#376 = ORIENTED_EDGE('',*,*,#377,.F.);
#377 = EDGE_CURVE('',#378,#378,#380,.T.);
#378 = VERTEX_POINT('',#379);
#379 = CARTESIAN_POINT('',(-22.45865363678,-8.174281425483,2.));
#380 = CIRCLE('',#381,1.4);
#381 = AXIS2_PLACEMENT_3D('',#382,#383,#384);
#382 = CARTESIAN_POINT('',(-21.14308396768,-7.695453224828,2.));
#383 = DIRECTION('',(0.,0.,1.));
#384 = DIRECTION('',(-0.939692620786,-0.342020143326,0.));
#385 = PLANE('',#386);
#386 = AXIS2_PLACEMENT_3D('',#387,#388,#389);
#387 = CARTESIAN_POINT('',(-21.14308396768,-7.695453224828,2.));
#388 = DIRECTION('',(0.,0.,1.));
#389 = DIRECTION('',(-0.939692620786,-0.342020143326,0.));
#390 = ADVANCED_FACE('',(#391),#409,.F.);
#391 = FACE_BOUND('',#392,.F.);
#392 = EDGE_LOOP('',(#393,#401,#402,#403));
#393 = ORIENTED_EDGE('',*,*,#394,.F.);
#394 = EDGE_CURVE('',#50,#395,#397,.T.);
#395 = VERTEX_POINT('',#396);
#396 = CARTESIAN_POINT('',(-20.47508943395,-4.259789780469,0.));
#397 = LINE('',#398,#399);
#398 = CARTESIAN_POINT('',(-17.94052760412,-3.337284717504,0.));
#399 = VECTOR('',#400,1.);
#400 = DIRECTION('',(-0.939692620786,-0.342020143326,0.));
#401 = ORIENTED_EDGE('',*,*,#58,.T.);
#402 = ORIENTED_EDGE('',*,*,#369,.T.);
#403 = ORIENTED_EDGE('',*,*,#404,.F.);
#404 = EDGE_CURVE('',#395,#353,#405,.T.);
#405 = LINE('',#406,#407);
#406 = CARTESIAN_POINT('',(-20.47508943395,-4.259789780469,0.));
#407 = VECTOR('',#408,1.);
#408 = DIRECTION('',(0.,0.,1.));
#409 = PLANE('',#410);
#410 = AXIS2_PLACEMENT_3D('',#411,#412,#413);
#411 = CARTESIAN_POINT('',(-17.94052760412,-3.337284717504,0.));
#412 = DIRECTION('',(0.342020143326,-0.939692620786,0.));
#413 = DIRECTION('',(0.,0.,1.));
#414 = ADVANCED_FACE('',(#415,#535,#546,#557),#634,.F.);
#415 = FACE_BOUND('',#416,.F.);
#416 = EDGE_LOOP('',(#417,#418,#419,#420,#429,#437,#445,#454,#462,#471,
    #479,#488,#496,#504,#512,#521,#529));
#417 = ORIENTED_EDGE('',*,*,#116,.F.);
#418 = ORIENTED_EDGE('',*,*,#49,.T.);
#419 = ORIENTED_EDGE('',*,*,#394,.T.);
#420 = ORIENTED_EDGE('',*,*,#421,.T.);
#421 = EDGE_CURVE('',#395,#422,#424,.T.);
#422 = VERTEX_POINT('',#423);
#423 = CARTESIAN_POINT('',(-19.45370301068,-10.76074146284,0.));
#424 = CIRCLE('',#425,3.5);
#425 = AXIS2_PLACEMENT_3D('',#426,#427,#428);
#426 = CARTESIAN_POINT('',(-21.14308396768,-7.695453224828,0.));
#427 = DIRECTION('',(0.,-0.,1.));
#428 = DIRECTION('',(0.190855581066,0.98161812696,0.));
#429 = ORIENTED_EDGE('',*,*,#430,.T.);
#430 = EDGE_CURVE('',#422,#431,#433,.T.);
#431 = VERTEX_POINT('',#432);
#432 = CARTESIAN_POINT('',(-18.03178883832,-13.03627981021,0.));
#433 = LINE('',#434,#435);
#434 = CARTESIAN_POINT('',(-19.62154663102,-10.49213552174,0.));
#435 = VECTOR('',#436,1.);
#436 = DIRECTION('',(0.529919264233,-0.848048096156,0.));
#437 = ORIENTED_EDGE('',*,*,#438,.F.);
#438 = EDGE_CURVE('',#439,#431,#441,.T.);
#439 = VERTEX_POINT('',#440);
#440 = CARTESIAN_POINT('',(-16.54350539051,-12.10629709672,0.));
#441 = LINE('',#442,#443);
#442 = CARTESIAN_POINT('',(-15.82686378831,-11.6584897232,0.));
#443 = VECTOR('',#444,1.);
#444 = DIRECTION('',(-0.848048096156,-0.529919264233,0.));
#445 = ORIENTED_EDGE('',*,*,#446,.F.);
#446 = EDGE_CURVE('',#447,#439,#449,.T.);
#447 = VERTEX_POINT('',#448);
#448 = CARTESIAN_POINT('',(4.116851158593,-20.08236879797,0.));
#449 = CIRCLE('',#450,20.5);
#450 = AXIS2_PLACEMENT_3D('',#451,#452,#453);
#451 = CARTESIAN_POINT('',(0.,0.,0.));
#452 = DIRECTION('',(0.,0.,-1.));
#453 = DIRECTION('',(3.832021194105E-02,0.999265510941,0.));
#454 = ORIENTED_EDGE('',*,*,#455,.T.);
#455 = EDGE_CURVE('',#447,#456,#458,.T.);
#456 = VERTEX_POINT('',#457);
#457 = CARTESIAN_POINT('',(4.259789780469,-20.47508943395,0.));
#458 = LINE('',#459,#460);
#459 = CARTESIAN_POINT('',(3.337284717504,-17.94052760412,0.));
#460 = VECTOR('',#461,1.);
#461 = DIRECTION('',(0.342020143326,-0.939692620786,0.));
#462 = ORIENTED_EDGE('',*,*,#463,.T.);
#463 = EDGE_CURVE('',#456,#464,#466,.T.);
#464 = VERTEX_POINT('',#465);
#465 = CARTESIAN_POINT('',(9.897945505184,-18.42296857399,0.));
#466 = CIRCLE('',#467,3.5);
#467 = AXIS2_PLACEMENT_3D('',#468,#469,#470);
#468 = CARTESIAN_POINT('',(7.695453224828,-21.14308396768,0.));
#469 = DIRECTION('',(0.,0.,1.));
#470 = DIRECTION('',(-0.98161812696,0.190855581066,0.));
#471 = ORIENTED_EDGE('',*,*,#472,.F.);
#472 = EDGE_CURVE('',#473,#464,#475,.T.);
#473 = VERTEX_POINT('',#474);
#474 = CARTESIAN_POINT('',(9.755006883308,-18.03024793802,0.));
#475 = LINE('',#476,#477);
#476 = CARTESIAN_POINT('',(8.97544044222,-15.88840674416,0.));
#477 = VECTOR('',#478,1.);
#478 = DIRECTION('',(0.342020143326,-0.939692620786,0.));
#479 = ORIENTED_EDGE('',*,*,#480,.F.);
#480 = EDGE_CURVE('',#481,#473,#483,.T.);
#481 = VERTEX_POINT('',#482);
#482 = CARTESIAN_POINT('',(17.347698838421,-10.92279016604,0.));
#483 = CIRCLE('',#484,20.5);
#484 = AXIS2_PLACEMENT_3D('',#485,#486,#487);
#485 = CARTESIAN_POINT('',(0.,0.,0.));
#486 = DIRECTION('',(0.,0.,-1.));
#487 = DIRECTION('',(3.832021194105E-02,0.999265510941,0.));
#488 = ORIENTED_EDGE('',*,*,#489,.T.);
#489 = EDGE_CURVE('',#481,#490,#492,.T.);
#490 = VERTEX_POINT('',#491);
#491 = CARTESIAN_POINT('',(18.897229217289,-11.74669008313,0.));
#492 = LINE('',#493,#494);
#493 = CARTESIAN_POINT('',(16.601565475856,-10.52606401989,0.));
#494 = VECTOR('',#495,1.);
#495 = DIRECTION('',(0.882947592859,-0.469471562786,0.));
#496 = ORIENTED_EDGE('',*,*,#497,.T.);
#497 = EDGE_CURVE('',#490,#498,#500,.T.);
#498 = VERTEX_POINT('',#499);
#499 = CARTESIAN_POINT('',(20.305643905647,-9.097847304558,0.));
#500 = LINE('',#501,#502);
#501 = CARTESIAN_POINT('',(18.897229217289,-11.74669008313,0.));
#502 = VECTOR('',#503,1.);
#503 = DIRECTION('',(0.469471562786,0.882947592859,0.));
#504 = ORIENTED_EDGE('',*,*,#505,.F.);
#505 = EDGE_CURVE('',#506,#498,#508,.T.);
#506 = VERTEX_POINT('',#507);
#507 = CARTESIAN_POINT('',(18.756113526779,-8.273947387468,0.));
#508 = LINE('',#509,#510);
#509 = CARTESIAN_POINT('',(18.009980164214,-7.877221241315,0.));
#510 = VECTOR('',#511,1.);
#511 = DIRECTION('',(0.882947592859,-0.469471562786,0.));
#512 = ORIENTED_EDGE('',*,*,#513,.F.);
#513 = EDGE_CURVE('',#514,#506,#516,.T.);
#514 = VERTEX_POINT('',#515);
#515 = CARTESIAN_POINT('',(0.785564344791,20.484942974297,0.));
#516 = CIRCLE('',#517,20.5);
#517 = AXIS2_PLACEMENT_3D('',#518,#519,#520);
#518 = CARTESIAN_POINT('',(0.,0.,0.));
#519 = DIRECTION('',(0.,0.,-1.));
#520 = DIRECTION('',(3.832021194105E-02,0.999265510941,0.));
#521 = ORIENTED_EDGE('',*,*,#522,.T.);
#522 = EDGE_CURVE('',#514,#523,#525,.T.);
#523 = VERTEX_POINT('',#524);
#524 = CARTESIAN_POINT('',(0.724317413733,22.238825604878,0.));
#525 = LINE('',#526,#527);
#526 = CARTESIAN_POINT('',(0.81505610516,19.640409454628,0.));
#527 = VECTOR('',#528,1.);
#528 = DIRECTION('',(-3.48994967025E-02,0.999390827019,0.));
#529 = ORIENTED_EDGE('',*,*,#530,.T.);
#530 = EDGE_CURVE('',#523,#109,#531,.T.);
#531 = LINE('',#532,#533);
#532 = CARTESIAN_POINT('',(0.724317413733,22.238825604878,0.));
#533 = VECTOR('',#534,1.);
#534 = DIRECTION('',(-0.999390827019,-3.48994967025E-02,0.));
#535 = FACE_BOUND('',#536,.F.);
#536 = EDGE_LOOP('',(#537));
#537 = ORIENTED_EDGE('',*,*,#538,.F.);
#538 = EDGE_CURVE('',#539,#539,#541,.T.);
#539 = VERTEX_POINT('',#540);
#540 = CARTESIAN_POINT('',(-22.45865363678,-8.174281425483,0.));
#541 = CIRCLE('',#542,1.4);
#542 = AXIS2_PLACEMENT_3D('',#543,#544,#545);
#543 = CARTESIAN_POINT('',(-21.14308396768,-7.695453224828,0.));
#544 = DIRECTION('',(0.,0.,1.));
#545 = DIRECTION('',(-0.939692620786,-0.342020143326,0.));
#546 = FACE_BOUND('',#547,.F.);
#547 = EDGE_LOOP('',(#548));
#548 = ORIENTED_EDGE('',*,*,#549,.F.);
#549 = EDGE_CURVE('',#550,#550,#552,.T.);
#550 = VERTEX_POINT('',#551);
#551 = CARTESIAN_POINT('',(8.174281425483,-22.45865363678,0.));
#552 = CIRCLE('',#553,1.4);
#553 = AXIS2_PLACEMENT_3D('',#554,#555,#556);
#554 = CARTESIAN_POINT('',(7.695453224828,-21.14308396768,0.));
#555 = DIRECTION('',(0.,0.,1.));
#556 = DIRECTION('',(0.342020143326,-0.939692620786,0.));
#557 = FACE_BOUND('',#558,.F.);
#558 = EDGE_LOOP('',(#559,#570,#578,#586,#594,#603,#611,#619,#627));
#559 = ORIENTED_EDGE('',*,*,#560,.F.);
#560 = EDGE_CURVE('',#561,#563,#565,.T.);
#561 = VERTEX_POINT('',#562);
#562 = CARTESIAN_POINT('',(8.993370389926,-15.93766887062,0.));
#563 = VERTEX_POINT('',#564);
#564 = CARTESIAN_POINT('',(18.3,-4.482207284879E-15,0.));
#565 = CIRCLE('',#566,18.3);
#566 = AXIS2_PLACEMENT_3D('',#567,#568,#569);
#567 = CARTESIAN_POINT('',(0.,0.,0.));
#568 = DIRECTION('',(0.,0.,1.));
#569 = DIRECTION('',(1.,0.,-0.));
#570 = ORIENTED_EDGE('',*,*,#571,.F.);
#571 = EDGE_CURVE('',#572,#561,#574,.T.);
#572 = VERTEX_POINT('',#573);
#573 = CARTESIAN_POINT('',(8.97544044222,-15.88840674416,0.));
#574 = LINE('',#575,#576);
#575 = CARTESIAN_POINT('',(8.97544044222,-15.88840674416,0.));
#576 = VECTOR('',#577,1.);
#577 = DIRECTION('',(0.342020143326,-0.939692620786,0.));
#578 = ORIENTED_EDGE('',*,*,#579,.F.);
#579 = EDGE_CURVE('',#580,#572,#582,.T.);
#580 = VERTEX_POINT('',#581);
#581 = CARTESIAN_POINT('',(3.337284717504,-17.94052760412,0.));
#582 = LINE('',#583,#584);
#583 = CARTESIAN_POINT('',(3.337284717504,-17.94052760412,0.));
#584 = VECTOR('',#585,1.);
#585 = DIRECTION('',(0.939692620786,0.342020143326,0.));
#586 = ORIENTED_EDGE('',*,*,#587,.T.);
#587 = EDGE_CURVE('',#580,#588,#590,.T.);
#588 = VERTEX_POINT('',#589);
#589 = CARTESIAN_POINT('',(3.35521466521,-17.98978973057,0.));
#590 = LINE('',#591,#592);
#591 = CARTESIAN_POINT('',(3.337284717504,-17.94052760412,0.));
#592 = VECTOR('',#593,1.);
#593 = DIRECTION('',(0.342020143326,-0.939692620786,0.));
#594 = ORIENTED_EDGE('',*,*,#595,.F.);
#595 = EDGE_CURVE('',#596,#588,#598,.T.);
#596 = VERTEX_POINT('',#597);
#597 = CARTESIAN_POINT('',(-15.93766887062,-8.993370389926,0.));
#598 = CIRCLE('',#599,18.3);
#599 = AXIS2_PLACEMENT_3D('',#600,#601,#602);
#600 = CARTESIAN_POINT('',(0.,0.,0.));
#601 = DIRECTION('',(0.,0.,1.));
#602 = DIRECTION('',(1.,0.,-0.));
#603 = ORIENTED_EDGE('',*,*,#604,.F.);
#604 = EDGE_CURVE('',#605,#596,#607,.T.);
#605 = VERTEX_POINT('',#606);
#606 = CARTESIAN_POINT('',(-15.88840674416,-8.97544044222,0.));
#607 = LINE('',#608,#609);
#608 = CARTESIAN_POINT('',(-15.88840674416,-8.97544044222,0.));
#609 = VECTOR('',#610,1.);
#610 = DIRECTION('',(-0.939692620786,-0.342020143326,0.));
#611 = ORIENTED_EDGE('',*,*,#612,.F.);
#612 = EDGE_CURVE('',#613,#605,#615,.T.);
#613 = VERTEX_POINT('',#614);
#614 = CARTESIAN_POINT('',(-17.94052760412,-3.337284717504,0.));
#615 = LINE('',#616,#617);
#616 = CARTESIAN_POINT('',(-17.94052760412,-3.337284717504,0.));
#617 = VECTOR('',#618,1.);
#618 = DIRECTION('',(0.342020143326,-0.939692620786,0.));
#619 = ORIENTED_EDGE('',*,*,#620,.T.);
#620 = EDGE_CURVE('',#613,#621,#623,.T.);
#621 = VERTEX_POINT('',#622);
#622 = CARTESIAN_POINT('',(-17.98978973057,-3.35521466521,0.));
#623 = LINE('',#624,#625);
#624 = CARTESIAN_POINT('',(-17.94052760412,-3.337284717504,0.));
#625 = VECTOR('',#626,1.);
#626 = DIRECTION('',(-0.939692620786,-0.342020143326,0.));
#627 = ORIENTED_EDGE('',*,*,#628,.F.);
#628 = EDGE_CURVE('',#563,#621,#629,.T.);
#629 = CIRCLE('',#630,18.3);
#630 = AXIS2_PLACEMENT_3D('',#631,#632,#633);
#631 = CARTESIAN_POINT('',(0.,0.,0.));
#632 = DIRECTION('',(0.,0.,1.));
#633 = DIRECTION('',(1.,0.,-0.));
#634 = PLANE('',#635);
#635 = AXIS2_PLACEMENT_3D('',#636,#637,#638);
#636 = CARTESIAN_POINT('',(0.,0.,0.));
#637 = DIRECTION('',(0.,0.,1.));
#638 = DIRECTION('',(1.,0.,-0.));
#639 = ADVANCED_FACE('',(#640),#665,.T.);
#640 = FACE_BOUND('',#641,.T.);
#641 = EDGE_LOOP('',(#642,#643,#651,#659));
#642 = ORIENTED_EDGE('',*,*,#98,.F.);
#643 = ORIENTED_EDGE('',*,*,#644,.F.);
#644 = EDGE_CURVE('',#645,#99,#647,.T.);
#645 = VERTEX_POINT('',#646);
#646 = CARTESIAN_POINT('',(0.792371432303,20.29001349219,7.24));
#647 = LINE('',#648,#649);
#648 = CARTESIAN_POINT('',(0.792371432303,20.29001349219,7.24));
#649 = VECTOR('',#650,1.);
#650 = DIRECTION('',(-0.999390827019,-3.48994967025E-02,0.));
#651 = ORIENTED_EDGE('',*,*,#652,.T.);
#652 = EDGE_CURVE('',#645,#653,#655,.T.);
#653 = VERTEX_POINT('',#654);
#654 = CARTESIAN_POINT('',(0.724317413733,22.238825604878,7.24));
#655 = LINE('',#656,#657);
#656 = CARTESIAN_POINT('',(0.81505610516,19.640409454628,7.24));
#657 = VECTOR('',#658,1.);
#658 = DIRECTION('',(-3.48994967025E-02,0.999390827019,0.));
#659 = ORIENTED_EDGE('',*,*,#660,.T.);
#660 = EDGE_CURVE('',#653,#101,#661,.T.);
#661 = LINE('',#662,#663);
#662 = CARTESIAN_POINT('',(0.724317413733,22.238825604878,7.24));
#663 = VECTOR('',#664,1.);
#664 = DIRECTION('',(-0.999390827019,-3.48994967025E-02,0.));
#665 = PLANE('',#666);
#666 = AXIS2_PLACEMENT_3D('',#667,#668,#669);
#667 = CARTESIAN_POINT('',(0.81505610516,19.640409454628,7.24));
#668 = DIRECTION('',(0.,0.,1.));
#669 = DIRECTION('',(-3.48994967025E-02,0.999390827019,0.));
#670 = ADVANCED_FACE('',(#671),#689,.T.);
#671 = FACE_BOUND('',#672,.T.);
#672 = EDGE_LOOP('',(#673,#681,#682,#683));
#673 = ORIENTED_EDGE('',*,*,#674,.F.);
#674 = EDGE_CURVE('',#645,#675,#677,.T.);
#675 = VERTEX_POINT('',#676);
#676 = CARTESIAN_POINT('',(0.792371432303,20.29001349219,7.25));
#677 = LINE('',#678,#679);
#678 = CARTESIAN_POINT('',(0.792371432303,20.29001349219,6.05));
#679 = VECTOR('',#680,1.);
#680 = DIRECTION('',(0.,0.,1.));
#681 = ORIENTED_EDGE('',*,*,#644,.T.);
#682 = ORIENTED_EDGE('',*,*,#163,.T.);
#683 = ORIENTED_EDGE('',*,*,#684,.F.);
#684 = EDGE_CURVE('',#675,#156,#685,.T.);
#685 = LINE('',#686,#687);
#686 = CARTESIAN_POINT('',(0.792371432303,20.29001349219,7.25));
#687 = VECTOR('',#688,1.);
#688 = DIRECTION('',(-0.999390827019,-3.48994967025E-02,0.));
#689 = PLANE('',#690);
#690 = AXIS2_PLACEMENT_3D('',#691,#692,#693);
#691 = CARTESIAN_POINT('',(0.792371432303,20.29001349219,6.05));
#692 = DIRECTION('',(-3.48994967025E-02,0.999390827019,0.));
#693 = DIRECTION('',(0.,0.,1.));
#694 = ADVANCED_FACE('',(#695),#713,.T.);
#695 = FACE_BOUND('',#696,.T.);
#696 = EDGE_LOOP('',(#697,#705,#711,#712));
#697 = ORIENTED_EDGE('',*,*,#698,.F.);
#698 = EDGE_CURVE('',#699,#148,#701,.T.);
#699 = VERTEX_POINT('',#700);
#700 = CARTESIAN_POINT('',(0.827270929006,19.290622665171,7.25));
#701 = LINE('',#702,#703);
#702 = CARTESIAN_POINT('',(0.827270929006,19.290622665171,7.25));
#703 = VECTOR('',#704,1.);
#704 = DIRECTION('',(-0.999390827019,-3.48994967025E-02,0.));
#705 = ORIENTED_EDGE('',*,*,#706,.T.);
#706 = EDGE_CURVE('',#699,#675,#707,.T.);
#707 = LINE('',#708,#709);
#708 = CARTESIAN_POINT('',(0.827270929006,19.290622665171,7.25));
#709 = VECTOR('',#710,1.);
#710 = DIRECTION('',(-3.48994967025E-02,0.999390827019,0.));
#711 = ORIENTED_EDGE('',*,*,#684,.T.);
#712 = ORIENTED_EDGE('',*,*,#155,.F.);
#713 = PLANE('',#714);
#714 = AXIS2_PLACEMENT_3D('',#715,#716,#717);
#715 = CARTESIAN_POINT('',(0.827270929006,19.290622665171,7.25));
#716 = DIRECTION('',(0.,0.,1.));
#717 = DIRECTION('',(-3.48994967025E-02,0.999390827019,0.));
#718 = ADVANCED_FACE('',(#719),#737,.F.);
#719 = FACE_BOUND('',#720,.F.);
#720 = EDGE_LOOP('',(#721,#729,#735,#736));
#721 = ORIENTED_EDGE('',*,*,#722,.F.);
#722 = EDGE_CURVE('',#723,#699,#725,.T.);
#723 = VERTEX_POINT('',#724);
#724 = CARTESIAN_POINT('',(0.827270929006,19.290622665171,6.05));
#725 = LINE('',#726,#727);
#726 = CARTESIAN_POINT('',(0.827270929006,19.290622665171,6.05));
#727 = VECTOR('',#728,1.);
#728 = DIRECTION('',(0.,0.,1.));
#729 = ORIENTED_EDGE('',*,*,#730,.T.);
#730 = EDGE_CURVE('',#723,#140,#731,.T.);
#731 = LINE('',#732,#733);
#732 = CARTESIAN_POINT('',(0.827270929006,19.290622665171,6.05));
#733 = VECTOR('',#734,1.);
#734 = DIRECTION('',(-0.999390827019,-3.48994967025E-02,0.));
#735 = ORIENTED_EDGE('',*,*,#147,.T.);
#736 = ORIENTED_EDGE('',*,*,#698,.F.);
#737 = PLANE('',#738);
#738 = AXIS2_PLACEMENT_3D('',#739,#740,#741);
#739 = CARTESIAN_POINT('',(0.827270929006,19.290622665171,6.05));
#740 = DIRECTION('',(-3.48994967025E-02,0.999390827019,0.));
#741 = DIRECTION('',(0.,0.,1.));
#742 = ADVANCED_FACE('',(#743),#761,.F.);
#743 = FACE_BOUND('',#744,.F.);
#744 = EDGE_LOOP('',(#745,#746,#747,#755));
#745 = ORIENTED_EDGE('',*,*,#139,.F.);
#746 = ORIENTED_EDGE('',*,*,#730,.F.);
#747 = ORIENTED_EDGE('',*,*,#748,.T.);
#748 = EDGE_CURVE('',#723,#749,#751,.T.);
#749 = VERTEX_POINT('',#750);
#750 = CARTESIAN_POINT('',(0.81505610516,19.640409454628,6.05));
#751 = LINE('',#752,#753);
#752 = CARTESIAN_POINT('',(0.827270929006,19.290622665171,6.05));
#753 = VECTOR('',#754,1.);
#754 = DIRECTION('',(-3.48994967025E-02,0.999390827019,0.));
#755 = ORIENTED_EDGE('',*,*,#756,.F.);
#756 = EDGE_CURVE('',#132,#749,#757,.T.);
#757 = LINE('',#758,#759);
#758 = CARTESIAN_POINT('',(0.81505610516,19.640409454628,6.05));
#759 = VECTOR('',#760,1.);
#760 = DIRECTION('',(0.999390827019,3.48994967025E-02,0.));
#761 = PLANE('',#762);
#762 = AXIS2_PLACEMENT_3D('',#763,#764,#765);
#763 = CARTESIAN_POINT('',(0.827270929006,19.290622665171,6.05));
#764 = DIRECTION('',(0.,0.,1.));
#765 = DIRECTION('',(-3.48994967025E-02,0.999390827019,0.));
#766 = ADVANCED_FACE('',(#767),#778,.F.);
#767 = FACE_BOUND('',#768,.F.);
#768 = EDGE_LOOP('',(#769,#775,#776,#777));
#769 = ORIENTED_EDGE('',*,*,#770,.F.);
#770 = EDGE_CURVE('',#246,#749,#771,.T.);
#771 = LINE('',#772,#773);
#772 = CARTESIAN_POINT('',(0.81505610516,19.640409454628,0.));
#773 = VECTOR('',#774,1.);
#774 = DIRECTION('',(0.,0.,1.));
#775 = ORIENTED_EDGE('',*,*,#253,.T.);
#776 = ORIENTED_EDGE('',*,*,#131,.T.);
#777 = ORIENTED_EDGE('',*,*,#756,.T.);
#778 = PLANE('',#779);
#779 = AXIS2_PLACEMENT_3D('',#780,#781,#782);
#780 = CARTESIAN_POINT('',(0.81505610516,19.640409454628,0.));
#781 = DIRECTION('',(-3.48994967025E-02,0.999390827019,0.));
#782 = DIRECTION('',(0.,0.,1.));
#783 = ADVANCED_FACE('',(#784),#795,.T.);
#784 = FACE_BOUND('',#785,.T.);
#785 = EDGE_LOOP('',(#786,#792,#793,#794));
#786 = ORIENTED_EDGE('',*,*,#787,.F.);
#787 = EDGE_CURVE('',#523,#653,#788,.T.);
#788 = LINE('',#789,#790);
#789 = CARTESIAN_POINT('',(0.724317413733,22.238825604878,0.));
#790 = VECTOR('',#791,1.);
#791 = DIRECTION('',(0.,0.,1.));
#792 = ORIENTED_EDGE('',*,*,#530,.T.);
#793 = ORIENTED_EDGE('',*,*,#108,.T.);
#794 = ORIENTED_EDGE('',*,*,#660,.F.);
#795 = PLANE('',#796);
#796 = AXIS2_PLACEMENT_3D('',#797,#798,#799);
#797 = CARTESIAN_POINT('',(0.724317413733,22.238825604878,0.));
#798 = DIRECTION('',(-3.48994967025E-02,0.999390827019,0.));
#799 = DIRECTION('',(0.,0.,1.));
#800 = ADVANCED_FACE('',(#801),#818,.F.);
#801 = FACE_BOUND('',#802,.F.);
#802 = EDGE_LOOP('',(#803,#804,#805,#806,#812,#813,#814,#815,#816,#817)
  );
#803 = ORIENTED_EDGE('',*,*,#652,.T.);
#804 = ORIENTED_EDGE('',*,*,#787,.F.);
#805 = ORIENTED_EDGE('',*,*,#522,.F.);
#806 = ORIENTED_EDGE('',*,*,#807,.T.);
#807 = EDGE_CURVE('',#514,#237,#808,.T.);
#808 = LINE('',#809,#810);
#809 = CARTESIAN_POINT('',(0.785564344791,20.484942974297,0.));
#810 = VECTOR('',#811,1.);
#811 = DIRECTION('',(0.,0.,1.));
#812 = ORIENTED_EDGE('',*,*,#245,.T.);
#813 = ORIENTED_EDGE('',*,*,#770,.T.);
#814 = ORIENTED_EDGE('',*,*,#748,.F.);
#815 = ORIENTED_EDGE('',*,*,#722,.T.);
#816 = ORIENTED_EDGE('',*,*,#706,.T.);
#817 = ORIENTED_EDGE('',*,*,#674,.F.);
#818 = PLANE('',#819);
#819 = AXIS2_PLACEMENT_3D('',#820,#821,#822);
#820 = CARTESIAN_POINT('',(0.81505610516,19.640409454628,0.));
#821 = DIRECTION('',(-0.999390827019,-3.48994967025E-02,0.));
#822 = DIRECTION('',(0.,0.,1.));
#823 = ADVANCED_FACE('',(#824),#835,.T.);
#824 = FACE_BOUND('',#825,.T.);
#825 = EDGE_LOOP('',(#826,#827,#833,#834));
#826 = ORIENTED_EDGE('',*,*,#236,.F.);
#827 = ORIENTED_EDGE('',*,*,#828,.F.);
#828 = EDGE_CURVE('',#506,#229,#829,.T.);
#829 = LINE('',#830,#831);
#830 = CARTESIAN_POINT('',(18.756113526779,-8.273947387468,0.));
#831 = VECTOR('',#832,1.);
#832 = DIRECTION('',(0.,0.,1.));
#833 = ORIENTED_EDGE('',*,*,#513,.F.);
#834 = ORIENTED_EDGE('',*,*,#807,.T.);
#835 = CYLINDRICAL_SURFACE('',#836,20.5);
#836 = AXIS2_PLACEMENT_3D('',#837,#838,#839);
#837 = CARTESIAN_POINT('',(0.,0.,0.));
#838 = DIRECTION('',(0.,0.,1.));
#839 = DIRECTION('',(1.,0.,-0.));
#840 = ADVANCED_FACE('',(#841),#900,.T.);
#841 = FACE_BOUND('',#842,.T.);
#842 = EDGE_LOOP('',(#843,#853,#859,#860,#861,#862,#870,#878,#886,#894)
  );
#843 = ORIENTED_EDGE('',*,*,#844,.T.);
#844 = EDGE_CURVE('',#845,#847,#849,.T.);
#845 = VERTEX_POINT('',#846);
#846 = CARTESIAN_POINT('',(18.583896099572,-8.182377757126,7.24));
#847 = VERTEX_POINT('',#848);
#848 = CARTESIAN_POINT('',(20.305643905647,-9.097847304558,7.24));
#849 = LINE('',#850,#851);
#850 = CARTESIAN_POINT('',(18.009980164214,-7.877221241315,7.24));
#851 = VECTOR('',#852,1.);
#852 = DIRECTION('',(0.882947592859,-0.469471562786,0.));
#853 = ORIENTED_EDGE('',*,*,#854,.F.);
#854 = EDGE_CURVE('',#498,#847,#855,.T.);
#855 = LINE('',#856,#857);
#856 = CARTESIAN_POINT('',(20.305643905647,-9.097847304558,0.));
#857 = VECTOR('',#858,1.);
#858 = DIRECTION('',(0.,0.,1.));
#859 = ORIENTED_EDGE('',*,*,#505,.F.);
#860 = ORIENTED_EDGE('',*,*,#828,.T.);
#861 = ORIENTED_EDGE('',*,*,#228,.T.);
#862 = ORIENTED_EDGE('',*,*,#863,.T.);
#863 = EDGE_CURVE('',#221,#864,#866,.T.);
#864 = VERTEX_POINT('',#865);
#865 = CARTESIAN_POINT('',(18.009980164214,-7.877221241315,6.05));
#866 = LINE('',#867,#868);
#867 = CARTESIAN_POINT('',(18.009980164214,-7.877221241315,0.));
#868 = VECTOR('',#869,1.);
#869 = DIRECTION('',(0.,0.,1.));
#870 = ORIENTED_EDGE('',*,*,#871,.F.);
#871 = EDGE_CURVE('',#872,#864,#874,.T.);
#872 = VERTEX_POINT('',#873);
#873 = CARTESIAN_POINT('',(17.700948506713,-7.71290619434,6.05));
#874 = LINE('',#875,#876);
#875 = CARTESIAN_POINT('',(17.700948506713,-7.71290619434,6.05));
#876 = VECTOR('',#877,1.);
#877 = DIRECTION('',(0.882947592859,-0.469471562786,0.));
#878 = ORIENTED_EDGE('',*,*,#879,.T.);
#879 = EDGE_CURVE('',#872,#880,#882,.T.);
#880 = VERTEX_POINT('',#881);
#881 = CARTESIAN_POINT('',(17.700948506713,-7.71290619434,7.25));
#882 = LINE('',#883,#884);
#883 = CARTESIAN_POINT('',(17.700948506713,-7.71290619434,6.05));
#884 = VECTOR('',#885,1.);
#885 = DIRECTION('',(0.,0.,1.));
#886 = ORIENTED_EDGE('',*,*,#887,.T.);
#887 = EDGE_CURVE('',#880,#888,#890,.T.);
#888 = VERTEX_POINT('',#889);
#889 = CARTESIAN_POINT('',(18.583896099572,-8.182377757126,7.25));
#890 = LINE('',#891,#892);
#891 = CARTESIAN_POINT('',(17.700948506713,-7.71290619434,7.25));
#892 = VECTOR('',#893,1.);
#893 = DIRECTION('',(0.882947592859,-0.469471562786,0.));
#894 = ORIENTED_EDGE('',*,*,#895,.F.);
#895 = EDGE_CURVE('',#845,#888,#896,.T.);
#896 = LINE('',#897,#898);
#897 = CARTESIAN_POINT('',(18.583896099572,-8.182377757126,6.05));
#898 = VECTOR('',#899,1.);
#899 = DIRECTION('',(0.,0.,1.));
#900 = PLANE('',#901);
#901 = AXIS2_PLACEMENT_3D('',#902,#903,#904);
#902 = CARTESIAN_POINT('',(18.009980164214,-7.877221241315,0.));
#903 = DIRECTION('',(0.469471562786,0.882947592859,0.));
#904 = DIRECTION('',(0.,0.,1.));
#905 = ADVANCED_FACE('',(#906),#924,.F.);
#906 = FACE_BOUND('',#907,.F.);
#907 = EDGE_LOOP('',(#908,#916,#917,#918));
#908 = ORIENTED_EDGE('',*,*,#909,.F.);
#909 = EDGE_CURVE('',#213,#910,#912,.T.);
#910 = VERTEX_POINT('',#911);
#911 = CARTESIAN_POINT('',(16.601565475856,-10.52606401989,6.05));
#912 = LINE('',#913,#914);
#913 = CARTESIAN_POINT('',(16.601565475856,-10.52606401989,0.));
#914 = VECTOR('',#915,1.);
#915 = DIRECTION('',(0.,0.,1.));
#916 = ORIENTED_EDGE('',*,*,#220,.T.);
#917 = ORIENTED_EDGE('',*,*,#863,.T.);
#918 = ORIENTED_EDGE('',*,*,#919,.T.);
#919 = EDGE_CURVE('',#864,#910,#920,.T.);
#920 = LINE('',#921,#922);
#921 = CARTESIAN_POINT('',(16.601565475856,-10.52606401989,6.05));
#922 = VECTOR('',#923,1.);
#923 = DIRECTION('',(-0.469471562786,-0.882947592859,0.));
#924 = PLANE('',#925);
#925 = AXIS2_PLACEMENT_3D('',#926,#927,#928);
#926 = CARTESIAN_POINT('',(16.601565475856,-10.52606401989,0.));
#927 = DIRECTION('',(0.882947592859,-0.469471562786,0.));
#928 = DIRECTION('',(0.,0.,1.));
#929 = ADVANCED_FACE('',(#930),#987,.F.);
#930 = FACE_BOUND('',#931,.F.);
#931 = EDGE_LOOP('',(#932,#942,#948,#949,#955,#956,#957,#965,#973,#981)
  );
#932 = ORIENTED_EDGE('',*,*,#933,.T.);
#933 = EDGE_CURVE('',#934,#936,#938,.T.);
#934 = VERTEX_POINT('',#935);
#935 = CARTESIAN_POINT('',(17.175481411214,-10.8312205357,7.24));
#936 = VERTEX_POINT('',#937);
#937 = CARTESIAN_POINT('',(18.897229217289,-11.74669008313,7.24));
#938 = LINE('',#939,#940);
#939 = CARTESIAN_POINT('',(16.601565475856,-10.52606401989,7.24));
#940 = VECTOR('',#941,1.);
#941 = DIRECTION('',(0.882947592859,-0.469471562786,0.));
#942 = ORIENTED_EDGE('',*,*,#943,.F.);
#943 = EDGE_CURVE('',#490,#936,#944,.T.);
#944 = LINE('',#945,#946);
#945 = CARTESIAN_POINT('',(18.897229217289,-11.74669008313,0.));
#946 = VECTOR('',#947,1.);
#947 = DIRECTION('',(0.,0.,1.));
#948 = ORIENTED_EDGE('',*,*,#489,.F.);
#949 = ORIENTED_EDGE('',*,*,#950,.T.);
#950 = EDGE_CURVE('',#481,#204,#951,.T.);
#951 = LINE('',#952,#953);
#952 = CARTESIAN_POINT('',(17.347698838421,-10.92279016604,0.));
#953 = VECTOR('',#954,1.);
#954 = DIRECTION('',(0.,0.,1.));
#955 = ORIENTED_EDGE('',*,*,#212,.T.);
#956 = ORIENTED_EDGE('',*,*,#909,.T.);
#957 = ORIENTED_EDGE('',*,*,#958,.F.);
#958 = EDGE_CURVE('',#959,#910,#961,.T.);
#959 = VERTEX_POINT('',#960);
#960 = CARTESIAN_POINT('',(16.292533818356,-10.36174897291,6.05));
#961 = LINE('',#962,#963);
#962 = CARTESIAN_POINT('',(16.292533818356,-10.36174897291,6.05));
#963 = VECTOR('',#964,1.);
#964 = DIRECTION('',(0.882947592859,-0.469471562786,0.));
#965 = ORIENTED_EDGE('',*,*,#966,.T.);
#966 = EDGE_CURVE('',#959,#967,#969,.T.);
#967 = VERTEX_POINT('',#968);
#968 = CARTESIAN_POINT('',(16.292533818356,-10.36174897291,7.25));
#969 = LINE('',#970,#971);
#970 = CARTESIAN_POINT('',(16.292533818356,-10.36174897291,6.05));
#971 = VECTOR('',#972,1.);
#972 = DIRECTION('',(0.,0.,1.));
#973 = ORIENTED_EDGE('',*,*,#974,.T.);
#974 = EDGE_CURVE('',#967,#975,#977,.T.);
#975 = VERTEX_POINT('',#976);
#976 = CARTESIAN_POINT('',(17.175481411214,-10.8312205357,7.25));
#977 = LINE('',#978,#979);
#978 = CARTESIAN_POINT('',(16.292533818356,-10.36174897291,7.25));
#979 = VECTOR('',#980,1.);
#980 = DIRECTION('',(0.882947592859,-0.469471562786,0.));
#981 = ORIENTED_EDGE('',*,*,#982,.F.);
#982 = EDGE_CURVE('',#934,#975,#983,.T.);
#983 = LINE('',#984,#985);
#984 = CARTESIAN_POINT('',(17.175481411214,-10.8312205357,6.05));
#985 = VECTOR('',#986,1.);
#986 = DIRECTION('',(0.,0.,1.));
#987 = PLANE('',#988);
#988 = AXIS2_PLACEMENT_3D('',#989,#990,#991);
#989 = CARTESIAN_POINT('',(16.601565475856,-10.52606401989,0.));
#990 = DIRECTION('',(0.469471562786,0.882947592859,0.));
#991 = DIRECTION('',(0.,0.,1.));
#992 = ADVANCED_FACE('',(#993),#1028,.T.);
#993 = FACE_BOUND('',#994,.T.);
#994 = EDGE_LOOP('',(#995,#996,#1002,#1003,#1011,#1020,#1026,#1027));
#995 = ORIENTED_EDGE('',*,*,#203,.F.);
#996 = ORIENTED_EDGE('',*,*,#997,.F.);
#997 = EDGE_CURVE('',#439,#196,#998,.T.);
#998 = LINE('',#999,#1000);
#999 = CARTESIAN_POINT('',(-16.54350539051,-12.10629709672,0.));
#1000 = VECTOR('',#1001,1.);
#1001 = DIRECTION('',(0.,0.,1.));
#1002 = ORIENTED_EDGE('',*,*,#446,.F.);
#1003 = ORIENTED_EDGE('',*,*,#1004,.T.);
#1004 = EDGE_CURVE('',#447,#1005,#1007,.T.);
#1005 = VERTEX_POINT('',#1006);
#1006 = CARTESIAN_POINT('',(4.116851158593,-20.08236879797,2.));
#1007 = LINE('',#1008,#1009);
#1008 = CARTESIAN_POINT('',(4.116851158593,-20.08236879797,0.));
#1009 = VECTOR('',#1010,1.);
#1010 = DIRECTION('',(0.,0.,1.));
#1011 = ORIENTED_EDGE('',*,*,#1012,.T.);
#1012 = EDGE_CURVE('',#1005,#1013,#1015,.T.);
#1013 = VERTEX_POINT('',#1014);
#1014 = CARTESIAN_POINT('',(9.755006883308,-18.03024793802,2.));
#1015 = CIRCLE('',#1016,20.5);
#1016 = AXIS2_PLACEMENT_3D('',#1017,#1018,#1019);
#1017 = CARTESIAN_POINT('',(0.,0.,2.));
#1018 = DIRECTION('',(0.,0.,1.));
#1019 = DIRECTION('',(1.,0.,-0.));
#1020 = ORIENTED_EDGE('',*,*,#1021,.F.);
#1021 = EDGE_CURVE('',#473,#1013,#1022,.T.);
#1022 = LINE('',#1023,#1024);
#1023 = CARTESIAN_POINT('',(9.755006883308,-18.03024793802,0.));
#1024 = VECTOR('',#1025,1.);
#1025 = DIRECTION('',(0.,0.,1.));
#1026 = ORIENTED_EDGE('',*,*,#480,.F.);
#1027 = ORIENTED_EDGE('',*,*,#950,.T.);
#1028 = CYLINDRICAL_SURFACE('',#1029,20.5);
#1029 = AXIS2_PLACEMENT_3D('',#1030,#1031,#1032);
#1030 = CARTESIAN_POINT('',(0.,0.,0.));
#1031 = DIRECTION('',(0.,0.,1.));
#1032 = DIRECTION('',(1.,0.,-0.));
#1033 = ADVANCED_FACE('',(#1034),#1093,.T.);
#1034 = FACE_BOUND('',#1035,.T.);
#1035 = EDGE_LOOP('',(#1036,#1046,#1052,#1053,#1054,#1055,#1063,#1071,
    #1079,#1087));
#1036 = ORIENTED_EDGE('',*,*,#1037,.T.);
#1037 = EDGE_CURVE('',#1038,#1040,#1042,.T.);
#1038 = VERTEX_POINT('',#1039);
#1039 = CARTESIAN_POINT('',(-16.37809505081,-12.00293724495,7.24));
#1040 = VERTEX_POINT('',#1041);
#1041 = CARTESIAN_POINT('',(-18.03178883832,-13.03627981021,7.24));
#1042 = LINE('',#1043,#1044);
#1043 = CARTESIAN_POINT('',(-15.82686378831,-11.6584897232,7.24));
#1044 = VECTOR('',#1045,1.);
#1045 = DIRECTION('',(-0.848048096156,-0.529919264233,0.));
#1046 = ORIENTED_EDGE('',*,*,#1047,.F.);
#1047 = EDGE_CURVE('',#431,#1040,#1048,.T.);
#1048 = LINE('',#1049,#1050);
#1049 = CARTESIAN_POINT('',(-18.03178883832,-13.03627981021,0.));
#1050 = VECTOR('',#1051,1.);
#1051 = DIRECTION('',(0.,0.,1.));
#1052 = ORIENTED_EDGE('',*,*,#438,.F.);
#1053 = ORIENTED_EDGE('',*,*,#997,.T.);
#1054 = ORIENTED_EDGE('',*,*,#195,.T.);
#1055 = ORIENTED_EDGE('',*,*,#1056,.T.);
#1056 = EDGE_CURVE('',#188,#1057,#1059,.T.);
#1057 = VERTEX_POINT('',#1058);
#1058 = CARTESIAN_POINT('',(-15.82686378831,-11.6584897232,6.05));
#1059 = LINE('',#1060,#1061);
#1060 = CARTESIAN_POINT('',(-15.82686378831,-11.6584897232,0.));
#1061 = VECTOR('',#1062,1.);
#1062 = DIRECTION('',(0.,0.,1.));
#1063 = ORIENTED_EDGE('',*,*,#1064,.F.);
#1064 = EDGE_CURVE('',#1065,#1057,#1067,.T.);
#1065 = VERTEX_POINT('',#1066);
#1066 = CARTESIAN_POINT('',(-15.53004695466,-11.47301798072,6.05));
#1067 = LINE('',#1068,#1069);
#1068 = CARTESIAN_POINT('',(-15.53004695466,-11.47301798072,6.05));
#1069 = VECTOR('',#1070,1.);
#1070 = DIRECTION('',(-0.848048096156,-0.529919264233,0.));
#1071 = ORIENTED_EDGE('',*,*,#1072,.T.);
#1072 = EDGE_CURVE('',#1065,#1073,#1075,.T.);
#1073 = VERTEX_POINT('',#1074);
#1074 = CARTESIAN_POINT('',(-15.53004695466,-11.47301798072,7.25));
#1075 = LINE('',#1076,#1077);
#1076 = CARTESIAN_POINT('',(-15.53004695466,-11.47301798072,6.05));
#1077 = VECTOR('',#1078,1.);
#1078 = DIRECTION('',(0.,0.,1.));
#1079 = ORIENTED_EDGE('',*,*,#1080,.T.);
#1080 = EDGE_CURVE('',#1073,#1081,#1083,.T.);
#1081 = VERTEX_POINT('',#1082);
#1082 = CARTESIAN_POINT('',(-16.37809505081,-12.00293724495,7.25));
#1083 = LINE('',#1084,#1085);
#1084 = CARTESIAN_POINT('',(-15.53004695466,-11.47301798072,7.25));
#1085 = VECTOR('',#1086,1.);
#1086 = DIRECTION('',(-0.848048096156,-0.529919264233,0.));
#1087 = ORIENTED_EDGE('',*,*,#1088,.F.);
#1088 = EDGE_CURVE('',#1038,#1081,#1089,.T.);
#1089 = LINE('',#1090,#1091);
#1090 = CARTESIAN_POINT('',(-16.37809505081,-12.00293724495,6.05));
#1091 = VECTOR('',#1092,1.);
#1092 = DIRECTION('',(0.,0.,1.));
#1093 = PLANE('',#1094);
#1094 = AXIS2_PLACEMENT_3D('',#1095,#1096,#1097);
#1095 = CARTESIAN_POINT('',(-15.82686378831,-11.6584897232,0.));
#1096 = DIRECTION('',(0.529919264233,-0.848048096156,0.));
#1097 = DIRECTION('',(0.,0.,1.));
#1098 = ADVANCED_FACE('',(#1099),#1110,.F.);
#1099 = FACE_BOUND('',#1100,.F.);
#1100 = EDGE_LOOP('',(#1101,#1102,#1103,#1104));
#1101 = ORIENTED_EDGE('',*,*,#312,.F.);
#1102 = ORIENTED_EDGE('',*,*,#187,.T.);
#1103 = ORIENTED_EDGE('',*,*,#1056,.T.);
#1104 = ORIENTED_EDGE('',*,*,#1105,.T.);
#1105 = EDGE_CURVE('',#1057,#313,#1106,.T.);
#1106 = LINE('',#1107,#1108);
#1107 = CARTESIAN_POINT('',(-17.41662158101,-9.114345434736,6.05));
#1108 = VECTOR('',#1109,1.);
#1109 = DIRECTION('',(-0.529919264233,0.848048096156,0.));
#1110 = PLANE('',#1111);
#1111 = AXIS2_PLACEMENT_3D('',#1112,#1113,#1114);
#1112 = CARTESIAN_POINT('',(-17.41662158101,-9.114345434736,0.));
#1113 = DIRECTION('',(-0.848048096156,-0.529919264233,0.));
#1114 = DIRECTION('',(0.,0.,1.));
#1115 = ADVANCED_FACE('',(#1116),#1175,.F.);
#1116 = FACE_BOUND('',#1117,.F.);
#1117 = EDGE_LOOP('',(#1118,#1119,#1125,#1126,#1127,#1128,#1136,#1145,
    #1151,#1152,#1160,#1169));
#1118 = ORIENTED_EDGE('',*,*,#560,.T.);
#1119 = ORIENTED_EDGE('',*,*,#1120,.T.);
#1120 = EDGE_CURVE('',#563,#262,#1121,.T.);
#1121 = LINE('',#1122,#1123);
#1122 = CARTESIAN_POINT('',(18.3,-4.482207284879E-15,-1.E-02));
#1123 = VECTOR('',#1124,1.);
#1124 = DIRECTION('',(0.,0.,1.));
#1125 = ORIENTED_EDGE('',*,*,#261,.F.);
#1126 = ORIENTED_EDGE('',*,*,#1120,.F.);
#1127 = ORIENTED_EDGE('',*,*,#628,.T.);
#1128 = ORIENTED_EDGE('',*,*,#1129,.T.);
#1129 = EDGE_CURVE('',#621,#1130,#1132,.T.);
#1130 = VERTEX_POINT('',#1131);
#1131 = CARTESIAN_POINT('',(-17.98978973057,-3.35521466521,2.));
#1132 = LINE('',#1133,#1134);
#1133 = CARTESIAN_POINT('',(-17.98978973057,-3.35521466521,-1.E-02));
#1134 = VECTOR('',#1135,1.);
#1135 = DIRECTION('',(0.,0.,1.));
#1136 = ORIENTED_EDGE('',*,*,#1137,.T.);
#1137 = EDGE_CURVE('',#1130,#1138,#1140,.T.);
#1138 = VERTEX_POINT('',#1139);
#1139 = CARTESIAN_POINT('',(-15.93766887062,-8.993370389925,2.));
#1140 = CIRCLE('',#1141,18.3);
#1141 = AXIS2_PLACEMENT_3D('',#1142,#1143,#1144);
#1142 = CARTESIAN_POINT('',(0.,0.,2.));
#1143 = DIRECTION('',(0.,0.,1.));
#1144 = DIRECTION('',(1.,0.,-0.));
#1145 = ORIENTED_EDGE('',*,*,#1146,.F.);
#1146 = EDGE_CURVE('',#596,#1138,#1147,.T.);
#1147 = LINE('',#1148,#1149);
#1148 = CARTESIAN_POINT('',(-15.93766887062,-8.993370389925,-1.E-02));
#1149 = VECTOR('',#1150,1.);
#1150 = DIRECTION('',(0.,0.,1.));
#1151 = ORIENTED_EDGE('',*,*,#595,.T.);
#1152 = ORIENTED_EDGE('',*,*,#1153,.T.);
#1153 = EDGE_CURVE('',#588,#1154,#1156,.T.);
#1154 = VERTEX_POINT('',#1155);
#1155 = CARTESIAN_POINT('',(3.35521466521,-17.98978973057,2.));
#1156 = LINE('',#1157,#1158);
#1157 = CARTESIAN_POINT('',(3.35521466521,-17.98978973057,-1.E-02));
#1158 = VECTOR('',#1159,1.);
#1159 = DIRECTION('',(0.,0.,1.));
#1160 = ORIENTED_EDGE('',*,*,#1161,.T.);
#1161 = EDGE_CURVE('',#1154,#1162,#1164,.T.);
#1162 = VERTEX_POINT('',#1163);
#1163 = CARTESIAN_POINT('',(8.993370389925,-15.93766887062,2.));
#1164 = CIRCLE('',#1165,18.3);
#1165 = AXIS2_PLACEMENT_3D('',#1166,#1167,#1168);
#1166 = CARTESIAN_POINT('',(0.,0.,2.));
#1167 = DIRECTION('',(0.,0.,1.));
#1168 = DIRECTION('',(1.,0.,-0.));
#1169 = ORIENTED_EDGE('',*,*,#1170,.F.);
#1170 = EDGE_CURVE('',#561,#1162,#1171,.T.);
#1171 = LINE('',#1172,#1173);
#1172 = CARTESIAN_POINT('',(8.993370389925,-15.93766887062,-1.E-02));
#1173 = VECTOR('',#1174,1.);
#1174 = DIRECTION('',(0.,0.,1.));
#1175 = CYLINDRICAL_SURFACE('',#1176,18.3);
#1176 = AXIS2_PLACEMENT_3D('',#1177,#1178,#1179);
#1177 = CARTESIAN_POINT('',(0.,0.,-1.E-02));
#1178 = DIRECTION('',(0.,0.,1.));
#1179 = DIRECTION('',(1.,0.,-0.));
#1180 = ADVANCED_FACE('',(#1181),#1197,.T.);
#1181 = FACE_BOUND('',#1182,.T.);
#1182 = EDGE_LOOP('',(#1183,#1184,#1190,#1191));
#1183 = ORIENTED_EDGE('',*,*,#278,.F.);
#1184 = ORIENTED_EDGE('',*,*,#1185,.T.);
#1185 = EDGE_CURVE('',#279,#1038,#1186,.T.);
#1186 = LINE('',#1187,#1188);
#1187 = CARTESIAN_POINT('',(-17.96785284351,-9.458792956488,7.24));
#1188 = VECTOR('',#1189,1.);
#1189 = DIRECTION('',(0.529919264233,-0.848048096156,0.));
#1190 = ORIENTED_EDGE('',*,*,#1088,.T.);
#1191 = ORIENTED_EDGE('',*,*,#1192,.F.);
#1192 = EDGE_CURVE('',#281,#1081,#1193,.T.);
#1193 = LINE('',#1194,#1195);
#1194 = CARTESIAN_POINT('',(-17.96785284351,-9.458792956488,7.25));
#1195 = VECTOR('',#1196,1.);
#1196 = DIRECTION('',(0.529919264233,-0.848048096156,0.));
#1197 = PLANE('',#1198);
#1198 = AXIS2_PLACEMENT_3D('',#1199,#1200,#1201);
#1199 = CARTESIAN_POINT('',(-17.96785284351,-9.458792956488,6.05));
#1200 = DIRECTION('',(-0.848048096156,-0.529919264233,0.));
#1201 = DIRECTION('',(0.,0.,1.));
#1202 = ADVANCED_FACE('',(#1203),#1214,.T.);
#1203 = FACE_BOUND('',#1204,.T.);
#1204 = EDGE_LOOP('',(#1205,#1211,#1212,#1213));
#1205 = ORIENTED_EDGE('',*,*,#1206,.F.);
#1206 = EDGE_CURVE('',#329,#1073,#1207,.T.);
#1207 = LINE('',#1208,#1209);
#1208 = CARTESIAN_POINT('',(-17.11980474736,-8.928873692255,7.25));
#1209 = VECTOR('',#1210,1.);
#1210 = DIRECTION('',(0.529919264233,-0.848048096156,0.));
#1211 = ORIENTED_EDGE('',*,*,#336,.T.);
#1212 = ORIENTED_EDGE('',*,*,#1192,.T.);
#1213 = ORIENTED_EDGE('',*,*,#1080,.F.);
#1214 = PLANE('',#1215);
#1215 = AXIS2_PLACEMENT_3D('',#1216,#1217,#1218);
#1216 = CARTESIAN_POINT('',(-17.11980474736,-8.928873692255,7.25));
#1217 = DIRECTION('',(0.,0.,1.));
#1218 = DIRECTION('',(-0.848048096156,-0.529919264233,0.));
#1219 = ADVANCED_FACE('',(#1220),#1231,.F.);
#1220 = FACE_BOUND('',#1221,.F.);
#1221 = EDGE_LOOP('',(#1222,#1223,#1229,#1230));
#1222 = ORIENTED_EDGE('',*,*,#328,.F.);
#1223 = ORIENTED_EDGE('',*,*,#1224,.T.);
#1224 = EDGE_CURVE('',#321,#1065,#1225,.T.);
#1225 = LINE('',#1226,#1227);
#1226 = CARTESIAN_POINT('',(-17.11980474736,-8.928873692255,6.05));
#1227 = VECTOR('',#1228,1.);
#1228 = DIRECTION('',(0.529919264233,-0.848048096156,0.));
#1229 = ORIENTED_EDGE('',*,*,#1072,.T.);
#1230 = ORIENTED_EDGE('',*,*,#1206,.F.);
#1231 = PLANE('',#1232);
#1232 = AXIS2_PLACEMENT_3D('',#1233,#1234,#1235);
#1233 = CARTESIAN_POINT('',(-17.11980474736,-8.928873692255,6.05));
#1234 = DIRECTION('',(-0.848048096156,-0.529919264233,0.));
#1235 = DIRECTION('',(0.,0.,1.));
#1236 = ADVANCED_FACE('',(#1237),#1243,.F.);
#1237 = FACE_BOUND('',#1238,.F.);
#1238 = EDGE_LOOP('',(#1239,#1240,#1241,#1242));
#1239 = ORIENTED_EDGE('',*,*,#1064,.F.);
#1240 = ORIENTED_EDGE('',*,*,#1224,.F.);
#1241 = ORIENTED_EDGE('',*,*,#320,.T.);
#1242 = ORIENTED_EDGE('',*,*,#1105,.F.);
#1243 = PLANE('',#1244);
#1244 = AXIS2_PLACEMENT_3D('',#1245,#1246,#1247);
#1245 = CARTESIAN_POINT('',(-17.11980474736,-8.928873692255,6.05));
#1246 = DIRECTION('',(0.,0.,1.));
#1247 = DIRECTION('',(-0.848048096156,-0.529919264233,0.));
#1248 = ADVANCED_FACE('',(#1249),#1267,.T.);
#1249 = FACE_BOUND('',#1250,.T.);
#1250 = EDGE_LOOP('',(#1251,#1252,#1253,#1259,#1260,#1261));
#1251 = ORIENTED_EDGE('',*,*,#296,.F.);
#1252 = ORIENTED_EDGE('',*,*,#361,.F.);
#1253 = ORIENTED_EDGE('',*,*,#1254,.F.);
#1254 = EDGE_CURVE('',#422,#351,#1255,.T.);
#1255 = LINE('',#1256,#1257);
#1256 = CARTESIAN_POINT('',(-19.45370301068,-10.76074146284,0.));
#1257 = VECTOR('',#1258,1.);
#1258 = DIRECTION('',(0.,0.,1.));
#1259 = ORIENTED_EDGE('',*,*,#430,.T.);
#1260 = ORIENTED_EDGE('',*,*,#1047,.T.);
#1261 = ORIENTED_EDGE('',*,*,#1262,.F.);
#1262 = EDGE_CURVE('',#289,#1040,#1263,.T.);
#1263 = LINE('',#1264,#1265);
#1264 = CARTESIAN_POINT('',(-19.62154663102,-10.49213552174,7.24));
#1265 = VECTOR('',#1266,1.);
#1266 = DIRECTION('',(0.529919264233,-0.848048096156,0.));
#1267 = PLANE('',#1268);
#1268 = AXIS2_PLACEMENT_3D('',#1269,#1270,#1271);
#1269 = CARTESIAN_POINT('',(-19.62154663102,-10.49213552174,0.));
#1270 = DIRECTION('',(-0.848048096156,-0.529919264233,0.));
#1271 = DIRECTION('',(0.,0.,1.));
#1272 = ADVANCED_FACE('',(#1273),#1279,.T.);
#1273 = FACE_BOUND('',#1274,.T.);
#1274 = EDGE_LOOP('',(#1275,#1276,#1277,#1278));
#1275 = ORIENTED_EDGE('',*,*,#1037,.F.);
#1276 = ORIENTED_EDGE('',*,*,#1185,.F.);
#1277 = ORIENTED_EDGE('',*,*,#288,.T.);
#1278 = ORIENTED_EDGE('',*,*,#1262,.T.);
#1279 = PLANE('',#1280);
#1280 = AXIS2_PLACEMENT_3D('',#1281,#1282,#1283);
#1281 = CARTESIAN_POINT('',(-17.41662158101,-9.114345434736,7.24));
#1282 = DIRECTION('',(0.,0.,1.));
#1283 = DIRECTION('',(-0.848048096156,-0.529919264233,0.));
#1284 = ADVANCED_FACE('',(#1285),#1291,.T.);
#1285 = FACE_BOUND('',#1286,.T.);
#1286 = EDGE_LOOP('',(#1287,#1288,#1289,#1290));
#1287 = ORIENTED_EDGE('',*,*,#404,.F.);
#1288 = ORIENTED_EDGE('',*,*,#421,.T.);
#1289 = ORIENTED_EDGE('',*,*,#1254,.T.);
#1290 = ORIENTED_EDGE('',*,*,#350,.T.);
#1291 = CYLINDRICAL_SURFACE('',#1292,3.5);
#1292 = AXIS2_PLACEMENT_3D('',#1293,#1294,#1295);
#1293 = CARTESIAN_POINT('',(-21.14308396768,-7.695453224828,0.));
#1294 = DIRECTION('',(0.,0.,1.));
#1295 = DIRECTION('',(-0.939692620786,-0.342020143326,0.));
#1296 = ADVANCED_FACE('',(#1297),#1308,.F.);
#1297 = FACE_BOUND('',#1298,.F.);
#1298 = EDGE_LOOP('',(#1299,#1300,#1306,#1307));
#1299 = ORIENTED_EDGE('',*,*,#377,.F.);
#1300 = ORIENTED_EDGE('',*,*,#1301,.F.);
#1301 = EDGE_CURVE('',#539,#378,#1302,.T.);
#1302 = LINE('',#1303,#1304);
#1303 = CARTESIAN_POINT('',(-22.45865363678,-8.174281425483,-1.));
#1304 = VECTOR('',#1305,1.);
#1305 = DIRECTION('',(0.,0.,1.));
#1306 = ORIENTED_EDGE('',*,*,#538,.T.);
#1307 = ORIENTED_EDGE('',*,*,#1301,.T.);
#1308 = CYLINDRICAL_SURFACE('',#1309,1.4);
#1309 = AXIS2_PLACEMENT_3D('',#1310,#1311,#1312);
#1310 = CARTESIAN_POINT('',(-21.14308396768,-7.695453224828,-1.));
#1311 = DIRECTION('',(0.,0.,1.));
#1312 = DIRECTION('',(-0.939692620786,-0.342020143326,0.));
#1313 = ADVANCED_FACE('',(#1314),#1325,.T.);
#1314 = FACE_BOUND('',#1315,.T.);
#1315 = EDGE_LOOP('',(#1316,#1317,#1318,#1319));
#1316 = ORIENTED_EDGE('',*,*,#943,.F.);
#1317 = ORIENTED_EDGE('',*,*,#497,.T.);
#1318 = ORIENTED_EDGE('',*,*,#854,.T.);
#1319 = ORIENTED_EDGE('',*,*,#1320,.F.);
#1320 = EDGE_CURVE('',#936,#847,#1321,.T.);
#1321 = LINE('',#1322,#1323);
#1322 = CARTESIAN_POINT('',(18.897229217289,-11.74669008313,7.24));
#1323 = VECTOR('',#1324,1.);
#1324 = DIRECTION('',(0.469471562786,0.882947592859,0.));
#1325 = PLANE('',#1326);
#1326 = AXIS2_PLACEMENT_3D('',#1327,#1328,#1329);
#1327 = CARTESIAN_POINT('',(18.897229217289,-11.74669008313,0.));
#1328 = DIRECTION('',(0.882947592859,-0.469471562786,0.));
#1329 = DIRECTION('',(0.,0.,1.));
#1330 = ADVANCED_FACE('',(#1331),#1349,.F.);
#1331 = FACE_BOUND('',#1332,.F.);
#1332 = EDGE_LOOP('',(#1333,#1334,#1335,#1343));
#1333 = ORIENTED_EDGE('',*,*,#455,.F.);
#1334 = ORIENTED_EDGE('',*,*,#1004,.T.);
#1335 = ORIENTED_EDGE('',*,*,#1336,.T.);
#1336 = EDGE_CURVE('',#1005,#1337,#1339,.T.);
#1337 = VERTEX_POINT('',#1338);
#1338 = CARTESIAN_POINT('',(4.259789780469,-20.47508943395,2.));
#1339 = LINE('',#1340,#1341);
#1340 = CARTESIAN_POINT('',(3.337284717504,-17.94052760412,2.));
#1341 = VECTOR('',#1342,1.);
#1342 = DIRECTION('',(0.342020143326,-0.939692620786,0.));
#1343 = ORIENTED_EDGE('',*,*,#1344,.F.);
#1344 = EDGE_CURVE('',#456,#1337,#1345,.T.);
#1345 = LINE('',#1346,#1347);
#1346 = CARTESIAN_POINT('',(4.259789780469,-20.47508943395,0.));
#1347 = VECTOR('',#1348,1.);
#1348 = DIRECTION('',(0.,0.,1.));
#1349 = PLANE('',#1350);
#1350 = AXIS2_PLACEMENT_3D('',#1351,#1352,#1353);
#1351 = CARTESIAN_POINT('',(3.337284717504,-17.94052760412,0.));
#1352 = DIRECTION('',(0.939692620786,0.342020143326,0.));
#1353 = DIRECTION('',(0.,0.,1.));
#1354 = ADVANCED_FACE('',(#1355),#1374,.T.);
#1355 = FACE_BOUND('',#1356,.T.);
#1356 = EDGE_LOOP('',(#1357,#1358,#1366,#1373));
#1357 = ORIENTED_EDGE('',*,*,#463,.T.);
#1358 = ORIENTED_EDGE('',*,*,#1359,.T.);
#1359 = EDGE_CURVE('',#464,#1360,#1362,.T.);
#1360 = VERTEX_POINT('',#1361);
#1361 = CARTESIAN_POINT('',(9.897945505184,-18.42296857399,2.));
#1362 = LINE('',#1363,#1364);
#1363 = CARTESIAN_POINT('',(9.897945505184,-18.42296857399,0.));
#1364 = VECTOR('',#1365,1.);
#1365 = DIRECTION('',(0.,0.,1.));
#1366 = ORIENTED_EDGE('',*,*,#1367,.T.);
#1367 = EDGE_CURVE('',#1360,#1337,#1368,.T.);
#1368 = CIRCLE('',#1369,3.5);
#1369 = AXIS2_PLACEMENT_3D('',#1370,#1371,#1372);
#1370 = CARTESIAN_POINT('',(7.695453224828,-21.14308396768,2.));
#1371 = DIRECTION('',(0.,0.,-1.));
#1372 = DIRECTION('',(0.629283508673,0.777175826768,0.));
#1373 = ORIENTED_EDGE('',*,*,#1344,.F.);
#1374 = CYLINDRICAL_SURFACE('',#1375,3.5);
#1375 = AXIS2_PLACEMENT_3D('',#1376,#1377,#1378);
#1376 = CARTESIAN_POINT('',(7.695453224828,-21.14308396768,0.));
#1377 = DIRECTION('',(0.,0.,1.));
#1378 = DIRECTION('',(0.342020143326,-0.939692620786,0.));
#1379 = ADVANCED_FACE('',(#1380),#1391,.T.);
#1380 = FACE_BOUND('',#1381,.T.);
#1381 = EDGE_LOOP('',(#1382,#1383,#1384,#1390));
#1382 = ORIENTED_EDGE('',*,*,#472,.F.);
#1383 = ORIENTED_EDGE('',*,*,#1021,.T.);
#1384 = ORIENTED_EDGE('',*,*,#1385,.T.);
#1385 = EDGE_CURVE('',#1013,#1360,#1386,.T.);
#1386 = LINE('',#1387,#1388);
#1387 = CARTESIAN_POINT('',(8.97544044222,-15.88840674416,2.));
#1388 = VECTOR('',#1389,1.);
#1389 = DIRECTION('',(0.342020143326,-0.939692620786,0.));
#1390 = ORIENTED_EDGE('',*,*,#1359,.F.);
#1391 = PLANE('',#1392);
#1392 = AXIS2_PLACEMENT_3D('',#1393,#1394,#1395);
#1393 = CARTESIAN_POINT('',(8.97544044222,-15.88840674416,0.));
#1394 = DIRECTION('',(0.939692620786,0.342020143326,0.));
#1395 = DIRECTION('',(0.,0.,1.));
#1396 = ADVANCED_FACE('',(#1397),#1416,.F.);
#1397 = FACE_BOUND('',#1398,.F.);
#1398 = EDGE_LOOP('',(#1399,#1408,#1414,#1415));
#1399 = ORIENTED_EDGE('',*,*,#1400,.F.);
#1400 = EDGE_CURVE('',#1401,#1401,#1403,.T.);
#1401 = VERTEX_POINT('',#1402);
#1402 = CARTESIAN_POINT('',(8.174281425483,-22.45865363678,2.));
#1403 = CIRCLE('',#1404,1.4);
#1404 = AXIS2_PLACEMENT_3D('',#1405,#1406,#1407);
#1405 = CARTESIAN_POINT('',(7.695453224828,-21.14308396768,2.));
#1406 = DIRECTION('',(0.,0.,1.));
#1407 = DIRECTION('',(0.342020143326,-0.939692620786,0.));
#1408 = ORIENTED_EDGE('',*,*,#1409,.F.);
#1409 = EDGE_CURVE('',#550,#1401,#1410,.T.);
#1410 = LINE('',#1411,#1412);
#1411 = CARTESIAN_POINT('',(8.174281425483,-22.45865363678,-1.));
#1412 = VECTOR('',#1413,1.);
#1413 = DIRECTION('',(0.,0.,1.));
#1414 = ORIENTED_EDGE('',*,*,#549,.T.);
#1415 = ORIENTED_EDGE('',*,*,#1409,.T.);
#1416 = CYLINDRICAL_SURFACE('',#1417,1.4);
#1417 = AXIS2_PLACEMENT_3D('',#1418,#1419,#1420);
#1418 = CARTESIAN_POINT('',(7.695453224828,-21.14308396768,-1.));
#1419 = DIRECTION('',(0.,0.,1.));
#1420 = DIRECTION('',(0.342020143326,-0.939692620786,0.));
#1421 = ADVANCED_FACE('',(#1422),#1440,.T.);
#1422 = FACE_BOUND('',#1423,.T.);
#1423 = EDGE_LOOP('',(#1424,#1425,#1433,#1439));
#1424 = ORIENTED_EDGE('',*,*,#571,.F.);
#1425 = ORIENTED_EDGE('',*,*,#1426,.T.);
#1426 = EDGE_CURVE('',#572,#1427,#1429,.T.);
#1427 = VERTEX_POINT('',#1428);
#1428 = CARTESIAN_POINT('',(8.97544044222,-15.88840674416,2.));
#1429 = LINE('',#1430,#1431);
#1430 = CARTESIAN_POINT('',(8.97544044222,-15.88840674416,0.));
#1431 = VECTOR('',#1432,1.);
#1432 = DIRECTION('',(0.,0.,1.));
#1433 = ORIENTED_EDGE('',*,*,#1434,.T.);
#1434 = EDGE_CURVE('',#1427,#1162,#1435,.T.);
#1435 = LINE('',#1436,#1437);
#1436 = CARTESIAN_POINT('',(8.97544044222,-15.88840674416,2.));
#1437 = VECTOR('',#1438,1.);
#1438 = DIRECTION('',(0.342020143326,-0.939692620786,0.));
#1439 = ORIENTED_EDGE('',*,*,#1170,.F.);
#1440 = PLANE('',#1441);
#1441 = AXIS2_PLACEMENT_3D('',#1442,#1443,#1444);
#1442 = CARTESIAN_POINT('',(8.97544044222,-15.88840674416,0.));
#1443 = DIRECTION('',(0.939692620786,0.342020143326,0.));
#1444 = DIRECTION('',(0.,0.,1.));
#1445 = ADVANCED_FACE('',(#1446),#1464,.F.);
#1446 = FACE_BOUND('',#1447,.F.);
#1447 = EDGE_LOOP('',(#1448,#1456,#1457,#1458));
#1448 = ORIENTED_EDGE('',*,*,#1449,.F.);
#1449 = EDGE_CURVE('',#580,#1450,#1452,.T.);
#1450 = VERTEX_POINT('',#1451);
#1451 = CARTESIAN_POINT('',(3.337284717504,-17.94052760412,2.));
#1452 = LINE('',#1453,#1454);
#1453 = CARTESIAN_POINT('',(3.337284717504,-17.94052760412,0.));
#1454 = VECTOR('',#1455,1.);
#1455 = DIRECTION('',(0.,0.,1.));
#1456 = ORIENTED_EDGE('',*,*,#579,.T.);
#1457 = ORIENTED_EDGE('',*,*,#1426,.T.);
#1458 = ORIENTED_EDGE('',*,*,#1459,.F.);
#1459 = EDGE_CURVE('',#1450,#1427,#1460,.T.);
#1460 = LINE('',#1461,#1462);
#1461 = CARTESIAN_POINT('',(3.337284717504,-17.94052760412,2.));
#1462 = VECTOR('',#1463,1.);
#1463 = DIRECTION('',(0.939692620786,0.342020143326,0.));
#1464 = PLANE('',#1465);
#1465 = AXIS2_PLACEMENT_3D('',#1466,#1467,#1468);
#1466 = CARTESIAN_POINT('',(3.337284717504,-17.94052760412,0.));
#1467 = DIRECTION('',(0.342020143326,-0.939692620786,0.));
#1468 = DIRECTION('',(0.,0.,1.));
#1469 = ADVANCED_FACE('',(#1470),#1488,.F.);
#1470 = FACE_BOUND('',#1471,.F.);
#1471 = EDGE_LOOP('',(#1472,#1473,#1481,#1487));
#1472 = ORIENTED_EDGE('',*,*,#620,.F.);
#1473 = ORIENTED_EDGE('',*,*,#1474,.T.);
#1474 = EDGE_CURVE('',#613,#1475,#1477,.T.);
#1475 = VERTEX_POINT('',#1476);
#1476 = CARTESIAN_POINT('',(-17.94052760412,-3.337284717504,2.));
#1477 = LINE('',#1478,#1479);
#1478 = CARTESIAN_POINT('',(-17.94052760412,-3.337284717504,0.));
#1479 = VECTOR('',#1480,1.);
#1480 = DIRECTION('',(0.,0.,1.));
#1481 = ORIENTED_EDGE('',*,*,#1482,.T.);
#1482 = EDGE_CURVE('',#1475,#1130,#1483,.T.);
#1483 = LINE('',#1484,#1485);
#1484 = CARTESIAN_POINT('',(-17.94052760412,-3.337284717504,2.));
#1485 = VECTOR('',#1486,1.);
#1486 = DIRECTION('',(-0.939692620786,-0.342020143326,0.));
#1487 = ORIENTED_EDGE('',*,*,#1129,.F.);
#1488 = PLANE('',#1489);
#1489 = AXIS2_PLACEMENT_3D('',#1490,#1491,#1492);
#1490 = CARTESIAN_POINT('',(-17.94052760412,-3.337284717504,0.));
#1491 = DIRECTION('',(0.342020143326,-0.939692620786,0.));
#1492 = DIRECTION('',(0.,0.,1.));
#1493 = ADVANCED_FACE('',(#1494),#1505,.F.);
#1494 = FACE_BOUND('',#1495,.F.);
#1495 = EDGE_LOOP('',(#1496,#1497,#1498,#1504));
#1496 = ORIENTED_EDGE('',*,*,#587,.F.);
#1497 = ORIENTED_EDGE('',*,*,#1449,.T.);
#1498 = ORIENTED_EDGE('',*,*,#1499,.T.);
#1499 = EDGE_CURVE('',#1450,#1154,#1500,.T.);
#1500 = LINE('',#1501,#1502);
#1501 = CARTESIAN_POINT('',(3.337284717504,-17.94052760412,2.));
#1502 = VECTOR('',#1503,1.);
#1503 = DIRECTION('',(0.342020143326,-0.939692620786,0.));
#1504 = ORIENTED_EDGE('',*,*,#1153,.F.);
#1505 = PLANE('',#1506);
#1506 = AXIS2_PLACEMENT_3D('',#1507,#1508,#1509);
#1507 = CARTESIAN_POINT('',(3.337284717504,-17.94052760412,0.));
#1508 = DIRECTION('',(0.939692620786,0.342020143326,0.));
#1509 = DIRECTION('',(0.,0.,1.));
#1510 = ADVANCED_FACE('',(#1511),#1529,.F.);
#1511 = FACE_BOUND('',#1512,.F.);
#1512 = EDGE_LOOP('',(#1513,#1514,#1515,#1523));
#1513 = ORIENTED_EDGE('',*,*,#1474,.F.);
#1514 = ORIENTED_EDGE('',*,*,#612,.T.);
#1515 = ORIENTED_EDGE('',*,*,#1516,.T.);
#1516 = EDGE_CURVE('',#605,#1517,#1519,.T.);
#1517 = VERTEX_POINT('',#1518);
#1518 = CARTESIAN_POINT('',(-15.88840674416,-8.97544044222,2.));
#1519 = LINE('',#1520,#1521);
#1520 = CARTESIAN_POINT('',(-15.88840674416,-8.97544044222,0.));
#1521 = VECTOR('',#1522,1.);
#1522 = DIRECTION('',(0.,0.,1.));
#1523 = ORIENTED_EDGE('',*,*,#1524,.F.);
#1524 = EDGE_CURVE('',#1475,#1517,#1525,.T.);
#1525 = LINE('',#1526,#1527);
#1526 = CARTESIAN_POINT('',(-17.94052760412,-3.337284717504,2.));
#1527 = VECTOR('',#1528,1.);
#1528 = DIRECTION('',(0.342020143326,-0.939692620786,0.));
#1529 = PLANE('',#1530);
#1530 = AXIS2_PLACEMENT_3D('',#1531,#1532,#1533);
#1531 = CARTESIAN_POINT('',(-17.94052760412,-3.337284717504,0.));
#1532 = DIRECTION('',(-0.939692620786,-0.342020143326,0.));
#1533 = DIRECTION('',(0.,0.,1.));
#1534 = ADVANCED_FACE('',(#1535),#1546,.T.);
#1535 = FACE_BOUND('',#1536,.T.);
#1536 = EDGE_LOOP('',(#1537,#1538,#1539,#1545));
#1537 = ORIENTED_EDGE('',*,*,#604,.F.);
#1538 = ORIENTED_EDGE('',*,*,#1516,.T.);
#1539 = ORIENTED_EDGE('',*,*,#1540,.T.);
#1540 = EDGE_CURVE('',#1517,#1138,#1541,.T.);
#1541 = LINE('',#1542,#1543);
#1542 = CARTESIAN_POINT('',(-15.88840674416,-8.97544044222,2.));
#1543 = VECTOR('',#1544,1.);
#1544 = DIRECTION('',(-0.939692620786,-0.342020143326,0.));
#1545 = ORIENTED_EDGE('',*,*,#1146,.F.);
#1546 = PLANE('',#1547);
#1547 = AXIS2_PLACEMENT_3D('',#1548,#1549,#1550);
#1548 = CARTESIAN_POINT('',(-15.88840674416,-8.97544044222,0.));
#1549 = DIRECTION('',(0.342020143326,-0.939692620786,0.));
#1550 = DIRECTION('',(0.,0.,1.));
#1551 = ADVANCED_FACE('',(#1552),#1563,.T.);
#1552 = FACE_BOUND('',#1553,.T.);
#1553 = EDGE_LOOP('',(#1554,#1555,#1561,#1562));
#1554 = ORIENTED_EDGE('',*,*,#844,.F.);
#1555 = ORIENTED_EDGE('',*,*,#1556,.F.);
#1556 = EDGE_CURVE('',#934,#845,#1557,.T.);
#1557 = LINE('',#1558,#1559);
#1558 = CARTESIAN_POINT('',(17.175481411214,-10.8312205357,7.24));
#1559 = VECTOR('',#1560,1.);
#1560 = DIRECTION('',(0.469471562786,0.882947592859,0.));
#1561 = ORIENTED_EDGE('',*,*,#933,.T.);
#1562 = ORIENTED_EDGE('',*,*,#1320,.T.);
#1563 = PLANE('',#1564);
#1564 = AXIS2_PLACEMENT_3D('',#1565,#1566,#1567);
#1565 = CARTESIAN_POINT('',(16.601565475856,-10.52606401989,7.24));
#1566 = DIRECTION('',(0.,0.,1.));
#1567 = DIRECTION('',(0.882947592859,-0.469471562786,0.));
#1568 = ADVANCED_FACE('',(#1569),#1580,.T.);
#1569 = FACE_BOUND('',#1570,.T.);
#1570 = EDGE_LOOP('',(#1571,#1572,#1573,#1574));
#1571 = ORIENTED_EDGE('',*,*,#982,.F.);
#1572 = ORIENTED_EDGE('',*,*,#1556,.T.);
#1573 = ORIENTED_EDGE('',*,*,#895,.T.);
#1574 = ORIENTED_EDGE('',*,*,#1575,.F.);
#1575 = EDGE_CURVE('',#975,#888,#1576,.T.);
#1576 = LINE('',#1577,#1578);
#1577 = CARTESIAN_POINT('',(17.175481411214,-10.8312205357,7.25));
#1578 = VECTOR('',#1579,1.);
#1579 = DIRECTION('',(0.469471562786,0.882947592859,0.));
#1580 = PLANE('',#1581);
#1581 = AXIS2_PLACEMENT_3D('',#1582,#1583,#1584);
#1582 = CARTESIAN_POINT('',(17.175481411214,-10.8312205357,6.05));
#1583 = DIRECTION('',(0.882947592859,-0.469471562786,0.));
#1584 = DIRECTION('',(0.,0.,1.));
#1585 = ADVANCED_FACE('',(#1586),#1597,.T.);
#1586 = FACE_BOUND('',#1587,.T.);
#1587 = EDGE_LOOP('',(#1588,#1594,#1595,#1596));
#1588 = ORIENTED_EDGE('',*,*,#1589,.F.);
#1589 = EDGE_CURVE('',#967,#880,#1590,.T.);
#1590 = LINE('',#1591,#1592);
#1591 = CARTESIAN_POINT('',(16.292533818356,-10.36174897291,7.25));
#1592 = VECTOR('',#1593,1.);
#1593 = DIRECTION('',(0.469471562786,0.882947592859,0.));
#1594 = ORIENTED_EDGE('',*,*,#974,.T.);
#1595 = ORIENTED_EDGE('',*,*,#1575,.T.);
#1596 = ORIENTED_EDGE('',*,*,#887,.F.);
#1597 = PLANE('',#1598);
#1598 = AXIS2_PLACEMENT_3D('',#1599,#1600,#1601);
#1599 = CARTESIAN_POINT('',(16.292533818356,-10.36174897291,7.25));
#1600 = DIRECTION('',(0.,0.,1.));
#1601 = DIRECTION('',(0.882947592859,-0.469471562786,0.));
#1602 = ADVANCED_FACE('',(#1603),#1614,.F.);
#1603 = FACE_BOUND('',#1604,.F.);
#1604 = EDGE_LOOP('',(#1605,#1606,#1612,#1613));
#1605 = ORIENTED_EDGE('',*,*,#966,.F.);
#1606 = ORIENTED_EDGE('',*,*,#1607,.T.);
#1607 = EDGE_CURVE('',#959,#872,#1608,.T.);
#1608 = LINE('',#1609,#1610);
#1609 = CARTESIAN_POINT('',(16.292533818356,-10.36174897291,6.05));
#1610 = VECTOR('',#1611,1.);
#1611 = DIRECTION('',(0.469471562786,0.882947592859,0.));
#1612 = ORIENTED_EDGE('',*,*,#879,.T.);
#1613 = ORIENTED_EDGE('',*,*,#1589,.F.);
#1614 = PLANE('',#1615);
#1615 = AXIS2_PLACEMENT_3D('',#1616,#1617,#1618);
#1616 = CARTESIAN_POINT('',(16.292533818356,-10.36174897291,6.05));
#1617 = DIRECTION('',(0.882947592859,-0.469471562786,0.));
#1618 = DIRECTION('',(0.,0.,1.));
#1619 = ADVANCED_FACE('',(#1620),#1626,.F.);
#1620 = FACE_BOUND('',#1621,.F.);
#1621 = EDGE_LOOP('',(#1622,#1623,#1624,#1625));
#1622 = ORIENTED_EDGE('',*,*,#871,.F.);
#1623 = ORIENTED_EDGE('',*,*,#1607,.F.);
#1624 = ORIENTED_EDGE('',*,*,#958,.T.);
#1625 = ORIENTED_EDGE('',*,*,#919,.F.);
#1626 = PLANE('',#1627);
#1627 = AXIS2_PLACEMENT_3D('',#1628,#1629,#1630);
#1628 = CARTESIAN_POINT('',(16.292533818356,-10.36174897291,6.05));
#1629 = DIRECTION('',(0.,0.,1.));
#1630 = DIRECTION('',(0.882947592859,-0.469471562786,0.));
#1631 = ADVANCED_FACE('',(#1632,#1638),#1641,.T.);
#1632 = FACE_BOUND('',#1633,.T.);
#1633 = EDGE_LOOP('',(#1634,#1635,#1636,#1637));
#1634 = ORIENTED_EDGE('',*,*,#1367,.F.);
#1635 = ORIENTED_EDGE('',*,*,#1385,.F.);
#1636 = ORIENTED_EDGE('',*,*,#1012,.F.);
#1637 = ORIENTED_EDGE('',*,*,#1336,.T.);
#1638 = FACE_BOUND('',#1639,.T.);
#1639 = EDGE_LOOP('',(#1640));
#1640 = ORIENTED_EDGE('',*,*,#1400,.F.);
#1641 = PLANE('',#1642);
#1642 = AXIS2_PLACEMENT_3D('',#1643,#1644,#1645);
#1643 = CARTESIAN_POINT('',(7.695453224828,-21.14308396768,2.));
#1644 = DIRECTION('',(0.,0.,1.));
#1645 = DIRECTION('',(0.342020143326,-0.939692620786,0.));
#1646 = ADVANCED_FACE('',(#1647),#1653,.T.);
#1647 = FACE_BOUND('',#1648,.T.);
#1648 = EDGE_LOOP('',(#1649,#1650,#1651,#1652));
#1649 = ORIENTED_EDGE('',*,*,#1161,.T.);
#1650 = ORIENTED_EDGE('',*,*,#1434,.F.);
#1651 = ORIENTED_EDGE('',*,*,#1459,.F.);
#1652 = ORIENTED_EDGE('',*,*,#1499,.T.);
#1653 = PLANE('',#1654);
#1654 = AXIS2_PLACEMENT_3D('',#1655,#1656,#1657);
#1655 = CARTESIAN_POINT('',(7.695453224828,-21.14308396768,2.));
#1656 = DIRECTION('',(0.,0.,1.));
#1657 = DIRECTION('',(0.342020143326,-0.939692620786,0.));
#1658 = ADVANCED_FACE('',(#1659),#1665,.T.);
#1659 = FACE_BOUND('',#1660,.T.);
#1660 = EDGE_LOOP('',(#1661,#1662,#1663,#1664));
#1661 = ORIENTED_EDGE('',*,*,#1137,.T.);
#1662 = ORIENTED_EDGE('',*,*,#1540,.F.);
#1663 = ORIENTED_EDGE('',*,*,#1524,.F.);
#1664 = ORIENTED_EDGE('',*,*,#1482,.T.);
#1665 = PLANE('',#1666);
#1666 = AXIS2_PLACEMENT_3D('',#1667,#1668,#1669);
#1667 = CARTESIAN_POINT('',(-21.14308396768,-7.695453224828,2.));
#1668 = DIRECTION('',(0.,0.,1.));
#1669 = DIRECTION('',(-0.939692620786,-0.342020143326,0.));
#1670 = ( GEOMETRIC_REPRESENTATION_CONTEXT(3) 
GLOBAL_UNCERTAINTY_ASSIGNED_CONTEXT((#1674)) 
GLOBAL_UNIT_ASSIGNED_CONTEXT((#1671,#1672,#1673)) REPRESENTATION_CONTEXT
('Context #1','3D Context with UNIT and UNCERTAINTY') );
#1671 = ( LENGTH_UNIT() NAMED_UNIT(*) SI_UNIT(.MILLI.,.METRE.) );
#1672 = ( NAMED_UNIT(*) PLANE_ANGLE_UNIT() SI_UNIT($,.RADIAN.) );
#1673 = ( NAMED_UNIT(*) SI_UNIT($,.STERADIAN.) SOLID_ANGLE_UNIT() );
#1674 = UNCERTAINTY_MEASURE_WITH_UNIT(LENGTH_MEASURE(2.E-07),#1671,
  'distance_accuracy_value','confusion accuracy');
#1675 = CONTEXT_DEPENDENT_SHAPE_REPRESENTATION(#1676,#1678);
#1676 = ( REPRESENTATION_RELATIONSHIP('','',#32,#10) 
REPRESENTATION_RELATIONSHIP_WITH_TRANSFORMATION(#1677) 
SHAPE_REPRESENTATION_RELATIONSHIP() );
#1677 = ITEM_DEFINED_TRANSFORMATION('','',#11,#15);
#1678 = PRODUCT_DEFINITION_SHAPE('Placement','Placement of an item',
  #1679);
#1679 = NEXT_ASSEMBLY_USAGE_OCCURRENCE('11','=>[0:1:1:2]','',#5,#27,$);
#1680 = PRODUCT_RELATED_PRODUCT_CATEGORY('part',$,(#29));
ENDSEC;
END-ISO-10303-21;
