ISO-10303-21;
HEADER;
FILE_DESCRIPTION(('Open CASCADE Model'),'2;1');
FILE_NAME('Open CASCADE Shape Model','2026-09-08T15:12:01',('Author'),(
    'Open CASCADE'),'Open CASCADE STEP processor 7.9','build123d',
  'Unknown');
FILE_SCHEMA(('AUTOMOTIVE_DESIGN { 1 0 10303 214 1 1 1 1 }'));
ENDSEC;
DATA;
#1 = APPLICATION_PROTOCOL_DEFINITION('international standard',
  'automotive_design',2000,#2);
#2 = APPLICATION_CONTEXT(
  'core data for automotive mechanical design processes');
#3 = SHAPE_DEFINITION_REPRESENTATION(#4,#10);
#4 = PRODUCT_DEFINITION_SHAPE('','',#5);
#5 = PRODUCT_DEFINITION('design','',#6,#9);
#6 = PRODUCT_DEFINITION_FORMATION('','',#7);
#7 = PRODUCT('=>[0:1:1:2]','=>[0:1:1:2]','',(#8));
#8 = PRODUCT_CONTEXT('',#2,'mechanical');
#9 = PRODUCT_DEFINITION_CONTEXT('part definition',#2,'design');
#10 = SHAPE_REPRESENTATION('',(#11,#15),#19);
#11 = AXIS2_PLACEMENT_3D('',#12,#13,#14);
#12 = CARTESIAN_POINT('',(0.,0.,0.));
#13 = DIRECTION('',(0.,0.,1.));
#14 = DIRECTION('',(1.,0.,-0.));
#15 = AXIS2_PLACEMENT_3D('',#16,#17,#18);
#16 = CARTESIAN_POINT('',(-28.82839673346,56.578914285961,-17.8));
#17 = DIRECTION('',(0.,0.,1.));
#18 = DIRECTION('',(1.,0.,-0.));
#19 = ( GEOMETRIC_REPRESENTATION_CONTEXT(3) 
GLOBAL_UNCERTAINTY_ASSIGNED_CONTEXT((#23)) GLOBAL_UNIT_ASSIGNED_CONTEXT(
(#20,#21,#22)) REPRESENTATION_CONTEXT('Context #1',
  '3D Context with UNIT and UNCERTAINTY') );
#20 = ( LENGTH_UNIT() NAMED_UNIT(*) SI_UNIT(.MILLI.,.METRE.) );
#21 = ( NAMED_UNIT(*) PLANE_ANGLE_UNIT() SI_UNIT($,.RADIAN.) );
#22 = ( NAMED_UNIT(*) SI_UNIT($,.STERADIAN.) SOLID_ANGLE_UNIT() );
#23 = UNCERTAINTY_MEASURE_WITH_UNIT(LENGTH_MEASURE(1.E-07),#20,
  'distance_accuracy_value','confusion accuracy');
#24 = PRODUCT_RELATED_PRODUCT_CATEGORY('part',$,(#7));
#25 = SHAPE_DEFINITION_REPRESENTATION(#26,#32);
#26 = PRODUCT_DEFINITION_SHAPE('','',#27);
#27 = PRODUCT_DEFINITION('design','',#28,#31);
#28 = PRODUCT_DEFINITION_FORMATION('','',#29);
#29 = PRODUCT('COMPOUND','COMPOUND','',(#30));
#30 = PRODUCT_CONTEXT('',#2,'mechanical');
#31 = PRODUCT_DEFINITION_CONTEXT('part definition',#2,'design');
#32 = ADVANCED_BREP_SHAPE_REPRESENTATION('',(#11,#33),#603);
#33 = MANIFOLD_SOLID_BREP('',#34);
#34 = CLOSED_SHELL('',(#35,#75,#106,#238,#262,#387,#404,#421,#438,#455,
    #472,#489,#506,#523,#535,#552,#569,#586));
#35 = ADVANCED_FACE('',(#36),#70,.F.);
#36 = FACE_BOUND('',#37,.F.);
#37 = EDGE_LOOP('',(#38,#48,#56,#64));
#38 = ORIENTED_EDGE('',*,*,#39,.F.);
#39 = EDGE_CURVE('',#40,#42,#44,.T.);
#40 = VERTEX_POINT('',#41);
#41 = CARTESIAN_POINT('',(17.364133246048,-78.13281561938,17.8));
#42 = VERTEX_POINT('',#43);
#43 = CARTESIAN_POINT('',(17.364133246048,-78.13281561938,19.));
#44 = LINE('',#45,#46);
#45 = CARTESIAN_POINT('',(17.364133246048,-78.13281561938,17.8));
#46 = VECTOR('',#47,1.);
#47 = DIRECTION('',(0.,0.,1.));
#48 = ORIENTED_EDGE('',*,*,#49,.T.);
#49 = EDGE_CURVE('',#40,#50,#52,.T.);
#50 = VERTEX_POINT('',#51);
#51 = CARTESIAN_POINT('',(4.65239925334,-53.18463294211,17.8));
#52 = LINE('',#53,#54);
#53 = CARTESIAN_POINT('',(17.364133246048,-78.13281561938,17.8));
#54 = VECTOR('',#55,1.);
#55 = DIRECTION('',(-0.45399049974,0.891006524188,0.));
#56 = ORIENTED_EDGE('',*,*,#57,.T.);
#57 = EDGE_CURVE('',#50,#58,#60,.T.);
#58 = VERTEX_POINT('',#59);
#59 = CARTESIAN_POINT('',(4.65239925334,-53.18463294211,19.));
#60 = LINE('',#61,#62);
#61 = CARTESIAN_POINT('',(4.65239925334,-53.18463294211,17.8));
#62 = VECTOR('',#63,1.);
#63 = DIRECTION('',(0.,0.,1.));
#64 = ORIENTED_EDGE('',*,*,#65,.F.);
#65 = EDGE_CURVE('',#42,#58,#66,.T.);
#66 = LINE('',#67,#68);
#67 = CARTESIAN_POINT('',(17.364133246048,-78.13281561938,19.));
#68 = VECTOR('',#69,1.);
#69 = DIRECTION('',(-0.45399049974,0.891006524188,0.));
#70 = PLANE('',#71);
#71 = AXIS2_PLACEMENT_3D('',#72,#73,#74);
#72 = CARTESIAN_POINT('',(17.364133246048,-78.13281561938,17.8));
#73 = DIRECTION('',(0.891006524188,0.45399049974,0.));
#74 = DIRECTION('',(0.,0.,1.));
#75 = ADVANCED_FACE('',(#76),#101,.F.);
#76 = FACE_BOUND('',#77,.F.);
#77 = EDGE_LOOP('',(#78,#86,#87,#95));
#78 = ORIENTED_EDGE('',*,*,#79,.F.);
#79 = EDGE_CURVE('',#40,#80,#82,.T.);
#80 = VERTEX_POINT('',#81);
#81 = CARTESIAN_POINT('',(53.004394213582,-59.9731956298,17.8));
#82 = LINE('',#83,#84);
#83 = CARTESIAN_POINT('',(17.364133246048,-78.13281561938,17.8));
#84 = VECTOR('',#85,1.);
#85 = DIRECTION('',(0.891006524188,0.45399049974,0.));
#86 = ORIENTED_EDGE('',*,*,#39,.T.);
#87 = ORIENTED_EDGE('',*,*,#88,.T.);
#88 = EDGE_CURVE('',#42,#89,#91,.T.);
#89 = VERTEX_POINT('',#90);
#90 = CARTESIAN_POINT('',(53.004394213582,-59.9731956298,19.));
#91 = LINE('',#92,#93);
#92 = CARTESIAN_POINT('',(17.364133246048,-78.13281561938,19.));
#93 = VECTOR('',#94,1.);
#94 = DIRECTION('',(0.891006524188,0.45399049974,0.));
#95 = ORIENTED_EDGE('',*,*,#96,.F.);
#96 = EDGE_CURVE('',#80,#89,#97,.T.);
#97 = LINE('',#98,#99);
#98 = CARTESIAN_POINT('',(53.004394213582,-59.9731956298,17.8));
#99 = VECTOR('',#100,1.);
#100 = DIRECTION('',(0.,0.,1.));
#101 = PLANE('',#102);
#102 = AXIS2_PLACEMENT_3D('',#103,#104,#105);
#103 = CARTESIAN_POINT('',(17.364133246048,-78.13281561938,17.8));
#104 = DIRECTION('',(-0.45399049974,0.891006524188,0.));
#105 = DIRECTION('',(0.,0.,1.));
#106 = ADVANCED_FACE('',(#107,#189,#200,#211,#222),#233,.T.);
#107 = FACE_BOUND('',#108,.T.);
#108 = EDGE_LOOP('',(#109,#117,#118,#119,#127,#135,#143,#151,#159,#167,
    #175,#183));
#109 = ORIENTED_EDGE('',*,*,#110,.F.);
#110 = EDGE_CURVE('',#58,#111,#113,.T.);
#111 = VERTEX_POINT('',#112);
#112 = CARTESIAN_POINT('',(18.017497116166,-46.37477544602,19.));
#113 = LINE('',#114,#115);
#114 = CARTESIAN_POINT('',(4.65239925334,-53.18463294211,19.));
#115 = VECTOR('',#116,1.);
#116 = DIRECTION('',(0.891006524188,0.45399049974,0.));
#117 = ORIENTED_EDGE('',*,*,#65,.F.);
#118 = ORIENTED_EDGE('',*,*,#88,.T.);
#119 = ORIENTED_EDGE('',*,*,#120,.T.);
#120 = EDGE_CURVE('',#89,#121,#123,.T.);
#121 = VERTEX_POINT('',#122);
#122 = CARTESIAN_POINT('',(40.292660220875,-35.02501295253,19.));
#123 = LINE('',#124,#125);
#124 = CARTESIAN_POINT('',(53.004394213582,-59.9731956298,19.));
#125 = VECTOR('',#126,1.);
#126 = DIRECTION('',(-0.45399049974,0.891006524188,0.));
#127 = ORIENTED_EDGE('',*,*,#128,.F.);
#128 = EDGE_CURVE('',#129,#121,#131,.T.);
#129 = VERTEX_POINT('',#130);
#130 = CARTESIAN_POINT('',(26.927562358049,-41.83487044862,19.));
#131 = LINE('',#132,#133);
#132 = CARTESIAN_POINT('',(4.65239925334,-53.18463294211,19.));
#133 = VECTOR('',#134,1.);
#134 = DIRECTION('',(0.891006524188,0.45399049974,0.));
#135 = ORIENTED_EDGE('',*,*,#136,.F.);
#136 = EDGE_CURVE('',#137,#129,#139,.T.);
#137 = VERTEX_POINT('',#138);
#138 = CARTESIAN_POINT('',(28.289533857268,-44.50789002119,19.));
#139 = LINE('',#140,#141);
#140 = CARTESIAN_POINT('',(32.942936479598,-53.64070689412,19.));
#141 = VECTOR('',#142,1.);
#142 = DIRECTION('',(-0.45399049974,0.891006524188,0.));
#143 = ORIENTED_EDGE('',*,*,#144,.T.);
#144 = EDGE_CURVE('',#137,#145,#147,.T.);
#145 = VERTEX_POINT('',#146);
#146 = CARTESIAN_POINT('',(30.517050167739,-43.37291377184,19.));
#147 = LINE('',#148,#149);
#148 = CARTESIAN_POINT('',(11.583161528736,-53.0202118913,19.));
#149 = VECTOR('',#150,1.);
#150 = DIRECTION('',(0.891006524188,0.45399049974,-0.));
#151 = ORIENTED_EDGE('',*,*,#152,.F.);
#152 = EDGE_CURVE('',#153,#145,#155,.T.);
#153 = VERTEX_POINT('',#154);
#154 = CARTESIAN_POINT('',(40.504841162009,-62.97505730398,19.));
#155 = LINE('',#156,#157);
#156 = CARTESIAN_POINT('',(36.191931414483,-54.51049532419,19.));
#157 = VECTOR('',#158,1.);
#158 = DIRECTION('',(-0.45399049974,0.891006524188,0.));
#159 = ORIENTED_EDGE('',*,*,#160,.F.);
#160 = EDGE_CURVE('',#161,#153,#163,.T.);
#161 = VERTEX_POINT('',#162);
#162 = CARTESIAN_POINT('',(27.139743299183,-69.78491480008,19.));
#163 = LINE('',#164,#165);
#164 = CARTESIAN_POINT('',(21.570952523006,-72.62235542345,19.));
#165 = VECTOR('',#166,1.);
#166 = DIRECTION('',(0.891006524188,0.45399049974,-0.));
#167 = ORIENTED_EDGE('',*,*,#168,.T.);
#168 = EDGE_CURVE('',#161,#169,#171,.T.);
#169 = VERTEX_POINT('',#170);
#170 = CARTESIAN_POINT('',(17.151952304913,-50.18277126793,19.));
#171 = LINE('',#172,#173);
#172 = CARTESIAN_POINT('',(22.826833551658,-61.32035282029,19.));
#173 = VECTOR('',#174,1.);
#174 = DIRECTION('',(-0.45399049974,0.891006524188,0.));
#175 = ORIENTED_EDGE('',*,*,#176,.T.);
#176 = EDGE_CURVE('',#169,#177,#179,.T.);
#177 = VERTEX_POINT('',#178);
#178 = CARTESIAN_POINT('',(19.379468615384,-49.04779501858,19.));
#179 = LINE('',#180,#181);
#180 = CARTESIAN_POINT('',(11.583161528736,-53.0202118913,19.));
#181 = VECTOR('',#182,1.);
#182 = DIRECTION('',(0.891006524188,0.45399049974,-0.));
#183 = ORIENTED_EDGE('',*,*,#184,.T.);
#184 = EDGE_CURVE('',#177,#111,#185,.T.);
#185 = LINE('',#186,#187);
#186 = CARTESIAN_POINT('',(24.032871237715,-58.18061189151,19.));
#187 = VECTOR('',#188,1.);
#188 = DIRECTION('',(-0.45399049974,0.891006524188,0.));
#189 = FACE_BOUND('',#190,.T.);
#190 = EDGE_LOOP('',(#191));
#191 = ORIENTED_EDGE('',*,*,#192,.F.);
#192 = EDGE_CURVE('',#193,#193,#195,.T.);
#193 = VERTEX_POINT('',#194);
#194 = CARTESIAN_POINT('',(21.506270941899,-66.48183290377,19.));
#195 = CIRCLE('',#196,1.1);
#196 = AXIS2_PLACEMENT_3D('',#197,#198,#199);
#197 = CARTESIAN_POINT('',(20.406270941899,-66.48183290377,19.));
#198 = DIRECTION('',(0.,0.,1.));
#199 = DIRECTION('',(1.,0.,-0.));
#200 = FACE_BOUND('',#201,.T.);
#201 = EDGE_LOOP('',(#202));
#202 = ORIENTED_EDGE('',*,*,#203,.F.);
#203 = EDGE_CURVE('',#204,#204,#206,.T.);
#204 = VERTEX_POINT('',#205);
#205 = CARTESIAN_POINT('',(42.890427522419,-55.58606091002,19.));
#206 = CIRCLE('',#207,1.1);
#207 = AXIS2_PLACEMENT_3D('',#208,#209,#210);
#208 = CARTESIAN_POINT('',(41.790427522419,-55.58606091002,19.));
#209 = DIRECTION('',(0.,0.,1.));
#210 = DIRECTION('',(1.,0.,-0.));
#211 = FACE_BOUND('',#212,.T.);
#212 = EDGE_LOOP('',(#213));
#213 = ORIENTED_EDGE('',*,*,#214,.F.);
#214 = EDGE_CURVE('',#215,#215,#217,.T.);
#215 = VERTEX_POINT('',#216);
#216 = CARTESIAN_POINT('',(15.604394445284,-54.89874808932,19.));
#217 = CIRCLE('',#218,1.1);
#218 = AXIS2_PLACEMENT_3D('',#219,#220,#221);
#219 = CARTESIAN_POINT('',(14.504394445284,-54.89874808932,19.));
#220 = DIRECTION('',(0.,0.,1.));
#221 = DIRECTION('',(1.,0.,-0.));
#222 = FACE_BOUND('',#223,.T.);
#223 = EDGE_LOOP('',(#224));
#224 = ORIENTED_EDGE('',*,*,#225,.F.);
#225 = EDGE_CURVE('',#226,#226,#228,.T.);
#226 = VERTEX_POINT('',#227);
#227 = CARTESIAN_POINT('',(36.988551025805,-44.00297609558,19.));
#228 = CIRCLE('',#229,1.1);
#229 = AXIS2_PLACEMENT_3D('',#230,#231,#232);
#230 = CARTESIAN_POINT('',(35.888551025805,-44.00297609558,19.));
#231 = DIRECTION('',(0.,0.,1.));
#232 = DIRECTION('',(1.,0.,-0.));
#233 = PLANE('',#234);
#234 = AXIS2_PLACEMENT_3D('',#235,#236,#237);
#235 = CARTESIAN_POINT('',(17.364133246048,-78.13281561938,19.));
#236 = DIRECTION('',(0.,0.,1.));
#237 = DIRECTION('',(0.891006524188,0.45399049974,0.));
#238 = ADVANCED_FACE('',(#239),#257,.T.);
#239 = FACE_BOUND('',#240,.T.);
#240 = EDGE_LOOP('',(#241,#249,#250,#251));
#241 = ORIENTED_EDGE('',*,*,#242,.F.);
#242 = EDGE_CURVE('',#50,#243,#245,.T.);
#243 = VERTEX_POINT('',#244);
#244 = CARTESIAN_POINT('',(18.017497116166,-46.37477544602,17.8));
#245 = LINE('',#246,#247);
#246 = CARTESIAN_POINT('',(4.65239925334,-53.18463294211,17.8));
#247 = VECTOR('',#248,1.);
#248 = DIRECTION('',(0.891006524188,0.45399049974,0.));
#249 = ORIENTED_EDGE('',*,*,#57,.T.);
#250 = ORIENTED_EDGE('',*,*,#110,.T.);
#251 = ORIENTED_EDGE('',*,*,#252,.T.);
#252 = EDGE_CURVE('',#111,#243,#253,.T.);
#253 = LINE('',#254,#255);
#254 = CARTESIAN_POINT('',(18.017497116166,-46.37477544602,17.3));
#255 = VECTOR('',#256,1.);
#256 = DIRECTION('',(0.,0.,-1.));
#257 = PLANE('',#258);
#258 = AXIS2_PLACEMENT_3D('',#259,#260,#261);
#259 = CARTESIAN_POINT('',(4.65239925334,-53.18463294211,17.8));
#260 = DIRECTION('',(-0.45399049974,0.891006524188,0.));
#261 = DIRECTION('',(0.,0.,1.));
#262 = ADVANCED_FACE('',(#263,#338,#349,#360,#371),#382,.F.);
#263 = FACE_BOUND('',#264,.F.);
#264 = EDGE_LOOP('',(#265,#266,#267,#268,#276,#284,#292,#300,#308,#316,
    #324,#332));
#265 = ORIENTED_EDGE('',*,*,#242,.F.);
#266 = ORIENTED_EDGE('',*,*,#49,.F.);
#267 = ORIENTED_EDGE('',*,*,#79,.T.);
#268 = ORIENTED_EDGE('',*,*,#269,.T.);
#269 = EDGE_CURVE('',#80,#270,#272,.T.);
#270 = VERTEX_POINT('',#271);
#271 = CARTESIAN_POINT('',(40.292660220875,-35.02501295253,17.8));
#272 = LINE('',#273,#274);
#273 = CARTESIAN_POINT('',(53.004394213582,-59.9731956298,17.8));
#274 = VECTOR('',#275,1.);
#275 = DIRECTION('',(-0.45399049974,0.891006524188,0.));
#276 = ORIENTED_EDGE('',*,*,#277,.F.);
#277 = EDGE_CURVE('',#278,#270,#280,.T.);
#278 = VERTEX_POINT('',#279);
#279 = CARTESIAN_POINT('',(26.927562358049,-41.83487044862,17.8));
#280 = LINE('',#281,#282);
#281 = CARTESIAN_POINT('',(4.65239925334,-53.18463294211,17.8));
#282 = VECTOR('',#283,1.);
#283 = DIRECTION('',(0.891006524188,0.45399049974,0.));
#284 = ORIENTED_EDGE('',*,*,#285,.F.);
#285 = EDGE_CURVE('',#286,#278,#288,.T.);
#286 = VERTEX_POINT('',#287);
#287 = CARTESIAN_POINT('',(28.289533857268,-44.50789002119,17.8));
#288 = LINE('',#289,#290);
#289 = CARTESIAN_POINT('',(32.942936479598,-53.64070689412,17.8));
#290 = VECTOR('',#291,1.);
#291 = DIRECTION('',(-0.45399049974,0.891006524188,0.));
#292 = ORIENTED_EDGE('',*,*,#293,.T.);
#293 = EDGE_CURVE('',#286,#294,#296,.T.);
#294 = VERTEX_POINT('',#295);
#295 = CARTESIAN_POINT('',(30.517050167739,-43.37291377184,17.8));
#296 = LINE('',#297,#298);
#297 = CARTESIAN_POINT('',(11.583161528736,-53.0202118913,17.8));
#298 = VECTOR('',#299,1.);
#299 = DIRECTION('',(0.891006524188,0.45399049974,-0.));
#300 = ORIENTED_EDGE('',*,*,#301,.F.);
#301 = EDGE_CURVE('',#302,#294,#304,.T.);
#302 = VERTEX_POINT('',#303);
#303 = CARTESIAN_POINT('',(40.504841162009,-62.97505730398,17.8));
#304 = LINE('',#305,#306);
#305 = CARTESIAN_POINT('',(36.191931414483,-54.51049532419,17.8));
#306 = VECTOR('',#307,1.);
#307 = DIRECTION('',(-0.45399049974,0.891006524188,0.));
#308 = ORIENTED_EDGE('',*,*,#309,.F.);
#309 = EDGE_CURVE('',#310,#302,#312,.T.);
#310 = VERTEX_POINT('',#311);
#311 = CARTESIAN_POINT('',(27.139743299183,-69.78491480008,17.8));
#312 = LINE('',#313,#314);
#313 = CARTESIAN_POINT('',(21.570952523006,-72.62235542345,17.8));
#314 = VECTOR('',#315,1.);
#315 = DIRECTION('',(0.891006524188,0.45399049974,-0.));
#316 = ORIENTED_EDGE('',*,*,#317,.T.);
#317 = EDGE_CURVE('',#310,#318,#320,.T.);
#318 = VERTEX_POINT('',#319);
#319 = CARTESIAN_POINT('',(17.151952304913,-50.18277126793,17.8));
#320 = LINE('',#321,#322);
#321 = CARTESIAN_POINT('',(22.826833551658,-61.32035282029,17.8));
#322 = VECTOR('',#323,1.);
#323 = DIRECTION('',(-0.45399049974,0.891006524188,0.));
#324 = ORIENTED_EDGE('',*,*,#325,.T.);
#325 = EDGE_CURVE('',#318,#326,#328,.T.);
#326 = VERTEX_POINT('',#327);
#327 = CARTESIAN_POINT('',(19.379468615384,-49.04779501858,17.8));
#328 = LINE('',#329,#330);
#329 = CARTESIAN_POINT('',(11.583161528736,-53.0202118913,17.8));
#330 = VECTOR('',#331,1.);
#331 = DIRECTION('',(0.891006524188,0.45399049974,-0.));
#332 = ORIENTED_EDGE('',*,*,#333,.T.);
#333 = EDGE_CURVE('',#326,#243,#334,.T.);
#334 = LINE('',#335,#336);
#335 = CARTESIAN_POINT('',(24.032871237715,-58.18061189151,17.8));
#336 = VECTOR('',#337,1.);
#337 = DIRECTION('',(-0.45399049974,0.891006524188,0.));
#338 = FACE_BOUND('',#339,.F.);
#339 = EDGE_LOOP('',(#340));
#340 = ORIENTED_EDGE('',*,*,#341,.F.);
#341 = EDGE_CURVE('',#342,#342,#344,.T.);
#342 = VERTEX_POINT('',#343);
#343 = CARTESIAN_POINT('',(21.506270941899,-66.48183290377,17.8));
#344 = CIRCLE('',#345,1.1);
#345 = AXIS2_PLACEMENT_3D('',#346,#347,#348);
#346 = CARTESIAN_POINT('',(20.406270941899,-66.48183290377,17.8));
#347 = DIRECTION('',(0.,0.,1.));
#348 = DIRECTION('',(1.,0.,-0.));
#349 = FACE_BOUND('',#350,.F.);
#350 = EDGE_LOOP('',(#351));
#351 = ORIENTED_EDGE('',*,*,#352,.F.);
#352 = EDGE_CURVE('',#353,#353,#355,.T.);
#353 = VERTEX_POINT('',#354);
#354 = CARTESIAN_POINT('',(42.890427522419,-55.58606091002,17.8));
#355 = CIRCLE('',#356,1.1);
#356 = AXIS2_PLACEMENT_3D('',#357,#358,#359);
#357 = CARTESIAN_POINT('',(41.790427522419,-55.58606091002,17.8));
#358 = DIRECTION('',(0.,0.,1.));
#359 = DIRECTION('',(1.,0.,-0.));
#360 = FACE_BOUND('',#361,.F.);
#361 = EDGE_LOOP('',(#362));
#362 = ORIENTED_EDGE('',*,*,#363,.F.);
#363 = EDGE_CURVE('',#364,#364,#366,.T.);
#364 = VERTEX_POINT('',#365);
#365 = CARTESIAN_POINT('',(15.604394445284,-54.89874808932,17.8));
#366 = CIRCLE('',#367,1.1);
#367 = AXIS2_PLACEMENT_3D('',#368,#369,#370);
#368 = CARTESIAN_POINT('',(14.504394445284,-54.89874808932,17.8));
#369 = DIRECTION('',(0.,0.,1.));
#370 = DIRECTION('',(1.,0.,-0.));
#371 = FACE_BOUND('',#372,.F.);
#372 = EDGE_LOOP('',(#373));
#373 = ORIENTED_EDGE('',*,*,#374,.F.);
#374 = EDGE_CURVE('',#375,#375,#377,.T.);
#375 = VERTEX_POINT('',#376);
#376 = CARTESIAN_POINT('',(36.988551025805,-44.00297609558,17.8));
#377 = CIRCLE('',#378,1.1);
#378 = AXIS2_PLACEMENT_3D('',#379,#380,#381);
#379 = CARTESIAN_POINT('',(35.888551025805,-44.00297609558,17.8));
#380 = DIRECTION('',(0.,0.,1.));
#381 = DIRECTION('',(1.,0.,-0.));
#382 = PLANE('',#383);
#383 = AXIS2_PLACEMENT_3D('',#384,#385,#386);
#384 = CARTESIAN_POINT('',(17.364133246048,-78.13281561938,17.8));
#385 = DIRECTION('',(0.,0.,1.));
#386 = DIRECTION('',(0.891006524188,0.45399049974,0.));
#387 = ADVANCED_FACE('',(#388),#399,.T.);
#388 = FACE_BOUND('',#389,.T.);
#389 = EDGE_LOOP('',(#390,#391,#392,#398));
#390 = ORIENTED_EDGE('',*,*,#96,.F.);
#391 = ORIENTED_EDGE('',*,*,#269,.T.);
#392 = ORIENTED_EDGE('',*,*,#393,.T.);
#393 = EDGE_CURVE('',#270,#121,#394,.T.);
#394 = LINE('',#395,#396);
#395 = CARTESIAN_POINT('',(40.292660220875,-35.02501295253,17.8));
#396 = VECTOR('',#397,1.);
#397 = DIRECTION('',(0.,0.,1.));
#398 = ORIENTED_EDGE('',*,*,#120,.F.);
#399 = PLANE('',#400);
#400 = AXIS2_PLACEMENT_3D('',#401,#402,#403);
#401 = CARTESIAN_POINT('',(53.004394213582,-59.9731956298,17.8));
#402 = DIRECTION('',(0.891006524188,0.45399049974,0.));
#403 = DIRECTION('',(0.,0.,1.));
#404 = ADVANCED_FACE('',(#405),#416,.T.);
#405 = FACE_BOUND('',#406,.T.);
#406 = EDGE_LOOP('',(#407,#408,#414,#415));
#407 = ORIENTED_EDGE('',*,*,#184,.F.);
#408 = ORIENTED_EDGE('',*,*,#409,.F.);
#409 = EDGE_CURVE('',#326,#177,#410,.T.);
#410 = LINE('',#411,#412);
#411 = CARTESIAN_POINT('',(19.379468615384,-49.04779501858,16.8));
#412 = VECTOR('',#413,1.);
#413 = DIRECTION('',(-0.,0.,1.));
#414 = ORIENTED_EDGE('',*,*,#333,.T.);
#415 = ORIENTED_EDGE('',*,*,#252,.F.);
#416 = PLANE('',#417);
#417 = AXIS2_PLACEMENT_3D('',#418,#419,#420);
#418 = CARTESIAN_POINT('',(17.336511366556,-45.03826565973,16.8));
#419 = DIRECTION('',(0.891006524188,0.45399049974,0.));
#420 = DIRECTION('',(0.,0.,1.));
#421 = ADVANCED_FACE('',(#422),#433,.T.);
#422 = FACE_BOUND('',#423,.T.);
#423 = EDGE_LOOP('',(#424,#430,#431,#432));
#424 = ORIENTED_EDGE('',*,*,#425,.F.);
#425 = EDGE_CURVE('',#318,#169,#426,.T.);
#426 = LINE('',#427,#428);
#427 = CARTESIAN_POINT('',(17.151952304913,-50.18277126793,16.8));
#428 = VECTOR('',#429,1.);
#429 = DIRECTION('',(0.,0.,1.));
#430 = ORIENTED_EDGE('',*,*,#325,.T.);
#431 = ORIENTED_EDGE('',*,*,#409,.T.);
#432 = ORIENTED_EDGE('',*,*,#176,.F.);
#433 = PLANE('',#434);
#434 = AXIS2_PLACEMENT_3D('',#435,#436,#437);
#435 = CARTESIAN_POINT('',(17.151952304913,-50.18277126793,16.8));
#436 = DIRECTION('',(0.45399049974,-0.891006524188,0.));
#437 = DIRECTION('',(0.,0.,1.));
#438 = ADVANCED_FACE('',(#439),#450,.T.);
#439 = FACE_BOUND('',#440,.T.);
#440 = EDGE_LOOP('',(#441,#447,#448,#449));
#441 = ORIENTED_EDGE('',*,*,#442,.F.);
#442 = EDGE_CURVE('',#310,#161,#443,.T.);
#443 = LINE('',#444,#445);
#444 = CARTESIAN_POINT('',(27.139743299183,-69.78491480008,16.8));
#445 = VECTOR('',#446,1.);
#446 = DIRECTION('',(0.,0.,1.));
#447 = ORIENTED_EDGE('',*,*,#317,.T.);
#448 = ORIENTED_EDGE('',*,*,#425,.T.);
#449 = ORIENTED_EDGE('',*,*,#168,.F.);
#450 = PLANE('',#451);
#451 = AXIS2_PLACEMENT_3D('',#452,#453,#454);
#452 = CARTESIAN_POINT('',(17.151952304913,-50.18277126793,16.8));
#453 = DIRECTION('',(0.891006524188,0.45399049974,0.));
#454 = DIRECTION('',(0.,0.,1.));
#455 = ADVANCED_FACE('',(#456),#467,.F.);
#456 = FACE_BOUND('',#457,.F.);
#457 = EDGE_LOOP('',(#458,#459,#460,#466));
#458 = ORIENTED_EDGE('',*,*,#442,.F.);
#459 = ORIENTED_EDGE('',*,*,#309,.T.);
#460 = ORIENTED_EDGE('',*,*,#461,.T.);
#461 = EDGE_CURVE('',#302,#153,#462,.T.);
#462 = LINE('',#463,#464);
#463 = CARTESIAN_POINT('',(40.504841162009,-62.97505730398,16.8));
#464 = VECTOR('',#465,1.);
#465 = DIRECTION('',(0.,0.,1.));
#466 = ORIENTED_EDGE('',*,*,#160,.F.);
#467 = PLANE('',#468);
#468 = AXIS2_PLACEMENT_3D('',#469,#470,#471);
#469 = CARTESIAN_POINT('',(27.139743299183,-69.78491480008,16.8));
#470 = DIRECTION('',(0.45399049974,-0.891006524188,0.));
#471 = DIRECTION('',(0.,0.,1.));
#472 = ADVANCED_FACE('',(#473),#484,.F.);
#473 = FACE_BOUND('',#474,.F.);
#474 = EDGE_LOOP('',(#475,#476,#477,#483));
#475 = ORIENTED_EDGE('',*,*,#461,.F.);
#476 = ORIENTED_EDGE('',*,*,#301,.T.);
#477 = ORIENTED_EDGE('',*,*,#478,.T.);
#478 = EDGE_CURVE('',#294,#145,#479,.T.);
#479 = LINE('',#480,#481);
#480 = CARTESIAN_POINT('',(30.517050167739,-43.37291377184,16.8));
#481 = VECTOR('',#482,1.);
#482 = DIRECTION('',(0.,0.,1.));
#483 = ORIENTED_EDGE('',*,*,#152,.F.);
#484 = PLANE('',#485);
#485 = AXIS2_PLACEMENT_3D('',#486,#487,#488);
#486 = CARTESIAN_POINT('',(30.517050167739,-43.37291377184,16.8));
#487 = DIRECTION('',(0.891006524188,0.45399049974,0.));
#488 = DIRECTION('',(0.,0.,1.));
#489 = ADVANCED_FACE('',(#490),#501,.T.);
#490 = FACE_BOUND('',#491,.T.);
#491 = EDGE_LOOP('',(#492,#498,#499,#500));
#492 = ORIENTED_EDGE('',*,*,#493,.F.);
#493 = EDGE_CURVE('',#286,#137,#494,.T.);
#494 = LINE('',#495,#496);
#495 = CARTESIAN_POINT('',(28.289533857268,-44.50789002119,16.8));
#496 = VECTOR('',#497,1.);
#497 = DIRECTION('',(-0.,0.,1.));
#498 = ORIENTED_EDGE('',*,*,#293,.T.);
#499 = ORIENTED_EDGE('',*,*,#478,.T.);
#500 = ORIENTED_EDGE('',*,*,#144,.F.);
#501 = PLANE('',#502);
#502 = AXIS2_PLACEMENT_3D('',#503,#504,#505);
#503 = CARTESIAN_POINT('',(17.151952304913,-50.18277126793,16.8));
#504 = DIRECTION('',(0.45399049974,-0.891006524188,0.));
#505 = DIRECTION('',(0.,0.,1.));
#506 = ADVANCED_FACE('',(#507),#518,.F.);
#507 = FACE_BOUND('',#508,.F.);
#508 = EDGE_LOOP('',(#509,#510,#511,#512));
#509 = ORIENTED_EDGE('',*,*,#136,.F.);
#510 = ORIENTED_EDGE('',*,*,#493,.F.);
#511 = ORIENTED_EDGE('',*,*,#285,.T.);
#512 = ORIENTED_EDGE('',*,*,#513,.F.);
#513 = EDGE_CURVE('',#129,#278,#514,.T.);
#514 = LINE('',#515,#516);
#515 = CARTESIAN_POINT('',(26.927562358049,-41.83487044862,17.3));
#516 = VECTOR('',#517,1.);
#517 = DIRECTION('',(0.,0.,-1.));
#518 = PLANE('',#519);
#519 = AXIS2_PLACEMENT_3D('',#520,#521,#522);
#520 = CARTESIAN_POINT('',(26.24657660844,-40.49836066234,16.8));
#521 = DIRECTION('',(0.891006524188,0.45399049974,0.));
#522 = DIRECTION('',(0.,0.,1.));
#523 = ADVANCED_FACE('',(#524),#530,.T.);
#524 = FACE_BOUND('',#525,.T.);
#525 = EDGE_LOOP('',(#526,#527,#528,#529));
#526 = ORIENTED_EDGE('',*,*,#277,.F.);
#527 = ORIENTED_EDGE('',*,*,#513,.F.);
#528 = ORIENTED_EDGE('',*,*,#128,.T.);
#529 = ORIENTED_EDGE('',*,*,#393,.F.);
#530 = PLANE('',#531);
#531 = AXIS2_PLACEMENT_3D('',#532,#533,#534);
#532 = CARTESIAN_POINT('',(4.65239925334,-53.18463294211,17.8));
#533 = DIRECTION('',(-0.45399049974,0.891006524188,0.));
#534 = DIRECTION('',(0.,0.,1.));
#535 = ADVANCED_FACE('',(#536),#547,.F.);
#536 = FACE_BOUND('',#537,.F.);
#537 = EDGE_LOOP('',(#538,#539,#545,#546));
#538 = ORIENTED_EDGE('',*,*,#192,.F.);
#539 = ORIENTED_EDGE('',*,*,#540,.F.);
#540 = EDGE_CURVE('',#342,#193,#541,.T.);
#541 = LINE('',#542,#543);
#542 = CARTESIAN_POINT('',(21.506270941899,-66.48183290377,-40.));
#543 = VECTOR('',#544,1.);
#544 = DIRECTION('',(0.,0.,1.));
#545 = ORIENTED_EDGE('',*,*,#341,.T.);
#546 = ORIENTED_EDGE('',*,*,#540,.T.);
#547 = CYLINDRICAL_SURFACE('',#548,1.1);
#548 = AXIS2_PLACEMENT_3D('',#549,#550,#551);
#549 = CARTESIAN_POINT('',(20.406270941899,-66.48183290377,-40.));
#550 = DIRECTION('',(0.,0.,1.));
#551 = DIRECTION('',(1.,0.,-0.));
#552 = ADVANCED_FACE('',(#553),#564,.F.);
#553 = FACE_BOUND('',#554,.F.);
#554 = EDGE_LOOP('',(#555,#556,#562,#563));
#555 = ORIENTED_EDGE('',*,*,#203,.F.);
#556 = ORIENTED_EDGE('',*,*,#557,.F.);
#557 = EDGE_CURVE('',#353,#204,#558,.T.);
#558 = LINE('',#559,#560);
#559 = CARTESIAN_POINT('',(42.890427522419,-55.58606091002,-40.));
#560 = VECTOR('',#561,1.);
#561 = DIRECTION('',(0.,0.,1.));
#562 = ORIENTED_EDGE('',*,*,#352,.T.);
#563 = ORIENTED_EDGE('',*,*,#557,.T.);
#564 = CYLINDRICAL_SURFACE('',#565,1.1);
#565 = AXIS2_PLACEMENT_3D('',#566,#567,#568);
#566 = CARTESIAN_POINT('',(41.790427522419,-55.58606091002,-40.));
#567 = DIRECTION('',(0.,0.,1.));
#568 = DIRECTION('',(1.,0.,-0.));
#569 = ADVANCED_FACE('',(#570),#581,.F.);
#570 = FACE_BOUND('',#571,.F.);
#571 = EDGE_LOOP('',(#572,#573,#579,#580));
#572 = ORIENTED_EDGE('',*,*,#214,.F.);
#573 = ORIENTED_EDGE('',*,*,#574,.F.);
#574 = EDGE_CURVE('',#364,#215,#575,.T.);
#575 = LINE('',#576,#577);
#576 = CARTESIAN_POINT('',(15.604394445284,-54.89874808932,-40.));
#577 = VECTOR('',#578,1.);
#578 = DIRECTION('',(0.,0.,1.));
#579 = ORIENTED_EDGE('',*,*,#363,.T.);
#580 = ORIENTED_EDGE('',*,*,#574,.T.);
#581 = CYLINDRICAL_SURFACE('',#582,1.1);
#582 = AXIS2_PLACEMENT_3D('',#583,#584,#585);
#583 = CARTESIAN_POINT('',(14.504394445284,-54.89874808932,-40.));
#584 = DIRECTION('',(0.,0.,1.));
#585 = DIRECTION('',(1.,0.,-0.));
#586 = ADVANCED_FACE('',(#587),#598,.F.);
#587 = FACE_BOUND('',#588,.F.);
#588 = EDGE_LOOP('',(#589,#590,#596,#597));
#589 = ORIENTED_EDGE('',*,*,#225,.F.);
#590 = ORIENTED_EDGE('',*,*,#591,.F.);
#591 = EDGE_CURVE('',#375,#226,#592,.T.);
#592 = LINE('',#593,#594);
#593 = CARTESIAN_POINT('',(36.988551025805,-44.00297609558,-40.));
#594 = VECTOR('',#595,1.);
#595 = DIRECTION('',(0.,0.,1.));
#596 = ORIENTED_EDGE('',*,*,#374,.T.);
#597 = ORIENTED_EDGE('',*,*,#591,.T.);
#598 = CYLINDRICAL_SURFACE('',#599,1.1);
#599 = AXIS2_PLACEMENT_3D('',#600,#601,#602);
#600 = CARTESIAN_POINT('',(35.888551025805,-44.00297609558,-40.));
#601 = DIRECTION('',(0.,0.,1.));
#602 = DIRECTION('',(1.,0.,-0.));
#603 = ( GEOMETRIC_REPRESENTATION_CONTEXT(3) 
GLOBAL_UNCERTAINTY_ASSIGNED_CONTEXT((#607)) GLOBAL_UNIT_ASSIGNED_CONTEXT
((#604,#605,#606)) REPRESENTATION_CONTEXT('Context #1',
  '3D Context with UNIT and UNCERTAINTY') );
#604 = ( LENGTH_UNIT() NAMED_UNIT(*) SI_UNIT(.MILLI.,.METRE.) );
#605 = ( NAMED_UNIT(*) PLANE_ANGLE_UNIT() SI_UNIT($,.RADIAN.) );
#606 = ( NAMED_UNIT(*) SI_UNIT($,.STERADIAN.) SOLID_ANGLE_UNIT() );
#607 = UNCERTAINTY_MEASURE_WITH_UNIT(LENGTH_MEASURE(1.E-07),#604,
  'distance_accuracy_value','confusion accuracy');
#608 = CONTEXT_DEPENDENT_SHAPE_REPRESENTATION(#609,#611);
#609 = ( REPRESENTATION_RELATIONSHIP('','',#32,#10) 
REPRESENTATION_RELATIONSHIP_WITH_TRANSFORMATION(#610) 
SHAPE_REPRESENTATION_RELATIONSHIP() );
#610 = ITEM_DEFINED_TRANSFORMATION('','',#11,#15);
#611 = PRODUCT_DEFINITION_SHAPE('Placement','Placement of an item',#612
  );
#612 = NEXT_ASSEMBLY_USAGE_OCCURRENCE('7','=>[0:1:1:2]','',#5,#27,$);
#613 = PRODUCT_RELATED_PRODUCT_CATEGORY('part',$,(#29));
ENDSEC;
END-ISO-10303-21;
