ISO-10303-21;
HEADER;
FILE_DESCRIPTION(('Open CASCADE Model'),'2;1');
FILE_NAME('Open CASCADE Shape Model','2026-09-08T15:12:01',('Author'),(
    'Open CASCADE'),'Open CASCADE STEP processor 7.9','build123d',
  'Unknown');
FILE_SCHEMA(('AUTOMOTIVE_DESIGN { 1 0 10303 214 1 1 1 1 }'));
ENDSEC;
DATA;
#1 = APPLICATION_PROTOCOL_DEFINITION('international standard',
  'automotive_design',2000,#2);
#2 = APPLICATION_CONTEXT(
  'core data for automotive mechanical design processes');
#3 = SHAPE_DEFINITION_REPRESENTATION(#4,#10);
#4 = PRODUCT_DEFINITION_SHAPE('','',#5);
#5 = PRODUCT_DEFINITION('design','',#6,#9);
#6 = PRODUCT_DEFINITION_FORMATION('','',#7);
#7 = PRODUCT('=>[0:1:1:2]','=>[0:1:1:2]','',(#8));
#8 = PRODUCT_CONTEXT('',#2,'mechanical');
#9 = PRODUCT_DEFINITION_CONTEXT('part definition',#2,'design');
#10 = SHAPE_REPRESENTATION('',(#11,#15),#19);
#11 = AXIS2_PLACEMENT_3D('',#12,#13,#14);
#12 = CARTESIAN_POINT('',(0.,0.,0.));
#13 = DIRECTION('',(0.,0.,1.));
#14 = DIRECTION('',(1.,0.,-0.));
#15 = AXIS2_PLACEMENT_3D('',#16,#17,#18);
#16 = CARTESIAN_POINT('',(1.465494392505E-14,77.504,-8.));
#17 = DIRECTION('',(0.,0.,1.));
#18 = DIRECTION('',(1.,0.,-0.));
#19 = ( GEOMETRIC_REPRESENTATION_CONTEXT(3) 
GLOBAL_UNCERTAINTY_ASSIGNED_CONTEXT((#23)) GLOBAL_UNIT_ASSIGNED_CONTEXT(
(#20,#21,#22)) REPRESENTATION_CONTEXT('Context #1',
  '3D Context with UNIT and UNCERTAINTY') );
#20 = ( LENGTH_UNIT() NAMED_UNIT(*) SI_UNIT(.MILLI.,.METRE.) );
#21 = ( NAMED_UNIT(*) PLANE_ANGLE_UNIT() SI_UNIT($,.RADIAN.) );
#22 = ( NAMED_UNIT(*) SI_UNIT($,.STERADIAN.) SOLID_ANGLE_UNIT() );
#23 = UNCERTAINTY_MEASURE_WITH_UNIT(LENGTH_MEASURE(1.E-07),#20,
  'distance_accuracy_value','confusion accuracy');
#24 = PRODUCT_RELATED_PRODUCT_CATEGORY('part',$,(#7));
#25 = SHAPE_DEFINITION_REPRESENTATION(#26,#32);
#26 = PRODUCT_DEFINITION_SHAPE('','',#27);
#27 = PRODUCT_DEFINITION('design','',#28,#31);
#28 = PRODUCT_DEFINITION_FORMATION('','',#29);
#29 = PRODUCT('COMPOUND','COMPOUND','',(#30));
#30 = PRODUCT_CONTEXT('',#2,'mechanical');
#31 = PRODUCT_DEFINITION_CONTEXT('part definition',#2,'design');
#32 = ADVANCED_BREP_SHAPE_REPRESENTATION('',(#11,#33),#448);
#33 = MANIFOLD_SOLID_BREP('',#34);
#34 = CLOSED_SHELL('',(#35,#86,#117,#186,#221,#238,#263,#275,#306,#341,
    #365,#385,#402,#414,#439));
#35 = ADVANCED_FACE('',(#36,#70),#81,.F.);
#36 = FACE_BOUND('',#37,.F.);
#37 = EDGE_LOOP('',(#38,#48,#56,#64));
#38 = ORIENTED_EDGE('',*,*,#39,.F.);
#39 = EDGE_CURVE('',#40,#42,#44,.T.);
#40 = VERTEX_POINT('',#41);
#41 = CARTESIAN_POINT('',(-4.,-71.004,8.));
#42 = VERTEX_POINT('',#43);
#43 = CARTESIAN_POINT('',(-4.,-71.004,13.));
#44 = LINE('',#45,#46);
#45 = CARTESIAN_POINT('',(-4.,-71.004,8.));
#46 = VECTOR('',#47,1.);
#47 = DIRECTION('',(0.,0.,1.));
#48 = ORIENTED_EDGE('',*,*,#49,.T.);
#49 = EDGE_CURVE('',#40,#50,#52,.T.);
#50 = VERTEX_POINT('',#51);
#51 = CARTESIAN_POINT('',(4.,-71.004,8.));
#52 = LINE('',#53,#54);
#53 = CARTESIAN_POINT('',(-4.,-71.004,8.));
#54 = VECTOR('',#55,1.);
#55 = DIRECTION('',(1.,-2.22044604925E-16,0.));
#56 = ORIENTED_EDGE('',*,*,#57,.T.);
#57 = EDGE_CURVE('',#50,#58,#60,.T.);
#58 = VERTEX_POINT('',#59);
#59 = CARTESIAN_POINT('',(4.,-71.004,13.));
#60 = LINE('',#61,#62);
#61 = CARTESIAN_POINT('',(4.,-71.004,8.));
#62 = VECTOR('',#63,1.);
#63 = DIRECTION('',(0.,0.,1.));
#64 = ORIENTED_EDGE('',*,*,#65,.F.);
#65 = EDGE_CURVE('',#42,#58,#66,.T.);
#66 = LINE('',#67,#68);
#67 = CARTESIAN_POINT('',(-4.,-71.004,13.));
#68 = VECTOR('',#69,1.);
#69 = DIRECTION('',(1.,-2.22044604925E-16,0.));
#70 = FACE_BOUND('',#71,.F.);
#71 = EDGE_LOOP('',(#72));
#72 = ORIENTED_EDGE('',*,*,#73,.F.);
#73 = EDGE_CURVE('',#74,#74,#76,.T.);
#74 = VERTEX_POINT('',#75);
#75 = CARTESIAN_POINT('',(-1.603547742391E-14,-71.004,9.4));
#76 = CIRCLE('',#77,1.1);
#77 = AXIS2_PLACEMENT_3D('',#78,#79,#80);
#78 = CARTESIAN_POINT('',(-1.57660551281E-14,-71.004,10.5));
#79 = DIRECTION('',(-2.22044604925E-16,-1.,2.22044604925E-16));
#80 = DIRECTION('',(-4.930380657631E-32,-2.22044604925E-16,-1.));
#81 = PLANE('',#82);
#82 = AXIS2_PLACEMENT_3D('',#83,#84,#85);
#83 = CARTESIAN_POINT('',(-4.,-71.004,8.));
#84 = DIRECTION('',(-2.22044604925E-16,-1.,0.));
#85 = DIRECTION('',(0.,0.,1.));
#86 = ADVANCED_FACE('',(#87),#112,.F.);
#87 = FACE_BOUND('',#88,.F.);
#88 = EDGE_LOOP('',(#89,#97,#98,#106));
#89 = ORIENTED_EDGE('',*,*,#90,.F.);
#90 = EDGE_CURVE('',#40,#91,#93,.T.);
#91 = VERTEX_POINT('',#92);
#92 = CARTESIAN_POINT('',(-4.,-84.004,8.));
#93 = LINE('',#94,#95);
#94 = CARTESIAN_POINT('',(-4.,-71.004,8.));
#95 = VECTOR('',#96,1.);
#96 = DIRECTION('',(-2.22044604925E-16,-1.,0.));
#97 = ORIENTED_EDGE('',*,*,#39,.T.);
#98 = ORIENTED_EDGE('',*,*,#99,.T.);
#99 = EDGE_CURVE('',#42,#100,#102,.T.);
#100 = VERTEX_POINT('',#101);
#101 = CARTESIAN_POINT('',(-4.,-84.004,13.));
#102 = LINE('',#103,#104);
#103 = CARTESIAN_POINT('',(-4.,-71.004,13.));
#104 = VECTOR('',#105,1.);
#105 = DIRECTION('',(-2.22044604925E-16,-1.,0.));
#106 = ORIENTED_EDGE('',*,*,#107,.F.);
#107 = EDGE_CURVE('',#91,#100,#108,.T.);
#108 = LINE('',#109,#110);
#109 = CARTESIAN_POINT('',(-4.,-84.004,8.));
#110 = VECTOR('',#111,1.);
#111 = DIRECTION('',(0.,0.,1.));
#112 = PLANE('',#113);
#113 = AXIS2_PLACEMENT_3D('',#114,#115,#116);
#114 = CARTESIAN_POINT('',(-4.,-71.004,8.));
#115 = DIRECTION('',(1.,-2.22044604925E-16,0.));
#116 = DIRECTION('',(0.,0.,1.));
#117 = ADVANCED_FACE('',(#118,#136,#170),#181,.T.);
#118 = FACE_BOUND('',#119,.T.);
#119 = EDGE_LOOP('',(#120,#121,#122,#130));
#120 = ORIENTED_EDGE('',*,*,#65,.F.);
#121 = ORIENTED_EDGE('',*,*,#99,.T.);
#122 = ORIENTED_EDGE('',*,*,#123,.T.);
#123 = EDGE_CURVE('',#100,#124,#126,.T.);
#124 = VERTEX_POINT('',#125);
#125 = CARTESIAN_POINT('',(4.,-84.004,13.));
#126 = LINE('',#127,#128);
#127 = CARTESIAN_POINT('',(-4.,-84.004,13.));
#128 = VECTOR('',#129,1.);
#129 = DIRECTION('',(1.,-2.22044604925E-16,0.));
#130 = ORIENTED_EDGE('',*,*,#131,.F.);
#131 = EDGE_CURVE('',#58,#124,#132,.T.);
#132 = LINE('',#133,#134);
#133 = CARTESIAN_POINT('',(4.,-71.004,13.));
#134 = VECTOR('',#135,1.);
#135 = DIRECTION('',(-2.22044604925E-16,-1.,0.));
#136 = FACE_BOUND('',#137,.T.);
#137 = EDGE_LOOP('',(#138,#148,#156,#164));
#138 = ORIENTED_EDGE('',*,*,#139,.T.);
#139 = EDGE_CURVE('',#140,#142,#144,.T.);
#140 = VERTEX_POINT('',#141);
#141 = CARTESIAN_POINT('',(-2.1,-75.704,13.));
#142 = VERTEX_POINT('',#143);
#143 = CARTESIAN_POINT('',(-2.1,-73.904,13.));
#144 = LINE('',#145,#146);
#145 = CARTESIAN_POINT('',(-2.1,-72.454,13.));
#146 = VECTOR('',#147,1.);
#147 = DIRECTION('',(2.22044604925E-16,1.,-0.));
#148 = ORIENTED_EDGE('',*,*,#149,.T.);
#149 = EDGE_CURVE('',#142,#150,#152,.T.);
#150 = VERTEX_POINT('',#151);
#151 = CARTESIAN_POINT('',(2.1,-73.904,13.));
#152 = LINE('',#153,#154);
#153 = CARTESIAN_POINT('',(-3.05,-73.904,13.));
#154 = VECTOR('',#155,1.);
#155 = DIRECTION('',(1.,-2.22044604925E-16,0.));
#156 = ORIENTED_EDGE('',*,*,#157,.F.);
#157 = EDGE_CURVE('',#158,#150,#160,.T.);
#158 = VERTEX_POINT('',#159);
#159 = CARTESIAN_POINT('',(2.1,-75.704,13.));
#160 = LINE('',#161,#162);
#161 = CARTESIAN_POINT('',(2.1,-72.454,13.));
#162 = VECTOR('',#163,1.);
#163 = DIRECTION('',(2.22044604925E-16,1.,-0.));
#164 = ORIENTED_EDGE('',*,*,#165,.F.);
#165 = EDGE_CURVE('',#140,#158,#166,.T.);
#166 = LINE('',#167,#168);
#167 = CARTESIAN_POINT('',(-3.05,-75.704,13.));
#168 = VECTOR('',#169,1.);
#169 = DIRECTION('',(1.,-2.22044604925E-16,0.));
#170 = FACE_BOUND('',#171,.T.);
#171 = EDGE_LOOP('',(#172));
#172 = ORIENTED_EDGE('',*,*,#173,.F.);
#173 = EDGE_CURVE('',#174,#174,#176,.T.);
#174 = VERTEX_POINT('',#175);
#175 = CARTESIAN_POINT('',(-1.579611177245E-14,-83.754,13.));
#176 = CIRCLE('',#177,1.45);
#177 = AXIS2_PLACEMENT_3D('',#178,#179,#180);
#178 = CARTESIAN_POINT('',(-1.511899952355E-14,-82.304,13.));
#179 = DIRECTION('',(0.,0.,1.));
#180 = DIRECTION('',(-2.22044604925E-16,-1.,0.));
#181 = PLANE('',#182);
#182 = AXIS2_PLACEMENT_3D('',#183,#184,#185);
#183 = CARTESIAN_POINT('',(-4.,-71.004,13.));
#184 = DIRECTION('',(0.,0.,1.));
#185 = DIRECTION('',(-2.22044604925E-16,-1.,0.));
#186 = ADVANCED_FACE('',(#187,#205),#216,.F.);
#187 = FACE_BOUND('',#188,.F.);
#188 = EDGE_LOOP('',(#189,#190,#191,#199));
#189 = ORIENTED_EDGE('',*,*,#49,.F.);
#190 = ORIENTED_EDGE('',*,*,#90,.T.);
#191 = ORIENTED_EDGE('',*,*,#192,.T.);
#192 = EDGE_CURVE('',#91,#193,#195,.T.);
#193 = VERTEX_POINT('',#194);
#194 = CARTESIAN_POINT('',(4.,-84.004,8.));
#195 = LINE('',#196,#197);
#196 = CARTESIAN_POINT('',(-4.,-84.004,8.));
#197 = VECTOR('',#198,1.);
#198 = DIRECTION('',(1.,-2.22044604925E-16,0.));
#199 = ORIENTED_EDGE('',*,*,#200,.F.);
#200 = EDGE_CURVE('',#50,#193,#201,.T.);
#201 = LINE('',#202,#203);
#202 = CARTESIAN_POINT('',(4.,-71.004,8.));
#203 = VECTOR('',#204,1.);
#204 = DIRECTION('',(-2.22044604925E-16,-1.,0.));
#205 = FACE_BOUND('',#206,.F.);
#206 = EDGE_LOOP('',(#207));
#207 = ORIENTED_EDGE('',*,*,#208,.F.);
#208 = EDGE_CURVE('',#209,#209,#211,.T.);
#209 = VERTEX_POINT('',#210);
#210 = CARTESIAN_POINT('',(-1.579611177245E-14,-83.754,8.));
#211 = CIRCLE('',#212,1.45);
#212 = AXIS2_PLACEMENT_3D('',#213,#214,#215);
#213 = CARTESIAN_POINT('',(-1.511899952355E-14,-82.304,8.));
#214 = DIRECTION('',(0.,0.,1.));
#215 = DIRECTION('',(-2.22044604925E-16,-1.,0.));
#216 = PLANE('',#217);
#217 = AXIS2_PLACEMENT_3D('',#218,#219,#220);
#218 = CARTESIAN_POINT('',(-4.,-71.004,8.));
#219 = DIRECTION('',(0.,0.,1.));
#220 = DIRECTION('',(-2.22044604925E-16,-1.,0.));
#221 = ADVANCED_FACE('',(#222),#233,.T.);
#222 = FACE_BOUND('',#223,.T.);
#223 = EDGE_LOOP('',(#224,#225,#226,#227));
#224 = ORIENTED_EDGE('',*,*,#200,.F.);
#225 = ORIENTED_EDGE('',*,*,#57,.T.);
#226 = ORIENTED_EDGE('',*,*,#131,.T.);
#227 = ORIENTED_EDGE('',*,*,#228,.F.);
#228 = EDGE_CURVE('',#193,#124,#229,.T.);
#229 = LINE('',#230,#231);
#230 = CARTESIAN_POINT('',(4.,-84.004,8.));
#231 = VECTOR('',#232,1.);
#232 = DIRECTION('',(0.,0.,1.));
#233 = PLANE('',#234);
#234 = AXIS2_PLACEMENT_3D('',#235,#236,#237);
#235 = CARTESIAN_POINT('',(4.,-71.004,8.));
#236 = DIRECTION('',(1.,-2.22044604925E-16,0.));
#237 = DIRECTION('',(0.,0.,1.));
#238 = ADVANCED_FACE('',(#239),#258,.F.);
#239 = FACE_BOUND('',#240,.F.);
#240 = EDGE_LOOP('',(#241,#242,#250,#257));
#241 = ORIENTED_EDGE('',*,*,#73,.T.);
#242 = ORIENTED_EDGE('',*,*,#243,.T.);
#243 = EDGE_CURVE('',#74,#244,#246,.T.);
#244 = VERTEX_POINT('',#245);
#245 = CARTESIAN_POINT('',(-1.667940677819E-14,-73.904,9.4));
#246 = LINE('',#247,#248);
#247 = CARTESIAN_POINT('',(-1.581343281898E-14,-70.004,9.4));
#248 = VECTOR('',#249,1.);
#249 = DIRECTION('',(-2.22044604925E-16,-1.,2.22044604925E-16));
#250 = ORIENTED_EDGE('',*,*,#251,.F.);
#251 = EDGE_CURVE('',#244,#244,#252,.T.);
#252 = CIRCLE('',#253,1.1);
#253 = AXIS2_PLACEMENT_3D('',#254,#255,#256);
#254 = CARTESIAN_POINT('',(-1.640998448238E-14,-73.904,10.5));
#255 = DIRECTION('',(-2.22044604925E-16,-1.,2.22044604925E-16));
#256 = DIRECTION('',(-4.930380657631E-32,-2.22044604925E-16,-1.));
#257 = ORIENTED_EDGE('',*,*,#243,.F.);
#258 = CYLINDRICAL_SURFACE('',#259,1.1);
#259 = AXIS2_PLACEMENT_3D('',#260,#261,#262);
#260 = CARTESIAN_POINT('',(-1.554401052317E-14,-70.004,10.5));
#261 = DIRECTION('',(-2.22044604925E-16,-1.,2.22044604925E-16));
#262 = DIRECTION('',(-4.930380657631E-32,-2.22044604925E-16,-1.));
#263 = ADVANCED_FACE('',(#264),#270,.T.);
#264 = FACE_BOUND('',#265,.T.);
#265 = EDGE_LOOP('',(#266,#267,#268,#269));
#266 = ORIENTED_EDGE('',*,*,#107,.F.);
#267 = ORIENTED_EDGE('',*,*,#192,.T.);
#268 = ORIENTED_EDGE('',*,*,#228,.T.);
#269 = ORIENTED_EDGE('',*,*,#123,.F.);
#270 = PLANE('',#271);
#271 = AXIS2_PLACEMENT_3D('',#272,#273,#274);
#272 = CARTESIAN_POINT('',(-4.,-84.004,8.));
#273 = DIRECTION('',(-2.22044604925E-16,-1.,0.));
#274 = DIRECTION('',(0.,0.,1.));
#275 = ADVANCED_FACE('',(#276),#301,.T.);
#276 = FACE_BOUND('',#277,.T.);
#277 = EDGE_LOOP('',(#278,#286,#294,#300));
#278 = ORIENTED_EDGE('',*,*,#279,.F.);
#279 = EDGE_CURVE('',#280,#140,#282,.T.);
#280 = VERTEX_POINT('',#281);
#281 = CARTESIAN_POINT('',(-2.1,-75.704,8.090598923241));
#282 = LINE('',#283,#284);
#283 = CARTESIAN_POINT('',(-2.1,-75.704,8.090598923241));
#284 = VECTOR('',#285,1.);
#285 = DIRECTION('',(0.,0.,1.));
#286 = ORIENTED_EDGE('',*,*,#287,.F.);
#287 = EDGE_CURVE('',#288,#280,#290,.T.);
#288 = VERTEX_POINT('',#289);
#289 = CARTESIAN_POINT('',(-2.1,-73.904,8.090598923241));
#290 = LINE('',#291,#292);
#291 = CARTESIAN_POINT('',(-2.1,-73.904,8.090598923241));
#292 = VECTOR('',#293,1.);
#293 = DIRECTION('',(-2.22044604925E-16,-1.,0.));
#294 = ORIENTED_EDGE('',*,*,#295,.T.);
#295 = EDGE_CURVE('',#288,#142,#296,.T.);
#296 = LINE('',#297,#298);
#297 = CARTESIAN_POINT('',(-2.1,-73.904,8.090598923241));
#298 = VECTOR('',#299,1.);
#299 = DIRECTION('',(0.,0.,1.));
#300 = ORIENTED_EDGE('',*,*,#139,.F.);
#301 = PLANE('',#302);
#302 = AXIS2_PLACEMENT_3D('',#303,#304,#305);
#303 = CARTESIAN_POINT('',(-2.1,-73.904,8.090598923241));
#304 = DIRECTION('',(1.,-2.22044604925E-16,0.));
#305 = DIRECTION('',(0.,0.,1.));
#306 = ADVANCED_FACE('',(#307,#325),#336,.F.);
#307 = FACE_BOUND('',#308,.F.);
#308 = EDGE_LOOP('',(#309,#310,#318,#324));
#309 = ORIENTED_EDGE('',*,*,#279,.F.);
#310 = ORIENTED_EDGE('',*,*,#311,.T.);
#311 = EDGE_CURVE('',#280,#312,#314,.T.);
#312 = VERTEX_POINT('',#313);
#313 = CARTESIAN_POINT('',(2.1,-75.704,8.090598923241));
#314 = LINE('',#315,#316);
#315 = CARTESIAN_POINT('',(-2.1,-75.704,8.090598923241));
#316 = VECTOR('',#317,1.);
#317 = DIRECTION('',(1.,-2.22044604925E-16,0.));
#318 = ORIENTED_EDGE('',*,*,#319,.T.);
#319 = EDGE_CURVE('',#312,#158,#320,.T.);
#320 = LINE('',#321,#322);
#321 = CARTESIAN_POINT('',(2.1,-75.704,8.090598923241));
#322 = VECTOR('',#323,1.);
#323 = DIRECTION('',(0.,0.,1.));
#324 = ORIENTED_EDGE('',*,*,#165,.F.);
#325 = FACE_BOUND('',#326,.F.);
#326 = EDGE_LOOP('',(#327));
#327 = ORIENTED_EDGE('',*,*,#328,.F.);
#328 = EDGE_CURVE('',#329,#329,#331,.T.);
#329 = VERTEX_POINT('',#330);
#330 = CARTESIAN_POINT('',(-1.707908706706E-14,-75.704,9.4));
#331 = CIRCLE('',#332,1.1);
#332 = AXIS2_PLACEMENT_3D('',#333,#334,#335);
#333 = CARTESIAN_POINT('',(-1.680966477124E-14,-75.704,10.5));
#334 = DIRECTION('',(-2.22044604925E-16,-1.,2.22044604925E-16));
#335 = DIRECTION('',(-4.930380657631E-32,-2.22044604925E-16,-1.));
#336 = PLANE('',#337);
#337 = AXIS2_PLACEMENT_3D('',#338,#339,#340);
#338 = CARTESIAN_POINT('',(-2.1,-75.704,8.090598923241));
#339 = DIRECTION('',(-2.22044604925E-16,-1.,0.));
#340 = DIRECTION('',(0.,0.,1.));
#341 = ADVANCED_FACE('',(#342),#360,.F.);
#342 = FACE_BOUND('',#343,.F.);
#343 = EDGE_LOOP('',(#344,#345,#353,#359));
#344 = ORIENTED_EDGE('',*,*,#319,.F.);
#345 = ORIENTED_EDGE('',*,*,#346,.F.);
#346 = EDGE_CURVE('',#347,#312,#349,.T.);
#347 = VERTEX_POINT('',#348);
#348 = CARTESIAN_POINT('',(2.1,-73.904,8.090598923241));
#349 = LINE('',#350,#351);
#350 = CARTESIAN_POINT('',(2.1,-73.904,8.090598923241));
#351 = VECTOR('',#352,1.);
#352 = DIRECTION('',(-2.22044604925E-16,-1.,0.));
#353 = ORIENTED_EDGE('',*,*,#354,.T.);
#354 = EDGE_CURVE('',#347,#150,#355,.T.);
#355 = LINE('',#356,#357);
#356 = CARTESIAN_POINT('',(2.1,-73.904,8.090598923241));
#357 = VECTOR('',#358,1.);
#358 = DIRECTION('',(0.,0.,1.));
#359 = ORIENTED_EDGE('',*,*,#157,.F.);
#360 = PLANE('',#361);
#361 = AXIS2_PLACEMENT_3D('',#362,#363,#364);
#362 = CARTESIAN_POINT('',(2.1,-73.904,8.090598923241));
#363 = DIRECTION('',(1.,-2.22044604925E-16,0.));
#364 = DIRECTION('',(0.,0.,1.));
#365 = ADVANCED_FACE('',(#366,#377),#380,.T.);
#366 = FACE_BOUND('',#367,.T.);
#367 = EDGE_LOOP('',(#368,#369,#375,#376));
#368 = ORIENTED_EDGE('',*,*,#295,.F.);
#369 = ORIENTED_EDGE('',*,*,#370,.T.);
#370 = EDGE_CURVE('',#288,#347,#371,.T.);
#371 = LINE('',#372,#373);
#372 = CARTESIAN_POINT('',(-2.1,-73.904,8.090598923241));
#373 = VECTOR('',#374,1.);
#374 = DIRECTION('',(1.,-2.22044604925E-16,0.));
#375 = ORIENTED_EDGE('',*,*,#354,.T.);
#376 = ORIENTED_EDGE('',*,*,#149,.F.);
#377 = FACE_BOUND('',#378,.T.);
#378 = EDGE_LOOP('',(#379));
#379 = ORIENTED_EDGE('',*,*,#251,.F.);
#380 = PLANE('',#381);
#381 = AXIS2_PLACEMENT_3D('',#382,#383,#384);
#382 = CARTESIAN_POINT('',(-2.1,-73.904,8.090598923241));
#383 = DIRECTION('',(-2.22044604925E-16,-1.,0.));
#384 = DIRECTION('',(0.,0.,1.));
#385 = ADVANCED_FACE('',(#386),#397,.F.);
#386 = FACE_BOUND('',#387,.F.);
#387 = EDGE_LOOP('',(#388,#389,#395,#396));
#388 = ORIENTED_EDGE('',*,*,#173,.F.);
#389 = ORIENTED_EDGE('',*,*,#390,.F.);
#390 = EDGE_CURVE('',#209,#174,#391,.T.);
#391 = LINE('',#392,#393);
#392 = CARTESIAN_POINT('',(-1.579611177245E-14,-83.754,7.));
#393 = VECTOR('',#394,1.);
#394 = DIRECTION('',(0.,0.,1.));
#395 = ORIENTED_EDGE('',*,*,#208,.T.);
#396 = ORIENTED_EDGE('',*,*,#390,.T.);
#397 = CYLINDRICAL_SURFACE('',#398,1.45);
#398 = AXIS2_PLACEMENT_3D('',#399,#400,#401);
#399 = CARTESIAN_POINT('',(-1.511899952355E-14,-82.304,7.));
#400 = DIRECTION('',(0.,0.,1.));
#401 = DIRECTION('',(-2.22044604925E-16,-1.,0.));
#402 = ADVANCED_FACE('',(#403),#409,.T.);
#403 = FACE_BOUND('',#404,.T.);
#404 = EDGE_LOOP('',(#405,#406,#407,#408));
#405 = ORIENTED_EDGE('',*,*,#370,.F.);
#406 = ORIENTED_EDGE('',*,*,#287,.T.);
#407 = ORIENTED_EDGE('',*,*,#311,.T.);
#408 = ORIENTED_EDGE('',*,*,#346,.F.);
#409 = PLANE('',#410);
#410 = AXIS2_PLACEMENT_3D('',#411,#412,#413);
#411 = CARTESIAN_POINT('',(-2.1,-73.904,8.090598923241));
#412 = DIRECTION('',(0.,0.,1.));
#413 = DIRECTION('',(-2.22044604925E-16,-1.,0.));
#414 = ADVANCED_FACE('',(#415),#434,.F.);
#415 = FACE_BOUND('',#416,.F.);
#416 = EDGE_LOOP('',(#417,#418,#426,#433));
#417 = ORIENTED_EDGE('',*,*,#328,.T.);
#418 = ORIENTED_EDGE('',*,*,#419,.T.);
#419 = EDGE_CURVE('',#329,#420,#422,.T.);
#420 = VERTEX_POINT('',#421);
#421 = CARTESIAN_POINT('',(-1.805608332873E-14,-80.104,9.4));
#422 = LINE('',#423,#424);
#423 = CARTESIAN_POINT('',(-1.581343281898E-14,-70.004,9.4));
#424 = VECTOR('',#425,1.);
#425 = DIRECTION('',(-2.22044604925E-16,-1.,2.22044604925E-16));
#426 = ORIENTED_EDGE('',*,*,#427,.F.);
#427 = EDGE_CURVE('',#420,#420,#428,.T.);
#428 = CIRCLE('',#429,1.1);
#429 = AXIS2_PLACEMENT_3D('',#430,#431,#432);
#430 = CARTESIAN_POINT('',(-1.778666103291E-14,-80.104,10.5));
#431 = DIRECTION('',(-2.22044604925E-16,-1.,2.22044604925E-16));
#432 = DIRECTION('',(-4.930380657631E-32,-2.22044604925E-16,-1.));
#433 = ORIENTED_EDGE('',*,*,#419,.F.);
#434 = CYLINDRICAL_SURFACE('',#435,1.1);
#435 = AXIS2_PLACEMENT_3D('',#436,#437,#438);
#436 = CARTESIAN_POINT('',(-1.554401052317E-14,-70.004,10.5));
#437 = DIRECTION('',(-2.22044604925E-16,-1.,2.22044604925E-16));
#438 = DIRECTION('',(-4.930380657631E-32,-2.22044604925E-16,-1.));
#439 = ADVANCED_FACE('',(#440),#443,.F.);
#440 = FACE_BOUND('',#441,.F.);
#441 = EDGE_LOOP('',(#442));
#442 = ORIENTED_EDGE('',*,*,#427,.T.);
#443 = PLANE('',#444);
#444 = AXIS2_PLACEMENT_3D('',#445,#446,#447);
#445 = CARTESIAN_POINT('',(-1.778666103291E-14,-80.104,10.5));
#446 = DIRECTION('',(-2.22044604925E-16,-1.,2.22044604925E-16));
#447 = DIRECTION('',(-4.930380657631E-32,-2.22044604925E-16,-1.));
#448 = ( GEOMETRIC_REPRESENTATION_CONTEXT(3) 
GLOBAL_UNCERTAINTY_ASSIGNED_CONTEXT((#452)) GLOBAL_UNIT_ASSIGNED_CONTEXT
((#449,#450,#451)) REPRESENTATION_CONTEXT('Context #1',
  '3D Context with UNIT and UNCERTAINTY') );
#449 = ( LENGTH_UNIT() NAMED_UNIT(*) SI_UNIT(.MILLI.,.METRE.) );
#450 = ( NAMED_UNIT(*) PLANE_ANGLE_UNIT() SI_UNIT($,.RADIAN.) );
#451 = ( NAMED_UNIT(*) SI_UNIT($,.STERADIAN.) SOLID_ANGLE_UNIT() );
#452 = UNCERTAINTY_MEASURE_WITH_UNIT(LENGTH_MEASURE(1.E-07),#449,
  'distance_accuracy_value','confusion accuracy');
#453 = CONTEXT_DEPENDENT_SHAPE_REPRESENTATION(#454,#456);
#454 = ( REPRESENTATION_RELATIONSHIP('','',#32,#10) 
REPRESENTATION_RELATIONSHIP_WITH_TRANSFORMATION(#455) 
SHAPE_REPRESENTATION_RELATIONSHIP() );
#455 = ITEM_DEFINED_TRANSFORMATION('','',#11,#15);
#456 = PRODUCT_DEFINITION_SHAPE('Placement','Placement of an item',#457
  );
#457 = NEXT_ASSEMBLY_USAGE_OCCURRENCE('4','=>[0:1:1:2]','',#5,#27,$);
#458 = PRODUCT_RELATED_PRODUCT_CATEGORY('part',$,(#29));
ENDSEC;
END-ISO-10303-21;
